<svg xmlns="http://www.w3.org/2000/svg" xml:space="preserve" width="8.16842in" height="10.5394in" version="1.1" style="shape-rendering:geometricPrecision; text-rendering:geometricPrecision; image-rendering:optimizeQuality; fill-rule:evenodd; clip-rule:evenodd"
viewBox="0 0 3036 3918"
 xmlns:xlink="http://www.w3.org/1999/xlink">
 <defs>
  <style type="text/css">
   <![CDATA[
    .str0 {stroke:black;stroke-width:2.58143}
    .fil1 {fill:black}
    .fil0 {fill:white}
    .fill22 {fill:white}
   ]]>
  </style>
 </defs>
 <g id="Layer_x0020_1">
  <metadata id="CorelCorpID_0Corel-Layer"/>
  <path class="fil0" d="M2950 1729c68,153 -40,316 41,430 100,139 3,273 0,437 0,47 26,168 -18,184 -68,24 146,561 -44,567 -25,1 -21,0 -31,2 -10,62 -31,230 -43,243 -23,23 -72,-15 -91,-22 -69,-25 -188,-10 -216,-49 -28,-42 19,-72 15,-132 -8,-96 -5,-76 30,-110 -43,-43 -149,-51 -84,-152 21,-33 -7,-312 -16,-363 -32,-171 -40,-166 -13,-340 9,-60 -21,-155 -19,-233 0,-21 5,-86 2,-118 -15,-8 -28,-25 -38,-45 0,36 6,71 18,104 4,13 9,26 15,38l0 378c0,120 -28,183 -28,248 0,21 59,85 6,244 -6,20 -34,83 -34,98 0,46 9,42 16,73 5,25 5,42 9,68 12,81 11,139 2,217 -2,26 -9,40 -19,49l10 65c-167,138 -354,166 -609,245 -85,26 -216,80 -358,57 -142,-23 -209,-8 -320,-27 -111,-20 -239,-51 -280,-58 -307,-57 -206,15 -242,-184 -2,-5 -4,-10 -5,-16 -27,-96 -30,-219 -30,-323 0,-56 -17,-147 -17,-160 0,-89 23,-73 23,-122 0,-33 -20,-63 -30,-91 -16,-46 -17,-108 -16,-136 1,0 1,-1 1,-2 0,0 0,0 0,-1 9,-40 28,-69 28,-117 0,-10 -6,-203 -7,-225 1,1 0,-2 0,-2 0,0 0,-1 0,-1 4,-46 10,-106 16,-164 27,-47 43,-102 43,-161l0 -87c0,-7 0,-15 -1,-22 -11,27 -27,50 -45,60 -3,32 1,97 2,118 2,78 -28,173 -19,233 1,8 2,16 4,23 -1,1 -1,1 0,2 0,0 0,0 0,0 -5,33 -8,264 -17,315 -1,9 -3,18 -4,28 -1,1 -1,1 -1,2 0,0 0,0 0,1 -6,51 -15,270 -22,303 2,6 8,15 11,20 64,100 -41,109 -85,152 36,34 39,14 31,110 -4,59 43,90 14,131 -27,40 -146,25 -215,50 -19,6 -68,45 -91,21 -12,-12 -33,-181 -43,-242 -10,-2 -6,-1 -31,-2 -141,-5 -60,-365 -44,-441 40,-191 -139,-557 -19,-738 82,-123 -27,-275 42,-430 31,-70 54,-171 85,-234 31,-147 97,-295 117,-448 0,-8 3,-15 8,-20 4,-14 7,-26 12,-40 86,-254 155,-249 386,-310 84,-22 255,-72 337,-101 14,0 21,-7 29,-28l9 11 -1 -32c0,0 -58,-74 -47,-80 12,-5 -37,-70 -37,-70l-54 -89 -53 -79 -1 -41 75 -23 93 -28 86 -26 87 -23 88 -20c0,0 125,-19 124,-27 -1,-8 112,6 112,-6 -1,-12 82,-3 86,-3 4,0 98,6 98,6l106 24 112 45 84 35 105 79 40 41 -17 63 -25 54 -24 51 -25 52 -37 75 -13 22c133,67 528,173 623,266 76,74 81,115 113,224 13,44 24,90 32,139 12,76 51,202 68,307 31,63 54,164 85,234z"/>
  <path class="fil1" d="M2604 3299c0,0 -2,24 -3,51 -1,6 5,23 17,31 20,12 52,15 54,17 5,6 -3,12 -6,19 -14,31 -38,-10 -76,35l-33 34c0,0 -1,22 8,23 9,0 71,9 86,11 15,2 92,13 92,13l70 21c0,0 40,-67 43,-78 2,-10 0,-129 -19,-129 0,0 -28,-12 -48,-20 -21,-8 -105,-44 -135,-40 -31,3 -50,12 -50,12z"/>
  <path class="fil1" d="M2970 2719c-13,41 -52,129 -83,157 -32,30 -8,100 -1,131 -15,-35 -57,-120 -28,-164 16,-24 64,-32 112,-124zm-553 -753c53,66 69,37 107,87l25 36 37 47c67,77 -14,-24 35,46 22,33 116,70 162,127l14 17c-52,-52 -66,-53 -134,-86 -99,-47 -80,-20 -135,-139 -53,-114 -52,-45 -111,-135zm-2229 1349c18,-8 -33,17 77,-19 133,-42 19,-21 114,-35l1 -1c-109,2 -121,5 -194,50l2 5zm2651 35c-86,-53 -97,-61 -186,-64l-1 5c38,5 -29,-6 84,31 135,43 28,-3 102,30l1 -2zm-2712 -1370c22,141 67,231 112,362 24,67 20,110 20,181 -3,185 -23,119 38,289 -77,-177 -43,-98 -63,-287 -7,-58 -20,-87 -28,-134l-3 -41c-15,-127 -63,-217 -76,-370zm-56 1337c5,-63 45,-155 110,-177 36,-12 136,-14 175,-15 -66,13 -101,14 -159,50 -71,44 -104,51 -126,142zm2462 -170c24,-13 122,-78 155,-74 12,1 127,51 136,55 -135,-27 -156,-20 -291,19z"/>
  <path class="fill22" d="M432 3427l-11 -102c1,6 -5,23 -17,31 -20,12 -52,15 -54,17 -5,6 3,12 6,19 14,31 38,-10 76,35zm2158 25l11 -102c-1,6 5,23 17,31 20,12 52,15 54,17 5,6 -3,12 -6,19 -14,31 -38,-10 -76,35z"/>
  <path class="fil1" d="M418 3274c0,0 2,24 3,51 1,6 -5,23 -17,31 -20,12 -52,15 -54,17 -5,6 3,12 6,19 14,31 38,-10 76,35l33 34c0,0 1,22 -8,23 -9,0 -72,8 -86,11 -15,2 -93,13 -93,13l-69 21c0,0 -40,-67 -43,-78 -2,-10 0,-129 19,-129 0,0 28,-12 48,-20 21,-8 105,-44 135,-41 31,4 50,13 50,13z"/>
  <path class="fil1" d="M1989 2537c7,19 14,38 22,57l-7 3c-8,-19 -15,-38 -22,-57l7 -3zm25 65c7,19 15,38 23,57l-7 3c-8,-18 -16,-37 -23,-56l7 -4zm26 65c8,18 16,36 24,53l2 3 -7 3 -1 -3c-9,-17 -17,-35 -25,-53l7 -3zm30 64c9,18 19,36 29,54l-7 3c-10,-18 -20,-36 -29,-54l7 -3zm34 61c10,18 21,35 33,52l-7 3c-11,-17 -23,-34 -33,-52l7 -3zm38 59c3,4 5,7 8,11 10,13 20,26 30,39l-7 3c-10,-12 -19,-25 -29,-38 -3,-4 -6,-8 -9,-12l7 -3zm43 57c6,10 13,19 18,30 6,11 4,24 -6,32 0,0 -1,1 -1,1l-10 5c-8,1 -16,-1 -22,-6 -7,-5 -14,-11 -22,-17 -5,-4 -9,-8 -14,-12 -1,-2 -2,-3 -3,-4l7 -4c0,1 1,2 2,3 4,4 8,8 13,11 7,6 14,12 22,18 7,5 16,5 23,-1 7,-5 9,-15 5,-23 -6,-10 -12,-20 -19,-29l7 -4zm-66 22c-6,-9 -12,-18 -18,-26 -6,-8 -12,-17 -18,-25l7 -3c6,8 11,16 17,24 6,8 12,18 19,26l-7 4zm-41 -59c-11,-17 -22,-34 -33,-51l7 -4c11,18 22,35 33,52l-7 3zm-38 -59c-10,-18 -20,-35 -30,-53l6 -3c10,18 21,35 31,53l-7 3zm-34 -61c-5,-9 -10,-18 -15,-27 -5,-9 -9,-18 -14,-27l7 -3c4,8 9,17 13,26 5,9 10,19 15,28l-6 3zm-33 -62c-9,-18 -17,-37 -26,-55l7 -4c8,19 17,37 26,56l-7 3zm-30 -63c-8,-19 -16,-38 -24,-56l7 -3c8,18 16,37 24,56l-7 3zm-28 -64c-2,-5 -3,-9 -5,-13 -10,-23 2,-50 25,-59 7,-2 14,-3 21,-1 19,6 23,23 30,40l-7 3 0 0c-5,-14 -9,-31 -25,-36 -6,-1 -11,-1 -16,1 -19,8 -29,30 -21,49 1,4 3,8 5,12l-7 4z"/>
  <path class="fil1" d="M670 2952c5,-11 10,-21 16,-32l6 3c-5,11 -11,21 -16,32 -4,8 -1,19 6,24 8,5 19,4 25,-4 9,-10 17,-21 25,-33l7 3c-8,12 -17,24 -26,35 -7,8 -16,11 -25,9l-12 -6c-9,-7 -12,-20 -6,-31zm19 -40c10,-18 19,-36 27,-55l7 4c-9,18 -18,36 -27,55l-7 -4zm31 -62c8,-19 16,-38 23,-57l7 3c-7,19 -15,38 -23,57l-7 -3zm26 -65l1 -1c6,-19 12,-39 17,-59l7 4c-5,19 -11,38 -17,57l-1 2 -7 -3zm20 -68c4,-14 6,-28 9,-41 1,-7 3,-14 4,-21l7 3c-1,7 -2,13 -4,19 -2,14 -5,29 -9,43l-7 -3zm15 -71c3,-21 7,-42 10,-63l7 4c-3,21 -7,42 -10,62l-7 -3zm11 -72c3,-21 6,-42 9,-63l7 3c-3,21 -6,42 -9,64l-7 -4zm10 -72c0,-1 0,-2 1,-3 2,-14 7,-28 20,-35 7,-3 14,-4 20,-3 25,4 41,28 37,52 -2,8 -3,15 -5,23l-7 -3c2,-7 3,-14 4,-21 4,-21 -10,-40 -30,-44 -5,-1 -11,0 -15,3 -12,5 -15,17 -17,29 0,2 -1,3 -1,5l-7 -3zm72 43c-4,21 -8,42 -11,62l-7 -3c3,-21 7,-42 11,-62l7 3zm-13 71c-4,21 -8,42 -12,62l-7 -3c4,-21 8,-41 12,-62l7 3zm-14 71c-5,20 -10,40 -15,60l-7 -3c5,-20 10,-40 15,-60l7 3zm-18 69c-6,20 -12,39 -19,58l-7 -3c7,-19 14,-39 19,-58l7 3zm-23 66c-7,19 -16,38 -25,56l-7 -3c10,-18 18,-37 26,-56l6 3zm-29 64l-1 1c-10,18 -20,35 -32,51l-6 -3c11,-17 21,-34 31,-51l1 -1 7 3z"/>
  <path class="fil1" d="M1579 3749l-256 -20 -168 -31 -266 -54 -210 10 -68 -11c36,199 -65,127 242,184 41,7 169,38 280,58 111,19 178,4 320,27 142,23 273,-31 358,-57 255,-79 442,-107 609,-245l-16 -104c-296,73 -518,184 -825,243z"/>
  <path class="fil1" d="M1897 3641l-84 22 -106 33m-294 23c8,-5 17,-9 24,-12 29,-12 138,-34 222,-46 57,-8 136,-31 205,-53m-553 17l7 0c-1,-5 -1,-12 0,-21m-17 21l3 0m-22 12c-61,-1 -123,-4 -149,-7 -49,-8 -81,-15 -115,-20 -8,-1 -17,-2 -26,-4 88,33 143,54 179,56 29,2 65,5 88,8m545 -94c-27,2 -53,6 -79,13 -129,31 -254,50 -306,50 -16,0 -43,0 -75,0m470 -64l-5 0m36 -1c-12,0 -25,0 -36,1m828 -1872c-2,-189 -7,-371 22,-534 -9,6 -17,13 -24,20l0 20c0,3 -1,7 -2,11 0,1 0,2 0,4 -1,3 -1,6 -2,8 0,1 0,2 0,4 11,191 10,313 -3,470 3,-1 6,-2 9,-3zm-1186 -850l0 4 1 0 0 4 0 0 0 0 0 9 0 0 0 1 1 0 1 23c5,1 10,2 15,4 3,-1 6,-2 8,-4 3,-1 4,-1 6,0l1 -5c-7,1 -13,2 -18,5 -8,3 -11,-5 -9,-11 1,0 2,-1 3,-1 3,0 6,0 9,-1 2,0 3,-1 5,-1 2,0 5,1 7,1 1,0 3,0 4,0 19,-10 53,-63 61,-75l7 5c-9,21 -49,79 -55,92 -2,4 -3,9 -4,13 0,0 1,-1 2,-1 6,-9 13,-18 20,-26 4,-7 9,-12 13,-15l1 0c7,-10 13,-15 24,-22 5,-3 9,-6 15,-9l0 -1 1 0 171 -64c103,-59 223,-116 280,-223 126,67 534,175 631,270 76,74 81,115 113,224 13,44 24,90 32,139 12,76 51,202 68,307 31,63 54,164 85,234 68,153 -40,316 41,430 100,139 3,273 0,437 0,47 26,168 -18,184 -68,24 146,561 -44,567 -25,1 -21,0 -31,2 -10,62 -31,230 -43,243 -23,23 -72,-15 -91,-22 -69,-25 -188,-10 -216,-49 -28,-42 19,-72 15,-132 -8,-96 -5,-76 30,-110 -43,-43 -149,-51 -84,-152 21,-33 -7,-312 -16,-363 -32,-171 -40,-166 -13,-340 9,-60 -21,-155 -19,-233 0,-21 5,-86 2,-118 -15,-8 -28,-25 -38,-45 0,36 6,71 18,104 4,13 9,26 15,38l0 378c0,120 -28,183 -28,248 0,21 59,85 6,244 -6,20 -34,83 -34,98 0,46 9,42 16,73 5,25 5,42 9,68 12,81 11,139 2,217 -8,82 -51,47 -158,74 -264,66 -424,197 -729,197l-181 0c-17,0 -33,-1 -49,-2 -2,2 -4,1 -5,0 -72,-5 -141,-17 -256,-47 -147,-39 -161,-39 -315,-39 -26,0 -69,4 -92,-2 -26,-7 -31,-24 -38,-50 -27,-96 -30,-219 -30,-323 0,-56 -17,-147 -17,-160 0,-89 23,-73 23,-122 0,-33 -20,-63 -30,-91 -16,-46 -17,-108 -16,-136 1,0 1,-1 1,-2 0,0 0,0 0,-1 9,-40 28,-69 28,-117 0,-10 -6,-203 -7,-225 1,1 0,-2 0,-2 0,0 0,-1 0,-1 12,-147 59,-248 59,-412 0,-7 0,-15 -1,-22 -11,27 -27,50 -45,60 -3,32 1,97 2,118 2,78 -28,173 -19,233 1,8 2,16 4,23 -1,1 -1,1 0,2 0,0 0,0 0,0 -5,33 -8,264 -17,315 -1,9 -3,18 -4,28 -1,1 -1,1 -1,2 0,0 0,0 0,1 -6,51 -15,270 -22,303 2,6 8,15 11,20 64,100 -41,109 -85,152 36,34 39,14 31,110 -4,59 43,90 14,131 -27,40 -146,25 -215,50 -19,6 -68,45 -91,21 -12,-12 -33,-181 -43,-242 -10,-2 -6,-1 -31,-2 -141,-5 -60,-365 -44,-441 40,-191 -139,-557 -19,-738 82,-123 -27,-275 42,-430 31,-70 54,-171 85,-234 31,-147 97,-295 117,-448 0,-8 3,-15 8,-20 4,-14 7,-26 12,-40 86,-254 155,-249 386,-310 84,-22 255,-72 337,-101 15,-9 21,-7 29,-28 115,140 214,258 393,305zm-72 9c-7,-1 -15,-2 -16,-4l0 0c-33,-12 -71,-37 -77,-39 -59,-29 -184,-159 -210,-209 -2,1 -4,3 -6,4l-1 -4 -227 85c-77,26 -158,47 -241,68 -93,24 -136,36 -186,123 -67,116 -136,459 -187,600 -5,13 -5,24 -17,34l7 -4c-28,83 -50,161 -87,242 -57,128 59,279 -47,438 -86,130 55,511 39,671 -6,62 -66,361 -33,414 19,6 84,-7 96,26 16,48 25,146 34,216 97,-42 91,-26 206,-42 4,0 8,-1 12,-2 -2,-23 -27,-39 -22,-105 3,-41 3,-19 1,-53 -24,-23 -65,-49 -13,-93 18,-15 75,-45 86,-60 -9,-28 -39,-39 -29,-86l-2 7c13,-132 40,-388 57,-518 -13,-132 -27,-133 -9,-264 16,-117 7,-97 7,-208 0,-23 0,-66 24,-75 94,-92 35,-264 25,-378l-4 -63c0,-8 3,-15 8,-20 -24,-183 -25,-362 -10,-559 1,-8 1,-17 2,-26 -63,-28 -43,91 -42,152 0,66 27,249 53,431 5,-4 10,-6 17,-6 15,0 28,13 28,28 5,99 34,231 29,320 0,3 0,7 -1,11 7,22 14,45 21,68 83,258 87,331 87,599l0 0 0 3c0,2 -1,3 -1,5 -30,-76 -76,-491 -91,-506 -54,69 -52,484 -31,573 21,92 -77,107 -3,306 26,70 1,114 -8,151 -9,40 5,47 11,84 13,77 1,351 39,413 75,12 163,4 242,16 151,24 232,60 347,79 0,-6 2,-12 6,-15l10 -7c-5,-10 -13,-2 -13,-2 0,0 0,-5 0,-11 0,-6 1,-13 6,-16l15 -11c1,-1 1,-1 1,-2 0,0 0,1 1,1l-1 -25 0 0c-1,-2 -1,-8 0,-10l0 0 0 -25 0 0c-1,-2 -1,-8 0,-10l0 0 0 -24c-1,-3 -1,-8 0,-11l-1 -25c0,-2 0,-6 0,-8l0 -29c0,-1 0,-3 0,-4 -1,-131 -3,-307 -3,-447 -6,-6 -12,-11 -18,-17 -11,-11 -15,-18 -26,-29 -133,-143 -21,-7 -97,-132 -399,-653 49,40 141,137 -1,-75 -1,-136 0,-169 2,-156 11,-494 17,-594 5,-76 35,-286 49,-429 5,-52 0,-95 3,-123 22,-100 70,-462 61,-540 0,-5 -1,-10 -1,-15 -1,-27 2,-60 7,-91 -21,-8 -36,-22 -17,-36 8,-5 18,-16 26,-30 1,-2 1,-5 1,-7l-11 -2 0 -2 0 0 18 -77c-16,5 -35,-3 -51,-6zm423 -82c-38,14 -113,50 -146,58 -14,3 -29,5 -44,7 -16,7 -32,14 -48,22 -40,22 -62,75 -74,102 0,5 -1,10 -2,16l1 0c1,2 1,8 -1,10l-1 0c-1,7 -3,15 -5,25 1,0 2,-1 3,-1 1,2 1,8 -1,11 -1,-1 -2,-1 -3,-1 -2,8 -4,17 -6,26 2,0 4,-1 6,-1 1,2 1,8 -1,10 -2,0 -4,-1 -6,-1 -2,9 -3,18 -5,27 3,0 5,0 8,-1 1,2 0,8 -2,10 -2,-1 -5,-1 -7,-1 -2,9 -3,18 -4,27 3,0 6,-1 8,-2 2,3 1,8 -1,11 -2,-1 -5,-2 -8,-2 -1,10 -2,19 -2,28 3,-1 5,-1 7,-2 1,2 1,8 -1,10 -2,0 -4,-1 -6,-1 0,9 0,18 -1,27 1,0 3,-1 4,-1 1,2 0,8 -1,10 -1,0 -3,0 -4,-1 0,9 -1,17 -2,26 1,0 2,0 2,-1 2,3 1,8 -1,11 -1,-1 -1,-1 -2,-1 -1,9 -2,17 -4,26 1,0 2,0 3,-1 1,3 1,8 -1,11 -1,-1 -2,-1 -3,-1 -1,9 -3,18 -4,26 1,0 3,-1 4,-1 1,2 0,8 -2,10 -1,0 -2,0 -3,0 -2,10 -4,19 -5,26 2,0 4,0 5,-1 2,2 1,8 -1,10 -2,-1 -4,-1 -6,-1 -2,9 -3,18 -5,27 3,0 5,0 8,-1 1,2 0,7 -1,10 -3,-1 -5,-1 -8,-1 -1,9 -2,18 -3,27 2,-1 5,-1 8,-2 1,2 0,8 -2,10 -2,0 -5,-1 -7,-1 -1,13 -2,22 -2,24 0,0 0,2 0,3 2,0 4,0 6,-1 1,2 1,8 -1,10 -2,-1 -4,-1 -6,-1l-4 27c2,0 5,-1 7,-1 1,2 0,7 -1,10 -2,-1 -5,-1 -7,-1l-3 27c2,0 4,-1 6,-2 1,3 1,8 -1,10 -2,0 -4,-1 -6,-1l-3 27c2,0 4,0 6,-1 1,2 1,8 -1,11 -2,-1 -4,-2 -6,-2l-4 27c2,0 5,0 7,-1 1,2 0,8 -1,10 -2,-1 -5,-1 -7,-1l-3 27c2,0 4,-1 7,-1 1,2 0,8 -2,10 -2,-1 -4,-1 -6,-1l-3 27c2,-1 4,-1 6,-2 1,3 1,8 -1,11 -2,-1 -4,-2 -6,-2l-3 28c2,-1 4,-1 6,-2 1,2 1,8 -1,10 -2,0 -4,-1 -6,-1l-3 27c2,0 4,0 6,-1 1,2 0,7 -1,10 -2,-1 -4,-1 -6,-1l-3 27c2,0 4,-1 6,-2 0,1 1,2 0,4 1,0 0,0 0,0 0,0 0,0 0,0 0,0 0,1 0,1 0,0 0,2 0,2 0,0 0,1 0,1 0,1 -1,2 -1,2 -2,0 -4,0 -6,0l-3 27c2,0 4,-1 6,-2 1,2 0,8 -1,10 -2,0 -4,-1 -6,-1l-3 28c2,-1 4,-1 6,-2 1,2 1,8 -1,10 -2,0 -4,-1 -6,-1l-3 27c2,0 4,0 6,-1 1,2 1,8 -1,10 -2,-1 -4,-1 -6,-1l-2 27c2,0 4,0 6,-1 1,2 0,7 -2,10 -1,-1 -3,-1 -5,-1l-3 27c2,0 4,-1 6,-2 1,3 0,8 -1,11 -2,-1 -4,-1 -6,-2 -1,10 -1,19 -2,28 2,-1 3,-1 5,-2 1,3 1,8 -1,10 -1,-1 -3,-1 -5,-1 -1,9 -2,18 -2,27 1,0 3,0 5,-1 1,2 0,7 -1,10 -2,-1 -3,-1 -5,-1 -1,9 -2,18 -2,27 1,0 3,-1 4,-2 1,3 1,8 -1,11 -1,-1 -3,-1 -4,-1 -1,9 -2,18 -2,27 1,0 3,-1 4,-2 1,3 0,9 -1,11 -1,-1 -2,-1 -4,-1 0,9 -1,18 -2,26 2,0 3,0 4,-1 1,3 0,9 -1,11 -1,-1 -2,-1 -3,-1 -1,9 -1,17 -2,26 1,0 2,-1 3,-1 1,2 0,8 -1,10 -1,0 -1,0 -2,0l-1 25 1 0c1,2 0,8 -1,10l-1 0 -1 25c1,2 1,6 0,9 -10,241 -19,597 -19,647 0,27 -1,63 -3,96 -1,25 -3,51 -4,72l0 6 10 10c-1,14 0,27 2,41l-10 -11c2,24 5,51 5,51 0,0 -1,11 -1,28l0 4c0,0 -1,9 -2,23 0,26 0,55 3,72 8,34 7,318 14,350 3,15 1,27 -2,35 3,13 3,26 -2,38l4 19c0,0 1,2 -6,9l0 1 2 15c22,2 46,3 72,3 47,1 102,0 166,-5 45,-3 87,-9 128,-18 66,-13 128,-33 190,-55 91,-33 180,-70 272,-102 64,-22 195,-44 204,-49 17,-74 -2,-240 -27,-312 -15,12 -102,116 -175,181 -14,11 -14,11 -34,17 17,-47 120,-128 166,-188 40,-55 136,-273 83,-335 -22,12 -58,96 -76,127 -50,89 -89,165 -144,253 -17,28 -53,107 -84,117 -9,-19 4,-30 18,-56 72,-127 135,-219 207,-362 82,-163 106,-632 89,-818 -24,15 -68,425 -82,461 -27,67 -51,135 -76,205 -17,47 -52,90 -70,133 9,12 8,11 17,28 -7,-6 -14,-12 -21,-18 -8,20 -16,39 -24,59 -14,33 -10,68 -27,99 -10,18 -15,30 -26,46 -15,24 -7,26 -40,31 8,-28 38,-79 53,-107 20,-40 23,-91 45,-146 -97,-129 -151,-255 -207,-376 -3,-10 1,-20 11,-24 10,-4 13,14 17,24 56,148 89,237 185,362 53,-135 125,-296 160,-401 26,-76 55,-420 75,-497 3,-15 7,-32 9,-51 -3,-16 -5,-29 -5,-39 -6,-89 23,-221 29,-320 0,-3 1,-5 1,-8 10,-200 24,-396 76,-441 1,2 2,3 2,4 0,1 1,3 2,4 3,16 0,18 -9,65 -33,154 -37,254 -37,349 12,3 21,14 21,27l-4 63c-4,42 -14,91 -21,142 -1,23 -4,48 -6,75 -2,62 9,120 52,161 24,9 24,52 24,75 0,111 -9,91 7,208 18,131 4,132 -9,264 17,130 43,395 56,528l-1 -7c10,46 -20,58 -29,85 11,16 68,46 86,61 52,43 11,69 -13,92 -2,34 -2,12 1,54 5,66 -20,81 -22,104 3,1 7,2 11,2 116,16 110,0 206,42 10,-69 19,-168 35,-215 11,-34 77,-21 96,-27 53,-80 -107,-485 -4,-554 0,-46 -5,-106 -4,-141 1,-139 87,-296 13,-399 -104,-146 10,-310 -47,-438 -36,-81 -58,-159 -87,-242l8 4c-11,-8 -77,-280 -83,-320 -20,-137 -84,-330 -228,-395 -154,-69 -461,-174 -539,-156 -56,72 -109,81 -171,131zm-312 165l1 -3 -1 0 0 3zm-674 1567c-25,247 -47,279 -134,450 24,-28 43,-57 60,-89 62,-112 77,-246 102,-366 1,-10 -5,-20 -16,-22 -10,-1 -10,17 -12,27zm663 -1596c-1,0 -2,0 -4,0 1,-1 2,-3 3,-4 0,0 1,0 2,0l-1 4zm-43 111c3,1 5,1 7,1 1,4 4,7 9,4 3,-1 7,-2 12,-3l-1 5c-3,1 -8,4 -14,4 -4,0 -9,0 -14,-1l1 -10zm32 -29c-1,1 -1,1 -1,1 -1,-2 -1,-3 -2,-5 1,0 2,0 3,0l0 4zm1 -12c-2,-1 -4,-1 -5,-2 -1,-2 -1,-4 -1,-6 2,1 4,2 6,3 0,0 1,0 1,0l-1 5zm4 -22c-1,0 -2,0 -3,0 -1,1 -4,2 -8,3 0,-2 1,-3 1,-5 2,-1 6,-2 10,-3l0 5zm1 -13c-3,0 -7,-1 -10,-3 0,-1 1,-3 1,-5 3,1 6,2 7,3 1,0 2,1 3,1l-1 4zm-15 113c-4,1 -8,2 -10,3 -14,7 -11,-24 1,-16 2,1 6,3 10,4l1 -5c-3,-1 -7,-3 -12,-4 -5,0 -10,-1 -15,0l-3 26c8,2 20,1 27,-3l1 -5zm-29 17c5,-1 10,-1 15,0 4,0 8,2 11,3l-1 5c-3,0 -6,-2 -8,-3 0,0 0,0 0,-1 -1,0 -1,0 -1,0 -5,-3 -9,2 -9,8 -1,0 -1,2 -1,2 0,5 2,10 8,7 1,0 1,0 1,0 2,-1 5,-2 9,-3l-1 5c-7,3 -19,5 -26,3l3 -26zm-4 34c0,0 1,1 1,0 1,0 2,0 2,0 1,0 3,1 3,0l4 0c0,0 0,0 1,0 3,0 7,1 10,2 2,0 3,1 4,1l0 5c-4,0 -6,-2 -8,-3 -12,-7 -15,24 -2,17 2,-1 5,-3 8,-4l0 6c-9,4 -18,4 -26,2l3 -26zm19 54c-3,1 -6,2 -8,3 -13,7 -9,-24 2,-17 2,1 4,2 7,3l1 -5c-3,-1 -6,-2 -9,-2 -5,-1 -11,-2 -16,0l-3 25c5,1 11,1 16,1 3,-1 6,-2 9,-3l1 -5zm-5 35c-3,1 -5,2 -7,2 -12,8 -9,-24 2,-16 2,1 4,2 6,3l1 -6c-7,-3 -17,-3 -25,-2l-3 25 0 0c7,3 18,2 25,-1l1 -5zm-5 34c-2,1 -4,2 -6,3 -12,7 -9,-25 2,-17 2,1 4,2 6,3l1 -5c-3,-1 -5,-2 -8,-2 -5,-1 -11,-1 -17,0l0 0 -3 26c0,0 0,-1 1,-1 6,2 17,2 24,-1l0 -6zm-4 35c-2,1 -4,2 -5,3 -13,7 -9,-25 1,-17 2,1 3,2 5,3l1 -6c-2,-1 -4,-1 -7,-2 -5,0 -11,0 -16,1 -1,0 -1,-1 -1,-2 -12,99 -19,197 -25,235 -11,75 -25,195 -33,275 -2,22 -2,40 -2,49 3,24 -10,66 -13,100 -3,31 -6,60 -8,71 -1,3 -1,10 -2,19 -6,62 -14,180 -14,202 0,11 -1,25 -3,39 -1,11 -2,24 -3,36 -1,9 -2,18 -2,26 0,14 -1,67 -2,123 0,0 0,-1 0,1 0,0 0,-1 0,-1l1 0c7,4 16,2 22,-3l0 0c4,-3 6,1 6,6 0,0 0,1 0,1 0,0 0,2 0,2 0,0 0,-2 0,1 0,2 -3,10 -7,6 -1,-1 -3,-2 -5,-2 -3,-1 -5,-2 -8,-2l-4 0c0,1 -1,0 -2,0 0,1 0,1 -1,1 0,0 -1,0 -1,0 0,0 -1,0 -1,0 0,-2 0,-2 0,-3 0,0 0,0 0,0 0,0 0,0 0,-1 0,0 0,0 0,0l-1 27c0,0 0,0 0,-1 4,5 9,5 13,4 4,0 7,-3 9,-4 10,-8 8,24 0,16 -2,-1 -6,-3 -10,-3 -3,-1 -8,-1 -12,-2 0,-1 0,-1 0,-1l-1 25 0 0c4,5 9,5 12,4 5,-1 8,-3 10,-4 9,-8 8,23 -1,16 -2,-1 -5,-3 -9,-4 -4,0 -8,-1 -13,-2l0 0 0 25c4,5 8,4 12,4 4,-1 8,-3 10,-5 9,-7 8,24 -1,17 -2,-1 -5,-3 -9,-4 -4,-1 -9,-1 -13,-2 0,10 0,18 -1,25l0 -1c4,2 9,5 13,5 4,-1 7,-3 9,-5 10,-7 9,24 0,17 -2,-2 -5,-3 -9,-4 -4,0 -9,-4 -13,-3 0,0 0,0 0,0 0,1 0,1 0,2 -1,5 -1,13 -1,25 0,-1 0,-1 0,-2 4,2 9,5 13,5 4,-1 7,-4 9,-5 9,-8 8,24 0,16 -2,-1 -6,-3 -10,-4 -3,0 -8,-3 -12,-2l0 0c0,8 0,16 0,25 4,2 8,5 12,4 4,0 7,-2 9,-4 9,-7 8,24 -1,16 -1,-1 -5,-3 -9,-4 -3,0 -7,-3 -11,-2 0,9 0,17 0,25 3,2 7,5 11,4 4,0 7,-2 9,-4 9,-8 8,24 -1,16 -1,-1 -5,-3 -9,-3 -3,-1 -7,-4 -11,-4 0,9 0,18 0,26 3,2 7,4 10,4 4,-1 8,-3 10,-5 9,-7 8,25 -1,17 -2,-1 -5,-3 -9,-4 -3,0 -7,-3 -11,-3 0,7 0,15 0,26 3,2 7,4 11,4 3,-1 7,-3 9,-4 9,-8 8,23 -1,16 -1,-1 -5,-3 -9,-4 -3,-1 -7,-3 -11,-3l0 26c3,1 7,1 11,3 4,0 7,-2 9,-3 9,-8 8,23 -1,16 -1,-1 -5,-2 -9,-4 -4,-3 -7,-4 -10,-3l-1 25c3,2 7,3 11,4 3,1 7,-2 9,-4 9,-7 8,24 -1,17 -1,-2 -5,-4 -9,-4 -3,-4 -6,-5 -10,-4l0 26c3,2 6,3 10,4 3,2 7,-2 9,-4 9,-8 8,24 0,17 -2,-2 -6,-4 -9,-4 -4,-4 -7,-5 -11,-4l0 26c3,2 6,3 10,4 4,1 7,-3 9,-4 9,-8 9,23 0,16 -2,-1 -6,-2 -9,-4 -4,-2 -7,-4 -10,-3l-1 26c3,1 6,3 10,4 4,1 8,-3 9,-4 10,-8 9,23 0,16 -2,-1 -6,-2 -9,-4 -4,-2 -7,-4 -10,-3l0 26c3,1 6,2 10,3 3,2 7,-2 9,-4 9,-7 8,24 -1,17 -1,-1 -6,-2 -9,-4 -3,-3 -6,-4 -9,-4l-1 27c3,1 6,2 10,3 4,2 7,-2 9,-4 9,-7 9,24 0,17 -2,-2 -4,-5 -9,-8 -3,-2 -7,-2 -10,0l0 5 5 5c1,-4 3,-6 6,-2 2,2 5,4 9,5 2,0 4,0 7,0l0 -27c-5,-1 -11,1 -15,4 -9,3 -9,-28 0,-16 4,3 10,5 15,4l1 -27c-5,0 -11,1 -16,4 -9,3 -8,-27 0,-16 4,4 11,5 16,4l1 -27c-5,0 -13,2 -16,5 -9,3 -8,-28 0,-17 5,4 10,5 16,4l1 -27c-3,0 -5,0 -7,1 -4,0 -7,2 -9,4 -9,3 -9,-28 0,-17 4,4 11,5 16,4l1 -27c-6,0 -11,2 -17,5 -9,4 -8,-28 1,-17 4,4 11,5 16,4l1 -27c-6,0 -12,2 -17,5 -9,4 -8,-27 1,-16 4,3 11,4 16,4l1 -28c-7,0 -12,2 -17,5 -9,4 -8,-27 1,-16 4,3 10,4 16,4l1 -27c-7,-1 -12,1 -17,4 -9,4 -8,-27 1,-16 4,3 11,5 16,4l1 -27c-7,-1 -12,1 -17,5 -9,3 -8,-28 1,-17 1,2 5,4 9,4 2,0 4,0 7,0l1 -27c-7,0 -11,1 -17,5 -9,4 -8,-27 1,-17 4,4 11,5 16,5l1 -28c-3,0 -5,1 -7,1 -4,0 -8,3 -10,4 -9,4 -8,-27 1,-17 4,4 10,5 16,5l1 -28c-7,0 -11,1 -17,5 -9,5 -8,-24 1,-16 3,3 11,4 16,4l1 -28c-3,0 -5,0 -7,1 -4,0 -7,3 -9,4 -10,8 -8,-24 0,-16 4,3 12,4 16,4l1 -27c-6,0 -12,1 -16,5 -9,7 -8,-25 0,-17 4,3 11,5 16,4 0,-9 1,-18 1,-27 -5,0 -11,1 -16,5 -9,7 -8,-24 1,-17 4,4 10,5 15,4l2 -27c-3,0 -5,0 -7,1 -4,0 -8,2 -9,4 -10,7 -9,-24 0,-17 4,4 11,5 16,4l1 -27c-5,0 -12,2 -16,5l0 0c0,0 0,0 -1,0 -5,4 -6,-4 -6,-8 0,0 1,-13 7,-9 0,0 0,0 1,0 0,0 0,0 0,0 4,4 10,5 15,5l1 -28c-5,0 -12,2 -16,5 -9,8 -8,-24 1,-17 4,4 10,5 16,5l1 -27c-6,-1 -12,1 -16,4 -10,8 -8,-23 0,-16 4,4 11,4 16,4l1 -27c-5,-1 -11,1 -16,5 -9,7 -8,-24 1,-17 4,3 11,5 16,4l1 -27c-2,0 -4,0 -6,1 -4,0 -8,2 -10,4 -9,7 -8,-24 1,-17 4,4 10,5 15,4l2 -27c-6,0 -11,1 -16,5 -10,8 -8,-24 1,-17 2,2 5,4 9,4 2,0 4,1 6,0l1 -27c-5,0 -10,2 -15,5 -10,8 -7,-24 1,-16 4,3 10,4 15,4l0 -11c-1,5 -3,8 -7,5 -2,0 -5,-3 -9,-3 -4,-1 -9,-1 -13,1 -1,-3 -1,-8 1,-10 7,3 17,0 22,-4 4,-3 6,0 7,4l0 -10c-5,0 -10,2 -14,5 -10,8 -8,-24 1,-16 2,1 5,3 9,3 1,0 3,0 4,0l1 -7c-1,3 -4,5 -6,3 -6,-5 -16,-6 -22,-3 -1,-3 -1,-8 0,-10 4,2 9,1 13,1 4,-1 8,-3 10,-5 3,-2 5,-1 6,1l0 -7c-5,1 -9,2 -14,5 -10,8 -7,-23 2,-16 1,1 5,3 9,3 1,1 2,1 3,1l1 -6c-2,2 -3,2 -5,1 -2,-2 -6,-4 -10,-4 -4,-1 -8,0 -13,1 -1,-2 0,-8 1,-10 4,2 9,1 13,1 4,-1 8,-3 10,-5 2,-1 4,-1 5,0l0 -5c-5,0 -9,2 -13,5 -10,7 -7,-25 2,-17 3,3 7,4 11,4l1 -5c-2,1 -3,1 -4,0 -6,-4 -16,-6 -23,-3 -1,-2 0,-7 1,-10 4,2 9,2 13,1 4,-1 8,-3 10,-5 2,-1 3,-1 4,-1l0 -4c-1,0 -1,0 -2,0 -4,1 -8,3 -10,5 -10,7 -7,-24 2,-17 2,3 7,3 10,4l1 -4c-1,0 -2,0 -3,-1 -2,-2 -6,-3 -10,-4 -3,0 -8,0 -13,1 -1,-2 0,-7 1,-10 4,2 9,2 13,1 4,-1 8,-3 10,-5 1,-1 2,-1 3,-1l0 -4c-4,1 -7,2 -11,5 -10,7 -7,-24 2,-17 2,2 5,3 9,4l1 0 0 -4c-1,0 -1,0 -2,-1 -2,-1 -5,-3 -9,-4 -4,0 -9,0 -13,2 -1,-3 -1,-8 1,-11 4,2 9,2 13,1 4,-1 8,-3 10,-4 0,-1 1,-1 1,-1l0 -4c-4,0 -7,2 -9,4 -10,7 -7,-24 1,-17 3,2 6,4 9,4l0 -4c0,0 0,0 -1,-1 -1,-1 -5,-3 -9,-4 -4,0 -8,0 -13,1 -1,-2 0,-7 1,-10 6,3 18,2 23,-3l1 -1 0 -4c-4,1 -7,3 -9,4 -10,8 -7,-23 2,-16 1,1 4,3 8,3l0 -4c-6,-5 -16,-5 -23,-3 -1,-3 0,-8 1,-10 4,2 9,1 13,1 5,-1 8,-4 11,-5l0 0 0 -5c-3,1 -7,3 -8,4 -11,8 -7,-24 1,-16 2,1 5,3 8,3l0 -4c-2,-2 -6,-3 -9,-4 -4,0 -9,-1 -13,1 -1,-2 -1,-8 1,-10 4,1 9,1 13,1 4,-1 7,-3 10,-5l1 -5c-4,1 -7,3 -9,4 -10,8 -7,-24 2,-16 1,1 4,3 8,3l1 -4c-1,0 -1,0 -1,0 -5,-5 -16,-5 -23,-3 -1,-2 0,-8 1,-10 7,2 18,1 24,-4 0,0 1,0 1,0l0 -4c-4,0 -7,2 -9,4 -11,7 -7,-25 1,-17 2,1 5,3 9,4l1 -4c0,-1 -1,-1 -1,-1 -2,-1 -6,-4 -10,-4 -4,-1 -9,-1 -13,1 -1,-2 -1,-7 1,-9 7,2 18,1 23,-5 1,0 1,0 2,-1l0 -3c-4,1 -8,3 -10,4 -10,7 -7,-24 2,-17 2,2 5,4 9,4l1 -4c-1,0 -1,0 -2,0 -1,-2 -5,-4 -9,-4 -4,-1 -9,-1 -14,1 -1,-3 0,-8 1,-10 5,1 10,1 14,0 4,0 8,-2 10,-4 1,0 1,-1 2,-1l0 -4c-4,1 -8,3 -10,4 -10,7 -7,-24 2,-17 2,2 5,4 9,4l0 -3c0,-1 0,-1 -1,-1 -1,-1 -3,-2 -5,-2 -2,-1 -4,-2 -7,-2 0,0 0,0 -1,-1 0,0 0,1 0,1 0,0 -1,0 -1,-1l-3 0c0,1 -1,1 -2,1 0,0 -1,0 -2,0 0,1 -1,0 -1,1l-1 0c0,0 0,0 0,0 0,0 0,-1 0,-1 0,0 0,0 0,0 0,0 -1,-3 -1,-3 1,-1 1,-5 2,-6 0,0 0,-1 0,-1 0,1 0,1 0,1 5,2 10,1 14,0 4,0 8,-2 10,-4 0,0 0,0 1,0 0,0 0,0 0,-1l1 -4c-4,1 -8,3 -10,4 0,0 0,0 -1,0 -5,4 -6,-5 -5,-9 0,-3 2,-11 7,-8 0,0 0,0 1,0 0,1 0,1 0,1 2,2 6,3 9,4l0 -5c0,0 -1,0 -1,0 -2,-2 -5,-4 -9,-4 -5,-1 -10,-1 -14,1 -1,-2 -1,-8 1,-10 7,2 18,1 24,-4 0,0 1,0 1,0l0 -5c-4,1 -7,3 -9,4 -11,8 -8,-23 1,-16 2,1 5,3 9,4l1 -5c-4,-2 -7,-3 -11,-4 -4,0 -9,-1 -14,1 -1,-2 0,-7 1,-10 8,2 19,2 25,-3l0 -1 1 -4c-4,1 -8,2 -9,4 -11,7 -8,-24 1,-17 2,2 5,3 8,4l1 -5c-2,-1 -6,-3 -10,-4 -4,0 -9,-1 -14,2 -1,-3 0,-8 1,-11 7,3 18,1 25,-3l0 -5c-4,1 -7,3 -9,4 -10,7 -7,-24 2,-17 2,2 5,3 8,4l0 -5c-7,-5 -15,-5 -23,-2 -1,-3 -1,-8 1,-11 4,2 10,1 14,1 4,0 7,-2 10,-3l0 -5c-3,1 -6,2 -8,3 -11,8 -7,-24 2,-17 2,1 4,3 7,4l1 -6c-2,-1 -5,-2 -9,-3 -4,0 -9,0 -14,2 -1,-2 -1,-8 1,-10 4,2 9,1 14,0 3,0 7,-1 9,-3l1 -5c-3,1 -6,2 -8,3 -11,8 -7,-23 2,-16 2,1 4,2 6,3l1 -5c-2,-1 -5,-3 -8,-3 -4,0 -10,-1 -14,1 -2,-2 -1,-8 1,-10 4,2 9,1 14,1 3,-1 6,-2 8,-3l1 -5c-3,1 -5,2 -7,3 -11,7 -7,-24 2,-17 1,1 3,2 6,3l0 -5c-2,-1 -4,-2 -7,-3 -5,0 -10,0 -15,1 -1,-2 0,-7 1,-10 7,2 16,2 22,-1l1 -6c-2,1 -4,2 -6,3 -11,7 -7,-24 2,-17 1,1 3,2 5,3l1 -5c-7,-3 -15,-4 -22,-1 -1,-3 0,-9 1,-11 7,3 15,2 22,0l0 -6c-2,1 -3,1 -5,2 -11,8 -7,-24 2,-17 1,1 3,2 4,3l1 -5c-2,-1 -4,-2 -6,-2 -5,-1 -10,-1 -15,1 -1,-2 -1,-8 1,-11 6,3 15,2 21,0l1 -6c-2,1 -4,2 -5,2 -11,8 -8,-24 2,-16 1,1 2,1 4,2l0 -5c-6,-2 -14,-3 -20,-1 -1,-2 -1,-8 1,-10 6,2 14,2 20,0l1 -6c-2,1 -3,1 -4,2 -11,7 -8,-25 2,-17 1,1 2,1 3,2l1 -5c-6,-2 -14,-3 -20,-1 -2,-2 -1,-8 1,-10 6,2 14,2 20,0l1 -6c-1,1 -3,1 -3,2 -12,7 -9,-24 1,-17 1,1 2,2 4,2l0 -5c-6,-2 -14,-2 -21,0 -1,-3 0,-8 2,-11 4,2 10,2 15,1 2,0 4,0 6,-1l0 -6c-1,1 -2,2 -3,2 -12,7 -9,-24 1,-17 1,1 3,2 4,3l1 -6c-7,-3 -15,-3 -22,0 -1,-3 0,-8 1,-10 7,2 16,2 22,-1l1 -6c-2,1 -3,2 -4,2 -13,8 -9,-23 1,-16 1,1 3,2 5,2l0 -5c-2,-1 -4,-1 -6,-2 -5,0 -11,-1 -16,1 -1,-3 -1,-8 1,-10 7,2 16,2 23,-1l1 -6zm-119 957c4,-2 9,-2 13,-2 4,1 7,3 9,4 9,7 10,-24 1,-16 -2,1 -6,4 -10,4 -4,1 -9,1 -13,0 -1,2 -1,7 0,10zm-2 35c4,-2 9,-2 13,-1 4,0 7,2 9,3 9,7 10,-24 1,-16 -6,4 -16,6 -23,3 -1,2 -1,8 0,11zm-2 34c4,-1 9,-1 13,-1 4,1 7,3 9,4 9,7 10,-24 1,-16 -6,4 -16,6 -22,3 -2,2 -2,8 -1,10zm-2 35c5,-2 9,-1 13,-1 4,0 8,2 9,4 9,7 11,-24 1,-17 -5,5 -16,7 -22,4 -2,2 -2,8 -1,10zm-1 35c4,-2 9,-2 13,-1 4,0 7,2 9,4 9,7 10,-24 1,-17 -2,2 -6,4 -10,4 -4,1 -9,2 -13,0 -1,2 -1,8 0,10zm-2 35c5,-2 9,-2 13,-1 4,0 8,2 9,4 9,7 10,-25 1,-17 -2,2 -5,4 -9,4 -4,1 -9,1 -13,-1 -1,3 -2,8 -1,11zm12 607c-3,0 -6,1 -9,2l3 3c3,-1 4,2 5,5l1 2 0 -12zm-12 38c-2,0 -3,1 -4,2 -4,2 -6,-6 -6,-12l-5 -5 -1 18c4,1 7,0 11,0 3,3 7,2 9,0l-4 -3zm-16 12c4,-2 8,-3 11,-1 5,4 7,7 9,8 4,4 7,-3 6,-9l2 1c-1,7 -1,12 -1,13 -2,1 -4,0 -6,0 -3,0 -6,-2 -9,-4 0,0 0,0 0,0 -5,-8 -7,-1 -7,4 0,0 0,1 0,1 0,4 2,11 6,12 0,0 1,0 1,-1l0 0c2,-1 5,-3 9,-4 2,0 5,0 7,0 1,7 1,17 2,27 -6,1 -14,0 -19,-4 -8,-12 -9,19 0,16 2,-1 6,-3 9,-4 3,0 7,0 10,0 0,8 0,15 0,19 0,1 0,4 0,7 -7,3 -13,1 -19,-3 -9,-12 -9,19 0,12 2,3 5,1 9,0 3,0 7,-1 10,0l0 26c-3,1 -7,1 -10,0 -4,0 -8,-2 -9,-8 -9,-7 -10,24 -1,17 2,2 6,0 10,0 3,-1 7,-1 10,0l0 26c-3,1 -7,1 -11,0 -3,0 -7,-2 -9,-8 -9,-7 -9,24 0,16 2,3 5,1 9,1 4,0 8,-1 12,0l0 26c-4,1 -8,1 -12,0 -4,0 -7,-2 -9,-8 -9,-8 -9,24 0,16 2,3 5,1 9,1 4,-1 8,-1 12,0l0 25c-4,2 -8,2 -12,1 -4,0 -8,-2 -9,-9 -9,-7 -10,25 0,17 1,3 5,1 9,1 4,-1 8,-1 12,0l0 25c-4,2 -8,2 -12,1 -4,-1 -8,-3 -10,-9 -9,-7 -9,24 0,16 2,4 6,2 10,1 4,0 8,-1 12,1l1 25c-5,2 -9,1 -13,1 -4,-1 -8,-2 -10,-9 -9,-7 -9,24 0,16 2,4 6,2 10,1 4,0 8,-1 13,1l0 25 0 -1c-5,2 -9,2 -13,2 -4,-1 -8,-3 -10,-9 -9,-8 -9,23 0,16 2,4 6,2 10,1 4,0 8,-1 13,0l0 0 0 26c0,0 0,0 0,-1 -4,2 -9,2 -13,1 -4,0 -8,-2 -10,-9 -3,-2 -5,0 -6,4l-1 -10c2,0 4,1 5,2 6,4 8,7 10,8 9,8 9,-24 0,-16 -2,2 -4,2 -10,-1 -1,-1 -3,-1 -5,0l-1 -27c3,0 5,0 6,1 6,4 8,7 10,8 9,8 9,-23 0,-16 -2,2 -4,2 -9,0 -2,-1 -5,-1 -7,-1l-1 -27c3,0 6,0 8,1 5,5 7,8 9,9 9,7 9,-25 0,-16 -2,1 -4,1 -9,-1 -3,-1 -5,-1 -8,0 -1,-10 -1,-19 -1,-27 3,-1 7,-1 9,0 5,4 7,8 9,9 9,7 10,-24 0,-16 -2,1 -5,3 -9,-1 -3,1 -6,1 -10,0 0,-11 -1,-20 -1,-26 4,-2 8,-2 11,0 5,3 8,7 9,8 10,7 10,-24 1,-16 -2,2 -5,1 -10,-1 -3,-1 -8,1 -12,-1 -3,-22 -2,-83 0,-123 0,-2 0,-5 0,-7 0,0 1,1 1,2 4,-2 9,-2 13,-2 3,6 7,8 9,9 9,7 9,-24 0,-17 -2,2 -4,2 -9,0 -4,-1 -9,1 -13,-1l0 1c0,-5 1,-9 1,-13 0,-3 1,-7 1,-13 0,0 0,0 0,0 1,0 1,0 2,0 0,0 1,0 1,-1l5 0c2,1 5,6 7,7 2,0 4,1 5,2 4,3 7,-3 7,-6 0,-1 0,-1 0,-3 0,0 0,0 0,0 0,-1 0,-2 0,-2 0,-5 -2,-8 -6,-6 0,0 0,1 -1,1 -1,1 -4,2 -9,0 -3,-2 -7,0 -11,-1 1,-7 1,-16 1,-25zm32 369c-4,-1 -9,-1 -13,0 -4,0 -8,2 -10,-1 -3,2 -5,1 -6,-2l0 6c2,0 3,1 4,1 6,3 8,3 10,1 10,-8 10,24 0,17 -2,-2 -4,-5 -10,-9 -1,-1 -2,-2 -4,-2l1 7c1,-2 3,-3 5,-1 2,7 5,9 10,9 4,1 9,1 13,-1 0,0 0,1 1,2l-1 -28c0,1 0,1 0,1zm0 35c-4,-1 -9,-1 -13,0 -4,0 -8,2 -10,-1 -2,1 -4,1 -5,0l0 4c1,0 2,0 3,1 6,3 8,2 10,1 9,-8 10,24 0,17 -2,-2 -4,-5 -10,-10 0,0 -2,-1 -3,-1l1 6c1,-1 2,-1 4,0 2,7 6,9 10,9 4,1 9,1 13,-1 2,2 2,8 0,10 -4,-2 -9,-1 -13,0 -4,0 -8,2 -10,-2 -2,2 -3,2 -4,1l0 4c1,0 2,0 2,0 6,3 8,3 10,1 10,-7 10,24 0,17 -2,-2 -4,-5 -10,-9 0,-1 -1,-1 -2,-1l1 4c1,0 2,0 3,1 2,7 6,9 10,10 4,1 9,0 14,-1 1,2 1,7 0,10 -5,-2 -10,-1 -14,-1 -4,1 -8,3 -10,-1 -1,1 -2,1 -3,1l0 4c1,0 1,0 1,0 6,3 8,3 10,1 10,-7 10,24 0,17 -2,-1 -4,-5 -9,-9 -1,0 -1,-1 -1,-1l0 4c1,0 1,1 2,1 2,8 6,10 10,10 4,1 9,0 14,-1 1,2 1,8 0,10 -5,-2 -9,-1 -14,-1 -4,1 -8,3 -10,-1 0,0 0,0 0,0l0 6c5,2 7,2 9,0 9,-7 10,24 0,17 -2,-1 -4,-4 -8,-8l1 7c2,4 5,5 8,6 5,0 10,0 14,-2 2,3 2,9 0,11 -4,-2 -9,-2 -14,-1 -2,0 -5,2 -7,1l1 5c2,1 4,0 5,-1 7,-5 9,10 6,16 -1,2 -3,3 -6,1 -2,-1 -3,-3 -5,-5l1 7c2,2 4,2 6,3 4,0 9,0 14,-2 1,2 1,4 1,7 2,-4 7,-4 10,-7 -4,-47 -12,-134 -12,-148l0 -17c0,0 -1,1 -1,1zm1 174c-4,-1 -9,-1 -13,0 -2,0 -4,0 -5,1l0 5c1,0 2,-1 3,-1 10,-8 11,24 0,16 -1,0 -1,-1 -3,-3 1,3 1,5 1,7 5,3 13,2 18,0 -2,-6 -3,-13 -3,-16 1,-3 1,-6 2,-9zm-1 35c-5,-1 -10,0 -15,1l1 4 1 0c9,-7 10,21 1,17 0,2 0,3 1,4 3,1 7,1 11,0 -2,-7 -3,-12 -2,-15 0,-4 0,-8 2,-11zm3 -7c0,1 0,2 0,3m0 39c-4,-1 -10,-1 -14,-1 0,2 0,3 -1,4l1 1c1,-1 2,0 2,0 5,0 10,1 14,1 0,-1 -1,-3 -2,-5l0 0zm-39 -544c5,-1 10,-3 13,-1 5,4 7,7 9,9 9,7 10,-24 0,-17 -1,2 -4,2 -9,0 -3,-1 -8,1 -12,-1 -2,3 -2,8 -1,10zm0 35c4,-2 10,-3 13,-1 5,4 7,7 9,9 9,7 9,-24 0,-17 -2,2 -4,2 -9,0 -4,-1 -9,1 -13,-1 -1,2 -1,8 0,10zm0 35c4,-2 9,-3 12,-1 6,4 8,7 10,9 9,7 9,-24 0,-17 -2,2 -4,2 -10,0 -3,-2 -8,0 -12,-1 -2,2 -2,7 0,10zm-2 61c0,2 0,5 0,7l1 26c-1,1 -1,1 -1,2 0,-20 0,-34 0,-35 -4,-19 -3,-84 -1,-127l1 127zm1 43l0 0 0 25 -1 0 0 -26c0,0 0,1 1,1zm0 35l0 25m0 9l1 26m-1 9l1 25m0 9l0 0 0 18c0,0 0,-7 0,-18zm-637 -258c6,6 -3,5 13,19 12,9 104,51 118,58 76,34 384,189 438,162 -5,-15 7,-3 -12,-15l-128 -48c-95,-35 -395,-174 -429,-176zm-132 -121l-1 3"/>
  <path class="fil1 str0" d="M1986 620l29 -14 181 -364c-359,-394 -929,-219 -1381,-74 30,41 57,75 80,107 75,100 111,186 167,299l19 7c-20,-113 -151,-324 -185,-377l145 92c23,15 48,27 74,40 26,13 54,25 85,38 19,71 44,153 82,236 10,21 20,42 32,62 12,21 24,42 38,62 14,21 80,127 92,122l7 -3c-124,-168 -187,-277 -228,-493 -118,-43 -226,-108 -335,-169 243,-95 525,-170 768,-167 199,12 382,108 499,219 -110,61 -346,96 -464,139 -41,216 -60,312 -184,480 154,-152 168,-325 207,-466 32,-13 68,-24 106,-34 117,-30 227,-56 335,-101 -9,75 -99,229 -169,359z"/>
 </g>
</svg>
