<svg xmlns="http://www.w3.org/2000/svg" xml:space="preserve" width="8.1056in" height="8.83302in" version="1.1" style="shape-rendering:geometricPrecision; text-rendering:geometricPrecision; image-rendering:optimizeQuality; fill-rule:evenodd; clip-rule:evenodd"
viewBox="0 0 759 827"
 xmlns:xlink="http://www.w3.org/1999/xlink">
 <defs>
  <style type="text/css">
   <![CDATA[
    .fil1 {fill:black}
    .fil0 {fill:white}
    .filin {fill:white}
   ]]>
  </style>
 </defs>
 <g id="Layer_x0020_1">
  <metadata id="CorelCorpID_0Corel-Layer"/>
  <g id="_946227344">
   <path class="fil0" d="M697 177c11,65 62,126 62,173 0,11 -69,28 -85,31 -40,8 -16,20 -62,20l0 119c0,30 -7,46 -7,62 0,6 15,22 1,62 -1,5 -8,21 -8,25 0,11 2,10 4,18 1,6 1,11 2,17 3,21 3,35 1,55 -3,20 -13,12 -40,18 -67,17 -107,50 -184,50l-46 0c-23,0 -41,-3 -78,-12 -37,-10 -40,-10 -79,-10 -7,0 -17,1 -23,-1 -7,-1 -8,-6 -10,-12 -7,-24 -7,-55 -7,-82 0,-14 -5,-37 -5,-40 0,-22 6,-18 6,-31 0,-8 -5,-15 -7,-23 -13,-36 3,-42 3,-64 0,-9 -3,-13 -3,-22l0 -18c0,-19 10,-100 10,-113 0,-4 -6,-5 -14,-11 -7,-5 -30,-5 -42,-5 -5,0 -15,-1 -20,-2 -12,-2 -26,-7 -36,-10 -24,-9 -29,-9 -30,-16l0 -14c0,-17 43,-154 60,-181 4,-6 3,-10 5,-17 2,-6 3,-11 5,-16 21,-64 39,-63 97,-78 21,-6 44,-15 65,-23 19,-7 54,-26 60,-26 8,0 58,34 147,16 63,-12 25,-18 71,5 43,21 126,41 151,65 19,18 20,29 28,56 3,11 6,23 8,35z"/>
   <path class="fil1" d="M375 116c2,0 5,0 8,0 2,0 6,-1 7,0 2,1 2,3 2,4 -1,17 -3,34 -4,52 0,8 0,15 0,23 -1,14 -2,27 -3,41 -1,14 -1,28 -1,42 0,5 -3,6 -7,6 -3,0 -6,0 -9,0 -4,0 -9,-1 -8,-6 1,-27 2,-53 3,-80 1,-20 2,-40 2,-60 0,-6 0,-12 0,-18 1,-1 1,-3 2,-4 2,-1 5,0 8,0zm0 2c2,0 5,0 8,0 4,0 7,-2 7,2 -1,17 -3,34 -3,52 -1,35 -5,68 -5,106 0,4 -1,4 -5,4 -3,0 -6,0 -9,0 -4,0 -7,0 -6,-4 4,-74 4,-113 5,-158 0,-4 4,-2 8,-2z"/>
   <path class="fil0" d="M375 118c2,0 5,0 8,0 4,0 7,-2 7,2 -1,17 -3,34 -3,52 -1,35 -5,68 -5,106 0,4 -1,4 -5,4 -3,0 -6,0 -9,0 -4,0 -7,0 -6,-4 4,-74 4,-113 5,-158 0,-4 4,-2 8,-2z"/>
   <g>
    <path class="fil0" d="M465 28c-5,10 -17,21 -31,25 -28,7 -76,5 -103,-3 -14,-4 -22,-15 -28,-28 33,7 25,14 79,14 48,1 54,-6 83,-8z"/>
    <path class="fil0" d="M367 111c-2,-28 -23,-34 -42,-50 -23,-20 -28,-38 -36,-46 -4,2 -16,9 -18,12 -4,10 32,72 96,84z"/>
    <path class="filin" d="M384 119c-2,0 -4,-2 -4,-4 -1,-25 2,-32 27,-40 4,-1 18,-9 21,-12 -17,2 -29,3 -47,3 -27,0 -37,-5 -44,-5 5,6 13,10 20,16 14,13 16,12 17,36 1,2 0,4 -2,4 4,4 8,5 12,2z"/>
    <path class="fil0" d="M400 86c-10,5 -11,12 -11,26 45,-1 78,-26 100,-60 12,-18 11,-21 -7,-31 -4,3 -14,17 -19,22 -15,16 -38,36 -63,43z"/>
   </g>
   <path class="fil1" d="M604 379c34,-6 35,-12 45,-14 0,10 -12,23 -32,21 -15,-2 -12,-3 -13,-7zm-204 -293c-10,5 -11,12 -11,26 45,-1 78,-26 100,-60 12,-18 11,-21 -7,-31 -4,3 -14,17 -19,22 -15,16 -38,36 -63,43zm-15 33c-3,0 -5,-2 -5,-4 -1,-25 2,-32 27,-40 4,-1 18,-9 21,-12 -17,2 -29,3 -47,3 -27,0 -37,-5 -44,-5 5,6 13,10 20,16 14,13 16,12 17,36 1,2 0,4 -2,4l0 1 0 0c-1,0 -1,0 -1,0 -13,2 -54,-18 -64,-28 -17,-17 -35,-30 -45,-58l-57 21c-20,7 -40,12 -61,17 -23,6 -34,9 -47,31 -14,25 -10,46 -23,66 -4,8 -19,26 -30,53 -16,45 -30,105 -30,106 11,4 35,10 39,19 -8,5 -26,-8 -40,-7 -3,8 3,10 9,13 14,6 38,13 53,16 15,3 27,3 43,2 23,-2 16,14 32,12 3,-11 -27,-183 -27,-218 -1,-16 -6,-46 10,-38 0,2 0,4 0,6 -7,86 -1,159 27,246 27,85 40,185 86,261 9,14 27,31 29,41 -7,-3 -17,-15 -22,-20 -6,-8 -11,-16 -17,-24 -20,-29 -42,-74 -56,-108 -3,-7 -19,-122 -22,-124 -2,2 -2,4 -3,8 -7,28 -12,103 -4,136 5,23 -20,27 -1,77 7,18 0,29 -2,38 -2,10 1,12 3,21 3,20 0,89 10,104 18,4 41,2 61,5 64,10 78,28 168,22 55,-4 100,-27 149,-44 16,-6 49,-11 51,-13 5,-18 0,-60 -6,-78 -4,3 -26,29 -45,45 -3,3 -3,3 -8,5 4,-12 30,-33 42,-48 10,-14 34,-69 21,-84 -6,3 -15,24 -19,32 -13,22 -23,41 -37,64 -4,7 -13,27 -21,29 -2,-5 1,-7 5,-14 18,-32 34,-55 52,-91 20,-41 26,-159 22,-206 -6,3 -17,107 -21,116 -6,17 -12,34 -19,52 -6,17 -13,33 -20,50 -3,9 -7,17 -11,25 -3,5 -4,8 -7,12 -4,6 -1,6 -10,8 2,-8 10,-20 14,-27 17,-35 40,-103 53,-142 6,-19 14,-105 19,-125 12,-48 3,-196 27,-216 1,0 1,1 1,1 0,0 0,1 0,1 1,4 0,4 -2,16 -18,85 -2,105 -15,188 23,1 45,-9 47,-29 5,-58 7,-91 3,-152 0,0 0,0 0,0 1,-1 1,-2 1,-3 0,0 0,0 0,-1 0,-1 0,-1 0,-2l0 -5c2,-2 4,-4 6,-5 -10,58 -3,126 -6,195 25,0 69,-15 88,-24 1,-8 -1,-8 -4,-15 -21,0 -56,19 -77,17 3,-6 10,-7 17,-9l59 -16c-10,-57 -34,-55 -51,-108 -2,-6 -4,-25 -5,-33 -5,-34 -21,-83 -58,-99 -13,-6 -110,-43 -119,-44 -5,5 -7,10 -11,16 -25,41 -63,64 -110,66zm-18 -8c-2,-28 -23,-34 -42,-50 -23,-20 -28,-38 -36,-46 -4,2 -16,9 -18,12 -4,10 32,72 96,84zm-147 393c-4,-7 -15,-96 -21,-98 -6,7 32,131 36,137 12,20 34,46 48,64l20 21c3,3 4,5 7,8 5,4 9,8 14,13 4,4 9,10 14,14 10,8 49,45 65,44 -1,-6 -2,-4 -6,-7l-24 -18c-58,-41 -118,-117 -153,-178zm-65 185c2,2 -1,1 4,5 3,2 26,13 29,14 19,9 97,48 111,41 -2,-4 1,-1 -3,-3l-33 -13c-24,-8 -99,-43 -108,-44zm226 138l-46 0c-23,0 -41,-3 -78,-12 -37,-10 -40,-10 -79,-10 -7,0 -17,1 -23,-1 -7,-1 -8,-6 -10,-12 -7,-24 -7,-55 -7,-82 0,-14 -5,-37 -5,-40 0,-22 6,-18 6,-31 0,-8 -5,-15 -7,-23 -13,-36 3,-42 3,-64 0,-9 -3,-13 -3,-22l0 -18c0,-19 10,-100 10,-113 0,-4 -6,-5 -14,-11 -7,-5 -30,-5 -42,-5 -5,0 -15,-1 -20,-2 -12,-2 -26,-7 -36,-10 -24,-9 -29,-9 -30,-16l0 -14c0,-17 43,-154 60,-181 4,-6 3,-10 5,-17 2,-6 3,-11 5,-16 21,-64 39,-63 97,-78 21,-6 44,-15 65,-23 19,-7 54,-26 60,-26 8,0 58,34 147,16 63,-12 25,-18 71,5 43,21 126,41 151,65 19,18 20,29 28,56 3,11 6,23 8,35 11,65 62,126 62,173 0,11 -69,28 -85,31 -40,8 -16,20 -62,20l0 119c0,30 -7,46 -7,62 0,6 15,22 1,62 -1,5 -8,21 -8,25 0,11 2,10 4,18 1,6 1,11 2,17 3,21 3,35 1,55 -3,20 -13,12 -40,18 -67,17 -107,50 -184,50zm84 -799c-5,10 -17,21 -31,25 -28,7 -76,5 -103,-3 -14,-4 -22,-15 -28,-28 33,7 25,14 79,14 48,1 54,-6 83,-8z"/>
   <path class="fil1" d="M366 278c-2,-13 7,-118 5,-127 -6,-2 -13,-5 -8,-9 2,-1 4,-4 6,-7 0,-1 0,-2 0,-2l-3 -1 0 0 0 0 3 -20 1 0 0 0c2,1 3,1 4,0l1 0 0 1 0 0 0 0 0 0 1 6c1,0 2,0 4,1 0,0 1,-1 2,-1 0,0 1,0 1,0l0 -1c-1,0 -3,0 -4,1 -2,1 -3,-1 -3,-3 1,0 1,0 1,0 1,0 2,0 2,0 1,0 1,-1 2,-1 0,0 1,1 1,1 1,0 1,0 1,0 0,-1 1,-2 1,-3 0,0 0,0 0,0 1,1 2,1 2,1 1,0 1,0 2,0 0,0 1,0 1,0 -1,3 -1,5 -2,7 0,1 -1,2 -1,3l0 0c0,1 0,2 0,3 0,1 0,2 0,4 0,0 0,0 0,0 0,1 0,1 0,2 0,0 0,0 0,0 1,1 1,2 0,3l0 -1c0,2 0,4 0,7l0 0c1,0 0,2 0,2l0 0c0,2 -1,4 -1,7 0,0 0,0 1,-1 0,1 0,2 0,3 -1,0 -1,0 -1,0 0,2 -1,4 -1,7 0,-1 1,-1 1,-1 1,1 1,2 0,3 0,0 -1,0 -1,0 -1,2 -1,4 -1,6 1,0 1,0 2,0 0,1 0,2 0,3 -1,-1 -2,-1 -2,-1 0,3 -1,5 -1,7 1,0 2,0 2,0 1,0 1,2 0,2 0,0 -1,0 -2,0 0,2 0,5 0,7 1,0 1,0 2,-1 0,1 0,2 0,3 -1,0 -1,0 -2,0 0,2 0,4 0,7 1,-1 1,-1 1,-1 1,1 1,2 0,3 0,0 0,0 -1,0 0,2 0,4 0,6 0,0 1,0 1,0 0,1 0,2 0,2 0,0 -1,0 -1,0 0,3 0,5 0,7 0,0 0,0 0,0 1,0 1,2 0,2 0,0 0,0 0,0 -1,2 -1,5 -1,7 0,0 1,0 1,-1 0,1 0,2 0,3 -1,0 -1,0 -1,0 0,2 -1,5 -1,7 0,-1 1,-1 1,-1 1,1 1,2 0,3 0,0 -1,0 -1,-1 -1,3 -1,5 -1,7 1,0 1,0 2,0 0,1 0,2 0,3 -1,-1 -2,-1 -2,-1 0,3 0,5 -1,7 1,0 2,0 2,0 1,0 1,2 0,2 0,0 -1,0 -2,0 0,3 0,5 0,6 0,0 0,0 0,1 1,0 1,0 2,-1 0,1 0,2 0,3 -1,0 -1,0 -2,0l0 7c0,-1 1,-1 1,-1 1,1 1,2 0,3 0,0 -1,-1 -1,-1l-1 7c1,0 1,0 2,0 0,1 0,2 0,2 -1,0 -1,0 -2,0l0 3c-5,3 -1,2 -5,2 -1,0 -3,0 -4,0 0,-1 0,-2 0,-3 2,1 4,1 6,0l0 -1c-1,0 -1,0 -2,0 -2,2 -2,-6 0,-4 1,0 1,1 2,1l0 -2c-2,0 -4,0 -6,0 0,0 0,-2 0,-2 2,0 4,0 6,-1l0 -1c-1,0 -1,0 -1,1 -3,1 -3,-6 0,-5 0,1 1,1 1,1l0 -1c0,-1 -1,-1 -1,-1 -2,0 -3,0 -4,0 -1,0 -1,-1 0,-2 1,0 4,0 5,0l0 -2c0,0 -1,1 -1,1 -3,2 -2,-6 0,-4 1,0 1,0 1,0l0 -1c-1,-1 -3,-1 -5,0 0,-1 0,-2 0,-3 2,1 4,1 5,0l0 -1c0,0 0,0 0,0 -3,2 -3,-6 0,-4 0,0 0,0 0,0l1 -1c-2,0 -4,-1 -6,0 0,-1 0,-2 1,-3 1,1 3,1 5,0l0 -1c-1,0 -1,0 -1,0 -3,2 -3,-6 0,-4 0,0 1,0 1,1l0 -2c-2,0 -4,0 -5,0 -1,0 0,-2 0,-2 1,0 3,0 4,0 0,0 1,0 1,0l0 -2c0,0 0,0 -1,1 -3,1 -2,-7 1,-5 0,1 0,1 1,1l0 -1c-2,-1 -4,-1 -6,-1 0,0 0,-2 0,-2 2,0 4,0 6,0l0 -2c-1,0 -1,1 -1,1 -3,2 -3,-6 0,-4 0,0 1,0 1,0l0 -1c0,0 -1,0 -1,0 -2,-1 -3,-1 -5,0 0,-1 0,-2 1,-3 1,1 4,1 5,0l0 -2c0,1 -1,1 -1,1 -3,2 -2,-6 0,-4 1,0 1,0 2,1l0 -2c-1,0 -1,0 -2,0 -1,0 -3,0 -4,0 0,0 0,0 0,-1 -2,25 -2,50 -3,60 0,3 0,7 0,11 -1,-1 -2,-2 -2,-2zm16 -153c0,0 0,-1 0,-1 0,0 0,0 0,-1 0,1 0,1 1,1l-1 1zm-8 28c0,0 1,0 1,0 1,1 1,2 3,1 0,0 1,-1 3,-1l-1 1c0,0 -2,1 -3,1 -1,0 -2,0 -4,0l1 -2zm7 -8c0,0 0,0 0,0 0,0 0,0 -1,-1 1,0 1,0 1,0l0 1zm0 -3c0,0 -1,0 -1,0 0,-1 0,-1 -1,-2 1,0 2,1 2,1 0,0 0,0 0,0l0 1zm1 -6c-1,0 -1,1 -1,1 0,0 -1,0 -2,0 0,0 0,-1 0,-1 1,0 2,-1 3,-1l0 1zm0 -3c-1,0 -2,0 -3,0 0,-1 0,-1 0,-2 1,1 2,1 2,1 0,0 1,0 1,0l0 1zm-2 29c-1,0 -2,0 -3,1 -3,1 -3,-6 1,-5 0,1 1,1 2,1l0 -1c-1,0 -2,-1 -3,-1 -1,0 -2,0 -4,0l0 7c2,0 5,0 7,-1l0 -1zm-7 4c1,0 3,0 4,0 1,0 2,1 3,1l-1 1c0,0 -1,0 -2,-1 0,0 0,0 0,0 0,0 0,0 0,0 -1,-1 -2,1 -2,2 0,0 0,0 0,0 0,2 0,3 2,2 0,0 0,0 0,0 1,0 1,0 2,0l0 1c-1,1 -4,1 -6,0l0 -6zm-1 9c1,0 1,0 1,0 0,0 0,0 0,0 0,0 1,0 1,0l1 0c0,0 0,0 0,0 1,0 2,0 3,0 0,0 1,0 1,0l0 2c-1,0 -2,-1 -2,-1 -3,-2 -3,6 0,4 0,0 1,-1 2,-1l0 2c-2,1 -5,1 -7,0l0 -6zm6 13c-1,0 -1,1 -2,1 -3,2 -2,-6 1,-4 0,0 1,0 1,0l0 -1c0,0 -1,0 -2,0 -1,-1 -3,-1 -4,0l0 6c1,0 2,0 4,0 1,0 1,0 2,0l0 -2zm0 9c-1,0 -2,0 -2,1 -3,1 -3,-6 0,-5 1,1 1,1 2,1l0 -1c-2,-1 -5,-1 -6,-1l-1 7 0 0c2,0 5,0 6,-1l1 -1zm-1 9c-1,0 -1,0 -1,0 -3,2 -3,-6 0,-4 0,0 1,1 1,1l0 -2c0,0 -1,0 -2,0 -1,0 -2,0 -4,0l0 0 0 7c0,0 0,-1 0,-1 2,1 4,1 6,0l0 -1z"/>
  </g>
 </g>
</svg>
