<svg xmlns="http://www.w3.org/2000/svg" xml:space="preserve" width="8.1056in" height="8.84593in" version="1.1" style="shape-rendering:geometricPrecision; text-rendering:geometricPrecision; image-rendering:optimizeQuality; fill-rule:evenodd; clip-rule:evenodd"
viewBox="0 0 469 512"
 xmlns:xlink="http://www.w3.org/1999/xlink">
 <defs>
  <style type="text/css">
   <![CDATA[
    .fil2 {fill:black}
    .fil0 {fill:white}
    .filiner {fill:white}
   ]]>
  </style>
 </defs>
 <g id="Layer_x0020_1">
  <metadata id="CorelCorpID_0Corel-Layer"/>
  <g id="_946234544">
   <path class="fil0" d="M431 110c6,39 38,77 38,106 0,7 -43,17 -53,19 -24,6 -9,13 -38,13l0 73c0,19 -4,29 -4,39 0,3 9,13 1,38 -1,3 -6,13 -6,15 0,7 2,7 3,12 0,3 1,6 1,10 2,13 2,22 0,34 -1,13 -7,7 -24,11 -41,11 -66,31 -114,31l-28 0c-14,0 -26,-2 -48,-8 -23,-6 -25,-6 -49,-6 -4,0 -11,1 -14,0 -4,-1 -5,-4 -6,-8 -5,-15 -5,-34 -5,-50 0,-9 -3,-23 -3,-25 0,-14 4,-11 4,-19 0,-5 -3,-10 -5,-14 -8,-23 2,-26 2,-40 0,-6 -1,-8 -1,-14l0 -11c0,-12 6,-61 6,-70 0,-2 -4,-3 -9,-6 -4,-3 -19,-3 -26,-3 -3,-1 -9,-1 -12,-2 -8,-1 -16,-4 -22,-6 -15,-6 -18,-5 -19,-10l0 -8c0,-11 26,-96 37,-112 2,-4 2,-6 3,-11 1,-4 2,-6 3,-10 13,-39 24,-39 60,-48 13,-3 28,-9 40,-14 12,-4 34,-16 37,-16 5,0 36,21 91,10 39,-8 16,-11 44,3 26,13 78,25 93,40 12,12 13,18 18,35 2,7 3,14 5,22z"/>
   <path class="fil0" d="M223 506c0,-4 0,-32 0,-70 0,-6 2,-7 2,-12 0,-5 -1,-15 -1,-20 0,-112 0,-277 1,-289 0,-9 0,-19 0,-28 0,-4 0,22 0,18 0,-3 0,-6 -1,-8 0,-7 -1,-14 -1,-20 1,-4 0,-4 3,-4 4,0 4,1 8,1 2,0 4,0 6,0 1,0 1,0 2,0 0,1 0,3 0,5 -1,2 -1,5 -1,6 -1,5 -1,11 -2,17 0,7 -1,-16 -1,-8 -1,7 3,15 3,22 0,6 0,10 0,16 0,7 0,13 0,20 0,3 0,151 0,254 0,7 2,17 2,23 0,5 -2,5 -2,9 0,39 0,65 1,67 -1,5 -7,3 -14,4 -1,0 -3,0 -4,-1 -1,-1 -1,-1 -1,-2z"/>
   <g>
    <path class="filiner" d="M230 73c2,0 4,0 6,1 -1,0 -3,-2 -3,-3 0,-15 3,-20 18,-25 3,0 12,-5 14,-7 -11,1 -18,2 -30,2 -16,0 -22,-3 -27,-3 3,3 8,6 12,9 9,9 12,8 13,23 0,1 -1,3 -3,3z"/>
    <g>
     <path class="fil0" d="M288 17c-4,6 -11,13 -20,16 -17,4 -47,3 -64,-2 -8,-3 -13,-10 -17,-17 20,4 15,8 49,9 30,0 34,-4 52,-6z"/>
     <path class="fil0" d="M228 68c-1,-17 -16,-20 -27,-30 -14,-13 -18,-24 -22,-28 -3,0 -11,5 -11,7 -3,6 21,44 60,51z"/>
     <path class="fil0" d="M247 53c-6,3 -8,7 -8,16 28,0 49,-16 63,-37 7,-11 7,-13 -4,-19 -3,2 -9,10 -12,14 -9,9 -24,22 -39,26z"/>
    </g>
   </g>
   <path class="fil2" d="M373 234c21,-3 22,-7 28,-8 0,6 -8,14 -20,12 -9,-1 -7,-2 -8,-4zm-126 -181c-6,3 -8,7 -8,16 28,0 49,-16 63,-37 7,-11 7,-13 -4,-19 -3,2 -9,10 -12,14 -9,9 -24,22 -39,26zm-11 21c-1,0 -3,-2 -3,-3 0,-15 3,-20 18,-25 3,0 12,-5 14,-7 -11,1 -18,2 -30,2 -16,0 -22,-3 -27,-3 3,3 8,6 12,9 9,9 12,8 13,23 0,1 -1,2 -2,3l0 0 0 0c0,0 0,0 -1,0 -7,1 -34,-11 -41,-18 -10,-10 -21,-18 -27,-35l-36 13c-12,4 -24,7 -37,10 -14,4 -21,6 -29,20 -9,15 -6,28 -14,40 -3,5 -12,16 -19,33 -10,28 -18,65 -18,65 6,3 21,7 24,12 -5,3 -16,-5 -25,-4 -2,5 2,6 6,8 8,4 23,8 32,10 9,1 17,1 27,1 14,-1 10,8 20,7 1,-7 -17,-113 -17,-134 0,-10 -3,-28 6,-24 0,1 0,3 0,4 -4,53 -1,98 17,152 16,52 24,114 53,161 5,9 17,19 18,25 -4,-1 -11,-9 -13,-12 -4,-5 -7,-10 -11,-15 -12,-17 -26,-45 -35,-66 -1,-5 -12,-76 -13,-77 -1,2 -2,3 -2,5 -5,17 -8,64 -3,84 3,14 -12,17 0,48 4,11 0,17 -2,23 -1,6 1,8 2,13 2,12 0,55 6,65 12,1 26,0 38,2 40,6 48,18 104,14 34,-3 61,-17 92,-27 10,-4 30,-7 32,-8 2,-12 -1,-38 -4,-49 -3,2 -16,18 -28,28 -2,2 -2,2 -5,3 3,-7 19,-20 26,-29 6,-9 21,-43 13,-52 -4,2 -9,15 -12,19 -8,14 -14,26 -22,40 -3,4 -9,17 -14,18 -1,-3 1,-5 3,-9 11,-19 21,-34 32,-56 13,-25 17,-98 14,-127 -4,2 -10,66 -13,71 -4,11 -7,22 -11,32 -4,12 -8,21 -13,32 -2,5 -4,10 -7,15 -1,3 -2,5 -4,7 -2,4 -1,4 -6,5 1,-4 6,-12 8,-16 11,-22 25,-64 33,-88 4,-12 9,-65 12,-77 7,-30 2,-121 17,-134 0,0 0,1 0,1 0,0 0,0 0,0 1,3 1,3 -1,10 -11,53 -1,65 -9,117 14,0 27,-6 29,-18 3,-36 4,-56 2,-94 0,0 0,0 0,-1 0,0 0,0 0,-1 0,0 0,0 0,0 0,-1 0,-2 0,-2l0 -3c2,-1 3,-2 4,-3 -6,36 -2,78 -4,121 16,-1 43,-10 55,-15 0,-5 -1,-6 -3,-10 -13,0 -34,12 -47,11 1,-4 6,-4 10,-6l36 -10c-6,-35 -20,-33 -31,-66 -1,-4 -2,-16 -3,-21 -3,-21 -13,-51 -36,-61 -8,-4 -68,-26 -73,-27 -3,3 -5,6 -7,10 -15,25 -41,39 -70,41zm-8 -6c-1,-17 -16,-20 -27,-30 -14,-13 -18,-24 -22,-28 -3,0 -11,5 -11,7 -3,6 21,44 60,51zm-92 243c-2,-4 -9,-59 -13,-60 -4,4 20,81 22,85 8,12 21,28 30,39l12 13c2,2 3,3 4,5 3,3 6,5 9,8 3,3 6,6 9,9 6,4 30,27 40,27 -1,-4 -1,-3 -4,-5l-14 -11c-36,-25 -73,-72 -95,-110zm-40 115c1,1 -1,0 2,3 2,1 16,8 18,9 12,5 60,29 69,25 -1,-3 1,-1 -2,-2l-20 -8c-15,-5 -62,-27 -67,-27zm139 85l-28 0c-14,0 -26,-2 -48,-8 -23,-6 -25,-6 -49,-6 -4,0 -11,1 -14,0 -4,-1 -5,-4 -6,-8 -5,-15 -5,-34 -5,-50 0,-9 -3,-23 -3,-25 0,-14 4,-11 4,-19 0,-5 -3,-10 -5,-14 -8,-23 2,-26 2,-40 0,-6 -1,-8 -1,-14l0 -11c0,-12 6,-61 6,-70 0,-2 -4,-3 -9,-6 -4,-3 -19,-3 -26,-3 -3,-1 -9,-1 -12,-2 -8,-1 -16,-4 -22,-6 -15,-6 -18,-5 -19,-10l0 -8c0,-11 26,-96 37,-112 2,-4 2,-6 3,-11 1,-4 2,-6 3,-10 13,-39 24,-39 60,-48 13,-3 28,-9 40,-14 12,-4 34,-16 37,-16 5,0 36,21 91,10 39,-8 16,-11 44,3 26,13 78,25 93,40 12,12 13,18 18,35 2,7 3,14 5,22 6,39 38,77 38,106 0,7 -43,17 -53,19 -24,6 -9,13 -38,13l0 73c0,19 -4,29 -4,39 0,3 9,13 1,38 -1,3 -6,13 -6,15 0,7 2,7 3,12 0,3 1,6 1,10 2,13 2,22 0,34 -1,13 -7,7 -24,11 -41,11 -66,31 -114,31zm53 -494c-4,6 -11,13 -20,16 -17,4 -47,3 -64,-2 -8,-3 -13,-10 -17,-17 20,4 15,8 49,9 30,0 34,-4 52,-6z"/>
   <path class="fil2" d="M229 512c-8,1 -9,-5 -9,-5 0,0 0,-29 1,-72 0,-6 1,-7 1,-13 0,-4 -1,-13 -1,-17 1,-117 2,-295 0,-308 -1,-12 -1,-19 0,-23 0,-4 -1,-4 4,-3 2,0 5,0 9,0 12,1 12,-4 10,14 -2,18 -1,28 0,47 0,12 0,168 0,275 0,6 2,16 2,22 0,5 -2,5 -2,9 0,38 0,64 0,66 1,5 -2,7 -6,7 -2,0 -5,0 -9,1zm-6 -6c0,-4 0,-32 0,-70 0,-6 2,-7 2,-12 0,-5 -1,-15 -1,-20 0,-112 0,-277 1,-289 0,-9 0,-19 0,-28 0,-4 0,22 0,18 0,-3 0,-6 -1,-8 0,-7 -1,-14 -1,-20 1,-4 0,-4 3,-4 4,0 4,1 8,1 2,0 4,0 6,0 1,0 1,0 2,0 0,1 0,3 0,5 -1,2 -1,5 -1,6 -1,5 -1,11 -2,17 0,7 -1,-16 -1,-8 -1,7 3,15 3,22 0,6 0,10 0,16 0,7 0,13 0,20 0,3 0,151 0,254 0,7 2,17 2,23 0,5 -2,5 -2,9 0,39 0,65 1,67 -1,5 -7,3 -14,4 -1,0 -3,0 -4,-1 -1,-1 -1,-1 -1,-2z"/>
   <path class="fil2" d="M230 80c1,0 1,1 1,2 0,0 0,1 -1,1 0,0 -1,-1 -1,-1 0,-1 1,-2 1,-2zm4 0c1,0 1,1 1,2 0,0 0,1 -1,1 0,0 -1,-1 -1,-1 0,-1 1,-2 1,-2zm-4 4c1,0 1,1 1,1 0,1 0,1 -1,1 0,0 -1,0 -1,-1 0,0 1,-1 1,-1zm4 0c1,0 1,1 1,1 0,1 0,1 -1,1 0,0 -1,0 -1,-1 0,0 1,-1 1,-1zm-2 -8c4,0 7,3 7,7 0,4 -3,7 -7,7 -4,0 -7,-3 -7,-7 0,-4 3,-7 7,-7z"/>
   <path class="fil2" d="M230 140c1,0 1,0 1,1 0,1 0,1 -1,1 0,0 -1,0 -1,-1 0,-1 1,-1 1,-1zm4 0c1,0 1,0 1,1 0,1 0,1 -1,1 0,0 -1,0 -1,-1 0,-1 1,-1 1,-1zm-4 4c1,0 1,0 1,1 0,0 0,1 -1,1 0,0 -1,-1 -1,-1 0,-1 1,-1 1,-1zm4 0c1,0 1,0 1,1 0,0 0,1 -1,1 0,0 -1,-1 -1,-1 0,-1 1,-1 1,-1zm-2 -8c4,0 7,3 7,7 0,4 -3,7 -7,7 -4,0 -7,-3 -7,-7 0,-4 3,-7 7,-7z"/>
   <path class="fil2" d="M230 199c1,0 1,1 1,2 0,0 0,1 -1,1 0,0 -1,-1 -1,-1 0,-1 1,-2 1,-2zm4 0c1,0 1,1 1,2 0,0 0,1 -1,1 0,0 -1,-1 -1,-1 0,-1 1,-2 1,-2zm-4 4c1,0 1,1 1,1 0,1 0,1 -1,1 0,0 -1,0 -1,-1 0,0 1,-1 1,-1zm4 0c1,0 1,1 1,1 0,1 0,1 -1,1 0,0 -1,0 -1,-1 0,0 1,-1 1,-1zm-2 -8c4,0 7,3 7,7 0,4 -3,7 -7,7 -4,0 -7,-3 -7,-7 0,-4 3,-7 7,-7z"/>
   <path class="fil2" d="M230 259c1,0 1,0 1,1 0,1 0,1 -1,1 0,0 -1,0 -1,-1 0,-1 1,-1 1,-1zm4 0c1,0 1,0 1,1 0,1 0,1 -1,1 0,0 -1,0 -1,-1 0,-1 1,-1 1,-1zm-4 4c1,0 1,0 1,1 0,0 0,1 -1,1 0,0 -1,-1 -1,-1 0,-1 1,-1 1,-1zm4 0c1,0 1,0 1,1 0,0 0,1 -1,1 0,0 -1,-1 -1,-1 0,-1 1,-1 1,-1zm-2 -8c4,0 7,3 7,7 0,4 -3,7 -7,7 -4,0 -7,-3 -7,-7 0,-4 3,-7 7,-7z"/>
   <path class="fil2" d="M230 318c1,0 1,1 1,2 0,0 0,1 -1,1 0,0 -1,-1 -1,-1 0,-1 1,-2 1,-2zm4 0c1,0 1,1 1,2 0,0 0,1 -1,1 0,0 -1,-1 -1,-1 0,-1 1,-2 1,-2zm-4 4c1,0 1,1 1,1 0,1 0,1 -1,1 0,0 -1,0 -1,-1 0,0 1,-1 1,-1zm4 0c1,0 1,1 1,1 0,1 0,1 -1,1 0,0 -1,0 -1,-1 0,0 1,-1 1,-1zm-2 -8c4,0 7,3 7,7 0,4 -3,7 -7,7 -4,0 -7,-3 -7,-7 0,-4 3,-7 7,-7z"/>
   <path class="fil2" d="M230 378c1,0 1,0 1,1 0,1 0,1 -1,1 0,0 -1,0 -1,-1 0,-1 1,-1 1,-1zm4 0c1,0 1,0 1,1 0,1 0,1 -1,1 0,0 -1,0 -1,-1 0,-1 1,-1 1,-1zm-4 4c1,0 1,0 1,1 0,0 0,1 -1,1 0,0 -1,-1 -1,-1 0,-1 1,-1 1,-1zm4 0c1,0 1,0 1,1 0,0 0,1 -1,1 0,0 -1,-1 -1,-1 0,-1 1,-1 1,-1zm-2 -8c4,0 7,3 7,7 0,4 -3,7 -7,7 -4,0 -7,-3 -7,-7 0,-4 3,-7 7,-7z"/>
   <path class="fil2" d="M230 437c1,0 1,1 1,1 0,1 0,2 -1,2 0,0 -1,-1 -1,-2 0,0 1,-1 1,-1zm4 0c1,0 1,1 1,1 0,1 0,2 -1,2 0,0 -1,-1 -1,-2 0,0 1,-1 1,-1zm-4 4c1,0 1,1 1,1 0,1 0,1 -1,1 0,0 -1,0 -1,-1 0,0 1,-1 1,-1zm4 0c1,0 1,1 1,1 0,1 0,1 -1,1 0,0 -1,0 -1,-1 0,0 1,-1 1,-1zm-2 -8c4,0 7,3 7,7 0,4 -3,7 -7,7 -4,0 -7,-3 -7,-7 0,-4 3,-7 7,-7z"/>
  </g>
 </g>
</svg>
