<svg xmlns="http://www.w3.org/2000/svg" xml:space="preserve" width="8.16073in" height="10.1268in" version="1.1" style="shape-rendering:geometricPrecision; text-rendering:geometricPrecision; image-rendering:optimizeQuality; fill-rule:evenodd; clip-rule:evenodd"
viewBox="0 0 461 572"
 xmlns:xlink="http://www.w3.org/1999/xlink">
 <defs>
  <style type="text/css">
   <![CDATA[
    .fil2 {fill:black}
    .fil0 {fill:white}
    .filin {fill:white}
   ]]>
  </style>
 </defs>
 <g id="Layer_x0020_1">
  <metadata id="CorelCorpID_0Corel-Layer"/>
  <path class="fil0" d="M74 487c0,1 0,1 0,0zm250 -474c14,8 4,36 5,47 2,2 3,4 3,6 7,10 6,18 1,25l0 0c-1,1 -3,2 -4,3 20,9 60,17 74,31 11,11 12,17 17,34 2,7 3,14 5,21 2,12 7,31 10,47 5,9 8,25 13,35 10,24 -6,48 6,66 15,21 1,41 0,66 0,7 4,26 -3,28 -9,3 -13,84 -14,100 0,8 -15,6 -29,7 -11,0 -21,4 -26,-2 -5,-7 -4,-26 -4,-34l0 -7c0,-1 3,-54 0,-66 -4,-26 -6,-26 -2,-52 2,-9 -3,-24 -2,-35 0,-4 0,-14 0,-18 -2,-2 -4,-4 -6,-7 0,5 1,11 3,16 0,2 1,3 2,5l0 58c0,18 -4,28 -4,37 0,4 9,13 1,38 -1,3 -5,12 -5,14 0,7 1,7 2,12 1,3 1,6 1,10 2,12 2,21 1,33 -2,12 -8,7 -24,11 -4,1 -7,2 -10,3 -10,3 -20,7 -21,7 -25,10 -47,20 -80,20l-28 0c-2,0 -5,0 -7,0 0,0 -1,0 -1,0 -11,-1 -21,-3 -39,-7 -22,-6 -24,-6 -48,-6 -3,0 -10,0 -14,-1 -3,-1 -4,-3 -5,-7 -1,-2 -5,-45 -5,-49 0,-2 0,-4 0,-6 0,0 0,-1 0,-2 0,-2 0,-3 -1,-5l0 0c0,-2 0,-4 -1,-6 0,-3 0,-5 0,-6 0,-13 3,-11 3,-18 0,-5 -3,-10 -5,-14 -2,-6 -2,-13 -2,-18 0,0 1,-5 1,-5 1,-5 3,-10 3,-16 0,-1 0,-24 -1,-32 0,0 1,-5 1,-5 2,-21 8,-36 8,-60 0,-1 0,-2 0,-4 -2,5 -4,8 -7,10 0,4 1,14 1,18 0,11 -5,26 -3,35 0,3 0,9 0,11 -1,12 -1,35 -2,41 -1,6 -1,2 -1,7 -1,11 -8,49 -9,55 1,0 1,2 1,3 0,0 0,0 0,1 1,1 1,1 1,1 0,0 0,0 -1,0 2,14 6,22 0,30 -3,3 -11,6 -17,9 -8,3 -27,16 -28,3 -2,-13 -4,-14 -6,-25l-1 -6c-7,-18 -11,-47 -9,-56 6,-30 -24,-87 -6,-114 12,-19 -4,-42 6,-66 5,-10 8,-26 13,-35 5,-23 15,-45 18,-68 0,-2 0,-3 1,-3 1,-2 1,-4 2,-6 13,-39 24,-38 59,-48 13,-3 21,-3 34,-7 0,0 3,-1 4,-1 -3,-2 -7,-5 -9,-5 -14,-7 -4,-21 -4,-26 -6,-4 -9,-9 -10,-14 0,0 0,0 0,-1 -2,-12 11,-27 21,-34 15,-9 49,-2 66,-2 29,0 24,0 48,-7 20,-7 53,-9 69,8z"/>
  <path class="fil0" d="M201 117c-15,-10 -13,-25 -21,-41 -1,-1 -1,-2 -2,-3 -1,-1 -1,-1 -1,-2 -10,-11 -24,-5 -37,-6 0,2 -1,5 -2,7 -4,12 5,5 18,15 0,0 20,15 21,17 12,14 16,12 24,13z"/>
  <path class="fil0" d="M263 67c1,-1 2,-3 4,-4 5,-4 14,-9 24,-14 -5,-13 -33,-9 -60,-13 22,-3 49,-1 70,5 10,-7 17,-15 13,-22 -2,-3 -5,-6 -19,-8 -33,-5 -39,8 -64,10 -27,2 -46,-1 -70,-1 -14,0 -22,6 -29,19 -1,3 -2,6 -2,7 0,1 0,1 0,1 1,2 2,4 4,6 1,0 3,1 4,2 11,4 28,-2 41,10 3,-7 7,-13 16,-16 -18,15 -13,30 -5,27 24,-10 58,-18 73,-9z"/>
  <path class="filin" d="M227 123c5,-19 20,-40 33,-53 -17,-4 -40,-3 -69,11 0,0 -1,0 -2,0 16,51 24,31 34,45 1,0 2,-1 3,-2l0 0 0 0c0,0 1,-1 1,-1z"/>
  <path class="fil0" d="M321 36c-4,5 -10,10 -17,14 0,1 -1,1 -1,1 -14,8 -29,15 -37,23 -15,13 -23,28 -30,45 14,-9 33,-15 45,-17 10,-2 55,-11 44,-29 -2,-3 -2,-1 -3,-5 -2,-2 -3,-5 -3,-9 -5,5 -12,8 -21,11 10,-8 17,-13 22,-24 0,-3 1,-7 1,-10z"/>
  <path class="fil2" d="M440 416c-2,7 -8,20 -13,24 -5,5 -1,15 0,20 -2,-5 -9,-18 -4,-25 2,-4 9,-5 17,-19zm-73 -118c8,10 10,6 16,14l4 5 6 7c10,12 -2,-4 5,7 3,5 18,11 24,19l3 3c-8,-8 -10,-8 -21,-13 -15,-7 -12,-3 -20,-21 -8,-17 -8,-7 -17,-21zm-348 2c3,22 10,36 17,55 3,11 3,17 3,28 0,28 -4,18 6,44 -12,-27 -7,-15 -10,-44 -1,-9 -3,-13 -4,-20l-1 -6c-2,-20 -9,-33 -11,-57z"/>
  <path class="fil2" d="M214 565c2,-1 3,-2 4,-2 4,-2 21,-5 34,-7 8,-1 20,-5 31,-8m-133 0c14,5 22,8 28,8 2,0 4,0 6,1m90 -14c-4,0 -8,1 -12,2 -19,5 -38,7 -46,8m59 -10l-1 0m6 0c-2,0 -4,0 -6,0m126 -285c0,-28 -1,-56 4,-81 -2,1 -3,2 -4,3l0 3c0,1 0,1 0,2 0,0 0,0 0,1 0,0 0,0 -1,1 0,0 0,0 0,0 2,29 2,48 0,72 0,0 1,0 1,-1zm-162 -43c3,47 4,53 4,55 0,2 1,5 1,6 1,2 1,7 1,8 0,1 -1,3 -3,5 -2,2 -6,4 -6,4 0,0 4,-5 4,-7 -1,-3 -3,-4 -3,-4 0,0 1,-2 1,-3 1,-2 2,-4 2,-4 0,0 0,-4 -2,-10 -1,-5 1,-27 0,-32 -1,-6 -3,-51 1,-74 0,-2 8,-33 8,-33 0,-1 0,-1 0,-1 -48,24 -13,9 -41,2 -2,5 -6,13 -6,13l-7 -2c0,0 -7,15 -13,22 -6,8 -15,17 -15,22 -1,6 -4,11 -4,16 0,4 2,9 2,13 0,3 2,3 -1,7 -2,3 -5,10 -5,26 0,15 -2,18 -2,20 0,2 0,6 0,6l2 2c0,0 1,0 1,3 0,3 -1,3 -1,3 0,0 -2,3 -3,5 -1,2 -2,5 -2,5 0,0 1,-9 1,-10 0,-2 -3,-3 -3,-3l2 -3c0,0 0,-5 0,-11 1,-5 1,-34 6,-47 0,0 2,-5 0,-6 -2,-1 0,-11 0,-11 0,0 8,-26 26,-48 0,0 4,-7 5,-10 2,-3 2,-4 2,-4 0,0 8,3 11,-4 1,-2 1,-3 2,-4 -14,-3 -18,3 -34,-16 -5,-3 -12,-9 -17,-14 -1,1 -1,1 -1,1l-1 -1 -23 8c-11,4 -24,7 -36,11 -14,3 -21,5 -28,18 -11,18 -21,70 -29,91 -1,2 -1,4 -2,6l1 -1c-5,13 -8,24 -13,37 -9,19 8,42 -8,66 -13,20 9,78 6,102 -3,33 14,61 18,93 3,2 11,-6 19,-9 6,-3 13,0 14,-7 -1,-4 -6,-29 -5,-32l0 1c2,-20 11,-71 14,-91 -2,-20 -4,-20 -1,-40 2,-18 1,-15 1,-31 0,-4 0,-10 3,-12 15,-14 6,-40 4,-57l-1 -10c0,-1 1,-2 2,-3 -4,-28 -4,-55 -2,-85 0,-1 0,-2 1,-4 -10,-4 -7,14 -7,23 0,10 4,38 8,66 1,-1 2,-1 3,-1 2,0 4,2 4,4 1,15 5,35 4,49 0,0 0,1 0,1 1,4 2,7 3,11 12,42 16,88 39,134 15,31 46,85 1,10 0,0 -26,-51 -27,-54 -2,-4 -12,-74 -13,-75 -2,2 -2,3 -2,5 -5,17 -8,62 -3,82 3,14 -12,16 0,47 4,10 0,17 -2,23 -1,6 1,7 2,12 2,12 0,54 6,63 4,1 11,3 13,3 9,0 12,-2 24,0 33,5 44,13 76,14 8,0 16,0 26,-1 22,-1 110,-28 120,-34 3,-11 0,-37 -4,-47 -2,1 -13,15 -24,24 1,0 1,-1 1,-2 0,-7 12,-15 17,-21 6,-8 20,-41 12,-51 -3,2 -9,15 -11,19 -8,14 -14,25 -22,39 -1,1 -2,2 -2,4l0 0c-10,-5 16,-35 23,-50 13,-25 16,-96 14,-124 -4,2 -11,64 -13,70 -4,10 -8,20 -11,31 -4,11 -8,21 -12,31 -2,5 -5,10 -7,15 -2,3 -3,4 -4,7 -1,1 -1,1 -1,2 -5,-3 31,-87 35,-99 4,-12 8,-64 11,-76 1,-2 1,-4 2,-7 -1,-3 -1,-5 -1,-6 -1,-14 3,-34 4,-49 0,0 0,-1 0,-1 2,-30 4,-60 12,-67 0,0 0,0 0,1 0,0 0,0 0,0 1,3 1,3 -1,10 -5,23 -5,39 -5,53 1,0 3,2 3,4l-1 10c0,6 -2,14 -3,21 0,4 -1,8 -1,12 0,9 1,18 8,24 4,2 4,8 4,12 0,16 -2,13 1,31 2,20 0,20 -2,40 5,35 7,69 5,102 0,6 -1,26 1,29 4,5 12,0 20,-1 9,0 18,4 21,1 1,-25 2,-96 17,-106 0,-7 0,-16 0,-21 0,-21 13,-45 2,-61 -16,-22 1,-47 -7,-66 -6,-13 -9,-24 -14,-37l2 1c-2,-2 -12,-43 -13,-49 -3,-21 -13,-50 -35,-60 -18,-9 -47,-19 -64,-21 -11,6 -24,9 -34,11 -7,1 -21,5 -33,11 0,0 0,0 -1,1 -6,4 -13,70 -11,91zm-93 183l0 0c-5,-14 -24,-76 -21,-80 4,1 11,55 13,59 4,7 8,14 13,21 1,3 3,6 5,7 26,37 154,178 20,34 -7,-8 -17,-20 -24,-31l0 0 0 0c0,-3 -2,-5 -3,-6 -1,0 -1,0 -1,0 0,0 0,-1 -1,-2 0,0 0,0 0,0 0,-1 -2,-2 -1,-1l0 0c0,0 0,-1 0,-1zm38 127c-6,1 -79,-29 -85,-36 7,5 83,35 85,36zm254 -3c0,8 -15,6 -29,7 -11,0 -21,4 -26,-2 -5,-7 -4,-26 -4,-34l0 -7c0,-1 3,-54 0,-66 -4,-26 -6,-26 -2,-52 2,-9 -3,-24 -2,-35 0,-4 0,-14 0,-18 -2,-2 -4,-4 -6,-7 0,5 1,11 3,16 0,2 1,3 2,5l0 58c0,18 -4,28 -4,37 0,4 9,13 1,38 -1,3 -5,12 -5,14 0,7 1,7 2,12 1,3 1,6 1,10 2,12 2,21 1,33 -2,12 -8,7 -24,11 -4,1 -7,2 -10,3 -10,3 -20,7 -21,7 -25,10 -47,20 -80,20l-28 0c-2,0 -5,0 -7,0 0,0 -1,0 -1,0 -11,-1 -21,-3 -39,-7 -22,-6 -24,-6 -48,-6 -3,0 -10,0 -14,-1 -3,-1 -4,-3 -5,-7 -1,-2 -5,-45 -5,-49 0,-2 0,-4 0,-6 0,0 0,-1 0,-2 0,-2 0,-3 -1,-5l0 0c0,-2 0,-4 -1,-6 0,-3 0,-5 0,-6 0,-13 3,-11 3,-18 0,-5 -3,-10 -5,-14 -2,-6 -2,-13 -2,-18 0,0 1,-5 1,-5 1,-5 3,-10 3,-16 0,-1 0,-24 -1,-32 0,0 1,-5 1,-5 2,-21 8,-36 8,-60 0,-1 0,-2 0,-4 -2,5 -4,8 -7,10 0,4 1,14 1,18 0,11 -5,26 -3,35 0,3 0,9 0,11 -1,12 -1,35 -2,41 -1,6 -1,2 -1,7 -1,11 -8,49 -9,55 1,0 1,2 1,3 0,0 0,0 0,1 1,2 2,2 0,1 2,14 6,22 0,30 -3,3 -11,6 -17,9 -8,3 -27,16 -28,3 -2,-13 -4,-14 -6,-25l-1 -6c-7,-18 -11,-47 -9,-56 6,-30 -24,-87 -6,-114 12,-19 -4,-42 6,-66 5,-10 8,-26 13,-35 5,-23 15,-45 18,-68 0,-2 0,-3 1,-3 1,-2 1,-4 2,-6 13,-39 24,-38 59,-48 13,-3 21,-3 34,-7 0,0 3,-1 4,-1 -3,-2 -7,-5 -9,-5 -14,-7 -4,-21 -4,-26 -6,-4 -9,-9 -10,-14 0,0 0,0 0,-1 -2,-12 11,-27 21,-34 15,-9 49,-2 66,-2 29,0 24,0 48,-7 20,-7 53,-9 69,8 14,8 4,36 5,47 2,2 3,4 3,6 7,10 6,18 1,25l0 0c-1,1 -3,2 -4,3 20,9 60,17 74,31 11,11 12,17 17,34 2,7 3,14 5,21 2,12 7,31 10,47 5,9 8,25 13,35 10,24 -6,48 6,66 15,21 1,41 0,66 0,7 4,26 -3,28 -9,3 -13,84 -14,100zm-401 6c0,0 0,1 0,1l0 -1zm285 -492c-4,5 -10,10 -17,14 0,1 -1,1 -1,1 -14,8 -29,15 -37,23 -15,13 -23,28 -30,45 14,-9 33,-15 45,-17 10,-2 55,-11 44,-29 -2,-3 -2,-1 -3,-5 -2,-2 -3,-5 -3,-9 -5,5 -12,8 -21,11 10,-8 17,-13 22,-24 0,-3 1,-7 1,-10zm-94 87c5,-19 20,-40 33,-53 -17,-4 -40,-3 -69,11 0,0 -1,0 -2,0 16,51 24,31 34,45 1,0 2,-1 3,-2l0 0 0 0c0,0 1,-1 1,-1zm36 -56c1,-1 2,-3 4,-4 5,-4 14,-9 24,-14 -5,-13 -33,-9 -60,-13 22,-3 49,-1 70,5 10,-7 17,-15 13,-22 -2,-3 -5,-6 -19,-8 -33,-5 -39,8 -64,10 -27,2 -46,-1 -70,-1 -14,0 -22,6 -29,19 -1,3 -2,6 -2,7 0,1 0,1 0,1 1,2 2,4 4,6 1,0 3,1 4,2 11,4 28,-2 41,10 3,-7 7,-13 16,-16 -18,15 -13,30 -5,27 24,-10 58,-18 73,-9zm-62 50c-15,-10 -13,-25 -21,-41 -1,-1 -1,-2 -2,-3 -1,-1 -1,-1 -1,-2 -10,-11 -24,-5 -37,-6 0,2 -1,5 -2,7 -4,12 5,5 18,15 0,0 20,15 21,17 12,14 16,12 24,13zm175 198c1,0 2,0 2,0"/>
 </g>
</svg>
