<svg xmlns="http://www.w3.org/2000/svg" xml:space="preserve" width="15.8501in" height="6.90932in" version="1.1" style="shape-rendering:geometricPrecision; text-rendering:geometricPrecision; image-rendering:optimizeQuality; fill-rule:evenodd; clip-rule:evenodd"
viewBox="0 0 8433 3676"
 xmlns:xlink="http://www.w3.org/1999/xlink">
 <defs>
  <style type="text/css">
   <![CDATA[
    .fil1 {fill:black}
    .fil0 {fill:white}
   ]]>
  </style>
 </defs>
 <g id="Layer_x0020_1">
  <metadata id="CorelCorpID_0Corel-Layer"/>
  <g id="_946214160">
   <path class="fil1" d="M1933 1961c0,-30 -16,-17 -29,-9 -7,17 -20,59 -29,83 -8,21 -43,105 -54,135 -11,31 -26,100 -25,131 0,30 24,80 39,103 15,24 78,72 123,108 35,28 98,84 143,109 37,21 92,18 126,4 27,-11 62,-36 88,-69 18,-23 43,-83 54,-109 11,-26 233,-526 250,-562 10,-24 28,-62 34,-76 7,-15 9,-34 8,-49 -1,-15 -11,-41 -18,-55 -8,-18 -32,-24 -43,-31 -5,15 -27,22 -42,26 -15,3 -32,-4 -44,-5 -12,-2 -38,-16 -46,-24 -8,-6 -21,-32 -17,-41 -20,-14 -132,-27 -161,-30 -4,1 -7,5 -25,23 -19,17 -50,54 -79,87 -29,33 -98,144 -121,185 -23,41 -64,154 -84,201 -26,61 -43,181 -47,208 -5,28 1,79 9,103 9,24 5,30 -10,15 -11,-10 -26,-40 -38,-79 -13,-39 -7,-142 1,-172 0,0 -11,-8 -33,-22 -7,-13 17,-30 17,-30 0,0 9,3 20,7 1,-25 16,-95 20,-110 4,-15 10,-29 13,-55zm-1054 1007c-19,-10 -30,-10 -46,-8 26,13 78,33 114,62 20,16 88,59 110,116 11,17 29,35 29,36 105,5 279,27 332,35 124,19 421,77 450,85 120,32 440,116 473,126 33,10 42,15 58,27 17,-19 14,-31 32,-34 18,-3 112,20 158,30 31,8 29,7 64,13 22,-17 25,-34 16,-52 -6,-23 -12,-42 7,-58 18,-16 28,-10 33,-36 5,-27 2,-28 2,-28 0,0 -62,-45 -72,-108 -10,-64 8,-148 33,-244 24,-96 56,-205 79,-292 17,-65 31,-163 58,-200 29,-40 50,-91 46,-132 -4,-35 14,-104 24,-138 14,-48 49,-44 51,-121 1,-36 -2,-73 6,-84 8,-12 9,-11 19,-21 -2,-19 3,-65 15,-87 12,-22 91,-182 110,-225 8,-24 15,-42 18,-53 -39,-15 -249,-73 -269,-77 -6,24 -33,171 -50,211 -21,50 -87,193 -94,209 -8,17 -265,589 -276,609 -25,46 -56,99 -115,128 -59,29 -118,32 -155,26 -37,-7 -81,-15 -114,-42 -34,-27 -98,-77 -125,-101 -26,-25 -102,-85 -129,-108 -26,-23 -101,-103 -138,-102 -42,1 -36,0 -60,-15 -18,-12 -18,-28 -18,-45 -1,-16 3,-59 -6,-71 -14,-6 -20,1 -19,14 1,13 15,97 30,122 -37,15 -136,50 -166,93 -31,43 -75,134 -30,221 -53,19 -116,43 -147,81 -30,37 -71,127 -76,173 -2,24 -5,24 -3,48 -30,3 -87,1 -105,16 -18,14 -46,24 -68,23 -22,-1 -68,-12 -86,-22zm-744 -2759c24,-90 23,-167 67,-207 59,-16 419,64 490,82 186,47 480,207 532,207 70,0 657,185 936,278 139,47 268,91 268,91 10,-29 -23,-56 -49,-99 -26,-53 -33,-126 -34,-159 -45,6 -77,-6 -120,-48 -44,-42 -44,-98 -32,-137 11,-40 51,-87 82,-100 31,-13 87,-4 126,16 38,21 60,60 73,90 18,-8 68,-3 119,7 51,9 79,15 125,30 44,14 73,24 115,41 23,10 96,47 126,64 49,26 14,92 1,145 -20,77 -16,92 -42,140 -22,42 -49,84 -143,101 40,29 112,58 157,70 44,12 251,88 290,105 45,18 357,107 377,111 32,6 26,20 44,62 53,11 91,19 156,41 56,18 113,70 156,84 0,0 1031,307 1082,321 84,22 64,-13 140,10 22,7 402,124 446,139 43,15 35,23 49,44 15,21 65,23 110,35 45,13 1864,551 1907,564 42,13 53,9 76,10l644 184c31,45 29,140 9,195 -20,55 -60,119 -110,158l-623 -181c-39,-28 -47,-40 -82,-51 -91,-28 -1917,-546 -2018,-576 -28,-10 -22,31 -65,18 -80,-18 -306,-91 -437,-124 -105,-26 -108,-64 -188,-91 -55,-18 -929,-267 -1024,-293 -55,-15 -108,-11 -144,-18 -85,-20 -203,-52 -251,-63 -1,43 -26,57 -42,79 -35,45 -39,91 -42,132 -3,40 -16,214 -19,254 -2,27 -28,70 -35,81l-2 2c0,0 1,-1 2,-2 2,-2 9,11 9,21 -1,32 -27,59 -46,91 -44,75 -16,95 -23,139 -6,40 -18,84 -40,123 -22,40 -34,104 -28,140 6,35 -33,143 -48,193 -14,50 -97,371 -116,429 -14,42 -37,72 -60,100 -33,39 -83,46 -110,48 -1,-1 2,14 -8,37 19,12 18,20 10,58 -8,37 -46,36 -46,36 0,0 -3,-2 -8,54 -5,55 1,97 -43,141 -43,42 -106,-18 -125,-9 -18,10 -35,6 -82,-4 -46,-9 -80,-18 -105,-36 -29,-6 -80,-25 -96,-37 -16,-12 1,10 -1,-33 -28,-19 -321,-92 -511,-140 -160,-54 -649,-110 -649,-110 0,0 -20,121 -38,189 -18,67 -34,126 -60,131 -27,5 -40,-5 -42,-24 -3,-18 10,-29 10,-29l-17 -10 -22 39 -45 -12 8 -44 -22 -12c0,0 -8,15 -25,44 -29,0 -178,-28 -178,-28 0,0 0,0 -76,-14 -77,-13 -219,-19 -297,-23 -65,-4 -92,-16 -132,-32 -16,30 -50,20 -68,17 -38,-6 -52,-47 -52,-47 0,0 -65,-13 -76,-16 -28,-7 -14,-35 -14,-35 0,0 -25,-8 -63,-20 -25,-65 122,-426 122,-426l52 16 20 -24 234 72 0 29 60 21c0,0 7,-6 -6,-30 -13,-23 -76,-49 -129,-59 -53,-10 -109,-35 -152,-52 1,-13 45,-114 45,-114 0,0 -9,-8 -26,-18 -17,-10 -43,-56 -48,-82 -5,-25 -5,-48 47,-119 42,-64 219,-305 251,-345 32,-40 478,-648 518,-719 40,-72 23,-146 -17,-236 -40,-90 -131,-112 -173,-136 0,0 -13,42 -80,27 -66,-14 -56,-54 -56,-54 0,0 -6,-4 -27,-13 -11,-31 -23,-121 -41,-212 18,-55 3,-44 -25,-50 -80,-23 -456,-132 -515,-155 8,-31 0,-62 -33,-90 -13,-33 3,-79 30,-139 28,-60 67,-198 81,-249z"/>
   <g>
    <path class="fil0" d="M3879 1595c334,109 678,197 1037,288 1,-96 53,-254 115,-333 -207,-70 -1032,-334 -1074,-303 -65,47 -112,307 -78,348z"/>
    <path class="fil1" d="M3879 1595c334,109 678,197 1037,288 1,-96 53,-254 115,-333 -207,-70 -1032,-334 -1074,-303 -65,47 -112,307 -78,348zm-25 51c-92,-59 -8,-431 102,-461 50,-14 919,245 1097,308 26,10 49,21 58,33 18,22 -26,38 -41,59 -44,60 -99,228 -103,298 -1,19 10,47 4,57 -3,4 -7,8 -15,10 -15,7 -980,-265 -1094,-299 -3,-1 -6,-3 -8,-5z"/>
   </g>
  </g>
 </g>
</svg>
