<svg xmlns="http://www.w3.org/2000/svg" xml:space="preserve" width="5.19139in" height="6.57919in" version="1.1" style="shape-rendering:geometricPrecision; text-rendering:geometricPrecision; image-rendering:optimizeQuality; fill-rule:evenodd; clip-rule:evenodd"
viewBox="0 0 871 1104"
 xmlns:xlink="http://www.w3.org/1999/xlink">
 <defs>
  <style type="text/css">
   <![CDATA[
    .fil1 {fill:black}
    .fil0 {fill:white}
   ]]>
  </style>
 </defs>
 <g id="Layer_x0020_1">
  <metadata id="CorelCorpID_0Corel-Layer"/>
  <g id="_946234064">
   <path class="fil1" d="M333 73c-34,-23 -29,4 -76,20 -26,9 -80,32 -91,60 -4,10 -1,24 -5,32 -3,9 1,11 -9,15 -46,22 -90,160 -53,196 27,25 49,-27 66,-42 13,-12 27,-26 39,-38 10,-11 27,-23 29,-38 1,-15 39,-121 71,-167 11,-16 21,-29 29,-38zm-189 112c0,0 10,-6 5,-12 -6,-5 9,-26 9,-26 0,0 48,-49 121,-73 0,0 17,-12 25,-16 28,-14 17,14 41,1 3,1 5,2 8,3 -24,26 -75,90 -100,176 -15,50 -5,54 -37,91l-24 18c-33,25 -18,12 -36,44 -14,24 -38,37 -61,15 -54,-50 1,-180 49,-221z"/>
   <path class="fil0" d="M478 3c16,16 -94,157 65,183 68,12 75,20 115,66 33,38 77,67 118,96 91,66 61,14 76,120l1 1c1,1 1,2 1,3 1,4 2,7 3,10l-2 0c2,2 0,4 4,6 3,8 7,16 12,24l-2 0 0 165c0,42 -12,64 -12,87 0,7 27,30 3,85 -3,7 -16,29 -16,35 0,16 4,14 7,25 2,9 3,15 4,24 6,28 5,49 1,76 -3,29 -23,16 -71,26 -119,23 -192,69 -329,69l-82 0c-42,-1 -75,-4 -140,-17 -66,-14 -72,-14 -142,-14 -12,0 -31,1 -41,-1 -12,-2 -14,-8 -18,-17 -12,-34 -13,-77 -13,-113 0,-20 -8,-52 -8,-56 0,-31 10,-26 10,-43 0,-12 -9,-22 -13,-32 -23,-51 6,-59 6,-89 0,-13 -5,-18 -5,-31l0 -25c0,-26 17,-130 17,-155 2,-1 3,-2 4,-3 2,-11 4,-22 7,-37 -1,-1 -1,-2 -1,-3 21,-146 224,-145 297,-284 37,-39 22,-69 10,-105 -2,-6 -6,-7 -7,-13 -2,-6 -2,-17 -2,-23 -1,-3 0,-5 1,-8l0 0 0 0c18,-36 134,-39 142,-32z"/>
   <path class="fil1" d="M37 468c21,-146 224,-145 297,-284 37,-39 22,-69 10,-105 -2,-6 -6,-7 -7,-13 -2,-6 -2,-17 -2,-23 -1,-3 0,-5 1,-8 0,0 0,0 0,0 0,0 0,0 0,0 18,-36 134,-39 142,-32 16,16 -94,157 65,183 68,12 75,20 115,66 33,38 77,67 118,96 91,66 61,14 76,120l1 1c1,1 1,2 1,3 1,4 2,7 3,10l-2 0c2,2 0,4 4,6 3,8 7,16 12,24l-2 0 0 165c0,42 -12,64 -12,87 0,7 27,30 3,85 -3,7 -16,29 -16,35 0,16 4,14 7,25 2,9 3,15 4,24 6,28 5,49 1,76 -3,29 -23,16 -71,26 -119,23 -192,69 -329,69l-82 0c-42,-1 -75,-4 -140,-17 -66,-14 -72,-14 -142,-14 -12,0 -31,1 -41,-1 -12,-2 -14,-8 -18,-17 -12,-34 -13,-77 -13,-113 0,-20 -8,-52 -8,-56 0,-31 10,-26 10,-43 0,-12 -9,-22 -13,-32 -23,-51 6,-59 6,-89 0,-13 -5,-18 -5,-31l0 -25c0,-26 17,-130 17,-155 2,-1 3,-2 4,-3 2,-11 4,-22 7,-37 -1,-1 -1,-2 -1,-3zm313 -424c16,0 27,-9 45,-11l20 -1c11,-2 20,0 41,-12 -27,5 -91,13 -106,24zm108 -22c-18,13 -43,22 -62,24 -9,1 -29,4 -49,1 0,0 0,0 0,1 20,86 43,109 -39,199 -86,95 -211,107 -241,242 0,3 0,5 -1,7 44,113 69,244 149,345 15,19 47,43 50,57 -11,-4 -30,-21 -38,-28 -10,-11 -20,-21 -30,-33 -36,-40 -77,-102 -101,-150 -4,-8 -34,-122 -43,-164 -13,37 -17,53 -14,69 -1,2 -1,3 -1,5 0,1 0,2 0,2 -1,1 -1,2 -1,3 0,2 0,3 0,5 0,1 0,2 0,3l0 11c-1,0 -1,1 -1,1 0,1 -1,3 -1,5l0 5c0,1 1,2 1,3 0,1 0,2 0,3 0,30 1,58 7,77 10,32 -34,37 -1,107 12,24 1,40 -4,53 -4,14 3,17 5,29 6,27 1,123 18,145 34,4 73,1 109,6 116,14 140,39 303,30 98,-5 177,-37 266,-61 29,-8 88,-15 92,-17 8,-26 -1,-84 -12,-109 -7,4 -46,40 -79,63 -6,4 -7,4 -16,6 8,-16 55,-45 75,-66 19,-19 62,-95 38,-117 -10,4 -27,34 -34,44 -23,31 -41,58 -65,89 -8,10 -25,37 -38,41 -4,-7 1,-11 8,-20 32,-44 61,-76 93,-126 33,-50 42,-170 42,-232l0 -3c2,-5 -2,-10 -8,-10l0 0c-5,0 -8,3 -8,7 0,18 -16,100 -23,113 -12,23 -23,47 -34,72 -11,24 -23,46 -36,70 -6,12 -13,24 -20,35 -5,6 -7,10 -12,16 -7,8 -3,9 -18,11 3,-10 17,-28 24,-38 32,-49 72,-143 95,-196 7,-17 15,-70 22,-114 -1,-29 -2,-59 -7,-82 -22,-101 -89,-98 -161,-175 -50,-53 -32,-66 -117,-85 -110,-24 -100,-104 -82,-179zm-111 26c0,0 0,0 -1,1 1,-1 1,-1 1,-1zm-179 607c-7,-9 -27,-133 -38,-137 -11,11 58,183 65,192 21,26 60,63 85,88l36 30c5,3 7,6 12,10 9,7 17,12 26,19 7,5 16,13 25,19 18,11 88,62 116,61 -1,-8 -2,-6 -10,-10l-43 -25c-104,-57 -211,-163 -274,-247zm-117 257c3,2 -1,2 6,7 6,3 47,18 54,20 34,12 173,66 197,57 -2,-6 3,-1 -5,-5l-58 -17c-43,-13 -178,-61 -194,-62z"/>
   <path class="fil1" d="M443 139c12,75 69,150 113,213 28,39 78,76 121,100 14,8 11,7 25,11 -14,-4 -11,-2 -26,-10 -68,-35 -128,-82 -164,-146 -30,-53 -62,-108 -69,-168z"/>
   <path class="fil1" d="M416 223c4,79 18,177 31,254 10,53 21,239 4,288l-7 15c18,-41 14,-89 11,-133 -4,-57 -16,-114 -19,-169 -5,-85 -18,-168 -20,-255z"/>
   <path class="fil1" d="M367 163c-21,91 -25,162 -61,254 -25,65 -45,133 -125,153 77,-21 97,-90 115,-155 8,-32 13,-43 24,-73 23,-63 30,-117 47,-179z"/>
   <path class="fil1" d="M352 74c50,-4 9,-2 48,-10l21 -2 25 -7c-51,26 -34,24 -94,19z"/>
   <path class="fil1" d="M351 77c0,-13 -3,-24 -5,-31 14,15 15,16 5,31z"/>
  </g>
 </g>
</svg>
