<svg xmlns="http://www.w3.org/2000/svg" xml:space="preserve" width="8.47433in" height="11.3905in" version="1.1" style="shape-rendering:geometricPrecision; text-rendering:geometricPrecision; image-rendering:optimizeQuality; fill-rule:evenodd; clip-rule:evenodd"
viewBox="0 0 1539 2069"
 xmlns:xlink="http://www.w3.org/1999/xlink">
 <defs>
  <style type="text/css">
   <![CDATA[
    .fil02 {fill:black}
    .fil0 {fill:white}
    .fil01 {fill:white}
   ]]>
  </style>
 </defs>
 <g id="Layer_x0020_1">
  <metadata id="CorelCorpID_0Corel-Layer"/>
  <g id="_946243184">
   <path class="fil02" d="M237 984c-14,25 -55,93 -55,121 0,89 4,262 -77,315 -32,21 -69,210 -89,250 -10,19 81,178 84,216 14,-127 141,-737 255,-856 -15,-7 -116,-46 -118,-46z"/>
   <path class="fil02" d="M1095 750c22,25 82,93 90,121 27,89 74,262 171,315 38,21 131,211 163,250 15,19 -28,178 -20,216 -52,-127 -359,-737 -508,-856 13,-7 102,-46 104,-46z"/>
   <path class="fil02" d="M1095 770c25,29 66,77 75,100 11,29 21,70 32,103 23,67 63,164 130,213 31,23 22,10 48,48 46,66 79,138 125,206 4,18 -10,93 -18,145 -101,-217 -336,-656 -467,-783 23,-10 59,-25 75,-32zm411 670c0,1 1,2 1,2 -1,-1 -1,-1 -1,-2zm-23 209l0 1 0 0c4,7 7,12 9,14 26,18 23,-15 24,-27 1,-44 38,-176 16,-209 -45,-66 -79,-140 -125,-206 -28,-41 -24,-33 -60,-60 -51,-37 -85,-116 -105,-168 -16,-43 -25,-85 -39,-124 -14,-39 -65,-94 -95,-128 -1,-1 -1,-1 -2,-2l0 0 0 0 0 0 0 -1c-2,-1 -4,-2 -6,-3l0 -1 0 0c0,0 -1,0 -1,0 -2,-1 -4,-1 -6,-2l-1 0 0 0 0 0 0 0c-3,0 -6,1 -8,2 -27,9 -56,24 -81,35 -33,15 -41,16 -7,48 132,123 367,577 447,745 5,10 26,60 40,86z"/>
   <path class="fil02" d="M245 1004c-17,29 -44,78 -46,101 -3,29 0,70 -2,103 -3,67 -15,164 -67,213 -24,23 -20,9 -34,47 -26,67 -38,139 -64,206 1,18 38,94 61,146 36,-217 142,-656 235,-783 -25,-10 -66,-26 -83,-33zm-214 671c0,1 0,1 0,2 0,-1 0,-1 0,-2zm85 209l0 1 0 0c-2,7 -4,12 -5,13 -21,18 -28,-15 -32,-26 -14,-44 -90,-177 -78,-210 26,-65 38,-139 64,-206 16,-41 15,-32 43,-59 40,-38 51,-117 55,-169 3,-42 0,-85 3,-123 3,-39 37,-94 57,-129 0,0 1,-1 1,-1l0 -1 0 0 1 0 0 0c1,-2 2,-3 4,-4l0 0 0 0c0,0 0,0 1,0 2,-1 4,-2 6,-2l0 0 0 0 0 0 1 0c2,0 5,0 8,2 29,9 63,23 91,34 38,15 46,16 21,48 -95,124 -196,578 -227,746 -2,9 -8,60 -14,86z"/>
   <path class="fil01" d="M645 1c170,-21 483,189 530,348 28,92 17,178 5,272 47,-13 87,-26 105,20 15,36 16,89 12,130 -7,83 -37,156 -73,212 -30,49 -40,27 -41,100 -1,47 -3,95 0,143 3,66 18,89 32,116 269,503 -944,1147 -916,354 3,-102 5,-160 2,-270 -5,-190 -29,-133 -63,-264 -7,-28 -8,-29 -27,-45 -66,-54 -108,-143 -120,-244 -8,-66 -1,-200 90,-197 -2,-40 -14,-87 -17,-132 -15,-183 37,-297 177,-405 83,-64 191,-124 304,-138z"/>
   <path class="fil02" d="M922 410c38,0 144,139 133,171 15,-32 35,-53 47,-99 13,-44 12,-92 -1,-134 -20,-64 -88,-145 -132,-165 30,37 186,226 -47,227zm-446 244c51,0 90,-48 60,-72 5,1 11,1 16,1 -149,-60 -293,38 -218,77 12,6 19,8 33,5 -21,-4 -30,-9 -39,-26 -15,-30 193,-71 202,-41 9,28 -26,45 -54,56zm301 -2c-36,-5 -70,-22 -69,-53 0,-8 4,-15 10,-20 -3,0 -5,1 -8,2 48,-47 169,-61 288,30 6,-19 3,-38 -9,-55 2,2 4,4 6,5 21,19 20,28 33,56 25,54 68,39 48,199 -26,210 39,172 -14,316 -24,63 -53,123 -97,171 -18,20 -21,27 -55,21 -6,33 -12,64 -28,88 -19,27 -42,30 -62,51 34,-3 73,-27 103,-41 64,-29 159,-159 195,-220 7,8 2,-1 6,10 25,67 12,275 16,364 4,-13 29,-57 38,-74 28,-57 38,-93 10,-157 -27,-63 -39,-294 -12,-330 21,-27 40,-51 58,-85 32,-64 55,-158 44,-242 -8,-58 -46,-56 -73,-46 -67,33 -12,58 -68,78 25,-145 61,-300 -23,-420 -65,-94 -153,-165 -275,-221 -147,-69 -259,-42 -391,25 -92,46 -225,155 -243,266 25,-33 112,-133 225,-143 -107,50 -139,89 -214,198 -30,42 -24,53 -19,114 49,-69 143,-206 321,-232 -70,28 -256,91 -288,435 -5,-8 -16,-13 -25,-20 -16,-13 -9,-10 -22,-26 -85,-14 -82,149 -70,212 12,70 50,149 111,184l-9 -58c-7,-3 -1,0 -8,-2 -24,-4 -33,-20 -46,-42 -11,-19 -26,-51 -31,-73 77,135 110,37 57,-3 -62,-45 -29,-183 -59,-57 -5,-171 70,-89 89,32 4,27 1,64 12,86 11,27 9,44 20,71 24,-82 55,-183 156,-201 -53,20 -122,111 -59,164 11,-31 27,-49 45,-71 -8,39 -32,104 -9,142 43,70 15,15 4,121 -5,50 -10,102 19,142 38,52 55,56 56,109 30,17 61,39 101,45 -15,-23 -39,-46 -56,-68 -56,-75 -104,-159 -39,-233 55,-63 105,-101 193,-100 110,2 81,-2 161,41 15,8 31,11 41,21 -77,7 -163,0 -242,4 -62,3 -155,15 -143,101 25,17 41,14 78,12 -7,-22 -15,-20 -16,-45 20,-8 92,4 121,4 69,-1 72,-13 116,-18 9,14 5,12 5,31 36,15 49,17 77,25 21,-42 22,-79 -12,-109 26,3 47,13 64,31l13 16c26,-16 66,-77 83,-107 37,-72 29,-68 6,-144 -48,-162 59,-98 39,-213 -7,-38 -65,-135 -125,-154 32,15 47,35 19,53 -15,9 -28,8 -45,6 10,-2 24,-4 33,-9 72,-37 -177,-87 -207,-49 -19,24 31,50 51,59zm2 276c-26,-5 -90,29 -132,30 -56,1 -81,-30 -120,-31 5,67 68,140 130,137 50,-2 131,-71 122,-136zm-480 768c-28,793 1185,149 916,-354 -14,-27 -29,-50 -32,-116 -3,-48 -1,-96 0,-143 1,-73 11,-51 41,-100 36,-56 66,-129 73,-212 4,-41 3,-94 -12,-130 -18,-46 -58,-33 -105,-20 12,-94 23,-180 -5,-272 -47,-159 -360,-369 -530,-348 -113,14 -221,74 -304,138 -140,108 -192,222 -177,405 3,45 15,92 17,132 -91,-3 -98,131 -90,197 12,101 54,190 120,244 19,16 20,17 27,45 34,131 58,74 63,264 3,110 1,168 -2,270zm40 -338c43,32 31,53 33,85 5,84 70,296 33,307 -18,6 -49,-40 -55,-58 -12,-40 -36,-287 -11,-334zm178 2c15,-16 38,-34 65,-38 31,-8 62,106 161,-18 63,6 152,66 -14,102 -39,9 -83,15 -125,10 -40,-5 -85,-22 -87,-56zm652 -590c121,28 -62,98 0,189l14 -18 31 -62c21,-41 70,-150 39,-193 -55,-78 -87,26 -84,84z"/>
   <path class="fil0" d="M241 286c-57,19 -79,282 -51,340 265,-178 705,-159 953,-45 33,15 25,-33 26,-59 2,-98 -32,-214 -88,-269 -72,-72 -711,-100 -840,33z"/>
   <path class="fil02" d="M237 286c-57,19 -79,282 -51,340 265,-178 706,-159 953,-45 33,15 26,-33 26,-59 3,-98 -32,-214 -87,-269 -72,-72 -712,-100 -841,33zm865 -58c96,76 145,420 64,392 -261,-88 -697,-148 -957,53 -36,27 -45,-15 -60,-61 -21,-60 -7,-290 65,-351 164,-139 782,-115 888,-33z"/>
  </g>
 </g>
</svg>
