<svg xmlns="http://www.w3.org/2000/svg" xml:space="preserve" width="5.97022in" height="8.9904in" version="1.1" style="shape-rendering:geometricPrecision; text-rendering:geometricPrecision; image-rendering:optimizeQuality; fill-rule:evenodd; clip-rule:evenodd"
viewBox="0 0 1606 2419"
 xmlns:xlink="http://www.w3.org/1999/xlink">
 <defs>
  <style type="text/css">
   <![CDATA[
    .filslev2 {fill:black}
    .fil0 {fill:white}
    .filslev1 {fill:white}
   ]]>
  </style>
 </defs>
 <g id="Layer_x0020_1">
  <metadata id="CorelCorpID_0Corel-Layer"/>
  <g id="_946230352">
   <path class="fil0" d="M901 71c47,-6 133,-20 174,-41 18,-9 60,34 75,61 63,37 256,94 374,150 5,2 9,4 14,7 0,0 0,0 0,0 34,14 89,15 60,75 -41,82 -101,455 -126,574 -1,0 -2,-1 -3,-1 -4,27 -10,58 -14,90 -1,17 -3,35 -5,54 0,12 0,24 2,35 -7,18 -11,37 -11,56 -8,0 0,80 8,104 17,51 11,81 11,135 0,2 0,5 0,7l0 34c0,3 0,5 0,8l0 73c-1,4 -2,9 -2,14 -4,13 -5,26 -5,39l0 82c-6,35 -13,62 -13,89 0,15 43,61 5,176 -5,14 -25,60 -25,71 0,34 7,31 11,53 4,18 4,30 7,49 9,59 8,100 2,157 -6,60 -37,34 -115,54 -191,48 -307,143 -528,143l-130 0c-13,-1 -24,-1 -36,-2 -1,1 -3,1 -4,0 -51,-3 -101,-12 -185,-34 -106,-28 -116,-28 -228,-28 -18,0 -49,3 -66,-2 -19,-5 -23,-17 -28,-36 -5,-19 -9,-39 -12,-60 4,-26 1,-52 -8,-76 -1,-22 -1,-44 -1,-65 2,-10 3,-21 3,-32l0 -53c0,-15 -2,-30 -7,-45 -2,-10 -5,-20 -8,-29 1,-53 15,-45 15,-78 0,-24 -14,-45 -21,-66 -6,-16 -10,-31 -12,-44 1,-6 1,-12 1,-18 0,-5 0,-11 0,-16 17,-106 30,-584 58,-570 0,-5 0,-11 0,-16 -1,2 -2,5 -4,7l0 -5c0,-14 -1,-28 -5,-42 -1,-17 -5,-34 -10,-49 2,-56 -13,-118 -19,-168 -4,-13 -10,-40 -17,-76l-1 -2c-54,-71 -119,-541 -23,-585 2,-2 4,-3 6,-3 1,0 2,-1 3,-1 28,-17 56,-25 124,-43 92,-24 171,-54 252,-108 6,-21 24,-41 58,-70 1,-1 2,-2 3,-2l0 0 0 0 1 0 0 0 0 0 0 -1 0 0c7,-3 27,0 28,1 116,81 239,87 377,69z"/>
   <g>
    <path class="filslev1" d="M969 172c-110,35 -307,22 -404,-26 43,91 104,170 191,227 1,-1 2,-2 4,-3 68,-48 146,-121 209,-198z"/>
    <path class="filslev2" d="M761 400c-4,2 -9,2 -13,0 -133,-84 -208,-215 -253,-363 -52,47 -43,57 -12,146 52,148 136,239 265,319 11,8 11,7 23,0 2,-1 5,-2 8,-4 107,-59 329,-289 349,-391 -7,-14 -33,-42 -47,-51l-2 1c-68,130 -184,252 -303,334 -3,2 -12,7 -15,9z"/>
    <path class="filslev2" d="M563 115c92,59 351,70 443,8 13,-17 24,-35 35,-52 -58,18 -120,27 -180,31 -129,11 -232,0 -340,-69 7,22 15,44 23,65 4,9 10,11 19,17z"/>
   </g>
   <path class="filslev2" d="M1351 1054l0 1c2,1 3,3 3,6 0,2 -1,5 -2,7 -1,5 -1,11 -1,18 2,1 3,3 3,6 0,3 -1,6 -3,8 -1,5 -1,11 -1,17 3,1 4,3 4,6 0,4 -2,7 -5,10l0 15c3,0 5,3 5,7 0,4 -3,8 -6,10l-1 14c4,0 7,3 7,7 0,5 -3,10 -8,11l-1 14c5,-1 9,1 9,7 0,5 -4,10 -10,11l0 14c4,-2 10,0 10,6 0,6 -6,12 -11,11l-1 16c1,-1 0,-1 3,-2 4,-1 9,1 9,6 0,5 -5,11 -9,11 -3,1 -3,1 -4,0l-1 18c1,-2 2,-3 5,-4 4,-1 9,2 9,7 0,5 -5,10 -9,11 -3,1 -4,0 -6,-1l-1 22c1,-4 3,-6 7,-7 5,-1 9,1 9,6 0,5 -4,10 -9,11 -4,1 -7,0 -8,-3 -3,57 -7,113 -10,154 1,2 1,4 0,5l-1 24c3,3 2,9 -1,12l-1 18c1,0 3,2 3,3 4,-9 7,-18 11,-27 -3,-3 -1,-9 2,-12 1,-1 2,-1 3,-2 2,-6 4,-11 6,-17 -3,3 -8,4 -11,0 -3,-4 -1,-9 2,-12 2,-2 4,-3 5,-3 4,-1 7,0 9,3l1 -3c3,-11 7,-30 11,-53 -4,-4 -3,-10 0,-13 1,-1 1,-2 2,-2 1,-5 2,-11 3,-16 -6,1 -9,-4 -8,-9 2,-4 5,-8 10,-9 1,-5 1,-10 2,-15 -1,1 -2,1 -3,2 -5,1 -9,-2 -9,-7 0,-5 6,-10 9,-11 3,-1 4,0 5,0 1,-7 2,-14 3,-21 -2,4 -5,6 -8,7 -5,1 -9,-1 -9,-6 0,-5 4,-10 9,-11 5,-2 8,0 9,4 3,-30 7,-61 11,-90 -2,-1 -2,-2 -2,-5 0,-2 1,-5 3,-8 1,-5 2,-11 2,-16 -3,-1 -5,-3 -5,-7 0,-4 3,-9 8,-11 0,-5 1,-10 2,-14 -5,2 -10,-1 -10,-6 0,-6 6,-13 12,-12 2,-7 3,-13 4,-19 -2,3 -4,5 -7,6 -4,1 -9,-2 -9,-7 0,-5 4,-10 9,-11 4,-1 7,1 8,5 1,-2 1,-3 1,-5 3,-10 5,-23 7,-36 -2,-12 -3,-22 -4,-29 -2,-32 3,-72 8,-114 -2,-1 -3,-2 -3,-5 0,-3 2,-7 5,-9l2 -16c-4,0 -7,-3 -7,-7 0,-5 4,-10 9,-11 1,-5 2,-10 2,-14 0,0 1,0 -2,0 -3,1 -9,-1 -9,-6 0,-5 4,-10 9,-11 6,-2 10,2 9,8 4,6 8,12 8,18 -1,10 0,17 2,25l0 -2c0,-3 1,-6 1,-8 -1,-2 -2,-3 -2,-6 0,-3 2,-7 5,-9 1,-5 3,-11 5,-16 -5,2 -10,-1 -10,-6 0,-6 6,-12 11,-12 1,-6 2,-12 4,-17 -2,2 -3,3 -6,4 -4,1 -9,-2 -9,-7 0,-4 4,-10 9,-11 4,-1 8,1 8,5 1,-4 3,-7 4,-11 -10,-5 -21,-8 -31,-7 -2,3 -5,6 -8,7 -3,0 -6,-1 -7,-3 -14,6 -27,18 -37,36 0,4 -3,9 -6,11 -3,5 -5,11 -8,18 2,-2 2,-2 5,-3 3,-1 9,2 9,6 0,5 -5,10 -9,12 -4,1 -7,-1 -8,-4 -5,16 -9,36 -11,58 3,3 1,8 -1,11 -1,6 -1,12 -1,19 2,1 3,3 3,6 0,3 -1,6 -4,8 0,6 0,11 0,17 3,1 4,3 4,6 0,3 -1,6 -3,8 0,6 0,11 0,17zm-29 525l0 0m77 277c4,-1 8,2 8,7 0,5 -4,9 -8,11 -5,1 -9,-2 -9,-7 0,-4 4,-9 9,-11zm0 -31c4,-1 8,1 8,6 0,5 -4,10 -8,11 -5,2 -9,-1 -9,-6 0,-5 4,-10 9,-11zm0 -32c4,-1 8,2 8,7 0,5 -4,10 -8,11 -5,1 -9,-2 -9,-6 0,-5 4,-10 9,-12zm3 -251c3,0 5,2 5,5 2,7 -6,15 -13,13 -2,-1 -3,-3 -4,-5 -2,-6 5,-14 12,-13zm-3 -31c6,-2 10,4 8,10 -2,3 -5,6 -8,7 -5,2 -9,-1 -9,-6 0,-5 4,-10 9,-11zm0 -32c3,-1 7,1 8,4 2,7 -5,15 -12,14 -5,-1 -6,-6 -5,-10 2,-4 5,-7 9,-8zm0 -62c4,-2 8,1 8,6 0,5 -4,10 -8,11 -7,2 -11,-4 -9,-10 2,-3 5,-6 9,-7zm-27 760c5,-1 9,2 9,7 0,5 -4,10 -9,11 -5,1 -9,-2 -9,-7 0,-4 4,-9 9,-11zm0 -31c5,-1 9,1 9,6 0,5 -4,10 -9,11 -5,2 -9,-1 -9,-6 0,-5 4,-10 9,-11zm0 -31c5,-2 9,1 9,6 0,5 -4,10 -9,11 -5,1 -9,-1 -9,-6 0,-5 4,-10 9,-11zm0 -32c5,-1 9,2 9,7 0,4 -4,9 -9,11 -5,1 -9,-2 -9,-7 0,-5 4,-10 9,-11zm0 -31c5,-2 9,1 9,6 0,5 -4,10 -9,11 -5,2 -9,-1 -9,-6 0,-5 4,-10 9,-11zm0 -32c5,-1 9,2 9,7 0,5 -4,10 -9,11 -5,1 -9,-2 -9,-7 0,-4 4,-9 9,-11zm0 -94c5,-1 9,2 9,7 0,4 -4,9 -9,11 -5,1 -9,-2 -9,-7 0,-5 4,-10 9,-11zm0 -31c5,-2 9,1 9,6 0,5 -4,10 -9,11 -5,2 -9,-1 -9,-6 0,-5 4,-10 9,-11zm0 -32c5,-1 9,2 9,7 0,5 -4,10 -9,11 -5,1 -9,-2 -9,-7 0,-4 4,-9 9,-11zm0 -31c5,-1 9,2 9,6 0,5 -4,10 -9,12 -5,1 -9,-2 -9,-7 0,-5 4,-10 9,-11zm0 -126c4,-1 8,1 9,5 1,7 -5,13 -11,13 -3,0 -6,-2 -7,-5 0,-6 4,-11 9,-13zm0 -31c6,-2 10,3 9,8 -1,6 -7,11 -13,10 -2,-1 -4,-3 -5,-5 -1,-6 4,-12 9,-13zm4 -32c3,1 5,4 5,7 0,5 -4,10 -9,11 -4,1 -7,0 -8,-4 -2,-7 5,-15 12,-14zm4 -28c2,3 0,9 -3,12 -3,3 -8,5 -12,1 -3,-3 -2,-8 1,-12 3,-3 9,-6 13,-2 0,0 0,0 1,1zm-4 -34c1,0 3,1 4,2 4,7 -5,18 -12,15 -5,-1 -6,-7 -3,-11 2,-4 6,-7 11,-6zm0 -32c1,0 3,2 4,3 4,7 -5,18 -13,15 -2,-1 -3,-2 -3,-4 -3,-7 5,-15 12,-14zm-4 -31c6,-2 10,4 8,10 -1,3 -4,7 -8,8 -5,1 -9,-2 -9,-7 0,-5 4,-10 9,-11zm-27 666c5,-1 9,2 9,7 0,5 -4,10 -9,11 -4,1 -8,-2 -8,-6 0,-5 4,-10 8,-12zm0 -31c5,-1 9,2 9,6 0,5 -4,10 -9,12 -4,1 -8,-2 -8,-7 0,-5 4,-10 8,-11zm0 -31c5,-2 9,1 9,6 0,5 -4,10 -9,11 -4,2 -8,-1 -8,-6 0,-5 4,-10 8,-11zm0 -32c5,-1 9,2 9,7 0,5 -4,10 -9,11 -4,1 -8,-2 -8,-7 0,-4 4,-9 8,-11zm0 -31c5,-1 9,1 9,6 0,5 -4,10 -9,11 -4,2 -8,-1 -8,-6 0,-5 4,-10 8,-11zm0 -94c5,-2 9,1 9,6 0,5 -4,10 -9,11 -4,2 -8,-1 -8,-6 0,-5 4,-10 8,-11zm0 -32c5,-1 9,2 9,7 0,5 -4,10 -9,11 -4,1 -8,-2 -8,-7 0,-4 4,-9 8,-11zm0 -31c5,-1 9,1 9,6 0,5 -4,10 -9,11 -4,2 -8,-1 -8,-6 0,-5 4,-10 8,-11zm0 -157c5,-1 9,1 9,6 0,5 -4,10 -9,11 -4,2 -8,-1 -8,-6 0,-5 4,-10 8,-11zm0 -32c5,-1 8,1 9,6 1,6 -5,12 -11,12 -3,0 -6,-2 -6,-5 -1,-6 3,-11 8,-13zm0 -31c7,-2 10,3 9,8 -1,6 -6,11 -12,10 -3,-1 -5,-2 -5,-5 -1,-5 3,-12 8,-13zm4 -32c3,1 5,4 5,7 0,5 -4,10 -9,11 -3,1 -7,0 -8,-4 -2,-7 5,-15 12,-14zm4 -28c3,4 1,9 -2,12 -3,3 -9,5 -12,1 -4,-3 -2,-8 0,-11 3,-4 10,-7 14,-3 0,0 0,1 0,1zm-8 -191c5,-1 9,1 9,6 0,5 -4,10 -9,11 -6,2 -10,-3 -8,-9 2,-4 5,-7 8,-8zm-26 572c5,-1 9,2 9,7 0,4 -4,9 -9,11 -5,1 -9,-2 -9,-7 0,-5 4,-10 9,-11zm0 -31c5,-2 9,1 9,6 0,5 -4,10 -9,11 -5,2 -9,-1 -9,-6 0,-5 4,-10 9,-11zm0 -32c5,-1 9,2 9,7 0,5 -4,10 -9,11 -5,1 -9,-2 -9,-6 0,-5 4,-10 9,-12zm80 -555c3,-1 7,1 8,4 2,7 -5,15 -12,14 -5,-1 -6,-6 -5,-10 2,-4 5,-7 9,-8zm-54 14c4,0 7,1 9,4 2,7 -5,15 -12,14 -5,-1 -6,-6 -5,-10 2,-4 5,-7 8,-8zm80 -555c5,-1 9,2 9,7 0,5 -4,10 -9,11 -5,1 -9,-2 -9,-6 0,-5 4,-10 9,-12zm-26 604c7,-2 10,5 7,11 -2,4 -6,8 -11,7 -3,-1 -5,-3 -5,-6 0,-6 4,-11 9,-12zm0 -94c4,-1 8,1 8,6 0,5 -4,10 -8,11 -5,2 -9,-1 -9,-6 0,-5 4,-10 9,-11zm0 -251c4,-2 8,1 8,6 0,5 -4,10 -8,11 -5,2 -9,-1 -9,-6 0,-5 4,-10 9,-11zm0 -32c4,-1 8,2 8,7 0,5 -4,10 -8,11 -5,1 -9,-2 -9,-7 0,-4 4,-9 9,-11zm0 -31c4,-1 8,1 8,6 0,5 -4,10 -8,11 -5,2 -9,-1 -9,-6 0,-5 4,-10 9,-11zm0 -32c4,-1 8,2 8,7 0,5 -4,10 -8,11 -5,1 -9,-2 -9,-6 0,-5 4,-10 9,-12zm0 -31c4,-1 8,2 8,7 0,4 -4,9 -8,11 -5,1 -9,-2 -9,-7 0,-5 4,-10 9,-11zm0 -31c4,-2 8,1 8,6 0,5 -4,10 -8,11 -5,2 -9,-1 -9,-6 0,-5 4,-10 9,-11zm0 -32c4,-1 8,2 8,7 0,5 -4,10 -8,11 -5,1 -9,-2 -9,-7 0,-4 4,-9 9,-11zm0 -31c4,-1 8,1 8,6 0,5 -4,10 -8,11 -5,2 -9,-1 -9,-6 0,-5 4,-10 9,-11zm0 -32c4,-1 8,2 8,7 0,5 -4,10 -8,11 -5,1 -9,-2 -9,-6 0,-5 4,-10 9,-12zm-27 447c5,-1 9,2 9,7 0,4 -4,9 -9,11 -5,1 -9,-2 -9,-7 0,-5 4,-10 9,-11zm0 -31c5,-2 9,1 9,6 0,5 -4,10 -9,11 -5,2 -9,-1 -9,-6 0,-5 4,-10 9,-11zm0 -32c5,-1 9,2 9,7 0,5 -4,10 -9,11 -5,1 -9,-2 -9,-6 0,-5 4,-10 9,-12zm0 -31c5,-1 9,2 9,6 0,5 -4,10 -9,12 -5,1 -9,-2 -9,-7 0,-5 4,-10 9,-11zm0 -31c5,-2 9,1 9,6 0,5 -4,10 -9,11 -5,1 -9,-1 -9,-6 0,-5 4,-10 9,-11zm0 -32c5,-1 9,2 9,7 0,4 -4,9 -9,11 -5,1 -9,-2 -9,-7 0,-5 4,-10 9,-11zm0 -31c5,-2 9,1 9,6 0,5 -4,10 -9,11 -5,2 -9,-1 -9,-6 0,-5 4,-10 9,-11zm0 -32c5,-1 9,2 9,7 0,5 -4,10 -9,11 -5,1 -9,-2 -9,-6 0,-5 4,-10 9,-12zm0 -31c5,-1 9,2 9,6 0,5 -4,10 -9,12 -5,1 -9,-2 -9,-7 0,-5 4,-10 9,-11zm0 -31c5,-2 9,1 9,6 0,5 -4,10 -9,11 -5,1 -9,-1 -9,-6 0,-5 4,-10 9,-11zm0 -32c5,-1 9,2 9,7 0,4 -4,9 -9,11 -5,1 -9,-2 -9,-7 0,-5 4,-10 9,-11zm0 -31c5,-2 9,1 9,6 0,5 -4,10 -9,11 -5,2 -9,-1 -9,-6 0,-5 4,-10 9,-11zm0 -32c5,-1 9,2 9,7 0,5 -4,10 -9,11 -5,1 -9,-2 -9,-6 0,-5 4,-10 9,-12zm-27 541c7,-1 11,4 8,11 -1,4 -6,8 -11,7 -3,-1 -5,-3 -5,-6 -1,-5 3,-10 8,-12zm0 -94c5,-1 9,2 9,7 0,4 -4,9 -9,11 -4,1 -8,-2 -8,-7 0,-5 4,-10 8,-11zm-18 866l11 -2c-1,-2 -1,-2 -1,-5 0,-3 4,-10 8,-11 5,-1 9,3 9,6 0,4 -1,5 -2,7l14 -3c-2,-2 -3,-2 -3,-6 0,-4 4,-10 9,-11 5,-2 9,2 9,6 0,4 -2,6 -4,8 8,-1 14,-3 18,-4 -3,0 -5,-3 -5,-6 0,-6 6,-12 12,-12 0,-5 1,-10 1,-16 -1,1 -1,2 -4,3 -4,1 -9,-2 -9,-7 0,-5 5,-10 9,-11 3,-1 3,0 5,0 0,-5 0,-11 0,-16 -2,1 -2,1 -5,2 -4,1 -9,-1 -9,-6 0,-5 5,-10 9,-11 3,-1 3,-1 4,0 0,-5 -1,-10 -1,-16 -1,1 0,1 -3,2 -4,1 -9,-2 -9,-6 0,-6 5,-12 11,-12 -1,-5 -1,-9 -2,-14 -4,2 -9,0 -9,-6 0,-4 3,-9 7,-11 0,-4 -1,-9 -2,-14 -3,0 -5,-3 -5,-6 0,-3 1,-6 3,-8 -4,-20 -8,-38 -12,-52 0,5 -6,10 -9,11 -3,0 -4,0 -6,-1 -5,6 -12,13 -19,21 4,0 7,2 7,7 0,4 -4,10 -9,11 -4,1 -8,-2 -8,-7 -8,8 -16,17 -24,26l1 5c1,-2 2,-2 5,-3 3,-1 9,2 9,6 0,6 -6,12 -12,12 1,4 1,9 2,14 5,-2 10,0 10,6 0,5 -4,9 -9,11 1,4 1,9 1,13 4,0 8,3 8,7 0,4 -3,8 -7,10 0,5 0,10 0,15 4,0 7,3 7,7 0,4 -3,8 -7,10 0,5 0,10 -1,14 5,0 8,3 8,7 0,5 -5,10 -10,11 0,2 0,4 -1,6 1,3 2,5 3,8 4,-1 8,3 8,6 0,3 -1,4 -1,5zm-17 -192l2 -3c1,-1 2,-2 3,-2 8,-9 16,-17 23,-25 -1,-2 -1,-2 -1,-5 0,-3 5,-10 8,-11 4,-1 4,0 5,0 4,-6 9,-14 14,-23 0,-1 -1,-3 -1,-4 0,-5 4,-10 9,-12 8,-15 16,-33 23,-52 -3,0 -5,-3 -5,-6 0,-6 5,-12 11,-12 7,-19 12,-38 16,-56 -1,-3 0,-5 1,-7 1,-7 1,-14 2,-21 -2,-1 -4,-3 -4,-6 0,-2 2,-5 4,-7 -1,-14 -5,-25 -12,-33 -1,1 -3,2 -6,5 3,0 5,2 5,6 0,5 -4,11 -8,12 -4,1 -6,0 -8,-2 -4,7 -9,15 -13,23 2,1 3,3 3,6 0,6 -6,12 -12,11 -6,13 -11,24 -15,31l0 0c-1,1 -1,2 -2,3 -5,8 -9,15 -13,23 2,-2 4,-4 6,-5 5,-1 9,2 9,7 0,5 -4,10 -9,11 -4,1 -8,-3 -8,-6 0,-3 0,-3 0,-4 -5,11 -11,21 -17,31 5,-1 8,2 8,6 0,5 -5,10 -9,12 -4,1 -6,0 -7,-2 -4,7 -9,14 -13,22l0 2c1,1 2,2 2,5 0,2 -1,6 -3,8 0,6 0,11 0,17 2,1 3,3 3,6 0,3 -1,6 -3,8 4,13 8,30 12,49zm18 -182c6,-11 12,-23 18,-35 -5,2 -9,-1 -9,-6 0,-5 4,-10 8,-11 5,-1 7,0 8,2 4,-8 8,-17 11,-26 0,-1 -1,-1 -1,-4 0,-2 2,-7 5,-9 2,-5 4,-11 5,-16 -5,2 -10,0 -10,-6 0,-5 6,-10 9,-11 3,-1 4,-1 6,0 4,-18 8,-37 12,-57 -1,-3 0,-5 1,-7 1,-7 2,-13 3,-20 -3,-1 -4,-3 -4,-6 0,-5 3,-9 7,-11 1,-5 2,-10 2,-15 -8,3 -12,-4 -8,-11 3,-4 6,-7 11,-6 0,-6 1,-11 2,-17 -3,3 -8,5 -12,2 -4,-3 -2,-8 0,-12 2,-2 4,-4 6,-4 3,-1 5,-1 7,1 6,-50 10,-102 12,-151 -1,-3 -1,-5 0,-7 0,-8 1,-15 1,-23 -3,-3 -2,-8 0,-11 1,-7 1,-13 1,-20 -4,-3 -3,-9 0,-12 0,-6 0,-13 0,-19 -2,-1 -3,-3 -3,-6 0,-2 1,-5 3,-7 0,-6 0,-12 0,-18 -4,-3 -3,-9 0,-13 0,-6 -1,-13 -1,-19 -3,-3 -2,-7 0,-11 -1,-13 -2,-25 -3,-36 -3,2 -7,16 -12,38 3,1 4,2 4,6 0,4 -3,9 -7,11 -1,4 -2,9 -3,14 5,-2 10,1 10,6 0,5 -5,11 -8,12 -4,0 -3,0 -5,0 -1,6 -2,13 -3,19 2,-3 4,-4 8,-6 3,-1 8,2 8,7 0,5 -4,10 -8,11 -5,1 -8,-1 -9,-4 -4,28 -9,59 -13,88 5,2 4,8 2,11 -1,2 -2,4 -4,5l-2 15c6,-1 9,5 7,10 -1,4 -5,8 -10,8l-2 15c4,-2 8,-3 11,0 4,5 1,11 -2,14 -3,2 -8,4 -11,1 -4,27 -8,47 -10,53l-2 5c1,4 -1,8 -4,10 -2,6 -4,12 -6,18 7,-4 13,3 9,10 -2,5 -8,8 -12,6 -2,0 -2,-1 -3,-2 -4,10 -7,19 -10,28 0,4 -1,7 -4,10l-6 17c5,-2 10,0 10,6 0,5 -4,10 -9,11 -3,1 -5,1 -7,-1l-4 12c1,4 2,7 3,11 1,-4 4,-7 8,-8 5,-1 9,3 9,8 -1,2 -2,5 -4,7 -3,2 -7,4 -11,2 1,5 2,10 3,16 6,-4 12,-1 12,5 -1,5 -5,10 -10,11 1,5 1,9 2,14 4,-1 8,2 8,6 5,7 8,16 9,27 1,-4 4,-8 8,-9 5,-1 9,2 9,7 0,5 -4,10 -9,11 -4,1 -6,0 -8,-3 2,20 -2,44 -9,69z"/>
   <path class="filslev2" d="M198 1069c0,3 -1,5 -1,8 3,12 7,23 10,35 -1,1 -2,2 -2,5 0,3 3,9 7,11 2,4 3,9 3,15 -5,-2 -10,0 -10,6 0,5 5,11 11,11 0,4 0,9 -1,14 -4,-2 -10,0 -10,6 0,5 4,10 9,11 -1,4 -1,9 -2,14 -4,0 -7,3 -7,6 0,4 2,7 5,9 -1,6 -3,13 -4,19 -1,2 -1,3 -1,5 -3,17 -6,35 -10,54 -1,-3 -3,-5 -7,-6 -4,-1 -9,2 -9,6 0,5 5,11 9,12 3,1 4,0 5,-1 -1,5 -2,10 -3,16 0,-1 -1,-1 -2,-2 -5,-1 -9,2 -9,7 0,5 4,10 9,11 -1,4 -2,9 -3,14 -3,-1 -6,3 -6,6 0,4 2,7 4,9 -1,6 -2,12 -2,18 -3,2 -3,6 -1,8 -8,59 -11,121 -1,183 -1,3 0,5 1,7 1,7 2,13 4,20 -6,1 -6,7 -4,12 2,2 4,5 8,6 0,4 0,9 0,14 -5,-2 -9,1 -9,6 0,4 3,8 6,10 -4,15 -11,29 -16,47 -1,-4 -4,-7 -8,-8 -6,-1 -9,2 -9,7 1,4 2,6 4,8 3,3 8,4 11,2 -1,5 -2,10 -2,16 -7,-4 -14,-1 -13,7 2,5 7,10 12,9 0,5 0,10 1,16 -2,-1 -1,-1 -4,-2 -3,-1 -9,1 -9,6 0,5 6,11 9,11 4,1 4,1 6,0 2,16 7,33 14,54 -1,1 -2,2 -2,5 0,4 3,9 8,11 1,5 3,11 3,15 0,0 -1,-1 -2,-1 -5,-1 -9,2 -9,7 0,4 5,10 9,11 3,1 3,0 4,0 1,5 0,11 0,16 -1,-1 -1,-2 -4,-2 -4,-1 -9,1 -9,6 0,6 5,11 10,11 -1,5 -2,9 -3,14 -4,-1 -7,3 -7,6 0,4 1,6 3,8 -2,4 -3,7 -4,11 -4,19 -1,28 3,39 -2,2 -2,2 -2,5 0,3 2,8 6,10 1,5 2,10 2,15 -4,-1 -8,2 -8,7 0,5 5,10 10,11 0,5 1,9 1,14 -1,0 0,0 -2,0 -3,-1 -9,1 -9,6 0,6 6,12 11,11 1,5 1,10 1,16 -1,-1 0,-1 -3,-2 -3,-1 -9,2 -9,6 0,6 6,13 12,12l1 16c-1,-1 -1,-2 -4,-3 -4,0 -9,2 -9,7 0,5 5,10 9,11 3,1 3,0 4,0 1,6 1,11 1,17 -2,-2 -2,-2 -5,-3 -4,-1 -9,1 -9,6 0,5 5,10 9,11 3,1 4,1 5,0 1,6 1,13 1,19 -1,-2 -3,-4 -6,-5 -4,-1 -9,2 -9,7 0,4 5,10 9,11 3,1 5,0 7,-2 0,9 1,17 1,26 0,-5 -4,-9 -8,-10 -5,-2 -9,1 -9,6 0,5 4,10 9,11 4,1 8,-1 8,-7 2,26 5,50 10,68 0,0 0,1 0,1 2,9 5,16 8,22 -5,-1 -9,2 -9,7 -4,0 -7,0 -9,0 2,-6 -3,-13 -8,-14 -5,-2 -9,3 -9,6 0,3 0,3 1,5 -3,-1 -6,-2 -12,-3 1,-1 2,-2 2,-4 0,-6 -6,-12 -12,-12 -2,-6 -4,-13 -5,-21 1,4 4,7 8,8 4,1 9,-2 9,-7 0,-4 -4,-9 -9,-11 -5,-1 -9,2 -9,6 -5,-33 -8,-80 -9,-125 1,-2 0,-4 0,-6 -1,-8 -1,-16 -1,-23 2,-3 1,-7 0,-10 -1,-7 -1,-14 -1,-21 4,-3 2,-9 0,-12 -1,-6 -1,-13 -1,-18 2,-2 3,-4 3,-7 0,-2 -1,-6 -4,-8 0,-6 -1,-11 -1,-16 3,-1 5,-3 5,-7 0,-4 -3,-9 -8,-11 -1,-6 -3,-11 -5,-16 2,1 3,2 4,2 5,1 9,-1 9,-6 0,-5 -4,-10 -9,-11 -4,-2 -6,0 -7,2 -1,-6 -1,-13 1,-22 1,3 3,5 6,6 4,1 9,-2 9,-7 0,-6 -6,-12 -12,-11 1,-4 2,-9 4,-14 5,2 8,-2 8,-6 0,-4 -1,-7 -4,-9 1,-6 2,-12 3,-18 2,-3 2,-6 1,-8 0,-7 -1,-15 -2,-22 1,-2 2,-3 2,-6 0,-3 -2,-8 -6,-10 -2,-6 -4,-11 -6,-16 1,0 0,0 3,1 3,1 9,-1 9,-6 0,-5 -4,-10 -9,-11 -4,-2 -6,0 -7,2 -7,-22 -11,-40 -12,-56 3,-3 2,-9 -1,-12 0,-7 0,-14 1,-19 2,-3 2,-7 1,-10 3,-19 9,-33 14,-47 4,3 9,4 12,0 3,-4 1,-10 -3,-13 -1,-1 -2,-2 -4,-2 1,-5 2,-9 3,-14 3,0 5,-3 5,-7 0,-3 -2,-7 -5,-9 -1,-4 -1,-7 -2,-10 0,-2 -1,-4 -1,-6 4,1 7,0 8,-4 1,-7 -5,-14 -11,-13 -1,-6 -2,-11 -3,-17 3,3 9,5 12,1 4,-3 2,-9 -1,-12 -3,-3 -8,-6 -12,-2 -1,-8 -1,-16 -2,-24 1,3 3,5 5,7 6,5 14,1 12,-7 -1,-5 -7,-10 -12,-9 -3,0 -4,2 -5,5 -2,-38 -2,-80 0,-122 1,3 3,6 5,7 9,6 16,-2 10,-11 -2,-3 -8,-6 -12,-4 -1,1 -2,2 -3,3 1,-8 1,-15 1,-23 2,3 5,5 7,6 5,1 9,-2 9,-7 0,-5 -5,-10 -9,-11 -3,-1 -4,0 -6,1 1,-6 1,-12 1,-18 2,2 4,3 5,3 5,1 9,-1 9,-6 0,-6 -6,-13 -12,-12 0,-4 1,-9 1,-14 1,0 2,1 2,1 5,1 9,-2 9,-7 0,-5 -4,-10 -9,-11 0,-4 1,-9 2,-13 4,0 7,-3 7,-7 0,-4 -2,-8 -5,-10 1,-5 1,-10 2,-16 4,-2 4,-7 2,-10 2,-11 4,-21 6,-29 3,-9 4,-14 7,-20 2,2 2,3 6,4 4,1 9,-1 9,-6 0,-6 -5,-12 -11,-12l1 -14c5,3 10,0 10,-6 0,-5 -5,-10 -10,-11l1 -13c5,1 9,-2 9,-7 0,-5 -4,-9 -8,-11l0 -1c-1,-5 -3,-10 -4,-14 1,0 0,0 3,1 3,1 9,-1 9,-6 0,-5 -5,-10 -9,-11 -4,-2 -6,0 -8,2 -2,-7 -4,-15 -6,-22 0,-3 1,-5 1,-8 1,-26 -1,-58 -5,-91 1,-3 0,-6 -1,-8 -1,-7 -2,-13 -3,-20 3,-1 4,-3 4,-6 0,-4 -2,-8 -6,-10l-2 -15c5,1 8,-2 8,-7 0,-5 -5,-11 -10,-11 -1,-5 -2,-10 -2,-16 1,1 2,2 3,2 5,2 9,-1 9,-6 0,-5 -5,-10 -9,-11 -3,-1 -3,-1 -5,0 -1,-7 -1,-13 -2,-20 2,3 4,5 7,6 4,1 9,-2 9,-7 0,-4 -4,-10 -9,-11 -4,-1 -6,1 -7,3l-1 -3c-4,-8 -15,-22 -20,-20l-14 5c-1,2 -3,4 -4,6 -1,-2 -3,-4 -7,-5 0,0 -1,0 -2,0 -1,-2 -1,-3 -2,-4 -1,-3 -1,-5 -2,-8 -2,-11 -6,-22 -11,-32 5,-1 9,-3 13,-4 1,1 1,2 4,3 4,1 9,-2 9,-6 4,-1 7,-1 10,-2 -1,1 -1,1 -1,4 0,3 4,10 9,11 5,1 9,-2 9,-7 0,-4 -2,-7 -6,-9 22,-2 39,3 51,13 -4,-2 -10,0 -10,6 0,5 4,10 9,11 5,1 9,-3 9,-6 0,-4 -1,-4 -2,-6 9,8 16,20 21,33 -5,-1 -10,1 -10,7 0,4 5,10 9,11 3,1 4,0 6,-1 14,54 9,136 4,231zm-112 -227l0 0m48 938c-4,-1 -8,2 -8,7 0,4 4,9 8,11 5,1 9,-2 9,-7 0,-5 -4,-10 -9,-11zm0 -31c-4,-2 -8,1 -8,6 0,5 4,10 8,11 5,2 9,-1 9,-6 0,-5 -4,-10 -9,-11zm0 -32c-4,-1 -8,1 -8,5 -1,7 4,13 10,13 4,0 7,-2 7,-5 1,-6 -3,-11 -9,-13zm0 -31c-6,-2 -9,3 -8,8 1,6 6,11 12,10 3,-1 4,-3 5,-5 1,-6 -3,-12 -9,-13zm0 -188c-5,-2 -9,2 -8,8 1,5 6,10 12,9 5,-1 6,-6 5,-10 -2,-3 -5,-6 -9,-7zm0 -63c-4,-2 -8,1 -8,6 0,5 4,10 8,11 5,2 9,-1 9,-6 0,-5 -4,-10 -9,-11zm27 792c-5,-1 -9,1 -9,6 0,5 4,10 9,11 5,2 9,-1 9,-6 0,-5 -4,-10 -9,-11zm0 -32c-5,-1 -9,2 -9,7 0,5 4,10 9,11 5,1 9,-2 9,-6 0,-5 -4,-10 -9,-12zm0 -31c-5,-1 -9,2 -9,6 0,5 4,10 9,12 5,1 9,-2 9,-7 0,-5 -4,-10 -9,-11zm0 -31c-5,-2 -9,1 -9,6 0,5 4,10 9,11 5,2 9,-1 9,-6 0,-5 -4,-10 -9,-11zm0 -32c-5,-1 -9,2 -9,7 0,5 4,10 9,11 5,1 9,-2 9,-7 0,-4 -4,-9 -9,-11zm0 -31c-5,-1 -9,1 -9,6 0,5 4,10 9,11 5,2 9,-1 9,-6 0,-5 -4,-10 -9,-11zm0 -32c-5,-1 -9,2 -9,7 0,5 4,10 9,11 5,1 9,-2 9,-6 0,-5 -4,-10 -9,-12zm0 -31c-5,-1 -9,2 -9,7 0,4 4,9 9,11 5,1 9,-2 9,-7 0,-5 -4,-10 -9,-11zm0 -31c-5,-2 -9,1 -9,6 0,5 4,10 9,11 5,2 9,-1 9,-6 0,-5 -4,-10 -9,-11zm0 -32c-5,-1 -9,2 -9,7 0,5 4,10 9,11 5,1 9,-2 9,-7 0,-4 -4,-9 -9,-11zm0 -31c-5,-1 -9,1 -9,6 0,5 4,10 9,11 5,2 9,-1 9,-6 0,-5 -4,-10 -9,-11zm0 -32c-5,-1 -9,2 -9,7 0,5 4,10 9,11 5,1 9,-2 9,-6 0,-5 -4,-10 -9,-12zm0 -31c-5,-1 -9,2 -9,7 0,4 4,9 9,11 5,1 9,-2 9,-7 0,-5 -4,-10 -9,-11zm0 -31c-5,-2 -9,1 -9,6 0,5 4,10 9,11 5,2 9,-1 9,-6 0,-5 -4,-10 -9,-11zm0 -32c-5,-1 -9,2 -9,7 0,5 4,10 9,11 5,1 9,-2 9,-7 0,-4 -4,-9 -9,-11zm-4 -125c-3,0 -5,3 -5,6 0,5 4,10 9,11 4,1 8,0 9,-4 1,-7 -6,-15 -13,-13zm-4 -29c-2,4 0,9 3,12 3,3 8,5 12,1 3,-3 2,-8 -1,-11 -3,-4 -9,-7 -13,-3 0,0 0,1 -1,1zm4 -34c-1,0 -3,1 -4,3 -4,6 5,17 12,14 6,-1 6,-7 3,-11 -2,-4 -6,-7 -11,-6zm0 -32c-1,1 -3,2 -4,3 -4,7 5,18 13,15 2,-1 3,-2 4,-4 1,-7 -6,-15 -13,-14zm4 -31c-5,-1 -9,2 -9,7 0,5 4,9 9,11 5,1 9,-2 9,-7 0,-5 -4,-10 -9,-11zm0 -31c-3,-1 -7,0 -8,3 -3,7 5,16 12,14 5,0 6,-6 4,-10 -1,-3 -4,-6 -8,-7zm0 -63c-5,-1 -9,2 -9,6 0,5 4,10 9,11 7,2 10,-3 8,-9 -1,-4 -4,-7 -8,-8zm27 823c-5,-1 -9,2 -9,7 0,5 4,10 9,11 4,1 8,-2 8,-6 0,-5 -4,-10 -8,-12zm0 -31c-5,-1 -9,2 -9,6 0,5 4,10 9,12 4,1 8,-2 8,-7 0,-5 -4,-10 -8,-11zm-27 -823c-3,-1 -7,0 -8,3 -3,7 5,16 12,14 5,-1 6,-6 4,-10 -1,-3 -4,-6 -8,-7zm-80 -618c-4,-2 -8,1 -8,6 0,5 4,10 8,11 5,1 9,-1 9,-6 0,-5 -4,-10 -9,-11zm27 7c-5,-2 -9,1 -9,6 0,5 4,10 9,11 5,2 9,-1 9,-6 0,-5 -4,-10 -9,-11zm26 666c-6,-2 -10,4 -8,10 2,5 7,9 12,8 3,-1 5,-3 5,-6 0,-5 -4,-10 -9,-12zm0 -659c-4,-1 -8,1 -8,6 0,5 4,10 8,11 5,2 9,-1 9,-6 0,-5 -4,-10 -9,-11zm0 -32c-4,-1 -8,2 -8,7 0,5 4,10 8,11 5,1 9,-2 9,-6 0,-5 -4,-10 -9,-12zm27 698c-7,-1 -10,4 -8,11 2,4 7,8 12,7 3,-1 5,-3 5,-6 0,-5 -4,-10 -9,-12zm0 -94c-5,-1 -9,2 -9,7 0,4 4,9 9,11 5,1 9,-2 9,-7 0,-5 -4,-10 -9,-11zm0 -31c-5,-2 -9,1 -9,6 0,5 4,10 9,11 5,2 9,-1 9,-6 0,-5 -4,-10 -9,-11zm0 -32c-5,-1 -9,2 -9,7 0,5 4,10 9,11 5,1 9,-2 9,-7 0,-4 -4,-9 -9,-11zm0 -31c-5,-1 -9,2 -9,6 0,5 4,10 9,12 5,1 9,-2 9,-7 0,-5 -4,-10 -9,-11zm0 -31c-5,-2 -9,1 -9,6 0,5 4,10 9,11 5,1 9,-1 9,-6 0,-5 -4,-10 -9,-11zm0 -32c-5,-1 -9,2 -9,7 0,4 4,9 9,11 5,1 9,-2 9,-7 0,-5 -4,-10 -9,-11zm0 -157c-5,-1 -9,2 -9,7 0,4 4,9 9,11 5,1 9,-2 9,-7 0,-5 -4,-10 -9,-11zm0 -31c-5,-2 -9,1 -9,6 0,5 4,10 9,11 5,2 9,-1 9,-6 0,-5 -4,-10 -9,-11zm0 -32c-5,-1 -9,2 -9,7 0,5 4,10 9,11 5,1 9,-2 9,-7 0,-4 -4,-9 -9,-11zm0 -31c-5,-1 -9,2 -9,6 0,5 4,10 9,12 5,1 9,-2 9,-7 0,-5 -4,-10 -9,-11zm0 -31c-5,-2 -9,1 -9,6 0,5 4,10 9,11 5,1 9,-1 9,-6 0,-5 -4,-10 -9,-11zm0 -32c-5,-1 -9,2 -9,7 0,4 4,9 9,11 5,1 9,-2 9,-7 0,-5 -4,-10 -9,-11zm0 -31c-5,-2 -9,1 -9,6 0,5 4,10 9,11 5,2 9,-1 9,-6 0,-5 -4,-10 -9,-11zm0 -32c-5,-1 -9,2 -9,7 0,5 4,10 9,11 5,1 9,-2 9,-6 0,-5 -4,-10 -9,-12zm0 -31c-5,-1 -9,2 -9,6 0,5 4,10 9,12 5,1 9,-2 9,-7 0,-5 -4,-10 -9,-11zm27 447c-5,-2 -9,1 -9,6 0,5 4,10 9,11 4,2 8,-1 8,-6 0,-5 -4,-10 -8,-11zm0 -32c-5,-1 -9,2 -9,7 0,5 4,10 9,11 4,1 8,-2 8,-7 0,-4 -4,-9 -8,-11zm0 -31c-5,-1 -9,1 -9,6 0,5 4,10 9,11 4,2 8,-1 8,-6 0,-5 -4,-10 -8,-11zm0 -32c-5,-1 -9,2 -9,7 0,5 4,10 9,11 4,1 8,-2 8,-6 0,-5 -4,-10 -8,-12zm0 -31c-5,-1 -9,2 -9,6 0,5 4,10 9,12 4,1 8,-2 8,-7 0,-5 -4,-10 -8,-11zm0 -31c-5,-2 -9,1 -9,6 0,5 4,10 9,11 4,2 8,-1 8,-6 0,-5 -4,-10 -8,-11zm0 -32c-5,-1 -9,2 -9,7 0,5 4,10 9,11 4,1 8,-2 8,-7 0,-4 -4,-9 -8,-11zm0 -31c-5,-1 -9,1 -9,6 0,5 4,10 9,11 4,2 8,-1 8,-6 0,-5 -4,-10 -8,-11zm0 -32c-5,-1 -9,2 -9,7 0,5 4,10 9,11 4,1 8,-2 8,-6 0,-5 -4,-10 -8,-12zm0 -31c-5,-1 -9,2 -9,6 0,5 4,10 9,12 4,1 8,-2 8,-7 0,-5 -4,-10 -8,-11zm0 -31c-5,-2 -9,1 -9,6 0,5 4,10 9,11 4,2 8,-1 8,-6 0,-5 -4,-10 -8,-11zm0 -32c-5,-1 -9,2 -9,7 0,5 4,10 9,11 4,1 8,-2 8,-7 0,-4 -4,-9 -8,-11zm0 -31c-5,-1 -9,1 -9,6 0,5 4,10 9,11 4,2 8,-1 8,-6 0,-5 -4,-10 -8,-11zm0 -32c-5,-1 -9,2 -9,7 0,5 4,10 9,11 4,1 8,-2 8,-6 0,-5 -4,-10 -8,-12z"/>
   <path class="filslev2" d="M524 2c116,81 239,87 377,69 47,-6 133,-20 174,-41 23,-11 81,57 80,77 -1,108 -289,386 -393,429 -6,2 -16,-5 -22,-8 -138,-85 -228,-180 -282,-336 -36,-104 -45,-121 34,-188 1,-1 2,-2 3,-2l0 0 0 0 1 0 0 0 0 0 0 -1 0 0c7,-3 27,0 28,1zm39 113c92,59 351,70 443,8 13,-17 24,-35 35,-52 -58,18 -120,27 -180,31 -129,11 -232,0 -340,-69 7,22 15,44 23,65 4,9 10,11 19,17zm198 285c-4,2 -9,2 -13,0 -133,-84 -208,-215 -253,-363 -52,47 -43,57 -12,146 52,148 136,239 265,319 11,8 11,7 23,0 2,-1 5,-2 8,-4 107,-59 329,-289 349,-391 -7,-14 -33,-42 -47,-51l-2 1c-68,130 -184,252 -303,334 -3,2 -12,7 -15,9zm208 -228c-110,35 -307,22 -404,-26 43,91 104,170 191,227 1,-1 2,-2 4,-3 68,-48 146,-121 209,-198z"/>
   <path class="filslev2" d="M1054 2327l-60 16 -77 24m-213 17c6,-4 12,-7 18,-9 20,-9 100,-25 160,-33 42,-6 99,-23 149,-39m-529 16c-36,-5 -59,-10 -83,-14 -7,-1 -13,-2 -19,-3 63,23 103,39 129,40m458 -62c-19,2 -38,5 -57,9 -93,23 -184,37 -222,37m286 -47l-3 1m26 -1c-9,0 -18,0 -26,1m364 -786c18,-55 39,-303 53,-360 3,-10 5,-23 7,-36 -2,-12 -3,-22 -4,-29 -4,-64 17,-160 21,-231 0,-2 1,-4 1,-6 10,-203 51,-356 79,-551 -4,-2 -8,-4 -12,-6 -104,-47 -314,-77 -374,-138 21,-11 6,-26 20,-48 61,38 275,99 392,159 -1,2 -1,4 -2,7 3,2 5,6 5,11 -34,260 -55,353 -71,617 -3,30 -10,66 -15,103 -1,17 -3,35 -5,54 0,12 0,24 2,35 -7,18 -11,37 -11,56 -8,0 0,80 8,104 17,51 11,81 11,135 0,2 0,5 0,7l0 0 0 34c0,3 0,5 0,8l0 73c-1,4 -2,9 -2,14 -4,13 -5,26 -5,39l0 82c-6,35 -13,62 -13,89 0,15 43,61 5,176 -5,14 -25,60 -25,71 0,34 7,31 11,53 4,18 4,30 7,49 9,59 8,100 2,157 -6,60 -37,34 -115,54 -191,48 -307,143 -528,143l-130 0c-13,-1 -24,-1 -36,-2 -1,1 -3,1 -4,0 -51,-3 -101,-12 -185,-34 -106,-28 -116,-28 -228,-28 -18,0 -49,3 -66,-2 -19,-5 -23,-17 -28,-36 -5,-19 -9,-39 -12,-60 4,-26 1,-52 -8,-76 -1,-22 -1,-44 -1,-65 2,-10 3,-21 3,-32l0 -53 0 0c0,-15 -2,-30 -7,-45 -2,-10 -5,-20 -8,-29 1,-53 15,-45 15,-78 0,-24 -14,-45 -21,-66 -6,-16 -10,-31 -12,-44 1,-6 1,-12 1,-18 0,-5 0,-11 0,-16 17,-106 30,-584 58,-570 0,-5 0,-11 0,-16 -1,2 -2,5 -4,7l0 -5 0 0c0,-14 -1,-28 -5,-42 -1,-17 -5,-34 -10,-49 2,-56 -13,-118 -19,-168 -24,-78 -111,-659 -33,-666 28,-18 56,-26 125,-44 92,-24 171,-54 252,-108 10,15 34,28 14,47 -28,27 -119,59 -157,74 -56,19 -115,34 -174,49 -34,9 -39,13 -49,25 -6,44 -9,91 -10,140 5,-11 13,-16 28,-9 0,6 -1,13 -1,19 -10,118 -11,228 0,338 -9,-47 -16,-97 -20,-147 5,44 12,96 20,150 6,29 41,65 41,78 5,71 26,167 22,231 0,3 -1,5 -1,8 5,17 10,33 15,50 60,187 63,239 63,433l0 0 0 2c0,1 0,2 0,4 -22,-55 -55,-355 -67,-366 -6,7 -7,13 -10,24 -21,80 -34,296 -12,391 16,66 -55,77 -2,221 19,50 1,82 -6,109 -6,29 4,34 8,61 10,56 1,254 29,299 54,9 117,3 175,12 32,5 359,67 364,67 35,1 74,0 121,-4 32,-2 63,-6 92,-13 48,-10 93,-24 137,-40 66,-23 131,-51 197,-73 47,-16 142,-33 148,-36 12,-54 -2,-174 -19,-226 -11,9 -74,84 -127,131 -10,8 -10,8 -25,13 13,-34 87,-93 120,-137 30,-39 99,-197 60,-242 -15,9 -42,70 -54,92 -36,64 -65,119 -104,183 -13,20 -39,78 -61,84 -7,-13 2,-21 13,-40 51,-92 97,-158 149,-262 60,-118 77,-457 64,-592 -17,11 -49,308 -59,334 -19,48 -37,98 -55,148 -13,38 -51,99 -71,146 -9,24 -7,50 -19,72 -7,13 -11,21 -19,33 -11,18 -5,19 -29,22 6,-20 28,-57 38,-77 39,-75 131,-339 154,-406zm-781 353c-97,-103 -15,-5 -70,-95 -265,-434 -14,-47 80,74 2,2 3,5 4,8 9,19 81,105 -14,13zm-440 -714c-1,1 -1,3 -2,4l1 0c1,-1 1,-2 1,-4zm15 889c4,4 -2,3 10,13 8,7 75,38 85,42 54,24 269,133 314,119 -1,-3 -2,-7 -4,-11l-94 -36c-69,-25 -286,-126 -311,-127z"/>
   <path class="filslev2" d="M1505 285c-26,57 -91,309 -80,454l9 124c34,16 14,23 38,34 25,-119 85,-492 126,-574 34,-69 -45,-60 -74,-82 -1,0 -16,37 -19,44z"/>
   <path class="filslev2" d="M72 814l28 37c38,38 7,58 33,50 -15,-51 2,-95 -6,-140 -47,-255 -23,-440 4,-526 10,-33 -54,-20 -82,-6 -96,44 -31,514 23,585z"/>
  </g>
 </g>
</svg>
