<svg xmlns="http://www.w3.org/2000/svg" xml:space="preserve" width="8.1056in" height="8.8458in" version="1.1" style="shape-rendering:geometricPrecision; text-rendering:geometricPrecision; image-rendering:optimizeQuality; fill-rule:evenodd; clip-rule:evenodd"
viewBox="0 0 4539 4953"
 xmlns:xlink="http://www.w3.org/1999/xlink">
 <defs>
  <style type="text/css">
   <![CDATA[
    .filfull2 {fill:black}
    .fil0 {fill:white}
    .filfull1 {fill:white}
   ]]>
  </style>
 </defs>
 <g id="Layer_x0020_1">
  <metadata id="CorelCorpID_0Corel-Layer"/>
  <g id="_946223888">
   <path class="fil0" d="M4168 1060c63,384 371,754 371,1030 0,67 -415,169 -510,189 -236,50 -92,118 -372,118l0 712c0,181 -41,276 -41,374 0,31 89,128 9,367 -10,30 -51,125 -51,148 0,69 13,63 23,111 8,36 9,62 14,102 18,121 16,208 4,326 -13,124 -77,70 -239,111 -397,100 -639,298 -1098,298l-272 0c-143,-3 -251,-17 -468,-75 -221,-58 -242,-58 -474,-58 -39,0 -104,6 -138,-3 -40,-10 -47,-36 -58,-75 -41,-145 -46,-330 -45,-488 0,-84 -25,-220 -25,-240 0,-134 33,-110 33,-183 0,-51 -29,-95 -45,-138 -76,-218 20,-253 20,-386 0,-53 -16,-75 -16,-133l0 -108c0,-114 60,-593 59,-674 -1,-25 -34,-30 -83,-64 -43,-30 -183,-30 -251,-31 -29,-1 -89,-8 -120,-14 -72,-12 -153,-39 -213,-60 -146,-53 -177,-51 -182,-93l0 -83c0,-102 254,-924 358,-1084 22,-35 21,-59 31,-102 9,-37 16,-63 28,-97 129,-382 233,-375 581,-466 127,-33 266,-90 389,-134 112,-40 324,-157 359,-157 49,0 349,203 879,98 378,-76 151,-110 426,27 253,125 754,247 900,388 114,112 121,173 169,338 20,67 36,136 48,209z"/>
   <path class="fil0" d="M2379 1244c3,68 -10,50 3,162 1,8 52,3222 57,3449 -34,5 -69,9 -105,11 -39,3 -75,5 -110,6 -3,-183 -21,-3606 -14,-3667 3,-28 4,-57 5,-85 0,-22 2,463 17,870 11,298 37,554 37,538 0,-93 -54,-1413 -56,-1506 -60,-661 387,-495 555,-764 30,-31 92,-112 116,-131 109,60 109,76 38,185 -318,492 -593,70 -543,932z"/>
   <g>
    <g>
     <path class="fil0" d="M2783 166c-33,58 -104,128 -188,150 -169,45 -454,33 -617,-18 -82,-25 -131,-90 -164,-164 193,39 145,80 472,84 285,3 324,-37 497,-52z"/>
     <path class="fil0" d="M1729 92c160,154 232,393 557,402 181,5 374,-121 482,-236 30,-31 92,-112 116,-131 109,60 109,76 38,185 -140,216 -350,369 -644,357 -442,-17 -681,-441 -656,-508 8,-19 81,-61 107,-69z"/>
    </g>
    <path class="filfull1" d="M2015 367c44,0 104,25 263,28 110,1 181,-5 283,-20 -41,51 -164,117 -257,119 -113,3 -236,-71 -289,-127z"/>
   </g>
   <path class="filfull2" d="M3612 2269c201,-37 209,-76 267,-85 1,57 -73,135 -189,124 -93,-9 -72,-21 -78,-39zm-1430 -1067c8,171 22,3184 21,3671 -428,13 -526,-83 -878,-139 -120,-19 -252,-7 -364,-25 -59,-94 -39,-506 -60,-622 -9,-55 -30,-67 -16,-127 14,-55 51,-122 12,-227 -111,-300 36,-323 4,-461 -47,-196 -18,-646 26,-813 6,-23 8,-34 21,-50 12,12 113,698 130,744 79,203 215,472 336,645 35,49 66,94 101,140 26,33 89,105 128,121 -11,-59 -120,-163 -170,-245 -278,-456 -356,-1053 -518,-1557 -167,-523 -201,-957 -161,-1474 1,-12 2,-25 4,-38 -96,-43 -66,136 -65,228 3,211 181,1238 163,1305 -93,10 -53,-85 -189,-74 -95,7 -170,6 -261,-11 -89,-17 -228,-58 -312,-96 -36,-17 -72,-26 -55,-78 83,-6 188,74 239,46 -24,-55 -168,-93 -233,-117 0,-7 81,-362 181,-630 62,-167 150,-274 177,-318 75,-121 52,-246 138,-394 75,-131 140,-150 280,-185 124,-33 246,-64 362,-104l342 -127c64,166 171,247 268,346 71,71 49,30 103,52 2,1 4,1 5,2 4,0 7,1 10,2l0 0c7,0 13,0 20,2 2,-2 5,-4 7,-6 -247,-131 -375,-378 -356,-427 8,-19 81,-61 107,-69 44,43 77,151 216,274 94,82 121,111 248,146 40,0 92,-20 97,-35 -101,-5 -226,-58 -275,-110 44,0 104,25 263,28 110,1 181,-5 283,-20 -332,145 -407,255 -379,827zm41 3744c25,6 75,13 146,-3l0 0 5 0c23,0 88,18 89,-8 347,-44 573,-201 913,-287 162,-41 226,13 239,-111 12,-118 14,-205 -4,-326 -5,-40 -6,-66 -14,-102 -10,-48 -23,-42 -23,-111 0,-23 41,-118 51,-148 80,-239 -9,-336 -9,-367 0,-98 41,-193 41,-374l0 -712c280,0 136,-68 372,-118 95,-20 510,-122 510,-189 0,-276 -308,-646 -371,-1030 -12,-73 -28,-142 -48,-209 -48,-165 -55,-226 -169,-338 -146,-141 -647,-263 -900,-388 -275,-137 -48,-103 -426,-27 -530,105 -830,-98 -879,-98 -35,0 -247,117 -359,157 -123,44 -262,101 -389,134 -348,91 -452,84 -581,466 -12,34 -19,60 -28,97 -10,43 -9,67 -31,102 -104,160 -358,982 -358,1084l0 83c5,42 36,40 182,93 60,21 141,48 213,60 31,6 91,13 120,14 68,1 208,1 251,31 49,34 82,39 83,64 1,81 -59,560 -59,674l0 108c0,58 16,80 16,133 0,133 -96,168 -20,386 16,43 45,87 45,138 0,73 -33,49 -33,183 0,20 25,156 25,240 -1,158 4,343 45,488 11,39 18,65 58,75 34,9 99,3 138,3 232,0 253,0 474,58 217,58 325,72 468,75l217 0zm230 -93c-5,-103 8,-257 3,-435 -27,-978 -45,-2884 -46,-3015 -1,-120 -23,-575 39,-648 135,-157 290,-78 514,-436 22,-36 34,-68 63,-95 51,4 632,223 713,260 217,98 313,388 344,595 7,46 17,159 30,196 105,318 245,301 303,642l-349 100c-43,11 -85,13 -103,50 126,13 336,-99 463,-99 18,39 28,41 21,90 -113,55 -375,141 -525,144 18,-414 -24,-821 37,-1170 -13,9 -25,19 -36,30l0 30c0,5 0,11 -2,16 0,2 0,4 -1,6 0,5 -1,9 -2,13 0,2 -1,4 -1,5 21,364 13,561 -21,907 -12,121 -140,180 -279,173 77,-498 -17,-617 89,-1123 15,-70 19,-74 14,-97 -1,-2 -2,-5 -3,-6 0,-2 -1,-5 -2,-6 -145,122 -94,1006 -167,1293 -30,117 -74,635 -112,749 -77,230 -211,635 -319,845 -21,42 -67,118 -80,161 51,-7 38,-10 62,-47 15,-24 24,-42 39,-69 25,-47 47,-100 68,-149 42,-102 82,-196 119,-304 38,-105 75,-208 115,-309 21,-54 87,-672 123,-694 26,280 -10,986 -134,1232 -107,216 -203,354 -311,545 -22,39 -41,55 -27,84 46,-14 101,-134 127,-176 82,-133 141,-247 217,-381 25,-46 80,-173 113,-192 81,94 -64,423 -125,505 -68,91 -224,213 -250,284 30,-9 31,-9 51,-26 111,-98 242,-254 264,-273 37,109 66,358 41,470 -13,8 -210,41 -308,74 -258,89 -493,207 -769,251zm-74 -3609c3,68 -10,50 3,162 1,8 52,3222 57,3449 -34,5 -69,9 -105,11 -39,3 -75,5 -110,6 -3,-183 -21,-3606 -14,-3667 3,-28 4,-57 5,-85 0,-22 2,463 17,870 11,298 37,554 37,538 0,-93 -54,-1413 -56,-1506 -60,-661 387,-495 555,-764 30,-31 92,-112 116,-131 109,60 109,76 38,185 -318,492 -593,70 -543,932zm-1062 1769c-23,-40 -91,-573 -127,-587 -36,46 193,786 216,823 71,115 203,274 286,379l120 129c17,16 24,27 40,43 25,25 47,46 72,69 4,1 8,3 11,5l24 11c10,5 16,11 23,19 3,1 5,2 7,2l29 12c6,3 11,6 16,9 11,3 22,9 30,18l-2 -2 1 0c-291,-256 -570,-624 -746,-930zm-389 1106c9,11 -4,8 20,29 18,15 157,78 178,87 115,52 578,286 660,245 -8,-23 10,-5 -18,-22l-193 -73c-143,-53 -595,-262 -647,-266zm1855 -3953c-33,58 -104,128 -188,150 -169,45 -454,33 -617,-18 -82,-25 -131,-90 -164,-164 193,39 145,80 472,84 285,3 324,-37 497,-52z"/>
   <path class="filfull2" d="M2289 729c7,0 12,5 12,11 0,6 -5,11 -12,11 -6,0 -11,-5 -11,-11 0,-6 5,-11 11,-11zm41 0c6,0 11,5 11,11 0,6 -5,11 -11,11 -7,0 -12,-5 -12,-11 0,-6 5,-11 12,-11zm-41 36c7,0 12,5 12,11 0,6 -5,11 -12,11 -6,0 -11,-5 -11,-11 0,-6 5,-11 11,-11zm41 0c6,0 11,5 11,11 0,6 -5,11 -11,11 -7,0 -12,-5 -12,-11 0,-6 5,-11 12,-11zm-20 -75c37,0 68,30 68,68 0,38 -31,69 -68,69 -38,0 -69,-31 -69,-69 0,-38 31,-68 69,-68z"/>
   <path class="filfull2" d="M2273 1270c6,0 11,5 11,11 0,6 -5,11 -11,11 -6,0 -11,-5 -11,-11 0,-6 5,-11 11,-11zm40 0c6,0 11,5 11,11 0,6 -5,11 -11,11 -6,0 -11,-5 -11,-11 0,-6 5,-11 11,-11zm-40 36c6,0 11,5 11,11 0,6 -5,11 -11,11 -6,0 -11,-5 -11,-11 0,-6 5,-11 11,-11zm40 0c6,0 11,5 11,11 0,6 -5,11 -11,11 -6,0 -11,-5 -11,-11 0,-6 5,-11 11,-11zm-20 -76c38,0 68,31 68,69 0,38 -30,68 -68,68 -38,0 -69,-30 -69,-68 0,-38 31,-69 69,-69z"/>
   <path class="filfull2" d="M2289 1994c7,0 12,5 12,11 0,6 -5,11 -12,11 -6,0 -11,-5 -11,-11 0,-6 5,-11 11,-11zm41 0c6,0 11,5 11,11 0,6 -5,11 -11,11 -7,0 -12,-5 -12,-11 0,-6 5,-11 12,-11zm-41 37c7,0 12,5 12,11 0,6 -5,11 -12,11 -6,0 -11,-5 -11,-11 0,-6 5,-11 11,-11zm41 0c6,0 11,5 11,11 0,6 -5,11 -11,11 -7,0 -12,-5 -12,-11 0,-6 5,-11 12,-11zm-20 -76c37,0 68,31 68,69 0,37 -31,68 -68,68 -38,0 -69,-31 -69,-68 0,-38 31,-69 69,-69z"/>
   <path class="filfull2" d="M2289 2719c7,0 12,5 12,11 0,6 -5,11 -12,11 -6,0 -11,-5 -11,-11 0,-6 5,-11 11,-11zm41 0c6,0 11,5 11,11 0,6 -5,11 -11,11 -7,0 -12,-5 -12,-11 0,-6 5,-11 12,-11zm-41 36c7,0 12,5 12,11 0,6 -5,11 -12,11 -6,0 -11,-5 -11,-11 0,-6 5,-11 11,-11zm41 0c6,0 11,5 11,11 0,6 -5,11 -11,11 -7,0 -12,-5 -12,-11 0,-6 5,-11 12,-11zm-20 -75c37,0 68,30 68,68 0,38 -31,69 -68,69 -38,0 -69,-31 -69,-69 0,-38 31,-68 69,-68z"/>
   <path class="filfull2" d="M2295 3443c6,0 11,5 11,11 0,7 -5,12 -11,12 -6,0 -11,-5 -11,-12 0,-6 5,-11 11,-11zm40 0c6,0 11,5 11,11 0,7 -5,12 -11,12 -6,0 -11,-5 -11,-12 0,-6 5,-11 11,-11zm-40 37c6,0 11,5 11,11 0,6 -5,11 -11,11 -6,0 -11,-5 -11,-11 0,-6 5,-11 11,-11zm40 0c6,0 11,5 11,11 0,6 -5,11 -11,11 -6,0 -11,-5 -11,-11 0,-6 5,-11 11,-11zm-20 -76c38,0 69,31 69,69 0,38 -31,68 -69,68 -38,0 -68,-30 -68,-68 0,-38 30,-69 68,-69z"/>
   <path class="filfull2" d="M2306 4168c6,0 11,5 11,11 0,6 -5,11 -11,11 -6,0 -11,-5 -11,-11 0,-6 5,-11 11,-11zm40 0c6,0 11,5 11,11 0,6 -5,11 -11,11 -6,0 -11,-5 -11,-11 0,-6 5,-11 11,-11zm-40 36c6,0 11,5 11,11 0,7 -5,12 -11,12 -6,0 -11,-5 -11,-12 0,-6 5,-11 11,-11zm40 0c6,0 11,5 11,11 0,7 -5,12 -11,12 -6,0 -11,-5 -11,-12 0,-6 5,-11 11,-11zm-20 -75c38,0 69,30 69,68 0,38 -31,69 -69,69 -38,0 -68,-31 -68,-69 0,-38 30,-68 68,-68z"/>
  </g>
 </g>
</svg>
