<svg xmlns="http://www.w3.org/2000/svg" xml:space="preserve" width="5.81365in" height="13.3515in" version="1.1" style="shape-rendering:geometricPrecision; text-rendering:geometricPrecision; image-rendering:optimizeQuality; fill-rule:evenodd; clip-rule:evenodd"
viewBox="0 0 1042 2393"
 xmlns:xlink="http://www.w3.org/1999/xlink">
 <defs>
  <style type="text/css">
   <![CDATA[
    .str0 {stroke:black;stroke-width:1.24481}
    .fil1 {fill:black}
    .fil0 {fill:white}
    .fil3 {fill:white}
    .fil2 {fill:black;fill-rule:nonzero}
   ]]>
  </style>
 </defs>
 <g id="Layer_x0020_1">
  <metadata id="CorelCorpID_0Corel-Layer"/>
  <g id="_946227568">
   <path class="fil0" d="M976 162c20,36 32,80 40,121 10,60 16,122 19,183 5,78 7,156 7,234 0,90 -1,180 -4,269 -2,96 -6,191 -11,287 -10,217 -25,434 -41,650 -6,84 -13,167 -19,250 -4,53 -9,105 -13,158 4,15 4,32 -5,45 -3,6 -9,12 -15,15 -11,5 -22,7 -34,7 -10,1 -19,1 -28,3 -5,1 -10,3 -15,5 -3,1 -7,1 -10,1 -3,0 -5,0 -7,-1 -3,-1 -6,-2 -9,-3 -2,-1 -6,-3 -8,-4 -3,0 -8,2 -11,3 -6,1 -12,3 -19,2 -15,-1 -31,-1 -47,-1 -7,0 -15,-1 -23,-3 -7,-1 -15,-3 -22,-3 -9,0 -18,1 -27,1 -16,0 -35,-2 -48,-12 -9,-8 -14,-18 -15,-30 -1,-5 -1,-10 -1,-15 0,-3 1,-7 1,-10 0,-6 -2,-10 -5,-15 -8,-14 -7,-27 -7,-42 0,-37 0,-75 0,-112 0,-63 0,-127 0,-190 -1,-64 -1,-128 -1,-191 -1,-24 -1,-47 -1,-70 -1,-14 -1,-27 -2,-41 -14,-176 -27,-352 -41,-528 -8,-96 -15,-192 -23,-287l-1 -1c-13,227 -25,453 -38,680 -9,149 -17,299 -26,448 -3,53 -6,105 -10,157 -1,17 -2,33 -3,50 -1,9 -2,18 -3,27 -5,41 -13,83 -23,124l0 1 0 2c-1,1 1,9 1,11 1,8 1,14 -2,21 -4,8 -9,14 -17,17 -10,5 -20,5 -30,6 -3,1 -6,1 -8,2 -5,1 -9,4 -13,6 -4,2 -9,3 -13,4 -11,1 -20,-1 -30,-5 -4,-1 -8,-2 -12,-2 -7,-1 -14,-1 -21,0 -9,0 -17,0 -25,-1 -2,0 -3,0 -4,0 -5,0 -10,1 -15,2 -6,1 -12,1 -19,1 -10,-1 -20,-4 -30,-6 -7,-2 -14,-3 -21,-2 -11,1 -18,-2 -28,-5 -2,-1 -5,-1 -8,-2 -7,0 -13,3 -19,4 -8,1 -15,-2 -21,-8 -5,-4 -8,-8 -11,-13 -8,-15 -7,-33 -6,-49 1,-7 2,-14 2,-21 1,-5 1,-11 1,-17 -1,-10 -1,-21 -1,-31 -1,-20 -1,-40 -1,-60 -1,-57 -2,-114 -2,-171 -1,-57 -2,-114 -3,-171 0,-20 0,-40 -1,-60 0,-7 0,-13 0,-20 0,-3 0,-7 -1,-10 -7,-84 -15,-168 -23,-252 -17,-208 -33,-416 -40,-625 -3,-93 -7,-186 -6,-280 1,-89 7,-178 21,-266 5,-34 11,-68 20,-101 6,-19 13,-40 22,-58 4,-10 13,-25 22,-34l8 -73 13 -51 9 0c35,4 70,7 106,10 28,3 56,5 84,7 15,1 31,2 47,2 19,0 39,0 59,0 27,-1 53,-1 80,-2 10,0 20,0 30,0l7 0 -1 -3 30 2c14,1 28,2 42,2 24,1 47,1 70,1 22,0 44,0 66,-2 28,-2 56,-4 84,-7 35,-3 70,-6 105,-10l9 0 13 51 9 74c8,8 16,22 21,31z"/>
   <path class="fil1" d="M430 2312l0 2c0,3 1,9 1,10 1,8 1,15 -2,22 0,4 -1,8 -3,12 -4,8 -9,14 -17,17 -10,5 -20,5 -30,6 -3,1 -6,1 -8,2 -5,1 -9,4 -13,6 -4,2 -9,3 -13,4 -11,1 -20,-1 -30,-5 -4,-1 -8,-2 -12,-2 -7,-1 -14,-1 -21,0 -9,0 -17,0 -25,-1 -6,0 -13,1 -19,2 -6,1 -12,1 -19,1 -10,-1 -20,-4 -30,-6 -7,-2 -14,-3 -21,-2 -11,1 -18,-2 -28,-5 -2,-1 -5,-1 -8,-2 -7,0 -13,3 -19,4 -8,1 -15,-2 -21,-8 -5,-4 -8,-8 -11,-13 -11,-21 -6,-47 -4,-70 1,-5 1,-11 1,-17 -1,-10 -1,-21 -1,-31 -1,-20 -1,-40 -1,-60 -2,-114 -3,-228 -5,-342 0,-20 0,-40 -1,-60 0,-7 0,-13 0,-20 0,-3 0,-7 -1,-10 -7,-84 -15,-168 -23,-252 -17,-208 -33,-416 -40,-625 -3,-93 -7,-186 -6,-280 1,-89 7,-178 21,-266 5,-34 11,-68 20,-101 6,-19 13,-40 22,-58 4,-10 13,-25 22,-34l8 -73 13 -51c38,3 76,7 115,10 28,3 56,5 84,7 15,1 31,2 47,2 19,0 39,0 59,0 27,-1 53,-1 80,-2 12,0 24,0 37,0l-1 -3 30 2c14,1 28,2 42,2 24,1 47,1 70,1 22,0 44,0 66,-2 28,-2 56,-4 84,-7 38,-3 76,-7 114,-10l13 51 9 74c8,8 16,22 21,31 20,36 32,80 40,121 10,60 16,122 19,183 5,78 7,156 7,234 0,90 -1,180 -4,269 -2,96 -6,191 -11,287 -10,217 -25,434 -41,650 -6,84 -13,167 -19,250 -4,53 -9,105 -13,158 4,15 4,32 -5,45 -3,6 -9,12 -15,15 -11,5 -22,7 -34,7 -10,1 -19,1 -28,3 -5,1 -10,3 -15,5 -5,2 -11,2 -17,0 -3,-1 -6,-2 -9,-3 -2,-1 -6,-3 -8,-4 -3,0 -8,2 -11,3 -6,1 -12,3 -19,2 -15,-1 -31,-1 -47,-1 -7,0 -15,-1 -23,-3 -7,-1 -15,-3 -22,-3 -24,0 -56,5 -75,-11 -9,-8 -14,-18 -15,-30l0 -1c-2,-3 -3,-7 -3,-12 -1,-5 -1,-10 -1,-15 0,-3 1,-6 1,-9 -1,-1 -1,-2 -2,-3 -4,-7 -5,-14 -6,-21 -4,-11 -3,-21 -3,-33 -1,-37 -1,-74 -1,-110 0,-63 0,-126 0,-188 0,-63 0,-126 -1,-188 0,-24 0,-47 -1,-70 0,-13 0,-27 -1,-40 -21,-268 -41,-536 -62,-805l-2 0c-12,223 -24,447 -36,670 -8,148 -17,296 -25,443 -3,52 -6,103 -10,155 -1,16 -2,33 -3,49 -1,9 -1,18 -3,26 -5,41 -12,83 -22,123l0 2zm217 -1509l0 1 -10 -1c-9,-2 -20,-1 -30,0 -20,3 -40,9 -57,16 0,1 1,2 2,3 21,277 43,553 65,830 1,13 1,27 1,41 1,24 1,47 1,71 1,63 1,127 1,190 0,64 0,128 0,191 0,37 0,74 1,111 0,6 -1,13 0,19 0,0 0,1 1,1 3,6 5,12 6,19 3,6 4,12 4,19 0,7 -1,13 0,21 1,1 2,2 3,4 13,10 44,7 60,6 8,0 17,2 26,4 6,1 12,2 18,2 16,0 31,0 47,1 3,1 8,-1 11,-1 7,-3 14,-4 22,-3 4,1 7,3 11,5 2,1 5,2 7,2 3,0 7,-2 10,-3 3,-1 6,-2 9,-3 11,-2 20,-2 30,-2 10,-1 18,-2 26,-6 3,-1 5,-5 6,-7 5,-9 4,-21 2,-30l0 -3c3,-52 8,-105 12,-157 6,-82 12,-164 18,-246 16,-214 30,-428 40,-642 5,-94 8,-188 11,-282 2,-88 4,-177 3,-265 0,-77 -2,-154 -6,-230 -2,-33 -4,-65 -8,-97 -3,-27 -6,-54 -11,-81 -7,-37 -17,-78 -35,-112 -4,-8 -13,-22 -20,-29l-3 -3 -9 -79 -8 -32c-31,3 -62,6 -93,9 -27,3 -55,5 -82,7 -21,2 -43,2 -65,2 -22,0 -45,0 -68,-1 -15,-1 -30,-1 -44,-2l5 83c6,5 8,12 9,19 2,8 3,16 3,24 1,12 1,25 1,38 0,35 -1,69 -2,104 -2,69 -5,139 -8,209l0 0 -1 11 -4 -1c-1,33 -2,65 -4,97 -1,28 -2,56 -2,84 0,8 1,15 2,22 1,11 1,20 2,31 0,2 -1,4 -1,6 30,-10 46,-7 75,2 0,0 0,0 1,0 0,0 1,1 2,1 0,1 1,1 2,2 1,1 4,2 6,3 1,1 2,2 4,2 0,1 1,1 2,2 1,1 2,2 3,3zm-107 -287c2,-59 4,-119 6,-178 1,-33 1,-65 1,-98 0,-8 1,-53 -4,-63 0,0 0,0 0,0l-7 -2 -7 -113c-13,0 -25,0 -37,0 -26,1 -51,1 -77,2 -19,0 -39,0 -58,0 -16,0 -31,-1 -47,-2 -27,-2 -54,-4 -82,-7 -31,-3 -62,-6 -93,-9l-7 32 -10 80 -4 3c-2,1 -4,4 -5,6 -6,8 -11,17 -15,26 -8,17 -13,36 -18,54 -8,30 -14,62 -19,93 -12,86 -18,173 -19,260 -1,91 2,183 5,275 7,205 22,411 40,616 7,83 14,165 22,248 0,4 0,8 0,11 0,7 1,13 1,20 0,20 0,39 1,59 1,113 2,225 4,338 0,19 1,39 1,59 0,7 0,13 0,19 1,4 1,7 1,10 1,14 -2,28 -3,42 -1,13 -2,33 9,43 2,1 3,2 5,2 2,0 5,-1 7,-1 11,-3 18,-3 28,1 6,1 12,4 18,4 9,-1 18,-1 27,1 9,2 18,5 27,6 9,1 20,-2 30,-3 2,0 4,0 6,1 15,1 30,-1 45,0 6,0 11,2 16,3 7,3 13,5 20,4 2,0 5,-1 7,-2 5,-2 9,-5 14,-7 4,-1 8,-2 12,-2 6,-1 17,-1 23,-4 1,-1 2,-2 3,-2 -1,-8 -3,-15 -1,-22 1,-4 2,-8 2,-10 2,-9 4,-17 6,-26 6,-29 11,-58 15,-87 1,-9 1,-17 2,-26 1,-16 2,-33 4,-49 3,-53 6,-105 9,-157 9,-150 18,-299 26,-449 13,-226 26,-452 38,-679 -28,14 -42,0 -72,11 0,0 -1,0 -2,1 -1,0 -2,1 -3,1 -1,0 -1,0 -1,0 -2,1 -4,1 -5,2 -2,0 -4,1 -6,2 -1,0 -2,0 -3,0 -3,0 -5,1 -7,1l0 0 0 0 9 -5c16,-7 32,-15 48,-23 20,-10 40,-20 61,-28 1,-3 2,-6 3,-9 0,-2 0,-3 1,-4 -1,-8 -1,-15 -2,-23 -1,-8 -1,-16 -1,-25 0,-17 0,-34 1,-51 0,-14 0,-28 1,-42 1,-39 3,-78 4,-117l0 0 1 -11 5 0z"/>
   <path class="fil2" d="M536 528l9 0c0,0 26,-3 42,-13 63,-34 59,-88 61,-109 10,-84 0,-255 0,-255l-9 0c0,0 10,171 0,255 -2,21 2,75 -61,109 -16,10 -42,13 -42,13z"/>
   <g>
    <path class="fil3 str0" d="M940 131l6 -5 -8 -66 -9 -37c-13,1 -26,2 -39,4 -9,0 -19,1 -28,2 -6,1 -12,2 -18,3l-9 1 -8 99c19,0 38,0 57,0 11,0 23,0 34,0 8,0 15,0 22,-1z"/>
    <path class="fil3 str0" d="M105 128l-5 -5 7 -67 9 -37c13,1 26,3 39,4 10,1 19,2 29,3 5,1 50,5 56,6l9 2 8 99c-19,0 -77,-4 -96,-4 -11,0 -23,0 -34,-1 -7,0 -15,0 -22,0z"/>
    <polygon class="fil3 str0" points="364,48 364,135 352,135 352,46 "/>
    <polygon class="fil3 str0" points="424,48 424,135 411,135 411,46 "/>
    <polygon class="fil3 str0" points="716,48 716,135 704,135 704,46 "/>
    <polygon class="fil3 str0" points="776,48 776,135 763,135 763,46 "/>
   </g>
   <path class="fil2" d="M604 72c0,9 -8,17 -17,17 -9,0 -17,-8 -17,-17 0,-10 8,-17 17,-17 9,0 17,7 17,17z"/>
   <path class="fil2" d="M607 116c0,9 -8,17 -17,17 -9,0 -17,-8 -17,-17 0,-9 8,-17 17,-17 9,0 17,8 17,17z"/>
   <path class="fil1" d="M691 29l38 0 0 120 -38 0 0 -120zm13 18l0 85 12 0 0 -85 -12 0z"/>
   <path class="fil1" d="M750 29l38 -7 1 128 -39 0 0 -121zm13 16l0 87 13 0 -1 -89 -12 2z"/>
   <polygon class="fil2" points="798,146 798,137 740,134 693,133 606,135 517,136 353,133 324,134 283,134 283,143 324,143 353,142 517,145 606,145 693,142 740,144 "/>
   <path class="fil1" d="M398 29l38 0 0 120 -38 0 0 -120zm13 18l0 85 12 0 0 -85 -12 0z"/>
   <path class="fil1" d="M952 150l14 -13 -9 -81 -13 -53c0,0 -91,9 -106,12l-20 3 -11 133c0,0 111,1 145,-1zm-12 -18l6 -5 -8 -67 -9 -37c-13,1 -26,3 -39,4 -9,1 -19,2 -28,3 -6,1 -12,1 -18,2l-9 1 -8 100c19,0 38,0 57,0 12,0 23,0 35,-1 7,0 14,0 21,0z"/>
   <path class="fil1" d="M94 147l-15 -13 10 -81 12 -53c0,0 130,13 145,15l20 3 11 134c0,0 -150,-3 -183,-5zm11 -19l-6 -5 8 -66 9 -37c13,1 26,2 39,4 9,0 19,1 28,2 6,1 51,6 56,7l9 1 9 99c-19,0 -77,-4 -96,-4 -11,0 -23,0 -34,0 -8,0 -15,0 -22,-1z"/>
   <path class="fil1" d="M377 32l-38 -6 0 127 38 0 0 -121zm-13 16l0 87 -12 0 0 -89 12 2z"/>
   <path class="fil3 str0" d="M115 148l-4 2c-2,2 -4,5 -6,6 -5,8 -14,30 -18,39 -8,17 -14,36 -19,54 -8,30 -14,62 -18,93 -13,86 -19,173 -20,260 -1,92 3,183 6,275 7,205 22,411 39,616 7,83 15,165 22,248 0,4 0,8 1,11 0,7 0,13 0,20 1,20 1,40 1,59 2,113 3,225 4,338 1,20 1,39 1,59 1,7 1,13 1,19 0,4 0,7 0,11 1,13 -1,28 -2,41 -2,13 -3,33 9,43 1,1 3,3 5,2 2,0 5,-1 7,-1 9,-3 16,-3 24,0 0,-1 0,-1 0,-1 -11,-11 -9,-30 -8,-43 1,-13 4,-28 3,-41 -1,-4 -1,-7 -1,-11 0,-6 0,-12 0,-19 -1,-20 -1,-39 -1,-59 -2,-113 -3,-225 -4,-338 -1,-19 -1,-39 -2,-59 0,-7 0,-13 0,-20 0,-3 0,-7 -1,-11 -7,-83 -15,-165 -22,-248 -17,-205 -32,-411 -39,-616 -3,-92 -6,-183 -5,-275 1,-87 6,-174 19,-260 5,-31 10,-63 18,-93 5,-18 11,-37 19,-54 4,-9 13,-31 19,-39 1,-1 3,-4 5,-6l5 -1 -38 -1z"/>
   <path class="fil3 str0" d="M899 2347c9,-1 17,-2 26,-6 2,-1 5,-5 6,-7 5,-9 4,-21 2,-30l-1 -3c4,-52 8,-105 12,-157 7,-82 13,-164 19,-246 16,-214 30,-428 40,-642 4,-94 8,-188 11,-282 2,-88 3,-177 3,-265 0,-77 -2,-154 -6,-230 -2,-33 -5,-65 -8,-97 -3,-27 -6,-54 -11,-81 -7,-37 -17,-78 -35,-112 -4,-8 -13,-22 -20,-29l-4 -9 -43 0 6 9c7,7 16,21 20,29 18,34 28,75 35,112 4,27 8,54 11,81 3,32 6,64 8,97 4,76 6,153 6,230 0,88 -1,177 -3,265 -3,94 -7,188 -11,282 -10,214 -24,428 -40,642 -6,82 -12,164 -19,246 -4,52 -8,105 -12,157l0 3c3,9 4,21 -1,30 -1,2 -4,6 -6,7 -51,23 -74,11 15,6z"/>
  </g>
 </g>
</svg>
