<svg xmlns="http://www.w3.org/2000/svg" xml:space="preserve" width="9.50366in" height="8.9904in" version="1.1" style="shape-rendering:geometricPrecision; text-rendering:geometricPrecision; image-rendering:optimizeQuality; fill-rule:evenodd; clip-rule:evenodd"
viewBox="0 0 1035 979"
 xmlns:xlink="http://www.w3.org/1999/xlink">
 <defs>
  <style type="text/css">
   <![CDATA[
    .fil1 {fill:black}
    .fil0 {fill:white}
    .filhck {fill:white}
   ]]>
  </style>
 </defs>
 <g id="Layer_x0020_1">
  <metadata id="CorelCorpID_0Corel-Layer"/>
  <g id="_946228048">
   <path class="fil0" d="M375 30l0 0zm259 -18c8,-4 24,14 31,25 35,19 229,49 258,77 22,22 35,37 44,69 4,13 7,26 10,40 3,23 15,59 20,90 9,19 21,48 30,69 20,45 -28,92 -4,126 29,41 -5,80 -6,128 0,52 -19,139 -56,177 -7,7 -21,-4 -27,-6 -20,-7 -76,-3 -84,-15 -9,-12 5,-21 4,-38 -2,-21 -16,-44 -21,-69 -7,-49 -7,-47 -4,-100 3,-17 -6,-45 -5,-68 0,-6 1,-25 1,-35 -5,-2 -9,-7 -12,-13 1,46 10,96 10,153 0,35 -8,53 -8,72 0,6 17,25 2,72 -2,6 -10,24 -10,29 0,13 2,12 4,21 2,7 2,12 3,20 3,24 3,40 1,63 -3,24 -15,14 -47,22 -77,19 -157,58 -246,58l-53 0c-5,0 -10,0 -14,-1 -1,1 -1,1 -2,0 -21,-1 -84,-5 -118,-14 -43,-11 -37,-11 -82,-11 -7,0 -20,1 -26,-1 -8,-2 -10,-7 -12,-14 -8,-28 -9,-64 -8,-95 0,-16 -5,-43 -5,-47 0,-26 6,-21 6,-35 0,-10 -6,-19 -9,-27 -15,-45 4,-36 4,-75 0,-73 16,-129 16,-187 0,-3 -1,-5 -1,-7 -3,8 -8,15 -13,17 -1,10 0,29 1,35 0,23 -11,51 -8,68 4,30 0,74 -5,99 -5,28 -14,23 -17,70 -2,17 12,26 4,38 -8,12 -65,8 -85,15 -5,2 -20,13 -27,6 -48,-49 -83,-272 -61,-305 24,-36 -8,-81 12,-126 9,-21 16,-50 25,-69 9,-43 28,-86 34,-131 0,-2 1,-4 2,-6 1,-4 3,-7 4,-12 25,-74 89,-73 156,-90 38,-10 102,-22 135,-44 2,-9 10,-17 24,-28 0,-1 1,-1 1,-1 3,-2 11,-1 11,0 48,33 97,35 153,28 19,-3 54,-9 70,-17z"/>
   <path class="fil1" d="M256 871c0,-2 0,-4 0,-5 -2,-1 -3,-3 -3,-5 0,-2 1,-3 3,-2 0,-2 0,-4 0,-6 -2,0 -3,-2 -3,-4 0,-2 1,-3 3,-3 0,-1 0,-3 0,-5 -2,-1 -3,-3 -3,-4 0,-2 1,-3 3,-3 -1,-2 -1,-4 -1,-6 -1,-1 -2,-2 -2,-4 0,-1 1,-2 2,-2 -1,-3 -1,-5 -1,-7 -1,-1 -1,-2 -1,-3 0,-1 0,-1 0,-2 -1,-11 -3,-23 -4,-34 -1,1 -2,1 -3,1 -2,-1 -4,-3 -4,-5 0,-2 2,-3 4,-2 1,0 1,0 2,1 0,-2 -1,-4 -1,-7 0,0 -1,0 -1,0 -2,0 -4,-2 -4,-4 0,-2 2,-3 4,-3l0 0c0,-2 -1,-3 -1,-5 -1,-1 -3,-3 -3,-4 0,-2 1,-3 2,-3 0,-2 0,-5 -1,-7 0,-1 -1,-2 -1,-3 0,0 1,-1 1,-1 -2,-17 -2,-33 0,-47 0,0 -1,-1 -1,-1 0,-1 1,-2 1,-2 1,-2 1,-5 2,-7 -2,-1 -3,-2 -3,-3 0,-2 2,-3 4,-3 0,0 0,0 0,0 1,-2 1,-4 2,-5 -1,0 -1,0 -2,0 -2,-1 -4,-3 -4,-5 0,-2 2,-3 4,-2 1,0 2,1 3,2 5,-27 0,-44 0,-58 -1,1 -2,1 -3,1 -2,-1 -4,-3 -4,-4 0,-2 2,-3 4,-3 1,0 2,1 3,2 0,-1 0,-3 0,-4 2,-17 4,-30 4,-41 0,0 0,-1 0,-1 0,0 0,-1 0,-1 0,-4 0,-7 0,-9 0,-1 0,-2 0,-2 0,-1 0,-1 0,-2 0,-22 -5,-26 -4,-35 -1,1 -2,2 -3,1 -2,0 -4,-2 -4,-4 0,-2 2,-3 4,-3 1,1 3,2 3,4 1,-5 3,-10 6,-19 -1,-1 -2,-2 -2,-4 0,-2 1,-3 3,-2 1,0 1,0 2,0 6,-14 5,-30 2,-44 -1,1 -2,1 -4,1 -2,0 -3,-2 -3,-4 0,-2 1,-3 3,-3 1,0 2,1 2,1 -1,-2 -1,-4 -2,-6 -2,-1 -3,-3 -3,-5 0,0 0,-1 0,-1 -2,-3 -4,-6 -5,-9 -1,0 -1,0 -1,0 0,0 -1,0 -1,0 -2,-1 -4,-3 -4,-5 0,0 0,0 1,-1 -16,-16 -22,-10 -28,3 2,1 3,2 3,4 0,2 -2,3 -4,3 0,-1 -1,-1 -1,-2 -3,6 -5,12 -8,17 2,1 2,2 2,4 0,2 -1,3 -3,2 -1,0 -1,0 -2,-1 -2,3 -3,5 -5,7 0,0 0,1 0,1 0,2 -2,3 -3,3 -1,0 -1,0 -1,0 -2,1 -4,2 -6,3 0,0 -1,0 -2,1 1,1 2,2 2,3 0,2 -2,3 -4,2 -1,0 -2,0 -2,-1 -3,4 -6,10 -7,17 1,1 2,2 2,4 0,2 -1,3 -3,2l0 0c-1,2 -1,4 -1,6 0,0 0,0 1,0 2,0 3,2 3,4 0,2 -1,3 -3,3 -1,-1 -1,-1 -2,-1 0,2 0,4 0,6 0,0 1,0 2,0 2,1 3,3 3,4 0,2 -1,3 -3,3 -1,0 -2,-1 -3,-1 0,2 0,4 0,7 1,-1 2,-1 3,-1 2,1 3,3 3,5 0,2 -1,3 -3,2 -1,0 -2,-1 -3,-1 0,2 0,5 0,7 1,0 2,-1 3,0 2,0 3,2 3,4 0,2 -1,3 -3,3 -1,-1 -2,-1 -3,-2 0,2 0,5 0,7 1,0 2,0 3,0 2,1 3,3 3,4 0,2 -1,3 -3,3 -1,0 -2,-1 -3,-1 0,2 0,5 0,7 1,-1 2,-1 3,-1 2,1 3,3 3,5 0,2 -1,3 -3,2 -2,0 -3,-1 -3,-2 -1,8 -4,13 -6,19 1,0 2,2 2,3 0,2 -2,3 -4,2l0 0c-1,2 -1,4 -2,6 1,-1 1,-1 2,0 2,0 4,2 4,4 0,2 -2,3 -4,2 -1,0 -2,-1 -3,-2 0,3 -1,6 0,10 0,-2 1,-3 3,-2 2,0 4,2 4,4 0,2 -2,3 -4,3 -2,-1 -3,-2 -3,-4 0,1 0,2 0,3 0,2 1,5 1,6 1,0 1,0 2,0 2,1 4,3 4,5 0,2 -2,3 -4,2 0,0 0,0 -1,0 1,2 1,4 2,6 1,0 3,2 3,4 0,1 -1,2 -2,2 1,3 1,6 1,9 0,0 1,1 1,1 0,1 -1,1 -1,2 0,2 0,4 -1,7 1,1 2,2 2,4 0,1 -2,2 -3,2 -1,2 -1,4 -2,5 0,0 1,0 1,1 2,0 4,2 4,4 0,2 -2,3 -4,2 -1,0 -2,-1 -3,-1 -1,5 -4,11 -6,17 1,1 2,2 2,4 0,2 -1,3 -3,2 -1,0 -1,0 -1,0 -4,9 -7,19 -8,29 1,0 2,2 2,3 0,2 -1,3 -3,3 0,1 0,2 0,3 0,0 0,1 0,2 1,1 3,3 3,4 0,2 -2,3 -3,3 0,2 0,4 0,5 1,1 3,3 3,5 0,2 -2,3 -4,2 0,2 0,4 0,6 2,0 4,2 4,4 0,2 -2,3 -4,3l0 0c0,1 0,3 0,5l0 0c2,0 4,2 4,4 0,2 -2,3 -4,3 0,0 0,0 0,0 0,2 0,3 0,5 0,0 0,0 0,0 2,1 4,3 4,5 0,2 -2,3 -4,2 0,0 0,0 0,0 0,2 0,4 0,6 0,0 0,0 0,0 2,0 4,2 4,4 0,2 -2,3 -4,3 0,-1 0,-1 0,-1l0 1 4 9 4 0c0,-1 1,-2 3,-1 0,0 0,0 0,0l17 -4c0,0 0,0 0,0 0,-2 2,-3 4,-3 1,0 2,1 2,2l1 0c0,0 -2,-3 -4,-7 -1,-1 -3,-3 -3,-5 0,0 0,-1 1,-1 -2,-4 -3,-7 -3,-10 -1,-5 -2,-8 -3,-12 -1,0 -1,0 -2,0 -2,0 -3,-2 -3,-4 0,-2 1,-3 3,-3 0,0 1,0 1,1 0,-2 0,-4 1,-6 -1,0 -1,0 -2,0 -2,-1 -3,-3 -3,-5 0,-1 1,-3 3,-2 1,0 3,1 3,3 1,-2 1,-4 2,-5 1,-2 1,-4 2,-6 0,0 0,0 1,-1 0,-2 1,-4 2,-6 -2,-1 -3,-3 -3,-4 0,-2 2,-3 4,-3 0,0 1,1 1,1 2,-5 5,-11 7,-17 -1,-1 -1,-2 -1,-3 0,-2 1,-3 3,-3 1,-2 1,-3 2,-5 -1,0 -1,0 -2,0 -2,-1 -3,-3 -3,-5 0,-2 1,-3 3,-2 2,0 3,1 3,3 3,-7 5,-13 6,-19 -1,0 -2,-2 -2,-3 0,-2 2,-4 4,-3 0,0 0,0 0,0 1,-2 1,-4 1,-5l0 0c-1,0 -1,0 -1,0 -2,-1 -4,-3 -4,-5 0,-2 2,-3 4,-2 0,0 0,0 0,0 0,-2 0,-4 0,-6 0,0 0,0 0,0 -2,0 -4,-2 -4,-4 0,-2 2,-3 4,-3l-1 -5c-2,-1 -3,-3 -3,-4 0,-2 1,-3 3,-3l-1 -6c-1,-1 -2,-2 -2,-4 0,-1 1,-2 2,-2 0,-3 0,-5 0,-7 -1,-1 -2,-2 -2,-3 0,-1 1,-2 1,-2 0,-3 0,-6 0,-8 -1,-1 -1,-2 -1,-2 0,-1 0,-2 1,-2 0,-1 0,-1 0,-2 0,-1 0,-3 1,-6 -1,0 -2,-2 -2,-3 0,-1 1,-3 3,-2 0,-2 0,-4 1,-6 0,0 0,0 0,0 -2,0 -4,-2 -4,-4 0,-2 2,-3 4,-3 0,0 1,1 1,1 0,-2 1,-4 1,-7 0,1 -1,1 -2,1 -2,-1 -4,-3 -4,-4 0,-2 2,-4 4,-3 1,0 2,2 3,3 2,-11 4,-23 2,-28 -1,-6 -3,-12 -4,-17 0,0 -1,0 -1,0 -2,-1 -4,-3 -4,-5 0,-2 2,-3 4,-2 0,0 0,0 1,0 0,-2 0,-4 0,-6 0,0 -1,0 -1,0 -2,0 -4,-2 -4,-4 0,-2 2,-3 4,-3 1,1 2,2 3,3 0,-1 1,-2 1,-3 1,-1 2,-3 3,-5 0,0 0,-1 0,-2 0,-2 1,-3 3,-2 0,0 0,0 0,0 4,-5 8,-10 10,-15 -1,-1 -3,-3 -3,-5 0,-1 2,-3 3,-2 2,0 3,1 3,2 1,-2 2,-3 2,-5 2,-4 4,0 6,6 0,0 0,0 0,0 2,0 3,2 3,4 0,1 0,2 -2,3 1,2 1,5 1,7 1,0 1,1 1,2 0,2 0,3 -1,3 -1,1 -1,3 -1,6 1,0 2,2 2,4 0,2 -1,3 -3,2 0,0 0,0 -1,0l-1 6c1,0 1,0 2,0 2,0 3,2 3,4 0,2 -1,3 -3,3 -1,-1 -2,-1 -2,-2 -2,9 -4,20 -6,31 1,1 1,2 1,2 0,1 -1,2 -2,3 0,2 0,4 0,6 1,1 2,2 2,4 0,2 -2,3 -3,2 -1,2 -1,4 -1,6 0,0 0,0 0,0 2,0 4,2 4,4 0,2 -2,3 -4,3 0,-1 0,-1 -1,-1 0,2 0,4 0,6 0,0 1,0 1,0 2,0 4,2 4,4 0,2 -2,3 -4,3 0,0 -1,-1 -2,-2 0,3 0,6 0,8l0 0c0,-1 1,-1 2,-1 2,1 4,3 4,5 0,2 -2,3 -4,2 -1,0 -1,-1 -2,-2 0,3 0,5 0,8 1,-1 2,-1 2,0 2,0 4,2 4,4 0,2 -2,3 -4,3 0,-1 -1,-1 -1,-2 0,3 0,5 0,7 0,0 1,0 1,0 2,0 4,2 4,4 0,2 -2,3 -4,3 0,0 0,0 0,-1 0,2 0,4 0,6 0,0 0,0 0,0 2,1 4,3 4,5 0,2 -2,3 -3,2 0,2 0,4 0,6 2,0 3,2 3,4 0,2 -1,3 -3,3 1,2 1,4 1,6 1,0 2,2 2,3 0,2 -1,3 -2,3 0,2 0,4 0,6 1,1 2,2 2,4 0,2 -2,3 -4,2 0,0 0,0 0,0 0,2 -1,4 -2,6 1,-1 2,-1 2,0 2,0 4,2 4,4 0,2 -2,3 -4,3 -1,-1 -2,-2 -3,-4 -2,6 -4,12 -6,19 2,1 2,2 2,4 0,2 -1,3 -3,2l0 0c0,2 -1,4 -1,6 0,0 1,0 1,0 2,0 3,2 3,4 0,2 -1,3 -3,3 -1,0 -1,-1 -2,-1 0,2 0,4 0,6 0,0 1,0 2,0 2,1 3,3 3,5 0,1 -1,3 -3,2 -1,0 -1,-1 -2,-1 0,1 0,2 1,4 0,0 0,1 0,2 1,0 1,0 1,0 2,1 3,3 3,5 0,1 0,2 -2,2 2,7 4,15 6,22 1,-1 2,-1 3,-1 2,0 4,2 4,4 0,2 -2,3 -4,3 0,0 -1,-1 -2,-2 1,3 1,5 2,7 0,0 0,0 0,0 2,1 4,3 4,5 0,1 -1,3 -3,2 0,2 0,4 0,6 2,0 3,2 3,4 0,2 -2,3 -4,3 0,-1 0,-1 -1,-1 0,2 0,4 0,6 1,0 1,0 1,0 2,0 4,2 4,4 0,2 -2,3 -4,3 0,0 0,0 -1,-1 1,2 1,4 1,6 0,0 0,0 0,0 2,1 4,3 4,5 0,2 -2,3 -4,2l0 0c1,2 1,4 1,6 2,1 3,2 3,4 0,1 -1,2 -2,3 0,2 0,4 0,6 1,1 2,2 2,3 0,1 0,2 -1,2 0,4 1,7 1,10 0,0 0,0 0,1 0,0 0,0 0,0 0,6 0,11 0,14 0,2 0,5 0,9 0,0 0,1 0,1 0,1 0,1 0,1 0,17 2,43 4,60 1,-1 2,-1 3,-1 2,1 3,3 3,5 0,2 -1,3 -3,2 -1,0 -2,-1 -3,-1 1,2 1,5 1,7 1,0 1,0 2,0 2,0 3,2 3,4 0,2 -1,3 -3,3 0,0 0,0 0,0 2,3 10,4 18,3 0,0 -1,-1 -1,-2 0,-2 2,-3 4,-3 2,1 3,3 3,5l0 0c2,0 3,0 4,-1 1,-1 2,-1 3,-1 1,0 1,0 2,1 5,-1 9,-2 9,-2 0,0 0,-1 0,-1 0,0 0,0 0,0 -2,-1 -4,-3 -4,-5 0,-2 2,-3 4,-2 0,0 0,0 0,0 0,-2 -1,-4 -1,-6 -2,-1 -3,-3 -3,-4 0,-1 1,-1 1,-2 -1,-3 -3,-7 -4,-11 -1,2 -2,3 -4,2 -2,0 -3,-2 -3,-4 0,-2 1,-3 3,-3 1,0 2,1 3,2 -1,-3 -2,-5 -2,-7 0,0 0,0 -1,0 -2,-1 -3,-3 -3,-5 0,-1 1,-2 3,-2 -1,-2 -1,-4 -1,-6 -1,-1 -2,-2 -2,-4 0,-1 1,-2 2,-3 0,-1 0,-3 0,-5 -1,-1 -2,-3 -2,-4 0,-2 1,-3 3,-3zm-21 69c2,0 4,2 4,4 0,2 -2,3 -4,2 -1,0 -3,-2 -3,-4 0,-2 2,-3 3,-2zm21 -7c2,0 4,2 4,4 0,2 -2,3 -4,3 -2,-1 -3,-3 -3,-5 0,-2 1,-3 3,-2zm-10 -3c2,1 3,2 3,4 0,2 -1,3 -3,3 -2,-1 -4,-3 -4,-4 0,-2 2,-3 4,-3zm-11 -3c2,1 4,3 4,5 0,1 -2,3 -4,2 -1,0 -3,-2 -3,-4 0,-2 2,-3 3,-3zm21 -7c2,1 4,3 4,5 0,2 -2,3 -4,2 -2,0 -3,-2 -3,-4 0,-2 1,-3 3,-3zm-10 -2c2,0 3,2 3,4 0,2 -1,3 -3,3 -2,-1 -4,-3 -4,-5 0,-2 2,-3 4,-2zm-11 -3c2,0 4,2 4,4 0,2 -2,3 -4,3 -1,-1 -3,-3 -3,-5 0,-1 2,-3 3,-2zm-10 -3c2,1 3,3 3,4 0,2 -1,3 -3,3 -2,-1 -3,-2 -3,-4 0,-2 1,-3 3,-3zm21 -7c2,1 3,3 3,5 0,2 -1,3 -3,2 -2,0 -4,-2 -4,-4 0,-2 2,-3 4,-3zm-11 -2c2,0 4,2 4,4 0,2 -2,3 -4,2 -1,0 -3,-2 -3,-4 0,-2 2,-3 3,-2zm-10 -3c2,0 3,2 3,4 0,2 -1,3 -3,3 -2,-1 -3,-3 -3,-5 0,-2 1,-3 3,-2zm21 -7c2,1 3,2 3,4 0,2 -1,3 -3,3 -2,-1 -4,-3 -4,-4 0,-2 2,-3 4,-3zm-11 -3c2,1 4,3 4,5 0,2 -2,3 -4,2 -1,0 -3,-2 -3,-4 0,-2 2,-3 3,-3zm-10 -3c2,1 3,3 3,5 0,2 -1,3 -3,2 -2,0 -3,-2 -3,-4 0,-2 1,-3 3,-3zm21 -6c2,0 3,2 3,4 0,2 -1,3 -3,3 -2,-1 -4,-3 -4,-5 0,-2 2,-3 4,-2zm-11 -3c2,0 4,2 4,4 0,2 -2,3 -4,3 -1,-1 -3,-3 -3,-5 0,-1 2,-3 3,-2zm-10 -3c2,1 3,3 3,4 0,2 -1,3 -3,3 -2,-1 -3,-2 -3,-4 0,-2 1,-3 3,-3zm21 -7c2,1 3,3 3,5 0,2 -1,3 -3,2 -2,0 -4,-2 -4,-4 0,-2 2,-3 4,-3zm-11 -2c2,0 4,2 4,4 0,2 -2,3 -4,2 -1,0 -3,-2 -3,-4 0,-2 2,-3 3,-2zm-10 -3c2,0 3,2 3,4 0,2 -1,3 -3,3 -2,-1 -3,-3 -3,-5 0,-2 1,-3 3,-2zm21 -7c2,1 3,2 3,4 0,2 -1,3 -3,3 -2,-1 -4,-3 -4,-4 0,-2 2,-3 4,-3zm-11 -3c2,1 4,3 4,5 0,2 -2,3 -4,2 -1,0 -3,-2 -3,-4 0,-2 2,-3 3,-3zm-10 -3c2,1 3,3 3,5 0,2 -1,3 -3,2 -2,0 -3,-2 -3,-4 0,-2 1,-3 3,-3zm21 -6c2,0 3,2 3,4 0,2 -1,3 -3,3 -2,-1 -4,-3 -4,-5 0,-2 2,-3 4,-2zm-11 -3c2,0 4,2 4,4 0,2 -2,3 -4,3 -1,-1 -3,-3 -3,-5 0,-1 2,-3 3,-2zm-10 -3c2,1 3,3 3,4 0,2 -1,3 -3,3 -2,-1 -3,-2 -3,-4 0,-2 1,-3 3,-3zm21 -7c2,1 3,3 3,5 0,2 -1,3 -3,2 -2,0 -4,-2 -4,-4 0,-2 2,-3 4,-3zm-11 -2c2,0 4,2 4,4 0,2 -2,3 -4,2 -1,0 -3,-2 -3,-4 0,-2 2,-3 3,-2zm-10 -3c2,0 3,2 3,4 0,2 -1,3 -3,3 -2,-1 -3,-3 -3,-5 0,-2 1,-3 3,-2zm21 -7c2,1 3,2 3,4 0,2 -1,3 -3,3 -2,-1 -4,-3 -4,-4 0,-2 2,-3 4,-3zm-11 -3c2,1 4,3 4,5 0,2 -2,3 -4,2 -1,0 -3,-2 -3,-4 0,-2 2,-3 3,-3zm-10 -3c2,1 3,3 3,5 0,2 -1,3 -3,2 -2,0 -3,-2 -3,-4 0,-2 1,-3 3,-3zm21 -6c2,0 3,2 3,4 0,2 -1,3 -3,3 -2,-1 -4,-3 -4,-5 0,-2 2,-3 4,-2zm-11 -3c2,0 4,2 4,4 0,2 -2,3 -4,3 -1,-1 -3,-3 -3,-5 0,-1 2,-3 3,-2zm-10 -3c2,1 3,3 3,4 0,2 -1,3 -3,3 -2,-1 -3,-2 -3,-4 0,-2 1,-3 3,-3zm-63 -17c2,1 4,3 4,5 0,2 -2,3 -4,2 -2,0 -3,-2 -3,-4 0,-2 1,-3 3,-3zm-10 -3c2,1 3,3 3,5 0,2 -1,3 -3,2 -2,0 -4,-2 -4,-4 0,-2 2,-3 4,-3zm94 13c2,1 3,3 3,5 0,2 -1,3 -3,2 -2,0 -4,-2 -4,-4 0,-2 2,-3 4,-3zm-11 -2c2,0 4,2 4,4 0,2 -2,3 -4,2 -1,0 -3,-2 -3,-4 0,-2 2,-3 3,-2zm-10 -3c2,0 3,2 3,4 0,2 -1,3 -3,3 -2,-1 -3,-3 -3,-5 0,-2 1,-3 3,-2zm-63 -17c2,0 4,2 4,4 0,2 -2,3 -4,3 -2,-1 -3,-3 -3,-5 0,-1 1,-3 3,-2zm-10 -3c2,1 3,3 3,4 0,2 -1,4 -3,3 -2,-1 -4,-2 -4,-4 0,-2 2,-3 4,-3zm94 13c2,1 3,2 3,4 0,2 -1,3 -3,3 -2,-1 -4,-3 -4,-4 0,-2 2,-3 4,-3zm-11 -3c2,1 4,3 4,5 0,2 -2,3 -4,2 -1,0 -3,-2 -3,-4 0,-2 2,-3 3,-3zm-10 -3c2,1 3,3 3,5 0,2 -1,3 -3,2 -2,0 -3,-2 -3,-4 0,-2 1,-3 3,-3zm-63 -16c2,0 4,2 4,4 0,2 -2,3 -4,2 -2,0 -3,-2 -3,-4 0,-2 1,-3 3,-2zm-10 -3c2,0 3,2 3,4 0,2 -1,3 -3,3 -2,-1 -4,-3 -4,-5 0,-2 2,-3 4,-2zm83 10c2,0 4,2 4,4 0,2 -2,3 -4,3 -1,-1 -3,-3 -3,-5 0,-1 2,-3 3,-2zm-10 -3c2,1 3,3 3,4 0,2 -1,3 -3,3 -2,-1 -3,-2 -3,-4 0,-2 1,-3 3,-3zm-73 -20c2,1 3,3 3,5 0,2 -1,3 -3,2 -2,0 -4,-2 -4,-4 0,-2 2,-3 4,-3zm83 11c2,0 4,2 4,4 0,2 -2,3 -4,2 -1,0 -3,-2 -3,-4 0,-2 2,-3 3,-2zm-10 -3c2,0 3,2 3,4 0,2 -1,3 -3,3 -2,-1 -3,-3 -3,-5 0,-2 1,-3 3,-2zm-73 -20c2,1 3,3 3,4 0,2 -1,4 -3,3 -2,-1 -4,-2 -4,-4 0,-2 2,-3 4,-3zm83 10c2,1 4,3 4,5 0,2 -2,3 -4,2 -1,0 -3,-2 -3,-4 0,-2 2,-3 3,-3zm-10 -3c2,1 3,3 3,5 0,2 -1,3 -3,2 -2,0 -3,-2 -3,-4 0,-2 1,-3 3,-3zm-11 -2c2,0 4,2 4,4 0,2 -2,3 -4,3 -1,-1 -3,-3 -3,-5 0,-2 2,-3 3,-2zm-52 -14c2,0 4,2 4,4 0,2 -2,3 -4,2 -2,0 -3,-2 -3,-4 0,-2 1,-3 3,-2zm-10 -3c2,0 3,2 3,4 0,2 -1,3 -3,3 -2,-1 -4,-3 -4,-5 0,-2 2,-3 4,-2zm83 10c2,0 4,2 4,4 0,2 -2,3 -4,3 -1,-1 -3,-3 -3,-5 0,-1 2,-3 3,-2zm-10 -3c2,1 3,3 3,4 0,2 -1,3 -3,3 -2,-1 -3,-2 -3,-4 0,-2 1,-3 3,-3zm-11 -3c2,1 4,3 4,5 0,2 -2,3 -4,2 -1,0 -3,-2 -3,-4 0,-2 2,-3 3,-3zm-52 -14c2,1 4,3 4,5 0,2 -2,3 -4,2 -2,0 -3,-2 -3,-4 0,-2 1,-3 3,-3zm-10 -3c2,1 3,3 3,5 0,2 -1,3 -3,2 -2,0 -4,-2 -4,-4 0,-2 2,-3 4,-3zm83 11c2,0 4,2 4,4 0,2 -2,3 -4,2 -1,0 -3,-2 -3,-4 0,-2 2,-3 3,-2zm-10 -3c2,0 3,2 3,4 0,2 -1,3 -3,3 -2,-1 -3,-3 -3,-5 0,-2 1,-3 3,-2zm-11 -3c2,0 4,2 4,4 0,2 -2,3 -4,3 -1,-1 -3,-3 -3,-5 0,-1 2,-3 3,-2zm-41 -11c2,0 3,2 3,4 0,2 -1,3 -3,3 -2,-1 -4,-3 -4,-5 0,-2 2,-3 4,-2zm-11 -3c2,0 4,2 4,4 0,2 -2,3 -4,3 -2,-1 -3,-3 -3,-5 0,-1 1,-3 3,-2zm-10 -3c2,1 3,3 3,4 0,2 -1,4 -3,3 -2,-1 -4,-2 -4,-4 0,-2 2,-3 4,-3zm83 10c2,1 4,3 4,5 0,2 -2,3 -4,2 -1,0 -3,-2 -3,-4 0,-2 2,-3 3,-3zm-10 -3c2,1 3,3 3,5 0,2 -1,3 -3,2 -2,0 -3,-2 -3,-4 0,-2 1,-3 3,-3zm-11 -2c2,0 4,2 4,4 0,2 -2,3 -4,3 -1,-1 -3,-3 -3,-5 0,-2 2,-3 3,-2zm-41 -12c2,1 3,3 3,5 0,2 -1,3 -3,2 -2,0 -4,-2 -4,-4 0,-2 2,-3 4,-3zm-11 -2c2,0 4,2 4,4 0,2 -2,3 -4,2 -2,0 -3,-2 -3,-4 0,-2 1,-3 3,-2zm-10 -3c2,0 3,2 3,4 0,2 -1,3 -3,3 -2,-1 -4,-3 -4,-5 0,-2 2,-3 4,-2zm83 10c2,0 4,2 4,4 0,2 -2,3 -4,3 -1,-1 -3,-3 -3,-5 0,-1 2,-3 3,-2zm-10 -3c2,1 3,3 3,4 0,2 -1,3 -3,3 -2,-1 -3,-2 -3,-4 0,-2 1,-3 3,-3zm-11 -3c2,1 4,3 4,5 0,2 -2,3 -4,2 -1,0 -3,-2 -3,-4 0,-2 2,-3 3,-3zm-41 -11c2,1 3,3 3,4 0,2 -1,3 -3,3 -2,-1 -4,-3 -4,-4 0,-2 2,-3 4,-3zm-11 -3c2,1 4,3 4,5 0,2 -2,3 -4,2 -2,0 -3,-2 -3,-4 0,-2 1,-3 3,-3zm73 8c2,0 4,2 4,4 0,2 -2,3 -4,2 -1,0 -3,-2 -3,-4 0,-2 2,-3 3,-2zm-10 -3c2,0 3,2 3,4 0,2 -1,3 -3,3 -2,-1 -3,-3 -3,-5 0,-2 1,-3 3,-2zm-11 -3c2,0 4,2 4,4 0,2 -2,3 -4,3 -1,-1 -3,-3 -3,-5 0,-1 2,-3 3,-2zm-31 -8c2,0 4,2 4,4 0,2 -2,3 -4,2 -2,0 -3,-2 -3,-4 0,-2 1,-3 3,-2zm-10 -3c2,0 3,2 3,4 0,2 -1,3 -3,3 -2,-1 -4,-3 -4,-5 0,-2 2,-3 4,-2zm-11 -3c2,0 4,2 4,4 0,2 -2,3 -4,3 -2,-1 -3,-3 -3,-5 0,-1 1,-3 3,-2zm73 7c2,1 4,3 4,5 0,2 -2,3 -4,2 -1,0 -3,-2 -3,-4 0,-2 2,-3 3,-3zm-10 -3c2,1 3,3 3,5 0,2 -1,3 -3,2 -2,0 -3,-2 -3,-4 0,-2 1,-3 3,-3zm-42 -11c2,1 4,3 4,5 0,1 -2,3 -4,2 -2,0 -3,-2 -3,-4 0,-2 1,-3 3,-3zm-10 -3c2,1 3,3 3,5 0,2 -1,3 -3,2 -2,0 -4,-2 -4,-4 0,-2 2,-3 4,-3zm62 5c2,0 4,2 4,4 0,2 -2,3 -4,3 -1,-1 -3,-3 -3,-5 0,-1 2,-3 3,-2zm-10 -3c2,1 3,3 3,4 0,2 -1,3 -3,3 -2,-1 -3,-2 -3,-4 0,-2 1,-3 3,-3zm-42 -11c2,0 4,2 4,4 0,2 -2,3 -4,3 -2,-1 -3,-3 -3,-5 0,-2 1,-3 3,-2zm-10 -3c2,1 3,3 3,4 0,2 -1,3 -3,3 -2,-1 -4,-3 -4,-4 0,-2 2,-3 4,-3zm73 7c2,1 3,3 3,5 0,2 -1,3 -3,2 -2,0 -4,-2 -4,-4 0,-2 2,-3 4,-3zm-11 -2c2,0 4,2 4,4 0,2 -2,3 -4,2 -1,0 -3,-2 -3,-4 0,-2 2,-3 3,-2zm-10 -3c2,0 3,2 3,4 0,2 -1,3 -3,3 -2,-1 -3,-3 -3,-5 0,-2 1,-3 3,-2zm-42 -11c2,0 4,2 4,4 0,2 -2,3 -4,2 -2,0 -3,-2 -3,-4 0,-2 1,-3 3,-2zm-10 -3c2,0 3,2 3,4 0,2 -1,3 -3,3 -2,-1 -4,-3 -4,-5 0,-2 2,-3 4,-2zm73 7c2,1 3,2 3,4 0,2 -1,3 -3,3 -2,-1 -4,-3 -4,-4 0,-2 2,-3 4,-3zm-11 -3c2,1 4,3 4,5 0,2 -2,3 -4,2 -1,0 -3,-2 -3,-4 0,-2 2,-3 3,-3zm-10 -3c2,1 3,3 3,5 0,2 -1,3 -3,2 -2,0 -3,-2 -3,-4 0,-2 1,-3 3,-3zm-42 -11c2,1 4,3 4,5 0,1 -2,3 -4,2 -2,0 -3,-2 -3,-4 0,-2 1,-3 3,-3zm-10 -3c2,1 3,3 3,5 0,2 -1,3 -3,2 -2,0 -4,-2 -4,-4 0,-2 2,-3 4,-3zm73 8c2,0 3,2 3,4 0,2 -1,3 -3,3 -2,-1 -4,-3 -4,-5 0,-2 2,-3 4,-2zm-11 -3c2,0 4,2 4,4 0,2 -2,3 -4,3 -1,-1 -3,-3 -3,-5 0,-1 2,-3 3,-2zm-10 -3c2,1 3,3 3,4 0,2 -1,3 -3,3 -2,-1 -3,-2 -3,-4 0,-2 1,-3 3,-3zm-42 -11c2,0 4,2 4,4 0,2 -2,3 -4,3 -2,-1 -3,-3 -3,-5 0,-2 1,-3 3,-2zm-10 -3c2,1 3,3 3,4 0,2 -1,3 -3,3 -2,-1 -4,-3 -4,-4 0,-2 2,-3 4,-3zm73 7c2,1 3,3 3,5 0,2 -1,3 -3,2 -2,0 -4,-2 -4,-4 0,-2 2,-3 4,-3zm-11 -2c2,0 4,2 4,4 0,2 -2,3 -4,2 -1,0 -3,-2 -3,-4 0,-2 2,-3 3,-2zm-10 -3c2,0 3,2 3,4 0,2 -1,3 -3,3 -2,-1 -3,-3 -3,-5 0,-2 1,-3 3,-2zm-42 -11c2,0 4,2 4,4 0,2 -2,3 -4,2 -2,0 -3,-2 -3,-4 0,-2 1,-3 3,-2zm-10 -3c2,0 3,2 3,4 0,2 -1,3 -3,3 -2,-1 -4,-3 -4,-5 0,-2 2,-3 4,-2zm62 4c2,1 4,3 4,5 0,2 -2,3 -4,2 -1,0 -3,-2 -3,-4 0,-2 2,-3 3,-3zm-10 -3c2,1 3,3 3,5 0,2 -1,3 -3,2 -2,0 -3,-2 -3,-4 0,-2 1,-3 3,-3zm-42 -11c2,1 4,3 4,5 0,1 -2,3 -4,2 -2,0 -3,-2 -3,-4 0,-2 1,-3 3,-3zm-10 -3c2,1 3,3 3,5 0,2 -1,3 -3,2 -2,0 -4,-2 -4,-4 0,-2 2,-3 4,-3zm73 8c2,0 3,2 3,4 0,2 -1,3 -3,3 -2,-1 -4,-3 -4,-5 0,-2 2,-3 4,-2zm-11 -3c2,0 4,2 4,4 0,2 -2,3 -4,3 -1,-1 -3,-3 -3,-5 0,-1 2,-3 3,-2zm-10 -3c2,1 3,3 3,4 0,2 -1,3 -3,3 -2,-1 -3,-2 -3,-4 0,-2 1,-3 3,-3zm-42 -11c2,0 4,2 4,4 0,2 -2,3 -4,3 -2,-1 -3,-3 -3,-5 0,-2 1,-3 3,-2zm-10 -3c2,1 3,3 3,4 0,2 -1,3 -3,3 -2,-1 -4,-3 -4,-4 0,-2 2,-3 4,-3zm73 7c2,1 3,3 3,5 0,2 -1,3 -3,2 -2,0 -4,-2 -4,-4 0,-2 2,-3 4,-3zm-11 -2c2,0 4,2 4,4 0,2 -2,3 -4,2 -1,0 -3,-2 -3,-4 0,-2 2,-3 3,-2zm-10 -3c2,0 3,2 3,4 0,2 -1,3 -3,3 -2,-1 -3,-3 -3,-5 0,-2 1,-3 3,-2zm-42 -11c2,0 4,2 4,4 0,2 -2,3 -4,2 -2,0 -3,-2 -3,-4 0,-2 1,-3 3,-2zm-10 -3c2,0 3,2 3,4 0,2 -1,3 -3,3 -2,-1 -4,-3 -4,-5 0,-2 2,-3 4,-2zm73 7c2,1 3,2 3,4 0,2 -1,3 -3,3 -2,-1 -4,-3 -4,-4 0,-2 2,-3 4,-3zm-11 -3c2,1 4,3 4,5 0,2 -2,3 -4,2 -1,0 -3,-2 -3,-4 0,-2 2,-3 3,-3zm-10 -3c2,1 3,3 3,5 0,2 -1,3 -3,2 -2,0 -3,-2 -3,-4 0,-2 1,-3 3,-3zm-42 -11c2,1 4,3 4,5 0,1 -2,3 -4,2 -2,0 -3,-2 -3,-4 0,-2 1,-3 3,-3zm63 5c2,0 3,2 3,4 0,2 -1,3 -3,3 -2,-1 -4,-3 -4,-5 0,-2 2,-3 4,-2zm-11 -3c2,0 4,2 4,4 0,2 -2,3 -4,3 -1,-1 -3,-3 -3,-5 0,-1 2,-3 3,-2zm-10 -3c2,1 3,3 3,4 0,2 -1,3 -3,3 -2,-1 -3,-2 -3,-4 0,-2 1,-3 3,-3zm-31 -8c1,0 3,2 3,4 0,2 -2,3 -3,3 -2,-1 -4,-3 -4,-5 0,-2 2,-3 4,-2zm-11 -3c2,0 4,2 4,4 0,2 -2,3 -4,3 -2,-1 -3,-3 -3,-5 0,-2 1,-3 3,-2zm63 4c2,1 3,3 3,5 0,2 -1,3 -3,2 -2,0 -4,-2 -4,-4 0,-2 2,-3 4,-3zm-11 -2c2,0 4,2 4,4 0,2 -2,3 -4,2 -1,0 -3,-2 -3,-4 0,-2 2,-3 3,-2zm-10 -3c2,0 3,2 3,4 0,2 -1,3 -3,3 -2,-1 -3,-3 -3,-5 0,-2 1,-3 3,-2zm-31 -9c1,1 3,3 3,5 0,2 -2,3 -3,2 -2,0 -4,-2 -4,-4 0,-2 2,-3 4,-3zm-11 -2c2,0 4,2 4,4 0,2 -2,3 -4,2 -2,0 -3,-2 -3,-4 0,-2 1,-3 3,-2zm63 4c2,1 3,2 3,4 0,2 -1,3 -3,3 -2,-1 -4,-3 -4,-4 0,-2 2,-3 4,-3zm-11 -3c2,1 4,3 4,5 0,2 -2,3 -4,2 -1,0 -3,-2 -3,-4 0,-2 2,-3 3,-3zm-10 -3c2,1 3,3 3,5 0,2 -1,3 -3,2 -2,0 -3,-2 -3,-4 0,-2 1,-3 3,-3zm-31 -8c1,1 3,2 3,4 0,2 -2,3 -3,3 -2,-1 -4,-3 -4,-4 0,-2 2,-4 4,-3zm-11 -3c2,1 4,3 4,5 0,1 -2,3 -4,2 -2,0 -3,-2 -3,-4 0,-2 1,-3 3,-3zm63 5c2,0 3,2 3,4 0,2 -1,3 -3,3 -2,-1 -4,-3 -4,-5 0,-2 2,-3 4,-2zm-11 -3c2,0 4,2 4,4 0,2 -2,3 -4,3 -1,-1 -3,-3 -3,-5 0,-1 2,-3 3,-2zm-10 -3c2,1 3,3 3,4 0,2 -1,3 -3,3 -2,-1 -3,-2 -3,-4 0,-2 1,-3 3,-3zm-42 -11c2,0 4,2 4,4 0,2 -2,3 -4,3 -2,-1 -3,-3 -3,-5 0,-2 1,-3 3,-2zm52 2c2,0 4,2 4,4 0,2 -2,3 -4,2 -1,0 -3,-2 -3,-4 0,-2 2,-3 3,-2zm-52 -14c2,0 4,2 4,4 0,2 -2,3 -4,2 -2,0 -3,-2 -3,-4 0,-2 1,-3 3,-2zm63 4c2,1 3,2 3,4 0,2 -1,3 -3,3 -2,-1 -4,-3 -4,-4 0,-2 2,-3 4,-3zm-11 -3c2,1 4,3 4,5 0,2 -2,3 -4,2 -1,0 -3,-2 -3,-4 0,-2 2,-3 3,-3zm-41 -11c1,1 3,2 3,4 0,2 -2,3 -3,3 -2,-1 -4,-3 -4,-4 0,-2 2,-4 4,-3zm-11 -3c2,1 4,3 4,5 0,1 -2,3 -4,2 -2,0 -3,-2 -3,-4 0,-2 1,-3 3,-3zm63 5c2,0 3,2 3,4 0,2 -1,3 -3,3 -2,-1 -4,-3 -4,-5 0,-2 2,-3 4,-2zm-11 -3c2,0 4,2 4,4 0,2 -2,3 -4,3 -1,-1 -3,-3 -3,-5 0,-1 2,-3 3,-2zm-31 -9c2,1 3,3 3,5 0,2 -1,3 -3,2 -2,0 -3,-2 -3,-4 0,-2 1,-3 3,-3zm-10 -2c1,0 3,2 3,4 0,2 -2,3 -3,3 -2,-1 -4,-3 -4,-5 0,-2 2,-3 4,-2zm-11 -3c2,0 4,2 4,4 0,2 -2,3 -4,3 -2,-1 -3,-3 -3,-5 0,-2 1,-3 3,-2zm73 7c2,1 4,3 4,5 0,1 -2,3 -4,2 -2,0 -3,-2 -3,-4 0,-2 1,-3 3,-3zm-10 -3c2,1 3,3 3,5 0,2 -1,3 -3,2 -2,0 -4,-2 -4,-4 0,-2 2,-3 4,-3zm-11 -2c2,0 4,2 4,4 0,2 -2,3 -4,2 -1,0 -3,-2 -3,-4 0,-2 2,-3 3,-2zm-31 -9c2,1 3,3 3,5 0,1 -1,3 -3,2 -2,0 -3,-2 -3,-4 0,-2 1,-3 3,-3zm-10 -3c1,1 3,3 3,5 0,2 -2,3 -3,2 -2,0 -4,-2 -4,-4 0,-2 2,-3 4,-3zm62 5c2,0 4,2 4,4 0,2 -2,3 -4,3 -2,-1 -3,-3 -3,-5 0,-2 1,-3 3,-2zm-10 -3c2,1 3,2 3,4 0,2 -1,3 -3,3 -2,-1 -4,-3 -4,-4 0,-2 2,-3 4,-3zm-11 -3c2,1 4,3 4,5 0,2 -2,3 -4,2 -1,0 -3,-2 -3,-4 0,-2 2,-3 3,-3zm-10 -3c2,1 3,3 3,5 0,2 -1,3 -3,2 -2,0 -3,-2 -3,-4 0,-2 1,-3 3,-3zm-11 -2c2,0 4,2 4,4 0,2 -2,3 -4,3 -1,-1 -3,-3 -3,-5 0,-2 2,-3 3,-2zm-10 -3c2,0 3,2 3,4 0,2 -1,3 -3,3 -2,-1 -3,-3 -3,-5 0,-2 1,-3 3,-2zm52 2c2,0 4,2 4,4 0,2 -2,3 -4,2 -2,0 -3,-2 -3,-4 0,-2 1,-3 3,-2zm-10 -3c2,0 3,2 3,4 0,2 -1,3 -3,3 -2,-1 -4,-3 -4,-5 0,-2 2,-3 4,-2zm-11 -3c2,0 4,2 4,4 0,2 -2,3 -4,3 -1,-1 -3,-3 -3,-5 0,-1 2,-3 3,-2zm-10 -3c2,1 3,3 3,4 0,2 -1,4 -3,3 -2,-1 -3,-2 -3,-4 0,-2 1,-3 3,-3zm-11 -3c2,1 4,3 4,5 0,2 -2,3 -4,2 -1,0 -3,-2 -3,-4 0,-2 2,-3 3,-3zm32 -4c2,1 3,3 3,5 0,2 -1,3 -3,2 -2,0 -4,-2 -4,-4 0,-2 2,-3 4,-3zm-11 -2c2,0 4,2 4,4 0,2 -2,3 -4,2 -1,0 -3,-2 -3,-4 0,-2 2,-3 3,-2zm-10 -3c2,0 3,2 3,4 0,2 -1,3 -3,3 -2,-1 -3,-3 -3,-5 0,-2 1,-3 3,-2zm-11 -3c2,0 4,2 4,4 0,2 -2,3 -4,3 -1,-1 -3,-3 -3,-5 0,-1 2,-3 3,-2zm32 -4c2,1 3,2 3,4 0,2 -1,3 -3,3 -2,-1 -4,-3 -4,-4 0,-2 2,-3 4,-3zm-11 -3c2,1 4,3 4,5 0,2 -2,3 -4,2 -1,0 -3,-2 -3,-4 0,-2 2,-3 3,-3zm-10 -3c2,1 3,3 3,5 0,2 -1,3 -3,2 -2,0 -3,-2 -3,-4 0,-2 1,-3 3,-3zm10 -9c2,0 4,2 4,4 0,2 -2,3 -4,3 -1,-1 -3,-3 -3,-5 0,-1 2,-3 3,-2zm-10 -3c2,1 3,3 3,4 0,2 -1,4 -3,3 -2,-1 -3,-2 -3,-4 0,-2 1,-3 3,-3z"/>
   <g>
    <path class="filhck" d="M60 313c45,-8 62,-20 75,-70 26,-96 66,-72 132,-89 50,-13 86,-24 137,-33 -7,-13 -14,-27 -19,-43 -4,-11 -7,-19 -9,-26 -19,10 -77,22 -92,27 -22,7 -46,14 -70,20 -27,7 -83,11 -98,36 -20,34 -40,134 -55,175 0,1 -1,2 -1,3z"/>
    <path class="filhck" d="M942 295c10,0 21,0 34,-1 -7,-25 -15,-60 -16,-67 -6,-40 -24,-97 -67,-116 -39,-17 -185,-38 -227,-59 -7,17 -22,38 -40,60 45,11 90,17 133,28 68,18 78,44 108,101 15,29 30,45 51,50 9,2 14,3 24,4z"/>
    <path class="filhck" d="M591 70c-44,14 -124,9 -163,-11 17,37 42,69 77,92 1,-1 1,-1 2,-1 28,-19 59,-49 84,-80z"/>
   </g>
   <path class="fil1" d="M882 786c0,-3 0,-7 0,-10 -3,-1 -1,-11 1,-25 0,0 -1,-1 -1,-1 0,-2 1,-3 2,-4 0,-2 1,-4 1,-6 -1,0 -3,-1 -3,-3 0,-2 2,-4 4,-4l0 0c0,-2 1,-4 1,-6 0,0 -1,0 -1,0 -2,1 -4,0 -4,-2 0,-2 2,-4 4,-4 0,-1 1,-1 1,0 1,-3 1,-5 1,-7 -1,1 -1,1 -2,1 -2,1 -4,0 -4,-2 0,-2 2,-4 4,-5 0,0 1,0 1,0 0,0 0,-1 0,-1 0,-2 0,-3 0,-4 -1,0 -1,0 -1,0 -2,0 -4,-1 -4,-3 0,-1 2,-3 3,-4 0,-2 -1,-4 -2,-6 0,0 -1,-1 -1,-2 0,0 0,0 1,-1 -2,-3 -3,-7 -4,-10 0,2 -2,3 -4,4 -1,0 -3,-1 -3,-3 0,-1 2,-3 3,-4 1,0 2,0 3,0 -1,-2 -2,-4 -2,-5l-1 0c-1,0 -3,-1 -3,-3 0,-1 1,-2 1,-3 -4,-13 -6,-26 2,-44 -2,0 -3,-1 -3,-2 0,-2 2,-4 3,-5 1,0 2,0 3,1 1,-3 3,-6 5,-8 0,-1 0,-1 0,-2 0,0 -1,-1 -1,-1 0,-2 1,-3 2,-4 0,-2 0,-4 0,-6 -1,-1 -2,-2 -2,-3 0,-1 1,-1 1,-2 -1,-8 -2,-17 -2,-27 0,-2 1,-4 3,-6 -1,0 -2,-1 -2,-2 0,-2 2,-4 4,-4 0,0 1,0 1,0 0,0 0,0 0,-1 0,-1 0,-3 -1,-4 -2,0 -4,-1 -4,-3 0,-1 1,-2 1,-2 -1,-3 -3,-6 -4,-9 -1,2 -2,4 -4,4 -1,0 -3,-1 -3,-3 0,-1 2,-3 3,-4 1,0 2,0 3,0 -1,0 -1,-1 -1,-1 0,-2 0,-3 0,-5 -1,0 -1,0 -2,1 -1,0 -3,-1 -3,-3 0,-2 2,-4 3,-4 1,0 1,0 1,0 -1,-2 -1,-4 -1,-6 -2,1 -3,-1 -3,-2 0,-2 1,-3 2,-4 -1,-2 -1,-5 -2,-7 0,0 0,-1 0,-2 0,0 0,0 0,0 -1,-7 -3,-14 -5,-20 0,0 -1,1 -2,1 -2,1 -3,-1 -3,-2 0,-2 1,-4 3,-5 0,0 0,0 0,0 0,-2 -1,-3 -1,-5 -2,0 -2,-1 -2,-3 0,0 0,-1 0,-2 -2,-6 -5,-12 -7,-17 0,0 0,0 0,0 -2,0 -4,-1 -4,-3 0,-1 0,-2 1,-2 -1,-3 -3,-6 -5,-8 0,2 -1,3 -3,3 -2,1 -3,0 -3,-2 0,-2 1,-4 3,-5 0,0 0,0 1,0 -6,-7 -12,-12 -19,-15 0,1 -1,3 -3,3 -2,1 -3,0 -3,-2 0,-1 0,-2 1,-3 -3,-1 -6,-1 -10,-1 0,0 -12,4 -13,4 -9,0 -13,2 -14,7 0,1 1,1 1,2 0,1 -1,3 -2,4 0,2 0,4 0,6 1,0 2,1 2,2 0,2 -1,3 -2,4l0 0c0,2 0,4 0,6 1,0 2,1 2,3 0,2 -2,4 -4,4 0,0 0,0 0,0 -3,7 -8,14 -11,21 0,0 0,0 1,0 2,-1 3,0 3,2 0,2 -1,4 -3,5 -2,0 -3,-1 -4,-2 -1,3 -3,7 -4,11 1,1 1,1 1,1 0,1 -1,2 -1,3 0,2 0,5 0,8 0,0 1,1 1,2 0,0 -1,1 -1,2 1,4 2,7 3,12 1,2 2,4 2,7 1,-1 2,-2 3,-2 2,0 3,1 3,3 0,2 -1,3 -3,4 -1,0 -1,0 -2,0 1,2 1,4 1,6 1,-1 1,-1 1,-1 2,0 3,1 3,3 0,2 -1,3 -3,4 1,2 1,4 1,6 1,0 2,1 2,2 0,2 0,3 -1,4 0,2 0,4 0,6 1,1 1,2 1,3 0,1 0,2 -1,3 0,2 0,4 0,7 1,0 1,1 1,2 0,1 0,2 -1,3 0,2 -1,5 -1,7 1,0 2,1 2,2 0,2 -1,3 -2,4 0,2 -1,4 -1,6 2,0 3,1 3,3 0,2 -1,3 -3,4 0,0 0,0 0,0 -1,2 -1,4 -1,6 0,0 0,0 1,-1 2,0 3,1 3,3 0,2 -1,4 -3,4 -1,1 -2,0 -2,0 -2,11 -4,23 -7,33 1,1 2,2 2,3 0,1 -1,3 -3,4 0,2 -1,4 -1,6 0,0 0,0 0,0 2,-1 4,0 4,2 0,2 -2,4 -4,4 -1,1 -1,1 -2,0 -2,7 -4,14 -6,21 1,1 1,1 1,3 0,1 -1,3 -3,4 -1,2 -2,4 -2,7 0,-1 1,-1 2,-2 2,0 3,1 3,3 0,2 -1,4 -3,4 -2,1 -3,0 -4,-2 -1,4 -2,8 -4,12 1,0 1,1 1,1 0,2 -1,3 -2,4 -1,2 -2,4 -3,7 0,-1 1,-1 1,-1 2,-1 4,0 4,2 0,2 -2,4 -4,5 -1,0 -3,-1 -3,-2 -2,4 -3,7 -4,10 0,0 0,0 -1,0 1,1 1,2 1,3 0,0 0,1 0,2 1,4 3,10 6,17 1,0 1,0 1,0 2,-1 4,0 4,2 0,2 -1,3 -2,4 6,16 10,36 -3,56 0,0 1,0 1,0 2,-1 4,0 4,2 0,2 -2,4 -4,4 -2,1 -3,0 -3,-2 0,0 0,0 0,-1 -5,7 -4,17 1,23 0,-1 1,-2 2,-2 2,0 4,1 4,3 0,1 -1,2 -2,3 1,2 1,5 2,8 0,1 0,1 0,1 0,0 0,0 0,0 0,3 0,7 -1,11 1,0 1,1 1,1 0,1 -1,2 -1,3 0,2 -1,5 -1,7 1,0 2,1 2,3 0,2 -2,4 -4,4 0,0 0,0 0,0 -1,3 -1,5 -2,7 0,-1 1,-1 2,-1 2,-1 4,0 4,2 0,2 -2,4 -4,4 -2,1 -3,0 -3,-2 -1,4 -3,8 -5,11 1,1 1,1 1,2 0,2 -1,4 -3,5 -1,0 -1,0 -1,0 -3,3 -5,6 -8,8 1,0 1,0 1,0 11,-4 3,-6 33,-9 9,-2 13,-11 37,-11 1,0 1,0 1,0 0,0 1,0 2,0l0 0c2,0 4,0 6,-1 0,-1 1,-1 2,-2 1,0 1,0 2,0 2,0 3,-1 4,-1 -1,-12 3,-13 4,-19 -2,0 -3,-1 -3,-3 0,-1 1,-3 2,-3 0,-2 -1,-5 -1,-8 -1,0 -1,0 -1,-1 -1,-3 -2,-7 -3,-11 -1,2 -2,3 -4,4 -2,0 -3,-1 -3,-3 0,-2 1,-3 3,-4 1,0 2,0 3,0 -1,-2 -1,-4 -1,-6 -1,0 -1,0 -2,1 -2,0 -3,-1 -3,-3 0,-2 1,-4 3,-4 1,0 1,0 1,0 0,-3 0,-4 0,-6 0,0 0,0 -1,0 -2,1 -3,0 -3,-2 0,-2 1,-4 3,-5 0,0 1,0 1,0 0,-1 -1,-3 -1,-5 -2,0 -3,-1 -3,-3 0,-1 1,-3 2,-3 0,-2 -1,-4 -1,-6l0 -1c-1,0 -1,-1 -1,-2 0,0 0,-1 0,-1 -5,-27 -1,-26 4,-34 0,0 -1,1 -1,1 -2,0 -3,-1 -3,-3 0,-2 1,-4 3,-4 2,-1 3,0 3,1 2,-4 3,-9 4,-17 0,-2 0,-4 1,-6 -1,0 -1,-1 -1,-1 0,-1 0,-2 1,-3 0,-2 0,-5 0,-8 0,0 -1,-1 -1,-2 0,-1 1,-2 1,-3 1,-2 1,-4 1,-7 -1,0 -2,-1 -2,-2 0,-1 1,-3 2,-3 0,-3 0,-5 0,-7 -1,0 -2,-1 -2,-2 0,-2 1,-3 2,-4 0,-2 0,-4 0,-6 -1,0 -2,-1 -2,-3 0,-1 1,-3 2,-4l0 -5c-1,-1 -2,-2 -2,-3 0,-2 1,-3 2,-4l1 -6c-2,0 -3,-1 -3,-2 0,-2 1,-4 3,-4l0 -6c-2,0 -3,-1 -3,-3 0,-1 1,-3 3,-4 0,-2 0,-4 0,-5 -2,0 -3,-1 -3,-3 0,-2 1,-4 3,-4 0,-2 0,-4 0,-6 -1,0 -3,-1 -3,-2 0,-2 2,-4 3,-5 1,-2 1,-4 1,-5l0 0c-2,0 -4,-1 -4,-3 0,-2 2,-4 4,-4 0,0 0,0 1,0 0,-3 1,-5 2,-8 -1,1 -2,2 -3,2 -2,1 -4,0 -4,-2 0,-2 2,-4 4,-4 1,-1 3,0 3,2 4,-22 3,-41 0,-62 0,2 -1,4 -3,5 -2,0 -4,-1 -4,-3 0,-2 2,-4 4,-4 1,-1 3,0 3,2 0,-3 -1,-6 -1,-9 -1,1 -2,1 -2,1 -2,1 -4,0 -4,-2 0,-2 2,-4 4,-4 0,-1 1,-1 1,-1 0,-1 -1,-3 -1,-5 0,0 0,0 0,0 -2,1 -4,-1 -4,-2 0,-2 2,-4 3,-5 0,-1 0,-3 0,-5 -2,0 -3,-1 -3,-3 0,-1 1,-2 2,-3 0,-2 -1,-5 -1,-7 0,0 -1,-1 -1,-2 0,-1 0,-2 1,-2 0,-3 -1,-6 -1,-10 0,0 0,0 0,0 0,0 0,-1 0,-1 -1,-16 -2,-40 -2,-40 1,0 2,0 3,1 1,-1 2,-2 3,-2 2,0 3,1 3,3 0,1 0,2 -1,2 2,2 4,4 5,7 1,-1 2,-2 3,-2 2,-1 4,0 4,2 0,2 -2,4 -4,5 0,0 0,0 0,0 1,1 1,3 2,5 1,1 2,2 2,3 0,0 0,0 -1,0 3,7 4,14 5,21 1,-1 2,-2 3,-2 1,-1 3,1 3,2 0,2 -2,4 -3,5 -1,0 -2,0 -3,0 0,2 0,5 0,8 0,-2 1,-2 3,-3 1,0 3,1 3,3 0,2 -2,4 -3,4 -2,1 -3,0 -4,-2l0 3c-2,7 -1,13 1,19 0,-1 1,-2 3,-2 1,-1 3,1 3,2 0,2 -2,4 -3,5 -1,0 -1,0 -1,0 0,2 1,3 2,5 1,0 2,1 2,3 0,0 0,1 0,1 2,6 4,12 5,19 1,0 1,-1 2,-1 2,0 3,1 3,3 0,2 -1,4 -3,4 -1,0 -1,0 -2,0 0,2 0,4 0,6 1,0 1,0 2,-1 2,0 3,1 3,3 0,2 -1,4 -3,4 -1,1 -2,0 -2,0 -1,6 -2,11 -3,18 -2,5 -2,10 -2,17 0,0 0,0 0,1 0,0 0,0 0,1 0,12 2,28 5,44 0,-1 1,-1 2,-1 2,-1 3,0 3,2 0,2 -1,4 -3,5 0,0 -1,0 -1,0 0,2 1,3 1,5 0,0 0,0 0,0 2,0 3,1 3,3 0,1 -1,3 -2,4 0,2 1,4 1,6 1,0 1,1 1,2 0,1 0,1 0,2 1,7 3,14 4,21 1,-2 2,-3 4,-4 1,0 3,1 3,3 0,2 -2,4 -3,4 -2,1 -2,0 -3,0l1 6c1,0 1,0 2,0 1,-1 3,0 3,2 0,2 -2,4 -3,5l-1 0c1,1 1,3 2,5 1,0 2,1 2,3 0,1 -1,2 -1,3 1,5 2,10 2,15 4,21 -1,37 -2,38 2,0 5,0 7,0 0,0 1,0 1,0 1,-1 3,0 3,1 2,0 3,1 4,1 0,0 0,0 0,-1 0,-1 2,-3 3,-4 2,0 4,1 4,3 0,1 -1,3 -3,4 3,1 6,3 8,4 0,-1 1,-1 2,-1 0,-1 1,-1 1,-1 -1,-1 -2,-3 -4,-6 0,0 0,0 0,0l-1 -2zm-166 142c0,0 -1,0 -1,0l1 0c0,0 0,0 0,0zm173 -129c0,0 0,0 0,-1 0,1 0,1 0,1zm-87 92c2,-1 4,1 4,3 0,1 -2,3 -4,4 -2,0 -3,-1 -3,-3 0,-2 1,-3 3,-4zm-10 3c2,-1 3,0 3,2 0,2 -1,4 -3,5 -2,0 -4,-1 -4,-3 0,-2 2,-4 4,-4zm-11 3c2,-1 4,0 4,2 0,2 -2,4 -4,5 -2,0 -3,-1 -3,-3 0,-2 1,-4 3,-4zm-10 2c2,0 3,1 3,3 0,2 -1,4 -3,4 -2,1 -4,0 -4,-2 0,-2 2,-4 4,-5zm-11 3c2,0 4,1 4,3 0,2 -2,4 -4,4 -2,1 -3,0 -3,-2 0,-2 1,-4 3,-5zm-10 3c2,0 3,1 3,3 0,1 -1,3 -3,4 -2,0 -4,-1 -4,-3 0,-1 2,-3 4,-4zm-11 3c2,-1 4,0 4,2 0,2 -2,4 -4,5 -2,0 -3,-1 -3,-3 0,-2 1,-4 3,-4zm63 -29c2,-1 4,0 4,2 0,2 -2,4 -4,5 -2,0 -3,-1 -3,-3 0,-2 1,-4 3,-4zm-10 2c2,0 3,1 3,3 0,2 -1,4 -3,4 -2,1 -4,0 -4,-2 0,-2 2,-4 4,-5zm-11 3c2,0 4,1 4,3 0,2 -2,4 -4,4 -2,1 -3,0 -3,-2 0,-2 1,-4 3,-5zm-10 3c2,0 3,1 3,3 0,2 -1,3 -3,4 -2,1 -4,-1 -4,-3 0,-1 2,-3 4,-4zm-11 3c2,-1 4,1 4,2 0,2 -2,4 -4,5 -2,0 -3,-1 -3,-3 0,-2 1,-4 3,-4zm-10 3c2,-1 3,0 3,2 0,2 -1,4 -3,5 -2,0 -4,-1 -4,-3 0,-2 2,-4 4,-4zm52 -27c2,0 4,1 4,3 0,2 -2,4 -4,4 -2,1 -3,0 -3,-2 0,-2 1,-4 3,-5zm-10 3c2,0 3,1 3,3 0,2 -1,4 -3,4 -2,1 -4,-1 -4,-2 0,-2 2,-4 4,-5zm-11 3c2,-1 4,1 4,2 0,2 -2,4 -4,5 -2,0 -3,-1 -3,-3 0,-2 1,-4 3,-4zm-10 3c2,-1 3,0 3,2 0,2 -1,4 -3,5 -2,0 -4,-1 -4,-3 0,-2 2,-4 4,-4zm-11 3c2,-1 4,0 4,2 0,2 -2,4 -4,4 -2,1 -3,0 -3,-2 0,-2 1,-4 3,-4zm-10 2c2,0 3,1 3,3 0,2 -1,4 -3,4 -2,1 -4,0 -4,-2 0,-2 2,-4 4,-5zm42 -23c2,-1 3,0 3,2 0,2 -1,4 -3,5 -2,0 -4,-1 -4,-3 0,-2 2,-4 4,-4zm-11 3c2,-1 4,0 4,2 0,2 -2,4 -4,5 -2,0 -3,-1 -3,-3 0,-2 1,-4 3,-4zm-10 2c2,0 3,1 3,3 0,2 -1,4 -3,4 -2,1 -4,0 -4,-2 0,-2 2,-4 4,-5zm-11 3c2,0 4,1 4,3 0,2 -2,4 -4,4 -2,1 -3,0 -3,-2 0,-2 1,-4 3,-5zm-10 3c2,0 3,1 3,3 0,1 -1,3 -3,4 -2,0 -4,-1 -4,-3 0,-1 2,-3 4,-4zm42 -24c2,0 3,1 3,3 0,2 -1,4 -3,4 -2,1 -4,0 -4,-2 0,-2 2,-4 4,-5zm-11 3c2,0 4,1 4,3 0,2 -2,4 -4,4 -2,1 -3,0 -3,-2 0,-2 1,-4 3,-5zm-10 3c2,0 3,1 3,3 0,2 -1,3 -3,4 -2,1 -4,-1 -4,-3 0,-1 2,-3 4,-4zm-11 3c2,-1 4,1 4,2 0,2 -2,4 -4,5 -2,0 -3,-1 -3,-3 0,-2 1,-4 3,-4zm-10 3c2,-1 3,0 3,2 0,2 -1,4 -3,5 -2,0 -4,-1 -4,-3 0,-2 2,-4 4,-4zm42 -24c2,0 3,1 3,3 0,2 -1,4 -3,4 -2,1 -4,-1 -4,-2 0,-2 2,-4 4,-5zm-11 3c2,-1 4,1 4,2 0,2 -2,4 -4,5 -2,0 -3,-1 -3,-3 0,-2 1,-4 3,-4zm-10 3c2,-1 3,0 3,2 0,2 -1,4 -3,5 -2,0 -4,-1 -4,-3 0,-2 2,-4 4,-4zm-11 3c2,-1 4,0 4,2 0,2 -2,4 -4,4 -2,1 -3,0 -3,-2 0,-2 1,-4 3,-4zm-10 2c2,0 3,1 3,3 0,2 -1,4 -3,4 -2,1 -4,0 -4,-2 0,-2 2,-4 4,-5zm42 -23c2,-1 3,0 3,2 0,2 -1,4 -3,5 -2,0 -4,-1 -4,-3 0,-2 2,-4 4,-4zm-11 3c2,-1 4,0 4,2 0,2 -2,4 -4,5 -2,0 -3,-1 -3,-3 0,-2 1,-4 3,-4zm-10 2c2,0 3,1 3,3 0,2 -1,4 -3,4 -2,1 -4,0 -4,-2 0,-2 2,-4 4,-5zm-11 3c2,0 4,1 4,3 0,2 -2,4 -4,4 -2,1 -3,0 -3,-2 0,-2 1,-4 3,-5zm-10 3c2,0 3,1 3,3 0,1 -1,3 -3,4 -2,0 -4,-1 -4,-3 0,-1 2,-3 4,-4zm-11 3c2,-1 4,0 4,2 0,2 -2,4 -4,5 -2,0 -3,-1 -3,-3 0,-2 1,-4 3,-4zm53 -27c2,0 3,1 3,3 0,2 -1,4 -3,4 -2,1 -4,0 -4,-2 0,-2 2,-4 4,-5zm-11 3c2,0 4,1 4,3 0,2 -2,4 -4,4 -2,1 -3,0 -3,-2 0,-2 1,-4 3,-5zm-10 3c2,0 3,1 3,3 0,2 -1,3 -3,4 -2,1 -4,-1 -4,-3 0,-1 2,-3 4,-4zm-11 3c2,-1 4,1 4,2 0,2 -2,4 -4,5 -2,0 -3,-1 -3,-3 0,-2 1,-4 3,-4zm-10 3c2,-1 3,0 3,2 0,2 -1,4 -3,5 -2,0 -4,-1 -4,-3 0,-2 2,-4 4,-4zm125 -46c2,-1 4,0 4,2 0,2 -2,4 -4,5 -1,0 -3,-1 -3,-3 0,-2 2,-4 3,-4zm-10 3c2,-1 3,0 3,2 0,2 -1,4 -3,4 -2,1 -3,0 -3,-2 0,-2 1,-4 3,-4zm-73 19c2,0 3,1 3,3 0,2 -1,4 -3,4 -2,1 -4,-1 -4,-2 0,-2 2,-4 4,-5zm-11 3c2,-1 4,1 4,2 0,2 -2,4 -4,5 -2,0 -3,-1 -3,-3 0,-2 1,-4 3,-4zm-10 3c2,-1 3,0 3,2 0,2 -1,4 -3,5 -2,0 -4,-1 -4,-3 0,-2 2,-4 4,-4zm-11 3c2,-1 4,0 4,2 0,2 -2,4 -4,4 -2,1 -3,0 -3,-2 0,-2 1,-4 3,-4zm-10 2c2,0 3,1 3,3 0,2 -1,4 -3,4 -2,1 -4,0 -4,-2 0,-2 2,-4 4,-5zm125 -46c2,0 4,1 4,3 0,2 -2,4 -4,4 -1,1 -3,0 -3,-2 0,-2 2,-4 3,-5zm-10 3c2,0 3,1 3,3 0,2 -1,4 -3,4 -2,1 -3,-1 -3,-2 0,-2 1,-4 3,-5zm-73 20c2,-1 3,0 3,2 0,2 -1,4 -3,5 -2,0 -4,-1 -4,-3 0,-2 2,-4 4,-4zm-11 3c2,-1 4,0 4,2 0,2 -2,4 -4,5 -2,0 -3,-1 -3,-3 0,-2 1,-4 3,-4zm-10 2c2,0 3,1 3,3 0,2 -1,4 -3,4 -2,1 -4,0 -4,-2 0,-2 2,-4 4,-5zm-11 3c2,0 4,1 4,3 0,2 -2,4 -4,4 -2,1 -3,0 -3,-2 0,-2 1,-4 3,-5zm-10 3c2,0 3,1 3,3 0,1 -1,3 -3,4 -2,0 -4,-1 -4,-3 0,-1 2,-3 4,-4zm125 -46c2,0 4,1 4,3 0,1 -2,3 -4,4 -1,0 -3,-1 -3,-3 0,-1 2,-3 3,-4zm-10 3c2,-1 3,0 3,2 0,2 -1,4 -3,5 -2,0 -3,-1 -3,-3 0,-2 1,-4 3,-4zm-73 19c2,0 3,1 3,3 0,2 -1,4 -3,4 -2,1 -4,0 -4,-2 0,-2 2,-4 4,-5zm-11 3c2,0 4,1 4,3 0,2 -2,4 -4,4 -2,1 -3,0 -3,-2 0,-2 1,-4 3,-5zm-10 3c2,0 3,1 3,3 0,2 -1,3 -3,4 -2,1 -4,-1 -4,-3 0,-1 2,-3 4,-4zm-11 3c2,-1 4,1 4,2 0,2 -2,4 -4,5 -2,0 -3,-1 -3,-3 0,-2 1,-4 3,-4zm-10 3c2,-1 3,0 3,2 0,2 -1,4 -3,5 -2,0 -4,-1 -4,-3 0,-2 2,-4 4,-4zm125 -46c2,-1 4,0 4,2 0,2 -2,4 -4,5 -1,0 -3,-1 -3,-3 0,-2 2,-4 3,-4zm-10 3c2,-1 3,0 3,2 0,2 -1,4 -3,4 -2,1 -3,0 -3,-2 0,-2 1,-4 3,-4zm-63 16c2,0 4,1 4,3 0,2 -2,4 -4,4 -2,1 -3,0 -3,-2 0,-2 1,-4 3,-5zm-10 3c2,0 3,1 3,3 0,2 -1,4 -3,4 -2,1 -4,-1 -4,-2 0,-2 2,-4 4,-5zm-11 3c2,-1 4,1 4,2 0,2 -2,4 -4,5 -2,0 -3,-1 -3,-3 0,-2 1,-4 3,-4zm-10 3c2,-1 3,0 3,2 0,2 -1,4 -3,5 -2,0 -4,-1 -4,-3 0,-2 2,-4 4,-4zm-11 3c2,-1 4,0 4,2 0,2 -2,4 -4,4 -2,1 -3,0 -3,-2 0,-2 1,-4 3,-4zm-10 2c2,0 3,1 3,3 0,2 -1,4 -3,4 -2,1 -4,0 -4,-2 0,-2 2,-4 4,-5zm125 -46c2,0 4,1 4,3 0,2 -2,4 -4,4 -1,1 -3,0 -3,-2 0,-2 2,-4 3,-5zm-10 3c2,0 3,1 3,3 0,2 -1,4 -3,4 -2,1 -3,-1 -3,-2 0,-2 1,-4 3,-5zm-63 17c2,-1 4,1 4,3 0,1 -2,3 -4,4 -2,0 -3,-1 -3,-3 0,-2 1,-3 3,-4zm-10 3c2,-1 3,0 3,2 0,2 -1,4 -3,5 -2,0 -4,-1 -4,-3 0,-2 2,-4 4,-4zm-11 3c2,-1 4,0 4,2 0,2 -2,4 -4,5 -2,0 -3,-1 -3,-3 0,-2 1,-4 3,-4zm-10 2c2,0 3,1 3,3 0,2 -1,4 -3,4 -2,1 -4,0 -4,-2 0,-2 2,-4 4,-5zm-11 3c2,0 4,1 4,3 0,2 -2,4 -4,4 -2,1 -3,0 -3,-2 0,-2 1,-4 3,-5zm-10 3c2,0 3,1 3,3 0,1 -1,3 -3,4 -2,0 -4,-1 -4,-3 0,-1 2,-3 4,-4zm125 -46c2,0 4,1 4,3 0,1 -2,3 -4,4 -1,0 -3,-1 -3,-3 0,-1 2,-3 3,-4zm-10 3c2,-1 3,0 3,2 0,2 -1,4 -3,5 -2,0 -3,-1 -3,-3 0,-2 1,-4 3,-4zm-63 17c2,-1 4,0 4,2 0,2 -2,4 -4,5 -2,0 -3,-1 -3,-3 0,-2 1,-4 3,-4zm-10 2c2,0 3,1 3,3 0,2 -1,4 -3,4 -2,1 -4,0 -4,-2 0,-2 2,-4 4,-5zm-11 3c2,0 4,1 4,3 0,2 -2,4 -4,4 -2,1 -3,0 -3,-2 0,-2 1,-4 3,-5zm-10 3c2,0 3,1 3,3 0,2 -1,3 -3,4 -2,1 -4,-1 -4,-3 0,-1 2,-3 4,-4zm-11 3c2,-1 4,1 4,2 0,2 -2,4 -4,5 -2,0 -3,-1 -3,-3 0,-2 1,-4 3,-4zm-10 3c2,-1 3,0 3,2 0,2 -1,4 -3,5 -2,0 -4,-1 -4,-3 0,-2 2,-4 4,-4zm-11 3c2,-1 4,0 4,2 0,2 -2,4 -4,4 -2,1 -3,0 -3,-2 0,-2 1,-4 3,-4zm136 -49c2,-1 4,0 4,2 0,2 -2,4 -4,5 -1,0 -3,-1 -3,-3 0,-2 2,-4 3,-4zm-10 3c2,-1 3,0 3,2 0,2 -1,4 -3,4 -2,1 -3,0 -3,-2 0,-2 1,-4 3,-4zm-63 16c2,0 4,1 4,3 0,2 -2,4 -4,4 -2,1 -3,0 -3,-2 0,-2 1,-4 3,-5zm-10 3c2,0 3,1 3,3 0,2 -1,4 -3,4 -2,1 -4,-1 -4,-2 0,-2 2,-4 4,-5zm-11 3c2,-1 4,1 4,2 0,2 -2,4 -4,5 -2,0 -3,-1 -3,-3 0,-2 1,-4 3,-4zm-10 3c2,-1 3,0 3,2 0,2 -1,4 -3,5 -2,0 -4,-1 -4,-3 0,-2 2,-4 4,-4zm-11 3c2,-1 4,0 4,2 0,2 -2,4 -4,4 -2,1 -3,0 -3,-2 0,-2 1,-4 3,-4zm-10 2c2,0 3,1 3,3 0,2 -1,4 -3,4 -2,1 -4,0 -4,-2 0,-2 2,-4 4,-5zm-11 3c2,0 4,1 4,3 0,2 -2,4 -4,4 -2,1 -3,-1 -3,-2 0,-2 1,-4 3,-5zm136 -49c2,0 4,1 4,3 0,2 -2,4 -4,4 -1,1 -3,0 -3,-2 0,-2 2,-4 3,-5zm-10 3c2,0 3,1 3,3 0,2 -1,4 -3,4 -2,1 -3,-1 -3,-2 0,-2 1,-4 3,-5zm-10 3c1,-1 3,1 3,3 0,1 -2,3 -3,4 -2,0 -4,-1 -4,-3 0,-2 2,-4 4,-4zm-53 14c2,-1 4,1 4,3 0,1 -2,3 -4,4 -2,0 -3,-1 -3,-3 0,-2 1,-3 3,-4zm-10 3c2,-1 3,0 3,2 0,2 -1,4 -3,5 -2,0 -4,-1 -4,-3 0,-2 2,-4 4,-4zm-11 3c2,-1 4,0 4,2 0,2 -2,4 -4,5 -2,0 -3,-1 -3,-3 0,-2 1,-4 3,-4zm-10 2c2,0 3,1 3,3 0,2 -1,4 -3,4 -2,1 -4,0 -4,-2 0,-2 2,-4 4,-5zm-11 3c2,0 4,1 4,3 0,2 -2,4 -4,4 -2,1 -3,0 -3,-2 0,-2 1,-4 3,-5zm-10 3c2,0 3,1 3,3 0,1 -1,3 -3,4 -2,0 -4,-1 -4,-3 0,-1 2,-3 4,-4zm115 -43c2,-1 3,0 3,2 0,2 -1,4 -3,5 -2,0 -3,-1 -3,-3 0,-2 1,-4 3,-4zm-10 3c1,-1 3,0 3,2 0,2 -2,4 -3,5 -2,0 -4,-1 -4,-3 0,-2 2,-4 4,-4zm-53 14c2,-1 4,0 4,2 0,2 -2,4 -4,5 -2,0 -3,-1 -3,-3 0,-2 1,-4 3,-4zm-10 2c2,0 3,1 3,3 0,2 -1,4 -3,4 -2,1 -4,0 -4,-2 0,-2 2,-4 4,-5zm-11 3c2,0 4,1 4,3 0,2 -2,4 -4,4 -2,1 -3,0 -3,-2 0,-2 1,-4 3,-5zm-10 3c2,0 3,1 3,3 0,2 -1,3 -3,4 -2,1 -4,-1 -4,-3 0,-1 2,-3 4,-4zm-11 3c2,-1 4,1 4,2 0,2 -2,4 -4,5 -2,0 -3,-1 -3,-3 0,-2 1,-4 3,-4zm-10 3c2,-1 3,0 3,2 0,2 -1,4 -3,5 -2,0 -4,-1 -4,-3 0,-2 2,-4 4,-4zm115 -43c2,-1 3,0 3,2 0,2 -1,4 -3,4 -2,1 -3,0 -3,-2 0,-2 1,-4 3,-4zm-10 2c1,0 3,1 3,3 0,2 -2,4 -3,4 -2,1 -4,0 -4,-2 0,-2 2,-4 4,-5zm-53 14c2,0 4,1 4,3 0,2 -2,4 -4,4 -2,1 -3,0 -3,-2 0,-2 1,-4 3,-5zm-10 3c2,0 3,1 3,3 0,2 -1,4 -3,4 -2,1 -4,-1 -4,-2 0,-2 2,-4 4,-5zm-11 3c2,-1 4,1 4,2 0,2 -2,4 -4,5 -2,0 -3,-1 -3,-3 0,-2 1,-4 3,-4zm-10 3c2,-1 3,0 3,2 0,2 -1,4 -3,5 -2,0 -4,-1 -4,-3 0,-2 2,-4 4,-4zm-11 3c2,-1 4,0 4,2 0,2 -2,4 -4,4 -2,1 -3,0 -3,-2 0,-2 1,-4 3,-4zm105 -41c2,0 3,1 3,3 0,2 -1,4 -3,4 -2,1 -3,-1 -3,-2 0,-2 1,-4 3,-5zm-10 3c1,-1 3,1 3,3 0,1 -2,3 -3,4 -2,0 -4,-1 -4,-3 0,-2 2,-4 4,-4zm-53 14c2,-1 4,1 4,3 0,1 -2,3 -4,4 -2,0 -3,-1 -3,-3 0,-2 1,-3 3,-4zm-10 3c2,-1 3,0 3,2 0,2 -1,4 -3,5 -2,0 -4,-1 -4,-3 0,-2 2,-4 4,-4zm-11 3c2,-1 4,0 4,2 0,2 -2,4 -4,5 -2,0 -3,-1 -3,-3 0,-2 1,-4 3,-4zm-10 2c2,0 3,1 3,3 0,2 -1,4 -3,4 -2,1 -4,0 -4,-2 0,-2 2,-4 4,-5zm-11 3c2,0 4,1 4,3 0,2 -2,4 -4,4 -2,1 -3,0 -3,-2 0,-2 1,-4 3,-5zm105 -40c2,-1 3,0 3,2 0,2 -1,4 -3,5 -2,0 -3,-1 -3,-3 0,-2 1,-4 3,-4zm-10 3c1,-1 3,0 3,2 0,2 -2,4 -3,5 -2,0 -4,-1 -4,-3 0,-2 2,-4 4,-4zm-11 2c2,0 3,1 3,3 0,2 -1,4 -3,4 -2,1 -3,0 -3,-2 0,-2 1,-4 3,-5zm-42 12c2,-1 4,0 4,2 0,2 -2,4 -4,5 -2,0 -3,-1 -3,-3 0,-2 1,-4 3,-4zm-10 2c2,0 3,1 3,3 0,2 -1,4 -3,4 -2,1 -4,0 -4,-2 0,-2 2,-4 4,-5zm-11 3c2,0 4,1 4,3 0,2 -2,4 -4,4 -2,1 -3,0 -3,-2 0,-2 1,-4 3,-5zm-10 3c2,0 3,1 3,3 0,2 -1,3 -3,4 -2,1 -4,-1 -4,-3 0,-1 2,-3 4,-4zm-11 3c2,-1 4,1 4,2 0,2 -2,4 -4,5 -2,0 -3,-1 -3,-3 0,-2 1,-4 3,-4zm105 -40c2,-1 3,0 3,2 0,2 -1,4 -3,4 -2,1 -3,0 -3,-2 0,-2 1,-4 3,-4zm-10 2c1,0 3,1 3,3 0,2 -2,4 -3,4 -2,1 -4,0 -4,-2 0,-2 2,-4 4,-5zm-11 3c2,0 3,1 3,3 0,2 -1,4 -3,4 -2,1 -3,-1 -3,-3 0,-1 1,-3 3,-4zm-42 11c2,0 4,1 4,3 0,2 -2,4 -4,4 -2,1 -3,0 -3,-2 0,-2 1,-4 3,-5zm-10 3c2,0 3,1 3,3 0,2 -1,4 -3,4 -2,1 -4,-1 -4,-2 0,-2 2,-4 4,-5zm-11 3c2,-1 4,1 4,2 0,2 -2,4 -4,5 -2,0 -3,-1 -3,-3 0,-2 1,-4 3,-4zm-10 3c2,-1 3,0 3,2 0,2 -1,4 -3,5 -2,0 -4,-1 -4,-3 0,-2 2,-4 4,-4zm94 -38c2,0 3,1 3,3 0,2 -1,4 -3,4 -2,1 -3,-1 -3,-2 0,-2 1,-4 3,-5zm-10 3c1,-1 3,1 3,3 0,1 -2,3 -3,4 -2,0 -4,-1 -4,-3 0,-2 2,-4 4,-4zm-11 3c2,-1 3,0 3,2 0,2 -1,4 -3,5 -2,0 -3,-1 -3,-3 0,-2 1,-4 3,-4zm-42 11c2,-1 4,1 4,3 0,1 -2,3 -4,4 -2,0 -3,-1 -3,-3 0,-2 1,-3 3,-4zm-10 3c2,-1 3,0 3,2 0,2 -1,4 -3,5 -2,0 -4,-1 -4,-3 0,-2 2,-4 4,-4zm-11 3c2,-1 4,0 4,2 0,2 -2,4 -4,5 -2,0 -3,-1 -3,-3 0,-2 1,-4 3,-4zm-10 2c2,0 3,1 3,3 0,2 -1,4 -3,4 -2,1 -4,0 -4,-2 0,-2 2,-4 4,-5zm104 -40c2,0 4,1 4,3 0,1 -2,3 -4,4 -1,0 -3,-1 -3,-3 0,-1 2,-3 3,-4zm-10 3c2,-1 3,0 3,2 0,2 -1,4 -3,5 -2,0 -3,-1 -3,-3 0,-2 1,-4 3,-4zm-10 3c1,-1 3,0 3,2 0,2 -2,4 -3,5 -2,0 -4,-1 -4,-3 0,-2 2,-4 4,-4zm-11 2c2,0 3,1 3,3 0,2 -1,4 -3,4 -2,1 -3,0 -3,-2 0,-2 1,-4 3,-5zm-42 12c2,-1 4,0 4,2 0,2 -2,4 -4,5 -2,0 -3,-1 -3,-3 0,-2 1,-4 3,-4zm-10 2c2,0 3,1 3,3 0,2 -1,4 -3,4 -2,1 -4,0 -4,-2 0,-2 2,-4 4,-5zm-11 3c2,0 4,1 4,3 0,2 -2,4 -4,4 -2,1 -3,0 -3,-2 0,-2 1,-4 3,-5zm-10 3c2,0 3,1 3,3 0,2 -1,3 -3,4 -2,1 -4,-1 -4,-3 0,-1 2,-3 4,-4zm104 -40c2,-1 4,0 4,2 0,2 -2,4 -4,5 -1,0 -3,-1 -3,-3 0,-2 2,-4 3,-4zm-10 3c2,-1 3,0 3,2 0,2 -1,4 -3,4 -2,1 -3,0 -3,-2 0,-2 1,-4 3,-4zm-10 2c1,0 3,1 3,3 0,2 -2,4 -3,4 -2,1 -4,0 -4,-2 0,-2 2,-4 4,-5zm-11 3c2,0 3,1 3,3 0,2 -1,4 -3,4 -2,1 -3,-1 -3,-3 0,-1 1,-3 3,-4zm-42 11c2,0 4,1 4,3 0,2 -2,4 -4,4 -2,1 -3,0 -3,-2 0,-2 1,-4 3,-5zm-10 3c2,0 3,1 3,3 0,2 -1,4 -3,4 -2,1 -4,-1 -4,-2 0,-2 2,-4 4,-5zm-11 3c2,-1 4,1 4,2 0,2 -2,4 -4,5 -2,0 -3,-1 -3,-3 0,-2 1,-4 3,-4zm-10 3c2,-1 3,0 3,2 0,2 -1,4 -3,5 -2,0 -4,-1 -4,-3 0,-2 2,-4 4,-4zm104 -41c2,0 4,1 4,3 0,2 -2,4 -4,4 -1,1 -3,0 -3,-2 0,-2 2,-4 3,-5zm-10 3c2,0 3,1 3,3 0,2 -1,4 -3,4 -2,1 -3,-1 -3,-2 0,-2 1,-4 3,-5zm-10 3c1,-1 3,1 3,3 0,1 -2,3 -3,4 -2,0 -4,-1 -4,-3 0,-2 2,-4 4,-4zm-11 3c2,-1 3,0 3,2 0,2 -1,4 -3,5 -2,0 -3,-1 -3,-3 0,-2 1,-4 3,-4zm-31 8c2,0 3,1 3,3 0,2 -1,4 -3,4 -2,1 -4,-1 -4,-2 0,-2 2,-4 4,-5zm-11 3c2,-1 4,1 4,3 0,1 -2,3 -4,4 -2,0 -3,-1 -3,-3 0,-2 1,-3 3,-4zm-10 3c2,-1 3,0 3,2 0,2 -1,4 -3,5 -2,0 -4,-1 -4,-3 0,-2 2,-4 4,-4zm-11 3c2,-1 4,0 4,2 0,2 -2,4 -4,5 -2,0 -3,-1 -3,-3 0,-2 1,-4 3,-4zm94 -38c2,0 4,1 4,3 0,1 -2,3 -4,4 -1,0 -3,-1 -3,-3 0,-1 2,-3 3,-4zm-10 3c2,-1 3,0 3,2 0,2 -1,4 -3,5 -2,0 -3,-1 -3,-3 0,-2 1,-4 3,-4zm-10 3c1,-1 3,0 3,2 0,2 -2,4 -3,5 -2,0 -4,-1 -4,-3 0,-2 2,-4 4,-4zm-42 11c2,-1 3,0 3,2 0,2 -1,4 -3,5 -2,0 -4,-1 -4,-3 0,-2 2,-4 4,-4zm-11 3c2,-1 4,0 4,2 0,2 -2,4 -4,5 -2,0 -3,-1 -3,-3 0,-2 1,-4 3,-4zm-10 2c2,0 3,1 3,3 0,2 -1,4 -3,4 -2,1 -4,0 -4,-2 0,-2 2,-4 4,-5zm-11 3c2,0 4,1 4,3 0,2 -2,4 -4,4 -2,1 -3,0 -3,-2 0,-2 1,-4 3,-5zm94 -37c2,-1 4,0 4,2 0,2 -2,4 -4,5 -1,0 -3,-1 -3,-3 0,-2 2,-4 3,-4zm-10 3c2,-1 3,0 3,2 0,2 -1,4 -3,4 -2,1 -3,0 -3,-2 0,-2 1,-4 3,-4zm-10 2c1,0 3,1 3,3 0,2 -2,4 -3,4 -2,1 -4,0 -4,-2 0,-2 2,-4 4,-5zm-42 12c2,-1 3,0 3,2 0,2 -1,4 -3,4 -2,1 -4,0 -4,-2 0,-2 2,-4 4,-4zm-11 2c2,0 4,1 4,3 0,2 -2,4 -4,4 -2,1 -3,0 -3,-2 0,-2 1,-4 3,-5zm-10 3c2,0 3,1 3,3 0,2 -1,4 -3,4 -2,1 -4,-1 -4,-2 0,-2 2,-4 4,-5zm-11 3c2,-1 4,1 4,2 0,2 -2,4 -4,5 -2,0 -3,-1 -3,-3 0,-2 1,-4 3,-4zm94 -38c2,0 4,1 4,3 0,2 -2,4 -4,4 -1,1 -3,0 -3,-2 0,-2 2,-4 3,-5zm-10 3c2,0 3,1 3,3 0,2 -1,4 -3,4 -2,1 -3,-1 -3,-2 0,-2 1,-4 3,-5zm-10 3c1,-1 3,1 3,3 0,1 -2,3 -3,4 -2,0 -4,-1 -4,-3 0,-2 2,-4 4,-4zm-11 3c2,-1 3,0 3,2 0,2 -1,4 -3,5 -2,0 -3,-1 -3,-3 0,-2 1,-4 3,-4zm-31 8c2,0 3,1 3,3 0,2 -1,4 -3,4 -2,1 -4,-1 -4,-2 0,-2 2,-4 4,-5zm-11 3c2,-1 4,1 4,3 0,1 -2,3 -4,4 -2,0 -3,-1 -3,-3 0,-2 1,-3 3,-4zm-10 3c2,-1 3,0 3,2 0,2 -1,4 -3,5 -2,0 -4,-1 -4,-3 0,-2 2,-4 4,-4zm-11 3c2,-1 4,0 4,2 0,2 -2,4 -4,5 -2,0 -3,-1 -3,-3 0,-2 1,-4 3,-4zm84 -35c2,-1 3,0 3,2 0,2 -1,4 -3,5 -2,0 -3,-1 -3,-3 0,-2 1,-4 3,-4zm-10 3c1,-1 3,0 3,2 0,2 -2,4 -3,5 -2,0 -4,-1 -4,-3 0,-2 2,-4 4,-4zm-11 2c2,0 3,1 3,3 0,2 -1,4 -3,4 -2,1 -3,0 -3,-2 0,-2 1,-4 3,-5zm-42 12c2,-1 4,0 4,2 0,2 -2,4 -4,5 -2,0 -3,-1 -3,-3 0,-2 1,-4 3,-4zm-10 2c2,0 3,1 3,3 0,2 -1,4 -3,4 -2,1 -4,0 -4,-2 0,-2 2,-4 4,-5zm-11 3c2,0 4,1 4,3 0,2 -2,4 -4,4 -2,1 -3,0 -3,-2 0,-2 1,-4 3,-5zm84 -34c2,-1 3,0 3,2 0,2 -1,4 -3,4 -2,1 -3,0 -3,-2 0,-2 1,-4 3,-4zm-10 2c1,0 3,1 3,3 0,2 -2,4 -3,4 -2,1 -4,0 -4,-2 0,-2 2,-4 4,-5zm-11 3c2,0 3,1 3,3 0,2 -1,4 -3,4 -2,1 -3,-1 -3,-3 0,-1 1,-3 3,-4zm-42 11c2,0 4,1 4,3 0,2 -2,4 -4,4 -2,1 -3,0 -3,-2 0,-2 1,-4 3,-5zm-10 3c2,0 3,1 3,3 0,2 -1,4 -3,4 -2,1 -4,-1 -4,-2 0,-2 2,-4 4,-5zm-11 3c2,-1 4,1 4,2 0,2 -2,4 -4,5 -2,0 -3,-1 -3,-3 0,-2 1,-4 3,-4zm84 -35c2,0 3,1 3,3 0,2 -1,4 -3,4 -2,1 -3,-1 -3,-2 0,-2 1,-4 3,-5zm-10 3c1,-1 3,1 3,3 0,1 -2,3 -3,4 -2,0 -4,-1 -4,-3 0,-2 2,-4 4,-4zm-11 3c2,-1 3,0 3,2 0,2 -1,4 -3,5 -2,0 -3,-1 -3,-3 0,-2 1,-4 3,-4zm-10 3c1,-1 3,0 3,2 0,2 -2,4 -3,4 -2,1 -4,0 -4,-2 0,-2 2,-4 4,-4zm-32 8c2,-1 4,1 4,3 0,1 -2,3 -4,4 -2,0 -3,-1 -3,-3 0,-2 1,-3 3,-4zm-10 3c2,-1 3,0 3,2 0,2 -1,4 -3,5 -2,0 -4,-1 -4,-3 0,-2 2,-4 4,-4zm-11 3c2,-1 4,0 4,2 0,2 -2,4 -4,5 -2,0 -3,-1 -3,-3 0,-2 1,-4 3,-4zm84 -35c2,-1 3,0 3,2 0,2 -1,4 -3,5 -2,0 -3,-1 -3,-3 0,-2 1,-4 3,-4zm-10 3c1,-1 3,0 3,2 0,2 -2,4 -3,5 -2,0 -4,-1 -4,-3 0,-2 2,-4 4,-4zm-11 2c2,0 3,1 3,3 0,2 -1,4 -3,4 -2,1 -3,0 -3,-2 0,-2 1,-4 3,-5zm-42 12c2,-1 4,0 4,2 0,2 -2,4 -4,5 -2,0 -3,-1 -3,-3 0,-2 1,-4 3,-4zm-10 2c2,0 3,1 3,3 0,2 -1,4 -3,4 -2,1 -4,0 -4,-2 0,-2 2,-4 4,-5zm-11 3c2,0 4,1 4,3 0,2 -2,4 -4,4 -2,1 -3,0 -3,-2 0,-2 1,-4 3,-5zm84 -34c2,-1 3,0 3,2 0,2 -1,4 -3,4 -2,1 -3,0 -3,-2 0,-2 1,-4 3,-4zm-10 2c1,0 3,1 3,3 0,2 -2,4 -3,4 -2,1 -4,0 -4,-2 0,-2 2,-4 4,-5zm-11 3c2,0 3,1 3,3 0,2 -1,4 -3,4 -2,1 -3,-1 -3,-3 0,-1 1,-3 3,-4zm-42 11c2,0 4,1 4,3 0,2 -2,4 -4,4 -2,1 -3,0 -3,-2 0,-2 1,-4 3,-5zm-10 3c2,0 3,1 3,3 0,2 -1,4 -3,4 -2,1 -4,-1 -4,-2 0,-2 2,-4 4,-5zm-11 3c2,-1 4,1 4,2 0,2 -2,4 -4,5 -2,0 -3,-1 -3,-3 0,-2 1,-4 3,-4zm-10 3c2,-1 3,0 3,2 0,2 -1,4 -3,5 -2,0 -4,-1 -4,-3 0,-2 2,-4 4,-4zm84 -35c1,-1 3,1 3,3 0,1 -2,3 -3,4 -2,0 -4,-1 -4,-3 0,-2 2,-4 4,-4zm-11 3c2,-1 3,0 3,2 0,2 -1,4 -3,5 -2,0 -3,-1 -3,-3 0,-2 1,-4 3,-4zm-10 3c1,-1 3,0 3,2 0,2 -2,4 -3,4 -2,1 -4,0 -4,-2 0,-2 2,-4 4,-4zm-32 8c2,0 4,1 4,3 0,1 -2,3 -4,4 -2,0 -3,-1 -3,-3 0,-2 1,-3 3,-4zm-10 3c2,-1 3,0 3,2 0,2 -1,4 -3,5 -2,0 -4,-1 -4,-3 0,-2 2,-4 4,-4zm-11 3c2,-1 4,0 4,2 0,2 -2,4 -4,5 -2,0 -3,-1 -3,-3 0,-2 1,-4 3,-4zm-10 2c2,0 3,1 3,3 0,2 -1,4 -3,4 -2,1 -4,0 -4,-2 0,-2 2,-4 4,-5zm84 -34c1,-1 3,0 3,2 0,2 -2,4 -3,5 -2,0 -4,-1 -4,-3 0,-2 2,-4 4,-4zm-11 2c2,0 3,1 3,3 0,2 -1,4 -3,4 -2,1 -3,0 -3,-2 0,-2 1,-4 3,-5zm-10 3c1,0 3,1 3,3 0,2 -2,4 -3,4 -2,1 -4,0 -4,-2 0,-2 2,-4 4,-5zm-32 9c2,-1 4,0 4,2 0,2 -2,4 -4,5 -2,0 -3,-1 -3,-3 0,-2 1,-4 3,-4zm-10 2c2,0 3,1 3,3 0,2 -1,4 -3,4 -2,1 -4,0 -4,-2 0,-2 2,-4 4,-5zm-11 3c2,0 4,1 4,3 0,2 -2,4 -4,4 -2,1 -3,0 -3,-2 0,-2 1,-4 3,-5zm-10 3c2,0 3,1 3,3 0,2 -1,3 -3,4 -2,1 -4,-1 -4,-3 0,-1 2,-3 4,-4zm84 -35c1,0 3,1 3,3 0,2 -2,4 -3,4 -2,1 -4,0 -4,-2 0,-2 2,-4 4,-5zm-11 3c2,0 3,1 3,3 0,2 -1,4 -3,4 -2,1 -3,-1 -3,-3 0,-1 1,-3 3,-4zm-10 3c1,-1 3,1 3,2 0,2 -2,4 -3,5 -2,0 -4,-1 -4,-3 0,-2 2,-4 4,-4zm-32 8c2,0 4,1 4,3 0,2 -2,4 -4,4 -2,1 -3,0 -3,-2 0,-2 1,-4 3,-5zm-10 3c2,0 3,1 3,3 0,2 -1,4 -3,4 -2,1 -4,-1 -4,-2 0,-2 2,-4 4,-5zm-11 3c2,-1 4,1 4,2 0,2 -2,4 -4,5 -2,0 -3,-1 -3,-3 0,-2 1,-4 3,-4zm63 -29c2,-1 3,0 3,2 0,2 -1,4 -3,5 -2,0 -3,-1 -3,-3 0,-2 1,-4 3,-4zm-10 3c1,-1 3,0 3,2 0,2 -2,4 -3,4 -2,1 -4,0 -4,-2 0,-2 2,-4 4,-4zm-11 2c2,0 4,1 4,3 0,2 -2,4 -4,4 -2,1 -3,0 -3,-2 0,-2 1,-4 3,-5zm-21 6c2,0 4,1 4,3 0,1 -2,3 -4,4 -2,0 -3,-1 -3,-3 0,-2 1,-3 3,-4zm-10 3c2,-1 3,0 3,2 0,2 -1,4 -3,5 -2,0 -4,-1 -4,-3 0,-2 2,-4 4,-4zm-11 3c2,-1 4,0 4,2 0,2 -2,4 -4,5 -2,0 -3,-1 -3,-3 0,-2 1,-4 3,-4zm53 -27c1,0 3,1 3,3 0,2 -2,4 -3,4 -2,1 -4,0 -4,-2 0,-2 2,-4 4,-5zm-11 3c2,0 4,1 4,3 0,2 -2,3 -4,4 -2,0 -3,-1 -3,-3 0,-1 1,-3 3,-4zm-10 3c2,-1 3,0 3,2 0,2 -1,4 -3,5 -2,0 -4,-1 -4,-3 0,-2 2,-4 4,-4zm-11 3c2,-1 4,0 4,2 0,2 -2,4 -4,5 -2,0 -3,-1 -3,-3 0,-2 1,-4 3,-4zm-10 2c2,0 3,1 3,3 0,2 -1,4 -3,4 -2,1 -4,0 -4,-2 0,-2 2,-4 4,-5zm42 -23c1,-1 3,1 3,2 0,2 -2,4 -3,5 -2,0 -4,-1 -4,-3 0,-2 2,-4 4,-4zm-11 3c2,-1 4,0 4,2 0,2 -2,4 -4,5 -2,0 -3,-1 -3,-3 0,-2 1,-4 3,-4zm-10 3c2,-1 3,0 3,2 0,2 -1,4 -3,4 -2,1 -4,0 -4,-2 0,-2 2,-4 4,-4zm-11 2c2,0 4,1 4,3 0,2 -2,4 -4,4 -2,1 -3,0 -3,-2 0,-2 1,-4 3,-5zm-10 3c2,0 3,1 3,3 0,2 -1,4 -3,4 -2,1 -4,-1 -4,-2 0,-2 2,-4 4,-5zm21 -18c2,0 3,1 3,3 0,2 -1,4 -3,4 -2,1 -4,-1 -4,-2 0,-2 2,-4 4,-5zm-11 3c2,0 4,1 4,3 0,1 -2,3 -4,4 -2,0 -3,-1 -3,-3 0,-2 1,-3 3,-4zm-10 3c2,-1 3,0 3,2 0,2 -1,4 -3,5 -2,0 -4,-1 -4,-3 0,-2 2,-4 4,-4z"/>
   <path class="fil1" d="M836 476c16,19 20,11 32,26l7 10 11 14c19,23 -4,-7 10,14 6,9 34,20 47,37l4 5c-15,-16 -19,-16 -39,-26 -29,-13 -23,-5 -39,-40 -16,-34 -16,-13 -33,-40zm-728 -21c6,42 19,68 33,106 6,20 5,33 5,53 0,55 -6,35 11,85 -22,-52 -12,-29 -18,-84 -2,-17 -6,-26 -8,-39l-1 -12c-4,-38 -19,-64 -22,-109zm887 223c-4,12 -15,37 -24,46 -10,8 -3,29 -1,38 -4,-10 -16,-35 -8,-48 5,-7 19,-10 33,-36z"/>
   <path class="fil1" d="M507 162c-1,1 -3,1 -5,0 -54,-34 -84,-87 -102,-147 -21,19 -18,23 -5,59 21,60 55,97 107,129 5,3 4,3 9,0 1,0 2,-1 4,-1 43,-24 133,-117 141,-159 -3,-5 -13,-17 -19,-20l-1 0c-28,53 -74,102 -123,135 -1,1 -4,3 -6,4zm-80 -116c37,24 142,29 180,4 5,-7 9,-14 14,-21 -24,7 -49,11 -73,12 -53,5 -94,0 -138,-28 3,9 6,18 10,27 1,3 4,4 7,6z"/>
   <path class="fil1" d="M626 942l-24 6 -31 10m-87 7c3,-2 5,-3 7,-4 9,-3 41,-10 65,-13 17,-3 40,-9 60,-16m-257 7c-15,-3 -13,-5 -23,-6 -3,-1 -16,-1 -19,-1 26,9 42,15 53,16m229 -25c-8,0 -16,2 -23,3 -38,10 -75,15 -90,15m116 -18l-2 0m11 -1c-4,0 -7,0 -11,1m318 -621c-25,-7 -43,-23 -61,-56 -28,-54 -36,-78 -100,-95 -44,-11 -91,-18 -137,-29 -1,0 -1,-1 -2,-1 -38,43 -87,86 -110,96 -3,1 -7,-2 -9,-3 -38,-24 -68,-49 -89,-83 -1,0 -1,0 -2,1 -52,9 -88,20 -138,33 -53,13 -102,6 -121,69 -14,47 -16,73 -74,87 -8,2 -12,3 -19,4 -7,22 -13,43 -23,65 -17,38 17,82 -14,129 -36,53 32,231 35,243 3,12 12,24 16,40 28,-12 59,-14 93,-18 1,-1 2,-1 3,-1 -1,-7 -8,-11 -6,-31 5,-69 18,-41 29,-124 -4,-38 -8,-38 -3,-77 5,-34 2,-28 2,-61 0,-6 0,-19 7,-22 35,-27 30,-77 35,-111l4 -18 0 0c-6,29 9,68 -8,94 0,1 0,2 0,3 2,7 4,13 6,20 24,76 26,97 26,175l0 0 0 1c0,1 0,1 0,2 -9,-23 -23,-144 -27,-149 -10,26 -18,143 -14,167 7,27 -18,33 4,91 8,20 0,33 -2,44 -3,12 1,14 3,25 4,22 0,103 11,121 22,3 48,1 71,5 13,2 178,27 180,27 14,0 30,0 49,-2 13,-1 25,-2 38,-5 19,-4 37,-10 55,-16 27,-10 86,-21 112,-30 19,-6 58,-13 60,-14 5,-22 -1,-71 -8,-92 -4,4 -29,34 -51,53 -4,4 -4,4 -10,5 5,-13 35,-37 49,-55 11,-16 40,-80 24,-98 -6,4 -17,28 -22,37 -15,26 -26,48 -42,74 -5,8 -16,32 -25,35 -3,-6 1,-9 5,-17 21,-37 40,-64 61,-106 24,-48 31,-185 26,-239 -7,4 -20,124 -24,135 -8,19 -15,39 -22,60 -6,15 -21,40 -29,59 -4,9 -3,20 -8,29 -3,5 -4,8 -7,13 -5,7 -3,8 -12,9 2,-8 11,-23 15,-31 16,-31 53,-137 62,-164 8,-22 16,-123 22,-146 1,-4 2,-9 3,-15 -1,-4 -2,-8 -2,-11 -11,-41 -9,-92 -21,-139 34,50 -7,117 52,174 7,3 7,16 7,22 0,33 -2,27 2,61 6,39 1,39 -2,77 10,81 21,70 25,125 2,19 -6,24 -6,30 1,1 2,1 3,1 34,5 58,-1 86,12 43,-28 52,-113 52,-160 1,-41 31,-87 10,-117 -31,-43 19,-91 2,-129 -9,-20 -28,-65 -34,-86 -11,1 -20,2 -30,2 -11,-1 -20,-1 -31,-4zm24 -7c10,0 21,0 34,-1 -7,-25 -15,-60 -16,-67 -6,-40 -24,-97 -67,-116 -39,-17 -185,-38 -227,-59 -7,17 -22,38 -40,60 45,11 90,17 133,28 68,18 78,44 108,101 15,29 30,45 51,50 9,2 14,3 24,4zm-882 18c45,-8 62,-20 75,-70 26,-96 66,-72 132,-89 50,-13 86,-24 137,-33 -7,-13 -14,-27 -19,-43 -4,-11 -7,-19 -9,-26 -19,10 -77,22 -92,27 -22,7 -46,14 -70,20 -27,7 -83,11 -98,36 -20,34 -40,134 -55,175 0,1 -1,2 -1,3zm351 -312c48,33 97,35 153,28 19,-3 54,-9 70,-17 8,-4 24,14 31,25 35,19 229,49 258,77 22,22 35,37 44,69 4,13 7,26 10,40 3,23 15,59 20,90 9,19 21,48 30,69 20,45 -28,92 -4,126 29,41 -5,80 -6,128 0,52 -19,139 -56,177 -7,7 -21,-4 -27,-6 -20,-7 -76,-3 -84,-15 -9,-12 5,-21 4,-38 -2,-21 -16,-44 -21,-69 -7,-49 -7,-47 -4,-100 3,-17 -6,-45 -5,-68 0,-6 1,-25 1,-35 -5,-2 -9,-7 -12,-13 1,46 10,96 10,153 0,35 -8,53 -8,72 0,6 17,25 2,72 -2,6 -10,24 -10,29 0,13 2,12 4,21 2,7 2,12 3,20 3,24 3,40 1,63 -3,24 -15,14 -47,22 -77,19 -157,58 -246,58l-53 0c-5,0 -10,0 -14,-1 -1,1 -1,1 -2,0 -21,-1 -84,-5 -118,-14 -43,-11 -37,-11 -82,-11 -7,0 -20,1 -26,-1 -8,-2 -10,-7 -12,-14 -8,-28 -9,-64 -8,-95 0,-16 -5,-43 -5,-47 0,-26 6,-21 6,-35 0,-10 -6,-19 -9,-27 -15,-45 4,-36 4,-75 0,-73 16,-129 16,-187 0,-3 -1,-5 -1,-7 -3,8 -8,15 -13,17 -1,10 0,29 1,35 0,23 -11,51 -8,68 4,30 0,74 -5,99 -5,28 -14,23 -17,70 -2,17 12,26 4,38 -8,12 -65,8 -85,15 -5,2 -20,13 -27,6 -48,-49 -83,-272 -61,-305 24,-36 -8,-81 12,-126 9,-21 16,-50 25,-69 9,-43 28,-86 34,-131 0,-2 1,-4 2,-6 1,-4 3,-7 4,-12 25,-74 89,-73 156,-90 38,-10 102,-22 135,-44l0 0c2,-9 10,-17 24,-28 0,-1 1,-1 1,-1 3,-2 11,-1 11,0zm-23 747c-39,-42 -6,-3 -28,-39 -108,-175 -6,-19 32,30 1,1 1,2 2,3 3,8 32,43 -6,6zm-161 70c2,2 -1,2 4,6 3,3 30,15 35,17 21,9 97,53 116,48 -1,-2 -1,-3 -2,-5l-38 -14c-28,-11 -105,-51 -115,-52zm200 -772c37,24 142,29 180,4 5,-7 9,-14 13,-21 -23,7 -48,11 -72,12 -53,5 -94,0 -138,-28 3,9 6,18 10,27 1,3 3,4 7,6zm80 116c-1,1 -3,1 -5,0 -54,-34 -84,-87 -102,-147 -22,19 -18,23 -5,59 21,60 55,97 107,129 4,3 4,3 9,0 1,0 2,-1 3,-1 44,-24 134,-117 142,-159 -3,-5 -14,-17 -19,-20l-1 0c-28,53 -74,102 -123,135 -1,1 -5,3 -6,4zm84 -92c-44,14 -124,9 -163,-11 17,37 42,69 77,92 1,-1 1,-1 2,-1 28,-19 59,-49 84,-80z"/>
  </g>
 </g>
</svg>
