<svg xmlns="http://www.w3.org/2000/svg" xml:space="preserve" width="9.50366in" height="8.9904in" version="1.1" style="shape-rendering:geometricPrecision; text-rendering:geometricPrecision; image-rendering:optimizeQuality; fill-rule:evenodd; clip-rule:evenodd"
viewBox="0 0 697 660"
 xmlns:xlink="http://www.w3.org/1999/xlink">
 <defs>
  <style type="text/css">
   <![CDATA[
    .fil1 {fill:black}
    .fil0 {fill:white}
    .filhck {fill:white}
   ]]>
  </style>
 </defs>
 <g id="Layer_x0020_1">
  <metadata id="CorelCorpID_0Corel-Layer"/>
  <g id="_946238768">
   <path class="fil0" d="M253 20l0 0zm174 -12c6,-2 17,9 21,17 24,13 154,33 174,52 15,14 24,25 30,46 3,9 5,18 6,28 3,15 10,39 14,60 6,13 14,33 20,46 14,31 -19,63 -3,85 20,28 -3,54 -3,87 -1,35 -13,93 -38,119 -5,5 -14,-3 -18,-4 -14,-5 -52,-2 -57,-10 -6,-8 3,-14 2,-26 -1,-14 -10,-29 -13,-46 -7,-34 -8,-33 -3,-68 0,-2 -2,-60 -3,-69 -3,-1 -6,-5 -8,-9 0,30 7,66 7,103 0,24 -6,36 -6,49 0,4 12,17 1,48 -1,4 -6,16 -6,19 0,10 1,9 3,15 1,5 1,8 2,13 2,16 2,28 0,43 -2,16 -10,9 -31,15 -52,13 -106,39 -166,39l-36 0c-3,0 -6,-1 -10,-1 0,1 0,0 -1,0 -14,-1 -57,-3 -79,-9 -29,-8 -25,-8 -55,-8 -5,0 -14,1 -18,0 -6,-2 -7,-5 -8,-10 -5,-19 -6,-43 -6,-64 0,-11 -3,-29 -3,-31 0,-18 4,-15 4,-24 0,-7 -4,-13 -6,-18 -10,-30 3,-26 3,-51 0,-50 10,-86 10,-126 0,-2 0,-3 0,-5 -2,6 -5,10 -9,12 0,6 0,19 1,23 0,16 -6,35 -4,46 2,15 0,55 -3,68 -3,19 -11,15 -14,46 0,12 9,18 3,26 -5,8 -43,5 -57,10 -4,1 -13,9 -18,4 -33,-33 -56,-184 -42,-206 17,-24 -5,-54 9,-85 6,-13 10,-34 17,-46 6,-29 19,-58 23,-88 0,-2 0,-3 1,-4 1,-3 2,-5 3,-8 16,-50 60,-49 105,-61 25,-7 69,-15 91,-30 1,-6 6,-11 16,-19 0,0 0,0 1,-1 1,0 7,0 7,1 32,22 65,23 103,18 13,-1 36,-5 47,-11z"/>
   <g>
    <path class="filhck" d="M41 211c30,-5 42,-13 50,-47 17,-65 44,-49 89,-60 34,-9 58,-16 92,-22 -5,-9 -9,-19 -13,-30 -2,-7 -4,-12 -5,-17 -13,7 -53,15 -62,18 -16,5 -32,9 -48,14 -18,4 -56,7 -66,24 -13,23 -27,90 -37,118 0,1 0,1 0,2z"/>
    <path class="filhck" d="M635 199c7,0 14,0 23,-1 -5,-17 -10,-40 -11,-45 -4,-27 -16,-65 -45,-78 -26,-12 -125,-26 -153,-40 -5,11 -15,26 -27,40 30,8 61,12 90,20 46,12 52,29 72,68 10,19 21,30 35,33 6,1 9,2 16,3z"/>
    <path class="filhck" d="M399 47c-30,9 -84,6 -111,-7 12,25 29,46 52,62 1,-1 1,-1 2,-1 18,-13 40,-33 57,-54z"/>
   </g>
   <path class="fil1" d="M566 322c11,13 14,7 22,17l5 7 7 10c13,15 -3,-5 7,9 4,6 23,14 32,25l2 3c-10,-10 -12,-10 -26,-17 -20,-9 -16,-4 -27,-27 -10,-23 -10,-9 -22,-27zm-493 -15c4,28 13,45 22,71 4,14 4,22 4,36 -1,37 -5,23 7,57 -15,-35 -8,-19 -12,-57 -2,-11 -4,-17 -6,-26l0 -8c-3,-25 -13,-43 -15,-73zm598 150c-2,9 -10,26 -16,31 -6,6 -2,20 0,26 -3,-7 -12,-24 -6,-32 3,-5 13,-6 22,-25z"/>
   <path class="fil1" d="M342 109c-1,1 -3,1 -4,0 -36,-23 -56,-59 -69,-99 -14,13 -11,16 -3,40 14,40 37,65 72,87 3,2 3,2 7,0 0,0 1,-1 2,-1 29,-16 90,-79 95,-107 -2,-4 -9,-11 -13,-14l0 1c-19,35 -51,68 -83,91 -1,0 -3,2 -4,2zm-54 -78c25,16 96,19 121,3 3,-5 6,-10 9,-15 -16,5 -32,8 -49,9 -35,3 -63,0 -92,-19 1,6 4,12 6,18 1,2 2,3 5,4z"/>
   <path class="fil1" d="M422 635l-17 4 -20 7m-59 4c2,-1 4,-2 5,-2 6,-3 27,-7 44,-9 11,-2 27,-6 40,-11m-173 4c-10,-1 -9,-2 -16,-3 -1,-1 -10,-1 -12,-1 17,6 28,10 35,11m155 -17c-6,0 -11,1 -16,2 -25,7 -50,10 -61,10m78 -12l0 0m7 0c-3,0 -5,0 -7,0m213 -418c-16,-5 -29,-16 -40,-38 -19,-36 -25,-53 -68,-64 -30,-8 -61,-12 -92,-20 -1,0 -1,0 -1,-1 -26,29 -59,59 -75,65 -2,1 -4,-1 -6,-2 -26,-16 -45,-33 -60,-56 0,0 -1,1 -1,1 -35,6 -59,13 -93,22 -35,9 -69,4 -81,47 -10,32 -11,49 -50,58 -6,2 -9,2 -13,3 -5,15 -9,29 -16,44 -11,25 12,55 -9,86 -24,37 21,157 24,165 2,7 8,15 10,27 19,-9 40,-10 63,-13 0,0 1,0 2,0 0,-5 -5,-8 -4,-21 3,-43 11,-30 18,-72 3,-22 -4,-38 0,-64 3,-23 1,-19 1,-41 0,-4 0,-13 5,-14 23,-19 20,-52 23,-75l3 -12 0 0c-4,19 6,45 -5,63 0,0 0,1 -1,2 2,4 3,9 5,13 16,51 17,66 17,119l0 0 0 0c0,0 0,1 0,1 -6,-15 -14,-93 -17,-96 -8,17 -10,94 -8,109 5,18 -15,21 0,61 5,13 0,22 -2,30 -2,7 1,9 2,16 3,15 1,69 8,82 15,2 32,0 48,3 9,1 120,18 121,18 10,0 21,0 33,-1 9,0 17,-2 26,-3 12,-3 25,-7 37,-11 18,-7 58,-14 76,-20 12,-5 38,-9 40,-10 3,-15 -1,-47 -5,-62 -3,3 -20,23 -35,36 -3,2 -3,2 -7,3 4,-9 24,-25 33,-37 8,-10 27,-54 16,-66 -4,3 -11,19 -14,25 -10,18 -18,33 -29,50 -3,6 -10,21 -16,23 -2,-4 0,-6 3,-11 14,-25 27,-43 41,-71 16,-32 21,-125 17,-162 -4,3 -13,84 -16,91 -5,14 -10,27 -15,41 -3,10 -14,27 -19,40 -3,6 -2,13 -5,19 -2,4 -3,6 -5,9 -4,5 -2,5 -8,6 1,-5 7,-15 10,-21 10,-20 36,-92 42,-110 5,-15 11,-83 14,-99 1,-3 2,-6 2,-10 0,-3 -1,-5 -1,-7 -7,-28 -6,-62 -14,-94 23,34 -4,79 35,118 5,1 5,10 5,14 0,22 -2,18 1,41 4,26 1,27 -1,53 7,54 14,46 17,83 1,13 -4,16 -5,21 1,0 2,0 3,0 23,4 39,0 58,8 29,-18 34,-75 35,-108 0,-27 21,-58 6,-79 -21,-28 13,-61 2,-86 -6,-14 -19,-44 -23,-58 -7,1 -14,1 -20,1 -8,0 -14,0 -22,-2zm17 -5c7,0 14,0 23,-1 -5,-17 -10,-40 -11,-45 -4,-27 -16,-65 -45,-78 -26,-12 -125,-26 -153,-40 -5,11 -15,26 -27,40 30,8 61,12 90,20 46,12 52,29 72,68 10,19 21,30 35,33 6,1 9,2 16,3zm-594 12c30,-5 42,-13 50,-47 17,-65 44,-49 89,-60 34,-9 58,-16 92,-22 -5,-9 -9,-19 -13,-30 -2,-7 -4,-12 -5,-17 -13,7 -53,15 -62,18 -16,5 -32,9 -48,14 -18,4 -56,7 -66,24 -13,23 -27,90 -37,118 0,1 0,1 0,2zm236 -210c32,22 65,23 103,18 13,-1 36,-5 47,-11 6,-2 17,9 21,17 24,13 154,33 174,52 15,14 24,25 30,46 3,9 5,18 6,28 3,15 10,39 14,60 6,13 14,33 20,46 14,31 -19,63 -3,85 20,28 -3,54 -3,87 -1,35 -13,93 -38,119 -5,5 -14,-3 -18,-4 -14,-5 -52,-2 -57,-10 -6,-8 3,-14 2,-26 -1,-14 -10,-29 -13,-46 -7,-34 -8,-33 -3,-68 0,-2 -2,-60 -3,-69 -3,-1 -6,-5 -8,-9 0,30 7,66 7,103 0,24 -6,36 -6,49 0,4 12,17 1,48 -1,4 -6,16 -6,19 0,10 1,9 3,15 1,5 1,8 2,13 2,16 2,28 0,43 -2,16 -10,9 -31,15 -52,13 -106,39 -166,39l-36 0c-3,0 -6,-1 -10,-1 0,1 0,0 -1,0 -14,-1 -57,-3 -79,-9 -29,-8 -25,-8 -55,-8 -5,0 -14,1 -18,0 -6,-2 -7,-5 -8,-10 -5,-19 -6,-43 -6,-64 0,-11 -3,-29 -3,-31 0,-18 4,-15 4,-24 0,-7 -4,-13 -6,-18 -10,-30 3,-26 3,-51 0,-50 10,-86 10,-126 0,-2 0,-3 0,-5 -2,6 -5,10 -9,12 0,6 0,19 1,23 0,16 -6,35 -4,46 2,15 0,55 -3,68 -3,19 -11,15 -14,46 0,12 9,18 3,26 -5,8 -43,5 -57,10 -4,1 -13,9 -18,4 -33,-33 -56,-184 -42,-206 17,-24 -5,-54 9,-85 6,-13 10,-34 17,-46 6,-29 19,-58 23,-88 0,-2 0,-3 1,-4 1,-3 2,-5 3,-8 16,-50 60,-49 105,-61 25,-7 69,-15 91,-30l0 0c1,-6 6,-11 16,-19 0,0 0,0 1,-1 1,0 7,0 7,1zm-16 503c-26,-28 -4,-2 -19,-26 -72,-118 -3,-13 22,20 1,1 1,1 1,2 3,5 22,29 -4,4zm-108 47c1,2 -1,1 3,4 2,2 20,10 23,12 15,6 66,36 78,32 0,-1 0,-2 -1,-3l-26 -10c-18,-7 -70,-34 -77,-35zm135 -520c25,16 96,19 121,3 3,-5 6,-10 9,-15 -16,5 -33,8 -49,9 -35,3 -63,0 -92,-19 1,6 3,12 6,18 1,2 2,3 5,4zm54 78c-1,1 -3,1 -4,0 -36,-23 -56,-59 -69,-99 -14,13 -11,16 -3,40 14,40 37,65 72,87 3,2 3,2 7,0 0,0 1,-1 2,-1 29,-16 90,-79 95,-107 -2,-4 -9,-11 -13,-14l0 1c-19,35 -51,68 -83,91 -1,0 -3,2 -4,2zm57 -62c-30,9 -84,6 -111,-7 12,25 29,46 52,62 1,-1 1,-1 2,-1 18,-13 40,-33 57,-54z"/>
  </g>
 </g>
</svg>
