<svg xmlns="http://www.w3.org/2000/svg" xml:space="preserve" width="9.50366in" height="8.9904in" version="1.1" style="shape-rendering:geometricPrecision; text-rendering:geometricPrecision; image-rendering:optimizeQuality; fill-rule:evenodd; clip-rule:evenodd"
viewBox="0 0 836 791"
 xmlns:xlink="http://www.w3.org/1999/xlink">
 <defs>
  <style type="text/css">
   <![CDATA[
    .fil1 {fill:black}
    .fil0 {fill:white}
    .filhck {fill:white}
   ]]>
  </style>
 </defs>
 <g id="Layer_x0020_1">
  <metadata id="CorelCorpID_0Corel-Layer"/>
  <g id="_946215056">
   <path class="fil0" d="M303 24l0 0zm209 -14c6,-3 20,11 25,20 28,15 185,39 209,62 18,18 28,30 36,55 3,11 5,22 7,33 3,18 12,48 16,73 8,15 17,39 25,55 16,37 -23,75 -4,102 24,33 -4,65 -4,104 -1,42 -15,112 -46,143 -5,6 -17,-4 -21,-5 -16,-6 -62,-2 -69,-12 -6,-10 5,-17 4,-31 -2,-17 -13,-35 -17,-56 -7,-38 -4,-60 -7,-94 -3,-2 -6,-6 -9,-10 0,19 8,29 8,53 0,29 -7,44 -7,59 0,5 14,20 2,58 -2,4 -8,19 -8,23 0,11 2,10 3,17 2,6 2,10 3,16 2,19 2,33 0,52 -2,19 -12,11 -37,17 -63,16 -127,47 -199,47l-43 0c-4,0 -8,0 -12,-1 0,1 -1,1 -1,0 -17,-1 -68,-4 -96,-11 -34,-9 -29,-9 -65,-9 -6,0 -17,1 -22,-1 -6,-1 -7,-5 -9,-11 -7,-23 -7,-52 -7,-77 0,-13 -4,-35 -4,-38 0,-21 5,-17 5,-29 0,-7 -5,-14 -7,-21 -12,-35 3,-31 3,-61 0,-30 13,-59 13,-73 0,-2 -1,-3 -1,-5 -14,32 -12,63 -19,100 -4,22 -12,21 -15,55 -1,14 10,21 3,31 -6,10 -52,6 -68,12 -5,1 -16,11 -22,5 -39,-40 -67,-220 -50,-247 20,-29 -6,-65 10,-102 8,-16 13,-40 20,-55 8,-35 23,-70 28,-106 0,-2 1,-3 2,-5 1,-3 2,-6 3,-9 20,-60 72,-59 126,-73 30,-8 82,-18 109,-36 2,-7 8,-13 19,-23 0,0 1,0 1,-1 2,-1 9,0 9,1 38,26 78,28 124,22 15,-2 43,-6 56,-13z"/>
   <path class="fil1" d="M710 635c0,-1 0,-1 0,-2 0,0 0,0 0,-1 0,-1 0,-2 1,-2 0,-2 1,-4 1,-6 -1,0 -2,-1 -2,-2 0,-2 1,-3 3,-4 0,0 0,0 0,0 3,-8 5,-14 2,-26 0,1 -1,2 -2,2 -2,1 -3,0 -3,-2 0,-1 1,-3 3,-3 0,-1 1,-1 1,0 0,-2 -1,-3 -1,-5l0 0c-2,1 -3,0 -3,-2 0,-1 0,-2 1,-2 -1,-2 -1,-3 -2,-4 -1,-4 -3,-7 -4,-10 0,0 -1,0 -1,1 -1,0 -3,-1 -3,-3 0,-1 1,-2 2,-2 -3,-6 -3,-9 -5,-24 -1,0 -2,1 -2,1 -2,0 -3,-1 -3,-2 0,-2 1,-3 3,-4 0,0 1,0 1,0 0,-1 0,-3 0,-5 0,1 -1,1 -1,1 -2,0 -3,-1 -3,-2 0,-2 1,-3 3,-4 0,0 1,0 1,0 0,-1 0,-3 0,-5 0,0 -1,1 -1,1 -2,0 -3,-1 -3,-2 0,-2 1,-3 3,-4 1,0 1,0 2,1 1,-9 2,-19 4,-28 -1,0 -1,-1 -1,-1 0,-1 1,-2 1,-2 0,-2 1,-4 1,-6 -1,0 -2,-1 -2,-2 0,-2 1,-3 3,-4 0,-1 0,-3 0,-4l0 0c-1,0 -3,-1 -3,-2 0,-2 2,-3 3,-4 0,0 1,0 1,0 0,-1 0,-3 0,-4 0,0 -1,0 -1,0 -1,0 -3,-1 -3,-2 0,-2 1,-3 3,-4 0,0 -1,-1 -1,-1 -4,-4 -6,-8 -7,-11 -2,1 -3,0 -3,-2 0,-1 0,-1 1,-2 -4,-11 0,-20 -5,-34 0,0 -1,0 -2,1 -1,0 -3,-1 -3,-2 0,-2 2,-3 3,-4 -2,-4 -4,-8 -7,-12 0,0 -1,0 -1,0 -2,0 -3,0 -3,-2 0,-1 0,-2 1,-2 -2,-4 -4,-9 -6,-14 0,0 0,0 -1,0 -1,1 -2,0 -2,-2 0,-1 0,-2 2,-3 -1,-2 -1,-4 -2,-5 0,-1 0,-1 0,-1 -1,-3 -3,-6 -4,-8 0,1 -1,1 -2,2 -2,0 -3,-1 -3,-2 0,-2 1,-3 3,-4 0,0 0,0 0,0 -2,-3 -4,-4 -6,-4 0,1 -1,2 -3,2 -1,0 -2,-1 -2,-2 0,0 0,0 0,0 -1,0 -2,0 -3,0 0,0 0,1 0,1 0,1 -1,3 -3,3 -2,1 -3,0 -3,-2 0,0 0,0 0,0 -1,0 -2,1 -3,2 0,1 -1,2 -2,3 -1,0 -1,0 -1,0 -2,2 -4,5 -5,8 0,0 0,0 0,0 0,1 -1,2 -1,2 -1,2 -1,4 -1,6 1,0 2,1 2,2 0,2 -1,3 -3,4l0 0c0,1 0,3 0,4 0,0 0,0 0,0 2,0 3,1 3,2 0,2 -1,3 -3,4 0,0 0,0 -1,0 0,1 0,3 0,4 1,0 1,0 1,0 2,0 3,1 3,2 0,2 -1,3 -3,4 0,0 0,0 -1,0 0,1 0,3 0,4 1,0 1,0 1,0 2,0 3,1 3,2 0,2 -1,3 -3,4 0,0 0,0 0,0 0,1 0,3 0,4 0,0 0,0 0,0 2,0 3,1 3,2 0,2 -1,3 -3,4 0,1 0,2 0,4 2,0 3,1 3,2 0,1 -1,3 -2,3l0 5c1,0 2,1 2,2 0,1 -1,2 -2,3 0,2 0,3 0,5 1,0 2,1 2,2 0,1 -1,2 -2,3 0,1 1,3 1,5 0,0 1,1 1,2 0,1 -1,2 -1,2 0,2 0,4 0,6 0,0 1,1 1,2 0,1 -1,2 -1,2 0,2 0,4 0,6 0,0 1,1 1,2 0,1 -1,2 -1,2 0,2 -1,4 -1,6 1,0 2,1 2,2 0,1 -1,3 -2,3 -1,2 -1,3 -1,5 0,0 0,0 0,0 2,-1 3,0 3,2 0,1 -1,3 -3,3 -1,1 -2,0 -2,0 -1,3 -3,5 -4,7 0,1 0,1 0,2 0,1 -1,3 -2,3 -1,2 -1,3 -1,5 0,0 0,0 1,0 1,-1 2,0 2,2 0,1 -1,3 -2,3 -1,1 -1,1 -2,0 0,2 0,4 0,6 0,-1 1,-1 2,-1 1,-1 2,0 2,2 0,1 -1,3 -2,3 -1,1 -2,1 -2,0 0,2 0,4 0,6 0,-1 1,-1 2,-1 1,-1 2,0 2,2 0,1 -1,3 -2,3 -1,1 -1,1 -2,0 0,2 0,4 1,5 0,0 0,0 1,0 1,-1 2,0 2,2 0,1 -1,3 -2,3 -1,0 -1,0 -1,0l0 1c0,1 0,3 0,4 0,0 0,0 1,0 1,-1 2,0 2,2 0,1 -1,3 -2,3 -1,0 -1,0 -1,0 0,2 0,3 0,5 0,0 0,0 1,0 1,-1 2,0 2,2 0,1 -1,3 -2,3 -1,0 -1,0 -2,0 0,2 0,4 -1,6 1,0 2,-1 3,-1 1,-1 2,0 2,2 0,1 -1,3 -2,3 -2,1 -3,0 -3,-1 -1,6 -3,12 -4,18 1,0 1,1 1,2 0,1 -1,3 -2,3 -1,2 -1,3 -1,5 0,0 0,0 0,0 2,-1 3,0 3,2 0,1 -1,3 -3,3 0,1 -1,1 -2,0 0,3 0,5 -1,7 1,-1 2,-2 3,-2 2,-1 3,0 3,2 0,1 -1,3 -3,3 -1,1 -2,0 -3,-1 0,3 0,6 1,8 0,-1 1,-2 2,-2 2,-1 3,0 3,2 0,1 -1,3 -3,3 -1,1 -1,0 -2,0 0,1 1,1 1,2 0,1 1,2 1,3 0,0 0,0 0,0 2,-1 3,0 3,2 0,1 -1,2 -2,3 0,1 0,3 0,5 1,0 2,1 2,2 0,1 0,2 -1,2 0,2 0,4 0,6 1,0 1,1 1,2 0,0 0,1 -1,2 0,2 0,4 0,6 1,1 1,1 1,2 0,0 0,1 -1,1 0,3 0,5 0,7 1,1 1,1 1,2 0,0 0,1 -1,1 0,3 0,5 0,7 1,0 1,1 1,2 0,0 0,1 -1,2 0,2 0,4 0,6 0,0 1,1 1,2 0,1 -1,2 -1,2 -1,2 -1,4 -1,5 1,1 2,1 2,3 0,1 -1,2 -2,3 0,1 0,3 0,4 1,0 2,1 2,2 0,2 -1,4 -3,4 0,2 0,3 0,5 0,-1 0,-1 0,-1 2,0 3,1 3,2 0,2 -1,4 -3,4 0,0 -1,0 -1,0 0,2 0,4 0,5 0,0 1,0 1,-1 2,0 3,1 3,2 0,2 -1,4 -3,4 -1,0 -1,0 -2,0 -1,4 -1,8 -2,11 1,0 39,-9 46,-10 1,-1 1,-2 0,-2 -1,0 -2,-1 -2,-2 0,-1 0,-2 0,-3 -1,-3 -3,-8 0,-16 0,0 0,-1 0,-1 0,-2 0,-3 2,-4 0,-1 0,-3 0,-4 -1,0 -2,-1 -2,-2 0,-2 1,-3 2,-4 1,0 1,0 1,0 0,-1 0,-3 0,-4 0,0 0,0 -1,0 -1,0 -2,-1 -2,-2 0,-2 1,-3 2,-4l0 0c0,-1 0,-3 0,-4 -1,0 -2,-1 -2,-2 0,-1 0,-2 1,-3 0,-2 -1,-4 -1,-6 0,-1 0,-1 0,-1 -2,-6 -3,-11 -5,-16 0,0 -1,0 -1,0 -2,1 -3,0 -3,-2 0,-1 1,-3 2,-3 0,-1 0,-2 0,-2 0,0 0,-1 0,-3 -1,0 -2,-1 -2,-2 0,-1 1,-3 3,-3 0,0 0,0 0,0l2 -6c-1,1 -1,1 -2,1 -2,1 -3,0 -3,-2 0,-1 1,-3 3,-3 1,-1 2,0 2,0 2,-5 3,-11 4,-17 0,-1 0,-1 0,-2 0,-1 0,-2 1,-3 1,-2 1,-3 1,-5 -1,0 -2,-1 -2,-2 0,-2 1,-3 2,-4 1,0 1,0 1,0 1,-1 1,-3 1,-5 0,1 -1,1 -2,1 -1,0 -2,0 -2,-2 0,-1 1,-3 2,-3 1,-1 2,-1 3,0 0,-3 0,-5 0,-7 0,0 0,-1 0,-1 0,2 -1,3 -3,3 -1,1 -2,0 -2,-2 0,-1 1,-3 2,-3 2,-1 3,0 3,1 0,-3 -1,-5 -1,-6 -1,0 -1,0 -2,0 -1,1 -2,0 -2,-2 0,-1 0,-2 1,-3 -2,-3 -4,-9 -2,-24 0,-5 1,-8 1,-11 0,-1 0,-1 0,-2 0,-1 0,-2 1,-2 0,-2 0,-4 1,-6 -2,0 -2,0 -2,-2 0,-1 1,-3 2,-3 0,-1 1,-3 1,-5 0,0 -1,0 -1,0 -1,1 -2,0 -2,-2 0,-1 1,-3 2,-3 0,0 1,0 1,0 0,-2 0,-3 0,-5 0,0 -1,0 -1,0 -1,1 -2,0 -2,-2 0,-1 1,-3 2,-3l1 0c0,-2 -1,-3 -1,-5l0 0c-1,1 -2,0 -2,-2 0,-1 1,-3 2,-3 0,-1 0,-3 0,-4 -1,0 -2,-1 -2,-3 0,-1 0,-2 1,-3 0,-1 0,-3 0,-4 -1,-1 -1,-1 -1,-3 0,0 0,-1 1,-2 0,-2 0,-4 0,-6 -1,0 -1,-1 -1,-1 0,-1 0,-2 1,-3 0,-2 0,-4 0,-6 -1,0 -1,-1 -1,-1 0,-1 0,-3 1,-3 0,-2 0,-4 1,-5 -1,0 -2,-1 -2,-2 0,-2 1,-4 2,-4 1,0 1,0 2,0 1,-2 3,-3 6,-2 0,0 1,0 1,0 1,-1 3,0 3,2 0,0 0,0 0,1 1,0 2,2 3,3 0,1 1,1 1,2 1,0 1,0 1,-1 2,0 3,1 3,3 0,1 0,2 -1,2 4,10 4,23 4,36 0,-1 1,-3 3,-3 1,0 3,1 3,2 0,2 -2,3 -3,4 -2,0 -3,-1 -3,-2 0,12 -1,24 0,36 0,0 1,1 1,2 0,-1 1,-2 2,-2 1,0 3,0 3,2 0,2 -2,3 -3,4 -1,0 -1,0 -2,-1 0,2 1,4 1,5 0,0 1,0 1,0 1,-1 3,0 3,2 0,1 -1,3 -3,3 1,2 1,3 1,5 1,0 2,1 2,2 0,0 -1,1 -1,1 1,5 3,11 4,16 1,-1 1,-1 2,-1 2,-1 3,0 3,2 0,1 -1,3 -3,3 0,0 -1,0 -1,0 0,2 1,3 1,5 0,0 0,0 0,-1 2,0 3,1 3,3 0,1 -1,2 -2,3 0,1 1,3 1,4 1,1 1,1 1,2 0,1 0,2 -1,3 1,1 1,3 1,5 1,7 2,14 3,20 1,-1 2,-2 3,-2 1,0 3,1 3,2 0,2 -2,3 -3,4 -1,0 -2,0 -2,-1 0,2 0,4 0,6 1,0 1,-1 2,-1 1,0 3,1 3,2 0,2 -2,3 -3,4 -1,0 -2,0 -2,-1 -1,3 -2,7 -4,10 0,1 -1,2 -2,2 -1,2 -2,3 -3,5 0,0 1,0 1,1 0,0 1,-1 1,-1 2,0 3,1 3,2 0,1 0,1 0,1 6,3 16,6 20,-3zm-65 91c2,0 3,1 3,2 0,2 -1,3 -3,4 -2,0 -3,-1 -3,-2 0,-2 1,-3 3,-4zm-8 3c1,-1 2,0 2,2 0,1 -1,3 -2,3 -2,1 -3,0 -3,-2 0,-1 1,-3 3,-3zm-9 2c2,-1 3,0 3,2 0,1 -1,3 -3,3 -1,1 -3,0 -3,-2 0,-1 2,-3 3,-3zm-8 2c1,0 2,1 2,2 0,2 -1,3 -2,4 -2,0 -3,-1 -3,-2 0,-2 1,-4 3,-4zm-9 2c2,0 3,1 3,2 0,2 -1,3 -3,4 -1,0 -3,-1 -3,-2 0,-2 2,-3 3,-4zm34 -19c2,0 3,1 3,2 0,2 -1,3 -3,4 -2,0 -3,-1 -3,-2 0,-2 1,-3 3,-4zm-8 3c1,-1 2,0 2,2 0,1 -1,3 -2,3 -2,1 -3,0 -3,-2 0,-1 1,-3 3,-3zm-9 2c2,-1 3,0 3,2 0,1 -1,3 -3,3 -1,1 -3,0 -3,-2 0,-1 2,-3 3,-3zm-8 2c1,0 2,1 2,2 0,2 -1,3 -2,4 -2,0 -3,-1 -3,-2 0,-2 1,-3 3,-4zm25 -17c2,0 3,1 3,2 0,2 -1,4 -3,4 -2,0 -3,-1 -3,-2 0,-2 1,-3 3,-4zm-8 3c1,-1 2,0 2,2 0,1 -1,3 -2,3 -2,1 -3,0 -3,-2 0,-1 1,-3 3,-3zm-9 2c2,-1 3,0 3,2 0,1 -1,3 -3,3 -1,1 -3,0 -3,-2 0,-1 2,-3 3,-3zm-8 2c1,0 2,1 2,2 0,2 -1,3 -2,4 -2,0 -3,-1 -3,-2 0,-2 1,-3 3,-4zm25 -17c2,0 3,1 3,2 0,2 -1,4 -3,4 -2,0 -3,-1 -3,-2 0,-2 1,-3 3,-4zm-8 3c1,-1 2,0 2,2 0,1 -1,3 -2,3 -2,1 -3,0 -3,-2 0,-1 1,-3 3,-3zm-9 2c2,-1 3,0 3,2 0,1 -1,3 -3,3 -1,1 -3,0 -3,-2 0,-1 2,-3 3,-3zm-8 2c1,0 2,1 2,2 0,2 -1,3 -2,4 -2,0 -3,-1 -3,-2 0,-2 1,-3 3,-4zm25 -17c2,0 3,1 3,2 0,2 -1,4 -3,4 -2,0 -3,-1 -3,-2 0,-2 1,-3 3,-4zm-8 3c1,-1 2,0 2,2 0,1 -1,3 -2,3 -2,1 -3,0 -3,-2 0,-1 1,-3 3,-3zm-9 2c2,0 3,0 3,2 0,2 -1,3 -3,4 -1,0 -3,-1 -3,-3 0,-1 2,-3 3,-3zm-8 2c1,0 2,1 2,2 0,2 -1,3 -2,4 -2,0 -3,-1 -3,-2 0,-2 1,-3 3,-4zm25 -17c2,0 3,1 3,2 0,2 -1,4 -3,4 -2,0 -3,0 -3,-2 0,-2 1,-3 3,-4zm-8 3c1,-1 2,0 2,2 0,1 -1,3 -2,3 -2,1 -3,0 -3,-2 0,-1 1,-3 3,-3zm-9 2c2,0 3,0 3,2 0,2 -1,3 -3,4 -1,0 -3,-1 -3,-2 0,-2 2,-4 3,-4zm-8 2c1,0 2,1 2,2 0,2 -1,3 -2,4 -2,0 -3,-1 -3,-2 0,-2 1,-3 3,-4zm25 -17c2,0 3,1 3,3 0,1 -1,3 -3,3 -2,0 -3,0 -3,-2 0,-2 1,-3 3,-4zm-8 3c1,-1 2,0 2,2 0,1 -1,3 -2,3 -2,1 -3,0 -3,-2 0,-1 1,-3 3,-3zm-9 2c2,0 3,1 3,2 0,2 -1,3 -3,4 -1,0 -3,-1 -3,-2 0,-2 2,-4 3,-4zm-8 2c1,0 2,1 2,2 0,2 -1,3 -2,4 -2,0 -3,-1 -3,-2 0,-2 1,-3 3,-4zm25 -16c2,-1 3,0 3,2 0,1 -1,3 -3,3 -2,1 -3,0 -3,-2 0,-1 1,-3 3,-3zm-8 2c1,-1 2,0 2,2 0,1 -1,3 -2,3 -2,1 -3,0 -3,-2 0,-1 1,-3 3,-3zm-9 2c2,0 3,1 3,2 0,2 -1,3 -3,4 -1,0 -3,-1 -3,-2 0,-2 2,-4 3,-4zm-8 2c1,0 2,1 2,2 0,2 -1,3 -2,4 -2,0 -3,-1 -3,-2 0,-2 1,-3 3,-4zm84 -32c2,-1 3,0 3,2 0,1 -1,3 -3,3 -1,1 -3,0 -3,-2 0,-1 2,-3 3,-3zm-8 2c1,0 3,0 3,2 0,2 -2,3 -3,4 -2,0 -3,-1 -3,-3 0,-1 1,-3 3,-3zm-59 16c1,-1 2,0 2,2 0,1 -1,3 -2,3 -2,1 -3,0 -3,-2 0,-1 1,-3 3,-3zm-9 2c2,0 3,1 3,2 0,2 -1,3 -3,4 -1,0 -3,-1 -3,-2 0,-2 2,-4 3,-4zm-8 2c1,0 2,1 2,2 0,2 -1,4 -2,4 -2,0 -3,-1 -3,-2 0,-2 1,-3 3,-4zm84 -32c2,-1 3,0 3,2 0,1 -1,3 -3,3 -1,1 -3,0 -3,-2 0,-1 2,-3 3,-3zm-8 2c1,0 3,0 3,2 0,2 -2,3 -3,4 -2,0 -3,-1 -3,-2 0,-2 1,-4 3,-4zm-59 16c1,-1 2,0 2,2 0,1 -1,3 -2,3 -2,1 -3,0 -3,-2 0,-1 1,-3 3,-3zm-9 2c2,0 3,1 3,2 0,2 -1,3 -3,4 -1,0 -3,-1 -3,-2 0,-2 2,-3 3,-4zm-8 2c1,0 2,1 2,2 0,2 -1,4 -2,4 -2,0 -3,-1 -3,-2 0,-2 1,-3 3,-4zm93 -35c1,0 2,1 2,3 0,1 -1,3 -2,3 -2,0 -3,0 -3,-2 0,-2 1,-3 3,-4zm-9 3c2,-1 3,0 3,2 0,1 -1,3 -3,3 -1,1 -3,0 -3,-2 0,-1 2,-3 3,-3zm-67 18c1,-1 2,0 2,2 0,1 -1,3 -2,3 -2,1 -3,0 -3,-2 0,-1 1,-3 3,-3zm-9 2c2,0 3,1 3,2 0,2 -1,3 -3,4 -1,0 -3,-1 -3,-2 0,-2 2,-3 3,-4zm-8 2c1,0 2,1 2,2 0,2 -1,4 -2,4 -2,0 -3,0 -3,-2 0,-2 1,-3 3,-4zm93 -34c1,-1 2,0 2,2 0,1 -1,3 -2,3 -2,1 -3,0 -3,-2 0,-1 1,-3 3,-3zm-9 2c2,-1 3,0 3,2 0,1 -1,3 -3,3 -1,1 -3,0 -3,-2 0,-1 2,-3 3,-3zm-59 16c2,-1 3,0 3,2 0,1 -1,3 -3,3 -2,1 -3,0 -3,-2 0,-1 1,-3 3,-3zm-8 2c1,0 2,0 2,2 0,2 -1,3 -2,4 -2,0 -3,-1 -3,-3 0,-1 1,-3 3,-3zm-9 2c2,0 3,1 3,2 0,2 -1,3 -3,4 -1,0 -3,-1 -3,-2 0,-2 2,-3 3,-4zm-8 2c1,0 2,1 2,3 0,1 -1,3 -2,3 -2,0 -3,0 -3,-2 0,-2 1,-3 3,-4zm84 -32c2,-1 3,0 3,2 0,1 -1,3 -3,3 -1,1 -3,0 -3,-2 0,-1 2,-3 3,-3zm-8 2c1,0 3,1 3,2 0,2 -2,3 -3,4 -2,0 -3,-1 -3,-2 0,-2 1,-3 3,-4zm-51 14c2,-1 3,0 3,2 0,1 -1,3 -3,3 -2,1 -3,0 -3,-2 0,-1 1,-3 3,-3zm-8 2c1,0 2,0 2,2 0,2 -1,3 -2,4 -2,0 -3,-1 -3,-2 0,-2 1,-4 3,-4zm-9 2c2,0 3,1 3,2 0,2 -1,3 -3,4 -1,0 -3,-1 -3,-2 0,-2 2,-3 3,-4zm-8 2c1,0 2,1 2,3 0,1 -1,3 -2,3 -2,0 -3,0 -3,-2 0,-2 1,-3 3,-4zm84 -32c2,-1 3,0 3,2 0,1 -1,3 -3,3 -1,1 -3,0 -3,-2 0,-1 2,-3 3,-3zm-8 2c1,0 3,1 3,2 0,2 -2,3 -3,4 -2,0 -3,-1 -3,-2 0,-2 1,-3 3,-4zm-51 14c2,-1 3,0 3,2 0,1 -1,3 -3,3 -2,1 -3,0 -3,-2 0,-1 1,-3 3,-3zm-8 2c1,0 2,1 2,2 0,2 -1,3 -2,4 -2,0 -3,-1 -3,-2 0,-2 1,-4 3,-4zm-9 2c2,0 3,1 3,2 0,2 -1,3 -3,4 -1,0 -3,-1 -3,-2 0,-2 2,-3 3,-4zm-8 3c1,-1 2,0 2,2 0,1 -1,3 -2,3 -2,1 -3,0 -3,-2 0,-1 1,-3 3,-3zm84 -33c2,-1 3,0 3,2 0,1 -1,3 -3,3 -1,1 -3,0 -3,-2 0,-1 2,-3 3,-3zm-8 2c1,0 3,1 3,2 0,2 -2,3 -3,4 -2,0 -3,-1 -3,-2 0,-2 1,-3 3,-4zm-51 14c2,-1 3,0 3,2 0,1 -1,3 -3,3 -2,1 -3,0 -3,-2 0,-1 1,-3 3,-3zm-8 2c1,0 2,1 2,2 0,2 -1,3 -2,4 -2,0 -3,-1 -3,-2 0,-2 1,-4 3,-4zm-9 2c2,0 3,1 3,2 0,2 -1,3 -3,4 -1,0 -3,-1 -3,-2 0,-2 2,-3 3,-4zm-8 3c1,-1 2,0 2,2 0,1 -1,3 -2,3 -2,1 -3,0 -3,-2 0,-1 1,-3 3,-3zm76 -31c1,0 3,1 3,2 0,2 -2,3 -3,4 -2,0 -3,-1 -3,-2 0,-2 1,-3 3,-4zm-51 14c2,-1 3,0 3,2 0,1 -1,3 -3,3 -2,1 -3,0 -3,-2 0,-1 1,-3 3,-3zm-8 2c1,0 2,1 2,2 0,2 -1,3 -2,4 -2,0 -3,-1 -3,-2 0,-2 1,-4 3,-4zm-9 2c2,0 3,1 3,2 0,2 -1,4 -3,4 -1,0 -3,-1 -3,-2 0,-2 2,-3 3,-4zm-8 3c1,-1 2,0 2,2 0,1 -1,3 -2,3 -2,1 -3,0 -3,-2 0,-1 1,-3 3,-3zm76 -31c1,0 3,1 3,2 0,2 -2,3 -3,4 -2,0 -3,-1 -3,-2 0,-2 1,-3 3,-4zm-51 14c2,-1 3,0 3,2 0,1 -1,3 -3,3 -2,1 -3,0 -3,-2 0,-1 1,-3 3,-3zm-8 2c1,0 2,1 2,2 0,2 -1,3 -2,4 -2,0 -3,-1 -3,-2 0,-2 1,-3 3,-4zm-9 2c2,0 3,1 3,2 0,2 -1,4 -3,4 -1,0 -3,-1 -3,-2 0,-2 2,-3 3,-4zm-8 3c1,-1 2,0 2,2 0,1 -1,3 -2,3 -2,1 -3,0 -3,-2 0,-1 1,-3 3,-3zm76 -31c1,0 3,1 3,2 0,2 -2,3 -3,4 -2,0 -3,-1 -3,-2 0,-2 1,-3 3,-4zm-9 3c2,-1 3,0 3,2 0,1 -1,3 -3,3 -1,1 -3,0 -3,-2 0,-1 2,-3 3,-3zm-42 11c2,-1 3,0 3,2 0,1 -1,3 -3,3 -2,1 -3,0 -3,-2 0,-1 1,-3 3,-3zm-8 2c1,0 2,1 2,2 0,2 -1,3 -2,4 -2,0 -3,-1 -3,-2 0,-2 1,-3 3,-4zm-9 2c2,0 3,1 3,2 0,2 -1,4 -3,4 -1,0 -3,-1 -3,-2 0,-2 2,-3 3,-4zm59 -25c2,-1 3,0 3,2 0,1 -1,3 -3,3 -1,1 -3,0 -3,-2 0,-1 2,-3 3,-3zm-42 11c2,0 3,0 3,2 0,2 -1,3 -3,3 -2,1 -3,0 -3,-2 0,-1 1,-3 3,-3zm-8 2c1,0 2,1 2,2 0,2 -1,3 -2,4 -2,0 -3,-1 -3,-2 0,-2 1,-3 3,-4zm-9 2c2,0 3,1 3,2 0,2 -1,4 -3,4 -1,0 -3,0 -3,-2 0,-2 2,-3 3,-4zm59 -25c2,-1 3,0 3,2 0,1 -1,3 -3,3 -1,1 -3,0 -3,-2 0,-1 2,-3 3,-3zm-42 11c2,0 3,0 3,2 0,2 -1,3 -3,4 -2,0 -3,-1 -3,-3 0,-1 1,-3 3,-3zm-8 2c1,0 2,1 2,2 0,2 -1,3 -2,4 -2,0 -3,-1 -3,-2 0,-2 1,-3 3,-4zm-9 2c2,0 3,1 3,3 0,1 -1,3 -3,3 -1,0 -3,0 -3,-2 0,-2 2,-3 3,-4zm59 -25c2,-1 3,0 3,2 0,1 -1,3 -3,3 -1,1 -3,0 -3,-2 0,-1 2,-3 3,-3zm-42 11c2,0 3,0 3,2 0,2 -1,3 -3,4 -2,0 -3,-1 -3,-2 0,-2 1,-4 3,-4zm-8 2c1,0 2,1 2,2 0,2 -1,3 -2,4 -2,0 -3,-1 -3,-2 0,-2 1,-3 3,-4zm-9 3c2,-1 3,0 3,2 0,1 -1,3 -3,3 -1,1 -3,0 -3,-2 0,-1 2,-3 3,-3zm68 -29c1,0 3,1 3,2 0,2 -2,4 -3,4 -2,0 -3,0 -3,-2 0,-2 1,-3 3,-4zm-9 3c2,-1 3,0 3,2 0,1 -1,3 -3,3 -1,1 -3,0 -3,-2 0,-1 2,-3 3,-3zm-8 2c1,0 3,0 3,2 0,2 -2,3 -3,4 -2,0 -3,-1 -3,-3 0,-1 1,-3 3,-3zm-34 9c2,0 3,1 3,2 0,2 -1,3 -3,4 -2,0 -3,-1 -3,-2 0,-2 1,-4 3,-4zm-8 2c1,0 2,1 2,2 0,2 -1,3 -2,4 -2,0 -3,-1 -3,-2 0,-2 1,-3 3,-4zm-9 3c2,-1 3,0 3,2 0,1 -1,3 -3,3 -1,1 -3,0 -3,-2 0,-1 2,-3 3,-3zm68 -29c1,0 3,1 3,3 0,1 -2,3 -3,3 -2,0 -3,0 -3,-2 0,-2 1,-3 3,-4zm-9 3c2,-1 3,0 3,2 0,1 -1,3 -3,3 -1,1 -3,0 -3,-2 0,-1 2,-3 3,-3zm-8 2c1,0 3,0 3,2 0,2 -2,3 -3,4 -2,0 -3,-1 -3,-2 0,-2 1,-4 3,-4zm-34 9c2,0 3,1 3,2 0,2 -1,3 -3,4 -2,0 -3,-1 -3,-2 0,-2 1,-4 3,-4zm-8 2c1,0 2,1 2,2 0,2 -1,3 -2,4 -2,0 -3,-1 -3,-2 0,-2 1,-3 3,-4zm-9 3c2,-1 3,0 3,2 0,1 -1,3 -3,3 -1,1 -3,0 -3,-2 0,-1 2,-3 3,-3zm68 -29c1,0 3,1 3,3 0,1 -2,3 -3,3 -2,0 -3,0 -3,-2 0,-2 1,-3 3,-4zm-9 3c2,-1 3,0 3,2 0,1 -1,3 -3,3 -1,1 -3,0 -3,-2 0,-1 2,-3 3,-3zm-8 2c1,0 3,1 3,2 0,2 -2,3 -3,4 -2,0 -3,-1 -3,-2 0,-2 1,-4 3,-4zm-34 9c2,0 3,1 3,2 0,2 -1,3 -3,4 -2,0 -3,-1 -3,-2 0,-2 1,-3 3,-4zm-8 2c1,0 2,1 2,2 0,2 -1,4 -2,4 -2,0 -3,-1 -3,-2 0,-2 1,-3 3,-4zm-9 3c2,-1 3,0 3,2 0,1 -1,3 -3,3 -1,1 -3,0 -3,-2 0,-1 2,-3 3,-3zm68 -28c1,-1 3,0 3,2 0,1 -2,3 -3,3 -2,1 -3,0 -3,-2 0,-1 1,-3 3,-3zm-9 2c2,-1 3,0 3,2 0,1 -1,3 -3,3 -1,1 -3,0 -3,-2 0,-1 2,-3 3,-3zm-42 11c2,0 3,1 3,2 0,2 -1,3 -3,4 -2,0 -3,-1 -3,-2 0,-2 1,-3 3,-4zm-8 2c1,0 2,1 2,2 0,2 -1,4 -2,4 -2,0 -3,-1 -3,-2 0,-2 1,-3 3,-4zm-9 3c2,-1 3,0 3,2 0,1 -1,3 -3,3 -1,1 -3,0 -3,-2 0,-1 2,-3 3,-3zm68 -28c1,-1 3,0 3,2 0,1 -2,3 -3,3 -2,1 -3,0 -3,-2 0,-1 1,-3 3,-3zm-9 2c2,-1 3,0 3,2 0,1 -1,3 -3,3 -1,1 -3,0 -3,-2 0,-1 2,-3 3,-3zm-8 2c1,0 3,1 3,2 0,2 -2,3 -3,4 -2,0 -3,-1 -3,-2 0,-2 1,-3 3,-4zm-34 9c2,0 3,1 3,2 0,2 -1,3 -3,4 -2,0 -3,-1 -3,-2 0,-2 1,-3 3,-4zm-8 2c1,0 2,1 2,2 0,2 -1,4 -2,4 -2,0 -3,0 -3,-2 0,-2 1,-3 3,-4zm59 -25c1,-1 3,0 3,2 0,1 -2,3 -3,3 -2,1 -3,0 -3,-2 0,-1 1,-3 3,-3zm-9 2c2,-1 3,0 3,2 0,1 -1,3 -3,3 -1,1 -3,0 -3,-2 0,-1 2,-3 3,-3zm-8 2c1,0 3,1 3,2 0,2 -2,3 -3,4 -2,0 -3,-1 -3,-2 0,-2 1,-3 3,-4zm-34 9c2,0 3,1 3,2 0,2 -1,3 -3,4 -2,0 -3,-1 -3,-2 0,-2 1,-3 3,-4zm-8 2c1,0 2,1 2,3 0,1 -1,3 -2,3 -2,0 -3,0 -3,-2 0,-2 1,-3 3,-4zm59 -25c1,-1 3,0 3,2 0,1 -2,3 -3,3 -2,1 -3,0 -3,-2 0,-1 1,-3 3,-3zm-9 2c2,-1 3,0 3,2 0,1 -1,3 -3,3 -1,1 -3,0 -3,-2 0,-1 2,-3 3,-3zm-8 2c1,0 3,1 3,2 0,2 -2,3 -3,4 -2,0 -3,-1 -3,-2 0,-2 1,-3 3,-4zm-34 9c2,0 3,1 3,2 0,2 -1,3 -3,4 -2,0 -3,-1 -3,-2 0,-2 1,-3 3,-4zm-8 3c1,-1 2,0 2,2 0,1 -1,3 -2,3 -2,1 -3,0 -3,-2 0,-1 1,-3 3,-3zm50 -24c2,0 3,0 3,2 0,2 -1,3 -3,4 -1,0 -3,-1 -3,-3 0,-1 2,-3 3,-3zm-8 2c1,0 3,1 3,2 0,2 -2,3 -3,4 -2,0 -3,-1 -3,-2 0,-2 1,-3 3,-4zm-34 9c2,0 3,1 3,2 0,2 -1,3 -3,4 -2,0 -3,-1 -3,-2 0,-2 1,-3 3,-4zm-8 3c1,-1 2,0 2,2 0,1 -1,3 -2,3 -2,1 -3,0 -3,-2 0,-1 1,-3 3,-3zm50 -24c2,0 3,0 3,2 0,2 -1,3 -3,4 -1,0 -3,-1 -3,-2 0,-2 2,-4 3,-4zm-8 2c1,0 3,1 3,2 0,2 -2,3 -3,4 -2,0 -3,-1 -3,-2 0,-2 1,-3 3,-4zm-9 3c2,-1 3,0 3,2 0,1 -1,3 -3,3 -1,1 -2,0 -2,-2 0,-1 1,-3 2,-3zm-25 6c2,0 3,1 3,2 0,2 -1,3 -3,4 -2,0 -3,-1 -3,-2 0,-2 1,-3 3,-4zm-8 3c1,-1 2,0 2,2 0,1 -1,3 -2,3 -2,1 -3,0 -3,-2 0,-1 1,-3 3,-3zm50 -24c2,0 3,1 3,2 0,2 -1,3 -3,4 -1,0 -3,-1 -3,-2 0,-2 2,-4 3,-4zm-8 2c1,0 3,1 3,2 0,2 -2,3 -3,4 -2,0 -3,-1 -3,-2 0,-2 1,-3 3,-4zm-9 3c2,-1 3,0 3,2 0,1 -1,3 -3,3 -1,1 -2,0 -2,-2 0,-1 1,-3 2,-3zm-8 2c1,-1 3,0 3,2 0,1 -2,3 -3,3 -2,1 -3,0 -3,-2 0,-1 1,-3 3,-3zm-9 2c2,0 3,1 3,2 0,2 -1,3 -3,4 -1,0 -2,-1 -2,-2 0,-2 1,-3 2,-4zm-8 2c2,0 3,1 3,2 0,2 -1,4 -3,4 -2,0 -3,-1 -3,-2 0,-2 1,-3 3,-4zm-8 3c1,-1 2,0 2,2 0,1 -1,3 -2,3 -2,1 -3,0 -3,-2 0,-1 1,-3 3,-3zm50 -24c2,0 3,1 3,2 0,2 -1,3 -3,4 -1,0 -3,-1 -3,-2 0,-2 2,-4 3,-4zm-8 2c1,0 3,1 3,2 0,2 -2,3 -3,4 -2,0 -3,-1 -3,-2 0,-2 1,-3 3,-4zm-9 3c2,-1 3,0 3,2 0,1 -1,3 -3,3 -1,1 -2,0 -2,-2 0,-1 1,-3 2,-3zm-8 2c1,-1 3,0 3,2 0,1 -2,3 -3,3 -2,1 -3,0 -3,-2 0,-1 1,-3 3,-3zm-9 2c2,0 3,1 3,2 0,2 -1,3 -3,4 -1,0 -2,-1 -2,-2 0,-2 1,-3 2,-4zm-8 2c2,0 3,1 3,2 0,2 -1,4 -3,4 -2,0 -3,-1 -3,-2 0,-2 1,-3 3,-4zm-8 3c1,-1 2,0 2,2 0,1 -1,3 -2,3 -2,1 -3,0 -3,-2 0,-1 1,-3 3,-3zm42 -22c1,0 3,1 3,2 0,2 -2,4 -3,4 -2,0 -3,-1 -3,-2 0,-2 1,-3 3,-4zm-9 3c2,-1 3,0 3,2 0,1 -1,3 -3,3 -1,1 -2,0 -2,-2 0,-1 1,-3 2,-3zm-8 2c1,-1 3,0 3,2 0,1 -2,3 -3,3 -2,1 -3,0 -3,-2 0,-1 1,-3 3,-3zm-9 2c2,0 3,1 3,2 0,2 -1,3 -3,4 -1,0 -2,-1 -2,-2 0,-2 1,-3 2,-4zm-8 2c2,0 3,1 3,2 0,2 -1,4 -3,4 -2,0 -3,0 -3,-2 0,-2 1,-3 3,-4zm-8 3c1,-1 2,0 2,2 0,1 -1,3 -2,3 -2,1 -3,0 -3,-2 0,-1 1,-3 3,-3zm42 -22c1,0 3,1 3,2 0,2 -2,4 -3,4 -2,0 -3,-1 -3,-2 0,-2 1,-3 3,-4zm-9 3c2,-1 3,0 3,2 0,1 -1,3 -3,3 -1,1 -2,0 -2,-2 0,-1 1,-3 2,-3zm-8 2c1,0 3,0 3,2 0,2 -2,3 -3,4 -2,0 -3,-1 -3,-3 0,-1 1,-3 3,-3zm-9 2c2,0 3,1 3,2 0,2 -1,3 -3,4 -1,0 -2,-1 -2,-2 0,-2 1,-3 2,-4zm-8 2c2,0 3,1 3,3 0,1 -1,3 -3,3 -2,0 -3,0 -3,-2 0,-2 1,-3 3,-4zm-8 3c1,-1 2,0 2,2 0,1 -1,3 -2,3 -2,1 -3,0 -3,-2 0,-1 1,-3 3,-3zm33 -19c2,-1 3,0 3,2 0,1 -1,3 -3,3 -1,1 -2,0 -2,-2 0,-1 1,-3 2,-3zm-8 2c1,0 3,0 3,2 0,2 -2,3 -3,4 -2,0 -3,-1 -3,-2 0,-2 1,-4 3,-4zm-9 2c2,0 3,1 3,2 0,2 -1,3 -3,4 -1,0 -2,-1 -2,-2 0,-2 1,-3 2,-4zm-8 3c2,-1 3,0 3,2 0,1 -1,3 -3,3 -2,0 -3,0 -3,-2 0,-2 1,-3 3,-3zm-8 2c1,-1 2,0 2,2 0,1 -1,3 -2,3 -2,1 -3,0 -3,-2 0,-1 1,-3 3,-3zm33 -19c2,-1 3,0 3,2 0,1 -1,3 -3,3 -1,1 -2,0 -2,-2 0,-1 1,-3 2,-3zm-8 2c1,0 3,1 3,2 0,2 -2,3 -3,4 -2,0 -3,-1 -3,-2 0,-2 1,-4 3,-4zm-9 2c2,0 3,1 3,2 0,2 -1,3 -3,4 -1,0 -2,-1 -2,-2 0,-2 1,-3 2,-4zm-8 3c2,-1 3,0 3,2 0,1 -1,3 -3,3 -2,1 -3,0 -3,-2 0,-1 1,-3 3,-3zm-8 2c1,-1 2,0 2,2 0,1 -1,3 -2,3 -2,1 -3,0 -3,-2 0,-1 1,-3 3,-3zm25 -17c1,0 3,1 3,2 0,2 -2,3 -3,4 -2,0 -3,-1 -3,-2 0,-2 1,-4 3,-4zm-9 2c2,0 3,1 3,2 0,2 -1,3 -3,4 -1,0 -2,-1 -2,-2 0,-2 1,-3 2,-4zm-8 3c2,-1 3,0 3,2 0,1 -1,3 -3,3 -2,1 -3,0 -3,-2 0,-1 1,-3 3,-3zm-8 2c1,-1 2,0 2,2 0,1 -1,3 -2,3 -2,1 -3,0 -3,-2 0,-1 1,-3 3,-3zm25 -17c1,0 3,1 3,2 0,2 -2,3 -3,4 -2,0 -3,-1 -3,-2 0,-2 1,-4 3,-4zm-9 2c2,0 3,1 3,2 0,2 -1,4 -3,4 -1,0 -2,-1 -2,-2 0,-2 1,-3 2,-4zm-8 3c2,-1 3,0 3,2 0,1 -1,3 -3,3 -2,1 -3,0 -3,-2 0,-1 1,-3 3,-3zm-8 2c1,-1 2,0 2,2 0,1 -1,3 -2,3 -2,1 -3,0 -3,-2 0,-1 1,-3 3,-3zm16 -15c2,0 3,1 3,2 0,2 -1,4 -3,4 -1,0 -2,-1 -2,-2 0,-2 1,-3 2,-4zm-8 3c2,-1 3,0 3,2 0,1 -1,3 -3,3 -2,1 -3,0 -3,-2 0,-1 1,-3 3,-3zm-8 2c1,0 2,0 2,2 0,1 -1,3 -2,3 -2,1 -3,0 -3,-2 0,-1 1,-3 3,-3z"/>
   <path class="fil1" d="M116 635c2,-1 3,-2 3,-4 0,0 1,-1 1,-2 0,-1 -2,-3 -3,-3 -2,-5 -5,-11 -6,-18 0,0 0,-1 0,-1 0,-1 0,-2 -1,-2 0,-2 0,-4 0,-6 1,0 1,-1 1,-2 0,-1 0,-2 -1,-2 1,-4 2,-8 4,-12 0,0 0,-1 1,-3 0,0 1,1 2,1 1,1 3,0 3,-2 0,-1 -2,-3 -3,-3 -1,0 -1,0 -2,0 0,-2 0,-3 1,-5 0,0 1,0 1,0 1,1 3,0 3,-2 0,-1 -2,-3 -3,-3 0,0 0,0 -1,0 1,-2 1,-3 1,-4 2,0 3,-1 3,-3 0,-1 -1,-2 -2,-3 1,-4 2,-8 4,-11 0,-1 1,-2 1,-3 1,1 2,2 2,2 2,0 3,-1 3,-2 0,-2 -1,-3 -3,-4 0,0 0,0 0,0 1,-1 1,-3 2,-4 1,0 1,-1 1,-2 0,-1 0,-1 0,-1 2,-5 3,-10 5,-16 0,1 0,1 1,1 1,1 3,0 3,-2 0,-1 -2,-3 -3,-3 0,0 0,0 -1,0 1,-2 1,-3 1,-5 1,1 3,0 3,-2 0,-1 -1,-3 -3,-3 0,-1 0,-3 0,-4l0 -1c0,0 0,0 0,0 1,1 3,0 3,-2 0,-1 -2,-3 -3,-3 0,0 -1,0 -1,0 0,-2 0,-4 -1,-6 1,1 1,1 2,1 1,1 3,0 3,-2 0,-1 -2,-3 -3,-3 -1,-1 -2,0 -2,0 0,-3 -1,-5 -1,-7 1,1 2,2 3,2 1,1 3,0 3,-2 0,-1 -2,-3 -3,-3 -2,-1 -3,0 -3,1 0,-3 0,-6 0,-9 0,0 0,0 0,0 0,1 1,3 3,3 1,1 3,0 3,-2 0,-1 -2,-3 -3,-3 -2,-1 -3,0 -3,2 0,-3 1,-5 1,-8 1,1 1,1 2,1 1,1 3,0 3,-2 0,-1 -2,-3 -3,-3 0,0 -1,0 -1,0 1,-2 1,-3 1,-4 2,0 3,-1 3,-3 0,0 -1,-1 -1,-2 1,-4 3,-8 6,-13 0,0 0,0 0,0 2,0 3,-1 3,-2 0,-1 0,-2 -1,-3 0,-1 1,-3 2,-4 1,-3 3,-6 4,-9 0,0 0,0 1,0 1,1 3,0 3,-2 0,-1 -1,-3 -2,-3 0,-2 1,-4 1,-6 0,0 1,0 1,-1 1,-6 2,-12 3,-17 0,1 1,1 2,1 2,1 3,0 3,-2 0,-1 -1,-3 -3,-3 -1,0 -1,0 -2,0 0,-2 1,-4 1,-5 0,0 1,0 1,1 2,0 3,-1 3,-3 0,-1 -1,-3 -3,-3 0,0 -1,0 -1,0 0,-2 0,-3 0,-5 1,0 1,0 1,1 2,0 3,-1 3,-2 0,-2 -1,-4 -3,-4l0 0c0,-1 1,-3 1,-4 1,0 2,-1 2,-2 0,-1 0,-2 0,-2 0,-2 2,-5 3,-7 0,1 1,3 3,3 1,0 2,-1 2,-2 0,-2 -1,-3 -2,-4 -1,0 -1,0 -1,0 2,-3 5,-6 8,-9 1,-2 4,-3 7,-3 1,1 2,2 3,3 1,0 2,-1 2,-2 1,0 2,1 3,1 1,1 2,2 3,3 1,0 2,0 2,-1 5,3 10,8 12,13 1,0 1,0 1,0 1,2 1,4 2,6l0 1c-2,-1 -3,0 -3,2 0,1 1,3 3,3 0,0 0,0 0,0 1,2 1,3 1,5 0,0 -1,0 -1,0 -2,-1 -3,0 -3,2 0,1 1,3 3,3 0,0 1,0 1,0 0,2 0,3 0,5 -1,0 -1,0 -1,0 -2,-1 -3,0 -3,2 0,1 1,3 3,3 0,0 0,0 0,0 0,2 0,3 0,4 -2,0 -3,1 -3,3 0,1 1,2 2,3 -1,1 -1,3 -1,5 -1,1 -1,1 -1,2 0,0 0,0 0,0 -1,5 -2,11 -4,16 0,0 -1,-1 -1,-1 -2,0 -3,1 -3,2 0,2 1,3 3,4 0,0 0,0 0,0 0,1 0,3 -1,4 -1,0 -2,1 -2,2 0,1 0,3 2,3 -1,2 -1,4 -1,5 -1,1 -1,1 -1,2 0,1 0,1 0,2 0,2 0,5 0,7 0,1 0,1 0,1 0,0 0,1 0,1 0,2 0,5 0,8 0,0 0,1 0,1 0,1 0,2 1,2 0,2 0,4 0,6 -1,0 -1,1 -1,2 0,2 1,3 3,4l0 0c0,1 0,3 0,4 0,0 0,0 0,0 -2,0 -3,0 -3,2 0,2 1,3 3,4 0,0 0,0 0,0 0,1 -1,2 -1,4 -1,0 -2,1 -2,2 0,1 0,2 1,3 -2,7 -4,14 -5,21 0,1 0,2 0,3 0,0 -1,-1 -2,-1 -1,-1 -3,0 -3,2 0,1 2,3 3,3 1,0 2,0 2,0 0,2 0,4 0,6 0,-1 -1,-1 -2,-2 -1,0 -3,1 -3,3 0,1 2,3 3,3 1,0 2,0 2,-1 1,3 1,6 1,8 -1,-1 -2,-2 -3,-3 -1,0 -3,1 -3,3 0,1 2,3 3,3 1,0 3,0 3,-1 1,21 2,38 -1,57l0 0c0,-1 -1,-2 -2,-2 -1,0 -3,1 -3,2 0,2 2,3 3,4 1,0 1,0 2,0 0,2 0,4 0,6 0,-1 -1,-2 -2,-2 -1,0 -3,1 -3,2 0,2 2,3 3,4 1,0 3,-1 3,-2 1,3 2,6 4,8 -1,1 -1,2 -1,2 0,2 1,4 3,4 0,0 1,0 1,0 3,5 5,12 3,23 -2,20 -1,37 2,54 -1,0 -1,1 -1,1 0,1 1,2 1,3 0,2 1,3 1,5 -1,0 -2,1 -2,2 0,2 1,4 3,4 0,0 0,0 0,0 1,2 1,3 1,5 0,0 -1,-1 -1,-1 -2,0 -3,1 -3,2 0,2 1,4 3,4 1,0 2,0 2,-1 2,6 3,12 5,18 -1,0 -1,1 -1,2 0,1 1,2 2,3 0,2 1,3 1,5 0,0 0,0 -1,-1 -1,0 -2,1 -2,3 0,1 1,3 2,3 1,0 2,0 3,0 1,5 3,11 4,17 0,0 0,0 -1,1 0,0 -1,0 -3,0l0 0c0,-2 -1,-3 -3,-4 -1,0 -2,1 -2,2 0,1 0,2 0,2 -11,1 -29,-1 -33,-8 0,0 1,1 2,1 1,0 2,-1 2,-2 0,-2 -1,-3 -2,-4 -2,0 -3,1 -3,2 -2,-6 -3,-7 -4,-8 1,-1 1,-1 1,-2 0,-2 -1,-3 -2,-3 0,-2 0,-3 0,-5 1,0 2,-1 2,-2 0,-2 -1,-3 -2,-3l0 -5 0 0c1,0 2,-1 2,-2 0,-2 -1,-3 -2,-4 0,-1 0,-3 0,-4 1,0 2,-1 2,-2 0,-2 -1,-3 -3,-4 0,-1 0,-3 0,-4 2,0 3,-1 3,-2 0,-2 -1,-3 -3,-4 0,0 0,0 0,0 0,-1 -1,-3 -1,-4 1,0 1,0 1,0 2,0 3,-1 3,-2 0,-2 -1,-3 -3,-4 0,0 -1,0 -1,0 0,-2 -1,-4 -1,-6 1,1 1,2 2,2 2,0 3,-1 3,-2 0,-2 -1,-3 -3,-4 -1,0 -2,0 -2,1 -2,-12 -3,-24 -4,-38 0,0 0,-1 0,-1 0,-1 0,-1 0,-2 0,-2 0,-4 0,-7 0,0 0,0 0,-1 0,-1 0,-2 0,-2 0,-2 0,-3 0,-5 0,0 0,-1 0,-1 0,-1 0,-1 0,-2 0,-1 0,-2 0,-2 0,-3 0,-5 0,-7 0,0 0,0 0,-1 0,-1 0,-1 0,-2 0,-2 0,-4 0,-6 0,-1 0,-1 0,-2 0,-1 0,-2 -1,-3 0,-1 0,-3 -1,-5 1,0 2,-1 2,-2 0,-2 -1,-3 -2,-4 -1,0 -1,0 -1,0 0,0 -1,-1 -1,-2l-1 -3c-3,-12 -1,-26 1,-40 0,0 1,1 2,1 1,1 2,0 2,-2 0,-1 -1,-3 -2,-3 -1,-1 -1,-1 -2,0 1,-2 1,-3 1,-5 0,0 1,0 1,0 1,1 2,0 2,-2 0,-1 -1,-3 -2,-3 0,-2 1,-3 1,-5 1,0 1,-1 1,-2 0,-1 0,-1 0,-2 1,-11 3,-22 2,-32 0,-5 2,-8 4,-11 0,0 0,0 0,0 2,0 3,-1 3,-2 0,-1 0,-2 -1,-2 2,-2 3,-4 4,-6 1,1 2,2 3,2 1,0 2,-1 2,-2 0,-2 -1,-3 -2,-4 -1,0 -1,0 -1,0 0,-1 0,-2 0,-4 0,0 1,0 1,0 1,0 2,0 2,-2 0,-2 -1,-3 -2,-4 -1,0 -1,0 -1,0 0,-2 -1,-3 -1,-5 1,1 1,1 2,1 1,0 2,0 2,-2 0,-2 -1,-3 -2,-4 -2,0 -2,1 -3,1 0,-1 0,-2 0,-3 -1,0 -2,0 -4,2 0,-1 -1,-2 -2,-2 -1,0 -3,1 -3,2 0,1 1,2 2,3 -2,2 -3,3 -5,5 0,-1 -1,-2 -2,-2 -2,0 -3,0 -3,2 0,1 1,3 2,3 -3,5 -6,9 -8,13 -1,-1 -3,0 -3,2 0,1 1,2 2,2 0,2 0,4 0,6 -1,0 -2,1 -2,2 0,1 1,2 2,3 0,1 0,3 0,4 -1,0 -2,1 -2,3 0,1 1,2 3,3 0,1 0,3 0,4 -1,0 -3,1 -3,3 0,1 2,3 3,3 0,0 0,0 1,0 0,2 0,3 0,5 0,0 -1,-1 -1,-1 -1,0 -3,1 -3,2 0,2 2,4 3,4 0,0 1,0 1,0 0,2 0,3 0,4 -1,0 -1,0 -1,0 -1,0 -3,1 -3,2 0,2 2,3 3,4 0,1 0,3 -1,4 -1,0 -2,1 -2,2 0,1 1,2 1,3 0,2 -1,5 -2,8 0,1 -1,3 -2,7 -1,-1 -1,-2 -2,-2 -2,0 -3,1 -3,2 0,2 1,3 3,4 0,0 0,0 1,0 -1,1 -1,2 -2,4 -1,0 -2,1 -2,2 0,1 0,1 1,2 -2,4 -4,9 -6,14 0,0 0,0 -1,0 -1,-1 -2,0 -2,2 0,1 0,2 2,3 -2,5 -4,10 -6,15 0,-1 -1,-2 -2,-3 -2,0 -3,1 -3,2 0,2 1,3 3,4 0,0 1,0 1,0 0,2 -1,3 -1,4 -2,0 -3,1 -3,2 0,1 0,2 1,3 -2,5 -1,10 1,15 -1,0 -2,1 -2,2 0,2 1,3 3,4 1,0 1,0 2,-1 1,3 3,5 5,8 -1,0 -1,1 -1,1 0,1 0,1 0,2 -3,1 -7,3 -12,4 -1,-1 -2,-2 -3,-2 -1,-1 -2,0 -2,2 0,0 0,1 0,1 -9,2 -17,2 -9,-3 1,2 2,3 3,3 1,1 3,0 3,-2 0,-1 -2,-3 -3,-3 -1,-1 -1,-1 -1,0 0,-1 0,-1 0,-1zm94 125c2,1 3,2 3,4 0,1 -1,2 -3,2 -2,-1 -3,-2 -3,-4 0,-1 1,-2 3,-2zm-8 -2c1,0 2,2 2,3 0,2 -1,3 -2,2 -2,0 -3,-2 -3,-3 0,-2 1,-3 3,-2zm-9 -2c2,0 3,2 3,3 0,2 -1,3 -3,2 -1,0 -3,-2 -3,-3 0,-2 2,-3 3,-2zm25 -4c2,1 3,2 3,4 0,2 -1,2 -3,2 -1,0 -2,-2 -2,-4 0,-1 1,-2 2,-2zm-8 -2c2,1 3,2 3,4 0,1 -1,2 -3,2 -2,-1 -3,-2 -3,-4 0,-1 1,-2 3,-2zm-8 -2c1,0 2,2 2,3 0,2 -1,3 -2,3 -2,-1 -3,-2 -3,-4 0,-2 1,-2 3,-2zm-9 -2c2,0 3,2 3,3 0,2 -1,3 -3,2 -1,0 -3,-2 -3,-3 0,-2 2,-3 3,-2zm-8 -3c1,1 2,2 2,4 0,1 -1,2 -2,2 -2,0 -3,-2 -3,-4 0,-1 1,-2 3,-2zm25 -3c2,1 3,2 3,4 0,1 -1,2 -3,2 -2,-1 -3,-2 -3,-4 0,-1 1,-2 3,-2zm-8 -2c1,0 2,2 2,3 0,2 -1,3 -2,3 -2,-1 -3,-2 -3,-4 0,-2 1,-2 3,-2zm-9 -2c2,0 3,2 3,3 0,2 -1,3 -3,2 -1,0 -3,-2 -3,-3 0,-2 2,-3 3,-2zm-8 -3c1,1 2,2 2,4 0,2 -1,2 -2,2 -2,0 -3,-2 -3,-4 0,-1 1,-2 3,-2zm25 -3c2,1 3,2 3,4 0,1 -1,2 -3,2 -2,-1 -3,-2 -3,-4 0,-1 1,-2 3,-2zm-8 -2c1,0 2,2 2,4 0,1 -1,2 -2,2 -2,-1 -3,-2 -3,-4 0,-2 1,-2 3,-2zm-9 -2c2,0 3,2 3,3 0,2 -1,3 -3,2 -1,0 -3,-2 -3,-3 0,-2 2,-3 3,-2zm-8 -3c1,1 2,2 2,4 0,2 -1,2 -2,2 -2,0 -3,-2 -3,-3 0,-2 1,-3 3,-3zm25 -3c2,1 3,2 3,4 0,1 -1,2 -3,2 -2,-1 -3,-2 -3,-4 0,-1 1,-2 3,-2zm-8 -2c1,0 2,2 2,4 0,1 -1,2 -2,2 -2,-1 -3,-2 -3,-4 0,-1 1,-2 3,-2zm-9 -2c2,0 3,2 3,3 0,2 -1,3 -3,2 -1,0 -3,-2 -3,-3 0,-2 2,-3 3,-2zm-8 -3c1,1 2,2 2,4 0,2 -1,2 -2,2 -2,0 -3,-2 -3,-3 0,-2 1,-3 3,-3zm17 -5c1,0 2,2 2,4 0,1 -1,2 -2,2 -2,-1 -3,-2 -3,-4 0,-1 1,-2 3,-2zm-9 -2c2,0 3,2 3,3 0,2 -1,3 -3,2 -1,0 -3,-2 -3,-3 0,-2 2,-3 3,-2zm-8 -2c1,0 2,2 2,3 0,2 -1,3 -2,2 -2,0 -3,-2 -3,-3 0,-2 1,-3 3,-2zm17 -6c1,1 2,2 2,4 0,1 -1,2 -2,2 -2,-1 -3,-2 -3,-4 0,-1 1,-2 3,-2zm-9 -2c2,0 3,2 3,3 0,2 -1,3 -3,2 -1,0 -3,-2 -3,-3 0,-2 2,-3 3,-2zm-8 -2c1,0 2,2 2,3 0,2 -1,3 -2,2 -2,0 -3,-2 -3,-3 0,-2 1,-3 3,-2zm17 -6c1,1 2,2 2,4 0,1 -1,2 -2,2 -2,-1 -3,-2 -3,-4 0,-1 1,-2 3,-2zm-9 -2c2,0 3,2 3,3 0,2 -1,3 -3,2 -1,0 -3,-2 -3,-3 0,-2 2,-3 3,-2zm-8 -2c1,0 2,2 2,3 0,2 -1,3 -2,2 -2,0 -3,-2 -3,-3 0,-2 1,-3 3,-2zm17 -6c1,1 2,2 2,4 0,1 -1,2 -2,2 -2,-1 -3,-2 -3,-4 0,-1 1,-2 3,-2zm-9 -2c2,0 3,2 3,3 0,2 -1,3 -3,2 -1,0 -3,-2 -3,-3 0,-2 2,-3 3,-2zm-8 -2c1,0 2,2 2,3 0,2 -1,3 -2,2 -2,0 -3,-2 -3,-3 0,-2 1,-3 3,-2zm-9 -3c2,1 3,2 3,4 0,1 -1,2 -3,2 -1,0 -3,-2 -3,-4 0,-1 2,-2 3,-2zm26 -3c1,1 2,2 2,4 0,1 -1,2 -2,2 -2,-1 -3,-2 -3,-4 0,-1 1,-2 3,-2zm-9 -2c2,0 3,2 3,3 0,2 -1,3 -3,3 -1,-1 -3,-2 -3,-4 0,-2 2,-2 3,-2zm-8 -2c1,0 2,2 2,3 0,2 -1,3 -2,2 -2,0 -3,-2 -3,-3 0,-2 1,-3 3,-2zm-9 -3c2,1 3,2 3,4 0,1 -1,2 -3,2 -1,0 -3,-2 -3,-4 0,-1 2,-2 3,-2zm26 -3c1,1 2,2 2,4 0,1 -1,2 -2,2 -2,-1 -3,-2 -3,-4 0,-1 1,-2 3,-2zm-9 -2c2,0 3,2 3,4 0,1 -1,2 -3,2 -1,-1 -3,-2 -3,-4 0,-2 2,-2 3,-2zm-8 -2c1,0 2,2 2,3 0,2 -1,3 -2,2 -2,0 -3,-2 -3,-3 0,-2 1,-3 3,-2zm-9 -3c2,1 3,2 3,4 0,2 -1,2 -3,2 -1,0 -3,-2 -3,-4 0,-1 2,-2 3,-2zm26 -3c1,1 2,2 2,4 0,1 -1,2 -2,2 -2,-1 -3,-2 -3,-4 0,-1 1,-2 3,-2zm-9 -2c2,0 3,2 3,4 0,1 -1,2 -3,2 -1,-1 -3,-2 -3,-4 0,-1 2,-2 3,-2zm-8 -2c1,0 2,2 2,3 0,2 -1,3 -2,2 -2,0 -3,-2 -3,-3 0,-2 1,-3 3,-2zm-9 -3c2,1 3,2 3,4 0,2 -1,2 -3,2 -1,0 -3,-2 -3,-3 0,-2 2,-3 3,-3zm-42 -11c1,1 3,2 3,4 0,1 -2,2 -3,2 -2,-1 -3,-2 -3,-4 0,-1 1,-2 3,-2zm-9 -2c2,0 3,2 3,3 0,2 -1,3 -3,2 -1,0 -2,-2 -2,-3 0,-2 1,-3 2,-2zm77 10c1,1 2,2 2,4 0,1 -1,2 -2,2 -2,-1 -3,-2 -3,-4 0,-1 1,-2 3,-2zm-9 -2c2,0 3,2 3,4 0,1 -1,2 -3,2 -1,-1 -3,-2 -3,-4 0,-1 2,-2 3,-2zm-8 -2c1,0 2,2 2,3 0,2 -1,3 -2,2 -2,0 -3,-2 -3,-3 0,-2 1,-3 3,-2zm-9 -2c2,0 3,2 3,3 0,2 -1,3 -3,2 -1,0 -3,-2 -3,-3 0,-2 2,-3 3,-2zm-51 -14c2,0 3,2 3,3 0,2 -1,3 -3,3 -1,-1 -2,-2 -2,-4 0,-2 1,-2 2,-2zm-8 -2c1,0 3,2 3,3 0,2 -2,3 -3,2 -2,0 -3,-2 -3,-3 0,-2 1,-3 3,-2zm85 12c1,1 2,2 2,4 0,1 -1,2 -2,2 -2,0 -3,-2 -3,-4 0,-1 1,-2 3,-2zm-9 -2c2,1 3,2 3,4 0,1 -1,2 -3,2 -1,-1 -3,-2 -3,-4 0,-1 2,-2 3,-2zm-8 -2c1,0 2,2 2,3 0,2 -1,3 -2,2 -2,0 -3,-2 -3,-3 0,-2 1,-3 3,-2zm-9 -2c2,0 3,2 3,3 0,2 -1,3 -3,2 -1,0 -3,-2 -3,-3 0,-2 2,-3 3,-2zm-51 -14c2,0 3,2 3,3 0,2 -1,3 -3,3 -1,-1 -2,-2 -2,-4 0,-2 1,-2 2,-2zm-8 -2c1,0 3,2 3,3 0,2 -2,3 -3,2 -2,0 -3,-2 -3,-3 0,-2 1,-3 3,-2zm85 12c1,1 2,2 2,4 0,1 -1,2 -2,2 -2,0 -3,-2 -3,-4 0,-1 1,-2 3,-2zm-9 -2c2,1 3,2 3,4 0,1 -1,2 -3,2 -1,-1 -3,-2 -3,-4 0,-1 2,-2 3,-2zm-8 -2c1,0 2,2 2,3 0,2 -1,3 -2,2 -2,0 -3,-2 -3,-3 0,-2 1,-3 3,-2zm-9 -2c2,0 3,2 3,3 0,2 -1,3 -3,2 -1,0 -3,-2 -3,-3 0,-2 2,-3 3,-2zm-51 -14c2,0 3,2 3,4 0,1 -1,2 -3,2 -1,-1 -2,-2 -2,-4 0,-2 1,-2 2,-2zm-8 -2c1,0 3,2 3,3 0,2 -2,3 -3,2 -2,0 -3,-2 -3,-3 0,-2 1,-3 3,-2zm76 10c2,1 3,2 3,4 0,1 -1,2 -3,2 -1,-1 -3,-2 -3,-4 0,-1 2,-2 3,-2zm-8 -2c1,0 2,2 2,3 0,2 -1,3 -2,2 -2,0 -3,-2 -3,-3 0,-2 1,-3 3,-2zm-9 -2c2,0 3,2 3,3 0,2 -1,3 -3,2 -1,0 -3,-2 -3,-3 0,-2 2,-3 3,-2zm-51 -14c2,0 3,2 3,4 0,1 -1,2 -3,2 -1,-1 -2,-2 -2,-4 0,-1 1,-2 2,-2zm-8 -2c1,0 3,2 3,3 0,2 -2,3 -3,2 -2,0 -3,-2 -3,-3 0,-2 1,-3 3,-2zm68 8c1,0 2,2 2,3 0,2 -1,3 -2,3 -2,-1 -3,-2 -3,-4 0,-2 1,-2 3,-2zm-9 -2c2,0 3,2 3,3 0,2 -1,3 -3,2 -1,0 -3,-2 -3,-3 0,-2 2,-3 3,-2zm-42 -12c1,1 3,2 3,4 0,1 -2,2 -3,2 -2,0 -3,-2 -3,-4 0,-1 1,-2 3,-2zm-9 -2c2,0 3,2 3,4 0,1 -1,2 -3,2 -1,-1 -2,-2 -2,-4 0,-1 1,-2 2,-2zm60 6c1,0 2,2 2,4 0,1 -1,2 -2,2 -2,-1 -3,-2 -3,-4 0,-2 1,-2 3,-2zm-9 -2c2,0 3,2 3,3 0,2 -1,3 -3,2 -1,0 -3,-2 -3,-3 0,-2 2,-3 3,-2zm-8 -3c1,1 2,2 2,4 0,2 -1,2 -2,2 -2,0 -3,-2 -3,-4 0,-1 1,-2 3,-2zm-34 -9c1,1 3,2 3,4 0,1 -2,2 -3,2 -2,0 -3,-2 -3,-4 0,-1 1,-2 3,-2zm-9 -2c2,1 3,2 3,4 0,1 -1,2 -3,2 -1,-1 -2,-2 -2,-4 0,-1 1,-2 2,-2zm68 8c2,1 3,2 3,4 0,1 -1,2 -3,2 -1,-1 -3,-2 -3,-4 0,-1 2,-2 3,-2zm-8 -2c1,0 2,2 2,4 0,1 -1,2 -2,2 -2,-1 -3,-2 -3,-4 0,-1 1,-2 3,-2zm-9 -2c2,0 3,2 3,3 0,2 -1,3 -3,2 -1,0 -3,-2 -3,-3 0,-2 2,-3 3,-2zm-8 -3c1,1 2,2 2,4 0,2 -1,2 -2,2 -2,0 -3,-2 -3,-3 0,-2 1,-3 3,-3zm-26 -6c2,0 3,2 3,3 0,2 -1,3 -3,2 -1,0 -2,-2 -2,-3 0,-2 1,-3 2,-2zm-8 -3c1,1 3,2 3,4 0,1 -2,2 -3,2 -2,0 -3,-2 -3,-4 0,-1 1,-2 3,-2zm-9 -2c2,1 3,2 3,4 0,1 -1,2 -3,2 -1,-1 -2,-2 -2,-4 0,-1 1,-2 2,-2zm68 8c2,1 3,2 3,4 0,1 -1,2 -3,2 -1,-1 -3,-2 -3,-4 0,-1 2,-2 3,-2zm-8 -2c1,0 2,2 2,4 0,1 -1,2 -2,2 -2,-1 -3,-2 -3,-4 0,-1 1,-2 3,-2zm-9 -2c2,0 3,2 3,3 0,2 -1,3 -3,2 -1,0 -3,-2 -3,-3 0,-2 2,-3 3,-2zm-8 -2c1,0 2,2 2,3 0,2 -1,3 -2,2 -2,0 -3,-2 -3,-3 0,-2 1,-3 3,-2zm-26 -7c2,0 3,2 3,3 0,2 -1,3 -3,2 -1,0 -2,-2 -2,-3 0,-2 1,-3 2,-2zm-8 -3c1,1 3,2 3,4 0,2 -2,2 -3,2 -2,0 -3,-2 -3,-4 0,-1 1,-2 3,-2zm-9 -2c2,1 3,2 3,4 0,1 -1,2 -3,2 -1,-1 -2,-2 -2,-4 0,-1 1,-2 2,-2zm68 8c2,1 3,2 3,4 0,1 -1,2 -3,2 -1,0 -3,-2 -3,-4 0,-1 2,-2 3,-2zm-8 -2c1,0 2,2 2,4 0,1 -1,2 -2,2 -2,-1 -3,-2 -3,-4 0,-1 1,-2 3,-2zm-9 -2c2,0 3,2 3,3 0,2 -1,3 -3,2 -1,0 -3,-2 -3,-3 0,-2 2,-3 3,-2zm-8 -2c1,0 2,2 2,3 0,2 -1,3 -2,2 -2,0 -3,-2 -3,-3 0,-2 1,-3 3,-2zm-26 -7c2,0 3,2 3,3 0,2 -1,3 -3,2 -1,0 -2,-2 -2,-3 0,-2 1,-3 2,-2zm-8 -3c1,1 3,2 3,4 0,2 -2,2 -3,2 -2,0 -3,-2 -3,-3 0,-2 1,-3 3,-3zm59 6c2,1 3,2 3,4 0,1 -1,2 -3,2 -1,0 -3,-2 -3,-4 0,-1 2,-2 3,-2zm-8 -2c1,1 2,2 2,4 0,1 -1,2 -2,2 -2,-1 -3,-2 -3,-4 0,-1 1,-2 3,-2zm-9 -2c2,0 3,2 3,3 0,2 -1,3 -3,2 -1,0 -3,-2 -3,-3 0,-2 2,-3 3,-2zm-25 -7c1,0 3,2 3,4 0,1 -2,2 -3,2 -2,-1 -3,-2 -3,-4 0,-1 1,-2 3,-2zm-9 -2c2,0 3,2 3,3 0,2 -1,3 -3,2 -1,0 -2,-2 -2,-3 0,-2 1,-3 2,-2zm-8 -2c1,0 3,2 3,3 0,2 -2,3 -3,2 -2,0 -3,-2 -3,-3 0,-2 1,-3 3,-2zm59 5c2,1 3,2 3,4 0,1 -1,2 -3,2 -1,0 -3,-2 -3,-4 0,-1 2,-2 3,-2zm-8 -2c1,1 2,2 2,4 0,1 -1,2 -2,2 -2,-1 -3,-2 -3,-4 0,-1 1,-2 3,-2zm-9 -2c2,0 3,2 3,3 0,2 -1,3 -3,2 -1,0 -3,-2 -3,-3 0,-2 2,-3 3,-2zm-25 -7c1,0 3,2 3,4 0,1 -2,2 -3,2 -2,-1 -3,-2 -3,-4 0,-1 1,-2 3,-2zm-9 -2c2,0 3,2 3,3 0,2 -1,3 -3,2 -1,0 -2,-2 -2,-3 0,-2 1,-3 2,-2zm-8 -2c1,0 3,2 3,3 0,2 -2,3 -3,2 -2,0 -3,-2 -3,-3 0,-2 1,-3 3,-2zm51 3c1,1 2,2 2,4 0,1 -1,2 -2,2 -2,-1 -3,-2 -3,-4 0,-1 1,-2 3,-2zm-9 -2c2,0 3,2 3,3 0,2 -1,3 -3,3 -1,-1 -3,-2 -3,-4 0,-2 2,-2 3,-2zm-25 -7c1,1 3,2 3,4 0,1 -2,2 -3,2 -2,-1 -3,-2 -3,-4 0,-1 1,-2 3,-2zm-9 -2c2,0 3,2 3,3 0,2 -1,3 -3,2 -1,0 -2,-2 -2,-3 0,-2 1,-3 2,-2zm43 1c1,1 2,2 2,4 0,1 -1,2 -2,2 -2,-1 -3,-2 -3,-4 0,-1 1,-2 3,-2zm-9 -2c2,0 3,2 3,3 0,2 -1,3 -3,3 -1,-1 -3,-2 -3,-4 0,-2 2,-2 3,-2zm-25 -7c1,1 3,2 3,4 0,1 -2,2 -3,2 -2,-1 -3,-2 -3,-4 0,-1 1,-2 3,-2zm-9 -2c2,0 3,2 3,3 0,2 -1,3 -3,2 -1,0 -2,-2 -2,-3 0,-2 1,-3 2,-2zm43 1c1,1 2,2 2,4 0,1 -1,2 -2,2 -2,-1 -3,-2 -3,-4 0,-1 1,-2 3,-2zm-9 -2c2,0 3,2 3,4 0,1 -1,2 -3,2 -1,-1 -3,-2 -3,-4 0,-2 2,-2 3,-2zm-25 -7c1,1 3,2 3,4 0,1 -2,2 -3,2 -2,-1 -3,-2 -3,-4 0,-1 1,-2 3,-2zm-9 -2c2,0 3,2 3,3 0,2 -1,3 -3,3 -1,-1 -2,-2 -2,-4 0,-2 1,-2 2,-2zm51 4c2,0 3,2 3,3 0,2 -1,3 -3,2 -1,0 -3,-2 -3,-3 0,-2 2,-3 3,-2zm-8 -3c1,1 2,2 2,4 0,1 -1,2 -2,2 -2,-1 -3,-2 -3,-4 0,-1 1,-2 3,-2zm-9 -2c2,0 3,2 3,4 0,1 -1,2 -3,2 -1,-1 -3,-2 -3,-4 0,-1 2,-2 3,-2zm-25 -7c1,1 3,2 3,4 0,1 -2,2 -3,2 -2,-1 -3,-2 -3,-4 0,-1 1,-2 3,-2zm-9 -2c2,0 3,2 3,4 0,1 -1,2 -3,2 -1,-1 -2,-2 -2,-4 0,-2 1,-2 2,-2zm51 4c2,0 3,2 3,3 0,2 -1,3 -3,2 -1,0 -3,-2 -3,-3 0,-2 2,-3 3,-2zm-8 -3c1,1 2,2 2,4 0,1 -1,2 -2,2 -2,0 -3,-2 -3,-4 0,-1 1,-2 3,-2zm-9 -2c2,0 3,2 3,4 0,1 -1,2 -3,2 -1,-1 -3,-2 -3,-4 0,-1 2,-2 3,-2zm-25 -7c1,1 3,2 3,4 0,1 -2,2 -3,2 -2,-1 -3,-2 -3,-4 0,-1 1,-2 3,-2zm-9 -2c2,0 3,2 3,4 0,1 -1,2 -3,2 -1,-1 -2,-2 -2,-4 0,-1 1,-2 2,-2zm51 4c2,0 3,2 3,3 0,2 -1,3 -3,2 -1,0 -3,-2 -3,-3 0,-2 2,-3 3,-2zm-8 -3c1,1 2,2 2,4 0,1 -1,2 -2,2 -2,0 -3,-2 -3,-4 0,-1 1,-2 3,-2zm-34 -9c1,1 3,2 3,4 0,1 -2,2 -3,2 -2,-1 -3,-2 -3,-4 0,-1 1,-2 3,-2zm-9 -2c2,0 3,2 3,4 0,1 -1,2 -3,2 -1,-1 -2,-2 -2,-4 0,-1 1,-2 2,-2zm51 4c2,0 3,2 3,3 0,2 -1,3 -3,2 -1,0 -3,-2 -3,-3 0,-2 2,-3 3,-2zm-34 -9c2,0 3,2 3,3 0,2 -1,3 -3,2 -1,0 -3,-2 -3,-3 0,-2 2,-3 3,-2zm-8 -3c1,1 3,2 3,4 0,1 -2,2 -3,2 -2,0 -3,-2 -3,-4 0,-1 1,-2 3,-2zm-9 -2c2,0 3,2 3,4 0,1 -1,2 -3,2 -1,-1 -2,-2 -2,-4 0,-1 1,-2 2,-2zm51 4c2,0 3,2 3,3 0,2 -1,3 -3,2 -1,0 -3,-2 -3,-3 0,-2 2,-3 3,-2zm-34 -9c2,0 3,2 3,3 0,2 -1,3 -3,2 -1,0 -3,-2 -3,-3 0,-2 2,-3 3,-2zm-8 -3c1,1 3,2 3,4 0,1 -2,2 -3,2 -2,0 -3,-2 -3,-4 0,-1 1,-2 3,-2zm-9 -2c2,1 3,2 3,4 0,1 -1,2 -3,2 -1,-1 -2,-2 -2,-4 0,-1 1,-2 2,-2zm51 4c2,0 3,2 3,3 0,2 -1,3 -3,2 -1,0 -3,-2 -3,-3 0,-2 2,-3 3,-2zm-25 -7c1,0 2,2 2,3 0,2 -1,3 -2,3 -2,-1 -3,-2 -3,-4 0,-2 1,-2 3,-2zm-9 -2c2,0 3,2 3,3 0,2 -1,3 -3,2 -1,0 -3,-2 -3,-3 0,-2 2,-3 3,-2zm-8 -3c1,1 3,2 3,4 0,1 -2,2 -3,2 -2,0 -3,-2 -3,-4 0,-1 1,-2 3,-2zm-9 -2c2,1 3,2 3,4 0,1 -1,2 -3,2 -1,-1 -2,-2 -2,-4 0,-1 1,-2 2,-2zm51 4c2,0 3,2 3,3 0,2 -1,3 -3,2 -1,0 -3,-2 -3,-3 0,-2 2,-3 3,-2zm-8 -2c1,0 2,2 2,3 0,2 -1,3 -2,2 -2,0 -3,-2 -3,-3 0,-2 1,-3 3,-2zm-9 -3c2,1 3,2 3,4 0,1 -1,2 -3,2 -1,-1 -3,-2 -3,-4 0,-1 2,-2 3,-2zm-8 -2c1,0 2,2 2,4 0,1 -1,2 -2,2 -2,-1 -3,-2 -3,-4 0,-2 1,-2 3,-2zm-9 -2c2,0 3,2 3,3 0,2 -1,3 -3,2 -1,0 -3,-2 -3,-3 0,-2 2,-3 3,-2zm-8 -3c1,1 3,2 3,4 0,2 -2,2 -3,2 -2,0 -3,-2 -3,-4 0,-1 1,-2 3,-2zm42 2c2,0 3,2 3,3 0,2 -1,3 -3,2 -1,0 -3,-2 -3,-3 0,-2 2,-3 3,-2zm-8 -2c1,0 2,2 2,3 0,2 -1,3 -2,2 -2,0 -3,-2 -3,-3 0,-2 1,-3 3,-2zm-9 -3c2,1 3,2 3,4 0,1 -1,2 -3,2 -1,-1 -3,-2 -3,-4 0,-1 2,-2 3,-2zm-8 -2c1,0 2,2 2,4 0,1 -1,2 -2,2 -2,-1 -3,-2 -3,-4 0,-1 1,-2 3,-2zm-9 -2c2,0 3,2 3,3 0,2 -1,3 -3,2 -1,0 -3,-2 -3,-3 0,-2 2,-3 3,-2zm-8 -3c1,1 3,2 3,4 0,2 -2,2 -3,2 -2,0 -3,-2 -3,-3 0,-2 1,-3 3,-3zm42 2c2,0 3,2 3,3 0,2 -1,3 -3,2 -1,0 -3,-2 -3,-3 0,-2 2,-3 3,-2zm-8 -2c1,0 2,2 2,3 0,2 -1,3 -2,2 -2,0 -3,-2 -3,-3 0,-2 1,-3 3,-2zm-9 -3c2,1 3,2 3,4 0,1 -1,2 -3,2 -1,-1 -3,-2 -3,-4 0,-1 2,-2 3,-2zm-8 -2c1,0 2,2 2,4 0,1 -1,2 -2,2 -2,-1 -3,-2 -3,-4 0,-1 1,-2 3,-2zm-9 -2c2,0 3,2 3,3 0,2 -1,3 -3,2 -1,0 -3,-2 -3,-3 0,-2 2,-3 3,-2zm34 -1c2,0 3,2 3,3 0,2 -1,3 -3,2 -1,0 -3,-2 -3,-3 0,-2 2,-3 3,-2zm-8 -2c1,0 2,2 2,3 0,2 -1,3 -2,2 -2,0 -3,-2 -3,-3 0,-2 1,-3 3,-2zm-9 -3c2,1 3,2 3,4 0,1 -1,2 -3,2 -1,0 -3,-2 -3,-4 0,-1 2,-2 3,-2zm-8 -2c1,1 2,2 2,4 0,1 -1,2 -2,2 -2,-1 -3,-2 -3,-4 0,-1 1,-2 3,-2zm-9 -2c2,0 3,2 3,3 0,2 -1,3 -3,2 -1,0 -3,-2 -3,-3 0,-2 2,-3 3,-2zm43 1c1,1 2,2 2,4 0,1 -1,2 -2,2 -2,-1 -3,-2 -3,-4 0,-1 1,-2 3,-2zm-9 -2c2,0 3,2 3,3 0,2 -1,3 -3,3 -1,-1 -3,-2 -3,-4 0,-2 2,-2 3,-2zm-8 -2c1,0 2,2 2,3 0,2 -1,3 -2,2 -2,0 -3,-2 -3,-3 0,-2 1,-3 3,-2zm-9 -3c2,1 3,2 3,4 0,1 -1,2 -3,2 -1,0 -3,-2 -3,-4 0,-1 2,-2 3,-2zm-8 -2c1,1 2,2 2,4 0,1 -1,2 -2,2 -2,-1 -3,-2 -3,-4 0,-1 1,-2 3,-2zm-9 -2c2,0 3,2 3,3 0,2 -1,3 -3,2 -1,0 -3,-2 -3,-3 0,-2 2,-3 3,-2zm43 1c1,1 2,2 2,4 0,1 -1,2 -2,2 -2,-1 -3,-2 -3,-4 0,-1 1,-2 3,-2zm-9 -2c2,0 3,2 3,4 0,1 -1,2 -3,2 -1,-1 -3,-2 -3,-4 0,-2 2,-2 3,-2zm-8 -2c1,0 2,2 2,3 0,2 -1,3 -2,2 -2,0 -3,-2 -3,-3 0,-2 1,-3 3,-2zm-9 -3c2,1 3,2 3,4 0,2 -1,2 -3,2 -1,0 -3,-2 -3,-4 0,-1 2,-2 3,-2zm-8 -2c1,1 2,2 2,4 0,1 -1,2 -2,2 -2,-1 -3,-2 -3,-4 0,-1 1,-2 3,-2zm34 -1c1,1 2,2 2,4 0,1 -1,2 -2,2 -2,-1 -3,-2 -3,-4 0,-1 1,-2 3,-2zm-9 -2c2,0 3,2 3,4 0,1 -1,2 -3,2 -1,-1 -3,-2 -3,-4 0,-1 2,-2 3,-2zm-8 -2c1,0 2,2 2,3 0,2 -1,3 -2,2 -2,0 -3,-2 -3,-3 0,-2 1,-3 3,-2zm-9 -3c2,1 3,2 3,4 0,2 -1,2 -3,2 -1,0 -3,-2 -3,-3 0,-2 2,-3 3,-3zm-8 -2c1,1 2,2 2,4 0,1 -1,2 -2,2 -2,-1 -3,-2 -3,-4 0,-1 1,-2 3,-2zm34 -1c1,1 2,2 2,4 0,1 -1,2 -2,2 -2,-1 -3,-2 -3,-4 0,-1 1,-2 3,-2zm-9 -2c2,0 3,2 3,4 0,1 -1,2 -3,2 -1,-1 -3,-2 -3,-4 0,-1 2,-2 3,-2zm-8 -2c1,0 2,2 2,3 0,2 -1,3 -2,2 -2,0 -3,-2 -3,-3 0,-2 1,-3 3,-2zm-9 -2c2,0 3,2 3,3 0,2 -1,3 -3,2 -1,0 -3,-2 -3,-3 0,-2 2,-3 3,-2zm-8 -3c1,1 2,2 2,4 0,1 -1,2 -2,2 -2,-1 -3,-2 -3,-4 0,-1 1,-2 3,-2zm34 -1c1,1 2,2 2,4 0,1 -1,2 -2,2 -2,0 -3,-2 -3,-4 0,-1 1,-2 3,-2zm-9 -2c2,0 3,2 3,4 0,1 -1,2 -3,2 -1,-1 -3,-2 -3,-4 0,-1 2,-2 3,-2zm-8 -2c1,0 2,2 2,3 0,2 -1,3 -2,2 -2,0 -3,-2 -3,-3 0,-2 1,-3 3,-2zm-9 -2c2,0 3,2 3,3 0,2 -1,3 -3,2 -1,0 -3,-2 -3,-3 0,-2 2,-3 3,-2zm-8 -3c1,1 2,2 2,4 0,1 -1,2 -2,2 -2,-1 -3,-2 -3,-4 0,-1 1,-2 3,-2zm34 -1c1,1 2,2 2,4 0,1 -1,2 -2,2 -2,0 -3,-2 -3,-4 0,-1 1,-2 3,-2zm-9 -2c2,1 3,2 3,4 0,1 -1,2 -3,2 -1,-1 -3,-2 -3,-4 0,-1 2,-2 3,-2zm-8 -2c1,0 2,2 2,3 0,2 -1,3 -2,2 -2,0 -3,-2 -3,-3 0,-2 1,-3 3,-2zm-9 -2c2,0 3,2 3,3 0,2 -1,3 -3,2 -1,0 -3,-2 -3,-3 0,-2 2,-3 3,-2zm26 -4c1,1 2,2 2,4 0,1 -1,2 -2,2 -2,0 -3,-2 -3,-4 0,-1 1,-2 3,-2zm-9 -2c2,1 3,2 3,4 0,1 -1,2 -3,2 -1,-1 -3,-2 -3,-4 0,-1 2,-2 3,-2zm-8 -2c1,0 2,2 2,3 0,2 -1,3 -2,2 -2,0 -3,-2 -3,-3 0,-2 1,-3 3,-2zm-9 -2c2,0 3,2 3,3 0,2 -1,3 -3,2 -1,0 -3,-2 -3,-3 0,-2 2,-3 3,-2z"/>
   <g>
    <path class="filhck" d="M49 253c36,-7 50,-16 60,-56 21,-78 53,-59 107,-73 40,-10 69,-19 110,-26 -6,-11 -11,-22 -15,-35 -3,-9 -6,-15 -7,-21 -16,8 -63,17 -74,22 -19,6 -38,11 -57,16 -22,6 -68,8 -79,29 -16,27 -33,109 -45,142 0,1 0,1 0,2z"/>
    <path class="filhck" d="M761 238c8,1 17,0 28,-1 -6,-20 -12,-48 -13,-54 -5,-32 -20,-78 -54,-93 -32,-14 -150,-31 -184,-48 -5,13 -18,31 -33,48 37,9 74,14 108,23 55,15 64,36 88,82 12,23 24,36 41,40 7,2 11,3 19,3z"/>
    <path class="filhck" d="M478 56c-36,12 -100,7 -132,-8 14,29 34,55 62,74 1,0 1,-1 1,-1 23,-16 48,-40 69,-65z"/>
   </g>
   <path class="fil1" d="M668 434c13,16 17,9 26,21l6 9 8 11c16,18 -3,-6 9,10 5,8 27,17 38,30l3 4c-12,-12 -15,-12 -32,-20 -23,-11 -18,-4 -31,-33 -13,-27 -13,-10 -27,-32zm-581 -66c5,33 16,55 27,85 5,16 4,27 4,43 0,44 -5,28 9,69 -18,-42 -10,-23 -15,-68 -1,-14 -4,-21 -6,-32l-1 -10c-3,-30 -15,-51 -18,-87zm718 177c-3,9 -13,30 -20,37 -8,7 -2,24 0,31 -4,-8 -14,-29 -7,-39 4,-6 15,-8 27,-29z"/>
   <path class="fil1" d="M410 131c-2,0 -3,0 -4,0 -44,-28 -68,-71 -83,-119 -17,15 -14,19 -4,48 17,48 44,78 87,104 3,3 3,2 7,0 1,0 2,-1 3,-1 35,-19 107,-95 114,-128 -2,-5 -11,-14 -15,-17l-1 1c-23,42 -60,82 -99,109 -1,1 -4,2 -5,3zm-65 -94c30,20 115,23 145,3 4,-6 8,-11 11,-17 -19,6 -39,9 -58,10 -43,4 -76,1 -111,-22 2,7 4,14 7,21 1,3 3,4 6,5z"/>
   <path class="fil1" d="M506 761l-20 5 -25 8m-70 5c2,-1 4,-2 6,-3 7,-2 33,-8 53,-10 13,-2 32,-8 48,-13m-208 5c-12,-2 -10,-3 -18,-4 -3,-1 -13,-1 -16,-1 21,7 34,12 43,13m185 -21c-7,1 -13,2 -19,3 -30,8 -60,12 -72,12m93 -15l-1 0m8 0c-2,0 -5,0 -8,0m256 -501c-19,-5 -34,-18 -48,-45 -23,-44 -30,-63 -82,-77 -35,-9 -73,-14 -110,-24 -1,0 -1,0 -2,-1 -30,35 -70,70 -89,78 -2,1 -5,-1 -7,-2 -31,-19 -54,-40 -72,-67 0,0 -1,0 -1,0 -42,8 -72,17 -112,27 -42,11 -82,5 -97,56 -12,38 -14,59 -60,70 -7,2 -10,3 -15,3 -7,19 -12,36 -20,53 -13,31 14,66 -11,104 -29,43 26,187 29,197 2,9 10,19 12,32 23,-10 48,-11 75,-15 1,0 2,0 3,-1 0,-5 -6,-9 -5,-24 4,-56 15,-34 24,-100 -8,-78 18,-44 33,-141l3 -15 0 0c-5,23 8,55 -6,76 0,1 0,1 0,2 1,6 3,11 5,17 14,64 10,20 20,55 3,10 2,13 -3,2 -7,-15 -15,-30 -19,-34 -12,17 -12,37 -7,58 5,22 -18,25 0,72 6,17 0,27 -2,36 -3,9 1,11 2,20 3,18 0,83 9,97 18,3 39,1 58,4 10,2 144,22 145,22 11,1 24,0 40,-1 10,0 20,-2 30,-4 15,-3 30,-8 45,-13 21,-8 69,-17 91,-24 15,-5 46,-11 48,-12 4,-17 -1,-57 -7,-74 -3,3 -24,28 -41,43 -3,3 -3,3 -8,4 4,-11 28,-30 39,-44 10,-13 33,-65 20,-80 -5,3 -14,23 -18,30 -12,21 -21,39 -34,60 -4,7 -13,26 -20,28 -2,-5 1,-7 4,-13 17,-30 32,-52 49,-86 20,-38 25,-80 21,-124 -6,3 -16,31 -19,40 -6,16 -12,32 -18,48 -4,12 -17,32 -23,48 -4,8 -3,16 -7,23 -2,5 -3,7 -6,11 -3,6 -2,6 -9,8 2,-7 9,-19 12,-26 13,-24 43,-111 50,-132 6,-18 13,-30 18,-49 1,-3 1,-7 2,-12 -1,-4 -1,-7 -1,-9 -9,-33 -8,-144 -18,-182 28,41 -5,164 43,211 3,1 11,-2 5,60 9,65 17,56 21,100 1,16 -5,19 -5,25 0,0 1,0 2,0 28,4 47,0 70,10 34,-23 41,-91 42,-130 0,-33 25,-70 7,-94 -24,-35 16,-73 2,-104 -7,-16 -23,-53 -27,-69 -9,1 -17,1 -24,1 -9,-1 -17,-1 -26,-3zm20 -6c8,1 17,0 28,-1 -6,-20 -12,-48 -13,-54 -5,-32 -20,-78 -54,-93 -32,-14 -150,-31 -184,-48 -5,13 -18,31 -33,48 37,9 74,14 108,23 55,15 64,36 88,82 12,23 24,36 41,40 7,2 11,3 19,3zm-712 15c36,-7 50,-16 60,-56 21,-78 53,-59 107,-73 40,-10 69,-19 110,-26 -6,-11 -11,-22 -15,-35 -3,-9 -6,-15 -7,-21 -16,8 -63,17 -74,22 -19,6 -38,11 -57,16 -22,6 -68,8 -79,29 -16,27 -33,109 -45,142 0,1 0,1 0,2zm283 -252c38,26 78,28 124,22 15,-2 43,-6 56,-13 6,-3 20,11 25,20 28,15 185,39 209,62 18,18 28,30 36,55 3,11 5,22 7,33 3,18 12,48 16,73 8,15 17,39 25,55 16,37 -23,75 -4,102 24,33 -4,65 -4,104 -1,42 -15,112 -46,143 -5,6 -17,-4 -21,-5 -16,-6 -62,-2 -69,-12 -6,-10 5,-17 4,-31 -2,-17 -13,-35 -17,-56 -7,-38 -4,-60 -7,-94 -3,-2 -6,-6 -9,-10 0,19 8,29 8,53 0,29 -7,44 -7,59 0,5 14,20 2,58 -2,4 -8,19 -8,23 0,11 2,10 3,17 2,6 2,10 3,16 2,19 2,33 0,52 -2,19 -12,11 -37,17 -63,16 -127,47 -199,47l-43 0c-4,0 -8,0 -12,-1 0,1 -1,1 -1,0 -17,-1 -68,-4 -96,-11 -34,-9 -29,-9 -65,-9 -6,0 -17,1 -22,-1 -6,-1 -7,-5 -9,-11 -7,-23 -7,-52 -7,-77 0,-13 -4,-35 -4,-38 0,-21 5,-17 5,-29 0,-7 -5,-14 -7,-21 -12,-35 3,-31 3,-61 0,-30 13,-59 13,-73 0,-2 -1,-3 -1,-5 -14,32 -12,63 -19,100 -4,22 -12,21 -15,55 -1,14 10,21 3,31 -6,10 -52,6 -68,12 -5,1 -16,11 -22,5 -39,-40 -67,-220 -50,-247 20,-29 -6,-65 10,-102 8,-16 13,-40 20,-55 8,-35 23,-70 28,-106 0,-2 1,-3 2,-5 1,-3 2,-6 3,-9 20,-60 72,-59 126,-73 30,-8 82,-18 109,-36l0 0c2,-7 8,-13 19,-23 0,0 1,0 1,-1 2,-1 9,0 9,1zm-19 603c-31,-34 -4,-2 -22,-31 -87,-142 -5,-16 26,24 0,1 1,2 1,2 3,7 26,35 -5,5zm-130 57c2,2 0,1 4,4 2,3 24,13 27,14 18,8 79,43 94,39 0,-1 -1,-2 -1,-3l-31 -12c-22,-9 -85,-42 -93,-42zm162 -624c30,20 115,23 145,3 4,-6 8,-11 11,-17 -19,6 -39,9 -58,10 -43,4 -76,1 -112,-22 3,7 5,14 8,21 1,3 3,4 6,5zm65 94c-2,0 -3,0 -5,0 -43,-28 -67,-71 -82,-119 -17,15 -14,19 -4,48 17,48 44,78 86,104 4,3 4,2 8,0 1,0 2,-1 3,-1 35,-19 107,-95 114,-128 -2,-5 -11,-14 -15,-17l-1 1c-23,42 -60,82 -99,109 -1,1 -4,2 -5,3zm68 -75c-36,12 -100,7 -132,-8 14,29 34,55 62,74 1,0 1,-1 1,-1 23,-16 48,-40 69,-65z"/>
  </g>
 </g>
</svg>
