<svg xmlns="http://www.w3.org/2000/svg" xml:space="preserve" width="7.8462in" height="6.00249in" version="1.1" style="shape-rendering:geometricPrecision; text-rendering:geometricPrecision; image-rendering:optimizeQuality; fill-rule:evenodd; clip-rule:evenodd"
viewBox="0 0 2285 1748"
 xmlns:xlink="http://www.w3.org/1999/xlink">
 <defs>
  <style type="text/css">
   <![CDATA[
    .fil1 {fill:black}
    .fil0 {fill:white}
   ]]>
  </style>
 </defs>
 <g id="Layer_x0020_1">
  <metadata id="CorelCorpID_0Corel-Layer"/>
  <g id="_946234864">
   <path class="fil0" d="M1738 27c5,1 10,3 14,8 9,-1 19,-2 29,-3 1,-1 1,-2 2,-3 2,-5 4,-6 6,-5 2,-1 5,-2 8,-1 5,0 9,2 13,6 10,-1 20,-2 30,-3 4,-5 9,-9 16,-8 5,0 9,2 12,5 11,-1 22,-2 32,-3 4,-5 8,-8 15,-8 5,1 8,3 11,5 12,-1 23,-2 34,-3 3,-5 8,-8 15,-7 4,0 8,2 11,4 12,-1 23,-2 33,-3 4,-5 9,-9 16,-8 4,0 8,2 11,5 21,-2 33,-4 33,-4l2 7c13,-34 26,63 20,90l2 9 14 132c3,3 4,7 5,11 4,23 9,45 13,65 1,2 2,2 1,2 43,204 72,253 87,496 5,97 -15,152 -11,204 1,17 47,60 14,195 -4,17 -20,70 -19,82 1,37 7,33 12,58 3,19 4,33 7,54 9,64 63,55 58,120 -4,67 -29,39 -91,65 -75,29 -134,70 -197,102 -62,31 -129,55 -215,55l-103 0c-53,-2 -94,-8 -176,-34 -85,-26 -93,-26 -181,-26 -14,0 -39,3 -52,-1 -15,-5 -20,-16 -26,-34 -30,-65 37,-91 13,-162 -16,-39 -59,-101 -64,-110 -39,-61 -17,-50 -40,-83 -3,-4 -6,-8 -10,-12 -3,4 -6,8 -9,12 -23,33 -1,22 -40,83 -6,9 -48,71 -64,110 -24,71 42,97 13,162 -7,18 -11,29 -27,34 -13,4 -37,1 -52,1 -88,0 -96,0 -181,26 -81,26 -122,32 -176,34l-102 0c-87,0 -153,-24 -215,-55 -63,-32 -122,-73 -198,-102 -61,-26 -86,2 -91,-65 -4,-65 50,-56 59,-120 3,-21 3,-35 7,-54 5,-25 10,-21 12,-58 0,-12 -15,-65 -19,-82 -19,-77 -12,-124 -3,-153 -8,-13 -9,-36 -9,-88 1,-56 2,-84 12,-133 -6,-7 -5,-17 3,-22 0,-1 0,-2 0,-2 -2,-5 -3,-10 -3,-15 2,-23 5,-45 8,-67 13,-193 89,-401 114,-618 1,-10 1,-20 2,-30 2,-18 4,-39 9,-56 2,-8 5,-17 12,-22l1 -5c0,0 41,5 98,11 1,-1 2,-1 3,0 17,2 35,3 54,5 2,-4 5,-3 7,1 17,2 34,4 51,5 3,-6 6,-5 9,1 16,2 33,3 50,5 3,-8 7,-6 10,1 4,0 7,1 11,1 2,-1 4,-1 7,-1 4,0 7,1 10,3 6,0 13,1 19,2 5,-13 9,-10 13,1 2,0 4,0 6,0 3,-1 6,-3 10,-3 6,0 9,2 12,5 6,1 12,2 18,2 5,-17 10,-12 14,1 1,0 2,0 4,1 3,-3 7,-4 11,-4 6,0 10,2 13,6 3,0 6,0 9,0 2,0 5,1 8,1 5,-18 10,-14 15,0 3,-3 7,-6 13,-6 6,0 11,3 14,8 5,0 11,0 16,0 6,-20 11,-14 15,1 0,0 1,0 1,0 3,-4 7,-6 13,-6 5,0 10,2 13,6 6,0 12,0 18,0 5,-18 10,-14 14,0 1,0 1,0 1,0 4,-3 8,-4 12,-4 5,0 9,1 12,4 7,0 14,0 21,0 4,-15 9,-12 13,0 1,0 2,0 3,0 3,-2 6,-3 10,-3 4,0 7,1 9,3 8,0 16,0 25,0 4,-13 8,-10 12,-1 2,0 4,0 7,0 1,0 4,-1 6,-1 2,0 3,1 5,1 10,0 20,0 29,0 4,-10 8,-8 11,0 17,-1 34,-1 50,-1 3,-7 6,-6 9,0 18,-1 35,-1 51,-1 2,-5 5,-5 7,-1 20,0 37,0 53,0 2,-3 4,-3 6,0 24,-1 41,-1 51,0l0 -5 41 2c12,-1 42,0 80,1 2,-3 4,-2 6,1 16,0 34,1 52,1 3,-7 7,-6 10,1 1,0 2,0 4,0 1,-1 3,-1 5,-1 1,0 3,1 4,1 12,1 23,1 35,1 4,-10 8,-9 11,-2 3,-1 5,-2 8,-2 4,1 8,2 11,5 10,0 19,0 29,0 4,-13 8,-13 11,-5 3,-1 5,-2 8,-2 6,1 11,3 14,8 9,0 17,0 26,0 4,-15 8,-16 11,-9 3,-1 5,-2 8,-1 7,0 12,4 16,9 8,0 16,0 24,-1 4,-15 8,-16 12,-10 2,-1 4,-1 7,-1 7,0 12,4 16,10 2,-1 3,-1 5,-1 6,0 13,-1 20,-1 4,-13 7,-15 11,-11 2,-1 4,-1 7,-1 6,1 11,4 15,9 8,-1 18,-2 27,-3 0,0 0,0 0,0 3,-10 6,-12 9,-9 2,-1 5,-1 8,-1z"/>
   <g>
    <path class="fil1" d="M97 864c1,102 37,216 56,276 36,119 69,194 102,296 6,20 13,29 6,43 -17,-9 -33,-71 -41,-93 -27,-72 -47,-134 -73,-209 -9,-25 -29,-96 -44,-109 -42,43 13,227 35,273 25,50 30,66 38,103 -12,-5 40,47 33,38 -41,-53 -88,-141 -97,-151 -18,55 -88,131 -79,192 5,4 81,27 118,47 55,29 107,62 161,88 53,26 109,46 171,52 102,10 161,2 212,-12 52,-13 98,-32 173,-46 46,-8 96,-2 140,-10 28,-39 -5,-148 13,-208 -24,11 -61,26 -69,30 -53,22 -258,127 -286,107 4,-11 -4,-2 8,-10 27,-11 54,-21 81,-32 51,-19 205,-85 273,-109 0,-1 1,-2 1,-3 18,-25 29,-30 39,-57 7,-19 11,-40 32,-68 -40,23 -80,48 -121,71 -7,4 -16,1 -19,-7 -4,-7 -1,-15 6,-19 51,-25 106,-59 163,-84 8,-10 9,-17 8,-72 -3,-146 -29,-256 -16,-407 2,-8 9,-14 17,-12 8,1 13,8 12,16 -18,152 16,327 -3,453 -1,6 -2,12 -5,17l0 0c47,-19 95,-30 143,-24l52 13 -53 -2c-45,1 -86,12 -125,28 45,44 48,73 58,97 9,27 21,32 38,57 1,1 1,2 2,3 67,24 65,27 115,46 28,11 55,22 81,32 13,8 4,0 9,11 -28,19 -76,-23 -130,-45 -8,-4 -44,-19 -69,-30 18,60 -14,169 13,208 45,8 94,2 141,10 74,14 120,33 172,46 52,14 111,22 213,12 62,-6 117,-26 171,-52 53,-26 105,-59 161,-88 37,-20 112,-43 117,-47 10,-61 -60,-137 -78,-192 -9,10 -92,18 -133,71 -4,6 269,-202 142,-334 -15,13 -35,84 -45,109 -26,75 -81,57 -107,129 -9,22 -25,84 -42,93 -7,-14 0,-23 6,-43 33,-102 101,-97 137,-216 127,-268 -33,-758 -89,-1021l-10 -44c-129,14 -258,28 -387,37 -52,4 -105,5 -157,5 -77,0 -156,-2 -233,-6l0 4 -70 -3c-35,-2 -73,0 -108,1 -62,1 -123,2 -185,3 -83,1 -170,2 -252,-4 -129,-9 -259,-23 -387,-37l-10 44c-28,253 -148,530 -146,745zm2020 -625c3,3 4,7 5,11 4,23 9,45 13,65 1,2 2,2 1,2 43,204 72,253 87,496 5,97 -15,152 -11,204 1,17 47,60 14,195 -4,17 -20,70 -19,82 1,37 7,33 12,58 3,19 4,33 7,54 9,64 63,55 58,120 -4,67 -29,39 -91,65 -75,29 -134,70 -197,102 -62,31 -129,55 -215,55 -34,0 -68,0 -103,0 -53,-2 -94,-8 -176,-34 -85,-26 -93,-26 -181,-26 -14,0 -39,3 -52,-1 -15,-5 -20,-16 -26,-34 -30,-65 37,-91 13,-162 -16,-39 -59,-101 -64,-110 -39,-61 -17,-50 -40,-83 -3,-4 -6,-8 -10,-12 -3,4 -6,8 -9,12 -23,33 -1,22 -40,83 -6,9 -48,71 -64,110 -24,71 42,97 13,162 -7,18 -11,29 -27,34 -13,4 -37,1 -52,1 -88,0 -96,0 -181,26 -81,26 -122,32 -176,34 -34,0 -68,0 -102,0 -87,0 -153,-24 -215,-55 -63,-32 -122,-73 -198,-102 -61,-26 -86,2 -91,-65 -4,-65 50,-56 59,-120 3,-21 3,-35 7,-54 5,-25 10,-21 12,-58 0,-12 -15,-65 -19,-82 -34,-135 13,-178 14,-195 3,-52 -16,-107 -11,-203 -2,-5 -3,-10 -3,-15 2,-23 5,-45 8,-67 13,-195 91,-405 115,-625l23 -106c0,0 315,34 439,43 138,11 484,-3 543,0l0 -5 41 2c43,-3 271,14 413,3 124,-9 438,-43 438,-43l24 106 14 132z"/>
    <path class="fil1" d="M2018 314c36,162 52,328 85,491 -53,-94 -93,-366 -124,-483 -3,-9 4,-18 15,-20 11,-2 22,3 24,12z"/>
    <path class="fil1" d="M246 314c-36,162 -52,328 -85,491 53,-94 94,-366 124,-483 3,-9 -4,-18 -14,-20 -11,-2 -22,3 -25,12z"/>
    <path class="fil1" d="M377 118c-3,7 -10,14 -19,65l12 1c0,6 0,12 0,19 2,-7 4,-13 5,-19 14,1 27,2 41,3 -7,-63 -12,-72 -11,-83 1,-9 2,-18 2,-26l-8 -1c-3,-35 -12,-63 -23,-18 3,24 4,51 1,59zm-20 65c-7,-63 -12,-73 -11,-83 1,-9 2,-18 2,-25 -2,-1 -5,-1 -7,-1 -3,-36 -13,-67 -23,-20 3,24 3,50 0,60 -3,7 -10,14 -19,66 4,0 8,0 12,0 -1,6 0,11 -1,18 2,-7 4,-12 6,-17 14,0 27,1 41,2zm-5 -136c7,-43 14,-37 20,-16 3,-5 8,-10 16,-10 13,0 18,12 21,23 0,3 1,6 2,9 7,-45 14,-39 20,-17 4,-5 9,-9 16,-9 12,-1 17,11 20,21 1,3 2,7 3,10 6,-43 14,-40 20,-20 3,-5 8,-8 15,-8 13,0 18,12 20,21 1,5 2,9 3,14 7,-49 15,-45 20,-24 4,-4 9,-8 15,-8 13,0 18,12 21,22 1,5 2,10 3,15 7,-51 15,-47 21,-25 3,-5 8,-7 14,-7 12,0 18,11 21,20 1,5 2,10 3,15 7,-48 15,-47 21,-28 3,-3 7,-6 13,-6 12,0 17,11 21,21 1,6 2,11 3,17l1 0c7,-52 15,-50 20,-29 4,-4 8,-6 14,-6 12,0 17,11 20,20 2,5 3,11 4,16l1 0c7,-50 15,-49 21,-29 3,-3 7,-5 12,-5 12,0 18,10 20,20 2,5 3,10 4,15l3 0c7,-49 14,-48 20,-29 3,-3 7,-5 12,-5 12,0 17,11 20,20 2,5 3,10 4,15 1,0 2,0 3,0 7,-49 14,-48 20,-29 3,-3 7,-5 12,-5 11,1 17,11 20,20 2,5 3,10 4,14l3 0c7,-47 14,-47 20,-29 3,-2 7,-4 11,-4 12,1 18,11 21,20 1,4 2,9 3,14 2,0 3,0 5,0 6,-47 14,-47 19,-29 3,-3 7,-4 11,-4 11,0 17,10 20,19 2,5 3,9 4,14 2,0 3,0 5,0 7,-46 14,-46 19,-30 3,-2 7,-3 11,-3 11,0 17,10 20,19 2,4 3,9 4,13l6 0c6,-44 13,-45 18,-29 3,-2 6,-3 10,-3 15,0 21,17 25,32 2,0 4,0 6,0 6,-44 13,-45 19,-30 2,-2 5,-3 9,-3 14,1 21,18 24,32 3,0 5,0 8,0 6,-43 12,-44 18,-30 2,-2 5,-2 9,-2 14,0 21,17 24,31 3,0 5,0 8,0 6,-41 13,-44 18,-30 2,-2 5,-3 9,-2 14,0 20,16 24,30 3,0 6,0 8,0 6,-40 13,-43 18,-30 3,-1 5,-2 9,-2 13,1 20,17 24,31l9 -1c6,-38 12,-41 17,-30 3,-1 5,-2 8,-2 14,1 21,17 25,31l10 -1c5,-37 11,-41 16,-30 3,-1 5,-2 8,-2 14,1 21,16 25,30 3,0 7,-1 10,-1 6,-35 12,-39 16,-30 3,-1 5,-2 8,-1 14,0 20,15 24,29 4,-1 8,-1 12,-1 5,-33 11,-38 16,-30 2,-1 4,-1 7,-1 13,0 20,15 24,28 4,0 8,-1 12,-1 1,-5 2,-10 4,-15 4,-17 8,-20 12,-15 2,-1 4,-1 7,-1 13,1 20,15 23,28 5,-1 9,-1 13,-1 1,-7 3,-15 6,-21 3,-10 6,-12 9,-9 2,-1 5,-1 8,-1 13,1 19,14 23,27 5,-1 9,-1 13,-1 2,-9 4,-18 9,-24 2,-5 4,-6 6,-5 2,-1 5,-2 8,-1 13,1 19,13 23,26 4,-1 9,-1 13,-2 2,-14 8,-30 23,-29 12,1 19,13 23,25 4,-1 9,-1 14,-2 2,-13 7,-30 22,-29 12,1 19,13 22,24 5,0 10,-1 15,-2 2,-13 8,-29 23,-27 12,1 18,11 22,22 5,-1 10,-1 15,-2 2,-13 8,-28 23,-27 16,2 22,22 25,35 2,10 5,26 8,41 0,3 1,6 1,8 16,-184 41,-10 31,17 -3,8 -10,15 -20,73 -4,-35 -7,-54 -9,-66 0,3 0,6 -1,8 -1,4 -2,7 -3,11 -2,7 -3,15 -3,22 -1,11 0,23 0,35 1,11 2,23 3,34 0,0 -1,0 -1,0 -8,0 -12,3 -14,8 -6,-15 -12,-30 -17,-45 -3,-6 -5,-12 -7,-18 -1,0 -3,0 -5,0 -1,5 -2,10 -3,16 0,-5 -1,-10 -1,-15 -5,1 -10,1 -14,2 0,8 0,16 1,24 0,12 1,23 2,35 0,0 -1,0 -1,0 -8,-1 -12,3 -14,8 -6,-15 -12,-30 -17,-45 -2,-6 -4,-12 -6,-18 -3,1 -5,1 -7,1 -1,4 -2,9 -2,13 -1,-4 -1,-8 -2,-12 -4,0 -9,1 -13,1 0,8 0,15 1,23 1,12 2,23 3,35 -1,0 -1,0 -2,0 -8,-1 -12,2 -14,8 -6,-15 -12,-30 -17,-45 -2,-6 -4,-11 -6,-17 -2,1 -5,1 -8,1 -1,4 -1,7 -2,11 0,-4 -1,-7 -1,-10 -4,0 -9,1 -13,1 0,7 0,14 1,22 1,11 1,23 2,34 0,0 -1,0 -1,0 -8,-1 -13,3 -15,9 -5,-15 -11,-31 -16,-46 -2,-5 -3,-10 -5,-15 -4,0 -7,1 -10,1 -1,3 -1,5 -2,8 0,-3 0,-5 -1,-8 -4,1 -8,1 -12,1 0,7 0,14 1,21 0,11 1,23 2,34 -1,0 -1,0 -2,0 -7,-1 -12,3 -14,8 -6,-15 -11,-30 -16,-45 -2,-4 -4,-9 -5,-14 -4,0 -8,0 -11,1 -1,2 -1,4 -1,6 -1,-2 -1,-4 -1,-6 -4,0 -8,1 -12,1 0,6 0,13 0,19 1,11 1,23 2,35 -1,-1 -1,-1 -2,-1 -7,0 -11,3 -14,9 -5,-15 -11,-30 -16,-45 -1,-5 -3,-9 -4,-14 -4,0 -8,1 -12,1 -1,2 -1,3 -1,4l-1 -4c-4,1 -8,1 -11,1 -1,6 -1,12 0,18 0,11 0,23 1,34 -1,0 -1,0 -2,0 -8,0 -12,4 -14,9 -6,-15 -11,-30 -15,-45 -1,-4 -3,-9 -4,-13 -5,0 -9,1 -13,1l-1 2 0 -2c-4,0 -8,1 -12,1 0,5 0,11 0,16 0,12 1,23 1,35 -1,0 -1,0 -2,0 -7,0 -11,3 -14,8 -5,-15 -10,-30 -15,-44 -1,-4 -2,-8 -4,-13 -4,1 -9,1 -13,1l0 1 0 -1c-4,1 -9,1 -13,1 0,5 0,10 0,15 0,12 0,23 0,35 0,0 -1,0 -1,0 -8,-1 -13,3 -15,8 -5,-15 -9,-29 -14,-44 -1,-4 -2,-8 -3,-12 -9,1 -18,1 -27,2 0,4 0,9 0,14 0,11 0,23 0,35 -1,-1 -1,-1 -2,-1 -7,0 -12,4 -15,9 -4,-15 -9,-30 -13,-45 -1,-3 -2,-7 -3,-10 -9,0 -18,1 -27,1 0,4 0,9 -1,13 0,12 0,23 1,35 -1,0 -2,0 -3,0 -7,-1 -12,3 -14,8 -5,-15 -9,-30 -13,-44 -1,-3 -2,-7 -3,-10 -9,0 -18,1 -27,1 0,4 -1,8 -1,12 0,11 0,23 -1,35 0,0 -1,0 -1,0 -8,-1 -12,2 -15,7 -4,-14 -9,-29 -12,-43 -1,-3 -2,-6 -3,-10 -9,1 -19,1 -28,1 0,4 0,8 0,11 -1,12 -2,23 -2,35 -1,0 -1,0 -2,0 -7,0 -12,3 -15,8 -4,-14 -8,-29 -11,-44 -1,-3 -1,-6 -2,-8 -9,0 -19,0 -28,1 -1,3 -1,6 -1,9 -1,12 -2,24 -3,35 0,0 0,0 -1,0 -7,0 -12,3 -15,8 -4,-14 -8,-29 -11,-44 0,-2 -1,-5 -1,-8 -10,1 -19,1 -29,1 0,3 0,6 -1,9 -1,12 -2,23 -3,35 0,0 -1,0 -1,0 -8,-1 -13,4 -16,9 -4,-15 -7,-30 -10,-45 0,-3 0,-5 -1,-7 -9,0 -19,0 -28,0 -1,3 -1,6 -1,8 -2,12 -2,24 -4,35 0,0 -1,0 -2,0 -7,0 -12,3 -15,8 -3,-14 -6,-29 -9,-43 0,-3 -1,-5 -1,-8 -10,0 -19,0 -29,1 0,2 -1,5 -1,7 -1,12 -3,24 -4,35 -1,0 -1,0 -2,0 -8,0 -13,4 -16,10 -3,-15 -5,-30 -8,-46 0,-2 0,-4 -1,-6 -9,0 -19,0 -28,0 -1,2 -1,5 -2,7 -1,12 -3,24 -4,35 -1,0 -2,0 -2,0 -8,0 -13,4 -17,10 -2,-16 -4,-31 -6,-46 -1,-2 -1,-4 -2,-6 -9,-1 -18,-1 -28,-1 0,3 -1,5 -1,8 -2,11 -4,23 -6,35 0,0 -1,0 -1,0 -8,-1 -13,3 -16,8 -2,-15 -5,-29 -7,-44 0,-2 0,-5 -1,-7 -10,0 -19,0 -29,0 0,2 -1,4 -1,7 -2,12 -4,23 -6,35 0,0 -1,0 -2,0 -7,-1 -12,3 -15,8 -3,-15 -5,-29 -6,-43 -1,-3 -1,-5 -2,-8 -9,0 -19,0 -28,-1 0,3 -1,5 -1,8 -3,11 -5,23 -7,35 -1,-1 -1,-1 -2,-1 -8,0 -13,4 -17,10 -2,-15 -3,-30 -4,-45 0,-2 -1,-5 -1,-7 -9,-1 -19,-1 -29,-1 0,2 -1,5 -1,7 -3,12 -5,23 -7,35 -1,0 -2,0 -2,0 -8,0 -14,4 -17,10 -1,-15 -2,-30 -4,-45 0,-3 0,-5 0,-8 -10,0 -19,0 -29,-1 -1,2 -1,5 -1,7 -3,12 -6,23 -8,35 -1,0 -2,0 -2,0 -8,0 -13,4 -18,10 0,-15 -1,-30 -2,-45 0,-3 0,-5 -1,-8 -9,0 -19,-1 -28,-1 -1,2 -1,5 -2,7 -3,11 -5,23 -8,35 -1,0 -1,0 -2,0 -8,0 -14,4 -17,9 -1,-15 -2,-30 -2,-45 0,-2 0,-5 -1,-7 -9,0 -18,-1 -28,-1 0,2 -1,4 -1,6 -3,12 -6,24 -9,36 0,0 -1,0 -2,0 -7,0 -13,3 -17,8 0,-15 -1,-29 -2,-44 0,-2 -1,-5 0,-8 -10,0 -19,-1 -29,-1 -1,2 -1,4 -2,6 -3,12 -6,23 -9,35 -1,0 -1,0 -2,0 -8,0 -13,4 -18,9 0,-14 0,-29 0,-44 0,-3 0,-5 0,-8 -10,0 -19,-1 -29,-2 0,2 -1,4 -1,6 -4,12 -7,23 -11,35 0,0 -1,0 -1,0 -8,0 -14,4 -18,10 0,-15 0,-30 0,-45 0,-2 0,-5 0,-8 -9,0 -19,-1 -28,-1 -1,1 -1,3 -2,5 -3,12 -7,24 -11,36 0,0 -1,0 -1,0 -8,0 -13,4 -18,10 0,-15 0,-31 0,-46 1,-2 1,-5 0,-8 -9,0 -18,-1 -28,-1 0,1 -1,3 -1,4 -3,12 -7,24 -10,36 -1,0 -2,0 -3,0 -7,0 -13,4 -17,9 0,-15 0,-29 1,-44 0,-3 0,-5 0,-7 -10,-1 -20,-2 -29,-2 0,1 -1,2 -1,3 -4,12 -7,24 -11,35 -1,0 -2,0 -2,0 -8,0 -14,5 -19,11 1,-15 2,-30 2,-45 1,-2 1,-4 1,-6 -10,-1 -20,-1 -29,-2 -1,1 -1,1 -1,2 -4,12 -8,24 -11,36 -1,0 -2,0 -2,0 -8,0 -14,4 -18,10 0,-16 1,-31 2,-46 0,-1 0,-2 0,-3 -14,0 -28,-1 -42,-1 -3,0 -6,0 -10,0 0,-3 -1,-6 -1,-9 0,-2 -1,-4 -3,-6 -1,-1 -2,-2 -2,-3 0,-1 0,-3 0,-4 0,-14 0,-28 1,-42 1,-14 2,-28 3,-42 2,-18 4,-39 9,-56 2,-11 8,-24 20,-25 14,-1 19,11 22,22 0,2 1,4 1,5 7,-34 14,-27 19,-7 4,-6 9,-11 17,-12 13,0 19,13 22,24 0,1 0,3 1,4 6,-38 14,-32 19,-12 3,-6 9,-11 16,-11 14,0 19,13 21,23 1,3 2,5 2,8zm1029 16c5,-12 12,4 17,27 6,-1 12,-1 18,-1 -1,10 -2,22 -3,36 -1,10 3,18 10,76 -9,0 -18,1 -27,1 -1,7 -2,14 -2,23 -2,-8 -4,-16 -6,-23l-22 1c9,-48 16,-55 18,-62 5,-11 2,-52 -3,-78zm59 -3c5,-10 12,6 17,27 6,0 12,0 19,0 -2,10 -3,22 -4,36 -1,10 3,18 10,75 -9,0 -18,1 -26,1 -1,7 -2,15 -2,24 -2,-9 -4,-16 -6,-23 -7,0 -15,0 -22,1 9,-47 15,-54 18,-61 4,-13 2,-54 -4,-80zm59 -3c5,-9 12,7 17,28 6,0 13,-1 19,-1 -1,10 -2,23 -3,37 -1,10 3,19 10,74 -9,0 -18,1 -26,1 -1,7 -1,15 -1,25 -3,-9 -5,-17 -7,-24 -8,0 -15,0 -22,1 8,-46 14,-53 17,-60 5,-12 2,-55 -4,-81zm59 -3c6,-8 12,7 17,28 7,-1 13,-1 20,-1 -1,10 -3,23 -4,38 -1,10 3,18 10,72 -8,0 -17,1 -26,1 0,8 0,16 0,26 -3,-9 -5,-18 -8,-25 -7,0 -14,1 -21,1 8,-44 14,-51 17,-58 4,-12 1,-56 -5,-82zm60 -3c5,-7 11,8 16,27 7,0 14,-1 21,-1 -2,11 -3,24 -4,40 -1,9 3,17 9,69 -8,1 -16,2 -25,2 0,8 0,17 0,27 -3,-10 -6,-18 -8,-26 -8,0 -14,1 -22,1 9,-43 15,-49 17,-56 5,-12 2,-58 -4,-83zm59 -5c5,-4 11,9 15,28 8,-1 15,-1 23,-2 -2,12 -3,25 -5,42 0,9 3,17 10,68 -9,0 -17,1 -25,2 -1,7 -1,17 -1,28 -3,-11 -6,-20 -8,-28l-21 2c8,-41 14,-48 17,-55 5,-14 1,-60 -5,-85zm59 -4c5,-4 10,9 15,27 8,0 16,-1 24,-2 -2,12 -4,26 -5,44 -1,9 3,17 9,65 -8,1 -16,2 -25,3 0,8 0,17 0,29 -4,-11 -7,-21 -9,-29 -7,1 -13,2 -20,2 8,-40 14,-46 16,-53 5,-13 2,-61 -5,-86zm60 -4c4,-4 9,9 14,26 8,-1 16,-1 24,-2 -1,12 -3,27 -4,45 -1,9 3,17 9,63 -9,1 -17,2 -26,3 0,8 0,18 0,30 -3,-11 -6,-21 -9,-29 -6,0 -13,1 -19,2 8,-38 14,-45 16,-52 5,-12 1,-62 -5,-86zm59 -5c4,-3 9,9 14,25 8,-1 17,-1 25,-2 -1,12 -3,28 -5,47 0,9 3,17 9,61 -9,1 -17,2 -26,3 0,8 0,18 1,32 -4,-13 -8,-23 -11,-31 -5,0 -11,1 -16,2 7,-36 12,-43 15,-49 5,-13 1,-64 -6,-88zm59 -6c5,-2 10,9 13,25 9,-1 18,-2 27,-3 -1,13 -3,29 -5,49 -1,9 3,17 8,59 -8,1 -17,2 -26,3 0,9 0,19 1,33 -5,-13 -9,-23 -11,-32 -5,1 -10,1 -15,2 7,-34 12,-40 14,-47 6,-13 2,-66 -6,-89zm60 -6c4,-2 9,9 13,24 9,-1 18,-2 28,-3 -2,13 -4,30 -6,52 -1,8 2,15 8,55 -9,1 -18,2 -27,4 0,8 0,20 0,34 -4,-13 -8,-24 -11,-33l-13 2c7,-32 12,-38 14,-44 5,-14 1,-68 -6,-91zm59 -6c4,-3 9,7 12,22 7,25 14,62 11,73 -2,6 -5,11 -7,35 -1,9 -1,20 0,35 -5,-13 -8,-25 -11,-34l-11 2c6,-29 11,-36 13,-42 5,-14 1,-70 -7,-91zm-669 188c-10,1 -19,1 -29,2 0,6 -1,13 -1,22 -2,-8 -4,-16 -6,-22 -7,0 -14,0 -21,1 9,-50 15,-57 18,-64 4,-11 2,-51 -4,-77 6,-13 13,3 18,26 6,0 12,0 18,0 -2,10 -3,21 -4,35 -1,10 4,18 11,77zm-60 3c-9,0 -19,0 -29,0 -1,7 -1,14 -2,22 -2,-8 -3,-15 -5,-21 -7,0 -14,0 -21,0 9,-50 16,-57 18,-64 4,-11 2,-50 -3,-76 6,-15 13,2 18,25 6,0 11,0 17,0 -1,10 -2,21 -3,35 -1,10 3,18 10,79zm-59 1c-10,0 -20,1 -31,1 0,6 -1,13 -2,21 -1,-8 -3,-15 -4,-21 -7,0 -14,0 -21,0 9,-51 16,-58 19,-65 4,-10 2,-48 -3,-75 6,-16 13,1 18,25l17 0c-2,10 -3,21 -4,34 -1,10 4,19 11,80zm-59 1c-11,0 -21,1 -32,1 -1,6 -1,12 -2,20 -2,-7 -3,-14 -4,-20 -7,0 -13,0 -20,0 9,-51 16,-58 18,-66 5,-10 3,-47 -2,-74 6,-17 13,1 18,25l16 0c-1,10 -2,21 -3,34 -1,10 3,19 11,80zm-60 1c-10,0 -21,0 -32,0 -1,6 -2,13 -3,20 -1,-7 -2,-14 -3,-20 -7,0 -13,0 -19,0 9,-51 15,-58 18,-66 4,-10 2,-46 -2,-72 6,-20 13,-2 18,24l16 0c-1,9 -3,20 -4,33 0,10 4,19 11,81zm-59 0c-11,0 -22,0 -33,0 -1,6 -2,12 -3,20 -2,-7 -3,-14 -4,-20 -6,0 -12,0 -18,0 9,-52 16,-59 19,-66 4,-10 2,-45 -2,-71 6,-22 14,-3 18,23l15 0c-1,9 -2,20 -3,32 -1,11 4,20 11,82zm-59 0c-12,0 -23,0 -35,0 -1,5 -2,12 -3,19 -1,-7 -2,-13 -3,-19 -6,0 -12,0 -17,0 9,-52 16,-59 18,-67 4,-9 3,-44 -2,-70 7,-23 15,-4 19,23 5,0 10,0 15,0 -1,9 -2,20 -3,32 -1,10 4,19 11,82zm-60 -1c-11,0 -23,0 -35,0 -1,6 -2,12 -4,19 -1,-7 -2,-13 -2,-19l-16 0c9,-52 15,-59 18,-67 4,-10 3,-43 -2,-69 8,-25 15,-5 19,23 5,0 10,0 15,0 -2,9 -3,19 -4,31 0,10 4,19 11,82zm-59 0c-12,-1 -24,-1 -36,-1 -2,6 -3,12 -4,19 -1,-7 -2,-13 -2,-19 -6,0 -11,-1 -16,-1 10,-52 16,-58 19,-66 4,-9 2,-42 -2,-68 8,-27 15,-6 20,22 4,0 9,0 13,0 -1,9 -2,20 -3,31 -1,10 4,19 11,83zm-59 -2c-13,0 -25,0 -38,-1 -1,6 -2,12 -4,20 -1,-7 -1,-14 -2,-20 -4,0 -9,0 -14,0 9,-52 16,-59 19,-66 3,-10 2,-42 -2,-67 8,-29 16,-8 20,21 4,0 9,1 13,1 -1,8 -2,18 -3,30 -1,10 4,19 11,82zm-59 -1c-13,-1 -26,-1 -39,-2 -1,6 -3,13 -4,20 -1,-7 -1,-14 -2,-20l-13 0c9,-52 16,-59 18,-66 4,-9 3,-41 -1,-66 8,-31 16,-8 20,21 4,0 8,1 13,1 -1,8 -2,18 -3,29 -1,10 3,19 11,83zm-60 -2c-13,-1 -26,-1 -39,-2 -1,6 -2,12 -4,20 0,-8 -1,-14 -2,-20l-12 -1c9,-51 15,-58 18,-65 4,-11 3,-42 -1,-67 9,-30 17,-7 20,23l12 0c-1,9 -2,18 -2,29 -1,10 3,19 10,83zm-59 -3c-13,0 -26,-1 -39,-1 -2,5 -4,12 -5,19 0,-7 -1,-14 -1,-20 -4,0 -8,0 -12,0 9,-52 15,-59 18,-66 4,-9 3,-38 -1,-63 9,-34 18,-11 22,20l10 1c-1,8 -2,17 -3,28 -1,10 4,19 11,82zm-59 -2c-13,-1 -27,-2 -40,-2 -2,5 -3,12 -5,19 0,-7 -1,-14 -1,-20 -4,0 -8,0 -12,0 10,-52 16,-58 19,-66 3,-8 2,-38 -1,-63 10,-37 18,-11 21,21 4,0 7,0 11,1 -1,8 -2,17 -3,27 -1,10 4,19 11,83zm-59 -3c-13,-1 -27,-2 -40,-3 -2,6 -4,12 -6,19 0,-7 0,-13 0,-19l-12 -1c9,-51 16,-58 19,-65 4,-10 3,-38 0,-63 9,-38 17,-12 21,21l10 1c-1,8 -2,17 -3,27 -1,10 4,19 11,83zm-59 -4c-14,-1 -27,-2 -41,-3 -1,6 -3,12 -5,19 0,-7 0,-13 0,-19l-12 -1c9,-51 16,-57 19,-65 3,-9 2,-36 -1,-60 10,-41 20,-14 23,19 3,0 6,0 9,0 -1,8 -2,17 -3,27 -1,11 4,20 11,83zm-177 -12c-14,0 -28,-1 -42,-2 -1,5 -2,10 -4,15 0,-5 0,-10 0,-15l-12 0c9,-54 16,-61 19,-68 3,-9 3,-35 0,-58 11,-49 21,-17 24,20 2,0 4,0 6,1 0,7 -1,15 -2,23 -1,11 4,20 11,84zm-59 -2c-10,-1 -26,-1 -40,-2 -1,-3 -3,-7 -6,-10 0,-30 2,-58 5,-81 2,-23 5,-42 8,-54 6,-23 15,-17 19,39l5 0c-1,7 -1,14 -2,21 -1,11 4,20 11,87z"/>
    <path class="fil1" d="M160 1094c126,29 146,-56 138,-180 -2,-19 16,-108 -4,-116 3,1 4,2 6,4 -5,-10 -11,-14 -22,-12 -77,15 -131,-17 -208,-35 -1,15 -5,43 -6,58l0 2c-9,4 -12,16 -5,23 -10,49 -11,77 -12,133 -2,127 8,85 113,123zm-54 -257c38,20 131,27 167,32l-75 11c-24,1 -62,-6 -93,-17 -3,65 -3,130 -2,195l4 1c46,13 116,49 144,-6 19,-35 36,-182 28,-235 -1,0 -1,-1 -2,-1 -78,1 -116,-2 -169,-23 -1,14 -2,28 -2,43z"/>
   </g>
  </g>
 </g>
</svg>
