<svg xmlns="http://www.w3.org/2000/svg" xml:space="preserve" width="7.8462in" height="6.00249in" version="1.1" style="shape-rendering:geometricPrecision; text-rendering:geometricPrecision; image-rendering:optimizeQuality; fill-rule:evenodd; clip-rule:evenodd"
viewBox="0 0 1314 1005"
 xmlns:xlink="http://www.w3.org/1999/xlink">
 <defs>
  <style type="text/css">
   <![CDATA[
    .str0 {stroke:black;stroke-width:8.32416}
    .fil1 {fill:black}
    .fil0 {fill:white}
    .fil2 {fill:black;fill-rule:nonzero}
    .fil3 {fill:#BDBF9D;fill-rule:nonzero}
   ]]>
  </style>
 </defs>
 <g id="Layer_x0020_1">
  <metadata id="CorelCorpID_0Corel-Layer"/>
  <path class="fil0" d="M999 16c4,0 6,1 8,4 6,-1 12,-1 17,-2 1,0 1,-1 1,-1 2,-3 3,-4 4,-3 1,-1 3,-1 5,-1 3,0 5,2 7,4 6,-1 12,-2 18,-2 2,-3 4,-5 9,-5 2,0 5,2 6,3 7,0 13,-1 19,-2 2,-2 5,-4 9,-4 2,0 4,1 6,3 7,-1 13,-1 19,-2 2,-3 5,-5 9,-4 2,0 4,1 6,2 7,0 13,-1 19,-2 2,-2 5,-4 9,-4 3,0 5,1 7,3 12,-1 19,-2 19,-2l1 4c7,-20 15,36 11,51l2 5 8 76c1,2 2,4 2,7 3,13 6,26 8,37 1,1 1,1 0,2 25,117 42,145 50,284 3,56 -8,88 -6,118 1,10 27,34 8,112 -2,10 -11,40 -11,47 1,22 4,19 7,33 2,11 3,19 4,31 5,38 36,32 34,69 -3,39 -17,23 -53,38 -43,17 -77,40 -113,59 -36,18 -74,31 -124,31l-59 0c-30,-1 -54,-4 -101,-19 -49,-15 -53,-15 -104,-15 -8,0 -22,2 -30,-1 -9,-2 -11,-9 -15,-19 -17,-38 21,-52 7,-94 -9,-22 -33,-57 -37,-63 -22,-35 -9,-29 -23,-48 -1,-2 -3,-4 -5,-6 -2,2 -4,4 -5,6 -14,19 -1,13 -23,48 -4,6 -28,41 -37,63 -14,42 24,56 7,94 -4,10 -6,17 -15,19 -8,3 -22,1 -30,1 -51,0 -55,0 -104,15 -47,15 -70,18 -101,19l-59 0c-50,0 -88,-13 -124,-31 -36,-19 -70,-42 -113,-59 -36,-15 -50,1 -53,-38 -2,-37 29,-31 34,-69 1,-12 2,-20 4,-31 3,-14 6,-11 7,-33 0,-7 -9,-37 -11,-47 -11,-44 -7,-71 -2,-88 -5,-7 20,-5 20,-35 1,-32 12,-68 -10,-83 -3,-4 -2,-10 2,-13 0,0 0,-1 0,-1 -1,-3 -2,-6 -2,-8 2,-14 3,-27 5,-39 7,-111 43,-239 57,-365 0,-5 1,-11 1,-16 1,-11 3,-23 5,-33 1,-5 3,-10 7,-13l1 -2c0,0 23,2 56,6 1,-1 2,-1 2,0 10,1 20,2 31,3 1,-2 3,-2 4,0 10,1 19,2 29,3 2,-3 4,-2 6,1 9,1 19,2 28,3 2,-5 4,-4 6,0 2,1 4,1 6,1 2,-1 3,-1 4,-1 3,0 5,1 6,2 4,0 8,1 11,1 3,-7 5,-6 8,1 1,0 2,0 3,0 2,-1 4,-2 6,-2 3,0 5,1 7,3 3,0 7,1 10,1 3,-10 6,-7 8,1 1,0 2,0 2,0 2,-2 4,-2 7,-2 3,0 5,1 7,3 2,0 4,0 5,0 2,1 3,1 5,1 3,-11 6,-8 8,0 2,-2 5,-3 8,-3 4,0 6,1 8,4 3,0 6,0 10,0 3,-11 6,-8 8,0 0,0 0,0 0,0 2,-2 5,-3 8,-3 3,0 6,1 7,4 4,0 7,0 11,0 3,-11 6,-8 8,0 0,0 1,0 1,0 2,-2 4,-3 7,-3 2,0 5,1 6,3 4,0 8,0 12,0 3,-9 6,-7 8,0 0,0 1,0 2,0 1,-1 3,-2 5,-2 2,0 4,1 6,2 4,-1 9,-1 14,-1 2,-7 5,-5 7,0 1,0 2,0 4,0 1,0 2,0 3,0 1,0 2,0 3,0 6,0 11,0 17,0 2,-6 4,-5 6,0 10,0 19,-1 29,-1 2,-4 3,-3 5,0 10,0 20,0 29,0 2,-3 3,-3 5,0 11,-1 21,-1 30,-1 1,-2 2,-2 3,0 14,0 24,0 30,0l0 -3 23 2c7,-1 24,0 46,0 2,-1 3,-1 4,0 9,1 19,1 30,2 2,-5 3,-4 5,0 1,0 2,0 2,0 1,0 2,-1 3,-1 1,1 2,1 3,1 7,0 13,0 20,1 2,-7 5,-6 7,-2 1,0 2,-1 4,-1 3,1 5,1 6,3 6,0 11,0 17,0 2,-7 4,-7 6,-3 2,-1 3,-1 5,-1 3,0 6,2 8,4 5,1 10,0 15,0 2,-8 4,-9 7,-5 1,0 2,0 4,0 4,0 7,2 9,5 5,0 9,0 14,0 2,-9 5,-10 7,-6 1,-1 2,-1 4,-1 4,0 7,2 9,6 1,0 2,0 3,-1 3,0 7,0 11,0 2,-8 5,-9 6,-6 2,-1 3,-1 5,-1 3,0 6,2 8,5 5,-1 10,-1 16,-1 0,-1 0,-1 0,-1 2,-5 4,-6 5,-5 1,0 3,0 4,0z"/>
  <path class="fil1" d="M56 497c1,59 21,124 32,159 21,68 40,112 59,170 3,12 7,16 3,25 -10,-5 -19,-41 -24,-54 -15,-41 -26,-77 -41,-120 -6,-15 -17,-55 -26,-63 -24,25 8,131 21,157 14,29 17,38 21,60 -7,-4 23,27 19,21 -23,-30 -51,-80 -56,-87 -10,32 -50,76 -45,111 3,2 47,16 68,27 32,16 61,35 92,51 31,15 63,26 99,30 58,5 92,0 122,-7 30,-8 56,-19 99,-27 27,-5 55,-1 81,-6 16,-22 -3,-85 7,-119 -14,6 -35,15 -39,17 -31,13 -149,73 -165,62 3,-7 -2,-2 5,-6 15,-6 31,-12 46,-19 29,-11 118,-49 157,-62 0,-1 1,-1 1,-2 10,-14 17,-17 22,-33 4,-10 6,-23 19,-39 -24,13 -46,28 -70,41 -4,2 -9,0 -11,-4 -2,-4 0,-9 4,-11 29,-15 60,-34 93,-48 5,-6 6,-10 5,-42 -2,-83 -17,-147 -9,-234 1,-5 5,-8 10,-7 4,1 7,5 6,10 -10,87 10,188 -1,260 -1,4 -2,7 -3,10l0 0c27,-11 55,-17 82,-14l30 8 -31 -2c-25,1 -49,7 -72,17 26,25 29,41 34,55 5,16 12,19 22,33 0,1 1,1 1,2 39,13 37,15 66,26 16,6 32,13 47,19 7,4 2,-1 5,6 -16,11 -44,-13 -75,-26 -4,-2 -25,-11 -39,-17 10,34 -9,97 7,119 26,5 54,1 81,6 43,8 69,19 99,27 30,7 64,12 122,7 36,-4 68,-15 99,-30 31,-16 60,-35 92,-51 21,-11 65,-25 68,-27 5,-35 -35,-79 -45,-111 -5,7 -53,11 -76,41 -3,4 154,-116 81,-192 -9,8 -20,48 -26,63 -15,43 -46,33 -62,74 -4,13 -14,49 -24,54 -4,-9 0,-13 4,-25 19,-59 58,-56 79,-124 73,-154 -19,-437 -52,-587l-5 -26c-74,8 -149,16 -223,22 -30,2 -60,2 -90,2 -45,0 -90,-1 -134,-3l0 2 -41 -2c-20,-1 -41,0 -62,1 -35,0 -70,1 -106,2 -47,0 -97,1 -145,-2 -74,-6 -149,-14 -223,-22l-5 25c-16,146 -85,305 -84,429zm1162 -360c1,2 2,4 2,7 3,13 6,26 8,37 1,1 1,1 0,2 25,117 42,145 50,284 3,56 -8,88 -6,118 1,10 27,34 8,112 -2,10 -11,40 -11,47 1,22 4,19 7,33 2,11 3,19 4,31 5,38 36,32 34,69 -3,39 -17,23 -53,38 -43,17 -77,40 -113,59 -36,18 -74,31 -124,31 -19,0 -39,0 -59,0 -30,-1 -54,-4 -101,-19 -49,-15 -53,-15 -104,-15 -8,0 -22,2 -30,-1 -9,-2 -11,-9 -15,-19 -17,-38 21,-52 7,-94 -9,-22 -33,-57 -37,-63 -22,-35 -9,-29 -23,-48 -1,-2 -3,-4 -5,-6 -2,2 -4,4 -5,6 -14,19 -1,13 -23,48 -4,6 -28,41 -37,63 -14,42 24,56 7,94 -4,10 -6,17 -15,19 -8,3 -22,1 -30,1 -51,0 -55,0 -104,15 -47,15 -70,18 -101,19 -20,0 -40,0 -59,0 -50,0 -88,-13 -124,-31 -36,-19 -70,-42 -113,-59 -36,-15 -50,1 -53,-38 -2,-37 29,-31 34,-69 1,-12 2,-20 4,-31 3,-14 6,-11 7,-33 0,-7 -9,-37 -11,-47 -19,-78 7,-102 8,-112 2,-30 -9,-62 -6,-117 -2,-3 -2,-5 -2,-8 1,-13 3,-26 5,-39 7,-112 52,-233 66,-360l13 -60c0,0 181,19 252,24 80,6 279,-1 313,0l0 -3 23 2c25,-2 156,8 238,1 71,-5 252,-24 252,-24l14 60 8 76z"/>
  <path class="fil1" d="M217 68c-2,4 -6,8 -11,37l7 1c0,3 0,7 0,11 1,-4 2,-8 3,-11 8,0 15,1 23,2 -4,-37 -7,-42 -6,-48 0,-6 1,-11 1,-15l-5 0c-1,-21 -7,-37 -12,-11 1,14 2,29 0,34zm-12 37c-4,-36 -6,-42 -6,-47 1,-6 1,-11 1,-15 -1,0 -3,0 -4,0 -2,-21 -7,-39 -13,-12 2,14 2,29 0,34 -2,5 -6,8 -11,38 2,0 4,1 7,1 0,3 0,6 0,10 1,-4 2,-7 3,-10 8,0 15,1 23,1zm-3 -78c4,-25 9,-21 12,-9 2,-3 5,-6 9,-6 7,0 10,7 12,13 0,2 1,4 1,5 4,-25 9,-22 12,-9 2,-3 5,-6 9,-6 7,0 10,7 12,13 0,2 1,4 1,6 4,-26 8,-23 12,-12 2,-3 5,-5 8,-5 8,0 11,7 12,13 1,2 1,5 2,7 4,-28 8,-25 11,-13 2,-3 5,-5 9,-5 7,0 10,7 12,13 0,2 1,5 2,9 4,-30 8,-28 12,-15 2,-3 4,-4 8,-4 7,0 10,6 12,12 0,2 1,5 2,8 4,-28 8,-27 11,-16 2,-2 5,-3 8,-3 7,0 10,6 12,12 1,3 2,6 2,9l1 0c4,-30 8,-28 11,-17 2,-2 5,-3 8,-3 7,0 10,6 12,12 0,3 1,6 2,9l1 0c4,-29 8,-28 11,-17 2,-2 5,-3 8,-3 6,0 9,6 11,12 1,3 2,6 2,9l2 0c4,-29 8,-28 11,-17 2,-2 4,-3 7,-3 7,0 10,6 12,11 1,3 2,6 2,9 1,0 1,0 2,0 4,-28 8,-27 11,-17 2,-1 4,-2 7,-2 7,0 10,6 12,11 1,3 1,5 2,8l2 0c4,-27 8,-27 11,-16 2,-2 4,-3 7,-3 7,0 10,6 12,11 0,3 1,6 2,8 0,0 1,0 2,0 4,-26 8,-26 11,-16 2,-2 4,-3 7,-3 6,1 9,6 11,12 1,2 2,5 2,7 1,0 2,0 3,0 4,-26 8,-26 11,-16 2,-2 4,-2 6,-2 7,0 10,5 12,11 1,2 2,5 2,7l3 0c4,-25 8,-26 11,-17 2,-1 4,-2 6,-1 8,0 12,10 14,18 1,0 2,0 4,0 3,-25 7,-26 10,-17 2,-1 4,-2 6,-2 8,1 12,10 14,18 1,0 3,0 4,0 3,-24 7,-25 10,-17 2,-1 4,-1 6,-1 8,0 12,10 14,18 1,0 3,0 4,0 4,-24 7,-25 10,-18 2,0 4,-1 5,-1 9,1 12,10 15,18 1,0 3,0 4,0 4,-23 8,-25 11,-17 1,-1 3,-2 4,-2 8,1 12,10 14,18l6 0c3,-22 7,-24 10,-18 1,0 2,-1 4,-1 8,1 12,10 14,18l6 -1c3,-21 7,-23 9,-17 2,-1 3,-1 5,-1 8,1 12,9 14,17 2,0 4,0 6,0 3,-20 7,-23 10,-18 1,0 2,0 4,0 8,0 11,9 14,16 2,0 4,0 7,0 3,-19 6,-22 9,-17 1,-1 2,-1 4,-1 7,0 11,9 14,16 2,0 4,0 7,0 0,-3 1,-6 2,-9 2,-9 4,-11 6,-8 2,-1 3,-1 5,-1 7,0 11,8 13,16 3,0 5,-1 8,-1 0,-4 1,-8 3,-12 2,-5 4,-6 5,-5 1,0 3,0 4,0 8,0 12,8 14,15 3,0 5,0 8,-1 0,-4 2,-10 4,-13 2,-3 3,-4 4,-3 1,-1 3,-1 5,-1 7,1 11,8 13,15 2,0 5,-1 8,-1 1,-8 4,-17 13,-17 7,1 10,8 12,15 3,-1 6,-1 9,-1 1,-8 4,-18 13,-17 6,1 10,7 12,14 3,-1 6,-1 9,-1 1,-8 4,-17 13,-16 7,0 10,7 12,13 3,-1 6,-1 9,-1 1,-8 5,-17 13,-16 10,1 13,13 15,20 1,6 3,15 4,24 1,2 1,3 1,5 9,-106 24,-6 18,9 -2,4 -6,9 -11,42 -3,-20 -5,-31 -6,-38 0,2 0,4 0,5 -1,2 -2,4 -2,6 -1,4 -2,8 -2,13 0,6 0,13 0,20 1,6 1,13 2,20 0,0 -1,0 -1,0 -4,-1 -6,1 -8,4 -3,-9 -7,-17 -10,-26 -1,-3 -2,-7 -4,-10 0,0 -1,0 -2,0 -1,3 -1,6 -2,9 0,-3 -1,-6 -1,-9 -3,1 -5,1 -8,1 0,5 0,10 1,14 0,7 0,14 1,20 0,0 0,0 -1,0 -4,0 -7,2 -8,5 -3,-9 -7,-17 -10,-26 -1,-3 -2,-7 -3,-10 -1,0 -3,0 -4,0 0,3 -1,5 -1,8 -1,-3 -1,-5 -1,-7 -3,0 -5,0 -8,1 0,4 0,8 1,13 0,6 1,13 2,20 -1,0 -1,0 -2,0 -4,-1 -7,1 -8,4 -3,-8 -6,-17 -9,-25 -1,-4 -3,-7 -4,-10 -1,0 -3,0 -5,1 0,1 0,4 -1,6 0,-2 0,-4 0,-6 -3,0 -5,0 -8,1 0,4 1,8 1,12 0,7 1,13 1,20 0,0 0,0 -1,0 -4,-1 -7,2 -8,5 -3,-9 -6,-18 -9,-26 -1,-3 -2,-6 -3,-9 -2,0 -4,0 -6,0 0,2 -1,3 -1,5 0,-1 0,-3 -1,-5 -2,1 -4,1 -6,1 0,4 0,8 0,12 0,6 0,13 1,20 -1,0 -1,0 -1,0 -4,-1 -7,1 -8,4 -3,-8 -6,-17 -9,-25 -1,-3 -2,-6 -3,-9 -2,0 -5,0 -7,1 0,1 0,2 0,3 0,-1 -1,-2 -1,-3 -2,0 -4,0 -7,0 0,4 0,8 1,11 0,7 0,14 1,20 -1,0 -1,0 -1,0 -5,0 -7,2 -9,5 -3,-9 -6,-17 -9,-26 0,-2 -1,-5 -2,-8 -3,0 -5,1 -7,1 0,1 -1,1 -1,2l0 -2c-2,0 -4,0 -7,0 0,4 0,7 0,11 0,6 1,13 1,19 0,0 -1,0 -1,0 -4,0 -7,2 -8,6 -3,-9 -6,-18 -9,-27 -1,-2 -1,-5 -2,-7 -3,0 -5,0 -8,1l0 1 0 -1c-2,0 -5,0 -7,0 0,3 0,6 0,10 0,6 0,13 1,20 -1,0 -1,0 -2,-1 -3,0 -6,2 -8,5 -2,-9 -5,-17 -8,-25 -1,-3 -1,-5 -2,-7 -3,0 -5,0 -8,0l0 0 0 0c-3,0 -5,0 -7,1 0,2 0,5 -1,8 0,7 0,14 1,20 -1,0 -1,0 -1,0 -5,0 -7,2 -9,5 -3,-9 -5,-17 -8,-26 0,-2 -1,-4 -2,-6 -5,0 -10,0 -15,1 0,2 0,5 0,8 0,6 0,13 0,20 0,0 -1,0 -1,0 -4,-1 -7,1 -9,4 -2,-8 -5,-17 -7,-25 -1,-2 -1,-4 -2,-6 -5,0 -10,0 -16,1 0,2 0,4 0,7 0,7 0,13 0,20 0,0 -1,0 -1,0 -4,0 -7,2 -8,4 -3,-8 -6,-16 -8,-25 0,-2 -1,-4 -1,-5 -6,0 -11,0 -16,0 0,2 0,5 -1,7 0,7 0,13 0,20 0,0 -1,0 -1,0 -4,0 -7,2 -8,4 -3,-8 -5,-16 -7,-25 -1,-1 -2,-3 -2,-5 -5,0 -11,0 -16,1 0,2 0,4 0,6 -1,7 -1,13 -1,20 -1,0 -1,0 -1,0 -5,0 -7,2 -9,5 -2,-9 -4,-17 -6,-26 -1,-1 -1,-3 -2,-5 -5,1 -10,1 -16,1 0,2 0,4 0,6 -1,6 -1,13 -2,19 0,0 0,0 -1,0 -4,0 -6,2 -8,5 -2,-8 -5,-17 -6,-25 -1,-2 -1,-3 -1,-5 -6,0 -11,1 -17,1 0,1 0,3 0,5 -1,7 -1,13 -2,20 0,0 0,0 -1,0 -4,0 -7,2 -9,5 -2,-8 -4,-17 -5,-26 -1,-1 -1,-3 -1,-4 -6,0 -11,0 -16,0 -1,2 -1,3 -1,5 -1,7 -1,13 -2,20 0,0 -1,0 -1,0 -4,0 -7,2 -9,5 -2,-9 -3,-17 -5,-25 0,-2 -1,-3 -1,-5 -5,0 -11,1 -16,1 0,1 -1,3 -1,4 -1,7 -1,14 -2,20 -1,0 -1,0 -1,0 -5,0 -8,2 -10,6 -1,-9 -3,-18 -4,-26 0,-2 0,-3 0,-4 -6,0 -12,0 -17,0 0,1 0,3 -1,4 -1,7 -2,13 -2,20 -1,0 -1,0 -2,0 -4,0 -7,2 -9,5 -1,-8 -3,-17 -4,-25 0,-2 0,-3 0,-4 -6,0 -11,-1 -17,-1 0,2 0,3 -1,5 -1,6 -2,13 -3,20 0,0 0,0 -1,0 -4,0 -7,2 -9,4 -1,-8 -2,-16 -4,-25 0,-1 0,-2 0,-4 -6,0 -11,0 -17,0 0,1 0,3 0,4 -2,7 -3,14 -4,20 0,0 -1,0 -1,0 -4,0 -7,2 -9,5 -1,-8 -3,-17 -3,-25 -1,-1 -1,-3 -1,-4 -6,0 -11,-1 -17,-1 0,2 0,3 0,5 -2,6 -3,13 -4,20 -1,0 -1,0 -1,0 -5,-1 -8,2 -10,5 -1,-9 -2,-17 -2,-26 -1,-1 -1,-3 -1,-4 -5,0 -11,0 -16,0 -1,1 -1,2 -1,4 -2,6 -3,13 -4,20 -1,0 -1,0 -1,0 -5,0 -8,2 -10,5 -1,-8 -2,-17 -2,-26 0,-1 0,-3 -1,-4 -5,0 -10,0 -16,0 0,1 -1,2 -1,3 -2,7 -3,14 -4,21 -1,0 -1,0 -2,0 -4,-1 -7,2 -10,5 0,-8 0,-17 -1,-26 0,-1 0,-3 0,-4 -6,0 -11,-1 -17,-1 0,2 0,3 -1,4 -1,7 -3,14 -4,20 -1,0 -1,0 -2,0 -4,0 -7,3 -9,6 -1,-9 -1,-17 -2,-26 0,-2 0,-3 0,-4 -5,-1 -11,-1 -16,-1 0,1 -1,2 -1,3 -1,7 -3,14 -5,21 0,0 -1,0 -1,0 -4,0 -7,2 -10,5 0,-9 0,-17 -1,-25 0,-2 0,-3 0,-5 -6,0 -11,0 -17,-1 0,1 0,3 -1,4 -2,6 -3,13 -5,20 0,0 -1,0 -1,0 -5,0 -8,2 -10,5 0,-8 0,-17 -1,-25 0,-2 0,-3 0,-5 -5,0 -10,0 -16,-1 0,1 -1,3 -1,4 -2,6 -4,13 -6,20 0,0 0,0 -1,0 -4,0 -7,2 -10,5 0,-8 0,-17 0,-25 0,-2 0,-3 0,-5 -5,0 -11,-1 -16,-1 -1,1 -1,2 -1,3 -2,7 -4,14 -6,21 -1,0 -1,0 -1,0 -4,0 -8,2 -11,6 1,-9 1,-18 1,-27 0,-1 0,-3 0,-4 -6,-1 -11,-1 -16,-1 -1,1 -1,2 -1,2 -2,7 -4,14 -6,21 0,0 -1,0 -1,0 -5,0 -8,2 -11,5 1,-8 1,-17 1,-25 0,-2 0,-3 0,-4 -6,-1 -11,-1 -17,-1 0,0 0,1 0,2 -2,6 -4,13 -7,20 0,0 0,0 -1,0 -4,0 -8,3 -10,6 0,-9 1,-17 1,-26 0,-1 0,-2 0,-3 -6,-1 -11,-1 -17,-1 0,0 0,0 0,0 -2,7 -4,14 -7,21 0,0 0,0 -1,0 -4,0 -7,3 -10,6 0,-9 1,-18 1,-26 0,-1 0,-1 0,-2 -8,0 -16,-1 -24,-1 -2,0 -4,0 -5,0 -1,-2 -1,-3 -1,-5 0,-1 -1,-2 -2,-3 0,-1 -1,-1 -1,-2 0,-1 0,-2 0,-3 0,-8 0,-15 1,-23 0,-8 1,-16 1,-24 1,-11 3,-23 5,-33 2,-6 5,-13 12,-14 8,-1 11,6 13,12 0,1 0,2 0,4 4,-20 8,-17 11,-5 2,-3 5,-6 10,-6 8,-1 11,7 12,13 1,1 1,2 1,3 4,-22 8,-19 11,-8 2,-3 5,-6 10,-6 7,0 10,8 11,13 1,2 1,3 1,5zm592 9c3,-7 7,3 10,15 4,0 7,0 10,0 0,6 -1,13 -2,21 0,5 3,10 6,44 -5,0 -10,0 -15,0 -1,4 -1,8 -1,14 -1,-5 -3,-10 -3,-14l-13 1c5,-28 9,-32 10,-36 3,-6 1,-30 -2,-45zm34 -2c3,-5 7,4 10,16 4,0 7,0 11,0 -1,6 -2,13 -2,21 -1,6 2,10 5,43 -5,0 -10,0 -15,1 0,4 0,8 -1,13 -1,-5 -2,-9 -3,-13 -4,0 -9,0 -13,0 5,-27 9,-31 10,-35 3,-7 1,-31 -2,-46zm34 -1c3,-5 7,4 10,16 4,0 7,-1 11,-1 -1,6 -1,13 -2,22 -1,5 2,10 6,42 -5,0 -10,1 -15,1 -1,4 -1,9 -1,14 -1,-5 -3,-10 -4,-14 -4,0 -8,1 -12,1 4,-27 8,-31 10,-35 2,-6 1,-31 -3,-46zm34 -2c3,-4 7,4 10,16 4,0 8,0 11,-1 0,7 -1,14 -2,23 0,5 2,10 6,41 -5,0 -10,0 -15,1 0,4 0,9 0,15 -2,-6 -3,-11 -5,-15 -4,0 -8,1 -12,1 5,-26 8,-30 10,-34 2,-6 1,-32 -3,-47zm34 -2c3,-3 7,5 10,16 4,0 8,-1 12,-1 -1,6 -2,14 -3,23 0,6 2,10 6,40 -5,1 -10,1 -14,1 -1,5 -1,10 -1,16 -2,-6 -3,-11 -4,-15 -5,0 -9,0 -13,1 5,-25 9,-29 10,-33 3,-7 1,-33 -3,-48zm35 -2c2,-3 6,5 8,16 5,-1 9,-1 13,-1 -1,6 -2,14 -2,24 -1,5 1,10 5,38 -5,1 -10,1 -14,2 0,4 0,9 0,16 -2,-6 -4,-11 -5,-16l-12 1c4,-24 8,-28 9,-32 3,-8 1,-34 -2,-48zm34 -3c2,-2 5,6 8,16 5,0 9,-1 14,-1 -1,6 -2,15 -3,25 0,5 2,10 5,37 -4,1 -9,1 -14,2 0,4 0,10 0,17 -2,-7 -4,-12 -5,-17 -4,1 -8,1 -12,1 5,-23 8,-27 10,-30 2,-8 0,-35 -3,-50zm34 -2c2,-2 5,5 8,15 5,-1 9,-1 14,-1 -1,6 -2,15 -3,26 0,5 2,9 5,36 -4,1 -9,1 -14,1 0,5 0,11 0,18 -2,-7 -4,-12 -6,-17 -3,0 -7,1 -10,1 4,-22 8,-26 9,-29 3,-8 1,-36 -3,-50zm34 -3c3,-2 5,5 8,15 5,-1 10,-1 15,-2 -1,7 -2,16 -3,27 -1,5 1,10 5,35 -5,1 -10,1 -15,2 0,5 0,11 0,18 -2,-7 -4,-13 -6,-17 -3,0 -6,0 -9,1 4,-21 7,-25 8,-29 3,-7 1,-36 -3,-50zm34 -3c3,-2 5,5 8,14 5,-1 10,-1 15,-2 -1,7 -2,17 -3,29 0,5 2,9 5,33 -5,1 -10,1 -15,2 0,5 0,11 0,19 -3,-7 -5,-13 -6,-18 -3,0 -6,0 -9,1 4,-20 7,-23 9,-27 3,-8 0,-38 -4,-51zm34 -4c3,-1 5,5 8,14 5,-1 10,-1 16,-2 -1,7 -3,17 -4,30 0,5 2,9 5,32 -5,0 -10,1 -15,2 -1,5 -1,11 0,20 -3,-8 -5,-14 -7,-19l-7 1c4,-19 7,-22 8,-26 3,-8 0,-39 -4,-52zm34 -3c3,-2 5,4 7,12 4,15 8,36 6,42 -1,3 -2,7 -4,20 0,5 0,12 1,21 -3,-8 -5,-15 -7,-20l-6 1c3,-17 6,-20 7,-24 3,-8 1,-40 -4,-52zm-385 108c-5,0 -11,0 -16,1 0,3 -1,8 -1,12 -1,-4 -2,-9 -3,-12 -4,0 -8,0 -12,0 5,-28 8,-32 10,-36 2,-7 1,-30 -2,-45 3,-7 7,2 10,15 4,0 7,0 10,0 0,6 -1,13 -2,20 0,6 2,11 6,45zm-34 1c-5,0 -11,1 -17,1 0,3 0,7 -1,12 -1,-4 -2,-9 -3,-12 -4,0 -8,0 -12,0 5,-29 9,-33 11,-37 2,-6 1,-28 -2,-43 3,-9 7,1 10,14 4,0 7,0 10,0 -1,6 -1,12 -2,20 0,6 2,11 6,45zm-34 1c-6,0 -12,0 -17,1 -1,3 -1,7 -2,11 -1,-4 -1,-8 -2,-11 -4,0 -8,0 -12,0 5,-29 9,-33 11,-38 2,-6 1,-27 -2,-43 3,-9 8,1 10,15l10 0c-1,5 -1,12 -2,19 -1,6 2,11 6,46zm-34 1c-6,0 -12,0 -18,0 -1,3 -1,7 -2,12 0,-5 -1,-8 -2,-12 -4,0 -7,0 -11,0 5,-29 9,-33 10,-38 3,-6 2,-27 -1,-42 4,-10 8,0 10,14l10 0c-1,6 -2,12 -2,19 -1,6 2,11 6,47zm-34 0c-6,0 -13,0 -19,0 0,4 -1,7 -1,12 -1,-4 -2,-8 -2,-12 -4,0 -8,0 -11,0 5,-29 9,-33 10,-38 3,-5 2,-26 -1,-41 4,-12 8,-1 10,13l9 0c0,6 -1,12 -1,19 -1,6 2,11 6,47zm-34 0c-7,0 -13,0 -19,0 -1,4 -2,7 -2,12 -1,-5 -2,-8 -2,-12 -4,0 -7,0 -11,0 6,-30 10,-34 11,-38 2,-6 1,-26 -1,-41 4,-12 8,-1 11,14l8 0c0,5 -1,11 -1,18 -1,6 2,11 6,47zm-34 0c-7,0 -14,0 -20,0 -1,3 -2,7 -2,11 -1,-4 -1,-8 -2,-11 -3,0 -6,0 -10,0 6,-30 9,-34 11,-38 2,-6 1,-25 -1,-40 4,-14 8,-3 11,13 3,0 5,0 8,0 0,5 -1,11 -2,18 0,6 2,11 7,47zm-35 0c-6,0 -13,0 -20,0 -1,3 -1,7 -2,11 -1,-4 -1,-8 -2,-11l-9 -1c5,-29 9,-33 11,-38 2,-5 1,-25 -1,-39 4,-15 8,-3 11,13 3,0 5,0 8,0 -1,5 -1,11 -2,18 0,5 2,11 6,47zm-34 -1c-7,0 -14,0 -21,0 0,3 -1,7 -2,11 0,-4 -1,-8 -1,-11 -3,0 -6,0 -9,0 5,-30 9,-34 11,-38 2,-6 1,-25 -1,-40 4,-15 9,-3 11,13 3,0 5,0 8,0 -1,5 -1,11 -2,18 0,6 2,11 6,47zm-34 0c-7,-1 -14,-1 -21,-1 -1,3 -2,7 -3,11 0,-4 0,-8 -1,-11 -2,0 -5,0 -8,0 5,-30 9,-34 11,-38 2,-6 1,-24 -1,-39 4,-16 9,-4 11,13 3,0 5,0 8,0 -1,5 -1,11 -2,17 0,6 2,11 6,48zm-34 -1c-7,-1 -14,-1 -22,-1 -1,3 -1,7 -2,11 -1,-4 -1,-8 -1,-11l-8 0c5,-30 9,-34 11,-38 2,-6 1,-24 -1,-38 5,-18 9,-5 12,12 2,0 4,0 7,0 -1,5 -1,11 -2,17 0,6 2,11 6,48zm-34 -1c-7,-1 -15,-1 -22,-1 -1,3 -2,7 -3,11 0,-4 -1,-8 -1,-11l-7 -1c5,-29 9,-33 11,-37 2,-7 1,-25 -1,-39 5,-17 10,-4 12,13l7 1c-1,4 -2,10 -2,16 -1,6 2,11 6,48zm-34 -2c-7,0 -15,0 -23,-1 0,4 -2,7 -2,11 -1,-4 -1,-7 -1,-11 -2,0 -5,0 -7,0 5,-30 9,-34 11,-38 2,-5 1,-22 -1,-37 5,-19 10,-5 12,12l6 1c0,4 -1,10 -1,16 -1,6 2,11 6,47zm-34 -1c-7,-1 -15,-1 -23,-1 -1,3 -2,6 -3,11 0,-5 0,-8 0,-12 -3,0 -5,0 -7,0 5,-30 9,-33 11,-38 2,-5 1,-21 -1,-36 6,-21 10,-7 12,12 2,0 4,0 6,0 0,5 -1,10 -1,16 -1,6 2,11 6,48zm-34 -2c-8,-1 -15,-1 -23,-1 -1,3 -2,6 -3,10 0,-4 0,-7 0,-11l-7 0c5,-30 9,-33 11,-37 2,-6 1,-23 -1,-37 6,-22 11,-7 13,12l5 1c0,4 -1,10 -1,15 -1,6 2,11 6,48zm-34 -2c-8,-1 -15,-1 -23,-2 -1,3 -2,7 -3,11 0,-4 0,-8 0,-11l-7 0c5,-30 9,-33 11,-38 2,-5 1,-21 -1,-34 6,-24 11,-9 13,11 2,0 4,0 5,0 0,4 -1,10 -1,15 -1,6 2,11 6,48zm-102 -7c-8,0 -16,-1 -23,-1 -1,3 -2,5 -3,8 0,-3 0,-5 0,-8l-7 0c5,-31 9,-35 11,-39 2,-6 2,-20 0,-34 6,-28 12,-9 14,12 1,0 2,0 3,0 0,4 0,9 -1,14 0,6 2,11 6,48zm-33 -1c-6,-1 -15,-1 -24,-1 0,-2 -1,-4 -3,-6 0,-17 1,-33 3,-47 1,-13 3,-24 4,-31 4,-13 9,-9 11,23l3 0c0,4 0,8 -1,12 0,6 2,11 7,50z"/>
  <g id="_946231312">
   <polygon class="fil1" points="86,430 73,423 76,417 90,424 "/>
   <polygon class="fil1" points="98,428 84,421 87,415 101,422 "/>
   <polygon class="fil1" points="93,417 80,410 83,405 96,411 "/>
   <polygon class="fil1" points="104,414 91,407 94,402 108,408 "/>
   <polygon class="fil1" points="99,403 85,397 89,391 102,397 "/>
   <polygon class="fil1" points="111,400 97,394 100,388 114,394 "/>
   <polygon class="fil1" points="106,390 92,384 94,378 109,384 "/>
   <polygon class="fil1" points="118,386 103,381 106,375 120,380 "/>
   <polygon class="fil1" points="111,375 97,370 99,364 114,369 "/>
   <polygon class="fil1" points="123,372 108,366 111,360 125,365 "/>
   <polygon class="fil1" points="117,361 103,356 105,350 120,355 "/>
   <polygon class="fil1" points="127,357 112,352 115,346 129,351 "/>
   <polygon class="fil1" points="122,347 108,342 110,336 125,341 "/>
   <polygon class="fil1" points="132,342 118,337 120,331 135,336 "/>
   <polygon class="fil1" points="128,331 113,327 115,321 130,325 "/>
   <polygon class="fil1" points="132,314 117,310 119,304 134,307 "/>
   <polygon class="fil1" points="136,298 121,295 123,289 138,292 "/>
   <polygon class="fil1" points="139,284 124,281 126,275 141,277 "/>
   <polygon class="fil1" points="142,269 127,267 128,260 143,262 "/>
   <polygon class="fil1" points="144,253 129,251 130,245 146,247 "/>
   <polygon class="fil1" points="147,238 131,236 132,230 148,231 "/>
   <polygon class="fil1" points="148,223 133,222 134,216 149,217 "/>
   <polygon class="fil1" points="149,209 134,208 135,201 150,202 "/>
   <polygon class="fil1" points="150,194 135,193 136,187 151,187 "/>
   <polygon class="fil1" points="138,324 123,321 125,314 140,318 "/>
   <polygon class="fil1" points="142,308 127,304 129,298 144,301 "/>
   <polygon class="fil1" points="148,278 133,275 135,269 150,272 "/>
   <polygon class="fil1" points="154,247 138,245 140,238 155,241 "/>
   <polygon class="fil1" points="158,202 143,201 143,194 159,195 "/>
   <polygon class="fil1" points="157,217 142,216 142,209 158,210 "/>
   <polygon class="fil1" points="155,231 140,230 141,224 156,225 "/>
   <polygon class="fil1" points="151,264 136,261 138,254 153,257 "/>
   <polygon class="fil1" points="146,293 131,290 132,283 147,287 "/>
   <path class="fil2" d="M146 294l-7 -2c-1,3 -1,5 -2,7l7 2 0 0 0 0 -2 7 0 0 0 0 -6 -1c-1,3 -2,6 -3,9l7 1 0 0 0 1 -2 6 0 1 0 0 -7 -2c-1,3 -2,7 -3,10l7 2 1 0 -1 1 -2 6 0 1 -1 -1 -6 -2c-1,3 -1,5 -2,8l6 2 0 0 0 1 -3 6 0 1 0 -1 -6 -2c-1,3 -1,5 -2,7l7 3 0 0 0 1 -3 6 0 0 -1 0 -6 -2c-1,2 -2,4 -3,7l8 3 0 0 0 0 -3 7 0 0 0 0 -8 -3c-1,2 -2,5 -3,7l7 3 1 0 -1 1 -3 6 0 0 0 0 -7 -3c-1,2 -2,4 -3,6l7 4 1 0 -1 1 -3 6 0 0 -1 0 -6 -3c-1,2 -2,4 -3,6l6 3 1 1 0 0 -4 6 0 1 -1 -1 -6 -3c-2,4 -4,7 -6,11l-8 -4c1,-2 2,-3 2,-5l-7 -3 0 -1 0 0 3 -6 1 0 0 0 7 3c1,-2 2,-4 3,-6l-7 -3 0 0 0 -1 3 -6 1 0 0 0 7 3c1,-2 2,-4 3,-6l-8 -3 0 -1 0 0 3 -6 0 -1 1 1 7 3c1,-2 2,-4 3,-7l-8 -3 0 0 0 0 3 -6 0 -1 1 0 7 3c1,-2 2,-4 2,-7l-7 -3 -1 0 0 0 3 -6 0 -1 0 0 8 3c1,-2 2,-4 3,-7l-7 -2 -1 0 0 -1 3 -6 0 -1 0 1 7 2 0 -1 2 -6 1 0 -7 -3 -1 0 0 0 3 -7 0 0 0 0 7 3 0 -1 0 0 0 -1 2 -3c0,-1 0,-2 1,-4l-7 -2 -1 0 0 0 2 -7 0 0 1 0 7 2c1,-3 2,-6 3,-9l-8 -2 -1 -1 1 0 1 -6 1 -1 0 0 7 2 0 0 0 0 0 -1 2 -6 0 -1 0 0 0 0 -7 -1 -1 -1 1 0 1 -7 0 0 1 0 7 1c0,-2 1,-4 1,-6l-7 -1 0 0 0 -1 1 -6 0 -1 1 0 7 1c0,-2 1,-4 1,-7l-7 -1 -1 0 0 0 1 -7 1 0 0 0 7 1c1,-3 1,-6 1,-8l-7 -1 -1 0 1 -1 1 -6 0 -1 0 0 8 1c0,-2 0,-5 0,-7l-7 -1 0 0 0 -1 1 -6 0 -1 0 0 7 1c1,-2 1,-4 1,-7l-7 0 -1 0 1 -1 0 -6 0 -1 1 0 7 0c0,-2 0,-4 0,-6l-7 -1 -1 0 1 0 0 -7 0 0 1 0 7 0c0,-2 0,-5 0,-7l-7 0 -1 0 0 -1 1 -7 0 0 1 0 7 0 0 -1 9 1c0,2 0,5 0,8l7 1 0 0 0 0 -1 7 0 1 0 0 -7 -1c0,2 0,5 0,7l7 0 0 1 0 0 -1 7 0 0 0 0 -7 0c0,2 0,4 -1,7l7 0 1 0 0 1 -1 7 0 0 -1 0 -6 -1c-1,3 -1,5 -1,8l7 1 0 0 0 1 -1 6 0 1 -1 0 -6 -1c-1,3 -1,5 -2,8l8 2 0 0 0 0 -1 7 -1 1 0 -1 -7 -1c0,2 0,5 -1,7l7 1 1 1 0 0 -2 7 0 0 -1 0 -6 -1c-1,2 -1,4 -2,7l8 1 0 0 0 1 -2 6 0 1 0 0zm-66 132c1,-1 2,-3 3,-5l-7 -3 -3 5 7 3zm7 -13c0,-1 1,-3 2,-5l-6 -3 -3 5 7 3zm6 -13c1,-2 2,-4 2,-5l-6 -3 -3 5 7 3zm6 -14c1,-1 2,-3 2,-5l-6 -2 -3 4 7 3zm6 -14c1,-1 1,-3 2,-5l-7 -2 -2 5 7 2zm5 -14c1,-2 2,-3 2,-5l-6 -2 -2 5 6 2zm5 -14c1,-2 1,-4 2,-5l-6 -3 -2 5 6 3zm5 -16c1,-1 1,-3 2,-5l-7 -2 -2 6 7 1zm5 -17c0,-1 1,-3 1,-5l-7 -2 -1 6 7 1zm4 -15c0,-2 0,-4 1,-5l-7 -2 -1 6 7 1zm3 -14c0,-2 0,-4 1,-5l-7 -1 -1 5 7 1zm2 -15c1,-2 1,-3 1,-5l-6 -1 -1 5 6 1zm3 -15c0,-2 0,-4 0,-6l-6 -1 -1 6 7 1zm2 -15c0,-2 0,-4 0,-6l-6 0 -1 5 7 1zm1 -15c0,-2 0,-4 1,-5l-7 -1 0 6 6 0zm1 -14c1,-2 1,-4 1,-6l-7 0 0 5 6 1zm1 -15c1,-2 1,-4 1,-6l-7 0 0 6 6 0zm10 2c-1,2 -1,4 -1,6l6 0 1 -5 -6 -1zm-1 15c-1,2 -1,4 -1,6l6 0 1 -5 -6 -1zm-2 15c0,2 0,3 0,5l6 1 1 -6 -7 0zm-1 15c-1,2 -1,4 -1,6l6 1 1 -6 -6 -1zm-3 16c0,2 0,4 -1,6l7 1 1 -5 -7 -2zm-2 15c0,2 -1,4 -1,5l6 2 1 -6 -6 -1zm-3 15c0,1 -1,3 -1,5l6 1 2 -5 -7 -1zm-3 14c0,2 -1,3 -1,5l0 1 5 1 2 -5 -6 -2zm-4 17c0,2 -1,3 -1,5l5 2 2 -6 -6 -1zm-5 17c0,2 -1,3 -2,5l6 2 2 -5 -6 -2zm-5 15c0,2 -1,4 -1,5l5 2 2 -5 -6 -2zm-5 14c0,2 -1,4 -2,5l6 3 3 -5 -7 -3zm-5 15c-1,1 -2,3 -2,5l6 3 3 -6 -7 -2zm-6 14c-1,2 -2,3 -2,5l5 3 3 -5 -6 -3zm-6 14c-1,1 -2,3 -3,5l6 3 3 -5 -6 -3zm-7 13c-1,2 -2,3 -2,5l5 3 3 -5 -6 -3z"/>
  </g>
  <polygon class="fil3 str0" points="138,177 138,223 158,221 151,177 "/>
  <path class="fil2" d="M1217 429c-2,-4 -4,-8 -6,-11l-6 3 -1 0 0 0 -4 -6 0 -1 1 0 6 -3c-1,-2 -2,-5 -3,-7l-6 4 -1 0 0 -1 -3 -6 -1 0 1 0 7 -4c-1,-2 -2,-4 -3,-6l-7 3 0 0 0 -1 -3 -6 -1 0 1 0 7 -3c-1,-3 -2,-5 -3,-7l-8 3 0 0 0 -1 -3 -6 0 0 0 -1 8 -3c-1,-2 -2,-4 -3,-7l-6 3 -1 0 0 -1 -3 -6 0 0 0 0 7 -3c-1,-2 -1,-5 -2,-7l-6 2 0 0 -1 0 -2 -7 0 0 0 0 6 -2c-1,-3 -1,-5 -2,-8l-6 2 -1 0 0 0 -2 -6 -1 -1 1 0 6 -3c-1,-3 -1,-6 -2,-9l-7 1 0 1 -1 -1 -1 -6 -1 -1 1 0 7 -2c-1,-3 -2,-6 -3,-8l-6 1 0 0 -1 -1 -1 -6 0 -1 0 0 7 -1c-1,-2 -1,-5 -2,-7l-7 1 0 1 0 -1 -2 -7 0 0 0 0 7 -2c0,-2 0,-4 -1,-7l-6 2 -1 0 0 -1 -2 -6 0 -1 1 0 7 -1c-1,-3 -1,-5 -1,-7l-7 1 -1 0 0 0 -1 -7 -1 0 1 -1 7 -1c0,-3 0,-6 -1,-9l-7 1 0 1 0 -1 -1 -7 -1 0 1 0 7 -1c0,-3 0,-5 -1,-8l-7 1 0 0 0 -1 -1 -6 0 -1 1 0 7 -1c-1,-2 -1,-4 -1,-7l-7 1 -1 0 0 -1 0 -6 0 -1 0 0 7 0c0,-3 0,-5 0,-7l-7 0 -1 0 0 0 0 -7 0 -1 0 0 7 0c0,-3 0,-6 0,-9l9 0 0 1 7 0 1 0 0 0 0 7 0 0 0 0 -7 1c0,2 0,4 0,7l7 -1 1 0 0 1 0 6 0 1 0 0 -7 0c0,3 0,5 0,7l7 0 1 0 0 0 0 7 0 0 0 0 -7 1c0,2 0,4 1,7l7 -1 0 0 0 1 1 6 0 1 0 0 -8 0c1,3 1,5 1,8l8 -1 0 0 0 0 1 7 0 0 0 1 -8 1c1,2 1,5 2,7l7 -1 0 0 0 1 2 6 0 1 -1 0 -7 1c0,2 1,5 1,7l7 -1 1 0 0 0 1 7 0 1 0 0 -7 1c0,2 0,4 1,6l7 -1 1 0 0 0 1 7 1 0 -1 0 -7 2 0 0 0 0 0 1 2 6 0 0 -1 1 0 0 8 -2 0 0 0 0 2 7 1 0 -1 0 -8 2c1,3 2,6 3,10l7 -2 1 0 0 0 2 6 0 1 -1 0 -7 2c1,1 1,3 1,4l2 3 0 1 -1 0 1 0 6 -2 1 0 0 0 3 6 0 1 -1 0 -7 3 1 0 2 6 0 0 6 -2 1 0 0 1 3 6 0 0 -1 0 -7 3c1,2 2,4 3,7l7 -3 1 0 0 0 3 6 0 1 -1 0 -8 3c1,2 2,5 3,7l7 -3 1 0 0 0 3 6 0 1 0 0 -8 3c1,2 2,4 3,6l7 -3 1 0 0 1 3 5 0 1 0 0 -8 4c1,2 2,4 3,6l7 -3 0 -1 0 1 4 6 0 0 -1 1 -6 3c1,2 2,4 3,6l7 -3 0 -1 0 1 4 6 0 0 -1 0 -7 4c1,1 2,3 3,4l-8 5z"/>
  <polygon class="fil3 str0" points="1167,177 1167,223 1147,221 1154,177 "/>
 </g>
</svg>
