<svg xmlns="http://www.w3.org/2000/svg" xml:space="preserve" width="8.1056in" height="8.83302in" version="1.1" style="shape-rendering:geometricPrecision; text-rendering:geometricPrecision; image-rendering:optimizeQuality; fill-rule:evenodd; clip-rule:evenodd"
viewBox="0 0 3088 3365"
 xmlns:xlink="http://www.w3.org/1999/xlink">
 <defs>
  <style type="text/css">
   <![CDATA[
    .filitsh {fill:black}
    .fil0 {fill:white}
    .filin {fill:white}
   ]]>
  </style>
 </defs>
 <g id="Layer_x0020_1">
  <metadata id="CorelCorpID_0Corel-Layer"/>
  <g id="_946229008">
   <path class="fil0" d="M2836 721c42,262 252,513 252,701 0,45 -282,115 -347,128 -161,34 -63,81 -253,81l0 484c0,123 -28,188 -28,255 0,21 61,86 6,249 -6,21 -34,85 -34,101 0,47 9,43 15,75 5,25 6,43 10,70 12,83 11,141 2,222 -8,84 -52,48 -162,75 -270,69 -435,203 -747,203l-186 0c-96,-2 -170,-12 -318,-51 -150,-40 -164,-40 -322,-40 -26,0 -71,4 -94,-2 -27,-7 -32,-24 -40,-51 -27,-98 -30,-224 -30,-331 0,-57 -17,-150 -17,-164 0,-91 23,-75 23,-125 0,-34 -21,-64 -31,-94 -52,-148 14,-171 14,-262 0,-36 -12,-51 -12,-90l0 -74c0,-77 41,-404 40,-458 0,-17 -22,-21 -56,-44 -29,-20 -124,-20 -171,-21 -19,-1 -60,-6 -81,-9 -49,-9 -105,-27 -145,-42 -99,-36 -120,-34 -124,-63l0 -56c0,-69 173,-629 243,-737 16,-24 15,-41 22,-70 6,-25 11,-43 18,-66 88,-260 159,-255 396,-317 86,-23 181,-61 265,-91 76,-28 220,-107 244,-107 33,0 237,138 598,66 257,-51 102,-74 289,19 173,85 514,168 613,264 78,76 82,118 115,230 13,45 25,92 33,142z"/>
   <g>
    <g>
     <path class="fil0" d="M1893 113c-22,40 -71,87 -128,102 -115,30 -308,22 -419,-12 -56,-18 -90,-62 -112,-112 132,27 98,55 321,57 194,2 221,-25 338,-35z"/>
     <path class="fil0" d="M1176 63c30,29 53,102 148,186 38,34 31,42 96,73 35,16 91,35 135,37 123,3 255,-105 328,-183 20,-22 62,-77 79,-90 74,41 74,52 26,126 -95,147 -238,251 -439,243 -300,-12 -463,-300 -445,-345 5,-13 55,-42 72,-47z"/>
    </g>
    <path class="filin" d="M1371 250c30,0 70,17 179,18 75,1 123,-3 192,-13 -28,35 -123,66 -187,67 -76,2 -148,-34 -184,-72z"/>
   </g>
   <path class="filitsh" d="M2457 1544c137,-26 143,-52 182,-58 1,39 -50,92 -128,84 -64,-6 -50,-14 -54,-26zm-1561 506c-16,-27 -62,-390 -86,-400 -25,32 131,535 147,560 48,79 138,187 194,258l82 88c11,11 16,18 27,29 20,20 37,36 58,56 17,17 37,40 57,56 41,32 200,183 263,180 -2,-24 -5,-18 -22,-31l-98 -72c-236,-168 -479,-476 -622,-724zm-265 753c6,7 -3,5 14,19 12,10 107,53 121,59 78,35 394,195 449,167 -5,-16 7,-3 -12,-15l-132 -49c-97,-37 -404,-179 -440,-181zm919 562l-186 0c-96,-2 -170,-12 -318,-51 -150,-40 -164,-40 -322,-40 -26,0 -71,4 -94,-2 -27,-7 -32,-24 -40,-51 -27,-98 -30,-224 -30,-331 0,-57 -17,-150 -17,-164 0,-91 23,-75 23,-125 0,-34 -21,-64 -31,-94 -52,-148 14,-171 14,-262 0,-36 -12,-51 -12,-90l0 -74c0,-77 41,-404 40,-458 0,-17 -22,-21 -56,-44 -29,-20 -124,-20 -171,-21 -19,-1 -60,-6 -81,-9 -49,-9 -105,-27 -145,-42 -99,-36 -120,-34 -124,-63l0 -56c0,-69 173,-629 243,-737 16,-24 15,-41 22,-70 6,-25 11,-43 18,-66 88,-260 159,-255 396,-317 86,-23 181,-61 265,-91 76,-28 220,-107 244,-107 33,0 237,138 598,66 257,-51 102,-74 289,19 173,85 514,168 613,264 78,76 82,118 115,230 13,45 25,92 33,142 42,262 252,513 252,701 0,45 -282,115 -347,128 -161,34 -63,81 -253,81l0 484c0,123 -28,188 -28,255 0,21 61,86 6,249 -6,21 -34,85 -34,101 0,47 9,43 15,75 5,25 6,43 10,70 12,83 11,141 2,222 -8,84 -52,48 -162,75 -270,69 -435,203 -747,203zm1147 -1959c85,9 228,-67 315,-67 12,26 19,28 14,61 -77,38 -255,96 -357,98 12,-282 -16,-558 25,-796 -9,6 -17,13 -24,21l0 20c0,4 -1,7 -2,11 0,1 0,3 0,4 -1,3 -1,6 -2,9 0,1 0,2 0,3 14,248 8,382 -15,617 -8,83 -95,123 -189,118 52,-339 -12,-420 60,-764 10,-48 13,-50 9,-66 0,-1 -1,-3 -1,-4 -1,-1 -1,-3 -2,-5 -99,84 -64,685 -113,880 -21,80 -51,432 -77,510 -52,157 -143,432 -217,575 -14,28 -46,80 -54,109 34,-4 26,-7 42,-32 10,-16 16,-28 26,-47 17,-31 33,-67 47,-101 28,-69 55,-134 81,-206 26,-72 51,-142 78,-211 14,-37 59,-457 84,-472 17,190 -7,671 -91,838 -74,147 -139,241 -212,371 -15,27 -28,37 -18,57 31,-10 68,-91 86,-120 55,-90 96,-168 147,-259 18,-31 55,-118 78,-131 54,65 -44,288 -86,344 -46,62 -152,145 -170,193 21,-6 21,-6 35,-18 76,-66 164,-172 180,-185 25,74 45,244 27,320 -8,5 -143,27 -209,50 -201,69 -380,164 -604,180 -369,26 -425,-49 -686,-90 -82,-13 -172,-5 -249,-18 -39,-63 -26,-343 -40,-423 -6,-37 -21,-45 -11,-86 9,-38 35,-83 8,-154 -76,-204 25,-220 3,-314 -32,-133 -12,-439 17,-553 5,-16 6,-24 15,-34 8,8 77,475 89,506 53,138 146,321 228,439 24,33 45,64 69,95 17,22 60,72 87,83 -8,-40 -82,-112 -116,-167 -189,-310 -242,-717 -352,-1060 -114,-355 -137,-651 -110,-1002 1,-9 2,-17 3,-26 -66,-29 -45,92 -44,155 1,144 123,842 110,888 -63,7 -35,-58 -128,-51 -65,5 -116,5 -178,-7 -60,-12 -155,-40 -212,-65 -24,-12 -49,-18 -37,-53 56,-5 128,50 162,31 -16,-38 -114,-63 -158,-80 0,-4 55,-246 123,-428 42,-114 102,-187 121,-217 50,-82 35,-167 93,-268 51,-89 96,-102 191,-126 84,-22 167,-43 246,-70l233 -87c43,113 116,168 182,235 61,61 186,113 302,117 205,7 368,-106 467,-264 15,-24 23,-46 42,-65 36,3 431,152 486,177 148,67 213,264 234,405 5,31 11,108 20,133 71,217 167,205 207,437l-238 68c-29,7 -58,9 -70,34zm-1326 -1156c30,0 70,17 179,18 75,1 123,-3 192,-13 -28,35 -123,66 -187,67 -76,2 -148,-34 -184,-72zm-195 -187c30,29 53,102 148,186 38,34 31,42 96,73 35,16 91,35 135,37 123,3 255,-105 328,-183 20,-22 62,-77 79,-90 74,41 74,52 26,126 -95,147 -238,251 -439,243 -300,-12 -463,-300 -445,-345 5,-13 55,-42 72,-47zm717 50c-22,40 -71,87 -128,102 -115,30 -308,22 -419,-12 -56,-18 -90,-62 -112,-112 132,27 98,55 321,57 194,2 221,-25 338,-35z"/>
  </g>
 </g>
</svg>
