<svg xmlns="http://www.w3.org/2000/svg" xml:space="preserve" width="8.1056in" height="8.83302in" version="1.1" style="shape-rendering:geometricPrecision; text-rendering:geometricPrecision; image-rendering:optimizeQuality; fill-rule:evenodd; clip-rule:evenodd"
viewBox="0 0 17069 18601"
 xmlns:xlink="http://www.w3.org/1999/xlink">
 <defs>
  <style type="text/css">
   <![CDATA[
    .fil2btn2 {fill:black}
    .fil0 {fill:white}
    .fil2btn1 {fill:white}
   ]]>
  </style>
 </defs>
 <g id="Layer_x0020_1">
  <metadata id="CorelCorpID_0Corel-Layer"/>
  <g id="_946234352">
   <path class="fil0" d="M15676 3988c236,1444 1393,2833 1393,3872 0,251 -1558,636 -1914,711 -891,187 -349,445 -1399,445l0 2676c0,682 -157,1040 -157,1407 0,118 337,480 36,1380 -38,113 -192,470 -192,558 0,260 49,237 86,415 28,139 31,236 53,384 66,458 59,784 13,1229 -48,464 -290,263 -897,416 -1494,378 -2404,1120 -4132,1120l-1023 0c-535,-11 -941,-64 -1760,-281 -830,-220 -909,-219 -1781,-219 -146,0 -390,22 -520,-12 -148,-38 -177,-135 -218,-282 -153,-544 -171,-1240 -168,-1833 1,-315 -95,-828 -95,-905 0,-504 125,-414 125,-688 0,-191 -111,-357 -168,-519 -288,-820 74,-951 74,-1451 0,-201 -62,-281 -62,-500l0 -406c0,-429 227,-2232 222,-2535 -1,-93 -125,-111 -311,-240 -160,-112 -688,-112 -944,-119 -109,-3 -333,-29 -451,-49 -272,-48 -577,-148 -802,-229 -549,-199 -664,-192 -684,-348l0 -313c0,-383 956,-3474 1346,-4075 85,-132 80,-224 117,-384 33,-141 61,-237 104,-364 485,-1440 878,-1413 2185,-1754 478,-126 1004,-338 1465,-505 422,-152 1218,-590 1348,-590 185,0 1315,763 3306,367 1423,-283 568,-411 1602,102 953,473 2838,929 3385,1461 432,419 457,652 637,1270 74,251 136,512 181,788z"/>
   <path class="fil0" d="M8257 1921c28,641 50,1283 64,1924 9,348 15,697 14,1046 0,142 -2,-820 -6,-677 -4,105 -8,212 -19,317 -24,236 -43,485 -34,722 1,37 3,88 8,134 28,3 57,5 83,7 147,11 297,6 444,-6 74,-6 146,-6 221,-2 13,1 43,3 66,4 1,-40 -5,-110 -13,-181 -9,-88 -21,-177 -24,-204 -25,-211 -44,-423 -61,-634 -21,-266 -39,574 -55,308 -15,-264 -27,-529 -34,-794 -5,-212 -9,-427 1,-639 11,-244 12,-484 8,-727 -2,-160 -7,-323 11,-483 2,-17 4,-35 6,-52 7,-48 14,-96 21,-144 -29,6 -58,12 -88,16 -139,20 -279,3 -417,-18 -56,-9 -118,-6 -162,35 -13,12 -26,30 -34,48z"/>
   <g>
    <g>
     <path class="fil0" d="M10463 626c-126,218 -393,480 -708,563 -636,168 -1706,124 -2319,-68 -308,-96 -495,-339 -617,-617 726,147 542,301 1775,315 1071,12 1217,-137 1869,-193z"/>
     <path class="fil0" d="M6503 347c166,160 290,567 813,1028 1003,801 2235,464 3096,-404 110,-117 343,-423 436,-493 407,226 408,287 142,696 -526,812 -1316,1387 -2424,1343 -1660,-66 -2560,-1661 -2464,-1911 27,-71 304,-231 401,-259z"/>
    </g>
    <path class="fil2btn1" d="M7578 1380c164,2 390,96 988,104 416,6 683,-19 1065,-73 -155,191 -681,361 -1033,370 -425,11 -820,-188 -1020,-401z"/>
   </g>
   <path class="fil2btn2" d="M13583 8533c758,-140 788,-286 1006,-318 4,215 -275,507 -709,464 -353,-34 -274,-76 -297,-146zm-8629 2800c-87,-150 -342,-2155 -478,-2211 -136,177 726,2957 812,3098 266,434 764,1031 1076,1424l452 485c62,60 89,102 150,164 111,110 206,197 319,306 98,93 207,223 316,308 226,177 1109,1014 1456,996 -14,-131 -29,-98 -125,-168l-541 -398c-1306,-931 -2649,-2635 -3437,-4004zm-1464 4160c34,39 -17,29 77,107 67,56 588,292 669,329 430,193 2174,1074 2481,922 -29,-89 37,-19 -68,-85l-727 -273c-536,-200 -2237,-987 -2432,-1000zm5076 3108l-1023 0c-535,-11 -941,-64 -1760,-281 -830,-220 -909,-219 -1781,-219 -146,0 -390,22 -520,-12 -148,-38 -177,-135 -218,-282 -153,-544 -171,-1240 -168,-1833 1,-315 -95,-828 -95,-905 0,-504 125,-414 125,-688 0,-191 -111,-357 -168,-519 -288,-820 74,-951 74,-1451 0,-201 -62,-281 -62,-500l0 -406c0,-429 227,-2232 222,-2535 -1,-93 -125,-111 -311,-240 -160,-112 -688,-112 -944,-119 -109,-3 -333,-29 -451,-49 -272,-48 -577,-148 -802,-229 -549,-199 -664,-192 -684,-348l0 -313c0,-383 956,-3474 1346,-4075 85,-132 80,-224 117,-384 33,-141 61,-237 104,-364 485,-1440 878,-1413 2185,-1754 478,-126 1004,-338 1465,-505 422,-152 1218,-590 1348,-590 185,0 1315,763 3306,367 1423,-283 568,-411 1602,102 953,473 2838,929 3385,1461 432,419 457,652 637,1270 74,251 136,512 181,788 236,1444 1393,2833 1393,3872 0,251 -1558,636 -1914,711 -891,187 -349,445 -1399,445l0 2676c0,682 -157,1040 -157,1407 0,118 337,480 36,1380 -38,113 -192,470 -192,558 0,260 49,237 86,415 28,139 31,236 53,384 66,458 59,784 13,1229 -48,464 -290,263 -897,416 -1494,378 -2404,1120 -4132,1120zm6341 -10826c474,46 1264,-372 1744,-372 68,144 103,151 78,336 -427,209 -1411,533 -1975,542 66,-1557 -90,-3086 140,-4401 -48,36 -93,74 -135,115l0 110c0,22 -2,43 -8,64 -1,7 -2,14 -4,22 -2,16 -5,33 -10,48 0,7 0,13 0,19 78,1369 47,2110 -81,3410 -45,456 -525,679 -1048,653 289,-1876 -64,-2324 335,-4227 55,-263 70,-276 50,-364 -1,-7 -7,-18 -9,-23 -1,-6 -5,-16 -10,-23 -544,461 -353,3787 -626,4864 -111,440 -277,2388 -421,2816 -290,868 -795,2388 -1199,3179 -81,158 -255,445 -301,605 189,-25 142,-37 231,-176 58,-91 90,-156 146,-260 94,-174 180,-375 256,-558 158,-383 308,-740 451,-1143 140,-397 280,-783 429,-1163 80,-204 328,-2527 464,-2613 97,1053 -39,3711 -502,4636 -406,810 -766,1329 -1170,2051 -83,146 -155,206 -102,314 171,-54 379,-505 475,-661 308,-502 533,-931 816,-1435 97,-173 304,-651 428,-721 303,355 -242,1591 -471,1898 -257,342 -843,803 -942,1068 115,-32 117,-32 193,-98 418,-365 909,-954 994,-1024 139,407 248,1346 152,1767 -49,28 -790,154 -1156,279 -1110,380 -2104,907 -3341,993 -2041,143 -2346,-269 -3794,-498 -451,-72 -948,-25 -1372,-95 -218,-352 -146,-1900 -222,-2339 -35,-207 -115,-250 -60,-475 50,-210 192,-461 45,-856 -420,-1126 136,-1214 13,-1732 -174,-738 -68,-2429 97,-3057 23,-90 33,-132 79,-191 46,47 425,2628 491,2798 296,765 807,1775 1263,2426 130,186 248,354 381,526 96,124 334,396 479,458 -41,-222 -450,-615 -638,-924 -1047,-1713 -1340,-3961 -1946,-5855 -630,-1967 -757,-3600 -607,-5543 4,-47 9,-95 14,-145 -362,-159 -246,512 -243,861 9,793 681,4655 610,4907 -348,39 -196,-320 -710,-281 -358,28 -639,26 -981,-40 -334,-65 -858,-218 -1172,-361 -136,-62 -272,-98 -208,-292 314,-24 708,277 898,172 -88,-207 -632,-348 -876,-440 2,-25 304,-1363 681,-2369 235,-626 566,-1030 667,-1195 281,-456 196,-928 517,-1484 283,-491 528,-562 1053,-697 468,-120 926,-240 1363,-388l1286 -478c240,625 642,927 1009,1299 56,57 122,112 197,165 18,4 35,10 51,18 46,-8 95,-3 139,15 6,2 13,4 20,6 12,2 23,5 35,8l-1 0c27,0 50,1 77,8 8,-8 18,-16 27,-24 -931,-491 -1410,-1419 -1338,-1604 27,-71 304,-231 401,-259 166,160 290,567 813,1028 215,189 173,233 534,404 107,51 249,106 396,146 18,-29 42,-54 69,-73 45,-44 107,-72 176,-73 -383,-21 -730,-204 -913,-399 164,2 390,96 988,104 416,6 683,-19 1065,-73 -155,191 -681,361 -1033,370 -14,0 -27,0 -40,0 20,3 39,8 58,15 24,-7 48,-11 74,-11l22 0c106,0 197,65 234,157 570,-139 1129,-612 1466,-971 110,-117 343,-423 436,-493 407,226 408,287 142,696 -399,616 -951,1096 -1678,1272 23,7 45,18 65,31 8,-2 16,-4 25,-6 27,-16 58,-28 91,-33 15,-5 29,-9 44,-11 24,-8 49,-13 75,-14 11,-4 23,-6 35,-8 14,-5 29,-9 44,-11 26,-9 54,-14 83,-14l14 0c3,-1 7,-2 10,-3 21,-9 43,-15 66,-17 11,-5 21,-9 32,-13l0 0c11,-3 21,-5 32,-7 21,-13 44,-23 68,-29 8,-3 16,-6 24,-9 458,-261 838,-647 1122,-1101 84,-135 129,-256 238,-360 193,18 2377,840 2682,978 818,369 1178,1459 1296,2239 26,172 62,596 109,738 395,1194 924,1131 1142,2413l-1314 376c-161,41 -320,50 -388,190zm-4440 -7149c-126,218 -393,480 -707,563 -636,168 -1706,124 -2319,-68 -309,-96 -496,-339 -618,-617 726,147 543,301 1775,315 1071,12 1218,-137 1869,-193z"/>
   <path class="fil2btn2" d="M8469 1734c-265,-40 -318,171 -318,171 0,0 131,1871 55,2615 -77,744 -11,959 -11,959 0,0 211,48 625,14 414,-34 422,157 345,-501 -77,-657 -179,-1073 -148,-1742 31,-668 -17,-953 24,-1252 42,-298 64,-300 -79,-267 -144,33 -228,43 -493,3zm-212 187c28,641 50,1283 64,1924 9,348 15,697 14,1046 0,142 -2,-820 -6,-677 -4,105 -8,212 -19,317 -24,236 -43,485 -34,722 1,37 3,88 8,134 28,3 57,5 83,7 147,11 297,6 444,-6 74,-6 146,-6 221,-2 13,1 43,3 66,4 1,-40 -5,-110 -13,-181 -9,-88 -21,-177 -24,-204 -25,-211 -44,-423 -61,-634 -21,-266 -39,574 -55,308 -15,-264 -27,-529 -34,-794 -5,-212 -9,-427 1,-639 11,-244 12,-484 8,-727 -2,-160 -7,-323 11,-483 2,-17 4,-35 6,-52 7,-48 14,-96 21,-144 -29,6 -58,12 -88,16 -139,20 -279,3 -417,-18 -56,-9 -118,-6 -162,35 -13,12 -26,30 -34,48z"/>
   <path class="fil2btn2" d="M8521 2808c23,0 42,18 42,41 0,23 -19,42 -42,42 -23,0 -42,-19 -42,-42 0,-23 19,-41 42,-41zm151 0c23,0 42,18 42,41 0,23 -19,42 -42,42 -23,0 -42,-19 -42,-42 0,-23 19,-41 42,-41zm-151 137c23,0 42,18 42,42 0,23 -19,41 -42,41 -23,0 -42,-18 -42,-41 0,-24 19,-42 42,-42zm151 0c23,0 42,18 42,42 0,23 -19,41 -42,41 -23,0 -42,-18 -42,-41 0,-24 19,-42 42,-42zm-75 -285c142,0 257,116 257,258 0,142 -115,258 -257,258 -143,0 -258,-116 -258,-258 0,-142 115,-258 258,-258z"/>
   <path class="fil2btn2" d="M8542 4206c23,0 42,19 42,42 0,23 -19,42 -42,42 -23,0 -42,-19 -42,-42 0,-23 19,-42 42,-42zm151 0c23,0 42,19 42,42 0,23 -19,42 -42,42 -23,0 -42,-19 -42,-42 0,-23 19,-42 42,-42zm-151 138c23,0 42,18 42,42 0,23 -19,41 -42,41 -23,0 -42,-18 -42,-41 0,-24 19,-42 42,-42zm151 0c23,0 42,18 42,42 0,23 -19,41 -42,41 -23,0 -42,-18 -42,-41 0,-24 19,-42 42,-42zm-75 -285c142,0 257,116 257,258 0,142 -115,258 -257,258 -143,0 -258,-116 -258,-258 0,-142 115,-258 258,-258z"/>
  </g>
 </g>
</svg>
