<svg xmlns="http://www.w3.org/2000/svg" xml:space="preserve" width="5.72986in" height="13.3156in" version="1.1" style="shape-rendering:geometricPrecision; text-rendering:geometricPrecision; image-rendering:optimizeQuality; fill-rule:evenodd; clip-rule:evenodd"
viewBox="0 0 712 1656"
 xmlns:xlink="http://www.w3.org/1999/xlink">
 <defs>
  <style type="text/css">
   <![CDATA[
    .fil1 {fill:black}
    .fil0 {fill:white}
   ]]>
  </style>
 </defs>
 <g id="Layer_x0020_1">
  <metadata id="CorelCorpID_0Corel-Layer"/>
  <g id="_946223952">
   <path class="fil0" d="M694 319c4,54 7,108 9,163 2,62 4,124 5,186 2,67 3,133 4,199 1,75 0,151 -3,226 -4,75 -9,150 -15,225 -5,58 -23,116 -29,173 -3,37 -7,73 -11,110 2,10 15,22 9,31 -3,4 -7,8 -11,10 -9,4 -16,5 -25,5 -7,1 -14,1 -21,2 -3,1 -7,3 -10,4 -4,1 -9,1 -13,0 -2,-1 -4,-2 -6,-2 -2,-1 -5,-3 -6,-3 -3,0 -6,1 -8,2 -5,1 -9,2 -14,2 -11,-1 -22,-1 -34,-1 -5,0 -11,-1 -16,-2 -6,-1 -11,-2 -17,-2 -17,0 -40,3 -54,-8 -7,-5 -10,-13 -11,-21 0,0 0,0 0,0 -1,-3 -2,-6 -2,-9 0,-3 13,-7 13,-10 0,-2 0,-5 0,-7 0,0 -1,-1 -1,-2 -3,-5 -4,-9 -5,-14 -2,-8 -2,-15 -2,-23 0,-26 0,-51 0,-76 0,-44 -13,-87 -13,-131 0,-43 0,-87 0,-130 -1,-16 -1,-32 -1,-49 -1,-9 -1,-18 -1,-27 -8,-93 -16,-186 -24,-279 -8,-93 -15,-186 -22,-279 -1,0 -1,0 -1,-1 -4,78 -9,155 -13,233 -4,77 -9,155 -14,232 -6,103 -12,205 -18,307 -2,36 -18,72 -20,108 -1,11 -2,22 -3,34 0,6 0,12 -1,18 -4,28 -9,57 -16,85 0,1 0,1 0,1 0,1 -1,1 -1,2 0,2 1,6 2,7 0,5 13,10 11,15 0,3 -1,6 -2,8 -3,6 -7,10 -12,12 -7,3 -15,3 -22,4 -2,1 -4,1 -6,2 -3,1 -6,2 -9,4 -3,1 -7,2 -10,2 -8,1 -14,0 -21,-3 -3,0 -6,-1 -9,-2 -5,0 -10,0 -16,0 -6,1 -12,1 -18,0 -4,0 -9,1 -13,1 -5,1 -9,1 -14,1 -7,-1 -15,-3 -22,-4 -5,-1 -10,-2 -15,-1 -8,1 -13,-2 -20,-4 -2,0 -4,-1 -6,-1 -5,0 -9,2 -14,2 -6,1 -11,-1 -16,-5 -3,-2 -6,-6 -8,-9 -8,-15 9,-33 10,-48 0,-4 -13,-8 -13,-12 -1,-7 -1,-15 -1,-22 -1,-14 12,-28 11,-42 -2,-79 -16,-158 -18,-237 0,-14 0,-27 0,-41l-1 -14c0,-2 0,-5 0,-7 -5,-58 -10,-116 -13,-175 -4,-72 -6,-144 -7,-216 0,-72 0,-145 1,-217 0,-65 0,-129 3,-194 2,-62 8,-124 18,-185 4,-23 8,-47 15,-70 4,-13 9,-27 15,-40 3,-7 9,-18 15,-23 2,-17 4,-34 7,-51 1,-7 3,-13 4,-19 0,-2 1,-3 1,-5 0,-3 1,-7 3,-9 0,-1 0,-2 0,-3 25,3 50,5 75,8 18,1 36,3 54,4 11,1 21,1 31,1 13,1 26,1 39,0l51 -1c17,0 27,-1 44,0 9,0 18,1 27,1 15,0 30,1 45,1 14,0 29,-1 43,-2 18,-1 36,-3 54,-4 25,-3 50,-5 75,-8 0,3 1,5 2,8 2,-9 5,10 6,26 0,0 1,1 1,2 2,17 4,34 7,51 5,6 11,15 14,21 14,26 22,56 28,84 8,42 12,85 16,127z"/>
   <path class="fil1" d="M273 1599c0,1 -1,1 -1,2 0,2 1,6 2,7 0,5 13,10 11,15 0,3 -1,6 -2,8 -3,6 -7,10 -12,12 -7,3 -15,3 -22,4 -2,1 -4,1 -6,2 -3,1 -6,2 -9,4 -3,1 -7,2 -10,2 -8,1 -14,0 -21,-3 -3,0 -6,-1 -9,-2 -5,0 -10,0 -16,0 -6,1 -12,1 -18,0 -4,0 -9,1 -13,1 -5,1 -9,1 -14,1 -7,-1 -15,-3 -22,-4 -5,-1 -10,-2 -15,-1 -8,1 -13,-2 -20,-4 -2,0 -4,-1 -6,-1 -5,0 -9,2 -14,2 -6,1 -11,-1 -16,-5 -3,-2 -6,-6 -8,-9 -8,-15 9,-33 10,-48 0,-4 -13,-8 -13,-12 -1,-7 -1,-15 -1,-22 -1,-14 12,-28 11,-42 -2,-79 -16,-158 -18,-237 0,-14 0,-27 0,-41 0,-5 0,-10 -1,-14 0,-2 0,-5 0,-7 -5,-58 -10,-116 -13,-175 -4,-72 -6,-144 -7,-216 0,-72 0,-145 1,-217 0,-65 0,-129 3,-194 2,-62 8,-124 18,-185 4,-23 8,-47 15,-70 4,-13 9,-27 15,-40 3,-7 9,-18 15,-23 2,-17 4,-34 7,-51 3,-12 6,-24 8,-36 25,3 50,5 75,8 18,1 36,3 54,4 11,1 21,1 31,1 13,1 26,1 39,0 17,0 34,0 51,-1 17,0 27,-1 44,0 9,0 18,1 27,1 15,0 30,1 45,1 14,0 29,-1 43,-2 18,-1 36,-3 54,-4 25,-3 50,-5 75,-8 3,12 6,24 9,36 2,17 4,34 7,51 5,6 11,15 14,21 14,26 22,56 28,84 8,42 12,85 16,127 4,54 7,108 9,163 2,62 4,124 5,186 2,67 3,133 4,199 1,75 0,151 -3,226 -4,75 -9,150 -15,225 -5,58 -23,116 -29,173 -3,37 -7,73 -11,110 2,10 15,22 9,31 -3,4 -7,8 -11,10 -9,4 -16,5 -25,5 -7,1 -14,1 -21,2 -3,1 -7,3 -10,4 -4,1 -9,1 -13,0 -2,-1 -4,-2 -6,-2 -2,-1 -5,-3 -6,-3 -3,0 -6,1 -8,2 -5,1 -9,2 -14,2 -11,-1 -22,-1 -34,-1 -5,0 -11,-1 -16,-2 -6,-1 -11,-2 -17,-2 -17,0 -40,3 -54,-8 -7,-5 -10,-13 -11,-21 0,0 0,0 0,0 -1,-3 -2,-6 -2,-9 0,-3 13,-7 13,-10 0,-2 0,-5 0,-7 0,0 -1,-1 -1,-2 -3,-5 -4,-9 -5,-14 -2,-8 -2,-15 -2,-23 0,-26 0,-51 0,-76 0,-44 -13,-87 -13,-131 0,-43 0,-87 0,-130 -1,-16 -1,-32 -1,-49 -1,-9 -1,-18 -1,-27 -8,-93 -16,-186 -24,-279 -8,-93 -15,-186 -22,-279 -1,0 -1,0 -1,-1 -4,78 -9,155 -13,233 -4,77 -9,155 -14,232 -6,103 -12,205 -18,307 -2,36 -18,72 -20,108 -1,11 -2,22 -3,34 0,6 0,12 -1,18 -4,28 -9,57 -16,85 0,1 0,1 0,1zm165 -1046c0,0 0,1 0,1 -3,0 -5,-1 -7,-1 -7,-1 -14,-1 -21,0 -13,2 -27,6 -39,11 1,1 1,2 2,3 8,95 15,191 24,287 8,96 17,192 25,287 1,10 1,20 1,29 1,17 1,33 1,49 1,44 1,88 1,132 0,45 13,89 13,133 0,25 -1,51 0,77 0,4 -1,8 0,13 0,0 0,0 0,0 3,5 4,9 5,13 2,5 3,9 3,14 0,5 -14,9 -14,14 1,1 2,2 3,3 9,7 32,5 43,5 6,0 13,1 19,2 4,1 9,2 13,2 12,0 23,0 34,0 3,1 6,0 8,-1 6,-1 11,-3 16,-1 3,0 6,2 8,3 2,0 4,1 5,1 3,1 5,-1 7,-2 3,-1 5,-1 8,-2 7,-1 14,-1 21,-2 7,0 13,-1 19,-4 2,-1 4,-3 5,-4 3,-6 -10,-15 -12,-21 0,-1 0,-2 0,-2 3,-37 7,-73 11,-109 5,-57 23,-114 28,-171 6,-74 11,-148 14,-222 3,-74 4,-149 4,-223 -1,-65 -2,-130 -4,-195 -1,-62 -2,-123 -4,-184 -2,-53 -5,-107 -9,-160 -2,-22 -4,-45 -7,-67 -2,-19 -5,-38 -8,-56 -5,-26 -12,-54 -25,-77 -3,-6 -8,-16 -13,-21 -1,0 -2,-1 -2,-1 -3,-19 -5,-37 -7,-56 -2,-7 -4,-14 -6,-22 -20,2 -40,5 -60,7 -18,1 -36,3 -53,4 -14,1 -29,2 -43,2 -14,0 -29,-1 -44,-1 -20,-1 -48,-1 -68,-1 -17,1 -33,1 -50,1 -13,0 -25,1 -38,0 -10,0 -20,0 -30,-1 -18,-1 -36,-3 -53,-4 -21,-2 -41,-5 -61,-7 -2,8 -3,15 -5,22 -3,19 -5,37 -8,56 0,1 -1,1 -2,2 -1,1 -3,3 -4,4 -4,5 -7,12 -10,18 -5,12 -9,25 -13,38 -5,21 -10,42 -13,64 -10,60 -15,120 -17,180 -3,64 -3,127 -3,191 -1,71 0,142 0,214 1,71 4,142 7,213 4,57 8,115 13,172 0,3 0,5 0,8 1,4 1,9 1,13 0,14 0,28 0,42 1,78 16,156 18,234 0,13 -12,27 -12,41 0,4 1,9 1,13 0,3 0,5 0,7 1,9 13,20 12,29 -1,9 -14,23 -6,30 1,0 2,1 4,1 1,0 3,0 5,-1 7,-2 13,-2 20,1 4,1 9,3 13,3 7,-1 13,0 20,1 6,1 13,3 19,4 7,0 15,-2 22,-2 2,0 3,0 5,0 10,1 21,0 32,0 4,1 8,2 12,3 5,1 9,3 14,2 2,0 4,-1 5,-1 4,-2 7,-4 11,-5 2,-1 5,-1 8,-2 5,0 12,0 17,-2 1,-1 1,-1 2,-2 -1,-5 -15,-10 -14,-15 1,-2 2,-5 2,-6 1,-7 3,-13 4,-19 4,-20 8,-40 10,-60 1,-6 2,-12 2,-18 1,-11 2,-23 2,-34 3,-37 18,-73 21,-109 6,-104 13,-207 19,-311 5,-78 10,-157 15,-235 5,-79 9,-157 13,-236 -19,9 -28,0 -49,7 0,1 -1,1 -1,1 -1,0 -2,1 -3,1 0,0 0,0 0,0 -1,0 -2,1 -3,1 -2,0 -3,1 -5,2 0,0 -1,0 -2,0 -1,0 -3,0 -4,0 0,0 0,0 -1,0 0,0 0,0 0,0 3,-1 5,-2 7,-3 11,-5 22,-11 32,-16 14,-7 28,-14 42,-20 1,-2 1,-4 2,-6 0,-1 0,-2 0,-3 0,-5 0,-10 -1,-15 0,-6 0,-12 0,-17 0,-12 0,-24 0,-36 0,-10 1,-19 1,-29 1,-27 2,-53 3,-80 10,9 2,19 11,81 0,19 -1,38 -1,58 0,5 0,10 1,15 1,7 1,14 1,21 0,2 0,3 0,5 20,-7 31,-5 51,1 0,0 0,0 1,0 0,0 0,1 1,1 0,0 1,1 1,1 1,1 3,2 4,3 1,0 2,0 3,1 0,0 1,1 2,1 0,1 1,1 2,2z"/>
   <path class="fil1" d="M133 52c0,3 -2,6 -4,28l3 0c0,3 0,5 0,8 1,-3 1,-5 2,-8 4,1 7,1 11,2 -2,-28 -4,-32 -4,-36 0,-4 0,-8 1,-12l-3 0c-1,-15 -4,-28 -7,-8 2,11 2,22 1,26zm-5 28c-3,-28 -4,-32 -4,-36 0,-4 0,-8 1,-11 -1,0 -2,0 -3,0 -1,-16 -4,-30 -7,-9 2,10 2,22 1,26 0,3 -2,6 -4,28 1,0 2,0 3,0 0,3 0,5 0,8 1,-3 1,-5 2,-7 4,0 7,0 11,1zm-3 -59c2,-19 4,-16 6,-7 1,-2 2,-4 4,-4 4,0 5,5 6,9 1,2 1,3 1,4 2,-19 4,-16 6,-7 1,-2 2,-4 4,-4 4,0 5,5 6,10 1,1 1,2 1,4 1,-19 4,-17 6,-9 1,-2 2,-3 4,-3 4,0 5,5 6,9 0,2 1,4 1,6 1,-21 4,-19 6,-10 0,-2 2,-4 4,-4 3,0 5,6 6,10 0,2 1,4 1,7 1,-23 4,-21 6,-12 1,-1 2,-3 4,-3 3,0 5,5 6,9 0,3 1,5 1,7 1,-21 4,-20 6,-12 0,-2 2,-3 3,-3 4,0 5,5 6,9 1,3 1,5 2,8l0 0c1,-23 4,-22 5,-13 1,-1 3,-3 4,-2 4,0 5,4 6,9 1,2 1,4 2,6l0 0c1,-21 4,-21 5,-12 1,-2 3,-3 4,-2 3,0 5,4 6,8 1,3 1,5 1,7l1 0c1,-21 4,-21 5,-13 1,-1 2,-2 4,-2 3,0 5,5 6,9 1,2 1,4 1,7 1,0 1,0 1,0 1,-22 4,-21 5,-13 1,-1 2,-2 4,-2 3,0 5,5 6,9 0,2 1,4 1,6l1 0c1,-21 4,-20 5,-13 1,-1 2,-1 4,-1 3,0 5,4 6,8 0,2 1,4 1,6 0,0 1,0 1,0 2,-20 4,-20 5,-12 1,-1 2,-2 4,-2 3,0 5,4 6,8 0,2 1,4 1,6 0,0 1,0 1,0 2,-19 4,-20 5,-12 1,-1 2,-2 3,-2 4,0 5,5 7,9 0,1 0,3 1,5l1 0c2,-19 4,-19 5,-12 1,-1 2,-2 3,-2 4,1 6,8 8,14 0,0 1,0 1,0 2,-19 4,-19 5,-13 1,0 2,-1 3,-1 4,1 6,8 8,14 0,0 1,0 2,0 1,-18 3,-19 4,-13 1,0 2,-1 3,-1 4,0 6,8 7,14 1,0 2,0 3,0 1,-18 3,-19 4,-13 1,-1 2,-1 3,-1 4,0 6,7 7,13 1,0 2,0 3,0 1,-17 3,-18 4,-13 1,0 2,-1 3,0 4,0 6,7 7,13l3 0c1,-17 3,-18 4,-14 1,0 2,0 3,0 4,0 6,7 7,13l3 0c1,-16 3,-18 4,-13 1,-1 2,-1 3,-1 3,0 6,7 7,13 1,0 2,0 3,0 1,-15 3,-17 4,-13 1,-1 2,-1 2,-1 4,0 6,7 8,13 1,0 2,0 3,-1 1,-14 3,-16 4,-12 1,-1 2,-1 2,-1 4,0 6,7 8,12 1,0 2,0 3,0 0,-2 0,-5 1,-7 1,-7 2,-8 3,-6 1,0 1,0 2,0 4,0 6,6 7,12 2,-1 3,-1 4,-1 0,-3 1,-6 1,-9 1,-4 2,-5 3,-3 1,-1 1,-1 2,-1 4,0 6,6 7,12 1,0 3,-1 4,-1 0,-3 1,-7 2,-10 1,-2 1,-3 2,-2 0,-1 1,-1 2,-1 4,1 6,6 7,12 1,-1 2,-1 4,-1 0,-6 2,-13 6,-13 3,1 5,6 7,11 1,0 2,0 4,0 0,-6 2,-13 6,-13 3,1 5,6 7,11 1,-1 2,-1 4,-1 0,-6 2,-13 6,-12 3,0 5,5 6,10 2,-1 3,-1 5,-1 0,-6 2,-13 6,-12 5,1 7,10 8,15 0,5 2,12 3,18 0,2 0,3 0,4 2,-80 12,-5 9,7 -1,3 -3,7 -5,32 -1,-15 -2,-24 -3,-29 0,2 0,3 0,4 0,1 -1,3 -1,4 0,3 -1,7 -1,10 0,5 1,10 1,15 0,5 1,10 1,15 0,0 0,0 0,0 -2,0 -3,1 -4,3 -2,-6 -4,-13 -6,-19 0,-3 -1,-6 -2,-8 0,0 -1,0 -1,0 0,2 -1,4 -1,7 0,-3 0,-5 0,-7 -2,0 -3,1 -4,1 0,3 0,7 0,11 1,5 1,10 1,15 0,0 0,0 0,0 -2,-1 -3,1 -4,3 -2,-6 -4,-13 -5,-20 -1,-2 -2,-5 -2,-7 -1,0 -2,0 -2,0 0,2 -1,4 -1,6 0,-2 0,-4 0,-6 -2,1 -3,1 -4,1 0,3 0,7 0,10 1,5 1,10 2,15 0,0 -1,0 -1,0 -2,0 -3,1 -4,3 -2,-6 -4,-13 -5,-19 -1,-2 -1,-5 -2,-7 -1,0 -2,0 -3,0 0,2 0,3 0,5 0,-2 0,-3 0,-5 -2,0 -3,1 -4,1 0,3 0,6 1,9 0,5 0,10 1,15 0,0 -1,0 -1,0 -2,0 -3,1 -4,4 -2,-7 -3,-13 -5,-20 -1,-2 -1,-4 -2,-7 -1,0 -2,1 -3,1 0,1 0,2 0,3 0,-1 0,-2 0,-3 -2,0 -3,0 -4,0 0,3 0,6 1,9 0,5 0,10 1,15 -1,0 -1,0 -1,0 -2,0 -3,1 -4,4 -2,-7 -3,-13 -5,-20 -1,-2 -1,-4 -2,-6 -1,0 -2,0 -3,0 0,1 0,2 0,3 0,-1 0,-2 0,-3 -2,0 -3,1 -4,1 0,2 0,5 1,8 0,5 0,10 0,15 0,0 0,0 0,0 -2,0 -3,1 -4,3 -2,-6 -3,-13 -5,-19 -1,-2 -1,-4 -2,-6 -1,0 -2,0 -3,0 0,1 0,2 0,2l0 -2c-2,0 -3,1 -4,1 0,2 0,5 0,7 1,5 1,10 1,15 0,0 0,0 0,0 -2,0 -4,2 -4,4 -2,-6 -4,-13 -5,-20 -1,-1 -1,-3 -1,-5 -2,0 -3,0 -4,0l0 1 0 -1c-2,0 -3,1 -4,1 0,2 0,4 0,7 1,5 1,10 1,15 0,0 0,0 0,0 -2,0 -4,1 -4,3 -2,-6 -4,-13 -5,-19 -1,-2 -1,-4 -1,-5 -2,0 -3,0 -4,0l0 0 0 0c-2,0 -3,0 -4,0 0,2 0,5 0,7 0,5 0,10 1,15 0,0 -1,0 -1,0 -2,0 -3,1 -4,3 -1,-6 -3,-12 -4,-19 -1,-2 -1,-3 -1,-5 -3,0 -6,1 -8,1 0,2 0,4 0,6 0,5 0,10 0,15 0,0 0,0 0,0 -2,0 -3,1 -4,3 -2,-6 -3,-12 -5,-19 0,-1 0,-3 -1,-5 -2,1 -5,1 -7,1 0,2 0,4 0,5 0,6 0,11 0,16 0,0 0,0 -1,0 -2,-1 -3,1 -4,3 -1,-6 -3,-13 -4,-19 0,-1 -1,-3 -1,-4 -2,0 -5,0 -8,0 0,2 0,3 0,5 0,5 0,10 1,15 -1,0 -1,0 -1,0 -2,0 -3,1 -4,3 -1,-6 -3,-12 -4,-18 0,-2 -1,-3 -1,-4 -3,0 -5,0 -8,0 0,2 0,3 0,5 0,5 0,10 0,15 0,0 0,0 -1,0 -2,-1 -3,1 -4,3 -1,-6 -2,-13 -4,-19 0,-1 0,-2 0,-4 -3,0 -6,1 -8,1 0,1 0,3 0,4 -1,5 -1,10 -1,15 0,0 0,0 0,0 -2,0 -4,1 -4,4 -2,-7 -3,-13 -4,-20 0,-1 0,-2 -1,-3 -2,0 -5,0 -8,0 0,1 0,3 0,4 0,5 0,10 0,15 0,0 -1,0 -1,0 -2,0 -3,2 -4,4 -1,-6 -2,-13 -3,-20 -1,-1 -1,-2 -1,-3 -3,0 -5,0 -8,0 0,2 0,3 0,4 -1,5 -1,10 -1,15 0,0 0,0 0,0 -2,0 -4,1 -5,4 -1,-7 -2,-13 -3,-19 0,-1 0,-2 0,-4 -3,0 -6,0 -9,0 0,2 0,3 0,4 0,5 0,10 0,15 -1,0 -1,0 -1,0 -2,0 -4,2 -4,4 -1,-7 -2,-13 -3,-20 0,-1 -1,-2 -1,-3 -2,0 -5,0 -8,0 0,1 0,3 0,4 0,5 -1,10 -1,15 0,0 0,0 -1,0 -2,0 -3,1 -4,4 -1,-7 -2,-13 -3,-20 0,-1 0,-2 0,-3 -3,0 -6,0 -8,0 0,1 0,2 -1,3 0,5 0,10 -1,15 0,0 0,0 0,0 -2,0 -4,2 -5,4 0,-6 -1,-13 -2,-19 0,-1 0,-2 0,-3 -3,0 -6,0 -9,0 0,1 0,2 0,3 0,5 -1,10 -1,15 0,0 -1,0 -1,0 -2,0 -3,1 -4,3 -1,-6 -2,-12 -2,-19 -1,-1 -1,-2 -1,-3 -3,0 -5,0 -8,0 0,1 0,2 0,3 -1,5 -1,10 -2,15 0,0 0,0 0,0 -3,0 -4,2 -5,4 -1,-6 -1,-13 -2,-19 0,-1 0,-2 0,-4 -3,0 -6,0 -9,0 0,1 0,2 0,3 0,5 -1,10 -1,15 -1,0 -1,0 -1,0 -2,0 -4,2 -5,4 0,-6 -1,-13 -1,-19 0,-1 0,-2 -1,-3 -2,-1 -5,-1 -8,-1 0,1 0,2 0,3 -1,5 -1,10 -2,15 0,0 0,0 -1,0 -2,0 -3,2 -4,4 -1,-6 -1,-13 -2,-19 0,-1 0,-2 0,-3 -3,-1 -5,-1 -8,-1 0,1 0,2 -1,3 0,5 -1,10 -2,15 0,0 0,0 0,0 -2,0 -4,2 -5,4 0,-6 -1,-13 -1,-19 0,-1 0,-2 0,-4 -3,0 -6,0 -9,0 0,1 0,2 0,2 0,6 -1,11 -2,16 0,0 0,0 0,0 -2,0 -4,2 -5,4 0,-7 -1,-13 -1,-19 0,-2 -1,-3 -1,-4 -2,0 -5,0 -8,-1 0,1 0,2 0,3 -1,5 -2,10 -2,15 -1,0 -1,0 -1,0 -2,0 -4,2 -5,4 0,-6 0,-13 -1,-19 0,-1 0,-2 0,-3 -3,-1 -5,-1 -8,-1 0,1 0,1 0,2 -1,5 -2,10 -3,15 0,0 0,0 0,0 -3,0 -4,2 -5,5 0,-7 -1,-13 -1,-20 0,-1 0,-2 0,-3 -3,-1 -5,-1 -8,-1 0,1 0,2 -1,2 0,6 -1,11 -2,16 0,0 0,0 0,0 -3,0 -4,2 -6,4 0,-7 0,-13 0,-20 0,-1 0,-2 0,-3 -3,0 -5,-1 -8,-1 0,1 0,1 -1,2 0,5 -1,10 -2,15 0,0 -1,0 -1,0 -2,0 -3,2 -5,4 0,-6 0,-12 0,-19 0,-1 0,-2 0,-3 -3,0 -6,0 -8,-1 0,1 0,1 -1,2 0,5 -1,10 -2,15 -1,0 -1,0 -1,0 -2,0 -4,2 -5,5 0,-7 0,-14 0,-20 0,-1 0,-2 0,-3 -3,0 -6,0 -8,0 -1,0 -1,0 -1,0 -1,5 -1,11 -2,16 -1,0 -1,0 -1,0 -2,0 -4,2 -5,4 0,-7 0,-13 0,-20 0,0 0,-1 0,-1 -4,0 -8,0 -12,-1 -1,0 -2,0 -3,0 0,-1 0,-2 0,-4 0,-1 -1,-1 -1,-2 -1,-1 -1,-1 -1,-1 0,-1 0,-2 0,-2 0,-6 0,-12 0,-18 0,-6 0,-12 0,-19 0,-7 1,-16 2,-24 0,-5 2,-10 5,-11 4,0 6,5 7,10 0,1 0,1 0,2 2,-15 4,-12 6,-3 1,-3 2,-5 4,-5 4,0 6,6 7,10 0,1 0,2 0,2 2,-16 4,-14 6,-5 1,-3 2,-5 4,-5 4,0 6,6 7,10 0,1 0,3 0,4zm296 9c1,-5 4,2 5,12 2,0 4,0 5,0 0,4 0,9 0,15 0,5 1,8 4,34 -3,0 -5,0 -8,0 0,3 0,6 0,10 -1,-4 -1,-7 -2,-10l-6 0c2,-20 3,-23 4,-27 1,-4 0,-22 -2,-34zm17 -1c1,-4 3,3 5,12 2,0 4,0 6,0 -1,5 -1,10 -1,16 0,4 1,8 4,32 -3,1 -5,1 -8,1 0,3 0,6 0,10 -1,-4 -1,-7 -2,-10 -2,0 -4,0 -6,0 2,-20 3,-23 4,-26 1,-5 0,-23 -2,-35zm17 -1c1,-3 3,3 5,12 2,0 4,0 6,0 -1,5 -1,10 -1,16 0,5 1,8 4,32 -3,0 -5,1 -7,1 -1,3 -1,6 0,11 -1,-4 -2,-8 -3,-11 -2,0 -4,0 -6,0 2,-20 3,-22 4,-26 1,-5 0,-23 -2,-35zm17 -1c1,-3 3,3 5,12 2,0 4,0 6,0 0,4 -1,10 -1,17 0,4 1,7 4,31 -2,0 -5,0 -7,0 0,3 0,7 0,12 -1,-5 -2,-8 -3,-11 -2,0 -4,0 -6,0 2,-19 4,-22 4,-25 1,-5 0,-24 -2,-36zm17 -1c1,-3 3,3 5,12 2,0 4,0 6,-1 0,5 -1,11 -1,18 0,4 1,7 4,30 -2,0 -5,0 -7,1 0,3 0,7 0,11 -1,-4 -2,-8 -3,-11 -2,0 -4,0 -6,1 2,-19 4,-22 4,-25 1,-5 0,-25 -2,-36zm17 -2c1,-2 3,4 5,12 2,0 4,0 6,0 0,4 -1,10 -1,18 0,4 1,7 4,29 -2,0 -5,1 -7,1 0,3 0,7 0,12 -1,-5 -2,-8 -3,-12l-6 1c2,-18 4,-21 4,-24 2,-6 0,-26 -2,-37zm17 -1c1,-2 3,4 4,11 3,0 5,0 7,0 0,5 0,11 -1,18 0,4 2,8 4,29 -2,0 -5,0 -7,1 0,3 0,7 0,13 -1,-5 -2,-9 -3,-13 -2,0 -4,1 -5,1 1,-17 3,-20 3,-23 2,-6 0,-27 -2,-37zm17 -2c1,-2 3,4 4,11 3,0 5,0 7,-1 0,6 0,12 0,20 -1,4 1,7 3,27 -2,1 -5,1 -7,2 0,3 0,7 0,13 -1,-5 -2,-10 -3,-13 -2,0 -4,0 -5,1 1,-17 3,-20 4,-23 1,-5 -1,-27 -3,-37zm17 -2c1,-1 3,4 4,11 2,0 5,-1 7,-1 0,5 0,12 0,20 -1,4 1,8 3,27 -3,0 -5,1 -7,1 0,4 0,8 0,14 -1,-5 -2,-10 -3,-14 -2,1 -3,1 -5,1 2,-15 3,-18 4,-21 1,-6 -1,-28 -3,-38zm17 -2c1,-1 3,4 4,10 2,0 5,0 8,-1 -1,6 -1,13 -1,22 0,3 1,7 3,25 -3,0 -5,1 -8,1 0,4 1,9 1,15 -1,-6 -3,-10 -4,-14 -1,0 -2,0 -4,0 2,-14 3,-17 4,-20 1,-6 -1,-28 -3,-38zm17 -3c1,-1 2,4 4,11 2,-1 5,-1 8,-2 -1,6 -1,13 -1,23 0,3 1,7 3,24 -3,0 -5,1 -8,1 0,4 0,9 1,15 -2,-6 -3,-10 -4,-14l-4 0c2,-13 3,-16 4,-19 1,-6 -1,-29 -3,-39zm17 -2c1,-2 2,3 4,9 2,11 4,27 3,32 0,2 -1,5 -1,15 0,4 0,9 1,15 -2,-6 -3,-10 -4,-14l-3 0c1,-12 2,-15 3,-18 1,-6 -1,-30 -3,-39zm-190 79c-3,1 -6,1 -8,1 0,3 0,6 0,9 -1,-3 -2,-6 -2,-9 -2,0 -4,0 -6,0 1,-21 3,-24 4,-27 1,-5 0,-22 -2,-34 1,-6 4,2 5,12 2,0 4,0 5,0 0,4 0,9 0,15 0,4 1,8 4,33zm-17 1c-3,0 -6,0 -8,1 -1,2 -1,5 -1,9 0,-4 -1,-7 -1,-9 -3,0 -5,0 -7,0 2,-22 4,-25 5,-28 1,-5 0,-22 -2,-33 1,-7 4,1 5,11 2,0 4,0 5,0 0,4 0,9 0,15 0,4 1,8 4,34zm-17 1c-3,0 -6,0 -9,0 0,3 0,6 0,9 -1,-3 -1,-6 -2,-9 -2,0 -4,0 -6,0 2,-22 4,-25 5,-28 1,-5 0,-21 -2,-33 1,-7 4,1 6,11l4 0c0,5 0,9 0,15 0,4 1,8 4,35zm-17 0c-3,0 -6,0 -9,0 0,3 0,6 -1,9 0,-3 -1,-6 -1,-9 -2,0 -4,0 -6,0 2,-22 4,-25 5,-28 1,-5 0,-21 -2,-32 2,-8 4,0 6,11l4 -1c0,5 0,9 0,15 0,4 1,8 4,35zm-17 0c-3,0 -6,0 -9,0 -1,3 -1,6 -1,9 0,-3 -1,-6 -1,-9 -2,0 -4,0 -6,0 2,-22 4,-25 5,-28 1,-5 0,-20 -2,-32 2,-8 4,0 6,11l4 0c0,4 0,8 0,14 -1,4 1,8 4,35zm-17 0c-3,0 -7,0 -10,0 0,3 0,5 0,9 -1,-4 -1,-6 -2,-9 -1,0 -3,0 -5,0 2,-23 4,-26 5,-29 1,-4 0,-19 -2,-31 2,-9 4,-1 6,11l4 0c0,4 0,8 0,14 -1,4 1,8 4,35zm-17 0c-4,0 -7,0 -10,0 0,2 -1,5 -1,8 0,-3 -1,-6 -1,-8 -2,0 -3,0 -5,0 2,-23 4,-26 5,-29 1,-4 0,-19 -2,-31 2,-10 4,-1 6,10 1,0 3,0 4,0 0,4 0,9 0,14 -1,5 1,9 4,36zm-17 -1c-4,0 -7,0 -10,0 -1,3 -1,5 -1,9 -1,-3 -1,-6 -1,-9l-5 0c2,-23 4,-26 4,-29 1,-4 1,-18 -1,-30 2,-11 4,-2 6,10 1,0 3,0 4,0 0,4 0,9 -1,14 0,4 2,8 5,35zm-17 0c-4,0 -7,0 -11,-1 0,3 0,6 -1,9 0,-3 0,-6 -1,-9 -1,0 -3,0 -4,0 2,-22 4,-25 4,-28 1,-4 1,-19 -1,-30 2,-12 4,-2 6,10 1,0 3,0 4,0 0,4 -1,8 -1,13 0,5 2,8 5,36zm-17 -1c-4,0 -8,0 -11,0 0,2 -1,5 -1,8 0,-3 -1,-6 -1,-8 -1,-1 -3,-1 -4,-1 2,-22 4,-25 4,-28 1,-4 1,-18 -1,-29 2,-13 4,-3 6,9 1,0 3,0 4,0 0,4 -1,8 -1,13 0,5 2,9 5,36zm-17 -1c-4,0 -8,0 -11,0 -1,2 -1,5 -2,8 0,-3 0,-6 0,-8l-4 -1c2,-22 4,-25 4,-28 1,-4 1,-18 -1,-29 2,-13 5,-3 6,10 1,0 3,0 4,0 0,3 -1,8 -1,13 0,4 2,8 5,35zm-18 -1c-3,0 -7,0 -11,0 0,2 0,5 -1,8 0,-3 0,-6 0,-9l-4 0c2,-22 4,-25 4,-28 1,-5 1,-18 -1,-29 2,-13 5,-3 6,10l4 0c0,4 -1,8 -1,12 0,5 2,9 4,36zm-17 -1c-3,0 -7,0 -11,-1 0,3 -1,6 -1,9 0,-3 0,-6 -1,-9 -1,0 -2,0 -3,0 2,-22 4,-25 4,-29 1,-3 1,-16 -1,-27 2,-15 5,-5 7,9l3 0c-1,4 -1,8 -1,12 0,5 2,9 4,36zm-17 -1c-3,0 -7,-1 -11,-1 0,2 -1,5 -1,8 0,-3 -1,-6 -1,-8 -1,0 -2,-1 -3,-1 2,-22 4,-25 4,-28 1,-4 1,-16 -1,-27 2,-17 5,-5 7,9 1,0 2,0 3,0 -1,4 -1,7 -1,12 0,4 2,8 4,36zm-17 -2c-3,0 -7,0 -11,-1 -1,3 -1,5 -1,8 -1,-3 -1,-6 -1,-8l-3 0c2,-23 4,-25 4,-29 1,-4 1,-16 -1,-27 3,-16 5,-5 7,9l3 1c-1,3 -1,7 -1,11 0,5 2,9 4,36zm-17 -1c-4,-1 -7,-1 -11,-2 -1,3 -1,5 -2,8 0,-3 0,-5 0,-8l-3 0c2,-22 4,-25 4,-28 1,-4 1,-16 -1,-27 3,-17 6,-6 7,9 1,0 2,0 3,0 -1,3 -1,7 -1,12 0,4 1,8 4,36zm-51 -6c-4,0 -8,-1 -12,-1 0,2 0,4 -1,6 0,-2 0,-4 0,-6l-3 0c2,-24 4,-27 4,-30 1,-4 1,-15 0,-25 2,-21 5,-7 7,9 0,0 1,0 1,0 0,3 0,7 0,11 0,4 1,8 4,36zm-17 -1c-3,0 -7,-1 -11,-1 0,-2 -1,-3 -2,-4 0,-13 0,-26 0,-36 1,-10 1,-18 2,-23 1,-10 4,-7 6,17l1 0c0,3 0,6 0,9 0,5 1,9 4,38z"/>
   <path class="fil1" d="M628 159c11,43 22,169 32,213 -17,-25 -35,-180 -45,-211 -1,-3 2,-5 5,-6 3,0 7,1 8,4z"/>
   <path class="fil1" d="M73 159c-11,43 -22,169 -33,213 17,-25 35,-180 45,-211 1,-3 -1,-5 -5,-6 -3,0 -6,1 -7,4z"/>
  </g>
 </g>
</svg>
