<svg xmlns="http://www.w3.org/2000/svg" xml:space="preserve" width="9.46925in" height="8.9904in" version="1.1" style="shape-rendering:geometricPrecision; text-rendering:geometricPrecision; image-rendering:optimizeQuality; fill-rule:evenodd; clip-rule:evenodd"
viewBox="0 0 692 657"
 xmlns:xlink="http://www.w3.org/1999/xlink">
 <defs>
  <style type="text/css">
   <![CDATA[
    .fillcr {fill:black}
    .fil0 {fill:white}
    .fil1 {fill:white}
   ]]>
  </style>
 </defs>
 <g id="Layer_x0020_1">
  <metadata id="CorelCorpID_0Corel-Layer"/>
  <g id="_946231984">
   <path class="fil0" d="M251 20l0 0zm24 -19c32,22 65,23 103,18 13,-1 36,-5 47,-11 5,-2 16,9 20,17 24,13 154,33 174,52 15,14 24,24 30,46 2,8 4,17 6,27 2,15 10,40 13,60 7,13 15,33 21,46 13,30 -19,63 -3,85 2,2 6,14 -1,14 -11,0 -68,-8 -79,-8 -33,0 -16,0 -49,-7 -2,1 -4,0 -5,-2 0,-1 1,-11 1,-14 -3,-2 -6,-5 -8,-9 0,4 4,47 7,52l0 50c0,24 -6,36 -6,49 0,4 12,17 2,48 -2,4 -7,16 -7,19 0,9 2,9 3,15 1,5 1,8 2,13 2,16 2,27 0,43 -1,16 -10,9 -31,14 -52,13 -105,39 -165,39l-36 0c-3,0 -6,0 -9,0 -1,0 -1,0 -1,0 -14,-1 -57,-4 -80,-10 -29,-7 -24,-7 -55,-7 -5,0 -13,1 -18,-1 -5,-1 -6,-4 -7,-9 -6,-19 -6,-43 -6,-64 0,-11 -3,-29 -3,-31 0,-18 4,-15 4,-24 0,-7 -4,-13 -6,-18 -1,-4 -2,-7 -3,-10 1,-1 1,-1 1,-2l0 -4c0,-1 0,-2 0,-3 0,-1 1,-3 1,-5 0,-1 0,-2 0,-3 0,-1 0,-2 0,-2 1,-1 1,-2 1,-3 0,-1 1,-2 1,-3 1,-2 1,-4 1,-6 1,-2 1,-3 1,-5l0 -6c-3,-45 8,-88 10,-124 0,-2 0,-3 0,-5 -5,-24 -13,24 -13,28 0,1 0,2 -1,2 -1,1 -2,1 -3,1 -33,-1 -25,4 -58,13 -12,4 -12,5 -24,6 -7,1 -34,-3 -42,0 -10,3 -2,-20 -1,-21 16,-24 -6,-54 8,-85 6,-13 10,-33 17,-46 6,-29 19,-58 23,-88 0,-1 0,-3 1,-4 1,-2 2,-5 3,-8 16,-50 59,-49 105,-61 25,-6 68,-14 90,-29 2,-6 6,-11 16,-19 0,0 1,0 1,-1 2,0 7,0 7,1zm278 418l0 0 0 0 0 0z"/>
   <g>
    <path class="fil1" d="M396 47c-30,9 -83,6 -109,-7 11,24 28,46 52,61 0,0 0,0 1,-1 18,-12 39,-32 56,-53z"/>
    <g>
     <path class="fil1" d="M519 55c-30,-7 -59,-13 -72,-20 -5,12 -15,26 -27,40 30,8 61,12 89,19 3,1 6,2 8,3 0,-10 0,-33 2,-42z"/>
     <path class="fil1" d="M194 52c0,0 -18,45 -20,53 1,-1 3,-1 5,-2 33,-8 57,-16 91,-22 -5,-8 -9,-18 -12,-29 -3,-7 -5,-12 -6,-17 -12,6 -45,13 -58,17z"/>
    </g>
   </g>
   <path class="fillcr" d="M473 236c11,13 14,7 21,17l5 7 7 9c14,16 -2,-4 7,9 5,7 23,14 32,25l3 4c-10,-10 -13,-11 -27,-17 -19,-9 -15,-4 -26,-27 -10,-23 -10,-9 -22,-27zm205 30c-3,8 -11,25 -17,31 -6,5 -1,19 0,25 -3,-6 -11,-23 -5,-32 3,-5 12,-6 22,-24z"/>
   <path class="fillcr" d="M340 109c-1,0 -3,0 -4,0 -36,-23 -56,-59 -68,-99 -15,13 -12,15 -4,40 14,40 37,65 72,87 3,1 3,1 7,0 0,-1 1,-1 2,-2 29,-16 89,-78 95,-106 -2,-4 -9,-11 -13,-14l-1 0c-18,36 -50,69 -82,91 -1,1 -3,2 -4,3zm-54 -78c25,16 96,19 121,2 3,-4 6,-9 9,-14 -16,5 -33,8 -49,9 -35,3 -63,0 -92,-19 2,6 4,12 6,18 1,2 3,3 5,4z"/>
   <path class="fillcr" d="M420 632l-17 5 -21 6m-58 5c2,-1 4,-2 5,-3 6,-2 27,-6 44,-9 11,-1 27,-6 40,-10m-173 4c-10,-1 -8,-3 -15,-4 -2,0 -11,0 -13,0 18,6 29,10 36,10m153 -16c-5,0 -10,1 -15,2 -25,6 -50,10 -60,10m77 -13l-1 0m7 0c-2,0 -4,0 -7,0m-280 -326c-9,-38 -3,-4 -4,-32 -3,-138 3,-13 9,28 0,1 0,2 0,2 -1,6 4,36 -5,2zm7 50c-33,-1 -25,4 -58,13 -12,4 -12,5 -24,6 -7,1 -34,-3 -42,0 -10,3 -2,-20 -1,-21 16,-24 -6,-54 8,-85 6,-13 10,-33 17,-46 6,-29 19,-58 23,-88 0,-1 0,-3 1,-4 1,-2 2,-5 3,-8 16,-50 59,-49 105,-61 25,-6 68,-14 90,-29l0 0c2,-6 6,-11 16,-19 0,0 1,0 1,-1 2,0 7,0 7,1 32,22 65,23 103,18 13,-1 36,-5 47,-11 5,-2 16,9 20,17 24,13 154,33 174,52 15,14 24,24 30,46 2,8 4,17 6,27 2,15 10,40 13,60 7,13 15,33 21,46 13,30 -19,63 -3,85 2,2 6,14 -1,14 -11,0 -68,-8 -79,-8 -33,0 -16,0 -49,-7 -2,1 -4,0 -5,-2 0,-1 1,-11 1,-14 -3,-2 -6,-5 -8,-9 0,4 4,47 7,52l0 50c0,24 -6,36 -6,49 0,4 12,17 2,48 -2,4 -7,16 -7,19 0,9 2,9 3,15 1,5 1,8 2,13 2,16 2,27 0,43 -1,16 -10,9 -31,14 -52,13 -105,39 -165,39l-36 0c-3,0 -6,0 -9,0 -1,0 -1,0 -1,0 -14,-1 -57,-4 -80,-10 -29,-7 -24,-7 -55,-7 -5,0 -13,1 -18,-1 -5,-1 -6,-4 -7,-9 -6,-19 -6,-43 -6,-64 0,-11 -3,-29 -3,-31 0,-18 4,-15 4,-24 0,-7 -4,-13 -6,-18 -1,-4 -2,-7 -3,-10 1,-1 1,-1 1,-2l0 -4c0,-1 0,-2 0,-3 0,-1 1,-3 1,-5 0,-1 0,-2 0,-3 0,-1 0,-2 0,-2 1,-1 1,-2 1,-3 0,-1 1,-2 1,-3 1,-2 1,-4 1,-6 1,-2 1,-3 1,-5l0 -6c-3,-45 8,-88 10,-124 0,-2 0,-3 0,-5 -5,-24 -13,24 -13,28 0,1 0,2 -1,2l0 0 0 0c-1,1 -2,1 -3,1zm20 -87c5,-70 4,-137 36,-201 -13,4 -28,8 -42,11 -18,5 -56,8 -66,25 -21,36 -33,121 -56,171 -11,25 12,55 -9,86 -1,1 -2,3 -2,4 1,0 32,4 36,3 12,-2 10,-2 23,-6 32,-9 27,-14 58,-12 1,-29 20,-53 22,-81zm45 -204c0,0 -18,45 -20,53 1,-1 3,-1 5,-2 33,-8 57,-16 91,-22 -5,-8 -9,-18 -12,-29 -3,-7 -5,-12 -6,-17 -12,6 -45,13 -58,17zm-22 60c-12,47 -12,96 -15,145 -1,12 -5,17 -6,34 0,0 0,1 0,2 1,4 3,9 4,13 16,51 17,65 17,118l0 0 0 0c0,1 0,1 0,1 -6,-15 -15,-96 -18,-99 -5,16 -10,95 -6,113 4,18 -15,21 0,60 5,14 0,22 -2,30 -2,7 1,9 2,16 3,15 0,69 8,81 15,3 32,1 48,3 8,2 119,19 120,19 10,0 21,0 33,-1 9,-1 17,-2 25,-4 13,-2 26,-6 38,-11 18,-6 57,-14 75,-20 13,-4 38,-8 40,-9 3,-15 0,-48 -5,-62 -3,3 -20,23 -35,36 -2,2 -2,2 -6,3 3,-9 23,-25 32,-37 8,-10 27,-53 17,-66 -5,3 -12,19 -15,25 -10,18 -18,33 -28,50 -4,6 -11,21 -17,23 -2,-4 1,-6 4,-11 14,-25 26,-43 40,-71 16,-32 21,-124 18,-161 -5,3 -14,84 -16,91 -6,13 -10,26 -15,40 -4,10 -14,27 -20,40 -2,6 -2,13 -5,19 -2,4 -3,6 -5,9 -3,5 -1,5 -8,6 2,-5 8,-15 10,-21 11,-20 36,-92 42,-110 5,-15 11,-83 15,-98 0,-3 1,-6 2,-10 -1,-3 -1,-6 -2,-7 -3,-12 -11,-60 -11,-72 -1,-5 -1,-11 -2,-17 0,-1 -1,-3 -1,-5 0,1 1,1 1,2 -3,-34 -7,-63 -7,-95 -4,-1 -7,-2 -11,-3 -10,-2 -90,-17 -92,-20 -24,29 -56,57 -75,65 -2,0 -4,-2 -6,-3 -31,-18 -48,-34 -60,-55 -1,0 -1,0 -1,0 -35,6 -59,14 -92,22 -3,1 -6,2 -9,2zm387 202c4,2 4,12 3,18 30,8 12,7 46,8 8,1 62,8 70,8 -21,-29 13,-61 1,-86 -15,-35 -29,-72 -35,-110 -4,-27 -17,-65 -45,-77 -13,-6 -42,-12 -73,-19 -4,48 -1,225 33,258zm-40 -259c-30,-7 -59,-13 -72,-20 -5,12 -15,26 -27,40 30,8 61,12 89,19 3,1 6,2 8,3 0,-10 0,-33 2,-42zm34 364l0 0 0 0 0 0zm-293 83c-26,-28 -4,-1 -19,-26 -72,-118 -4,-13 22,20 0,1 0,2 1,2 2,6 22,29 -4,4zm-108 47c1,2 -1,1 2,4 3,2 21,10 24,11 14,7 65,36 78,33 -1,-1 -1,-2 -1,-3l-26 -10c-19,-7 -71,-34 -77,-35zm134 -518c25,16 96,19 121,2 3,-4 6,-9 9,-14 -16,5 -33,8 -49,9 -35,3 -63,0 -92,-19 2,6 4,12 6,18 1,2 3,3 5,4zm54 78c-1,0 -3,0 -4,0 -36,-23 -56,-59 -68,-99 -15,13 -12,15 -4,40 14,40 37,65 72,87 3,1 3,1 7,0 0,-1 1,-1 2,-2 29,-16 89,-78 95,-106 -2,-4 -9,-11 -13,-14l-1 0c-18,36 -50,69 -82,91 -1,1 -3,2 -4,3zm56 -62c-30,9 -83,6 -109,-7 11,24 28,46 52,61 0,0 0,0 1,-1 18,-12 39,-32 56,-53z"/>
  </g>
 </g>
</svg>
