<?xml version="1.0" encoding="UTF-8"?>
<!DOCTYPE svg PUBLIC "-//W3C//DTD SVG 1.1//EN" "http://www.w3.org/Graphics/SVG/1.1/DTD/svg11.dtd">
<!-- Creator: CorelDRAW X6 -->
<svg xmlns="http://www.w3.org/2000/svg" xml:space="preserve" width="21.5874in" height="11.1866in" version="1.1" style="shape-rendering:geometricPrecision; text-rendering:geometricPrecision; image-rendering:optimizeQuality; fill-rule:evenodd; clip-rule:evenodd"
viewBox="0 0 9451 4898"
 xmlns:xlink="http://www.w3.org/1999/xlink">
 <defs>
  <style type="text/css">
   <![CDATA[
    .str0 {stroke:#FF6600;stroke-width:9.12189;stroke-linejoin:bevel}
    .fil3 {fill:black}
    .fil1 {fill:#84E312}
    .fil0 {fill:#8C8C8C}
    .fil2 {fill:white}
   ]]>
  </style>
 </defs>
 <g id="Layer_x0020_1">
  <metadata id="CorelCorpID_0Corel-Layer"/>
  <path class="fil0 str0" d="M807 4893l35 -218 -838 -2523 191 -60 193 -70 195 -79 198 -88 199 -97 201 -106 204 -116 205 -124 208 -134 36 -20 42 -25 46 -30 52 -35 58 -41 62 -46 68 -51 73 -56 78 -62 79 -60 80 -56 80 -54 81 -49 82 -46 82 -43 83 -40 83 -35 84 -33 71 -44 71 -43 72 -40 73 -38 72 -36 73 -34 74 -31 74 -29 74 -27 100 -36 103 -32 106 -27 111 -23 113 -19 118 -15 121 -10 124 -6 129 -1 128 1 125 6 121 10 117 15 114 19 110 23 107 27 103 32 99 36 75 27 74 29 73 31 73 34 73 36 72 38 72 40 71 43 71 44 84 33 84 35 83 40 82 43 81 46 81 49 81 54 80 56 79 60 78 62 73 56 67 51 63 46 57 41 52 35 47 30 41 25 37 20 207 134 206 124 203 116 202 106 199 97 197 88 195 79 193 70 191 60 -837 2523 34 218 -7837 0zm3919 -4888l0 65m-1679 431l36 86m-1285 695l49 89m5807 -89l-50 89m-1200 -870l-36 86"/>
  <path class="fil1" d="M6978 795l2 1 80 56 79 60 78 62 73 56 67 51 63 46 57 41 52 35 47 30 41 25 37 20 207 134 206 124 203 116 202 106 199 97 197 88 195 79 193 70 191 60 -837 2523 34 218 -1792 0 0 -513 938 -839 -927 -842 115 -1904zm676 487l-50 89"/>
  <polygon class="fil0" points="7703,1310 7861,1412 8067,1536 8270,1652 8472,1758 8671,1855 8868,1943 9063,2022 9256,2092 9447,2152 8610,4675 8644,4893 7395,4893 7391,4380 7927,4380 8530,3576 8114,3248 8411,2978 7628,2039 "/>
  <path class="fil1" d="M2473 795l-1 1 -80 56 -79 60 -78 62 -73 56 -68 51 -62 46 -58 41 -52 35 -46 30 -42 25 -36 20 -208 134 -205 124 -204 116 -201 106 -199 97 -198 88 -195 79 -193 70 -191 60 838 2523 -35 218 1793 0 0 -513 -939 -839 928 -842 -116 -1904zm-675 487l49 89"/>
  <polygon class="fil0" points="1748,1310 1590,1412 1385,1536 1181,1652 980,1758 781,1855 583,1943 388,2022 195,2092 4,2152 842,4675 807,4893 2057,4893 2060,4380 1525,4380 921,3576 1338,3248 1040,2978 1824,2039 "/>
  <g id="_687669904">
   <path class="fil1" d="M5403 2294c0,0 -1,0 -2,1 -2,3 -3,6 -6,9 3,-3 6,-7 8,-10zm-87 15c-56,1 -100,-22 -101,-97l-1 0c-319,417 -336,101 -212,-291 -138,101 -227,-22 -276,-165 -49,141 -138,266 -277,165 125,392 108,708 -212,290 -3,164 -208,82 -296,42 52,114 129,263 -42,293 72,37 217,114 305,205 10,1 21,2 31,2 24,1 48,0 71,-2 67,-5 135,-18 200,-34 81,-20 162,-45 241,-74 80,-29 160,-62 237,-100 65,-31 129,-66 189,-106 24,-17 48,-34 71,-52 18,-15 36,-31 51,-49 7,-7 15,-17 21,-27zm-1039 576c1,21 -3,42 -14,63 321,-51 604,-51 925,0 -81,-157 218,-327 364,-402 -97,-17 -114,-73 -100,-140 -14,10 -28,19 -41,29 -92,60 -189,114 -287,162 -117,56 -237,106 -358,151 -119,43 -241,81 -364,110 -41,10 -83,20 -125,27zm1212 -585c4,-9 8,-17 11,-25 -9,13 -18,25 -28,36 -16,18 -34,35 -52,50 4,-3 7,-6 11,-9 20,-16 40,-34 58,-52zm-1032 119l17 0c-2,1 -4,2 -6,3 -9,4 -17,9 -26,13l15 -16z"/>
   <path class="fil2" d="M4956 2142c386,-107 677,-110 694,5 20,141 -377,406 -888,591 -510,185 -940,221 -960,80 -9,-58 54,-137 167,-223 10,6 22,13 34,19 -78,66 -120,126 -113,172 18,128 407,95 869,-72 462,-168 821,-407 803,-535 -15,-102 -270,-101 -611,-9 2,-10 4,-19 5,-28zm-576 213c42,-19 86,-39 131,-58 0,9 -1,18 -2,27 -37,16 -73,32 -107,49 -2,-2 -4,-3 -5,-4 -6,-4 -12,-9 -17,-14zm565 -137c259,-65 450,-63 462,18 15,104 -278,298 -654,435 -376,136 -693,163 -708,59 -3,-21 6,-46 26,-73 14,9 27,19 40,28 -2,8 -2,15 -2,21 14,94 301,70 641,-53 340,-124 605,-300 592,-394 -10,-70 -174,-75 -399,-20 0,-7 1,-14 2,-21zm-493 180c14,-7 29,-14 43,-20 -3,6 -7,11 -13,15l0 0c0,0 0,0 0,0l0 0c-1,1 -1,1 -1,1l0 0 0 0c0,0 -1,0 -1,0l0 0 0 0 0 0 0 0 0 0 0 0 0 1 0 0 0 0 -1 0 0 0 0 0 0 0 0 0 0 0 0 0c-1,0 -1,0 -1,1 0,0 -1,0 -1,0l0 0c-1,0 -1,0 -1,1l0 0c-1,0 -1,0 -2,0l0 0c0,0 0,0 -1,0l0 0c0,1 -1,1 -1,1l0 0c-1,0 -1,0 -1,0l0 0c-1,0 -1,0 -2,0l0 0c0,0 0,0 -1,1l0 0c0,0 -1,0 -1,0l0 0c-1,0 -1,0 -2,0l0 0c0,0 0,0 -1,0l0 0c0,0 -1,0 -1,0l0 0c-1,0 -1,0 -1,0l-1 0c0,0 0,0 -1,0l0 0c0,0 -1,0 -1,0l0 0c-1,0 -1,0 -2,0l0 0c0,0 0,0 -1,0l0 -1c-1,0 -1,0 -1,0l0 0c-1,0 -1,0 -2,0l0 0c0,0 -1,0 -1,0l0 0zm497 -214c316,-84 552,-83 566,12 17,121 -322,347 -758,505 -436,158 -803,188 -820,68 -6,-39 26,-88 85,-143 11,7 22,14 33,21 -31,36 -47,68 -43,95 15,109 348,81 742,-62 394,-143 701,-347 686,-456 -13,-85 -217,-87 -494,-16 1,-8 2,-16 3,-24zm-534 197c30,-14 61,-28 92,-42 -1,9 -3,18 -6,26 -21,9 -42,19 -62,29l-1 0c0,-1 -1,-1 -2,-1l0 0 0 -1c-1,0 -1,0 -1,0l-1 0 0 0c0,0 0,0 -1,-1l0 0c0,0 -1,0 -1,0l0 0 -1 0c0,-1 0,-1 -1,-1l0 0c0,0 -1,0 -1,-1l0 0 0 0c-1,0 -1,0 -1,0l-1 0c0,-1 0,-1 -1,-1l0 0 0 0c0,0 -1,0 -1,-1l0 0 0 0 -1 0 0 0 -1 -1 0 0c0,0 0,0 -1,0l0 0 0 0c0,0 -1,-1 -1,-1 -2,-1 -4,-2 -6,-4z"/>
   <path class="fil3" d="M4492 2589l61 1 -37 269 196 1 83 -612 -196 -1 -28 210 -61 -1 28 -210 -196 -1 -82 612 196 1 36 -269zm495 -114l11 -95 25 0c12,0 20,4 24,11 4,7 5,20 2,37 -2,17 -5,29 -11,36 -5,7 -14,11 -25,11l-26 0zm-230 383l184 1 30 -256 25 0c12,0 21,4 24,12 4,7 5,19 2,36l-25 208 187 0 19 -156c6,-53 4,-92 -5,-118 -9,-25 -26,-42 -52,-50l-12 -4 12 -4c15,-4 27,-10 38,-17 10,-7 19,-16 27,-27 7,-11 13,-25 18,-40 5,-15 8,-33 11,-54 3,-25 3,-47 1,-66 -2,-18 -8,-33 -16,-44 -8,-11 -19,-19 -33,-25 -14,-5 -33,-8 -54,-8l-307 0 -74 612z"/>
   <path class="fil2" d="M4467 2564l60 0 -36 269 196 1 83 -611 -196 -2 -29 210 -60 0 28 -210 -196 -1 -83 611 196 2 37 -269zm495 -114l11 -96 25 0c12,0 20,4 24,12 3,7 4,19 2,37 -2,17 -6,28 -11,35 -6,8 -14,12 -26,12l-25 0zm-230 383l183 0 31 -256 25 0c12,0 20,4 24,12 4,8 4,20 2,37l-25 207 186 0 19 -156c6,-52 5,-91 -4,-117 -9,-26 -26,-42 -52,-50l-12 -4 12 -4c14,-4 27,-10 37,-17 11,-8 20,-17 27,-28 8,-11 14,-24 19,-39 4,-15 8,-33 11,-54 3,-25 3,-48 1,-66 -3,-18 -8,-33 -16,-44 -8,-11 -19,-20 -33,-25 -15,-5 -33,-8 -54,-8l-307 0 -74 612z"/>
   <path class="fil2" d="M4028 2998l41 0 -6 35 11 0 5 -35 41 0 -16 104 -41 0 7 -45 -10 0 -7 45 -41 0 16 -104zm1312 100c-4,-3 -5,-8 -4,-15l3 -18 41 0 -1 7c-1,5 1,7 4,7 2,0 3,0 4,-2 1,-1 2,-3 2,-6 1,-1 1,-3 1,-4 0,-1 0,-2 -1,-3 0,0 -1,-1 -1,-2 -1,0 -2,-1 -4,-1l-26 -12c-6,-3 -10,-5 -12,-8 -2,-4 -3,-8 -2,-13l2 -11c2,-13 12,-20 28,-20l42 0c17,0 25,7 23,20l-2 12 -41 0 0 -1c1,-5 -1,-7 -4,-7 -2,0 -3,0 -4,1 -1,1 -2,2 -2,4 0,1 0,1 0,2 0,1 0,1 1,2 0,0 1,1 2,1 0,1 2,1 3,2l31 14c2,1 3,2 5,3 1,1 2,3 3,5 0,1 1,3 1,6 0,2 -1,5 -1,8l-2 12c-1,8 -4,13 -9,17 -4,3 -11,5 -20,5l-42 0c-8,0 -14,-2 -18,-5l0 0zm-64 -76l-21 0 4 -24 82 0 -4 24 -21 0 -12 80 -40 0 12 -80zm-83 15l5 0c2,0 3,-1 4,-2 1,-1 2,-3 3,-6 0,-3 0,-5 -1,-6 0,-1 -2,-1 -4,-1l-5 0 -2 15zm6 30c0,-3 0,-5 0,-6 -1,-1 -3,-2 -5,-2l-4 0 -7 43 -41 0 16 -104 66 0c5,0 9,1 12,1 3,1 6,3 8,5 1,2 2,4 3,8 0,3 0,6 0,11 -1,3 -2,6 -3,9 -1,3 -2,5 -4,7 -1,2 -3,3 -6,4 -2,2 -5,3 -8,4 6,1 10,4 12,8 2,5 2,12 1,20l-4 27 -42 0 6 -35zm-113 5c0,3 0,4 1,6 0,1 2,1 3,1 2,0 4,0 5,-1 1,-2 1,-3 2,-6l6 -44c1,-5 0,-7 -4,-7 -1,0 -3,1 -4,2 -1,1 -2,3 -2,5l-7 44zm-32 30c-3,-1 -5,-3 -7,-5 -2,-2 -3,-4 -3,-7 -1,-4 0,-7 0,-12l9 -58c1,-8 4,-14 9,-17 4,-4 11,-6 19,-6l43 0c4,0 8,1 11,2 3,0 6,2 8,4 2,1 3,4 3,6 1,3 1,7 0,11l-9 58c-1,9 -4,16 -8,20 -3,1 -5,3 -9,4 -3,1 -8,1 -12,1l-43 0c-4,0 -8,0 -11,-1l0 0zm-61 -80l-5 29 6 0c2,0 3,-1 4,-2 1,-1 2,-3 3,-6l2 -14c0,-3 0,-5 -1,-6 0,-1 -2,-1 -4,-1l-5 0zm-37 -24l66 0c5,0 9,0 12,1 3,1 6,3 7,4 2,2 3,4 4,7 0,3 0,7 0,11l-5 28c-1,10 -4,16 -9,20 -4,4 -11,5 -20,5l-26 0 -4 28 -41 0 16 -104zm-111 100c-3,-3 -5,-8 -4,-15l3 -18 42 0 -2 7c0,5 1,7 4,7 2,0 4,0 5,-2 1,-1 1,-3 2,-6 0,-1 0,-3 0,-4 0,-1 0,-2 0,-3 -1,0 -1,-1 -2,-2 -1,0 -2,-1 -4,-1l-26 -12c-6,-3 -10,-5 -12,-8 -2,-4 -2,-8 -1,-13l1 -11c2,-13 12,-20 29,-20l42 0c17,0 24,7 22,20l-2 12 -41 0 0 -1c1,-5 -1,-7 -4,-7 -2,0 -3,0 -4,1 -1,1 -2,2 -2,4 0,1 0,1 0,2 0,1 0,1 1,2 0,0 1,1 2,1 1,1 2,1 3,2l31 14c2,1 4,2 5,3 1,1 2,3 3,5 1,1 1,3 1,6 0,2 0,5 -1,8l-2 12c-1,8 -4,13 -8,17 -5,3 -12,5 -20,5l-42 0c-9,0 -15,-2 -19,-5l0 0zm-139 -100l40 0 10 43 7 -43 37 0 -16 104 -39 0 -10 -49 -8 49 -37 0 16 -104zm-21 80c-2,9 -5,16 -9,20 -2,1 -5,3 -8,4 -4,1 -8,1 -13,1l-41 0c-5,0 -9,0 -12,-1 -3,-1 -5,-3 -7,-5 -3,-3 -4,-10 -2,-19l12 -80 41 0 -12 74c0,3 0,4 1,6 0,1 2,1 3,1 2,0 4,0 5,-1 1,-2 1,-3 2,-6l11 -74 41 0 -12 80zm-147 -41l5 0c2,0 3,-1 4,-2 1,-1 2,-3 3,-6 0,-3 0,-5 -1,-6 0,-1 -2,-1 -4,-1l-5 0 -2 15zm6 30c0,-3 0,-5 0,-6 -1,-1 -3,-2 -5,-2l-4 0 -7 43 -41 0 16 -104 66 0c5,0 9,1 12,1 3,1 6,3 8,5 1,2 3,4 3,8 1,3 0,6 0,11 -1,3 -1,6 -2,9 -1,3 -3,5 -5,7 -1,2 -3,3 -5,4 -3,2 -6,3 -9,4 6,1 10,4 12,8 2,5 2,12 1,20l-4 27 -41 0 5 -35zm-178 -69l80 0 -3 24 -40 0 -2 11 36 0 -3 24 -36 0 -4 22 40 0 -3 23 -81 0 16 -104zm-106 47l-9 57 -36 0 16 -104 51 0 5 43 18 -43 51 0 -16 104 -36 0 9 -57 -24 57 -23 0 -6 -57zm-101 27c0,3 0,4 0,6 1,1 2,1 4,1 2,0 3,0 4,-1 1,-2 2,-3 2,-6l7 -44c1,-5 -1,-7 -4,-7 -2,0 -3,1 -4,2 -1,1 -2,3 -2,5l-7 44zm-33 30c-3,-1 -5,-3 -7,-5 -1,-2 -2,-4 -3,-7 0,-4 0,-7 1,-12l9 -58c1,-8 4,-14 8,-17 5,-4 11,-6 20,-6l42 0c5,0 9,1 12,2 3,0 5,2 7,4 2,1 3,4 4,6 0,3 0,7 0,11l-9 58c-2,9 -5,16 -9,20 -2,1 -5,3 -8,4 -4,1 -8,1 -13,1l-42 0c-5,0 -9,0 -12,-1l0 0z"/>
  </g>
 </g>
</svg>
