<?xml version="1.0" encoding="UTF-8"?>
<!DOCTYPE svg PUBLIC "-//W3C//DTD SVG 1.1//EN" "http://www.w3.org/Graphics/SVG/1.1/DTD/svg11.dtd">
<!-- Creator: CorelDRAW X6 -->
<svg xmlns="http://www.w3.org/2000/svg" xml:space="preserve" width="21.5874in" height="11.1866in" version="1.1" style="shape-rendering:geometricPrecision; text-rendering:geometricPrecision; image-rendering:optimizeQuality; fill-rule:evenodd; clip-rule:evenodd"
viewBox="0 0 74269 38486"
 xmlns:xlink="http://www.w3.org/1999/xlink">
 <defs>
  <style type="text/css">
   <![CDATA[
    .str0 {stroke:#FF6600;stroke-width:71.6791;stroke-linejoin:bevel}
    .fil1 {fill:#84E312}
    .fil0 {fill:#8C8C8C}
   ]]>
  </style>
 </defs>
 <g id="Layer_x0020_1">
  <metadata id="CorelCorpID_0Corel-Layer"/>
  <path class="fil0 str0" d="M6341 38450l273 -1715 -6580 -19822 1500 -475 1517 -548 1533 -619 1549 -691 1566 -764 1582 -836 1599 -908 1615 -979 1632 -1053 285 -154 327 -195 367 -237 409 -278 449 -319 491 -360 531 -401 573 -443 614 -484 622 -472 627 -445 632 -418 636 -390 642 -364 645 -336 651 -308 656 -282 660 -254 558 -351 561 -334 564 -316 568 -299 571 -281 574 -265 578 -247 581 -230 584 -212 782 -283 809 -249 838 -215 867 -182 895 -147 922 -114 952 -80 979 -46 1007 -13 1008 13 980 46 950 80 924 114 894 147 866 182 838 215 810 249 782 283 584 212 581 230 578 247 574 265 571 281 568 299 564 316 561 334 557 351 661 254 655 282 651 308 646 336 642 364 636 390 632 418 627 445 622 472 614 484 572 443 532 401 491 360 449 319 408 278 368 237 326 195 286 154 1631 1053 1616 979 1599 908 1582 836 1566 764 1549 691 1533 619 1517 548 1500 475 -6581 19822 273 1715 -61586 0zm30793 -38414l0 516m-13190 3382l285 678m-10102 5463l389 700m45626 -700l-389 700m-9429 -6841l-284 678"/>
  <path class="fil1" d="M54836 6245l11 7 627 445 622 472 614 484 572 443 532 401 491 360 449 319 408 278 368 237 326 195 286 154 1631 1053 1616 979 1599 908 1582 836 1566 764 1549 691 1533 619 1517 548 1500 475 -6581 19822 273 1715 -14086 0 0 -4035 7372 -6587 -7286 -6620 909 -14963zm5306 3830l-389 700"/>
  <polygon class="fil0" points="60529,10290 61773,11093 63389,12072 64988,12980 66570,13816 68136,14580 69685,15271 71218,15890 72735,16438 74235,16913 67654,36735 67927,38450 58106,38450 58081,34415 62287,34415 67028,28103 63756,25522 66094,23400 59939,16026 "/>
  <path class="fil1" d="M19433 6245l-11 7 -627 445 -622 472 -614 484 -573 443 -531 401 -491 360 -449 319 -409 278 -367 237 -327 195 -285 154 -1632 1053 -1615 979 -1599 908 -1582 836 -1566 764 -1549 691 -1533 619 -1517 548 -1500 475 6580 19822 -273 1715 14086 0 0 -4035 -7371 -6587 7286 -6620 -909 -14963zm-5306 3830l389 700"/>
  <polygon class="fil0" points="13740,10290 12495,11093 10880,12072 9281,12980 7699,13816 6133,14580 4584,15271 3051,15890 1534,16438 34,16913 6614,36735 6341,38450 16163,38450 16187,34415 11982,34415 7241,28103 10513,25522 8175,23400 14330,16026 "/>
 </g>
</svg>
