<svg xmlns="http://www.w3.org/2000/svg" xml:space="preserve" width="70px" height="30px" version="1.1" style="shape-rendering:geometricPrecision; text-rendering:geometricPrecision; image-rendering:optimizeQuality; fill-rule:evenodd; clip-rule:evenodd"
viewBox="0 0 200 85"
 xmlns:xlink="http://www.w3.org/1999/xlink">
 <defs>
  <style type="text/css">
   <![CDATA[
    .fil0 {fill:#999999}
    svg:hover .fil1 {fill:white}
    .fil1 {fill:black;fill-rule:nonzero}
   ]]>
  </style>
 </defs>
 <g id="Layer_x0020_1">
  <metadata id="CorelCorpID_0Corel-Layer"/>
  <rect class="fil0" width="199.562" height="85.3597"/>
  <path class="fil1" d="M45 36c0,-3 2,-4 4,-4 3,0 4,1 4,4l0 1 7 0 0 0c0,-8 -5,-11 -11,-11 -6,0 -10,3 -10,11l0 11c0,8 4,11 10,11 6,0 11,-3 11,-11l0 -1 -7 0 0 2c0,4 -1,5 -4,5 -2,0 -4,-1 -4,-5l0 -13z"/>
  <path id="1" class="fil1" d="M70 42c0,-2 1,-3 3,-3 1,0 3,0 3,3l0 1c-7,2 -13,5 -13,10 0,4 2,6 6,6 3,0 5,-1 7,-3 0,1 0,2 0,3l6 0c-1,-1 -1,-1 -1,-2l0 -16c0,-4 -2,-7 -8,-7 -2,0 -4,1 -6,2 -2,1 -3,3 -3,6l6 0zm6 11c-2,1 -3,2 -5,2 -1,0 -2,-1 -2,-2 0,-3 3,-5 7,-6l0 6z"/>
  <path id="2" class="fil1" d="M93 59l0 -19c1,-1 2,-2 3,-2 2,0 2,1 2,3l0 18 6 0 0 -19c0,-4 -2,-6 -5,-6 -3,0 -5,1 -7,3l0 -3 -5 0 0 25 6 0z"/>
  <path id="3" class="fil1" d="M127 43c0,-6 -4,-9 -9,-9 -6,0 -9,3 -9,9l0 7c0,7 3,9 9,9 5,0 9,-2 9,-9l0 0 -6 0 0 2c0,1 -1,2 -3,2 -2,0 -4,-1 -4,-2l0 -10c0,-2 2,-3 4,-3 2,0 3,1 3,3l0 1 6 0z"/>
  <path id="4" class="fil1" d="M149 48l0 -6c0,-5 -4,-8 -9,-8 -5,0 -9,3 -9,9l0 8c0,5 4,8 9,8 6,0 9,-3 9,-8l-5 0c0,2 -1,4 -4,4 -2,0 -3,-1 -3,-4l0 -3 12 0zm-12 -5l0 -1c0,-2 1,-3 3,-3 2,0 4,1 4,3l0 1 -7 0z"/>
  <polygon id="5" class="fil1" points="155,59 160,59 160,27 155,27 "/>
 </g>
</svg>
