<svg xmlns="http://www.w3.org/2000/svg" xml:space="preserve" width="100px" height="30px" version="1.1" style="shape-rendering:geometricPrecision; text-rendering:geometricPrecision; image-rendering:optimizeQuality; fill-rule:evenodd; clip-rule:evenodd"
viewBox="0 0 819 246"
 xmlns:xlink="http://www.w3.org/1999/xlink">
 <defs>
  <style type="text/css">
   <![CDATA[
   svg:hover .fil1 {fill:white}
    .fil0 {fill:#999999}
    .fil1 {fill:black;fill-rule:nonzero}
   ]]>
  </style>
 </defs>
 <g id="Layer_x0020_1">
  <metadata id="CorelCorpID_0Corel-Layer"/>
  <rect class="fil0" width="819" height="246"/>
  <path class="fil1" d="M201 105c0,-10 4,-13 12,-13 7,0 11,3 11,13l0 3 18 0 0 0c0,-23 -12,-32 -29,-32 -18,0 -30,9 -30,32l0 33c0,23 12,31 30,31 17,0 29,-8 29,-31l0 -4 -18 0 0 6c0,10 -4,13 -11,13 -8,0 -12,-3 -12,-13l0 -38zm54 40c0,19 9,27 26,27 16,0 25,-8 25,-27l0 -19c0,-19 -9,-27 -25,-27 -17,0 -26,8 -26,27l0 19zm16 -23c0,-6 4,-9 10,-9 5,0 9,3 9,9l0 28c0,5 -4,8 -9,8 -6,0 -10,-3 -10,-8l0 -28zm66 49l0 -53c3,-3 7,-7 11,-7 4,0 5,4 5,8l0 52 17 0 0 -54c0,-13 -5,-18 -15,-18 -7,0 -13,4 -19,10l0 -8 -15 0 0 70 16 0zm48 -54l0 41c0,10 7,14 17,14 3,0 6,0 10,-1l0 -13c-2,0 -3,0 -4,0 -4,0 -7,-2 -7,-5l0 -36 10 0 0 -13 -10 0 0 -19 -16 0 0 19 -7 0 0 13 7 0zm38 -16l0 70 16 0 0 -70 -16 0zm16 -13l0 -14 -16 0 0 14 16 0zm34 83l0 -53c4,-3 7,-7 11,-7 4,0 6,4 6,8l0 52 16 0 0 -54c0,-13 -5,-18 -15,-18 -7,0 -12,4 -18,10l0 -8 -16 0 0 70 16 0zm81 -70l0 53c-3,3 -7,6 -10,6 -5,0 -6,-3 -6,-8l0 -51 -17 0 0 53c0,13 6,18 16,18 6,0 12,-4 18,-9l0 8 15 0 0 -70 -16 0zm82 39l0 -17c0,-14 -10,-24 -26,-24 -15,0 -25,10 -25,25l0 23c0,16 10,25 25,25 17,0 26,-8 26,-23l-16 0c0,6 -3,10 -10,10 -5,0 -9,-3 -9,-10l0 -9 35 0zm-35 -14l0 -3c0,-7 3,-11 9,-11 7,0 10,4 10,11l0 3 -19 0z"/>
 </g>
</svg>
