<svg xmlns="http://www.w3.org/2000/svg" xml:space="preserve" width="100px" height="30px" version="1.1" style="shape-rendering:geometricPrecision; text-rendering:geometricPrecision; image-rendering:optimizeQuality; fill-rule:evenodd; clip-rule:evenodd"
viewBox="0 0 1041 312"
 xmlns:xlink="http://www.w3.org/1999/xlink">
 <defs>
  <style type="text/css">
   <![CDATA[
    .fil0 {fill:#999999}
    .svg:hover .fil1{fill:black}
    .fil1 {fill:black;fill-rule:nonzero}
   ]]>
  </style>
 </defs>
 <g id="Layer_x0020_1">
  <metadata id="CorelCorpID_0Corel-Layer"/>
  <rect class="fil0" width="1041" height="312"/>
  <path class="fil1" d="M193 126c-3,-17 -16,-29 -36,-29 -23,0 -36,13 -36,33 0,33 51,34 51,56 0,9 -6,14 -14,14 -7,0 -15,-5 -18,-19l-22 4c6,24 21,34 39,34 24,0 38,-14 38,-34 0,-37 -51,-38 -51,-56 0,-8 5,-13 13,-13 7,0 12,4 16,16l20 -6z"/>
  <path id="1" class="fil1" d="M213 149l0 52c0,13 9,18 23,18 4,0 7,0 11,-1l0 -18c-1,1 -2,1 -4,1 -5,0 -9,-2 -9,-7l0 -45 13 0 0 -17 -13 0 0 -24 -21 0 0 24 -8 0 0 17 8 0z"/>
  <path id="2" class="fil1" d="M278 154c0,-6 6,-11 12,-11 6,0 10,3 10,11l0 6c-25,8 -45,17 -45,37 0,15 8,22 20,22 11,0 19,-5 25,-11 1,4 1,7 2,9l20 0c0,-2 -1,-5 -1,-7l0 -57c0,-16 -8,-27 -30,-27 -8,0 -17,2 -22,7 -6,4 -11,11 -11,21l20 0zm22 41c-5,5 -9,8 -15,8 -6,0 -9,-3 -9,-9 0,-9 12,-16 24,-21l0 22z"/>
  <path id="3" class="fil1" d="M362 217l0 -61c0,-5 4,-10 10,-10 4,0 8,2 11,3l0 -23c-10,0 -16,5 -21,14l0 0 0 -12 -20 0 0 89 20 0z"/>
  <path id="4" class="fil1" d="M396 149l0 52c0,13 8,18 22,18 4,0 8,0 12,-1l0 -18c-2,1 -3,1 -4,1 -6,0 -10,-2 -10,-7l0 -45 13 0 0 -17 -13 0 0 -24 -20 0 0 24 -9 0 0 17 9 0z"/>
  <path id="5" class="fil1" d="M488 217l31 0c26,0 41,-11 41,-41l0 -36c0,-30 -15,-41 -41,-41l-31 0 0 118zm22 -98l8 0c14,0 20,7 20,23l0 31c0,18 -7,24 -20,24l-8 0 0 -78z"/>
  <path id="6" class="fil1" d="M642 177l0 -20c0,-19 -13,-31 -32,-31 -20,0 -33,12 -33,32l0 29c0,20 13,32 33,32 21,0 32,-11 32,-29l-20 0c0,6 -4,12 -12,12 -7,0 -12,-4 -12,-13l0 -12 44 0zm-44 -16l0 -5c0,-8 3,-13 12,-13 8,0 12,5 12,13l0 5 -24 0z"/>
  <path id="7" class="fil1" d="M717 149c-5,-14 -16,-23 -31,-23 -15,0 -28,8 -28,25 0,30 40,26 40,43 0,5 -4,8 -10,8 -8,0 -13,-5 -15,-14l-19 5c10,23 21,26 34,26 17,0 30,-10 30,-27 0,-27 -41,-27 -41,-41 0,-5 4,-8 9,-8 6,0 11,4 14,12l17 -6z"/>
  <path id="8" class="fil1" d="M736 128l0 89 21 0 0 -89 -21 0zm21 -16l0 -18 -21 0 0 18 21 0z"/>
  <path id="9" class="fil1" d="M817 160c0,16 -3,19 -12,19 -6,0 -10,-6 -10,-17 0,-14 3,-19 11,-19 7,0 11,6 11,17zm30 -34c-7,0 -12,4 -18,11 -5,-7 -14,-11 -23,-11 -23,0 -30,15 -30,34 0,15 3,24 13,31 -5,3 -12,8 -12,15 0,5 3,9 8,12 -5,3 -12,8 -12,14 0,10 12,17 34,17 24,0 40,-8 40,-23 0,-32 -52,-15 -52,-26 0,-2 2,-4 3,-5 3,1 6,1 9,1 20,0 30,-13 30,-35 0,-6 -2,-10 -3,-16 3,-1 5,-2 7,-2 2,0 5,1 6,1l0 -18zm-28 97c7,0 8,2 8,5 0,4 -6,7 -16,7 -12,0 -19,-2 -19,-7 0,-3 3,-5 5,-7l22 2z"/>
  <path id="10" class="fil1" d="M882 217l0 -67c4,-4 9,-8 13,-8 6,0 8,4 8,9l0 66 20 0 0 -68c0,-16 -6,-23 -19,-23 -8,0 -16,5 -23,12l0 -10 -20 0 0 89 21 0z"/>
 </g>
</svg>
