<svg xmlns="http://www.w3.org/2000/svg" xml:space="preserve" width="100px" height="30px" version="1.1" style="shape-rendering:geometricPrecision; text-rendering:geometricPrecision; image-rendering:optimizeQuality; fill-rule:evenodd; clip-rule:evenodd"
viewBox="0 0 1041 312"
 xmlns:xlink="http://www.w3.org/1999/xlink">
 <defs>
  <style type="text/css">
   <![CDATA[
    .fil0 {fill:#999999}
    svg:hover .fil1 {fill:white}
    .fil1 {fill:black;fill-rule:nonzero}
   ]]>
  </style>
 </defs>
 <g id="Layer_x0020_1">
  <metadata id="CorelCorpID_0Corel-Layer"/>
  <rect class="fil0" width="1041" height="312"/>
  <path class="fil1" d="M367 126c-4,-17 -16,-29 -36,-29 -23,0 -36,13 -36,33 0,33 51,34 51,56 0,9 -6,14 -14,14 -7,0 -15,-5 -18,-19l-22 4c6,24 20,34 39,34 24,0 38,-14 38,-34 0,-37 -51,-38 -51,-56 0,-8 4,-13 12,-13 8,0 13,4 17,16l20 -6z"/>
  <path id="1" class="fil1" d="M430 128l0 67c-5,4 -10,8 -14,8 -5,0 -7,-4 -7,-10l0 -65 -21 0 0 68c0,16 6,23 19,23 9,0 16,-6 23,-12l0 10 20 0 0 -89 -20 0z"/>
  <path id="2" class="fil1" d="M491 148c4,-4 7,-6 12,-6 6,0 10,3 10,21l0 19c0,18 -4,21 -10,21 -5,0 -8,-2 -12,-6l0 -49zm-2 69l0 -11 0 0c4,6 13,13 22,13 16,0 23,-13 23,-36l0 -21c0,-23 -7,-36 -23,-36 -5,0 -11,3 -20,10l0 -37 -21 0 0 118 19 0z"/>
  <path id="3" class="fil1" d="M552 217l21 0 0 -67c2,-4 8,-8 12,-8 4,0 6,1 6,7l0 68 21 0 0 -67c2,-4 9,-8 13,-8 3,0 5,1 5,7l0 68 21 0 0 -67c0,-16 -7,-24 -19,-24 -9,0 -16,7 -22,14 -3,-9 -8,-14 -16,-14 -9,0 -15,6 -22,12l0 -10 -20 0 0 89z"/>
  <path id="4" class="fil1" d="M673 128l0 89 21 0 0 -89 -21 0zm21 -16l0 -18 -21 0 0 18 21 0z"/>
  <path id="5" class="fil1" d="M715 149l0 52c0,13 9,18 23,18 3,0 7,0 11,-1l0 -18c-1,1 -2,1 -4,1 -5,0 -9,-2 -9,-7l0 -45 13 0 0 -17 -13 0 0 -24 -21 0 0 24 -8 0 0 17 8 0z"/>
 </g>
</svg>
