<svg xmlns="http://www.w3.org/2000/svg" xml:space="preserve" width="8.16843in" height="10.5311in" version="1.1" style="shape-rendering:geometricPrecision; text-rendering:geometricPrecision; image-rendering:optimizeQuality; fill-rule:evenodd; clip-rule:evenodd"
viewBox="0 0 1100 1419"
 xmlns:xlink="http://www.w3.org/1999/xlink">
 <defs>
  <style type="text/css">
   <![CDATA[
    .filhodzp2 {fill:black}
    .fil0 {fill:white}
    .filhodzp1 {fill:white}
   ]]>
  </style>
 </defs>
 <g id="Layer_x0020_1">
  <metadata id="CorelCorpID_0Corel-Layer"/>
  <g id="_946215792">
   <path class="fil0" d="M1014 429c4,28 18,73 24,112 12,23 20,59 31,85 25,55 -14,114 15,155 36,51 1,99 0,159 0,17 9,61 -7,66 -24,9 53,204 -16,206 -8,0 -7,0 -11,1 -3,22 -11,83 -15,88 -9,8 -26,-6 -33,-8 -25,-9 -68,-4 -78,-18 -11,-15 6,-26 5,-48 -3,-35 -2,-27 11,-40 -16,-15 -54,-18 -31,-55 1,-1 4,-5 4,-7 -3,-17 -6,-104 -10,-124 -11,-62 -14,-60 -4,-124 3,-21 -8,-56 -7,-84 0,-8 2,-31 1,-43 -6,-3 -10,-9 -14,-16 0,13 2,26 6,37 2,5 4,10 6,14l0 137c0,44 -10,67 -10,90 0,8 21,31 2,88 -2,8 -12,31 -12,36 0,17 3,15 5,27 2,9 2,15 4,24 4,30 3,50 0,79 -3,30 -18,17 -57,27 -16,4 -31,8 -45,13 0,11 0,22 -1,30 5,-2 9,-5 12,-8 -1,3 -1,6 -2,9 -1,3 -2,5 -4,8 -3,6 -6,12 -8,19 -3,-7 -7,-14 -12,-21 0,-9 0,-20 0,-31 -64,24 -119,52 -204,52l-66 0c-6,0 -12,0 -18,-1 0,1 -1,1 -1,0 -26,-1 -51,-6 -93,-17 -53,-14 -58,-14 -114,-14 -10,0 -25,2 -33,-1 -10,-2 -12,-8 -14,-18 -10,-34 -11,-79 -11,-117 0,-20 -6,-53 -6,-58 0,-32 8,-26 8,-44 0,-12 -7,-23 -11,-33 -5,-13 -6,-30 -6,-42 0,0 2,-14 2,-14 3,-12 9,-21 9,-37 0,-3 -2,-58 -3,-76 0,-1 1,-11 1,-11 5,-51 21,-87 21,-144 0,-3 0,-6 -1,-9 -4,10 -9,18 -16,22 -1,12 0,35 1,43 0,28 -10,63 -7,84 1,7 0,21 0,27 -1,29 -2,82 -5,97 -3,16 -1,5 -2,18 -3,27 -6,92 -8,103 1,2 3,5 4,7 24,36 -15,39 -30,55 12,12 13,5 11,40 -2,21 15,32 5,47 -10,15 -53,9 -78,18 -7,3 -25,17 -33,8 -4,-4 -12,-65 -16,-88 -3,0 -2,0 -11,0 -51,-2 -22,-133 -16,-160 15,-70 -50,-202 -7,-268 30,-44 -9,-99 15,-155 12,-26 20,-63 31,-85 12,-54 35,-107 43,-163 0,-3 1,-5 3,-7 1,-5 2,-9 4,-14 31,-93 56,-91 140,-113 30,-8 51,-7 81,-18 1,0 9,-2 10,-3 -7,-3 -17,-11 -22,-11 -33,-17 -9,-49 -8,-63 -15,-8 -23,-19 -25,-31 0,-1 0,-2 0,-2 -3,-30 25,-66 51,-82 36,-22 115,-5 157,-5 68,0 57,-1 113,-18 49,-15 126,-19 165,19 35,19 11,87 13,114 5,4 7,8 8,13 16,25 13,44 0,59l1 1c-3,2 -6,5 -9,7 47,21 142,42 175,74 28,27 29,41 41,81 5,16 9,33 12,50z"/>
   <g>
    <path class="fil0" d="M763 1290c1,-29 1,-60 1,-85 -3,4 -6,7 -9,8 -4,-7 1,-11 6,-20 1,-2 2,-4 3,-5 0,-2 0,-4 0,-5 -94,-46 -123,-91 -105,-204 -41,-11 -109,-14 -175,-14 -1,35 -1,62 -1,69 0,10 -1,23 -2,35 0,9 -1,19 -1,26l0 2c110,109 156,174 0,15 1,9 3,18 3,18 0,0 -1,4 -1,11l0 1c0,0 0,3 -1,8 0,10 0,20 2,26 2,13 2,116 4,127 1,6 1,10 0,13l0 0c1,5 1,9 -1,14l1 7c0,0 1,0 -2,3l0 0 1 6c8,0 17,1 26,1 17,0 37,0 60,-2 16,-1 32,-3 47,-6 24,-5 46,-13 68,-21 26,-9 51,-19 76,-28z"/>
    <path class="fil0" d="M267 1158c0,6 0,13 0,19 39,16 99,43 123,52l46 18c7,4 3,0 4,5 -19,10 -131,-46 -158,-59 -2,-1 -8,-3 -14,-6 1,39 4,83 5,123 19,0 38,0 57,3 54,9 83,22 125,29 0,-2 1,-5 2,-6l4 -2c-2,-4 -5,-1 -5,-1 0,0 0,-2 0,-4 0,-2 1,-5 3,-6l5 -4c0,0 0,0 0,0 0,0 0,0 1,0l-1 -9 0 0c0,-1 0,-3 0,-4l0 0 0 -9 0 0c0,-1 0,-3 0,-4l0 1 0 -9c0,-1 0,-3 0,-4l0 -9c0,-1 0,-2 0,-3l0 -11c0,0 0,-1 0,-1 -1,-48 -1,-111 -1,-162 -2,-2 -4,-4 -7,-6 -4,-4 -5,-7 -9,-11l-29 -31c-18,-22 -45,-55 -62,-81 -9,0 -16,0 -23,0 1,18 2,42 1,66 24,55 126,238 -1,28 -4,54 -20,103 -66,98zm197 -193c-34,0 -66,0 -94,1 27,39 59,79 93,114 0,-27 0,-49 0,-61 0,-15 0,-34 1,-54z"/>
   </g>
   <g>
    <path class="fil0" d="M481 278c-38,-23 -32,-59 -52,-97 -1,-3 -2,-5 -3,-7 -2,-1 -3,-3 -4,-5 -22,-27 -56,-11 -87,-13 -1,4 -2,10 -5,17 -10,26 11,12 43,35 0,0 47,36 50,40 28,34 37,28 58,30z"/>
    <path class="fil0" d="M627 159c4,-3 7,-5 10,-8 12,-9 35,-21 57,-35 -10,-30 -77,-21 -142,-30 53,-7 116,-2 168,13 23,-17 39,-36 31,-55 -6,-5 -13,-12 -47,-17 -79,-12 -93,19 -153,24 -63,5 -108,-4 -166,-3 -33,0 -53,14 -68,45 -4,8 -6,13 -6,18 0,0 0,0 0,1 3,6 6,10 9,13 3,2 7,4 9,6 26,11 68,-5 98,23 8,-17 17,-30 40,-36 -43,34 -32,70 -14,63 58,-24 138,-42 174,-22z"/>
    <path class="filhodzp1" d="M543 292c11,-44 46,-93 77,-125 -39,-9 -95,-7 -163,25 -1,1 -3,2 -4,2 36,120 56,72 80,107 2,-1 4,-3 6,-5l0 -1 1 1c1,-2 2,-3 3,-4z"/>
    <path class="fil0" d="M767 86c-10,12 -24,23 -40,33 -1,2 -3,3 -5,3 -31,20 -68,36 -87,54 -36,33 -55,68 -72,107 33,-21 79,-35 109,-40 22,-5 130,-26 103,-69 -4,-8 -3,-3 -6,-12 -5,-5 -7,-13 -8,-22 -12,12 -28,20 -48,27 23,-19 40,-31 50,-57 1,-8 3,-17 4,-24z"/>
   </g>
   <path class="filhodzp2" d="M572 1357l-93 -7 -60 -11 -97 -19 -76 3 -25 -4c14,72 -23,46 88,67 15,2 61,14 102,21 40,7 64,1 115,10 52,8 100,-12 130,-21 93,-29 160,-39 221,-89l-6 -37c-107,26 -188,66 -299,87z"/>
   <path class="filhodzp2" d="M944 1194c0,0 -1,9 -1,19 -1,2 1,8 6,11 7,5 19,6 19,6 2,2 -1,5 -2,7 -5,12 -14,-3 -27,13l-12 12c0,0 -1,8 2,8 4,1 27,4 32,5 5,0 33,4 33,4l26 8c0,0 14,-24 15,-28 1,-4 0,-47 -7,-47 0,0 -10,-4 -17,-7 -8,-3 -38,-16 -49,-15 -11,1 -18,4 -18,4z"/>
   <path class="filhodzp2" d="M1076 984c-4,15 -18,47 -30,57 -11,11 -3,37 0,48 -6,-13 -21,-44 -10,-60 6,-9 23,-11 40,-45zm-200 -272c19,23 25,13 39,31l9 13 13 17c25,28 -5,-9 13,17 8,12 42,25 58,46l6 6c-19,-19 -24,-19 -49,-31 -36,-17 -29,-7 -49,-51 -19,-41 -19,-16 -40,-48zm-808 488c7,-3 -12,6 28,-7 48,-15 7,-7 41,-12l1 -1c-40,1 -44,2 -71,18l1 2zm961 13c-31,-19 -35,-22 -67,-23l-1 2c14,1 -11,-2 31,11 48,15 10,-1 37,11l0 -1zm-983 -497c8,52 24,84 41,132 8,24 7,40 7,65 -1,67 -8,43 14,105 -28,-64 -16,-35 -23,-104 -3,-21 -7,-32 -10,-49l-1 -14c-6,-47 -23,-79 -28,-135zm-20 485c2,-23 16,-56 39,-64 14,-5 50,-5 64,-6 -24,5 -37,6 -58,19 -25,15 -37,18 -45,51zm892 -62c9,-4 44,-28 56,-27 5,1 46,19 50,21 -50,-10 -57,-8 -106,6z"/>
   <path class="filhodzp1" d="M157 1241l-4 -37c0,2 -2,8 -7,11 -7,4 -18,5 -19,6 -2,2 1,5 2,7 5,11 14,-4 28,13zm782 9l4 -37c-1,2 1,8 6,11 7,5 19,6 19,6 2,2 -1,5 -2,7 -5,12 -14,-3 -27,13z"/>
   <path class="filhodzp2" d="M152 1185c0,0 0,9 1,19 0,2 -2,8 -7,11 -7,4 -18,5 -19,6 -2,2 1,5 2,7 5,11 14,-4 28,13l11 12c0,0 1,8 -2,8 -4,1 -26,4 -32,4 -5,1 -33,5 -33,5l-25 8c0,0 -15,-25 -16,-28 0,-4 0,-47 7,-47 0,0 10,-4 18,-7 7,-3 37,-16 48,-15 12,1 19,4 19,4z"/>
   <path class="filhodzp2" d="M687 1318l-30 9 -38 12m-107 8c3,-2 6,-4 9,-5 10,-4 50,-12 80,-16 21,-3 50,-12 74,-20m-200 6l3 1c-1,-2 -1,-5 0,-8m-7 7l1 0m-7 5c-23,0 -45,-1 -54,-3 -18,-2 -30,-5 -42,-7 -3,0 -6,-1 -10,-1 32,12 52,19 65,20 11,1 24,2 32,3m198 -34c-10,1 -20,2 -29,4 -46,12 -92,19 -111,19 -6,0 -15,0 -27,0m170 -23l-1 0m13 -1c-5,0 -9,0 -14,1m301 -679c-1,-68 -3,-134 7,-194 -3,3 -5,5 -8,8l0 7c0,1 0,3 -1,4 0,0 0,1 0,1 0,1 0,2 -1,3 0,1 0,1 0,2 4,69 4,113 0,170 1,0 2,0 3,-1zm-189 -530c-10,12 -24,23 -40,33 -1,2 -3,3 -5,3 -31,20 -68,36 -87,54 -36,33 -55,68 -72,107 33,-21 79,-35 109,-40 22,-5 130,-26 103,-69 -4,-8 -3,-3 -6,-12 -5,-5 -7,-13 -8,-22 -12,12 -28,20 -48,27 23,-19 40,-31 50,-57 1,-8 3,-17 4,-24zm-500 1072c0,6 0,13 0,19 39,16 99,43 123,52l46 18c7,4 3,0 4,5 -19,10 -131,-46 -158,-59 -2,-1 -8,-3 -14,-6 1,39 4,83 5,123 19,0 38,0 57,3 54,9 83,22 125,29 0,-2 1,-5 2,-6l4 -2c-2,-4 -5,-1 -5,-1 0,0 0,-2 0,-4 0,-2 1,-5 3,-6l5 -4c0,0 0,0 0,0 0,0 0,0 1,0l-1 -9 0 0c0,-1 0,-3 0,-4l0 0 0 -9 0 0c0,-1 0,-3 0,-4l0 1 0 -9c0,-1 0,-3 0,-4l0 -9c0,-1 0,-2 0,-3l0 -11c0,0 0,-1 0,-1 -1,-48 -1,-111 -1,-162 -2,-2 -4,-4 -7,-6 -4,-4 -5,-7 -9,-11l-29 -31c-18,-22 -45,-55 -62,-81 -9,0 -16,0 -23,0 1,18 2,42 1,66 24,55 126,238 -1,28 -4,54 -20,103 -66,98zm1 152c-21,-20 -14,-100 -15,-130 -7,-4 -12,-6 -14,-8 -6,-5 -3,-4 -5,-7 3,1 9,3 18,6l0 -6c-1,-42 -3,-18 25,-23 32,-5 41,-56 42,-105 -19,-35 -37,-73 -49,-104 -4,-11 -28,-176 -31,-179 -3,4 -4,6 -5,12 -11,40 -18,148 -6,196 7,33 -28,38 -1,110 9,26 0,42 -3,55 -4,14 1,17 4,30 4,29 0,128 14,150 8,1 17,2 26,3zm51 -315c0,-6 0,-11 0,-16 -2,-43 -7,-33 27,-29 -12,-34 -57,-182 -49,-192 9,3 25,132 31,141 9,17 20,34 32,51 44,3 75,2 104,1 1,-57 4,-123 5,-148 2,-27 11,-102 16,-154 2,-19 4,-35 5,-46 4,-36 21,-167 20,-196 0,-1 0,-3 0,-5 -1,-10 0,-22 2,-33 -8,-3 -13,-8 -6,-13 3,-2 6,-6 9,-11 1,-1 1,-1 1,-2l-4 -1 0 -1 0 0 4 -17c1,0 2,0 3,0l1 -8c0,0 0,0 0,-1l-1 0c-12,-6 -21,-9 -29,-11 -5,12 -14,29 -14,29l-17 -4c0,0 -17,36 -31,53 -15,18 -35,39 -37,53 -2,14 -9,26 -9,36 0,11 5,22 5,31 0,9 4,9 -1,17 -6,8 -14,25 -14,62 0,36 -4,43 -4,48 0,5 -1,15 -1,15l5 5c0,0 4,0 4,7 0,6 -4,6 -4,6 0,0 -4,8 -6,13 -3,5 -6,12 -6,12 0,0 5,-21 4,-24 -1,-4 -7,-7 -7,-7l4 -7c0,0 -1,-13 1,-26 2,-13 1,-81 14,-114 0,0 5,-10 0,-12 -6,-3 -1,-28 -1,-28 0,0 19,-62 63,-113 0,0 8,-18 12,-25 5,-7 5,-10 5,-10 0,0 18,8 25,-9 2,-4 3,-7 5,-10 -33,-7 -44,7 -81,-38 -11,-7 -28,-21 -41,-32 -1,1 -2,1 -3,2l0 -2 -55 19c-28,9 -57,17 -87,24 -34,9 -49,14 -68,45 -24,42 -49,166 -67,217 -2,5 -2,9 -7,13l3 -2c-10,30 -18,59 -31,88 -21,47 21,101 -17,159 -32,47 19,185 14,243 -2,22 -24,131 -12,150 7,2 30,-3 34,10 6,17 9,52 13,78 35,-16 33,-10 75,-16 1,0 2,0 4,0 -1,-9 -10,-14 -8,-38 1,-15 1,-7 0,-20 -9,-8 -23,-17 -5,-33 7,-6 28,-16 32,-22 -4,-10 -15,-14 -11,-31l-1 2c5,-47 15,-140 21,-187 -5,-48 -10,-49 -3,-96 5,-42 2,-35 2,-75 0,-9 0,-24 9,-28 34,-33 13,-95 9,-137l-1 -22c0,-3 1,-6 3,-8 -9,-66 -10,-131 -4,-202 0,-3 0,-6 1,-10 -23,-10 -16,33 -16,55 0,24 10,91 20,157 1,-2 3,-2 6,-2 5,0 10,4 10,10 2,35 12,83 10,115 0,2 0,3 0,4 2,9 5,17 8,25 28,88 45,188 78,278zm151 -45l2 0c0,-2 1,-5 3,-3 1,1 3,2 5,2l1 -10c-3,0 -4,0 -6,1 -3,2 -3,-8 0,-5 1,1 4,1 6,1l0 -10c-1,0 -1,0 -2,0 -2,0 -3,1 -4,2 -3,3 -3,-9 1,-6 1,1 4,1 5,1l1 -9c-2,0 -5,0 -6,1 -4,3 -3,-8 0,-6 1,2 4,2 6,2 0,-4 0,-7 0,-10 -2,0 -4,0 -6,2 -3,2 -3,-9 1,-6 1,1 3,1 5,1l1 -10c-1,0 -2,0 -3,0 -1,1 -3,1 -3,2 -4,3 -3,-9 0,-6 1,1 4,2 6,2l0 -10c-2,0 -4,0 -6,1l0 0c0,0 0,0 0,0 -2,2 -2,-1 -2,-2 0,0 0,-5 2,-4 0,0 0,0 0,0 1,0 1,0 1,0 1,2 3,2 5,2l1 -10c-2,0 -5,1 -6,2 -4,3 -3,-9 0,-6 2,1 4,1 6,1l0 -10c-2,0 -4,1 -6,2 -3,3 -3,-8 1,-6 1,1 3,2 5,2l1 -10c-2,0 -4,0 -6,2 -4,2 -3,-9 0,-6 2,1 4,1 6,1l0 -10c-1,0 -1,0 -2,0 -1,1 -3,1 -3,2 -4,3 -3,-9 0,-6 1,1 3,2 5,1l1 -10c-2,0 -4,1 -6,2 -3,3 -3,-8 1,-6 0,1 1,2 3,2 1,0 1,0 2,0l0 -10c-1,0 -3,1 -5,2 -4,2 -3,-9 0,-6 2,1 4,1 6,1l0 -4c-1,2 -1,3 -3,2 0,0 -2,-1 -3,-1 -2,0 -3,0 -5,0 0,-1 0,-3 1,-3 2,1 6,0 8,-2 1,-1 2,0 2,2l0 -4c-2,0 -4,1 -5,2 -4,3 -3,-9 0,-6 1,1 2,1 4,1 0,0 1,0 1,0l0 -2c0,1 -1,1 -2,1 -2,-2 -5,-2 -8,-1 0,-1 0,-3 0,-4 2,1 4,0 5,0 2,0 3,-1 4,-1 1,-1 1,-1 2,0l0 -3c-2,1 -4,1 -5,2 -4,3 -3,-8 0,-6 1,1 2,2 4,2 0,0 0,0 1,0l0 -2c0,0 -1,1 -2,0 0,-1 -2,-1 -3,-1 -2,-1 -3,0 -5,0 0,-1 0,-3 1,-4 1,1 3,1 4,1 2,-1 3,-1 4,-2 0,-1 1,-1 1,0l0 -2c-1,0 -3,1 -4,2 -4,3 -3,-9 0,-6 1,1 3,1 5,1l0 -1c-1,0 -1,0 -2,-1 -2,-1 -5,-2 -8,-1 0,0 0,-2 1,-3 1,0 3,0 4,0 2,0 3,-1 4,-2 0,0 1,0 1,0l0 -2c0,0 0,0 0,0 -2,1 -3,2 -4,2 -4,3 -3,-9 1,-6 0,1 2,1 3,1l0 -1c0,0 0,0 -1,0 0,-1 -1,-1 -3,-2 -1,0 -3,0 -5,1 0,-1 0,-3 1,-4 1,1 3,1 4,0 2,0 3,-1 4,-1 0,-1 1,-1 1,-1l0 -1c-2,0 -3,1 -4,1 -3,3 -2,-8 1,-5 0,0 2,0 3,1l0 0 0 -2c0,0 0,0 0,0 -1,0 -2,-1 -4,-1 -1,0 -3,0 -4,0 -1,-1 -1,-3 0,-4 1,1 3,1 5,1 1,-1 2,-1 3,-2 0,0 1,0 1,0l0 -2c-2,1 -3,1 -4,2 -3,3 -2,-9 1,-6 1,1 2,1 3,1l0 -1c0,0 0,0 0,0 -1,-1 -2,-2 -3,-2 -2,0 -4,0 -5,0 -1,0 0,-2 0,-3 2,1 7,0 8,-2l1 0 0 -1c-2,0 -3,1 -3,1 -4,3 -3,-8 0,-6 1,1 2,1 3,1l0 -1c-2,-2 -6,-2 -8,-1 0,-1 0,-3 0,-4 2,1 4,1 5,1 2,-1 3,-2 4,-2l0 0 0 -2c-1,0 -3,1 -3,2 -4,2 -3,-9 0,-6 1,0 2,1 3,1l0 -2c-2,-1 -6,-2 -8,-1 0,-1 0,-3 1,-3 1,0 3,0 4,0 2,0 3,-1 4,-2l0 -2c-1,1 -2,1 -3,2 -4,3 -2,-9 1,-6 0,1 1,1 3,1l0 -1c0,0 0,0 0,0 -2,-2 -6,-2 -9,-1 0,-1 0,-3 1,-4 2,1 6,0 8,-1 0,-1 1,-1 1,-1l0 -1c-2,0 -3,1 -4,1 -3,3 -2,-8 1,-6 1,1 2,2 3,2l0 -2c0,0 0,0 0,0 -1,-1 -2,-1 -3,-1 -2,-1 -4,-1 -5,0 -1,-1 0,-3 0,-4 3,1 7,1 9,-1 0,0 0,0 0,0l0 -2c-1,1 -3,1 -3,2 -4,2 -3,-9 0,-6 1,0 2,1 4,1l0 -1c0,0 0,0 -1,0 0,-1 -2,-2 -3,-2 -2,0 -3,0 -5,0 0,0 0,-2 0,-3 2,0 4,0 5,0 2,0 3,-1 4,-1 0,-1 0,-1 1,-1l0 -1c-2,0 -3,1 -4,1 -4,3 -2,-8 1,-6 0,1 2,1 3,1l0 -1c0,0 0,0 0,0 -1,0 -1,-1 -2,-1 -1,0 -2,-1 -3,-1 0,0 0,0 0,0 0,0 0,0 0,0 0,0 0,0 0,0l-1 0c-1,0 -1,0 -1,0 0,1 -1,0 -1,0 0,1 0,0 0,1l0 0c-1,0 -1,0 -1,0 0,0 0,0 0,0 0,0 0,-1 0,-1 0,0 0,0 0,0 0,-1 0,-2 1,-3 0,0 0,0 0,0 0,0 0,0 0,0 1,1 3,1 5,0 1,0 3,-1 3,-1 0,0 1,0 1,0 0,0 0,0 0,0l0 -2c-1,0 -3,1 -3,1 -1,1 -1,1 -1,1 -2,1 -2,-2 -2,-4 0,-1 1,-4 3,-3 0,0 0,0 0,0 0,1 0,1 0,1 1,0 2,1 3,1l0 -2c0,0 0,0 0,0 -1,0 -2,-1 -3,-1 -2,0 -4,-1 -5,0 -1,-1 0,-3 0,-4 3,1 7,1 9,-1 0,0 0,0 0,0l0 -2c-1,1 -2,1 -3,2 -4,3 -3,-9 0,-6 1,0 2,1 4,1l0 -1c-1,-1 -3,-2 -4,-2 -1,0 -3,0 -5,0 0,0 0,-2 0,-3 3,1 7,0 9,-1l0 0 1 -2c-2,0 -3,1 -4,1 -4,3 -2,-8 1,-6 0,1 2,1 3,2l0 -2c-1,0 -2,-1 -4,-1 -1,-1 -3,-1 -5,0 0,-1 0,-3 1,-4 2,1 6,1 9,-1l0 -2c-2,1 -3,1 -3,2 -4,2 -3,-9 0,-6 1,0 2,1 3,1l0 -2c-2,-2 -5,-1 -8,-1 -1,-1 0,-3 0,-3 2,0 4,0 5,0 2,0 3,-1 4,-1l0 -2c-1,0 -2,1 -3,1 -4,3 -3,-9 1,-6 0,0 1,1 2,1l0 -2c0,0 -1,-1 -3,-1 -1,0 -3,0 -5,1 0,-1 0,-3 1,-4 1,1 3,1 5,0 1,0 2,0 3,-1l0 -2c-1,1 -2,1 -2,1 -4,3 -3,-8 0,-5 1,0 1,0 2,1l1 -2c-1,-1 -2,-1 -3,-1 -2,0 -4,0 -5,0 -1,-1 -1,-3 0,-4 2,1 3,1 5,1 1,0 2,-1 3,-1l0 -2c-1,0 -1,1 -2,1 -4,3 -3,-9 1,-6 0,0 1,1 2,1l0 -2c-1,0 -2,-1 -3,-1 -1,0 -3,0 -5,0 -1,0 0,-2 0,-3 3,1 6,0 8,-1l0 -2c0,1 -1,1 -2,1 -4,3 -2,-8 1,-6 1,1 1,1 2,1l0 -2c-2,-1 -5,-1 -8,0 0,-1 0,-3 1,-4 2,1 5,1 7,0l1 -2c-1,0 -2,0 -2,1 -4,2 -3,-9 1,-6 0,0 0,0 1,1l0 -2c0,-1 -1,-1 -2,-1 -2,0 -3,0 -5,0 -1,0 -1,-2 0,-3 2,0 5,0 8,0l0 -3c-1,1 -1,1 -2,1 -4,3 -3,-9 1,-6 0,0 1,1 1,1l0 -2c-2,-1 -5,-1 -7,0 0,-1 0,-3 0,-4 3,1 6,1 8,0l0 -2c0,0 -1,0 -1,1 -4,2 -3,-9 0,-6 1,0 1,0 2,0l0 -2c-3,0 -5,-1 -8,0 0,-1 0,-3 1,-4 2,1 5,1 7,1l1 -3c-1,1 -1,1 -2,1 -4,3 -3,-9 1,-6 0,0 1,0 1,1l0 -2c-2,-1 -5,-1 -7,0 -1,-1 0,-3 0,-4 2,1 4,0 6,0 1,0 1,0 2,0l0 -2c0,0 -1,0 -1,0 -5,3 -3,-8 0,-6 1,1 1,1 2,1l0 -2c-3,-1 -5,-1 -8,0 0,-1 0,-3 1,-4 2,1 5,1 8,0l0 -2c-1,0 -1,1 -2,1 -4,2 -3,-9 1,-6 0,0 1,0 1,1l1 -2c-1,-1 -2,-1 -3,-1 -1,0 -4,0 -5,0 -1,-1 -1,-2 0,-3 2,0 6,0 8,0l0 -3c0,1 -1,1 -1,1 -5,3 -4,-9 0,-6 1,1 1,1 2,1l0 -2c0,0 -1,0 -2,-1 -2,0 -4,0 -6,1 0,0 0,-1 0,-1 -5,36 -9,69 -11,82 -4,27 -9,74 -12,104 0,8 -1,14 0,17 0,9 -3,24 -4,36 -1,11 -2,21 -3,26 0,1 0,3 -1,6 -2,23 -4,66 -4,74 0,4 -1,9 -2,14 0,4 0,8 -1,13 0,3 0,6 0,9 0,5 -1,25 -1,45 0,0 0,-1 0,0 0,0 0,0 0,0l0 0c3,1 6,1 8,-1l0 0c2,-1 2,0 2,2 0,0 0,0 0,0 0,0 0,1 0,1 0,0 0,-1 0,0 0,1 -1,4 -2,3 -1,-1 -1,-1 -2,-1 -1,-1 -2,-1 -3,-1l-1 0c0,0 -1,0 -1,0 0,0 0,0 0,0 0,1 -1,0 -1,0 0,1 0,1 0,1 0,-1 0,-1 0,-2 0,0 0,0 0,0 0,0 0,0 0,0 0,0 0,0 0,0l-1 10c0,0 1,0 1,0 1,1 3,1 4,1 2,0 3,-1 4,-2 3,-2 3,9 -1,6 0,0 -2,-1 -3,-1 -1,0 -3,0 -5,-1 0,0 0,0 0,0l0 9 0 0c2,2 3,2 5,2 1,-1 2,-1 3,-2 3,-3 3,9 0,6 -1,-1 -2,-1 -3,-1 -2,-1 -4,-1 -5,-1l0 0 0 9c1,2 3,1 4,1 2,0 3,-1 4,-1 3,-3 3,8 -1,6 0,-1 -2,-2 -3,-2 -1,0 -3,0 -4,-1 -1,4 -1,7 -1,9l0 0c2,1 3,2 5,2 1,0 2,-1 3,-2 4,-3 3,9 0,6 -1,0 -2,-1 -3,-1 -2,0 -3,-2 -5,-1 0,0 0,0 0,0 0,0 0,0 0,0 0,2 0,5 0,9 0,0 0,0 0,0 1,1 3,2 4,1 2,0 3,-1 4,-1 3,-3 3,8 0,6 -1,-1 -2,-1 -4,-2 -1,0 -3,-1 -4,0l0 -1 0 6zm14 0c43,-2 85,-2 165,10 27,4 29,-13 23,30 -12,88 7,132 87,173 8,3 13,5 16,6 20,-35 40,-65 61,-107 30,-60 38,-230 32,-297 -9,6 -24,154 -29,167 -10,24 -19,49 -28,75 -9,25 -19,48 -29,73 -5,11 -10,24 -16,35 -4,7 -6,11 -9,17 -6,9 -3,10 -15,11 3,-10 14,-28 19,-38 26,-51 58,-148 77,-204 9,-27 19,-152 27,-180 1,-5 2,-11 3,-18 -1,-6 -2,-11 -2,-15 -2,-32 9,-80 11,-115 0,-1 0,-2 0,-3 4,-73 9,-144 28,-160 0,0 0,1 0,1 0,1 1,1 1,2 1,6 0,6 -3,23 -12,56 -14,92 -14,127 5,1 8,5 8,10l-1 22c-2,15 -6,33 -8,52 -1,8 -1,17 -2,27 -1,22 3,43 19,58 8,4 8,19 8,28 0,40 -3,33 3,75 6,47 1,48 -3,96 6,47 15,143 20,191l-1 -3c4,17 -7,21 -10,31 4,6 25,17 31,22 19,16 4,25 -5,34 0,12 0,4 1,19 2,24 -7,30 -8,38 1,0 3,1 4,1 42,5 40,0 75,15 3,-25 6,-61 12,-78 4,-12 28,-8 35,-10 19,-29 -39,-176 -1,-201 -1,-16 -2,-38 -2,-51 1,-50 32,-107 5,-144 -38,-53 3,-113 -17,-159 -13,-29 -21,-58 -32,-88l3 2c-4,-3 -28,-102 -30,-116 -7,-50 -30,-120 -83,-143 -44,-21 -113,-44 -152,-49 -27,12 -59,20 -81,24 -19,4 -51,13 -79,26 0,1 -1,2 -2,3 -3,2 -35,99 -27,213 9,113 10,127 10,132 0,4 2,10 3,15 1,4 3,15 2,17 -1,3 -2,9 -6,14 -5,4 -15,9 -15,9 0,0 9,-13 8,-18 -1,-5 -7,-9 -7,-9 0,0 3,-5 4,-8 2,-3 5,-9 5,-9 0,0 -2,-9 -5,-23 -2,-13 1,-64 -1,-77 -3,-14 -7,-122 2,-175 9,-53 19,-73 19,-77 0,0 0,-1 0,-2 -19,10 -35,21 -40,34 -1,2 -2,4 -4,5 0,1 0,1 0,2 0,0 -1,0 -1,0l-1 2c-1,0 -1,0 -2,0 0,1 0,2 0,3 0,0 1,0 1,0 1,1 0,3 0,4l-1 0c0,2 0,5 -1,9l1 0c0,1 0,3 -1,3l0 0c-1,3 -1,6 -2,9 1,0 1,0 1,0 1,1 0,3 0,4 -1,0 -1,0 -1,0 -1,3 -2,6 -2,9 0,0 1,0 2,0 0,1 0,3 -1,4 0,-1 -1,-1 -2,-1 0,3 -1,7 -2,10 1,0 2,0 3,-1 0,1 0,1 0,2 0,0 0,1 0,1 0,1 0,1 0,1 -1,0 -2,0 -3,0 -1,3 -1,6 -1,10 1,-1 2,-1 3,-1 0,1 0,3 -1,4 -1,-1 -2,-1 -3,-1 0,4 0,7 0,10 0,0 1,0 2,0 1,0 0,2 0,3 -1,0 -2,0 -2,0 0,3 -1,6 -1,10 1,0 1,-1 1,-1 1,1 1,3 0,4 0,0 -1,0 -1,0 0,3 -1,6 -1,9 0,0 1,0 1,0 0,1 0,3 -1,3 0,0 0,0 0,0 -1,3 -1,7 -2,10 1,0 1,-1 1,-1 1,1 1,3 0,4 0,0 -1,0 -1,0 -1,3 -1,6 -2,9 1,0 1,0 2,0 0,1 0,3 -1,4 0,0 -1,-1 -1,-1 -1,4 -1,7 -2,10 1,0 2,0 2,0 1,0 0,2 0,3 -1,0 -2,0 -2,0 -1,3 -2,6 -2,10 1,0 2,0 3,-1 0,1 0,3 -1,4 -1,0 -2,-1 -3,-1 0,4 -1,7 -1,10 1,0 2,0 3,0 0,0 0,2 -1,3 0,0 -1,0 -2,0 -1,4 -1,8 -1,9 0,0 0,0 0,1 1,0 2,0 2,-1 1,1 1,3 0,4 -1,0 -2,0 -2,0l-2 9c1,0 2,0 3,0 0,1 0,3 -1,3 0,0 -1,0 -2,0l-1 10c1,0 1,0 2,-1 1,1 0,3 0,4 -1,0 -2,0 -2,0l-2 9c1,0 2,0 3,0 0,1 0,3 -1,4 -1,0 -1,-1 -2,-1l-1 10c1,0 1,0 2,0 1,1 0,2 0,3 -1,0 -2,0 -3,0l-1 10c1,0 2,-1 3,-1 0,1 0,3 -1,4 -1,0 -1,-1 -2,-1l-1 10c0,0 1,0 2,0 0,1 0,3 0,4 -1,-1 -2,-1 -3,-1l-1 10c1,0 2,0 3,-1 0,1 0,3 -1,4 -1,0 -1,0 -2,0l-1 9c0,0 1,0 2,0 0,1 0,3 0,4 -1,-1 -2,-1 -3,-1l-1 10c1,0 2,0 3,-1 0,1 0,1 0,2 0,0 0,0 0,0 0,0 0,1 0,1 0,0 0,0 0,0 -1,1 -1,1 -1,1 -1,0 -1,0 -2,0l-1 10c1,0 1,-1 2,-1 1,1 0,3 0,4 -1,0 -2,-1 -2,-1l-2 10c1,0 2,0 3,0 0,1 0,2 -1,3 0,0 -1,0 -2,0l-1 10c1,0 2,0 2,-1 1,1 0,3 0,4 -1,0 -1,0 -2,0l-1 9c1,0 1,0 2,0 0,1 0,3 0,4 -1,-1 -2,-1 -2,-1l-1 10c0,0 1,0 2,0 0,0 0,2 -1,3 0,0 -1,0 -2,0 0,3 0,6 -1,10 1,0 2,0 2,-1 1,1 0,3 0,4 -1,0 -1,-1 -2,-1 0,4 -1,7 -1,10 1,0 1,0 2,0 0,1 0,3 0,3 -1,0 -1,0 -2,0 0,3 -1,7 -1,10 1,0 1,0 2,-1 0,1 0,3 -1,4 0,0 -1,0 -1,0 0,3 -1,6 -1,9 1,0 1,0 2,0 0,1 0,3 -1,4 0,0 -1,-1 -1,-1 0,4 -1,7 -1,10 1,0 1,0 1,0 1,0 1,3 0,3 0,0 -1,0 -1,0 0,3 0,6 0,9 0,0 0,0 0,0 1,1 0,3 0,4 0,0 0,0 -1,0l0 9 0 0c1,1 1,3 0,3l0 0 -1 10c1,0 1,2 0,3 -2,46 -3,103 -5,150zm296 230c0,5 -1,13 -1,25 0,3 0,6 0,9 12,-17 42,-41 56,-60 14,-20 49,-99 30,-121 -8,4 -21,35 -28,46 -18,32 -32,60 -52,92 -1,2 -3,5 -5,9zm-1 41c0,18 -1,41 -1,63 3,-1 5,-2 8,-2 23,-8 71,-17 74,-18 6,-27 -1,-87 -10,-113 -5,4 -37,42 -63,65 -4,3 -5,4 -8,5zm-1 85c0,11 0,22 -1,30 5,-2 9,-5 12,-8 -1,3 -1,6 -2,9 -1,3 -2,5 -4,8 -3,6 -6,12 -8,19 -3,-7 -7,-14 -12,-21 0,-9 0,-20 0,-31 -64,24 -119,52 -204,52l-66 0c-6,0 -12,0 -18,-1 0,1 -1,1 -1,0 -26,-1 -51,-6 -93,-17 -53,-14 -58,-14 -114,-14 -10,0 -25,2 -33,-1 -10,-2 -12,-8 -14,-18 -10,-34 -11,-79 -11,-117 0,-20 -6,-53 -6,-58 0,-32 8,-26 8,-44 0,-12 -7,-23 -11,-33 -5,-13 -6,-30 -6,-42 0,0 2,-14 2,-14 3,-12 9,-21 9,-37 0,-3 -2,-58 -3,-76 0,-1 1,-11 1,-11 5,-51 21,-87 21,-144 0,-3 0,-6 -1,-9 -4,10 -9,18 -16,22 -1,12 0,35 1,43 0,28 -10,63 -7,84 1,7 0,21 0,27 -1,29 -2,82 -5,97 -3,16 -1,5 -2,18 -3,27 -6,92 -8,103 1,2 3,5 4,7 24,36 -15,39 -30,55 12,12 13,5 11,40 -2,21 15,32 5,47 -10,15 -53,9 -78,18 -7,3 -25,17 -33,8 -4,-4 -12,-65 -16,-88 -3,0 -2,0 -11,0 -51,-2 -22,-133 -16,-160 15,-70 -50,-202 -7,-268 30,-44 -9,-99 15,-155 12,-26 20,-63 31,-85 12,-54 35,-107 43,-163 0,-3 1,-5 3,-7 1,-5 2,-9 4,-14 31,-93 56,-91 140,-113 30,-8 51,-7 81,-18 1,0 9,-2 10,-3 -7,-3 -17,-11 -22,-11 -33,-17 -9,-49 -8,-63 -15,-8 -23,-19 -25,-31 0,-1 0,-2 0,-2 -3,-30 25,-66 51,-82 36,-22 115,-5 157,-5 68,0 57,-1 113,-18 49,-15 126,-19 165,19 35,19 11,87 13,114 5,4 7,8 8,13 16,25 13,44 0,59l1 1c-3,2 -6,5 -9,7 47,21 142,42 175,74 28,27 29,41 41,81 5,16 9,33 12,50 4,28 18,73 24,112 12,23 20,59 31,85 25,55 -14,114 15,155 36,51 1,99 0,159 0,17 9,61 -7,66 -24,9 53,204 -16,206 -8,0 -7,0 -11,1 -3,22 -11,83 -15,88 -9,8 -26,-6 -33,-8 -25,-9 -68,-4 -78,-18 -11,-15 6,-26 5,-48 -3,-35 -2,-27 11,-40 -16,-15 -54,-18 -31,-55 8,-12 -2,-113 -6,-131 -11,-62 -14,-60 -4,-124 3,-21 -8,-56 -7,-84 0,-8 2,-31 1,-43 -6,-3 -10,-9 -14,-16 0,13 2,26 6,37 2,5 4,10 6,14l0 137c0,44 -10,67 -10,90 0,8 21,31 2,88 -2,8 -12,31 -12,36 0,17 3,15 5,27 2,9 2,15 4,24 4,30 3,50 0,79 -3,30 -18,17 -57,27 -16,4 -31,8 -45,13zm-15 -16c1,-29 1,-60 1,-85 -3,4 -6,7 -9,8 -4,-7 1,-11 6,-20l3 -5 0 -5c-94,-46 -123,-91 -105,-204 -41,-11 -109,-14 -175,-14 -1,35 -1,62 -1,69 0,10 -1,23 -2,35 0,9 -1,19 -1,26l0 2c110,109 156,174 0,15 1,9 3,18 3,18 0,0 -1,4 -1,11l0 1c0,0 0,3 -1,8 0,10 0,20 2,26 2,13 2,116 4,127 1,6 1,10 0,13 1,5 1,9 -1,14l1 7c0,0 1,0 -2,3l0 0 1 6c8,0 17,1 26,1 17,0 37,0 60,-2 16,-1 32,-3 47,-6 24,-5 46,-13 68,-21 26,-9 51,-19 76,-28zm-283 -325l-4 0c-1,0 -1,0 -2,1 -1,0 -1,0 -2,-1l-2 0 0 1c1,1 2,2 4,2 1,-1 2,-1 3,-2 3,-3 3,9 0,6 -1,0 -2,-1 -4,-1 -1,0 -2,-2 -4,-2 0,4 0,7 0,10 1,1 3,1 4,1 2,0 3,-1 4,-1 3,-3 2,8 -1,6 0,-1 -2,-1 -3,-2 -1,0 -3,-1 -4,-1 0,2 0,6 0,9 1,1 3,2 4,2 1,0 2,-1 3,-2 3,-2 3,9 0,6 -1,0 -2,-1 -3,-1 -2,0 -3,-1 -4,-1l0 9c1,1 2,1 3,1 2,0 3,0 4,-1 3,-3 3,9 0,6 -1,-1 -2,-1 -4,-2 -1,0 -2,-1 -3,-1l-1 10c2,0 3,1 4,1 1,1 3,-1 3,-1 4,-3 3,8 0,6 0,-1 -2,-2 -3,-2 -1,-1 -2,-1 -4,-1l0 9c1,1 2,1 4,2 1,0 3,-1 3,-2 3,-3 3,9 0,6 -1,0 -2,-1 -3,-1 -1,-1 -3,-2 -4,-2l0 10c1,0 2,1 4,1 1,1 2,-1 3,-1 3,-3 3,8 0,6 -1,-1 -2,-1 -4,-2 -1,-1 -2,-1 -3,-1l0 10c1,0 2,1 3,1 2,0 3,-1 4,-2 3,-2 3,9 -1,6 0,0 -2,0 -3,-1 -1,-1 -2,-1 -3,-1l-1 9c2,1 3,1 4,2 1,0 3,-1 3,-2 4,-3 3,9 0,6 0,0 -2,-1 -3,-1 -1,-1 -3,-2 -4,-2l0 10c1,0 2,1 4,1 1,1 2,-1 3,-1 3,-3 3,8 0,6 -1,-1 -1,-2 -3,-3 -1,-1 -3,-1 -4,0l0 2 2 1c0,-1 1,-2 2,0 1,0 2,1 3,1 1,0 2,1 3,0l0 -9c-2,0 -4,0 -6,1 -3,1 -3,-10 0,-6 2,2 4,2 6,2l0 -10c-2,0 -4,0 -5,2 -4,1 -3,-10 0,-6 1,1 3,1 5,1l1 -10c-2,0 -5,1 -6,2 -3,1 -3,-10 0,-6 2,2 4,2 6,2l0 -10c-1,0 -2,0 -3,0 -1,0 -2,1 -3,1 -3,2 -3,-10 0,-5 2,1 4,1 6,1l0 -10c-2,0 -4,1 -6,2 -3,1 -3,-10 1,-6 1,1 3,2 5,1l1 -10c-2,0 -5,1 -6,2 -4,1 -3,-10 0,-6 1,2 4,2 6,2l0 -10c-2,0 -4,0 -6,2 -3,1 -3,-10 0,-6 2,1 4,1 6,1l0 -10c-2,0 -4,1 -6,2 -3,1 -3,-10 1,-6 1,1 4,2 5,2l1 -10c-3,-1 -4,0 -6,1 -4,2 -3,-10 0,-6 1,1 2,2 3,2 1,0 2,0 3,0l0 -9zm-16 0c-34,0 -66,0 -94,1 27,39 59,79 93,114 0,-27 0,-49 0,-61 0,-15 0,-34 1,-54zm79 -673c11,-44 46,-93 77,-125 -39,-9 -95,-7 -163,25 -1,1 -3,2 -4,2 36,120 56,72 80,107 2,-1 4,-3 6,-5l0 -1 1 1c1,-2 2,-3 3,-4zm84 -133c4,-3 7,-5 10,-8 12,-9 35,-21 57,-35 -10,-30 -77,-21 -142,-30 53,-7 116,-2 168,13 23,-17 39,-36 31,-55 -6,-5 -13,-12 -47,-17 -79,-12 -93,19 -153,24 -63,5 -108,-4 -166,-3 -33,0 -53,14 -68,45 -4,8 -6,13 -6,18 0,0 0,0 0,1 3,6 6,10 9,13 3,2 7,4 9,6 26,11 68,-5 98,23 8,-17 17,-30 40,-36 -43,34 -32,70 -14,63 58,-24 138,-42 174,-22zm-146 119c-38,-23 -32,-59 -52,-97 -1,-3 -2,-5 -3,-7 -2,-1 -3,-3 -4,-5 -22,-27 -56,-11 -87,-13 -1,4 -2,10 -5,17 -10,26 11,12 43,35 0,0 47,36 50,40 28,34 37,28 58,30zm40 93c0,0 1,0 2,0 0,2 1,3 3,2 1,0 3,-1 4,-1l0 1c-1,1 -3,2 -5,2 -1,0 -3,0 -5,0l1 -4zm11 -10c0,0 0,0 0,0 -1,-1 -1,-1 -1,-2 0,0 1,0 1,0l0 2zm1 -5c-1,0 -2,0 -3,0 0,-1 0,-2 0,-3 1,1 2,1 2,1 0,0 1,0 1,1l0 1zm1 -8c-1,0 -1,0 -1,0 -1,1 -2,1 -3,1 0,0 0,-1 0,-2 1,0 2,0 4,0l0 1zm0 -5c-1,0 -2,0 -3,0 0,-1 0,-2 0,-2 1,0 2,0 3,1 0,0 0,0 0,0l0 1zm-5 41c-2,1 -3,1 -4,2 -5,2 -4,-9 1,-6 0,0 2,1 3,1l0 -2c-1,0 -2,-1 -4,-1 -2,0 -3,0 -5,0l-1 9c2,1 7,1 9,-1l1 -2zm-11 7c2,-1 4,-1 6,0 1,0 3,0 4,1l-1 2c-1,-1 -2,-1 -3,-2 0,0 0,0 0,0 0,0 0,0 0,0 -2,-1 -3,1 -3,3 0,0 0,1 0,1 -1,2 0,3 2,2 1,0 1,0 1,0 0,0 2,0 3,-1l0 2c-3,1 -7,2 -10,1l1 -9zm-1 12c0,0 0,0 0,0 0,0 1,0 1,0 0,0 1,0 1,0l1 0c0,0 1,0 1,0 1,0 2,0 3,1 1,0 2,0 2,0l0 2c-1,0 -2,-1 -3,-1 -4,-3 -5,8 -1,6 1,-1 2,-1 3,-1l0 2c-3,1 -6,1 -9,0l1 -9zm7 19c-2,1 -2,1 -3,1 -5,3 -4,-8 1,-5 0,0 1,0 2,1l0 -2c-1,-1 -2,-1 -3,-1 -2,0 -4,-1 -6,0l-1 9c2,0 4,0 6,0 1,0 2,0 3,-1l1 -2zm-2 13c-1,0 -2,1 -3,1 -4,3 -3,-9 1,-6 1,0 1,1 2,1l1 -2c-3,-1 -7,-1 -9,-1l-1 9 0 0c2,1 6,1 9,0l0 -2zm-2 13c-1,0 -1,0 -2,1 -4,2 -3,-9 1,-6 0,0 1,0 2,1l0 -2c-1,-1 -2,-1 -3,-1 -2,0 -4,-1 -6,0l0 0 -1 10c0,-1 0,-1 0,-1 3,1 6,1 9,0l0 -2zm-45 359c2,-1 4,-1 5,-1 1,1 3,1 3,2 4,2 4,-9 1,-6 -1,0 -2,1 -4,2 -1,0 -3,0 -4,-1 -1,1 -1,3 -1,4zm0 13c1,-1 3,-1 4,-1 2,0 3,1 4,2 3,2 3,-9 0,-6 -2,1 -6,2 -8,1 -1,1 -1,3 0,4zm-1 12c2,0 3,0 5,0 1,0 2,1 3,1 3,3 4,-8 0,-6 -2,2 -5,2 -8,1 0,1 0,3 0,4zm-1 13c2,-1 4,-1 5,-1 1,1 3,1 3,2 4,2 4,-9 1,-6 -2,2 -6,2 -8,1 -1,1 -1,3 -1,4zm0 12c1,0 3,0 5,0 1,0 2,1 3,1 3,3 4,-8 0,-6 -1,1 -2,2 -3,2 -2,0 -3,0 -5,0 0,1 0,3 0,3zm-1 13c2,-1 4,-1 5,0 1,0 3,1 3,1 4,3 4,-9 1,-6 -1,1 -2,1 -4,2 -1,0 -3,0 -4,-1 -1,1 -1,3 -1,4zm5 220c-1,0 -3,0 -4,1l1 1c1,0 2,0 2,2l1 0 0 -4zm-5 14c0,0 -1,0 -1,1 -2,0 -3,-3 -2,-5l-2 -1 0 6c1,0 2,0 3,0 2,1 3,1 4,0l-2 -1zm-6 4c2,0 3,-1 4,0 2,1 3,2 4,3 1,1 2,-1 2,-4l0 1c0,2 0,4 0,5 0,0 -1,0 -2,0 -1,-1 -2,-1 -3,-2 0,0 0,0 0,0 -2,-3 -3,0 -3,1 0,0 0,1 0,1 0,1 1,4 3,4 0,0 0,0 0,0l0 0c0,0 2,-1 3,-1 1,-1 2,-1 3,-1 0,3 0,7 0,10 -2,1 -5,0 -6,-1 -4,-4 -4,7 -1,6 1,-1 2,-2 4,-2 1,0 2,0 3,0 0,3 0,6 0,7 0,0 0,1 0,3 -2,1 -5,0 -7,-2 -3,-4 -3,8 0,5 1,1 2,0 4,0 1,0 2,0 3,0l0 9c-1,1 -2,1 -3,0 -2,0 -3,0 -4,-3 -3,-2 -3,9 0,6 1,1 2,1 4,0 1,0 2,0 3,1l0 9c-1,0 -2,0 -4,0 -1,0 -2,-1 -3,-3 -3,-3 -3,9 0,6 1,1 2,0 3,0 2,0 3,0 4,0l1 9c-2,1 -3,1 -5,1 -1,-1 -2,-1 -3,-3 -3,-3 -3,8 0,6 1,1 2,0 3,0 2,0 3,-1 5,0l0 9c-2,1 -3,1 -5,0 -1,0 -2,-1 -3,-3 -3,-3 -3,9 0,6 1,1 2,1 3,0 2,0 3,0 5,0l0 10c-2,0 -3,0 -5,0 -1,0 -2,-1 -3,-3 -3,-3 -4,8 0,6 0,1 2,0 3,0 2,0 3,0 5,0l0 9c-2,1 -3,1 -5,1 -1,-1 -3,-1 -3,-4 -4,-2 -4,9 0,6 0,2 2,1 3,1 2,-1 3,-1 5,0l0 9 0 0c-2,0 -3,0 -5,0 -1,0 -3,-1 -3,-3 -4,-3 -4,9 0,6 0,1 2,0 3,0 2,0 3,0 5,0l0 0 0 10c0,0 0,0 0,-1 -2,1 -3,1 -5,1 -1,0 -3,-1 -3,-4 -2,0 -2,0 -3,2l0 -4c1,0 2,0 2,1 2,1 3,3 4,3 3,3 3,-9 0,-6 -1,1 -2,1 -4,0 0,0 -1,0 -2,0l0 -10c1,0 2,0 2,0 2,2 3,3 4,3 3,3 3,-8 0,-6 -1,1 -2,1 -4,0 -1,0 -1,0 -2,0l-1 -10c1,0 3,0 3,1 2,1 3,2 4,3 3,3 3,-9 0,-6 -1,1 -2,1 -4,0 -1,-1 -2,-1 -3,0 0,-4 0,-7 0,-10 1,0 2,-1 3,0 2,2 3,3 4,3 3,3 3,-9 0,-6 -1,1 -2,1 -4,0 -1,0 -2,0 -3,0 0,-4 -1,-7 -1,-9 2,-1 3,-1 4,-1 2,2 3,3 4,4 3,2 3,-9 0,-6 -1,0 -2,0 -4,-1 -1,0 -3,1 -4,0 -1,-8 -1,-30 0,-45 0,0 0,-1 0,-2 0,0 0,0 0,0 2,0 3,0 5,0 1,2 3,3 3,3 3,3 4,-9 0,-6 0,1 -1,1 -3,0 -1,-1 -3,0 -5,0l0 0c0,-2 1,-3 1,-5 0,-1 0,-2 0,-4 0,0 0,0 0,0 0,0 1,0 1,-1 0,0 0,1 0,0l2 0c1,0 2,2 3,3 0,0 1,0 1,1 2,1 3,-2 3,-3 0,0 0,0 0,-1 0,0 0,0 0,0 0,0 0,0 0,0 0,-2 -1,-3 -2,-3 0,0 0,1 -1,1 0,0 -1,0 -3,0 -1,-1 -2,0 -4,-1 0,-2 0,-5 0,-9zm12 134c-2,-1 -3,0 -5,0 -1,0 -3,1 -3,0 -1,0 -2,0 -3,-1l1 2c0,0 1,0 1,0 2,1 3,1 4,1 3,-3 3,8 0,6 -1,-1 -2,-2 -4,-4 0,0 -1,0 -1,0l0 2c0,0 1,-1 2,0 0,3 2,3 3,4 2,0 3,0 5,-1 0,0 0,0 0,1l0 -10c0,0 0,0 0,0zm0 13c-2,-1 -3,-1 -5,0 -1,0 -3,1 -3,-1 -1,1 -2,1 -2,0l0 2c0,0 1,0 1,0 2,1 3,1 4,0 3,-2 3,9 0,6 -1,0 -2,-1 -4,-3 0,0 -1,0 -1,0l0 2c0,-1 1,-1 2,0 0,2 2,3 3,3 2,0 4,0 5,0 1,1 1,2 0,3 -1,0 -3,0 -5,0 -1,0 -3,1 -3,0 -1,0 -1,0 -2,0l0 1c1,0 1,0 1,1 2,1 3,1 4,0 3,-3 3,9 0,6 -1,-1 -2,-2 -4,-3 0,-1 0,-1 -1,-1l0 2c1,0 1,0 2,0 0,3 2,3 3,4 2,0 4,0 5,-1 1,1 1,3 0,4 -1,-1 -3,-1 -5,0 -1,0 -3,1 -3,-1 -1,1 -1,1 -1,1l0 1c0,0 0,0 0,0 2,1 3,1 4,1 3,-3 3,8 0,6 -1,-1 -2,-2 -4,-4 0,0 0,0 0,0l0 2c0,0 0,0 1,0 0,3 2,3 3,3 2,1 4,1 5,0 1,1 1,3 0,4 -1,-1 -3,-1 -5,-1 -1,1 -3,1 -3,0 0,0 0,0 0,0l0 2c1,1 2,1 3,0 3,-2 3,9 0,6 -1,0 -1,-1 -3,-2l0 2c1,1 2,2 3,2 2,0 4,0 5,0 1,0 1,2 1,3 -2,0 -4,0 -6,0 -1,0 -1,1 -2,0l0 2c1,0 1,0 2,0 2,-2 3,3 2,5 0,1 -1,2 -2,1 -1,-1 -1,-1 -2,-2l0 3c1,0 2,1 3,1 1,0 3,0 5,-1 0,1 0,2 0,2 1,-1 3,-1 4,-2 -2,-17 -5,-49 -5,-54l0 -6c0,0 0,1 0,1zm0 63c-1,-1 -3,-1 -4,0 -1,0 -2,0 -2,0l0 2c0,0 1,0 1,-1 4,-2 4,9 0,6 0,0 -1,0 -1,-1 0,1 0,2 0,3 2,1 5,1 7,0 -1,-3 -1,-5 -1,-6 0,-1 0,-2 0,-3zm0 12c-2,0 -4,0 -5,1l0 1 0 0c4,-2 4,8 1,6 0,1 0,1 0,2 1,0 3,0 4,0 -1,-3 -1,-5 -1,-6 0,-1 0,-3 1,-4zm1 -2c0,0 0,1 0,1m0 14c-1,0 -3,0 -5,0 0,0 0,1 0,1l0 0c0,0 1,0 1,0 2,1 3,1 5,1 0,-1 -1,-1 -1,-2l0 0zm-14 -197c2,0 4,-1 5,0 2,1 2,2 3,3 3,2 3,-9 0,-6 -1,0 -1,0 -3,0 -2,-1 -3,0 -5,-1 0,1 0,3 0,4zm0 13c1,-1 3,-1 5,-1 1,2 2,3 3,3 3,3 3,-8 0,-6 -1,1 -2,1 -3,0 -2,0 -3,1 -5,0 0,1 0,3 0,4zm0 12c1,0 3,-1 4,0 2,1 3,2 4,3 3,3 3,-9 0,-6 -1,1 -2,1 -3,0 -2,-1 -4,0 -5,0 -1,0 -1,2 0,3zm-1 22c0,1 0,2 0,3l1 9c-1,1 -1,1 -1,1 0,-7 0,-12 0,-13 -1,-6 -1,-30 0,-46l0 46zm0 16l1 0 0 9 -1 0 0 -9c0,0 0,0 0,0zm0 13l1 9m0 3l0 9m0 4l0 9m0 3l0 0 0 7c0,-1 0,-3 0,-7zm434 -507c1,0 3,0 4,0m-717 370l0 1"/>
  </g>
 </g>
</svg>
