<svg xmlns="http://www.w3.org/2000/svg" xml:space="preserve" width="8.1056in" height="8.83302in" version="1.1" style="shape-rendering:geometricPrecision; text-rendering:geometricPrecision; image-rendering:optimizeQuality; fill-rule:evenodd; clip-rule:evenodd"
viewBox="0 0 620 675"
 xmlns:xlink="http://www.w3.org/1999/xlink">
 <defs>
  <style type="text/css">
   <![CDATA[
    .fil1 {fill:black}
    .fil0 {fill:white}
    .filin {fill:white}
   ]]>
  </style>
 </defs>
 <g id="Layer_x0020_1">
  <metadata id="CorelCorpID_0Corel-Layer"/>
  <g id="_946216016">
   <path class="fil0" d="M569 145c9,52 51,103 51,140 0,9 -57,23 -70,26 -32,7 -13,16 -51,16l0 97c0,25 -5,38 -5,51 0,5 12,18 1,51 -2,4 -7,17 -7,20 0,9 2,8 3,15 1,5 1,8 2,14 2,16 2,28 0,44 -1,17 -10,10 -32,15 -54,14 -87,41 -150,41l-37 0c-20,0 -34,-2 -64,-10 -30,-8 -33,-8 -65,-8 -5,0 -14,1 -19,0 -5,-2 -6,-5 -8,-11 -5,-19 -6,-45 -6,-66 0,-12 -3,-30 -3,-33 0,-18 4,-15 4,-25 0,-7 -4,-13 -6,-19 -10,-30 3,-34 3,-53 0,-7 -2,-10 -2,-18l0 -14c0,-16 8,-81 8,-92 0,-4 -5,-4 -11,-9 -6,-4 -25,-4 -35,-4 -4,-1 -12,-2 -16,-2 -10,-2 -21,-6 -29,-9 -20,-7 -24,-7 -25,-12l0 -12c0,-13 35,-126 49,-147 3,-5 3,-9 4,-14 1,-6 2,-9 4,-14 17,-52 32,-51 79,-63 18,-5 37,-13 53,-19 16,-5 45,-21 49,-21 7,0 48,28 120,13 52,-10 21,-15 58,4 35,17 103,34 123,53 16,15 17,24 23,46 3,9 5,19 7,29z"/>
   <path class="fil1" d="M306 493c0,2 0,92 0,99 0,3 0,5 0,7 0,4 0,8 -1,12 0,4 0,9 0,13 0,1 0,3 -1,4 0,0 0,2 0,2l2 35 -4 9 -16 -1 -4 -1 -5 -3 0 -1c1,-13 2,-26 3,-39 1,-8 2,-16 2,-24 1,-3 1,-6 1,-9 0,-1 0,-3 0,-5 0,-1 0,-2 0,-3 0,-2 0,-5 0,-7 0,-6 0,-13 0,-20 0,-20 0,-39 0,-59 0,-29 0,-59 1,-89 0,-19 1,-38 2,-58 1,-13 2,-26 3,-39 1,-14 1,-29 2,-43l1 -31c0,-9 1,-18 2,-27 0,-11 1,-22 2,-33 1,-30 0,-59 -2,-88l-1 -2 25 2c2,1 2,3 3,5 0,3 0,6 0,9 0,4 0,9 0,13 0,6 0,12 0,17 -1,15 -2,29 -3,44 -1,16 -2,33 -4,49 -1,16 -2,32 -3,49 -1,14 -1,28 -2,42 -1,57 -2,114 -3,171zm-11 -399l22 2c9,1 -7,150 -9,226 -2,58 0,114 -4,171 0,0 1,97 1,99 0,3 -2,38 -2,38l1 35 -3 7 -15 0 -4 -2 -4 -2c0,0 7,-68 7,-77 -1,-9 0,-178 0,-178 0,-49 5,-87 7,-140l2 -31c1,-33 7,-78 1,-148z"/>
   <path class="fil0" d="M295 94l22 2c9,1 -7,150 -9,226 -2,58 0,114 -4,171 0,0 1,97 1,99 0,3 -2,38 -2,38l1 35 -3 7 -15 0 -4 -2 -4 -2c0,0 7,-68 6,-77 0,-9 1,-178 1,-178 0,-49 5,-87 7,-140l2 -31c1,-33 7,-78 1,-148z"/>
   <g>
    <path class="fil0" d="M380 23c-5,8 -14,17 -26,20 -23,6 -62,5 -84,-2 -11,-4 -18,-13 -22,-23 26,6 19,11 64,12 39,0 44,-5 68,-7z"/>
    <path class="fil0" d="M299 90c-1,-22 -18,-27 -33,-40 -19,-17 -24,-32 -30,-37 -4,1 -14,6 -15,9 -3,8 27,59 78,68z"/>
    <path class="filin" d="M314 97c-2,0 -4,-1 -4,-3 0,-20 2,-27 22,-33 4,-1 15,-7 18,-10 -14,2 -24,3 -39,3 -22,0 -30,-4 -36,-4 4,5 11,8 16,13 12,11 13,10 15,29 0,1 -1,3 -2,4 3,3 6,4 10,1z"/>
    <path class="fil0" d="M327 70c-9,4 -9,10 -9,21 36,0 63,-21 81,-48 10,-15 9,-17 -5,-26 -4,3 -12,14 -16,18 -12,13 -31,29 -51,35z"/>
   </g>
   <path class="fil1" d="M493 310c28,-5 29,-11 37,-12 0,8 -10,19 -26,17 -13,-1 -10,-3 -11,-5zm-166 -240c-9,4 -9,10 -9,21 36,0 63,-21 81,-48 10,-15 9,-17 -5,-26 -4,3 -12,14 -16,18 -12,13 -31,29 -51,35zm-13 27c-2,0 -4,-1 -4,-3 0,-20 2,-27 22,-33 4,-1 15,-7 18,-10 -14,2 -24,3 -39,3 -22,0 -30,-4 -36,-4 4,5 11,8 16,13 12,11 13,10 15,29 0,1 -1,3 -2,4l0 0 -1 0c0,0 0,0 -1,0 -10,2 -43,-15 -52,-23 -13,-13 -28,-24 -36,-47l-47 17c-16,6 -33,10 -50,14 -19,5 -27,8 -38,26 -11,20 -8,37 -18,54 -4,6 -16,20 -25,43 -13,36 -24,85 -24,86 8,3 28,8 31,16 -7,4 -21,-7 -32,-6 -3,7 2,8 7,10 12,5 31,11 43,13 12,3 22,3 35,2 19,-2 14,11 26,10 3,-9 -22,-149 -22,-178 0,-13 -4,-37 9,-31 0,1 0,3 -1,5 -5,70 0,130 22,201 22,69 33,150 71,213 7,11 22,25 23,33 -5,-2 -14,-12 -17,-17 -5,-6 -9,-12 -14,-19 -17,-23 -35,-60 -46,-88 -2,-6 -16,-100 -18,-101 -1,2 -2,3 -3,7 -5,23 -9,84 -3,111 4,18 -16,22 -1,63 6,14 1,23 -1,31 -2,8 1,9 2,17 3,16 0,72 8,85 15,2 34,1 50,3 52,9 64,23 138,18 44,-3 81,-22 121,-36 13,-4 40,-9 42,-10 3,-15 -1,-49 -6,-64 -3,3 -21,24 -36,37 -3,3 -3,3 -7,4 4,-10 25,-27 34,-39 9,-11 28,-56 17,-69 -4,3 -12,20 -15,26 -10,19 -18,34 -30,52 -3,6 -11,22 -17,24 -2,-4 1,-6 4,-11 14,-26 28,-45 42,-75 17,-33 22,-130 18,-168 -4,3 -13,88 -16,95 -6,14 -11,28 -16,42 -5,15 -11,28 -16,42 -3,6 -6,14 -10,20 -2,4 -3,6 -5,9 -3,5 -1,6 -8,7 1,-6 8,-16 11,-22 14,-29 33,-84 43,-116 5,-15 11,-86 15,-102 10,-39 3,-160 23,-176 0,0 0,0 1,1 0,0 0,0 0,0 1,4 0,4 -2,14 -14,69 -2,85 -12,153 19,1 36,-7 38,-24 5,-47 6,-74 3,-123 0,-1 0,-1 0,-1 0,-1 0,-1 0,-2 0,0 0,0 0,-1 1,0 1,-1 1,-2l0 -4c1,-1 3,-3 5,-4 -9,48 -3,103 -6,160 21,-1 57,-13 72,-20 1,-7 0,-7 -3,-12 -17,0 -46,15 -63,13 2,-5 8,-5 14,-7l48 -13c-8,-47 -27,-45 -42,-88 -1,-5 -3,-20 -4,-27 -4,-28 -17,-68 -47,-81 -11,-5 -90,-35 -97,-35 -4,3 -6,8 -9,13 -20,32 -51,51 -90,53zm-15 -7c-1,-22 -18,-27 -33,-40 -19,-17 -24,-32 -30,-37 -4,1 -14,6 -15,9 -3,8 27,59 78,68zm-119 321c-3,-5 -13,-78 -18,-80 -4,6 27,107 30,112 10,16 28,38 39,52l16 18c3,2 4,3 6,6 4,4 7,7 11,11 4,3 8,8 12,11 8,6 40,37 53,36 -1,-5 -1,-3 -5,-6l-19 -14c-48,-34 -97,-96 -125,-146zm-53 151c1,2 -1,1 2,4 3,2 22,11 25,12 15,7 79,39 90,34 -1,-4 1,-1 -3,-3l-26 -10c-20,-8 -81,-36 -88,-37zm184 113l-37 0c-20,0 -34,-2 -64,-10 -30,-8 -33,-8 -65,-8 -5,0 -14,1 -19,0 -5,-2 -6,-5 -8,-11 -5,-19 -6,-45 -6,-66 0,-12 -3,-30 -3,-33 0,-18 4,-15 4,-25 0,-7 -4,-13 -6,-19 -10,-30 3,-34 3,-53 0,-7 -2,-10 -2,-18l0 -14c0,-16 8,-81 8,-92 0,-4 -5,-4 -11,-9 -6,-4 -25,-4 -35,-4 -4,-1 -12,-2 -16,-2 -10,-2 -21,-6 -29,-9 -20,-7 -24,-7 -25,-12l0 -12c0,-13 35,-126 49,-147 3,-5 3,-9 4,-14 1,-6 2,-9 4,-14 17,-52 32,-51 79,-63 18,-5 37,-13 53,-19 16,-5 45,-21 49,-21 7,0 48,28 120,13 52,-10 21,-15 58,4 35,17 103,34 123,53 16,15 17,24 23,46 3,9 5,19 7,29 9,52 51,103 51,140 0,9 -57,23 -70,26 -32,7 -13,16 -51,16l0 97c0,25 -5,38 -5,51 0,5 12,18 1,51 -2,4 -7,17 -7,20 0,9 2,8 3,15 1,5 1,8 2,14 2,16 2,28 0,44 -1,17 -10,10 -32,15 -54,14 -87,41 -150,41zm69 -652c-5,8 -14,17 -26,20 -23,6 -62,5 -84,-2 -11,-4 -18,-13 -22,-23 26,6 19,11 64,12 39,0 44,-5 68,-7z"/>
   <path class="fil1" d="M293 644c0,0 1,0 1,0 0,-1 0,-3 0,-4m-3 4c0,0 0,0 0,0m-4 2c-1,0 -2,0 -2,0m15 1c0,0 0,0 -1,0m2 25c-1,0 -3,0 -5,0 -1,0 -3,0 -5,0 0,0 0,0 -1,0 -2,0 -5,-1 -8,-1 2,-6 3,-12 2,-18 1,-1 1,-3 1,-4 0,-1 1,-1 1,-2 0,0 0,0 0,0 0,0 1,0 1,0 0,-2 0,-3 0,-5 0,0 0,0 0,0 -1,0 -1,-1 0,-2 0,0 0,0 0,0 0,-1 0,-3 0,-5 0,0 0,0 0,0 0,0 0,-1 0,-2 0,0 0,0 0,0 0,-1 0,-3 0,-5 0,0 0,-1 0,-2 0,-1 0,-3 0,-5 0,0 0,-1 0,-2 0,-1 1,-3 1,-5 0,0 0,-1 0,-1 0,-26 1,-61 1,-90 -1,0 -1,0 -1,0 0,-3 1,-5 0,-8 1,0 1,0 1,0 0,-15 0,-27 0,-34 0,-31 1,-98 1,-119 1,-15 5,-57 7,-85 0,-11 -1,-19 -1,-25 2,-10 4,-33 5,-56 1,-22 1,-44 0,-52 -1,-1 -1,-2 -1,-3 -1,-6 -1,-12 0,-18 -5,-2 -8,-5 -4,-8 1,-1 3,-3 4,-6 0,0 0,-1 0,-1 0,0 -1,0 -2,0 0,-1 0,-1 0,-1 0,0 0,0 0,0 1,-5 1,-10 2,-16 0,1 1,1 1,1 0,0 0,0 0,0 1,0 2,0 3,0 0,0 0,0 1,0 0,0 0,0 0,0 0,0 0,0 0,0 0,0 0,0 0,0 0,0 0,0 0,0 0,2 0,3 0,5 2,0 3,0 4,1 0,0 1,-1 1,-1 1,0 1,0 1,0 0,0 0,-1 0,-1 -1,0 -2,0 -3,1 -2,1 -2,-1 -2,-2 0,0 0,0 1,0 0,0 1,0 1,-1 1,0 1,0 1,0 1,0 1,0 2,0 0,0 0,0 1,0 0,0 0,-1 0,-2 0,1 0,1 0,1 1,0 1,0 2,0 0,0 1,0 1,0 0,0 1,0 1,0 0,2 -1,4 -1,6 -1,1 -1,1 -1,2 0,0 0,0 0,0 0,1 0,1 0,2 0,1 0,2 0,3 0,0 0,0 0,0 0,1 0,2 0,2 0,0 0,0 1,0 0,1 0,2 0,2 0,0 -1,0 -1,0 0,2 1,3 0,5 1,0 1,0 1,0 0,1 0,2 0,2 -1,0 -1,0 -1,0 0,2 0,3 0,5 0,0 0,0 0,0 1,0 1,2 0,2 0,0 0,0 0,0 0,2 -1,3 -1,5 1,0 1,0 1,0 1,0 1,2 0,2 0,0 -1,0 -1,0 0,2 0,3 0,5 0,0 1,0 1,0 0,0 0,2 0,2 -1,0 -1,0 -2,0 0,2 0,3 0,5 1,0 1,0 2,0 0,0 0,1 0,2 -1,0 -1,0 -2,0 0,2 0,3 0,5 1,0 1,0 2,0 0,0 0,1 0,2 -1,0 -1,0 -2,0 0,1 1,3 1,5 0,0 0,0 0,0 1,0 1,1 0,2 0,0 0,0 0,0 0,1 0,3 0,5 0,0 0,0 0,0 0,0 0,1 0,2 0,0 0,0 -1,0 0,1 0,3 0,5 0,0 1,0 1,0 0,0 0,1 0,2 -1,0 -1,0 -1,0 0,1 0,3 0,5 0,0 0,0 0,0 1,0 1,1 0,2 0,0 0,0 -1,0 0,2 0,3 0,5 0,0 1,0 1,0 0,0 0,1 0,2 0,0 -1,-1 -1,-1 -1,2 -1,4 -1,6 1,0 1,0 2,0 0,0 0,1 0,2 -1,-1 -2,-1 -2,-1 0,2 0,4 0,6 0,0 1,0 1,-1 1,1 0,2 0,3 0,-1 -1,-1 -1,-1 0,3 -1,5 0,5 0,0 0,0 -1,1 1,0 1,0 2,-1 0,1 0,2 0,3 -1,-1 -1,-1 -2,-1 0,2 0,4 0,6 1,0 1,0 1,-1 1,1 1,2 0,2 0,0 -1,0 -1,0 0,2 0,4 0,6 0,0 1,0 1,-1 0,1 0,2 0,2 -1,0 -1,0 -1,0 -1,2 -1,4 -1,6 1,0 1,-1 2,-1 0,1 0,2 -1,2 0,0 0,0 -1,0 0,2 0,4 0,6 0,0 1,-1 1,-1 0,1 0,2 0,2 0,0 -1,0 -1,0 0,2 -1,4 -1,6 1,0 1,-1 2,-1 0,1 0,2 0,2 -1,0 -1,0 -2,0 0,2 0,4 0,5 0,0 1,0 1,0 0,1 0,2 0,2 0,0 -1,0 -1,0 0,2 0,4 -1,5 1,0 1,0 2,0 0,1 0,2 0,2 -1,0 -1,0 -2,0 0,2 0,4 0,5 0,0 1,0 1,0 1,1 0,2 0,2 0,0 -1,0 -1,0 0,2 0,4 0,5 0,0 0,0 1,0 0,0 0,0 0,1 0,0 0,0 0,0 0,0 0,0 0,0 0,0 0,0 0,0 0,0 0,0 0,0 0,0 0,1 0,1 0,0 0,0 0,0 -1,0 -1,0 -2,0 0,2 0,4 0,5 1,0 1,0 1,0 1,0 1,2 0,2 0,0 -1,0 -1,0 0,2 0,3 0,5 0,0 1,0 1,0 0,0 0,1 0,2 -1,0 -1,0 -1,0 -1,2 -1,3 -1,5 1,0 1,0 1,0 1,0 1,2 0,2 0,0 0,0 -1,0 0,2 0,3 0,5 0,0 1,0 1,0 0,0 0,1 0,2 0,0 -1,0 -1,0 0,2 0,3 -1,5 1,0 1,0 2,0 0,0 0,1 -1,2 0,0 0,0 -1,0 0,1 0,3 0,5 0,0 1,0 1,0 0,0 0,1 0,2 0,0 -1,0 -1,0 0,1 0,3 0,5 0,0 0,0 1,0 0,0 0,1 0,2 -1,0 -1,0 -1,0 0,1 -1,3 -1,5 1,0 1,0 1,0 1,0 0,1 0,2 0,0 0,0 -1,0 0,1 0,3 0,5 0,0 1,0 1,0 0,0 0,1 0,2 0,0 -1,0 -1,0 0,1 0,3 0,5 0,0 0,0 0,0 1,0 1,1 0,2 0,0 0,0 0,0 0,1 0,3 0,5 0,0 0,0 0,0 0,0 0,1 0,2 0,0 0,0 0,0 0,1 0,3 0,5 0,0 0,0 0,0 0,0 0,1 0,2 0,0 0,0 0,0 0,1 0,3 0,5 0,0 0,1 -1,1 0,49 -1,120 -1,130 0,6 0,13 -1,19 0,5 0,10 -1,15 0,0 0,1 0,1 1,1 2,1 2,2 0,3 0,5 1,8 -1,-1 -2,-1 -2,-2 0,5 1,10 1,10 0,0 -1,2 -1,6 0,0 0,0 0,0 0,0 0,2 0,5 0,5 0,11 0,14 2,7 0,64 1,71 0,3 0,5 -1,7 1,2 1,5 -1,7 1,2 1,3 1,4 0,0 0,0 -1,2 0,0 0,0 0,0 0,1 0,2 0,3 1,0 1,0 2,0 0,4 1,7 1,10zm10 -571c0,0 0,0 -1,0 1,0 1,0 1,0 0,0 0,0 0,0 0,0 0,0 0,0zm-6 23c0,0 1,0 1,0 0,1 1,1 2,1 0,-1 1,-1 2,-1 0,0 0,1 0,1 0,0 -1,1 -2,1 -1,0 -2,0 -3,0 0,-1 0,-2 0,-2zm6 -6c-1,0 -1,0 -1,0 0,0 0,-1 0,-1 0,0 0,0 1,0 0,0 0,1 0,1zm0 -3c-1,0 -1,0 -2,0 0,0 0,-1 0,-1 1,0 1,0 1,0 0,0 1,0 1,0 0,1 0,1 0,1zm0 -4c0,0 0,0 -1,0 0,0 -1,0 -1,1 0,-1 0,-1 0,-1 0,-1 1,-1 2,-1 0,0 0,1 0,1zm0 -3c-1,0 -2,0 -2,0 0,-1 0,-1 0,-1 0,0 1,0 1,0 1,0 1,1 1,1 0,0 0,0 0,0zm-1 23c-1,0 -2,0 -2,1 -3,1 -3,-5 0,-4 0,1 1,1 2,1 0,0 0,0 0,-1 0,0 -1,0 -2,-1 -1,0 -2,0 -3,0 0,2 -1,4 -1,6 2,0 5,0 6,-1 0,0 0,-1 0,-1zm-6 3c1,0 2,0 3,0 1,0 2,1 3,1 0,0 0,1 0,1 -1,0 -2,0 -2,-1 0,0 0,0 0,0 0,0 0,0 0,0 -1,0 -2,1 -2,2 0,0 0,0 0,0 0,1 1,2 2,2 0,0 0,0 0,0 0,-1 1,-1 2,-1 0,0 0,1 0,1 -2,1 -4,1 -6,1 0,-2 0,-4 0,-6zm0 7c0,0 0,0 0,0 1,0 1,0 1,0 0,0 0,0 0,0 1,0 1,0 1,0 0,0 0,0 0,0 1,0 2,0 3,1 0,0 0,0 0,0 0,0 0,1 0,1 0,0 -1,-1 -1,-1 -3,-1 -3,5 0,4 0,-1 1,-1 1,-1 0,0 0,1 0,1 -1,1 -3,1 -5,0 0,-1 0,-3 0,-5zm5 11c-1,0 -1,0 -1,1 -3,1 -3,-5 0,-4 0,0 0,1 1,1 0,0 0,-1 0,-1 0,0 -1,-1 -2,-1 -1,0 -2,0 -3,0 0,2 0,4 0,5 1,1 2,1 3,1 1,-1 1,-1 2,-1 0,0 0,-1 0,-1zm0 7c-1,0 -1,0 -2,1 -2,1 -2,-5 0,-4 1,0 1,1 2,1 0,-1 0,-1 0,-1 -2,-1 -4,-1 -5,-1 0,2 0,4 -1,5 0,0 0,0 1,0 1,1 3,1 5,0 0,0 0,-1 0,-1zm-1 7c0,0 -1,0 -1,0 -2,2 -2,-4 0,-3 0,0 1,1 1,1 0,-1 0,-1 0,-1 0,-1 -1,-1 -1,-1 -1,0 -2,0 -4,0 0,0 0,0 0,0 0,2 0,4 0,6 0,-1 0,-1 0,-1 2,1 4,1 5,0 0,0 0,-1 0,-1zm0 7c-1,0 -1,0 -1,0 -3,2 -2,-4 0,-3 0,0 1,0 1,1 0,-1 0,-1 0,-2 0,0 -1,0 -1,0 -1,0 -3,0 -4,0 0,0 0,0 0,0 -1,20 -1,39 -1,47 -2,15 -3,39 -4,55 0,4 0,8 0,10 1,5 -1,13 -2,20 0,6 0,12 -1,14 0,1 0,2 0,4 -1,12 -1,36 -1,40 0,2 0,5 -1,8 0,2 0,5 0,7 0,2 0,4 0,5 0,3 0,14 0,25 0,0 0,0 0,0 0,0 0,0 0,0 0,0 0,0 0,0 2,1 3,1 4,-1 0,0 0,0 1,0 0,0 1,1 1,2 0,0 0,0 0,0 0,0 0,0 0,0 0,0 0,0 0,0 0,1 -1,2 -2,2 0,0 0,-1 -1,-1 0,0 -1,0 -1,0 -1,0 -1,0 -1,0 0,0 0,0 0,0 -1,0 -1,0 -1,0 0,0 0,0 0,0 0,0 0,0 0,0 0,0 0,0 0,0 0,0 0,0 0,0 0,0 0,-1 0,-1 0,0 0,0 0,0 0,2 0,4 0,6 0,0 0,0 0,0 1,1 2,0 2,0 1,0 2,0 2,-1 2,-1 2,5 0,4 0,-1 -1,-1 -2,-1 0,0 -1,0 -2,0 0,0 0,0 0,-1 0,2 0,4 0,6 0,0 0,0 0,0 1,1 1,1 2,0 1,0 2,0 2,-1 2,-1 2,5 0,4 0,-1 -1,-1 -2,-1 -1,0 -2,0 -2,0 0,0 0,0 0,0 0,1 0,3 0,4 0,1 1,1 2,1 1,0 2,0 2,-1 2,-1 2,5 0,4 0,-1 -1,-1 -2,-1 -1,0 -2,0 -2,0 -1,2 -1,3 -1,4 0,0 0,0 0,0 1,1 2,1 3,1 1,0 2,0 2,-1 2,-1 2,5 0,4 -1,-1 -1,-1 -2,-1 -1,0 -2,-1 -3,-1 0,0 0,0 0,0 0,1 0,1 0,1 0,1 0,2 0,5 0,0 0,0 0,-1 1,1 2,1 3,1 1,0 1,0 2,-1 2,-1 2,5 0,4 -1,-1 -1,-1 -2,-1 -1,0 -2,-1 -3,-1 0,0 0,0 0,0 0,2 0,4 0,5 1,1 2,1 3,1 1,0 1,0 2,-1 1,-1 1,5 0,4 -1,-1 -2,-1 -2,-1 -1,0 -2,-1 -3,-1 0,2 0,4 0,5 1,1 2,1 3,1 0,0 1,0 2,-1 1,-1 1,5 -1,4 0,-1 -1,-1 -1,-1 -1,0 -2,-1 -3,-1 0,2 0,4 0,5 1,1 2,1 2,1 1,0 2,0 2,-1 2,-1 2,5 0,4 0,-1 -1,-1 -2,-1 0,0 -1,-1 -2,-1 0,1 0,3 0,5 1,1 2,1 2,1 1,0 2,0 2,-1 2,-1 2,5 0,4 0,-1 -1,-1 -2,-1 0,0 -1,-1 -2,-1 0,2 0,4 0,5 1,1 2,1 2,1 1,0 2,0 2,-1 2,-1 2,5 0,4 0,-1 -1,-1 -2,-1 -1,-1 -1,-1 -2,-1 0,2 0,4 0,5 1,1 1,1 2,1 1,0 2,0 2,-1 2,-1 2,5 0,4 -1,-1 -1,-1 -2,-1 -1,-1 -1,-1 -2,-1 0,2 0,4 0,5 0,1 1,1 2,1 1,0 1,0 2,-1 2,-1 2,5 0,4 -1,-1 -1,-1 -2,-1 -1,-1 -2,-1 -2,-1 0,2 0,4 0,5 0,1 1,1 2,1 1,0 1,0 2,-1 1,-1 1,5 0,3 -1,0 -2,0 -2,0 -1,-1 -2,-1 -2,-1 0,2 0,3 0,5 0,1 1,1 2,1 0,0 1,0 1,-1 2,-1 2,5 0,3 0,0 -1,0 -1,0 -1,-1 -2,-1 -2,-1 0,2 -1,3 -1,5 1,0 2,1 2,1 1,0 2,-1 2,-1 2,-1 2,5 0,3 0,0 -1,0 -2,0 0,-1 -1,-1 -2,-1 0,2 0,3 0,5 1,0 1,1 2,1 1,0 2,-1 2,-1 2,-1 2,5 0,3 0,0 -1,-1 -2,-1 0,-1 -1,0 -2,0 0,0 0,0 0,1 1,0 1,0 1,1 0,-1 1,-1 2,0 0,0 1,0 1,0 1,0 1,0 2,0 0,-1 0,-3 0,-5 -1,0 -3,0 -3,1 -2,1 -2,-6 0,-3 0,0 2,1 3,0 0,-1 0,-3 0,-5 -1,0 -2,0 -3,1 -2,1 -2,-6 0,-3 1,0 2,1 3,0 0,-1 0,-3 0,-5 -1,0 -2,0 -3,1 -2,1 -2,-6 0,-3 1,0 2,1 3,1 0,-2 0,-4 0,-6 0,0 -1,0 -1,0 -1,0 -2,1 -2,1 -2,1 -2,-6 0,-3 1,0 2,1 3,0 0,-1 1,-3 1,-5 -2,0 -3,0 -4,1 -2,1 -1,-6 0,-3 1,0 3,1 4,1 0,-2 0,-4 0,-6 -1,0 -3,0 -4,1 -1,1 -1,-5 0,-3 1,0 3,1 4,1 0,-2 0,-4 0,-6 -1,0 -2,0 -3,1 -2,1 -2,-5 0,-3 0,1 2,1 3,1 0,-2 0,-4 0,-6 -1,0 -2,0 -3,1 -2,1 -2,-5 0,-3 1,0 2,1 3,1 0,-2 0,-4 0,-6 -1,0 -2,0 -3,1 -2,1 -2,-5 0,-3 0,0 1,0 2,1 0,0 1,0 1,0 0,-2 0,-4 0,-6 -1,0 -2,0 -3,1 -2,1 -2,-5 0,-3 1,1 2,1 3,1 0,-2 0,-4 0,-6 0,0 -1,0 -1,0 -1,0 -2,1 -2,1 -2,1 -2,-5 0,-3 1,1 2,1 3,1 0,-2 0,-4 0,-6 -1,0 -2,0 -3,1 -2,1 -2,-5 0,-3 1,1 3,1 4,1 0,-2 0,-4 0,-6 -1,0 -1,0 -2,0 -1,0 -1,1 -2,1 -2,2 -1,-5 0,-3 1,0 3,1 4,1 0,-2 0,-4 0,-6 -1,0 -3,1 -4,1 -1,2 -1,-5 1,-3 0,1 2,1 3,1 0,-2 0,-4 0,-6 -1,0 -3,1 -3,1 -2,2 -2,-4 0,-3 1,1 2,1 3,1 0,-2 0,-4 0,-6 0,0 -1,0 -1,0 -1,1 -2,1 -2,1 -2,2 -2,-4 0,-3 1,1 2,1 3,1 0,-2 0,-4 0,-6 -1,0 -2,1 -3,1 0,0 0,0 0,0 0,0 0,0 0,0 -1,1 -2,-1 -2,-1 0,0 1,-3 2,-2 0,0 0,0 0,0 0,0 0,0 0,0 1,1 2,1 3,1 0,-2 0,-4 0,-6 -1,0 -2,1 -3,1 -2,2 -2,-4 0,-3 1,1 2,1 3,1 0,-2 0,-4 0,-6 -1,0 -2,1 -3,1 -2,2 -2,-4 0,-3 1,1 2,1 3,1 0,-2 0,-4 1,-6 -2,0 -3,1 -4,1 -2,2 -2,-4 0,-3 1,1 3,1 4,1 0,-2 0,-4 0,-6 -1,1 -1,1 -2,1 0,0 -1,0 -2,0 -1,2 -1,-4 0,-3 1,1 3,1 4,1 0,-2 0,-4 0,-6 -1,0 -2,1 -3,1 -2,2 -2,-4 0,-3 0,0 1,1 2,1 0,0 0,0 1,0 0,-2 0,-4 0,-6 -1,0 -2,1 -3,1 -2,2 -2,-4 0,-3 1,1 2,1 3,1 0,-1 0,-1 0,-2 0,1 -1,2 -1,1 -1,0 -2,-1 -2,-1 -1,0 -2,0 -3,0 0,0 0,-1 0,-2 2,1 4,1 5,0 0,-1 1,0 1,0 0,0 0,-1 0,-2 -1,1 -2,1 -3,1 -2,2 -2,-4 0,-3 1,1 1,1 2,1 0,0 1,0 1,0 0,0 0,-1 0,-1 0,0 -1,0 -1,0 -1,-1 -3,-1 -5,-1 0,0 0,-1 0,-2 1,1 2,1 3,1 1,-1 2,-1 2,-1 1,-1 1,-1 1,0 0,-1 0,-1 0,-2 -1,1 -2,1 -3,1 -2,2 -1,-4 1,-3 0,1 1,1 1,1 1,0 1,0 1,0 0,0 0,-1 0,-1 0,0 0,0 -1,0 0,0 -1,-1 -2,-1 -1,0 -1,0 -2,1 -1,-1 0,-2 0,-3 1,1 2,1 2,1 1,-1 2,-1 2,-1 1,-1 1,-1 1,0 0,-1 0,-1 0,-1 -1,0 -1,0 -2,1 -2,1 -2,-5 0,-4 1,1 2,1 2,1 0,0 0,-1 0,-1 0,0 0,0 0,0 -2,-1 -4,-1 -5,0 0,-1 0,-2 0,-3 1,1 2,1 3,1 1,-1 1,-1 2,-1 0,-1 0,-1 0,-1 0,0 1,0 1,0 -1,0 -1,0 -1,0 -1,0 -1,0 -2,1 -2,1 -1,-5 0,-4 1,1 2,1 3,1 0,0 0,0 0,-1 -1,0 -1,0 -1,0 0,0 -1,-1 -2,-1 -1,0 -2,0 -3,0 0,0 0,-1 1,-1 0,0 1,0 2,0 1,0 2,-1 2,-1 0,-1 1,-1 1,-1 0,0 0,0 0,0 -1,0 -2,0 -2,1 -2,1 -2,-5 0,-4 0,1 1,1 2,1 0,0 0,0 0,0 0,0 0,0 0,-1 0,0 0,0 -1,0 0,0 -1,-1 -2,-1 0,0 -1,0 -2,1 0,-1 0,-2 0,-3 1,1 2,1 3,1 0,-1 1,-1 2,-1 0,0 0,0 0,0 0,-1 0,-1 0,-1 -1,0 -2,0 -2,1 -2,1 -2,-5 0,-4 1,1 1,1 2,1 0,0 0,0 0,-1 0,0 0,0 0,0 -1,0 -1,-1 -2,-1 -1,0 -2,0 -3,0 0,0 0,-1 0,-2 2,1 4,1 5,0 0,0 0,0 0,0 0,-1 0,-1 0,-1 -1,0 -1,0 -2,1 -2,1 -1,-5 1,-4 0,1 0,1 1,1 0,0 0,-1 0,-1 -1,-1 -3,-1 -4,0 -1,-1 -1,-2 0,-2 1,0 2,0 2,0 1,0 2,-1 2,-1 0,0 0,0 0,0 0,-1 0,-1 0,-1 0,0 -1,0 -1,1 -2,1 -2,-5 0,-4 0,1 1,1 2,1 0,0 0,-1 0,-1 -1,0 -2,0 -2,-1 -1,0 -2,0 -3,1 0,-1 0,-2 0,-2 1,0 2,0 3,0 1,0 1,-1 2,-1 0,0 0,-1 0,-1 -1,0 -1,0 -2,1 -2,1 -1,-5 0,-4 1,1 1,1 2,1 0,0 0,0 0,-1 0,0 0,0 0,0 -1,-1 -3,-1 -5,0 0,-1 0,-2 1,-2 1,0 3,0 4,-1 0,0 0,0 0,0 1,-1 1,-1 1,-1 -1,0 -2,0 -2,1 -2,1 -2,-5 0,-4 0,1 1,1 2,1 0,0 0,0 0,-1 0,0 0,0 -1,0 0,0 -1,0 -1,-1 -1,0 -2,0 -3,1 0,-1 0,-2 0,-2 1,0 4,0 5,-1 0,0 0,0 0,0 0,-1 0,-1 0,-1 -1,0 -2,0 -2,1 -2,1 -2,-5 0,-4 1,1 1,1 2,1 0,0 0,0 0,-1 0,0 0,0 0,0 0,0 -1,0 -2,0 -1,-1 -2,-1 -3,0 0,-1 0,-2 0,-2 1,0 2,0 3,0 1,0 2,-1 2,-1 0,0 0,0 0,0 0,0 0,-1 0,-1 0,0 -1,1 -2,1 -2,1 -1,-5 1,-4 0,1 1,1 2,1 0,0 0,0 0,-1 0,0 -1,0 -1,0 0,0 0,0 -1,0 0,0 -1,0 -1,-1 0,0 0,1 0,0 0,0 0,0 0,0 0,0 -1,1 -1,0 0,0 0,0 0,0 0,1 0,0 -1,0 0,1 0,1 0,1 0,0 0,0 0,0 0,0 0,0 0,0 0,0 0,0 0,0 0,0 0,0 0,0 -1,0 0,-1 -1,-1 0,0 0,0 0,0 0,0 0,-1 1,-1 0,0 0,0 0,0 0,0 0,0 0,0 1,0 2,0 3,0 0,0 1,-1 2,-1 0,0 0,0 0,0 0,0 0,0 0,0 0,0 0,-1 0,-1 -1,0 -2,0 -2,1 0,0 0,0 0,0 -1,1 -2,-1 -2,-2 1,-1 1,-2 2,-2 0,0 0,0 0,0 0,1 0,1 0,1 1,0 1,0 2,0 0,0 0,0 0,-1 0,0 0,0 0,0 -1,0 -1,0 -2,0 -1,-1 -2,-1 -3,0 0,-1 0,-2 0,-2 2,0 4,0 5,-1 0,0 0,0 0,0 0,0 0,-1 0,-1 -1,0 -1,1 -2,1 -2,1 -1,-5 0,-4 1,1 1,1 2,1 0,0 0,0 0,-1 0,0 -1,0 -2,0 -1,0 -2,-1 -3,0 0,-1 0,-2 0,-2 2,0 4,0 5,-1 0,0 0,0 0,0 0,0 0,-1 1,-1 -1,0 -2,1 -2,1 -2,1 -2,-5 0,-3 0,0 1,0 2,0 0,0 0,0 0,-1 -1,0 -2,0 -2,0 -1,0 -2,-1 -3,0 -1,-1 0,-2 0,-2 1,0 4,0 5,-1 0,0 0,-1 0,-1 -1,0 -2,1 -2,1 -2,1 -2,-5 0,-3 1,0 1,0 2,0 0,0 0,0 0,-1 -2,-1 -3,-1 -5,0 0,-1 0,-2 0,-2 1,0 2,0 3,0 1,0 2,0 2,-1 0,0 0,0 0,-1 -1,0 -1,1 -2,1 -2,2 -1,-5 1,-3 0,0 1,0 1,0 0,0 0,0 0,-1 0,0 -1,0 -2,0 -1,0 -2,0 -3,0 0,-1 0,-2 1,-2 0,0 2,0 2,0 1,0 2,0 2,-1 0,0 0,0 0,-1 0,1 -1,1 -1,1 -2,1 -2,-5 0,-3 0,0 1,0 1,0 0,0 0,0 0,-1 0,0 -1,0 -1,0 -1,0 -2,0 -3,0 0,-1 0,-2 0,-2 1,0 2,0 3,0 0,0 1,0 2,0 0,-1 0,-1 0,-2 -1,1 -1,1 -2,1 -2,2 -2,-5 0,-3 1,0 1,0 2,0 0,0 0,0 0,-1 -1,0 -1,0 -2,0 -1,0 -2,0 -3,0 0,-1 0,-2 0,-2 2,0 3,0 5,0 0,-1 0,-1 0,-1 -1,0 -1,0 -1,0 -3,2 -2,-5 0,-3 0,0 0,0 1,0 0,0 0,0 0,-1 -1,0 -3,0 -5,0 0,0 0,-2 1,-2 1,0 3,0 4,0 0,-1 0,-1 0,-1 0,0 -1,0 -1,0 -2,2 -2,-5 0,-3 0,0 1,0 1,0 0,0 0,0 0,-1 0,0 -1,0 -1,0 -1,0 -2,0 -3,0 0,0 0,-1 0,-2 1,0 3,0 4,0 0,0 0,-1 0,-1 0,0 0,0 -1,0 -2,2 -2,-5 1,-3 0,0 0,0 0,0 0,0 0,0 0,-1 -1,0 -3,0 -4,0 0,0 0,-1 0,-2 1,0 3,0 4,0 0,0 0,-1 0,-1 0,0 0,0 0,0 -3,2 -2,-5 0,-3 0,0 0,0 0,0 0,0 0,0 1,-1 -2,0 -3,0 -5,0 0,0 0,-1 0,-2 2,1 3,0 5,0 0,0 0,-1 0,-1 -1,0 -1,0 -1,0 -2,2 -2,-5 0,-3 0,0 1,0 1,0 0,0 0,0 0,-1 -1,0 -3,0 -4,0 -1,0 -1,-1 0,-2 1,1 2,0 3,0 0,0 1,0 1,0 0,0 0,-1 0,-1 0,0 0,0 -1,0 -2,2 -2,-5 0,-3 1,0 1,0 1,0 0,0 0,0 0,-1 -1,0 -3,0 -4,0 0,0 0,-1 0,-2 1,1 3,1 4,0 0,0 0,-1 0,-1 0,0 0,0 0,0 -3,2 -3,-4 0,-3 0,0 0,0 1,1 0,-1 0,-1 0,-2 -1,0 -1,0 -2,0 -1,0 -2,0 -3,0 0,0 0,-1 0,-2 2,1 3,1 5,0 0,0 0,-1 0,-1zm-14 191c1,0 2,0 2,0 1,0 2,1 2,1 2,1 2,-5 0,-3 0,0 -1,0 -2,1 0,0 -1,0 -2,-1 0,1 0,2 0,2zm0 7c0,0 1,0 2,0 1,0 2,1 2,1 2,1 2,-5 0,-3 -1,1 -3,1 -4,0 -1,1 -1,2 0,2zm-1 7c1,0 2,0 3,0 1,0 2,1 2,1 2,1 2,-5 0,-3 -1,1 -3,1 -5,0 0,1 0,2 0,2zm0 7c1,0 2,0 3,0 1,0 1,1 2,1 2,1 2,-5 0,-3 -1,1 -3,1 -5,0 0,1 0,2 0,2zm0 7c1,0 2,0 3,0 1,0 1,1 2,1 1,1 2,-5 0,-3 -1,0 -1,0 -2,0 -1,1 -2,1 -3,0 0,1 0,2 0,2zm0 7c1,0 2,0 3,0 0,0 1,1 2,1 1,1 1,-5 0,-3 -1,0 -2,0 -2,0 -1,1 -2,1 -3,0 0,1 0,2 0,2zm4 122c-1,0 -2,0 -2,0 0,0 0,1 0,1 1,0 1,0 1,1 0,0 0,0 1,0 0,-1 0,-1 0,-2zm-3 7c0,1 -1,1 -1,1 -1,0 -1,-1 -1,-3 0,0 -1,0 -1,0 0,1 0,2 0,3 1,0 1,0 2,0 1,1 1,0 2,0 0,0 -1,0 -1,-1zm-3 3c1,0 1,-1 2,0 1,0 1,1 2,1 1,1 1,0 1,-2 0,1 0,1 0,1 0,1 0,2 0,2 0,0 -1,0 -1,0 -1,0 -1,0 -2,-1 0,0 0,0 0,0 -1,-1 -1,0 -1,1 0,0 0,0 0,0 0,1 0,3 1,3 0,0 0,0 0,0 0,0 0,0 0,0 1,0 1,-1 2,-1 0,0 1,0 1,0 1,1 1,3 1,5 -1,1 -3,0 -4,0 -2,-3 -2,3 0,3 0,0 1,-1 2,-1 0,0 1,0 2,0 0,2 0,3 0,4 0,0 0,0 0,1 -2,1 -3,0 -4,-1 -2,-2 -2,4 0,3 0,0 1,0 2,0 0,0 1,0 2,0 0,2 0,3 0,5 -1,0 -2,0 -2,0 -1,0 -2,0 -2,-1 -2,-2 -2,4 0,3 0,0 1,0 1,0 1,0 2,0 3,0 0,2 0,3 0,5 -1,0 -2,0 -3,0 0,0 -1,0 -2,-1 -1,-2 -2,4 0,3 1,0 1,0 2,0 1,0 2,0 3,0 0,2 0,3 0,5 -1,0 -2,0 -3,0 -1,0 -1,0 -2,-1 -2,-2 -2,4 0,3 1,0 1,0 2,0 1,0 2,0 2,0 0,2 0,3 0,5 0,0 -1,0 -2,0 -1,0 -2,0 -2,-2 -2,-1 -2,5 0,4 0,0 1,0 2,0 1,0 2,0 2,0 0,2 0,3 0,5 -1,0 -1,0 -2,0 -1,0 -2,0 -2,-2 -2,-1 -2,5 0,4 0,0 1,0 2,0 1,0 1,0 2,0 0,2 0,3 0,5 -1,0 -2,0 -2,0 -1,0 -2,0 -2,-2 -2,-1 -2,5 0,4 0,0 1,0 2,0 0,0 1,0 2,0 0,2 0,3 0,5 0,0 0,0 0,0 -1,0 -2,0 -3,0 0,0 -1,0 -2,-2 -1,-1 -2,5 0,4 1,0 1,0 2,0 1,0 2,-1 3,0 0,0 0,0 0,0 0,1 0,3 0,5 0,0 0,0 0,0 -1,0 -2,0 -3,0 -1,0 -1,0 -2,-2 0,0 -1,0 -1,1 0,-1 0,-1 0,-2 0,0 1,0 1,0 1,1 1,2 2,2 2,2 2,-5 0,-3 0,0 -1,0 -2,0 0,-1 -1,-1 -1,0 0,-2 0,-4 0,-6 0,0 1,0 1,0 1,1 2,2 2,2 2,1 2,-5 0,-3 0,0 -1,0 -2,0 0,0 -1,0 -1,0 0,-2 0,-4 0,-6 0,0 1,0 1,0 1,1 2,2 2,2 2,2 2,-5 0,-3 0,0 0,0 -2,0 0,0 -1,0 -1,0 0,-2 0,-4 0,-6 0,0 1,0 2,0 1,1 1,2 1,2 2,2 2,-5 1,-3 -1,0 -2,1 -2,0 -1,0 -2,0 -2,0 0,-2 0,-4 -1,-6 1,0 2,0 3,0 1,1 1,2 2,2 2,2 2,-5 0,-3 -1,0 -1,0 -2,0 -1,-1 -2,0 -3,0 0,-5 0,-17 1,-25 0,-1 0,-1 0,-2 0,1 0,1 0,1 1,-1 2,-1 3,0 0,1 1,1 1,1 2,2 2,-5 0,-3 0,0 0,0 -1,0 -1,0 -2,0 -3,0 0,0 0,0 0,0 0,-1 0,-2 0,-3 0,0 0,-1 0,-2 1,0 1,0 1,0 0,0 0,0 0,0 0,0 0,0 0,0 0,0 1,0 1,0 1,0 1,1 2,1 0,0 0,0 1,0 0,1 1,0 1,-1 0,0 0,0 0,-1 0,0 0,0 0,0 0,0 0,0 0,0 0,-1 0,-2 -1,-1 0,0 0,0 0,0 -1,0 -1,0 -2,0 -1,0 -2,0 -2,0 0,-2 0,-3 0,-5zm5 74c-1,-1 -2,0 -3,0 -1,0 -2,0 -2,0 0,0 -1,0 -1,-1 0,1 0,1 0,1 0,0 1,0 1,1 1,0 1,0 2,0 2,-2 2,5 0,3 -1,0 -1,-1 -2,-2 -1,0 -1,0 -1,0 0,1 0,1 0,1 0,0 1,0 1,0 0,2 1,2 2,2 1,0 2,0 3,0 0,0 0,0 0,0 0,-2 0,-4 0,-5 0,0 0,0 0,0zm0 7c-1,0 -2,0 -3,0 -1,0 -2,0 -2,0 -1,0 -1,0 -1,0 0,0 0,0 0,0 0,0 0,0 1,1 1,0 1,0 2,0 1,-2 1,5 -1,3 0,0 0,-1 -2,-2 0,0 0,0 0,0 0,0 0,1 0,1 0,0 0,0 1,0 0,2 1,2 2,2 1,0 2,0 2,0 1,0 1,1 0,2 0,-1 -1,0 -2,0 -1,0 -2,0 -2,-1 -1,1 -1,1 -1,1 0,0 0,0 0,0 0,0 0,0 0,0 1,1 2,1 2,1 2,-2 2,4 0,3 0,0 -1,-1 -2,-2 0,0 0,0 0,0 0,0 0,1 0,1 0,0 0,0 1,0 0,1 1,2 1,2 1,0 2,0 3,0 1,0 1,1 0,2 -1,-1 -2,-1 -3,0 0,0 -1,0 -2,-1 0,1 0,1 0,1 0,0 0,0 0,0 0,0 0,0 0,0 1,1 2,1 2,1 2,-2 2,4 0,3 0,0 -1,-1 -2,-2 0,0 0,0 0,0 0,0 0,1 0,1 0,0 0,0 0,0 1,2 1,2 2,2 1,0 2,0 3,0 0,0 0,1 0,2 -1,-1 -2,0 -3,0 -1,0 -1,0 -2,-1 0,0 0,0 0,0 0,1 0,1 0,2 1,0 1,0 2,0 2,-2 2,5 0,3 -1,0 -1,-1 -2,-1 0,0 0,0 0,1 1,1 1,1 2,1 1,0 2,0 3,0 0,0 0,1 0,2 -1,-1 -2,-1 -3,0 -1,0 -1,0 -2,0 0,0 0,1 0,1 1,0 1,0 2,0 1,-1 1,2 1,3 -1,0 -1,0 -2,0 0,0 0,-1 0,-1 0,1 0,1 0,2 0,0 0,0 1,0 1,0 2,0 3,0 0,0 0,0 0,1 0,-1 1,-1 2,-1 0,-10 -1,-27 -1,-30 0,-1 0,-2 0,-3 0,0 0,0 0,0zm-2 35c0,-1 -1,-1 -2,0 -1,0 -1,0 -1,0 0,0 0,0 0,1 0,0 0,0 0,0 2,-2 2,4 0,3 0,0 0,0 0,-1 0,1 0,1 0,2 1,0 2,0 3,0 0,-2 0,-3 0,-3 0,-1 0,-2 0,-2zm0 7c-1,-1 -2,0 -3,0 0,0 0,0 0,1 0,0 0,0 0,0 2,-2 2,4 0,3 0,0 0,1 0,1 1,0 2,0 3,0 -1,-1 -1,-3 -1,-3 1,-1 1,-2 1,-2zm1 -2c0,0 0,1 0,1m-1 8c-1,-1 -2,-1 -3,0 0,0 0,0 0,0 0,0 0,0 0,0 0,0 1,0 1,0 1,1 2,1 3,1 -1,-1 -1,-1 -1,-1 0,0 0,0 0,0zm-4 -109c1,-1 2,-1 2,0 1,0 2,1 2,1 2,2 2,-5 0,-3 0,0 -1,0 -2,0 0,0 -1,0 -2,0 0,0 0,1 0,2zm0 7c0,-1 2,-1 2,0 1,0 2,1 2,1 2,2 2,-5 0,-3 0,0 -1,0 -2,0 -1,0 -2,0 -2,0 -1,0 -1,1 0,2zm-1 7c1,-1 2,-1 3,0 1,0 1,1 2,1 2,2 2,-5 0,-3 0,0 -1,0 -2,0 -1,0 -2,0 -3,0 0,0 0,1 0,2zm0 12c0,0 0,1 0,1 0,2 0,4 0,6 0,0 0,0 0,0 0,-4 0,-7 0,-7 -1,-4 0,-17 0,-26 0,9 0,17 0,26zm0 9c0,0 0,0 0,0 0,1 0,3 0,4 0,0 0,0 0,0 0,-1 0,-3 0,-5 0,0 0,0 0,1zm0 6c0,2 0,4 0,6m-1 1c0,2 0,4 0,5m0 2c0,2 0,4 0,6m0 1c0,0 0,0 0,0 0,1 0,3 0,4 0,0 0,-2 0,-4z"/>
  </g>
 </g>
</svg>
