<svg xmlns="http://www.w3.org/2000/svg" xml:space="preserve" width="8.1056in" height="8.952in" version="1.1" style="shape-rendering:geometricPrecision; text-rendering:geometricPrecision; image-rendering:optimizeQuality; fill-rule:evenodd; clip-rule:evenodd"
viewBox="0 0 759 838"
 xmlns:xlink="http://www.w3.org/1999/xlink">
 <defs>
  <style type="text/css">
   <![CDATA[
    .str0 {stroke:black;stroke-width:0.650344}
    .fil2 {fill:black}
    .fil0 {fill:white}
    .filin {fill:white}
   ]]>
  </style>
 </defs>
 <g id="Layer_x0020_1">
  <metadata id="CorelCorpID_0Corel-Layer"/>
  <g id="_946255792">
   <path class="fil0" d="M305 0c56,11 78,18 137,6 19,-4 16,-6 31,6 4,3 7,5 10,8l0 0c1,1 1,1 2,2 1,2 3,4 3,6 45,19 151,48 173,69 19,19 20,29 28,56 3,12 6,23 8,35 11,65 62,126 62,173 0,11 -69,28 -85,31 -40,9 -16,20 -62,20l0 119c0,30 -7,46 -7,63 0,5 15,21 1,61 -1,5 -8,21 -8,25 0,11 2,10 4,18 1,6 1,11 2,17 3,21 3,35 1,55 -3,21 -13,12 -40,19 -67,16 -107,49 -184,49l-46 0c-23,0 -41,-3 -78,-12 -37,-10 -40,-10 -79,-10 -7,0 -17,1 -23,0 -7,-2 -8,-6 -10,-13 -7,-24 -7,-55 -7,-82 0,-14 -5,-36 -5,-40 0,-22 6,-18 6,-30 0,-9 -5,-16 -7,-23 -13,-37 3,-43 3,-65 0,-9 -3,-12 -3,-22l0 -18c0,-19 10,-100 10,-113 0,-4 -6,-5 -14,-11 -7,-5 -30,-5 -42,-5 -5,0 -15,-1 -20,-2 -12,-2 -26,-7 -36,-10 -24,-9 -29,-9 -30,-16l0 -14c0,-17 43,-154 60,-181 4,-6 3,-10 5,-17 2,-6 3,-11 5,-16 21,-64 39,-63 97,-78 21,-6 44,-15 65,-23 6,-2 32,-5 40,-9 0,0 0,0 0,0 1,-2 1,-3 2,-5 6,-4 20,-17 28,-23 1,0 2,0 3,0z"/>
   <path class="filin" d="M303 5c65,10 86,15 152,1 2,-1 2,-2 5,2 1,3 18,12 22,19 5,8 -25,127 -39,128 -4,-6 -53,-45 -59,-43 26,0 52,-34 66,-61 -39,10 -103,10 -141,-2 13,28 38,63 65,63 -6,-2 -54,37 -58,43 -15,-1 -50,-120 -38,-130 8,-7 25,-20 25,-20z"/>
  </g>
  <g id="_946234128">
   <path class="filin str0" d="M375 117c3,0 6,0 9,0 -1,0 -2,-1 -2,-1l0 0 0 0c0,0 0,0 0,0l0 0c-1,0 -1,-1 -2,-1l0 0 0 0 0 0 0 0 0 0c0,-1 0,-1 0,-2l0 0 0 0 0 0 0 0 0 0 0 0 0 0 0 0c0,-1 0,-1 0,-2l0 0 0 0 0 0 0 0c0,0 0,-1 0,-1l0 0 0 0c0,0 0,0 1,-1l0 0c0,0 0,0 1,-1l0 0 0 0 0 0 0 0 0 0c1,0 1,-1 2,-1 19,-2 28,-9 40,-23 4,-5 11,-16 17,-28 -37,8 -87,8 -124,-1 7,13 14,24 18,29 12,15 21,21 39,24 1,0 2,0 3,0l0 0 0 1 0 0 0 0c0,0 0,0 1,1l0 0 0 0 0 0 0 0 0 0c0,0 0,0 0,0l0 0c0,0 1,1 1,2l0 0 0 0c0,0 0,1 0,1l0 0 0 0 0 0 0 0 0 1 0 0c0,0 -1,1 -1,1l0 0 0 0 0 0 0 0c0,1 -1,1 -1,1l0 0 0 0 0 0 0 0 0 0c0,0 0,0 0,0l0 0c-1,1 -2,1 -2,1z"/>
   <g>
    <path class="fil0" d="M399 114c15,9 36,27 45,35 14,-14 40,-108 34,-121 -3,-2 -8,-9 -13,-13 -1,11 -6,32 -21,56 -12,20 -24,36 -45,43z"/>
    <path class="fil0" d="M359 114c-20,-7 -33,-22 -45,-43 -14,-24 -19,-41 -20,-52 -5,4 -10,8 -13,9 0,0 0,0 0,0 -1,3 -1,7 0,12l0 0 0 0c2,30 22,98 34,110 9,-9 29,-27 44,-36z"/>
    <path class="fil0" d="M305 10c0,0 -1,1 -1,1 -2,7 2,21 8,34 37,10 96,12 134,1 7,-14 11,-28 9,-35 -67,13 -86,9 -150,-1z"/>
   </g>
  </g>
  <path class="fil2" d="M604 391c34,-7 35,-13 45,-15 0,10 -12,23 -32,21 -15,-1 -12,-3 -13,-6zm-231 -274c-14,4 -53,43 -58,43 -14,-1 -40,-74 -43,-115l-67 19c-20,7 -40,12 -61,17 -23,6 -34,10 -47,31 -14,25 -10,46 -23,66 -4,8 -19,26 -30,54 -16,44 -30,104 -30,105 11,4 35,10 39,19 -8,5 -26,-8 -40,-7 -3,8 3,10 9,13 14,6 38,13 53,16 15,3 27,3 43,2 23,-2 16,14 32,12 3,-11 -27,-183 -27,-218 -1,-16 -6,-45 10,-38 0,2 0,4 0,6 -7,86 -1,159 27,247 27,84 40,184 86,260 9,14 27,31 29,41 -7,-3 -17,-15 -22,-20 -6,-8 -11,-15 -17,-24 -20,-29 -42,-74 -56,-108 -3,-7 -19,-122 -22,-124 -2,3 -2,4 -3,8 -7,28 -12,104 -4,136 5,23 -20,27 -1,77 7,18 0,29 -2,38 -2,10 1,12 3,22 3,19 0,88 10,104 18,3 41,1 61,4 64,10 78,28 168,22 55,-4 100,-27 149,-44 16,-6 49,-11 51,-13 5,-18 0,-60 -6,-78 -4,3 -26,29 -45,45 -3,3 -3,3 -8,5 4,-12 30,-33 42,-48 10,-13 34,-68 21,-84 -6,3 -15,24 -19,32 -13,22 -23,41 -37,64 -4,7 -13,27 -21,29 -2,-5 1,-7 5,-14 18,-32 34,-55 52,-91 20,-41 26,-159 22,-206 -6,4 -17,107 -21,116 -6,17 -12,34 -19,52 -6,18 -13,33 -20,51 -3,8 -7,17 -11,24 -3,5 -4,8 -7,12 -4,6 -1,7 -10,8 2,-7 10,-20 14,-27 17,-35 40,-103 53,-142 6,-19 14,-105 19,-125 12,-48 3,-196 27,-216 1,0 1,1 1,1 0,0 0,1 0,1 1,4 0,5 -2,16 -18,85 -2,105 -15,188 23,1 45,-9 47,-29 5,-58 7,-91 3,-152 0,0 0,0 0,0 1,-1 1,-2 1,-3 0,0 0,0 0,0 0,-1 0,-2 0,-3l0 -5c2,-2 4,-4 6,-5 -10,58 -3,126 -6,195 25,0 69,-14 88,-24 1,-8 -1,-8 -4,-15 -21,0 -56,19 -77,17 3,-6 10,-7 17,-9l59 -16c-10,-57 -34,-54 -51,-108 -2,-6 -4,-25 -5,-32 -5,-35 -21,-84 -58,-100 -10,-5 -105,-37 -138,-48 -3,40 -29,114 -44,116 -4,0 -43,-40 -58,-43 0,0 -1,0 -1,0l0 0 0 0 -1 0 0 0c0,0 -1,-1 -1,-1l0 0 0 0c0,0 0,0 0,0l0 0c-1,0 -1,-1 -2,-1l0 0 0 0 0 0 0 0 0 0c0,-1 0,-1 0,-2l0 0 0 0 0 0 0 0 0 0 0 0 0 0 0 0c0,-1 0,-1 0,-2l0 0 0 0 0 0 0 0c0,0 0,-1 0,-1l0 0 0 0c0,0 0,0 0,-1l0 0c1,0 1,0 2,-1l0 0 0 0 0 0 0 0 0 0c1,0 1,-1 2,-1 19,-2 28,-9 40,-23 4,-5 10,-16 17,-28 -37,8 -88,8 -124,-1 7,13 14,24 18,29 12,15 21,21 39,24 1,0 2,0 2,0l0 0 1 1 0 0 0 0c0,0 0,0 1,1l0 0 0 0 0 0 0 0 0 0c0,0 0,0 0,0l0 0c0,0 1,1 1,2l0 0 0 0c0,0 0,1 0,1l0 0 0 0 0 0 0 0 0 1 0 0c-1,0 -1,1 -1,1l0 0 0 0 0 0 0 0c0,1 -1,1 -1,1l0 0 0 0 0 0 0 0 0 0c0,0 0,0 0,0l0 0c-1,1 -2,1 -2,1l0 0 0 0c-1,0 -1,0 -2,0zm-101 -89c1,-2 1,-3 2,-5 6,-4 20,-17 28,-23 1,0 2,0 3,0 56,11 78,18 137,6 19,-4 16,-6 31,6 4,3 7,5 10,8l0 0c1,1 1,1 2,2 1,2 3,4 3,6 45,19 151,48 173,69 19,19 20,29 28,56 3,12 6,23 8,35 11,65 62,126 62,173 0,11 -69,28 -85,31 -40,9 -16,20 -62,20l0 119c0,30 -7,46 -7,63 0,5 15,21 1,61 -1,5 -8,21 -8,25 0,11 2,10 4,18 1,6 1,11 2,17 3,21 3,35 1,55 -3,21 -13,12 -40,19 -67,16 -107,49 -184,49l-46 0c-23,0 -41,-3 -78,-12 -37,-10 -40,-10 -79,-10 -7,0 -17,1 -23,0 -7,-2 -8,-6 -10,-13 -7,-24 -7,-55 -7,-82 0,-14 -5,-36 -5,-40 0,-22 6,-18 6,-30 0,-9 -5,-16 -7,-23 -13,-37 3,-43 3,-65 0,-9 -3,-12 -3,-22l0 -18c0,-19 10,-100 10,-113 0,-4 -6,-5 -14,-11 -7,-5 -30,-5 -42,-5 -5,0 -15,-1 -20,-2 -12,-2 -26,-7 -36,-10 -24,-9 -29,-9 -30,-16l0 -14c0,-17 43,-154 60,-181 4,-6 3,-10 5,-17 2,-6 3,-11 5,-16 21,-64 39,-63 97,-78 21,-6 44,-15 65,-23 6,-2 32,-5 40,-9 0,0 0,0 0,0zm33 -18c0,0 -1,1 -1,1 -2,7 2,21 8,34 37,10 96,12 134,1 7,-14 11,-28 9,-35 -67,13 -86,9 -150,-1zm54 104c-20,-7 -33,-22 -45,-43 -14,-24 -19,-41 -20,-52 -5,4 -10,8 -13,9 0,0 0,0 0,0 -1,3 -1,7 0,12l0 0 0 0c2,30 22,98 34,110 9,-9 29,-27 44,-36zm40 0c15,9 36,27 45,35 14,-14 40,-108 33,-121 -2,-2 -7,-9 -13,-13 0,11 -5,32 -20,56 -12,20 -25,36 -45,43zm-179 401c-4,-7 -15,-96 -21,-98 -6,8 32,131 36,138 12,19 34,45 48,63l20 21c3,3 4,5 7,8 5,5 9,8 14,13 4,4 9,10 14,14 10,8 49,45 65,44 -1,-6 -2,-4 -6,-7l-24 -18c-58,-41 -118,-117 -153,-178zm-65 185c2,2 -1,1 4,5 3,2 26,13 29,14 19,9 97,48 111,41 -2,-3 1,0 -3,-3l-33 -12c-24,-9 -99,-44 -108,-45z"/>
  <path class="fil2" d="M375 115c2,0 5,0 8,0 2,0 6,-1 7,0 2,1 2,3 2,4 -1,17 -3,34 -4,51 0,8 0,16 0,24 -1,14 -2,27 -3,41 -1,14 -1,28 -1,42 0,5 -3,6 -7,6 -3,0 -6,0 -9,0 -4,0 -9,-1 -8,-6 1,-27 2,-53 3,-80 1,-20 1,-40 2,-60 0,-6 0,-12 0,-18 0,-1 1,-3 2,-4 2,-1 5,0 8,0zm0 2c2,0 5,0 8,0 4,0 7,-2 7,2 -1,17 -3,34 -3,51 -1,35 -5,69 -5,107 0,4 -1,4 -5,4 -3,0 -6,0 -9,0 -4,0 -7,0 -7,-4 4,-75 5,-113 6,-158 0,-4 4,-2 8,-2z"/>
  <path class="fil0" d="M375 117c2,0 5,0 8,0 4,0 7,-2 7,2 -1,17 -3,34 -3,51 -1,35 -5,69 -5,107 0,4 -1,4 -5,4 -3,0 -6,0 -9,0 -4,0 -7,0 -7,-4 4,-75 5,-113 6,-158 0,-4 4,-2 8,-2z"/>
  <path class="fil2" d="M365 276c-1,-12 8,-117 6,-127 -6,-2 -13,-5 -8,-8 2,-1 4,-4 6,-8 0,0 0,-1 0,-1l-3 -1 0 0 0 -1 3 -19 1 0 0 0c1,0 3,0 4,0l1 0 0 1 0 0 0 0 0 0 1 6c1,0 2,0 4,1 0,-1 1,-1 2,-1 0,0 1,0 1,0l0 -1c-1,0 -3,0 -4,1 -2,1 -3,-1 -3,-3 1,0 1,0 1,0 1,0 2,0 2,0 1,-1 1,-1 2,-1 0,0 1,0 1,1 1,0 1,0 1,0 0,-1 0,-2 1,-3 0,0 0,0 0,0 1,1 1,1 2,1 1,0 1,0 2,0 0,0 1,0 1,0 -1,3 -1,5 -2,7 0,1 -1,2 -1,3l0 0c0,1 0,2 0,3 0,1 0,2 0,4 0,0 0,0 0,0 0,0 0,1 0,2 0,0 0,0 0,0 1,0 1,2 0,2l0 0c0,2 0,4 0,7l0 0c0,0 0,2 0,2l0 0c0,2 -1,4 -1,6 0,0 0,0 1,0 0,1 0,2 0,3 -1,0 -1,0 -1,0 -1,2 -1,4 -1,6 0,0 1,0 1,0 1,1 1,2 0,3 0,0 -1,-1 -1,-1 -1,3 -1,5 -1,7 1,0 1,0 2,0 0,0 0,2 0,2 -1,0 -2,0 -2,0 -1,2 -1,5 -1,7 1,0 2,0 2,0 1,0 1,2 0,2 -1,0 -1,0 -2,0 0,2 0,5 0,7 1,0 1,-1 2,-1 0,1 0,2 0,3 -1,0 -1,0 -2,0 0,2 0,4 0,6 1,0 1,0 1,0 1,1 1,2 0,3 0,0 0,0 -1,-1 0,3 0,5 0,7 0,0 1,0 1,0 0,0 0,2 0,2 0,0 -1,0 -1,0 0,2 0,5 0,7 0,0 0,0 0,0 1,0 1,2 0,2 0,0 0,0 0,0 -1,2 -1,4 -1,7 0,-1 1,-1 1,-1 0,1 0,2 0,3 -1,0 -1,0 -1,0 -1,2 -1,4 -1,6 0,0 1,0 1,0 1,1 1,2 0,3 0,-1 -1,-1 -1,-1 -1,3 -1,5 -1,7 1,0 1,0 2,0 0,0 0,2 0,2 -1,0 -2,0 -2,0 0,2 -1,5 -1,7 1,0 2,0 2,-1 1,1 1,2 0,3 0,0 -1,0 -2,0 0,3 0,5 0,6 0,0 0,0 0,1 1,0 1,-1 2,-1 0,1 0,2 0,3 -1,0 -1,0 -2,0l0 6c0,0 1,0 1,0 1,1 1,2 0,3 0,-1 -1,-1 -1,-1l-1 7c1,0 1,0 2,0 0,0 0,2 0,2 -1,0 -1,0 -2,0l0 3c-5,3 -1,2 -5,2 -2,0 -3,-1 -4,0 0,-1 0,-2 0,-3 2,1 4,1 6,0l0 -1c-1,0 -1,0 -2,0 -3,2 -2,-6 0,-4 1,0 1,0 2,1l0 -2c-2,0 -4,-1 -6,0 0,-1 0,-2 0,-2 2,0 4,0 6,-1l0 -1c-1,0 -1,0 -1,0 -3,2 -3,-6 0,-4 0,0 0,1 1,1l0 -2c-1,0 -1,0 -2,0 -1,0 -2,0 -3,0 -1,0 -1,-2 0,-2 1,0 4,0 5,0l0 -2c0,0 -1,0 -1,1 -3,2 -2,-6 0,-4 0,0 1,0 1,0l0 -1c-1,-1 -4,-1 -5,0 0,-1 0,-2 0,-3 2,0 4,0 5,0l0 -1c0,0 0,0 -1,0 -2,2 -2,-6 1,-4 0,0 0,0 0,0l0 -1c-1,-1 -3,-1 -5,0 0,-1 0,-2 0,-3 2,1 4,1 6,0l0 -1c-1,0 -1,0 -1,0 -3,2 -3,-6 0,-4 0,0 1,0 1,0l0 -1c-2,0 -4,0 -5,0 -1,-1 -1,-2 0,-3 1,1 3,1 4,1 0,0 1,0 1,-1l0 -1c0,0 0,0 -1,0 -3,2 -2,-6 1,-4 0,0 0,1 0,1l1 -2c-2,0 -4,0 -6,0 0,0 0,-2 0,-2 2,0 4,0 6,0l0 -2c-1,0 -1,0 -1,1 -3,2 -3,-6 0,-5 0,1 1,1 1,1l0 -1c0,0 -1,-1 -2,-1 -1,0 -2,0 -4,0 0,0 0,-1 1,-2 1,0 4,0 5,0l0 -2c0,1 -1,1 -1,1 -3,2 -3,-6 0,-4 1,0 1,0 2,0l0 -1c-1,0 -1,0 -2,0 -1,-1 -3,-1 -4,0 0,0 0,-1 0,-1 -2,25 -2,50 -3,60 0,3 0,6 0,10 -1,0 -2,-1 -3,-2zm17 -153c0,0 0,0 -1,0 1,0 1,0 1,-1 0,0 0,0 1,0l-1 1zm-8 28c0,0 1,0 1,1 1,1 1,1 3,1 0,-1 1,-1 2,-1l0 1c0,0 -2,1 -3,1 -1,0 -2,0 -4,0l1 -3zm7 -7c0,0 0,0 0,0 0,0 -1,-1 -1,-1 1,0 1,0 1,0l0 1zm0 -3c0,0 -1,0 -1,0 0,-1 -1,-1 -1,-2 1,0 2,0 2,1 0,0 0,0 0,0l0 1zm1 -6c-1,0 -1,0 -1,1 0,0 -1,0 -2,0 0,0 0,-1 0,-1 1,0 2,-1 3,-1l0 1zm0 -3c-1,0 -2,0 -3,-1 0,0 0,0 0,-1 1,0 2,1 2,1 0,0 1,0 1,0l0 1zm-2 29c-1,0 -2,0 -3,0 -3,2 -3,-6 0,-4 1,1 2,1 3,1l0 -1c-1,0 -2,-1 -3,-1 -1,0 -2,0 -4,0l0 7c2,0 5,0 7,-1l0 -1zm-7 4c1,0 2,0 4,0 1,0 2,0 3,1l-1 1c0,0 -1,-1 -2,-1 0,0 0,0 0,0 0,0 0,0 0,0 -1,-1 -2,0 -2,2 0,0 0,0 0,0 0,2 0,3 2,2 0,0 0,0 0,0 1,0 1,0 2,-1l0 2c-2,1 -5,1 -6,0l0 -6zm-1 9c1,0 1,0 1,-1 0,0 0,1 0,0 0,0 1,1 1,0l1 0c0,0 0,0 0,0 1,0 2,1 3,1 0,0 1,0 1,0l0 2c-1,-1 -2,-1 -2,-1 -3,-2 -3,6 0,4 0,0 1,-1 2,-1l0 2c-2,0 -5,1 -7,0l0 -6zm6 13c-1,0 -1,0 -2,1 -3,1 -3,-6 0,-4 1,0 2,0 2,0l0 -1c0,0 -1,0 -2,-1 -1,0 -3,0 -4,0l0 7c1,0 2,0 4,0 1,0 1,0 2,-1l0 -1zm0 9c-1,0 -2,0 -2,0 -3,2 -3,-6 0,-4 0,1 1,1 2,1l0 -1c-2,-1 -5,-1 -6,-1l-1 6 0 0c2,1 5,1 6,0l1 -1zm-1 9c-1,0 -1,0 -1,0 -3,2 -3,-6 0,-4 0,0 1,0 1,1l0 -2c0,0 -1,0 -2,0 -1,0 -3,0 -4,0l0 0 0 7c0,-1 0,-1 0,-1 2,1 4,1 6,0l0 -1z"/>
 </g>
</svg>
