<svg xmlns="http://www.w3.org/2000/svg" xml:space="preserve" width="8.1056in" height="8.952in" version="1.1" style="shape-rendering:geometricPrecision; text-rendering:geometricPrecision; image-rendering:optimizeQuality; fill-rule:evenodd; clip-rule:evenodd"
viewBox="0 0 534 590"
 xmlns:xlink="http://www.w3.org/1999/xlink">
 <defs>
  <style type="text/css">
   <![CDATA[
    .fil2 {fill:black}
    .fil0 {fill:white}
    .filin {fill:white}
   ]]>
  </style>
 </defs>
 <g id="Layer_x0020_1">
  <metadata id="CorelCorpID_0Corel-Layer"/>
  <g id="_946243472">
   <g>
    <path class="fil0" d="M214 0c40,8 56,13 97,4 13,-3 11,-4 22,5 2,1 5,3 6,5l1 0c0,1 0,1 1,2 1,1 2,3 2,4 32,13 106,33 122,48 13,13 14,21 20,40 2,8 4,16 5,25 8,45 44,88 44,121 0,7 -49,20 -60,22 -28,6 -11,14 -44,14l0 83c0,22 -5,33 -5,44 0,4 11,15 1,44 -1,3 -6,14 -6,17 0,8 2,7 3,13 1,4 1,7 2,12 2,14 2,25 0,38 -1,15 -9,9 -28,13 -47,12 -75,36 -129,36l-32 0c-17,-1 -30,-3 -55,-9 -26,-7 -29,-7 -56,-7 -4,0 -12,1 -16,-1 -5,-1 -6,-4 -7,-8 -5,-17 -5,-39 -5,-58 0,-10 -3,-26 -3,-28 0,-16 4,-13 4,-21 0,-6 -4,-12 -6,-17 -9,-25 3,-29 3,-45 0,-6 -2,-9 -2,-16l0 -12c0,-14 7,-70 7,-80 0,-3 -4,-3 -10,-7 -5,-4 -21,-4 -29,-4 -4,0 -11,-1 -15,-1 -8,-2 -18,-5 -25,-8 -17,-6 -20,-6 -21,-10l0 -10c0,-12 30,-109 42,-128 3,-4 3,-7 4,-12 1,-4 2,-7 3,-11 15,-45 27,-44 68,-55 15,-4 32,-11 46,-16 4,-1 23,-4 28,-6 0,0 0,0 1,0 0,-2 0,-3 1,-4 4,-3 14,-12 19,-16 1,0 2,0 2,0z"/>
    <path class="filin" d="M213 3c46,8 60,11 107,1 2,0 2,-1 3,1 1,3 13,9 16,14 3,6 -18,89 -28,90 -2,-4 -37,-32 -41,-30 19,0 37,-24 46,-43 -27,7 -72,7 -99,-1 9,19 27,44 46,44 -4,-2 -38,26 -41,30 -10,-1 -35,-84 -26,-92 5,-4 17,-14 17,-14z"/>
   </g>
   <path class="fil0" d="M254 189c1,-20 1,-40 2,-60 0,-11 0,-22 0,-33 0,-5 0,26 0,21 0,-3 0,-7 -1,-10 0,-7 -1,-15 -1,-22 0,-4 0,-5 3,-5 5,0 5,1 10,2 2,0 4,0 6,0 1,0 2,0 3,0 0,1 -1,3 -1,5 0,3 -1,6 -1,7 0,6 -1,13 -2,19 0,9 -1,-18 -1,-9 -1,8 4,17 3,25 0,7 0,12 0,18 1,8 1,16 0,23 0,6 0,11 1,17 -1,6 -8,3 -15,4 -2,1 -4,1 -5,-1 -1,0 -1,-1 -1,-1z"/>
   <path class="fil2" d="M260 195c-8,1 -10,-6 -10,-6 0,0 4,-58 2,-81 -1,-14 -1,-22 -1,-26 1,-6 0,-5 5,-4 3,0 6,0 11,0 13,1 13,-5 11,16 -3,21 -2,32 -1,53 1,21 0,30 1,39 1,5 -2,8 -7,8 -2,0 -5,0 -11,1zm-6 -6c1,-20 1,-40 2,-60 0,-11 0,-22 0,-33 0,-5 0,26 0,21 0,-3 0,-7 -1,-10 0,-7 -1,-15 -1,-22 0,-4 0,-5 3,-5 5,0 5,1 10,2 2,0 4,0 6,0 1,0 2,0 3,0 0,1 -1,3 -1,5 0,3 -1,6 -1,7 0,6 -1,13 -2,19 0,9 -1,-18 -1,-9 -1,8 4,17 3,25 0,7 0,12 0,18 1,8 1,16 0,23 0,6 0,11 1,17 -1,6 -8,3 -15,4 -2,1 -4,1 -5,-1 -1,0 -1,-1 -1,-1z"/>
   <path class="fil2" d="M262 89c1,0 1,0 1,1 0,1 0,1 -1,1 -1,0 -1,0 -1,-1 0,-1 0,-1 1,-1zm5 0c0,0 1,0 1,1 0,1 -1,1 -1,1 -1,0 -2,0 -2,-1 0,-1 1,-1 2,-1zm-5 4c1,0 1,1 1,1 0,1 0,2 -1,2 -1,0 -1,-1 -1,-2 0,0 0,-1 1,-1zm5 0c0,0 1,1 1,1 0,1 -1,2 -1,2 -1,0 -2,-1 -2,-2 0,0 1,-1 2,-1zm-3 -9c5,0 8,4 8,8 0,5 -3,8 -8,8 -4,0 -8,-3 -8,-8 0,-4 4,-8 8,-8z"/>
   <path class="fil2" d="M262 129c1,0 1,1 1,2 0,0 0,1 -1,1 -1,0 -1,-1 -1,-1 0,-1 0,-2 1,-2zm5 0c0,0 1,1 1,2 0,0 -1,1 -1,1 -1,0 -2,-1 -2,-1 0,-1 1,-2 2,-2zm-5 5c1,0 1,0 1,1 0,1 0,1 -1,1 -1,0 -1,0 -1,-1 0,-1 0,-1 1,-1zm5 0c0,0 1,0 1,1 0,1 -1,1 -1,1 -1,0 -2,0 -2,-1 0,-1 1,-1 2,-1zm-3 -9c5,0 8,3 8,8 0,4 -3,8 -8,8 -4,0 -8,-4 -8,-8 0,-5 4,-8 8,-8z"/>
   <path class="fil2" d="M262 170c1,0 1,0 1,1 0,1 0,1 -1,1 -1,0 -1,0 -1,-1 0,-1 0,-1 1,-1zm5 0c0,0 1,0 1,1 0,1 -1,1 -1,1 -1,0 -2,0 -2,-1 0,-1 1,-1 2,-1zm-5 4c1,0 1,1 1,1 0,1 0,2 -1,2 -1,0 -1,-1 -1,-2 0,0 0,-1 1,-1zm5 0c0,0 1,1 1,1 0,1 -1,2 -1,2 -1,0 -2,-1 -2,-2 0,0 1,-1 2,-1zm-3 -9c5,0 8,4 8,8 0,5 -3,8 -8,8 -4,0 -8,-3 -8,-8 0,-4 4,-8 8,-8z"/>
   <g>
    <path class="filin" d="M263 82c3,0 5,0 7,0 -1,0 -1,0 -1,0l-1 0 0 0c0,0 0,0 0,0l0 0c0,-1 0,-1 -1,-1l0 0 0 0 0 0 0 0 0 0c0,-1 0,-1 0,-1l0 0 0 0 0 0 0 0 0 0 0 0 0 -1 0 0c0,0 0,0 0,-1l0 0 0 0 0 0 0 0c0,0 0,0 0,-1l0 0 0 0c0,0 1,0 1,0l0 0c0,0 0,-1 0,-1l0 0 1 0 0 0 0 0 0 0c0,0 1,0 1,0 13,-2 19,-7 28,-17 3,-3 8,-11 12,-19 -26,5 -61,5 -87,-1 5,9 10,17 12,20 9,10 15,15 28,17 1,0 1,0 2,0l0 0 0 0 0 0 0 0c0,1 0,1 1,1l0 0 0 0 0 0 0 0 0 0c0,0 0,0 0,0l0 0c0,1 0,1 0,2l0 0 0 0c0,0 0,0 0,1l0 0 0 0 0 0 0 0 0 0 0 0c0,0 0,1 0,1l0 0 0 0 0 0 0 0c0,0 -1,0 -1,1l0 0 0 0 0 0 0 0 0 0c0,0 0,0 0,0l0 0c-1,0 -1,0 -2,0z"/>
    <g>
     <path class="fil0" d="M281 80c10,6 25,19 31,25 10,-10 29,-76 24,-85 -2,-2 -6,-6 -9,-9 -1,8 -5,22 -15,39 -8,14 -17,25 -31,30z"/>
     <path class="fil0" d="M253 80c-15,-5 -24,-16 -32,-30 -10,-17 -14,-29 -14,-37 -4,3 -8,6 -9,7 0,0 0,0 0,0 -1,2 -1,4 -1,8l0 0 0 0c2,21 16,69 25,77 6,-6 20,-18 31,-25z"/>
     <path class="fil0" d="M214 7c0,0 0,1 -1,1 -1,5 2,14 7,24 25,7 67,8 94,0 4,-10 8,-19 6,-24 -47,9 -61,6 -106,-1z"/>
    </g>
   </g>
   <path class="fil2" d="M425 275c23,-5 24,-9 31,-10 0,6 -8,16 -22,14 -11,-1 -9,-2 -9,-4zm-163 -193c-10,3 -37,31 -40,31 -11,-1 -28,-53 -31,-81l-47 13c-14,5 -28,9 -43,12 -16,5 -24,7 -33,22 -10,17 -7,32 -16,46 -3,6 -13,18 -21,38 -12,31 -21,73 -21,74 8,3 25,7 27,14 -6,3 -18,-6 -28,-6 -2,6 3,8 7,9 10,5 26,10 36,12 11,2 20,2 31,1 16,-1 11,10 22,9 3,-8 -18,-129 -19,-154 0,-11 -3,-32 8,-27 0,2 0,3 -1,5 -4,61 0,112 19,173 19,59 28,130 61,183 6,10 19,22 20,29 -4,-2 -12,-10 -15,-14 -4,-5 -8,-11 -12,-17 -14,-20 -30,-51 -39,-75 -2,-6 -14,-86 -16,-88 -1,2 -1,3 -2,6 -5,20 -9,73 -3,96 4,16 -14,19 0,54 4,12 0,20 -2,27 -2,7 1,8 2,14 2,14 0,63 7,74 13,2 29,0 43,3 45,7 55,20 119,15 38,-3 69,-19 104,-31 11,-4 35,-8 36,-9 3,-13 0,-42 -5,-55 -2,2 -18,21 -31,32 -2,2 -2,2 -6,3 3,-8 22,-22 30,-33 7,-10 24,-48 14,-60 -3,3 -10,18 -13,23 -9,16 -16,29 -25,45 -3,5 -10,19 -15,21 -2,-4 0,-6 3,-10 13,-23 24,-39 36,-64 15,-29 19,-112 16,-145 -4,2 -12,75 -14,81 -5,12 -9,24 -14,37 -4,12 -9,23 -14,35 -2,6 -5,12 -8,18 -2,3 -3,5 -4,8 -3,4 -2,5 -8,6 2,-5 7,-14 10,-19 12,-25 28,-73 37,-100 5,-13 10,-74 13,-88 9,-34 3,-138 20,-152 0,0 0,1 0,1 0,0 1,0 1,0 0,3 0,4 -2,12 -12,59 -1,73 -10,132 16,1 31,-6 32,-20 4,-41 5,-64 3,-107 0,0 0,0 0,-1 0,0 0,-1 0,-1 0,0 0,-1 0,-1 0,0 1,-1 1,-2l0 -3c1,-2 2,-3 4,-4 -7,41 -3,89 -5,138 18,-1 49,-11 62,-17 1,-6 0,-6 -2,-11 -15,0 -40,13 -55,12 2,-4 7,-5 12,-6l41 -12c-6,-40 -23,-38 -35,-75 -2,-5 -3,-18 -4,-23 -3,-25 -15,-59 -40,-70 -8,-4 -74,-26 -98,-34 -2,28 -20,80 -30,81 -3,1 -31,-27 -41,-30 -1,0 -1,0 -1,0l0 0 0 0 0 0 0 0c-1,0 -1,0 -1,0l-1 0 0 0c0,0 0,0 0,0l0 0c0,-1 0,-1 -1,-1l0 0 0 0 0 0 0 0 0 0c0,-1 0,-1 0,-1l0 0 0 0 0 0 0 0 0 0 0 0 0 -1 0 0c0,0 0,0 0,-1l0 0 0 0 0 0 0 0c0,0 0,0 0,-1l0 0 0 0c0,0 1,0 1,0l0 0c0,0 0,-1 0,-1l0 0 1 0 0 0 0 0 0 0c0,0 1,0 1,0 13,-2 19,-7 28,-17 3,-3 8,-11 12,-19 -26,5 -61,5 -87,-1 5,9 10,17 12,20 9,10 15,15 28,17 1,0 1,0 2,0l0 0 0 0 0 0 0 0c0,1 0,1 1,1l0 0 0 0 0 0 0 0 0 0c0,0 0,0 0,0l0 0c0,1 0,1 0,2l0 0 0 0c0,0 0,0 0,1l0 0 0 0 0 0 0 0 0 0 0 0c0,0 0,1 0,1l0 0 0 0 0 0 0 0c0,0 -1,0 -1,1l0 0 0 0 0 0 0 0 0 0c0,0 0,0 0,0l0 0c-1,0 -1,0 -2,0l0 0 0 0c0,0 0,0 -1,0zm-70 -62c0,-2 0,-3 1,-4 4,-3 14,-12 19,-16 1,0 2,0 2,0 40,8 56,13 97,4 13,-3 11,-4 22,5 2,1 5,3 6,5l1 0c0,1 0,1 1,2 1,1 2,3 2,4 32,13 106,33 122,48 13,13 14,21 20,40 2,8 4,16 5,25 8,45 44,88 44,121 0,7 -49,20 -60,22 -28,6 -11,14 -44,14l0 83c0,22 -5,33 -5,44 0,4 11,15 1,44 -1,3 -6,14 -6,17 0,8 2,7 3,13 1,4 1,7 2,12 2,14 2,25 0,38 -1,15 -9,9 -28,13 -47,12 -75,36 -129,36l-32 0c-17,-1 -30,-3 -55,-9 -26,-7 -29,-7 -56,-7 -4,0 -12,1 -16,-1 -5,-1 -6,-4 -7,-8 -5,-17 -5,-39 -5,-58 0,-10 -3,-26 -3,-28 0,-16 4,-13 4,-21 0,-6 -4,-12 -6,-17 -9,-25 3,-29 3,-45 0,-6 -2,-9 -2,-16l0 -12c0,-14 7,-70 7,-80 0,-3 -4,-3 -10,-7 -5,-4 -21,-4 -29,-4 -4,0 -11,-1 -15,-1 -8,-2 -18,-5 -25,-8 -17,-6 -20,-6 -21,-10l0 -10c0,-12 30,-109 42,-128 3,-4 3,-7 4,-12 1,-4 2,-7 3,-11 15,-45 27,-44 68,-55 15,-4 32,-11 46,-16 4,-1 23,-4 28,-6 0,0 0,0 1,0zm22 -13c0,0 0,1 -1,1 -1,5 2,14 7,24 25,7 67,8 94,0 4,-10 8,-19 6,-24 -47,9 -61,6 -106,-1zm39 73c-15,-5 -24,-16 -32,-30 -10,-17 -14,-29 -14,-37 -4,3 -8,6 -9,7 0,0 0,0 0,0 -1,2 -1,4 -1,8l0 0 0 0c2,21 16,69 25,77 6,-6 20,-18 31,-25zm28 0c10,6 25,19 31,25 10,-10 29,-76 24,-85 -2,-2 -6,-6 -9,-9 -1,8 -5,22 -15,39 -8,14 -17,25 -31,30zm-126 282c-3,-4 -11,-67 -15,-69 -4,6 23,93 25,97 9,14 24,32 34,45l14 15c2,2 3,3 5,5 3,3 6,6 10,9 3,3 6,7 10,10 7,6 34,32 45,31 0,-4 -1,-3 -4,-5l-17 -13c-40,-29 -82,-82 -107,-125zm-46 130c1,2 0,1 3,4 2,1 18,9 20,10 14,6 68,34 78,29 -1,-3 1,-1 -2,-3l-23 -8c-17,-7 -70,-31 -76,-32z"/>
  </g>
 </g>
</svg>
