<svg xmlns="http://www.w3.org/2000/svg" xml:space="preserve" width="8.1056in" height="8.83302in" version="1.1" style="shape-rendering:geometricPrecision; text-rendering:geometricPrecision; image-rendering:optimizeQuality; fill-rule:evenodd; clip-rule:evenodd"
viewBox="0 0 534 582"
 xmlns:xlink="http://www.w3.org/1999/xlink">
 <defs>
  <style type="text/css">
   <![CDATA[
    .fil2 {fill:black !important}
    .fil0 {fill:white}
    .filin {fill:white}
   ]]>
  </style>
 </defs>
 <g id="Layer_x0020_1">
  <metadata id="CorelCorpID_0Corel-Layer"/>
  <g id="_946218544">
   <path class="fil0" d="M490 125c8,45 44,88 44,121 0,8 -49,20 -60,22 -28,6 -11,14 -44,14l0 84c0,21 -5,32 -5,44 0,3 11,15 1,43 -1,3 -6,14 -6,17 0,8 2,8 3,13 1,5 1,8 2,12 2,15 2,25 0,39 -1,14 -9,8 -28,13 -47,11 -75,35 -129,35l-32 0c-17,-1 -30,-2 -55,-9 -26,-7 -29,-7 -56,-7 -4,0 -12,1 -16,0 -5,-2 -6,-5 -7,-9 -5,-17 -5,-39 -5,-57 0,-10 -3,-26 -3,-29 0,-16 4,-13 4,-21 0,-6 -4,-11 -6,-17 -9,-25 3,-29 3,-45 0,-6 -2,-9 -2,-16l0 -12c0,-14 7,-70 7,-80 0,-2 -4,-3 -10,-7 -5,-4 -21,-4 -29,-4 -4,0 -11,-1 -15,-1 -8,-2 -18,-5 -25,-7 -17,-7 -20,-6 -21,-11l0 -10c0,-12 30,-109 42,-128 3,-4 3,-7 4,-12 1,-4 2,-7 3,-11 15,-45 27,-44 68,-55 15,-4 32,-10 46,-16 13,-4 38,-18 42,-18 6,0 41,24 104,11 44,-8 17,-12 50,4 30,14 89,29 106,45 13,13 14,21 20,40 2,8 4,16 5,25z"/>
   <g>
    <path class="filin" d="M262 83c2,0 5,1 7,1 -2,0 -3,-2 -4,-3 0,-17 4,-23 21,-28 3,-1 13,-6 15,-9 -12,2 -20,3 -33,2 -19,0 -26,-3 -31,-3 4,4 9,7 14,11 10,10 13,9 14,25 0,2 -1,4 -3,4z"/>
    <g>
     <path class="fil0" d="M327 20c-4,6 -12,15 -22,17 -20,5 -53,4 -72,-2 -10,-3 -16,-11 -20,-19 23,4 17,9 56,10 33,0 38,-5 58,-6z"/>
     <path class="fil0" d="M260 78c-1,-20 -18,-24 -31,-35 -17,-14 -20,-27 -26,-32 -3,1 -11,6 -12,8 -3,7 24,51 69,59z"/>
     <path class="fil0" d="M281 60c-7,4 -9,9 -9,19 32,-1 56,-18 72,-42 8,-13 8,-15 -5,-22 -3,2 -10,12 -13,15 -11,11 -27,25 -45,30z"/>
    </g>
   </g>
   <path class="fil2" d="M425 267c23,-5 24,-9 31,-10 0,7 -8,16 -22,14 -11,-1 -9,-2 -9,-4zm-144 -207c-7,4 -9,9 -9,19 32,-1 56,-18 72,-42 8,-13 8,-15 -5,-22 -3,2 -10,12 -13,15 -11,11 -27,25 -45,30zm-12 24c-2,0 -3,-2 -4,-3 0,-17 4,-23 21,-28 3,-1 13,-6 15,-9 -12,2 -20,3 -33,2 -19,0 -26,-3 -31,-3 4,4 9,7 14,11 10,10 13,9 14,25 0,2 -1,3 -2,4l0 0 0 0c0,0 0,0 -1,0 -9,2 -39,-13 -46,-20 -12,-12 -24,-21 -32,-41l-40 15c-14,5 -28,9 -43,12 -16,5 -24,7 -33,22 -10,18 -7,32 -16,47 -3,5 -13,17 -21,37 -12,31 -21,73 -21,74 8,3 25,7 27,14 -6,3 -18,-6 -28,-6 -2,7 3,8 7,10 10,4 26,9 36,11 11,2 20,2 31,1 16,-1 11,10 22,9 3,-8 -18,-129 -19,-154 0,-10 -3,-31 8,-26 0,1 0,3 -1,4 -4,61 0,112 19,173 19,60 28,130 61,184 6,9 19,21 20,28 -4,-2 -12,-10 -15,-14 -4,-5 -8,-11 -12,-16 -14,-21 -30,-52 -39,-76 -2,-6 -14,-86 -16,-88 -1,2 -1,3 -2,6 -5,20 -9,73 -3,96 4,16 -14,19 0,54 4,12 0,20 -2,27 -2,7 1,8 2,15 2,13 0,62 7,73 13,2 29,0 43,3 45,7 55,20 119,15 38,-2 69,-19 104,-31 11,-4 35,-8 36,-8 3,-14 0,-43 -5,-56 -2,2 -18,21 -31,32 -2,2 -2,2 -6,3 3,-8 22,-22 30,-33 7,-10 24,-48 14,-59 -3,2 -10,17 -13,22 -9,16 -16,29 -25,45 -3,5 -10,19 -15,21 -2,-4 0,-6 3,-10 13,-23 24,-39 36,-64 15,-29 19,-112 16,-145 -4,2 -12,75 -14,81 -5,12 -9,24 -14,37 -4,12 -9,24 -14,36 -2,5 -5,12 -8,17 -2,3 -3,5 -4,8 -3,5 -2,5 -8,6 2,-5 7,-14 10,-19 12,-25 28,-73 37,-100 5,-13 10,-74 13,-88 9,-33 3,-137 20,-152 0,0 0,1 0,1 0,0 1,0 1,1 0,2 0,3 -2,11 -12,60 -1,74 -10,132 16,1 31,-6 32,-20 4,-41 5,-64 3,-107 0,0 0,0 0,0 0,-1 0,-1 0,-2 0,0 0,0 0,-1 0,0 1,-1 1,-2l0 -3c1,-1 2,-3 4,-4 -7,41 -3,89 -5,138 18,0 49,-10 62,-17 1,-6 0,-6 -2,-11 -15,1 -40,14 -55,12 2,-4 7,-5 12,-6l41 -12c-6,-40 -23,-38 -35,-75 -2,-4 -3,-18 -4,-23 -3,-24 -15,-59 -40,-70 -10,-4 -78,-30 -84,-31 -4,4 -5,7 -8,12 -17,28 -46,44 -79,46zm-9 -6c-1,-20 -18,-24 -31,-35 -17,-14 -20,-27 -26,-32 -3,1 -11,6 -12,8 -3,7 24,51 69,59zm-105 276c-3,-4 -11,-67 -15,-69 -4,6 23,93 25,97 9,14 24,32 34,45l14 15c2,2 3,3 5,5 3,3 6,6 10,10 3,2 6,6 10,9 7,6 34,32 45,31 0,-4 -1,-3 -4,-5l-17 -12c-40,-30 -82,-83 -107,-126zm-46 130c1,2 0,1 3,4 2,2 18,9 20,10 14,6 68,34 78,29 -1,-3 1,-1 -2,-3l-23 -8c-17,-7 -70,-31 -76,-32zm159 98l-32 0c-17,-1 -30,-2 -55,-9 -26,-7 -29,-7 -56,-7 -4,0 -12,1 -16,0 -5,-2 -6,-5 -7,-9 -5,-17 -5,-39 -5,-57 0,-10 -3,-26 -3,-29 0,-16 4,-13 4,-21 0,-6 -4,-11 -6,-17 -9,-25 3,-29 3,-45 0,-6 -2,-9 -2,-16l0 -12c0,-14 7,-70 7,-80 0,-2 -4,-3 -10,-7 -5,-4 -21,-4 -29,-4 -4,0 -11,-1 -15,-1 -8,-2 -18,-5 -25,-7 -17,-7 -20,-6 -21,-11l0 -10c0,-12 30,-109 42,-128 3,-4 3,-7 4,-12 1,-4 2,-7 3,-11 15,-45 27,-44 68,-55 15,-4 32,-10 46,-16 13,-4 38,-18 42,-18 6,0 41,24 104,11 44,-8 17,-12 50,4 30,14 89,29 106,45 13,13 14,21 20,40 2,8 4,16 5,25 8,45 44,88 44,121 0,8 -49,20 -60,22 -28,6 -11,14 -44,14l0 84c0,21 -5,32 -5,44 0,3 11,15 1,43 -1,3 -6,14 -6,17 0,8 2,8 3,13 1,5 1,8 2,12 2,15 2,25 0,39 -1,14 -9,8 -28,13 -47,11 -75,35 -129,35zm59 -562c-4,6 -12,15 -22,17 -20,5 -53,4 -72,-2 -10,-3 -16,-11 -20,-19 23,4 17,9 56,10 33,0 38,-5 58,-6z"/>
   <g>
    <path class="fil0" d="M254 192c1,-21 1,-41 2,-61 0,-11 0,-21 0,-32 0,-5 0,25 0,21 0,-3 0,-7 -1,-10 0,-7 -1,-15 -1,-23 0,-4 0,-4 3,-4 5,0 5,1 10,1 2,0 4,0 6,0 1,0 2,0 3,0 0,1 -1,4 -1,6 0,3 -1,5 -1,6 0,7 -1,14 -2,20 0,8 -1,-18 -1,-10 -1,9 4,18 3,26 0,7 0,11 0,18 1,8 1,15 0,23 0,5 0,11 1,17 -1,6 -8,3 -15,4 -2,0 -4,0 -5,-1 -1,0 -1,-1 -1,-1z"/>
    <path class="fil2" d="M260 197c-8,2 -10,-5 -10,-5 0,0 4,-58 2,-82 -1,-13 -1,-21 -1,-25 1,-6 0,-5 5,-5 3,0 6,1 11,1 13,1 13,-5 11,16 -3,20 -2,32 -1,53 1,21 0,30 1,39 1,5 -2,8 -7,8 -2,-1 -5,0 -11,0zm-6 -5c1,-21 1,-41 2,-61 0,-11 0,-21 0,-32 0,-5 0,25 0,21 0,-3 0,-7 -1,-10 0,-7 -1,-15 -1,-23 0,-4 0,-4 3,-4 5,0 5,1 10,1 2,0 4,0 6,0 1,0 2,0 3,0 0,1 -1,4 -1,6 0,3 -1,5 -1,6 0,7 -1,14 -2,20 0,8 -1,-18 -1,-10 -1,9 4,18 3,26 0,7 0,11 0,18 1,8 1,15 0,23 0,5 0,11 1,17 -1,6 -8,3 -15,4 -2,0 -4,0 -5,-1 -1,0 -1,-1 -1,-1z"/>
    <path class="fil2" d="M262 91c1,0 1,1 1,2 0,0 0,1 -1,1 -1,0 -1,-1 -1,-1 0,-1 0,-2 1,-2zm5 0c0,0 1,1 1,2 0,0 -1,1 -1,1 -1,0 -2,-1 -2,-1 0,-1 1,-2 2,-2zm-5 5c1,0 1,0 1,1 0,1 0,1 -1,1 -1,0 -1,0 -1,-1 0,-1 0,-1 1,-1zm5 0c0,0 1,0 1,1 0,1 -1,1 -1,1 -1,0 -2,0 -2,-1 0,-1 1,-1 2,-1zm-3 -9c5,0 8,3 8,8 0,4 -3,8 -8,8 -4,0 -8,-4 -8,-8 0,-5 4,-8 8,-8z"/>
    <path class="fil2" d="M262 132c1,0 1,1 1,1 0,1 0,2 -1,2 -1,0 -1,-1 -1,-2 0,0 0,-1 1,-1zm5 0c0,0 1,1 1,1 0,1 -1,2 -1,2 -1,0 -2,-1 -2,-2 0,0 1,-1 2,-1zm-5 4c1,0 1,1 1,2 0,0 0,1 -1,1 -1,0 -1,-1 -1,-1 0,-1 0,-2 1,-2zm5 0c0,0 1,1 1,2 0,0 -1,1 -1,1 -1,0 -2,-1 -2,-1 0,-1 1,-2 2,-2zm-3 -9c5,0 8,4 8,8 0,5 -3,8 -8,8 -4,0 -8,-3 -8,-8 0,-4 4,-8 8,-8z"/>
    <path class="fil2" d="M262 173c1,0 1,0 1,1 0,1 0,1 -1,1 -1,0 -1,0 -1,-1 0,-1 0,-1 1,-1zm5 0c0,0 1,0 1,1 0,1 -1,1 -1,1 -1,0 -2,0 -2,-1 0,-1 1,-1 2,-1zm-5 4c1,0 1,0 1,1 0,1 0,1 -1,1 -1,0 -1,0 -1,-1 0,-1 0,-1 1,-1zm5 0c0,0 1,0 1,1 0,1 -1,1 -1,1 -1,0 -2,0 -2,-1 0,-1 1,-1 2,-1zm-3 -9c5,0 8,4 8,8 0,4 -3,8 -8,8 -4,0 -8,-4 -8,-8 0,-4 4,-8 8,-8z"/>
   </g>
  </g>
 </g>
</svg>
