<svg xmlns="http://www.w3.org/2000/svg" xml:space="preserve" width="8.1056in" height="8.952in" version="1.1" style="shape-rendering:geometricPrecision; text-rendering:geometricPrecision; image-rendering:optimizeQuality; fill-rule:evenodd; clip-rule:evenodd"
viewBox="0 0 469 518"
 xmlns:xlink="http://www.w3.org/1999/xlink">
 <defs>
  <style type="text/css">
   <![CDATA[
    .fil2 {fill:black}
    .fil0 {fill:white}
    .filin {fill:white}
   ]]>
  </style>
 </defs>
 <g id="Layer_x0020_1">
  <metadata id="CorelCorpID_0Corel-Layer"/>
  <g id="_946241968">
   <g>
    <path class="fil0" d="M188 0c35,7 49,11 85,4 12,-3 10,-4 19,3 3,2 5,4 6,5l0 1c1,0 1,0 1,1 1,1 2,2 3,4 27,11 93,29 106,42 12,11 13,18 18,35 2,7 3,14 5,21 6,40 38,78 38,107 0,7 -43,17 -53,19 -24,5 -9,13 -38,13l0 73c0,19 -4,29 -4,39 0,3 9,13 1,38 -1,3 -6,13 -6,15 0,7 2,7 3,11 0,4 1,7 1,11 2,13 2,21 0,34 -1,12 -7,7 -24,11 -41,11 -66,31 -114,31l-28 0c-14,0 -26,-2 -48,-8 -23,-6 -25,-6 -49,-6 -4,0 -11,1 -14,0 -4,-1 -5,-4 -6,-8 -5,-15 -5,-34 -5,-50 0,-9 -3,-23 -3,-25 0,-14 4,-12 4,-19 0,-5 -3,-10 -5,-14 -8,-23 2,-26 2,-40 0,-6 -1,-8 -1,-14l0 -11c0,-12 6,-61 6,-70 0,-2 -4,-3 -9,-6 -4,-3 -19,-3 -26,-4 -3,0 -9,0 -12,-1 -8,-1 -16,-4 -22,-6 -15,-6 -18,-5 -19,-10l0 -8c0,-11 26,-96 37,-112 2,-4 2,-6 3,-11 1,-4 2,-6 3,-10 13,-39 24,-39 60,-48 13,-3 28,-9 40,-14 4,-1 20,-3 25,-6 0,0 0,0 0,0 0,-1 1,-2 1,-3 4,-2 13,-10 17,-14 1,0 2,0 2,0z"/>
    <path class="filin" d="M187 3c40,6 53,9 94,1 2,-1 2,-1 3,1 1,2 11,7 14,12 3,5 -16,78 -24,79 -3,-4 -33,-28 -37,-27 17,0 32,-21 41,-38 -24,7 -64,7 -87,0 8,17 23,38 40,38 -3,-1 -33,23 -36,27 -9,-1 -31,-74 -23,-81 5,-4 15,-12 15,-12z"/>
   </g>
   <path class="fil2" d="M229 518c-8,1 -9,-5 -9,-5 0,0 0,-30 1,-74 0,-6 1,-7 1,-13 0,-4 -1,-13 -1,-18 1,-119 2,-301 0,-315 -1,-11 -1,-19 0,-22 0,-5 -1,-5 4,-4 2,0 5,0 9,0 12,1 12,-4 10,14 -2,19 -1,29 0,48 0,13 0,173 0,281 0,7 2,17 2,23 0,5 -2,5 -2,9 0,39 0,66 0,68 1,5 -2,8 -6,7 -2,0 -5,0 -9,1zm-6 -5c0,-5 0,-33 0,-73 0,-6 2,-6 2,-12 0,-5 -1,-15 -1,-20 0,-115 0,-283 1,-296 0,-9 0,-19 0,-29 0,-4 0,23 0,19 0,-3 0,-6 -1,-9 0,-6 -1,-13 -1,-20 1,-4 0,-4 3,-4 4,0 4,1 8,1 2,0 4,0 6,0 1,0 1,0 2,0 0,1 0,3 0,5 -1,3 -1,5 -1,6 -1,6 -1,12 -2,18 0,7 -1,-16 -1,-9 -1,8 3,16 3,23 0,6 0,10 0,16 0,7 0,14 0,21 0,3 0,154 0,260 0,6 2,17 2,23 0,5 -2,5 -2,10 0,39 0,66 1,68 -1,5 -7,3 -14,4 -1,0 -3,0 -4,-1 -1,0 -1,-1 -1,-1z"/>
   <path class="fil0" d="M223 513c0,-5 0,-33 0,-73 0,-6 2,-6 2,-12 0,-5 -1,-15 -1,-20 0,-115 0,-283 1,-296 0,-9 0,-19 0,-29 0,-4 0,23 0,19 0,-3 0,-6 -1,-9 0,-6 -1,-13 -1,-20 1,-4 0,-4 3,-4 4,0 4,1 8,1 2,0 4,0 6,0 1,0 1,0 2,0 0,1 0,3 0,5 -1,3 -1,5 -1,6 -1,6 -1,12 -2,18 0,7 -1,-16 -1,-9 -1,8 3,16 3,23 0,6 0,10 0,16 0,7 0,14 0,21 0,3 0,154 0,260 0,6 2,17 2,23 0,5 -2,5 -2,10 0,39 0,66 1,68 -1,5 -7,3 -14,4 -1,0 -3,0 -4,-1 -1,0 -1,-1 -1,-1z"/>
   <path class="fil2" d="M230 82c1,0 1,1 1,1 0,1 0,2 -1,2 0,0 -1,-1 -1,-2 0,0 1,-1 1,-1zm4 0c1,0 1,1 1,1 0,1 0,2 -1,2 0,0 -1,-1 -1,-2 0,0 1,-1 1,-1zm-4 4c1,0 1,1 1,1 0,1 0,1 -1,1 0,0 -1,0 -1,-1 0,0 1,-1 1,-1zm4 0c1,0 1,1 1,1 0,1 0,1 -1,1 0,0 -1,0 -1,-1 0,0 1,-1 1,-1zm-2 -8c4,0 7,3 7,7 0,4 -3,7 -7,7 -4,0 -7,-3 -7,-7 0,-4 3,-7 7,-7z"/>
   <path class="fil2" d="M230 142c1,0 1,0 1,1 0,1 0,1 -1,1 0,0 -1,0 -1,-1 0,-1 1,-1 1,-1zm4 0c1,0 1,0 1,1 0,1 0,1 -1,1 0,0 -1,0 -1,-1 0,-1 1,-1 1,-1zm-4 4c1,0 1,0 1,1 0,0 0,1 -1,1 0,0 -1,-1 -1,-1 0,-1 1,-1 1,-1zm4 0c1,0 1,0 1,1 0,0 0,1 -1,1 0,0 -1,-1 -1,-1 0,-1 1,-1 1,-1zm-2 -8c4,0 7,3 7,7 0,4 -3,7 -7,7 -4,0 -7,-3 -7,-7 0,-4 3,-7 7,-7z"/>
   <path class="fil2" d="M230 201c1,0 1,1 1,1 0,1 0,2 -1,2 0,0 -1,-1 -1,-2 0,0 1,-1 1,-1zm4 0c1,0 1,1 1,1 0,1 0,2 -1,2 0,0 -1,-1 -1,-2 0,0 1,-1 1,-1zm-4 4c1,0 1,1 1,1 0,1 0,1 -1,1 0,0 -1,0 -1,-1 0,0 1,-1 1,-1zm4 0c1,0 1,1 1,1 0,1 0,1 -1,1 0,0 -1,0 -1,-1 0,0 1,-1 1,-1zm-2 -8c4,0 7,3 7,7 0,4 -3,7 -7,7 -4,0 -7,-3 -7,-7 0,-4 3,-7 7,-7z"/>
   <path class="fil2" d="M230 261c1,0 1,0 1,1 0,1 0,1 -1,1 0,0 -1,0 -1,-1 0,-1 1,-1 1,-1zm4 0c1,0 1,0 1,1 0,1 0,1 -1,1 0,0 -1,0 -1,-1 0,-1 1,-1 1,-1zm-4 4c1,0 1,0 1,1 0,0 0,1 -1,1 0,0 -1,-1 -1,-1 0,-1 1,-1 1,-1zm4 0c1,0 1,0 1,1 0,0 0,1 -1,1 0,0 -1,-1 -1,-1 0,-1 1,-1 1,-1zm-2 -8c4,0 7,3 7,7 0,4 -3,7 -7,7 -4,0 -7,-3 -7,-7 0,-4 3,-7 7,-7z"/>
   <path class="fil2" d="M230 320c1,0 1,1 1,1 0,1 0,2 -1,2 0,0 -1,-1 -1,-2 0,0 1,-1 1,-1zm4 0c1,0 1,1 1,1 0,1 0,2 -1,2 0,0 -1,-1 -1,-2 0,0 1,-1 1,-1zm-4 4c1,0 1,1 1,1 0,1 0,1 -1,1 0,0 -1,0 -1,-1 0,0 1,-1 1,-1zm4 0c1,0 1,1 1,1 0,1 0,1 -1,1 0,0 -1,0 -1,-1 0,0 1,-1 1,-1zm-2 -8c4,0 7,3 7,7 0,4 -3,7 -7,7 -4,0 -7,-3 -7,-7 0,-4 3,-7 7,-7z"/>
   <path class="fil2" d="M230 380c1,0 1,0 1,1 0,1 0,1 -1,1 0,0 -1,0 -1,-1 0,-1 1,-1 1,-1zm4 0c1,0 1,0 1,1 0,1 0,1 -1,1 0,0 -1,0 -1,-1 0,-1 1,-1 1,-1zm-4 4c1,0 1,0 1,1 0,0 0,1 -1,1 0,0 -1,-1 -1,-1 0,-1 1,-1 1,-1zm4 0c1,0 1,0 1,1 0,0 0,1 -1,1 0,0 -1,-1 -1,-1 0,-1 1,-1 1,-1zm-2 -8c4,0 7,3 7,7 0,4 -3,7 -7,7 -4,0 -7,-3 -7,-7 0,-4 3,-7 7,-7z"/>
   <path class="fil2" d="M230 439c1,0 1,1 1,1 0,1 0,2 -1,2 0,0 -1,-1 -1,-2 0,0 1,-1 1,-1zm4 0c1,0 1,1 1,1 0,1 0,2 -1,2 0,0 -1,-1 -1,-2 0,0 1,-1 1,-1zm-4 4c1,0 1,1 1,1 0,1 0,1 -1,1 0,0 -1,0 -1,-1 0,0 1,-1 1,-1zm4 0c1,0 1,1 1,1 0,1 0,1 -1,1 0,0 -1,0 -1,-1 0,0 1,-1 1,-1zm-2 -8c4,0 7,3 7,7 0,4 -3,7 -7,7 -4,0 -7,-3 -7,-7 0,-4 3,-7 7,-7z"/>
   <g>
    <path class="filin" d="M231 72c2,0 4,0 6,0 0,0 -1,0 -1,0l0 0 0 0c0,0 0,0 0,0l0 0c-1,-1 -1,-1 -1,-1l0 0 0 0 0 0 0 0 0 0c0,0 0,-1 0,-1l0 0 0 0 0 0 0 0 0 0 0 0 0 0 0 0c0,0 0,-1 0,-1l0 0 0 0 0 0 0 0c0,-1 0,-1 0,-1l0 0 0 0c0,0 0,0 0,0l0 0c0,-1 1,-1 1,-1l0 0 0 0 0 0 0 0 0 0c0,0 1,-1 1,-1 12,-1 17,-5 25,-14 2,-3 6,-10 10,-17 -23,4 -54,5 -76,-1 4,8 8,15 11,18 7,9 13,13 24,15 1,0 1,0 2,0l0 0 0 0 0 0 0 0c0,0 0,0 0,1l0 0 0 0 0 0 0 0 0 0c0,0 0,0 0,0l0 0c1,0 1,1 1,1l0 0 0 0c0,0 0,1 0,1l0 0 0 0 0 0 0 0 0 0 0 0c0,0 0,1 0,1l0 0 -1 0 0 0 0 0c0,0 0,1 0,1l0 0 0 0 0 0 0 0 0 0c0,0 0,0 0,0l0 0c-1,0 -1,0 -2,0z"/>
    <g>
     <path class="fil0" d="M246 70c10,6 23,17 28,22 9,-9 25,-66 21,-75 -1,-1 -5,-5 -8,-8 0,7 -4,20 -13,35 -7,12 -15,22 -28,26z"/>
     <path class="fil0" d="M222 70c-13,-4 -20,-13 -28,-26 -9,-15 -12,-25 -12,-32 -3,2 -7,4 -8,5 0,0 0,0 0,1 -1,1 -1,3 -1,7l0 0 0 0c2,18 14,60 22,67 5,-5 18,-16 27,-22z"/>
     <path class="fil0" d="M188 6c0,0 0,1 0,1 -2,4 1,13 5,21 22,6 59,7 83,0 4,-8 6,-17 5,-21 -41,8 -53,6 -93,-1z"/>
    </g>
   </g>
   <path class="fil2" d="M373 241c21,-4 22,-8 28,-8 0,5 -8,13 -20,12 -9,-1 -7,-2 -8,-4zm-142 -169c-9,2 -33,27 -36,27 -9,-1 -25,-46 -27,-71l-42 12c-12,4 -24,7 -37,10 -14,4 -21,6 -29,19 -9,16 -6,29 -14,41 -3,5 -12,16 -19,33 -10,28 -18,64 -18,65 6,3 21,7 24,12 -5,3 -16,-5 -25,-4 -2,5 2,6 6,8 8,3 23,8 32,9 9,2 17,2 27,2 14,-2 10,8 20,7 1,-7 -17,-113 -17,-135 0,-9 -3,-28 6,-23 0,1 0,3 0,4 -4,53 -1,98 17,152 16,52 24,114 53,161 5,8 17,19 18,25 -4,-1 -11,-9 -13,-12 -4,-5 -7,-10 -11,-15 -12,-18 -26,-45 -35,-66 -1,-5 -12,-76 -13,-77 -1,1 -2,3 -2,5 -5,17 -8,64 -3,84 3,14 -12,17 0,48 4,10 0,17 -2,23 -1,6 1,7 2,13 2,12 0,55 6,64 12,2 26,1 38,3 40,6 48,18 104,14 34,-3 61,-17 92,-28 10,-3 30,-6 32,-7 2,-12 -1,-38 -4,-49 -3,2 -16,18 -28,28 -2,2 -2,2 -5,3 3,-7 19,-20 26,-29 6,-9 21,-43 13,-52 -4,1 -9,15 -12,19 -8,14 -14,26 -22,40 -3,4 -9,16 -14,18 -1,-3 1,-5 3,-9 11,-20 21,-34 32,-56 13,-25 17,-98 14,-127 -4,2 -10,66 -13,71 -4,11 -7,21 -11,32 -4,11 -8,21 -13,32 -2,5 -4,10 -7,15 -1,3 -2,5 -4,7 -2,4 -1,4 -6,5 1,-4 6,-12 8,-17 11,-21 25,-63 33,-87 4,-12 9,-65 12,-77 7,-30 2,-121 17,-134 0,0 0,1 0,1 0,0 0,0 0,0 1,3 1,3 -1,10 -11,53 -1,65 -9,116 14,1 27,-5 29,-17 3,-36 4,-57 2,-94 0,0 0,0 0,-1 0,0 0,-1 0,-1 0,0 0,0 0,-1 0,0 0,-1 0,-1l0 -3c2,-1 3,-3 4,-4 -6,37 -2,79 -4,121 16,0 43,-9 55,-15 0,-5 -1,-5 -3,-9 -13,0 -34,12 -47,10 1,-3 6,-4 10,-5l36 -10c-6,-35 -20,-34 -31,-66 -1,-4 -2,-16 -3,-21 -3,-21 -13,-51 -36,-61 -6,-3 -65,-23 -85,-30 -2,25 -18,71 -27,72 -3,0 -27,-25 -36,-27 0,0 -1,0 -1,0l0 0 0 0 0 0 0 0c0,0 -1,0 -1,0l0 0 0 0c0,0 0,0 0,0l0 0c-1,-1 -1,-1 -1,-1l0 0 0 0 0 0 0 0 0 0c0,0 0,-1 0,-1l0 0 0 0 0 0 0 0 0 0 0 0 0 0 0 0c0,0 0,-1 0,-1l0 0 0 0 0 0 0 0c0,-1 0,-1 0,-1l0 0 0 0c0,0 0,0 0,0l0 0c0,-1 1,-1 1,-1l0 0 0 0 0 0 0 0 0 0c0,0 1,-1 1,-1 12,-1 17,-5 25,-14 2,-3 6,-10 10,-17 -23,4 -54,5 -76,-1 4,8 8,15 11,18 7,9 13,13 24,15 1,0 1,0 2,0l0 0 0 0 0 0 0 0c0,0 0,0 0,1l0 0 0 0 0 0 0 0 0 0c0,0 0,0 0,0l0 0c1,0 1,1 1,1l0 0 0 0c0,0 0,1 0,1l0 0 0 0 0 0 0 0 0 0 0 0c0,0 0,1 0,1l0 0 -1 0 0 0 0 0c0,0 0,1 0,1l0 0 0 0 0 0 0 0 0 0c0,0 0,0 0,0l0 0c-1,0 -1,0 -2,0l0 0 0 0c0,0 0,0 0,0zm-63 -55c0,-1 1,-2 1,-3 4,-2 13,-10 17,-14 1,0 2,0 2,0 35,7 49,11 85,4 12,-3 10,-4 19,3 3,2 5,4 6,5l0 1c1,0 1,0 1,1 1,1 2,2 3,4 27,11 93,29 106,42 12,11 13,18 18,35 2,7 3,14 5,21 6,40 38,78 38,107 0,7 -43,17 -53,19 -24,5 -9,13 -38,13l0 73c0,19 -4,29 -4,39 0,3 9,13 1,38 -1,3 -6,13 -6,15 0,7 2,7 3,11 0,4 1,7 1,11 2,13 2,21 0,34 -1,12 -7,7 -24,11 -41,11 -66,31 -114,31l-28 0c-14,0 -26,-2 -48,-8 -23,-6 -25,-6 -49,-6 -4,0 -11,1 -14,0 -4,-1 -5,-4 -6,-8 -5,-15 -5,-34 -5,-50 0,-9 -3,-23 -3,-25 0,-14 4,-12 4,-19 0,-5 -3,-10 -5,-14 -8,-23 2,-26 2,-40 0,-6 -1,-8 -1,-14l0 -11c0,-12 6,-61 6,-70 0,-2 -4,-3 -9,-6 -4,-3 -19,-3 -26,-4 -3,0 -9,0 -12,-1 -8,-1 -16,-4 -22,-6 -15,-6 -18,-5 -19,-10l0 -8c0,-11 26,-96 37,-112 2,-4 2,-6 3,-11 1,-4 2,-6 3,-10 13,-39 24,-39 60,-48 13,-3 28,-9 40,-14 4,-1 20,-3 25,-6 0,0 0,0 0,0zm20 -11c0,0 0,1 0,1 -2,4 1,13 5,21 22,6 59,7 83,0 4,-8 6,-17 5,-21 -41,8 -53,6 -93,-1zm34 64c-13,-4 -20,-13 -28,-26 -9,-15 -12,-25 -12,-32 -3,2 -7,4 -8,5 0,0 0,0 0,1 -1,1 -1,3 -1,7l0 0 0 0c2,18 14,60 22,67 5,-5 18,-16 27,-22zm24 0c10,6 23,17 28,22 9,-9 25,-66 21,-75 -1,-1 -5,-5 -8,-8 0,7 -4,20 -13,35 -7,12 -15,22 -28,26zm-110 248c-2,-4 -9,-59 -13,-61 -4,5 20,82 22,86 8,12 21,28 30,39l12 13c2,2 3,3 4,5 3,3 6,5 9,8 3,3 6,6 9,8 6,5 30,28 40,28 -1,-4 -1,-3 -4,-5l-14 -11c-36,-25 -73,-72 -95,-110zm-40 115c1,1 -1,0 2,2 2,2 16,8 18,9 12,6 60,30 69,26 -1,-3 1,-1 -2,-3l-20 -7c-15,-6 -62,-27 -67,-27z"/>
  </g>
 </g>
</svg>
