<svg xmlns="http://www.w3.org/2000/svg" xml:space="preserve" width="8.1056in" height="8.952in" version="1.1" style="shape-rendering:geometricPrecision; text-rendering:geometricPrecision; image-rendering:optimizeQuality; fill-rule:evenodd; clip-rule:evenodd"
viewBox="0 0 620 684"
 xmlns:xlink="http://www.w3.org/1999/xlink">
 <defs>
  <style type="text/css">
   <![CDATA[
    .fil2 {fill:black}
    .fil0 {fill:white}
    .filin {fill:white}
   ]]>
  </style>
 </defs>
 <g id="Layer_x0020_1">
  <metadata id="CorelCorpID_0Corel-Layer"/>
  <g id="_946216208">
   <g>
    <path class="fil0" d="M249 0c46,9 64,15 112,5 15,-3 13,-5 25,5 3,2 6,4 8,6l0 1c1,0 1,1 2,1 1,2 2,4 3,5 36,15 123,39 140,56 16,15 17,24 24,46 2,9 4,19 6,29 9,52 51,103 51,140 0,10 -57,24 -70,26 -32,7 -12,16 -51,16l0 98c0,24 -5,37 -5,51 0,4 12,17 1,50 -1,4 -7,17 -7,20 0,9 2,9 3,15 1,5 1,9 2,14 2,17 2,28 1,45 -2,16 -11,9 -33,15 -54,13 -87,40 -150,40l-37 0c-20,0 -34,-2 -64,-10 -30,-8 -33,-8 -65,-8 -5,0 -14,1 -19,0 -5,-2 -6,-5 -8,-10 -5,-20 -6,-45 -6,-67 0,-11 -3,-30 -3,-33 0,-18 4,-15 4,-25 0,-7 -4,-13 -6,-19 -10,-29 3,-34 3,-52 0,-8 -2,-11 -2,-18l0 -15c0,-16 8,-81 8,-92 0,-4 -5,-4 -11,-9 -6,-4 -25,-4 -35,-4 -4,0 -12,-1 -16,-2 -10,-2 -21,-5 -29,-8 -20,-8 -24,-7 -25,-13l0 -11c0,-14 35,-126 49,-148 3,-5 3,-8 4,-14 1,-5 2,-9 4,-13 17,-53 32,-52 79,-64 18,-5 37,-12 53,-18 5,-2 27,-5 33,-8 0,0 0,0 0,0 1,-2 1,-3 2,-4 5,-3 16,-14 22,-19 1,0 2,0 3,0z"/>
    <path class="filin" d="M248 4c52,9 69,12 123,1 2,-1 2,-2 4,1 2,3 15,10 19,16 4,6 -21,103 -32,105 -4,-6 -44,-37 -48,-35 21,-1 42,-29 53,-51 -31,9 -84,9 -115,-1 11,23 31,52 53,52 -4,-2 -44,30 -47,35 -12,-1 -41,-98 -31,-107 6,-5 20,-16 21,-16z"/>
   </g>
   <path class="fil2" d="M307 501c0,2 1,93 1,101 0,2 0,4 0,7 -1,4 -1,8 -1,12 0,4 -1,8 -1,13 0,1 0,3 0,4 0,0 0,2 0,2l1 36 -3 8 -17 0 -4 -2 -5 -3 0 -1c1,-13 3,-26 4,-39 0,-8 1,-16 2,-24 0,-3 0,-6 0,-9 0,-2 0,-4 0,-5 0,-1 0,-3 0,-4 0,-2 0,-4 0,-6 0,-7 0,-14 0,-21 0,-20 0,-40 0,-59 1,-30 1,-60 1,-91 0,-19 1,-39 2,-58 1,-14 2,-27 3,-40 1,-15 2,-29 2,-44l2 -31c0,-9 1,-19 1,-28 1,-11 2,-22 2,-33 1,-30 1,-59 -2,-89l0 -2 24 2c2,1 3,3 3,5 1,3 1,6 1,9 0,4 0,9 0,13 0,6 -1,12 -1,18 -1,15 -2,29 -3,44 -1,16 -2,33 -3,50 -1,16 -2,33 -3,49 -1,15 -2,29 -2,43 -2,58 -2,116 -4,173zm-10 -404l22 2c8,1 -8,152 -10,229 -1,59 0,115 -3,173 0,0 0,98 0,101 0,3 -2,38 -2,38l2 35 -3 8 -15 -1 -4 -1 -4 -3c0,0 6,-68 6,-77 -1,-10 0,-181 0,-181 0,-49 6,-88 8,-142l1 -31c1,-34 7,-79 2,-150z"/>
   <path class="fil0" d="M297 97l22 2c8,1 -8,152 -10,229 -1,59 0,115 -3,173 0,0 0,98 0,101 0,3 -2,38 -2,38l2 35 -3 8 -16 -1 -3 -1 -5 -3c0,0 7,-68 7,-77 -1,-10 0,-181 0,-181 0,-49 6,-88 8,-142l1 -31c1,-34 7,-79 2,-150z"/>
   <path class="fil2" d="M294 647c1,0 1,0 1,0 0,-1 0,-2 1,-4m-4 4c0,0 0,0 1,0m-5 2c-1,0 -1,0 -2,0m16 1c-1,0 -1,0 -1,0m2 25c-2,0 -4,0 -5,0 -2,0 -4,0 -5,0 0,0 -1,0 -1,0 -3,0 -6,0 -9,-1 2,-6 3,-12 3,-18 0,-1 0,-3 0,-4 1,-1 1,-1 2,-1 0,-1 0,-1 0,-1 0,0 0,0 0,0 0,-1 0,-3 0,-5 0,0 0,0 0,0 0,0 0,-1 0,-2 0,0 0,0 0,0 0,-1 0,-3 0,-5 0,0 0,0 0,0 0,0 0,-1 0,-2 0,0 0,0 0,0 0,-1 1,-3 1,-5 -1,0 -1,-1 0,-2 0,-1 0,-3 0,-5 0,0 0,-1 0,-1 0,-2 0,-4 0,-6 0,0 0,-1 0,-1 1,-26 1,-61 1,-90 0,0 0,0 -1,0 1,-3 1,-5 1,-8 0,0 0,0 0,0 0,-15 0,-27 0,-33 0,-32 1,-99 2,-120 0,-15 4,-57 6,-85 1,-11 -1,-19 -1,-25 2,-10 4,-33 5,-56 1,-22 2,-45 0,-52 0,-1 0,-2 0,-3 -1,-6 -1,-12 -1,-19 -4,-1 -8,-4 -4,-7 2,-1 3,-3 5,-6 0,0 0,-1 0,-1 -1,0 -2,0 -3,-1 0,0 1,0 1,0 -1,0 -1,0 -1,0 1,-5 2,-10 2,-16 1,0 1,1 1,1 0,0 0,0 0,-1 1,1 3,1 4,1 0,0 0,0 0,0 0,0 0,0 0,0 0,0 0,0 0,0 0,0 0,0 0,0 0,0 0,0 0,0 0,2 1,3 1,5 1,0 2,0 3,1 1,-1 1,-1 2,-1 0,0 1,0 1,0 0,0 0,-1 0,-1 -1,0 -3,0 -4,1 -1,1 -2,-1 -2,-2 1,0 1,0 1,-1 1,1 1,1 2,0 0,0 0,0 1,0 0,0 1,0 1,0 0,0 1,0 1,0 0,0 0,-1 0,-2 0,0 0,1 1,1 0,0 1,0 1,0 1,0 1,0 1,0 1,0 1,0 2,0 -1,2 -1,4 -2,6 0,1 0,1 0,2 0,0 0,0 0,0 -1,1 -1,1 0,2 -1,1 -1,2 0,3 0,0 0,0 -1,0 0,1 0,2 1,2 0,0 0,0 0,0 0,1 0,2 0,2 0,0 0,0 0,0 0,2 0,3 0,5 0,0 0,0 0,0 0,1 0,2 0,2 0,0 0,0 0,0 0,1 0,3 -1,5 0,0 1,0 1,0 0,0 0,2 0,2 0,0 -1,0 -1,0 0,2 0,3 0,5 0,0 0,0 1,0 0,0 0,1 0,2 -1,0 -1,0 -2,0 0,2 0,3 0,5 0,0 1,0 1,0 1,0 1,2 0,2 0,0 -1,0 -1,0 0,2 0,3 0,5 0,0 1,0 1,0 1,0 1,1 0,2 0,0 -1,0 -1,0 -1,2 0,3 0,5 0,0 1,0 1,0 0,0 0,1 0,2 0,0 -1,0 -1,0 0,1 0,3 0,5 0,0 0,0 1,0 0,0 0,1 0,2 -1,0 -1,0 -1,0 0,1 0,3 0,5 0,0 0,0 0,0 1,0 1,1 0,2 0,0 0,0 0,0 0,1 0,3 0,5 0,0 0,0 0,0 0,0 0,1 0,2 0,0 0,0 -1,0 0,1 0,3 0,5 0,0 1,0 1,0 0,0 0,1 0,2 -1,0 -1,0 -1,-1 0,3 -1,4 -1,6 1,0 1,0 1,0 1,0 1,1 0,2 0,0 -1,-1 -1,-1 0,2 0,4 -1,6 1,0 2,0 2,0 0,0 0,1 0,2 -1,-1 -1,-1 -2,-1 0,2 0,4 0,6 1,0 1,0 2,-1 0,1 0,2 0,2 -1,0 -1,0 -2,0 0,3 0,5 0,5 0,0 0,0 0,1 0,0 1,0 1,-1 0,1 0,2 0,2 0,0 -1,0 -1,0 0,2 0,4 0,6 0,0 0,0 1,-1 0,1 0,2 0,2 -1,0 -1,0 -2,0 0,2 0,4 0,6 1,0 1,0 1,-1 1,1 1,2 0,2 0,0 -1,0 -1,0 0,2 0,4 0,6 0,0 1,-1 1,-1 0,1 0,2 0,2 -1,0 -1,0 -1,0 -1,2 -1,4 -1,6 1,0 1,-1 2,-1 0,1 0,2 -1,2 0,0 0,0 -1,0 0,2 0,4 0,5 0,0 1,0 1,0 0,1 0,2 0,2 0,0 -1,0 -1,0 0,2 -1,4 -1,5 1,0 1,0 2,0 0,1 0,2 -1,2 0,0 0,0 -1,0 0,2 0,4 0,5 0,0 1,0 1,0 0,1 0,2 0,2 0,0 -1,0 -1,0 0,2 0,4 -1,5 1,0 1,0 2,0 0,1 0,2 0,2 -1,0 -1,0 -2,0 0,2 0,4 0,5 0,0 1,0 1,0 0,0 0,0 0,1 0,0 0,0 0,0 0,0 0,0 0,0 0,0 0,0 0,0 0,0 0,0 0,0 0,0 0,0 0,0 0,1 0,1 0,1 0,0 -1,0 -1,0 0,2 0,3 0,5 0,0 0,0 1,0 0,0 0,2 0,2 -1,0 -1,0 -2,0 0,2 0,3 0,5 1,0 1,0 1,0 1,0 1,1 0,2 0,0 -1,0 -1,0 0,2 0,3 0,5 0,0 0,0 1,0 0,0 0,2 0,2 -1,0 -1,0 -1,0 -1,2 -1,3 -1,5 1,0 1,0 1,0 1,0 1,1 0,2 0,0 0,0 -1,0 0,2 0,3 0,5 0,0 1,0 1,0 0,0 0,1 0,2 0,0 -1,0 -1,0 0,1 0,3 -1,5 1,0 1,0 2,0 0,0 0,1 -1,2 0,0 0,0 -1,0 0,1 0,3 0,5 0,0 1,0 1,0 0,0 0,1 0,2 0,0 -1,0 -1,0 0,1 0,3 0,5 0,0 0,0 1,0 0,0 0,1 0,2 -1,0 -1,0 -1,0 0,1 0,3 -1,5 1,0 1,0 1,0 1,0 0,1 0,2 0,0 0,0 -1,0 0,1 0,3 0,5 0,0 1,0 1,0 0,0 0,1 0,2 0,0 -1,0 -1,0 0,1 0,3 0,5 0,0 0,0 1,0 0,0 0,1 -1,2 0,0 0,0 0,0 0,1 0,3 0,5 0,0 0,0 0,0 0,0 0,1 0,2 0,0 0,0 0,0 0,1 0,3 0,5 0,0 0,1 0,1 -1,49 -2,120 -2,130 0,6 0,13 0,19 -1,5 -1,11 -1,15 0,0 0,1 0,1 0,1 1,1 2,2 0,3 0,5 0,8 -1,-1 -1,-1 -2,-2 0,5 1,10 1,10 0,0 0,2 0,6 0,0 0,0 0,0 0,0 0,2 -1,5 0,5 0,11 1,15 1,6 -1,63 0,70 1,3 0,5 0,7 0,2 0,5 -1,7 0,2 0,3 0,4 0,0 1,1 -1,2 0,0 0,0 0,0 0,1 0,2 0,3 1,0 2,0 2,0 1,4 1,7 2,10zm10 -571c-1,0 -1,0 -1,0 0,0 0,0 0,-1 0,1 0,1 1,1 0,0 0,0 0,0zm-7 23c1,0 1,0 2,0 0,1 0,1 1,1 1,-1 2,-1 3,-1 0,0 0,1 0,1 -1,0 -2,1 -3,1 -1,0 -2,0 -3,0 0,-1 0,-2 0,-2zm6 -6c0,0 0,0 0,0 0,0 -1,-1 -1,-1 1,0 1,0 1,0 0,0 0,1 0,1zm0 -3c0,0 -1,0 -1,0 0,0 0,-1 0,-1 0,0 0,0 1,0 0,0 0,0 0,0 0,1 0,1 0,1zm0 -4c0,0 0,0 0,0 -1,0 -1,0 -2,1 0,-1 0,-1 0,-2 1,0 1,0 2,0 0,0 0,1 0,1zm0 -3c0,0 -1,0 -2,0 0,-1 0,-1 0,-1 1,0 1,0 2,0 0,0 0,0 0,0 0,1 0,1 0,1zm-1 23c0,0 -1,0 -2,1 -2,1 -2,-5 0,-4 1,1 2,1 2,1 0,0 0,-1 0,-1 0,0 -1,0 -2,-1 -1,0 -2,0 -3,0 0,2 0,4 0,6 1,0 4,0 5,-1 0,0 0,-1 0,-1zm-5 3c1,0 2,0 3,0 1,0 2,1 2,1 0,0 0,1 0,1 -1,0 -1,0 -2,-1 0,0 0,0 0,0 0,0 0,0 0,0 -1,0 -2,1 -2,2 0,0 0,0 0,0 0,1 1,2 2,2 0,0 0,0 0,0 1,-1 1,-1 2,-1 0,0 0,1 0,1 -1,1 -4,1 -5,0 0,-1 0,-3 0,-5zm0 7c0,0 0,0 0,0 0,0 0,0 0,0 0,0 1,0 1,0 0,0 0,0 1,0 0,0 0,0 0,0 0,0 1,0 2,1 0,0 1,0 1,0 0,0 0,1 0,1 -1,0 -1,-1 -2,-1 -2,-1 -2,5 0,4 0,-1 1,-1 2,-1 0,0 0,1 0,1 -2,1 -4,1 -6,0 0,-1 1,-3 1,-5zm4 11c0,0 -1,0 -1,0 -3,2 -2,-4 0,-3 0,0 1,1 1,1 1,-1 1,-1 1,-1 -1,0 -2,-1 -2,-1 -1,0 -3,0 -4,0 0,2 0,4 0,5 1,1 2,1 3,0 1,0 2,0 2,0 0,0 0,-1 0,-1zm0 7c-1,0 -1,0 -1,0 -3,2 -3,-4 0,-3 0,0 1,1 1,1 0,-1 0,-1 0,-1 -1,-1 -3,-1 -5,-1 0,2 0,4 0,5 0,0 0,0 0,0 1,1 4,1 5,0 0,0 0,-1 0,-1zm0 7c-1,0 -1,0 -1,0 -3,2 -3,-5 0,-3 0,0 0,0 1,1 0,-1 0,-1 0,-1 -1,-1 -1,-1 -2,-1 -1,0 -2,0 -3,0 0,0 0,0 0,0 0,2 0,4 0,5 0,0 0,0 0,0 1,1 3,1 5,0 0,0 0,-1 0,-1zm-1 7c0,0 0,0 -1,0 -2,2 -2,-4 0,-3 1,0 1,0 1,0 0,0 0,0 0,-1 0,0 0,0 -1,0 -1,0 -2,0 -3,0 0,0 0,0 0,0 -1,20 -1,39 -2,47 -1,15 -3,39 -4,55 0,4 0,8 1,10 0,5 -2,13 -2,20 0,6 -1,12 -1,14 0,1 0,2 -1,4 0,12 -1,36 -1,40 0,2 0,5 0,8 0,2 -1,5 -1,7 0,2 0,4 0,6 0,2 0,13 0,24 0,0 0,0 0,0 0,0 0,0 0,0 0,0 0,0 0,0 2,1 4,1 5,-1 0,0 0,0 0,0 1,0 1,1 1,2 0,0 0,0 0,0 0,0 0,0 0,0 0,0 0,0 0,0 0,1 0,2 -1,2 0,0 -1,-1 -1,-1 -1,0 -1,0 -2,0 0,0 0,0 -1,0 0,0 0,0 0,0 0,0 0,0 0,0 0,0 0,0 -1,0 0,0 0,0 0,0 0,0 0,0 0,0 0,0 0,0 0,0 0,0 0,-1 0,-1 0,0 0,0 0,0 0,2 0,4 0,6 0,0 0,0 0,0 1,1 2,1 3,0 1,0 1,0 2,-1 2,-1 1,5 0,4 -1,-1 -1,-1 -2,-1 -1,0 -2,0 -3,0 0,0 0,0 0,0 0,1 0,3 0,5 0,0 0,0 0,0 1,1 2,1 3,0 0,0 1,0 2,0 1,-2 1,4 0,3 -1,-1 -2,-1 -2,-1 -1,0 -2,0 -3,0 0,0 0,0 0,0 0,1 0,3 0,4 1,2 2,1 3,1 0,0 1,0 1,-1 2,-1 2,5 0,4 0,-1 -1,-1 -2,-1 0,0 -1,0 -2,0 0,2 0,3 0,5 0,0 0,0 0,-1 1,1 2,1 2,1 1,0 2,0 2,-1 2,-1 2,5 0,4 0,-1 -1,-1 -2,-1 0,0 -1,-1 -2,-1 0,0 0,0 0,0 0,1 0,1 0,1 0,1 0,3 0,5 0,0 0,0 0,-1 1,1 1,1 2,1 1,0 2,0 2,-1 2,-1 2,5 0,4 0,-1 -1,-1 -2,-1 -1,0 -2,-1 -2,0 0,0 0,-1 0,-1 0,2 0,4 0,5 0,1 1,1 2,1 1,0 2,0 2,-1 2,-1 2,5 0,4 0,-1 -1,-1 -2,-1 -1,0 -2,-1 -2,-1 0,2 0,4 0,5 0,1 1,1 2,1 1,0 2,0 2,-1 2,-1 2,5 0,4 -1,-1 -1,-1 -2,-1 -1,0 -2,-1 -2,-1 0,2 0,4 0,5 0,1 1,1 2,1 1,0 1,0 2,-1 2,-1 1,5 0,4 -1,-1 -1,-1 -2,-1 -1,0 -2,-1 -2,-1 0,2 0,3 -1,5 1,1 2,1 3,1 0,0 1,0 2,-1 1,-1 1,5 0,4 -1,-1 -2,-1 -2,-1 -1,0 -2,-1 -3,-1 0,2 0,4 0,5 1,1 2,1 3,1 0,0 1,0 1,-1 2,-1 2,5 0,4 0,-1 -1,-1 -1,-1 -1,-1 -2,-1 -3,-1 0,2 0,4 0,5 1,1 2,1 2,1 1,0 2,0 2,-1 2,-1 2,5 0,4 0,-1 -1,-1 -2,-1 0,-1 -1,-1 -2,-1 0,2 0,4 0,5 1,1 1,1 2,1 1,0 2,0 2,-1 2,-1 2,5 0,4 0,-1 -1,-1 -2,-1 0,-1 -1,-1 -2,-1 0,2 0,4 0,5 1,1 1,1 2,1 1,0 2,0 2,-1 2,-1 2,5 0,4 0,-1 -1,-1 -2,-1 -1,-1 -1,-1 -2,-1 0,2 0,4 0,5 1,1 1,1 2,1 1,0 1,0 2,-1 2,-1 2,5 0,4 -1,-1 -1,-1 -2,-1 -1,-1 -1,-1 -2,-1 0,2 0,4 0,5 0,0 1,1 2,1 1,0 1,-1 2,-1 2,-1 1,5 0,4 -1,-1 -2,-1 -2,-1 -1,-1 -2,-1 -2,-1 0,2 0,3 0,5 0,0 1,1 2,1 0,0 1,0 2,-1 1,-1 1,5 -1,3 0,0 0,0 -1,-1 -1,0 -2,0 -2,0 0,0 0,1 0,1 0,0 0,1 1,1 0,-1 0,-1 1,0 0,0 1,0 2,0 0,0 1,1 1,0 0,-1 0,-3 0,-5 -1,0 -2,0 -3,1 -2,1 -2,-6 0,-3 1,0 2,1 3,0 0,-1 0,-3 0,-5 -1,0 -2,0 -3,1 -2,1 -2,-6 0,-3 1,0 2,1 3,1 1,-2 1,-4 1,-6 -1,0 -3,0 -4,1 -2,1 -1,-6 0,-3 1,0 2,1 4,1 0,-2 0,-4 0,-6 -1,0 -1,0 -2,0 0,0 -1,1 -2,1 -1,1 -1,-6 1,-3 0,1 2,1 3,1 0,-2 0,-4 0,-6 -1,0 -2,0 -3,1 -2,1 -2,-5 0,-3 0,0 2,1 3,1 0,-2 0,-4 0,-6 -1,0 -2,0 -3,1 -2,1 -2,-5 0,-3 1,1 2,1 3,1 0,-2 0,-4 0,-6 -1,0 -2,0 -3,1 -2,1 -2,-5 0,-3 1,1 2,1 3,1 0,-2 0,-4 0,-6 -1,0 -2,0 -3,1 -2,1 -2,-5 0,-3 1,1 2,1 3,1 0,-2 0,-4 1,-6 -2,0 -3,0 -4,1 -2,1 -2,-5 0,-3 1,0 1,1 2,1 1,0 1,0 2,0 0,-2 0,-4 0,-6 -2,0 -3,0 -4,1 -2,1 -1,-5 0,-3 1,1 3,1 4,1 0,-2 0,-4 0,-6 -1,0 -1,0 -2,0 0,0 -1,1 -2,1 -1,1 -1,-5 1,-3 0,1 2,1 3,1 0,-2 0,-4 0,-6 -1,0 -2,0 -3,1 -2,1 -2,-5 0,-3 0,1 2,1 3,1 0,-2 0,-4 0,-6 0,0 -1,0 -1,0 -1,0 -2,1 -2,1 -2,2 -2,-5 0,-3 0,0 2,1 3,1 0,-2 0,-4 0,-6 -1,0 -2,1 -3,1 -2,2 -2,-5 0,-3 1,1 2,1 3,1 0,-2 0,-4 0,-6 -1,0 -2,1 -3,1 -2,2 -2,-4 0,-3 1,1 2,1 3,1 0,-2 0,-4 0,-6 0,0 -1,0 -1,0 -1,1 -1,1 -2,1 -2,2 -2,-4 0,-3 1,1 2,1 3,1 0,-2 0,-4 1,-6 -2,0 -3,1 -4,1 0,0 0,0 0,0 0,0 0,0 0,0 -1,1 -1,-1 -1,-1 0,0 0,-3 1,-2 0,0 0,0 0,0 0,0 0,0 0,0 1,1 2,1 4,1 0,-2 0,-4 0,-6 -1,0 -3,1 -4,1 -2,2 -1,-4 0,-3 1,1 3,1 4,1 0,-2 0,-4 0,-6 -1,0 -3,1 -3,1 -2,2 -2,-4 0,-3 0,1 2,1 3,1 0,-2 0,-4 0,-6 -1,0 -2,1 -3,1 -2,2 -2,-4 0,-3 1,1 2,1 3,1 0,-2 0,-4 0,-6 0,1 -1,1 -1,1 -1,0 -2,0 -2,0 -2,2 -2,-4 0,-3 1,1 2,1 3,1 0,-2 0,-4 0,-6 -1,0 -2,1 -3,1 -2,2 -2,-4 0,-3 0,0 1,1 2,1 0,0 1,0 1,0 0,-2 0,-4 0,-6 -1,0 -2,1 -3,1 -2,2 -1,-4 0,-3 1,1 2,1 3,1 0,-1 0,-1 0,-2 0,1 0,2 -1,1 0,0 -1,-1 -2,-1 -1,0 -2,0 -3,0 0,0 0,-1 1,-2 1,1 3,1 4,0 1,-1 1,0 1,0 0,0 0,-1 0,-2 -1,1 -2,1 -3,1 -1,2 -1,-4 1,-3 0,1 1,1 2,1 0,0 0,0 0,0 0,0 0,-1 1,-1 -1,0 -1,0 -2,0 -1,-1 -3,-1 -4,-1 0,0 0,-1 0,-2 1,1 2,1 2,1 1,-1 2,-1 2,-1 1,-1 1,-1 2,0 0,-1 0,-1 0,-2 -1,1 -2,1 -3,2 -2,1 -2,-5 0,-4 0,1 1,1 2,1 0,0 0,0 1,0 0,0 0,-1 0,-1 -1,0 -1,0 -1,0 -1,0 -1,-1 -2,-1 -1,0 -2,0 -3,1 0,-1 0,-2 0,-3 1,1 2,1 3,1 1,-1 1,-1 2,-1 0,-1 1,-1 1,0 0,-1 0,-1 0,-1 -1,0 -2,0 -3,1 -2,1 -1,-5 0,-4 1,1 2,1 3,1 0,0 0,-1 0,-1 0,0 -1,0 -1,0 -1,-1 -3,-1 -5,0 0,-1 0,-2 1,-3 0,1 1,1 2,1 1,-1 2,-1 2,-1 0,-1 1,-1 1,-1 0,0 0,0 0,0 0,0 0,0 0,0 -1,0 -2,0 -2,1 -2,1 -2,-5 0,-4 0,1 1,1 2,1 0,0 0,0 0,-1 0,0 0,0 -1,0 0,0 -1,-1 -2,-1 0,0 -1,0 -2,0 0,0 0,-1 0,-1 1,0 2,0 3,0 0,0 1,-1 2,-1 0,-1 0,-1 0,-1 0,0 0,0 0,0 -1,0 -1,0 -2,1 -2,1 -2,-5 0,-4 1,1 1,1 2,1 0,0 0,0 0,0 0,0 0,0 0,-1 0,0 0,0 0,0 -1,0 -1,-1 -2,-1 -1,0 -2,0 -3,1 0,-1 0,-2 0,-3 1,1 2,1 3,1 1,-1 2,-1 2,-1 0,0 0,0 0,0 0,-1 0,-1 0,-1 -1,0 -1,0 -2,1 -2,1 -1,-5 1,-4 0,1 1,1 1,1 0,0 0,0 0,-1 0,0 0,0 0,0 0,0 -1,-1 -2,-1 -1,0 -2,0 -2,0 -1,0 -1,-1 0,-2 1,1 3,1 4,0 0,0 0,0 1,0 0,-1 0,-1 0,-1 -1,0 -2,0 -2,1 -2,1 -2,-5 0,-4 0,1 1,1 2,1 0,0 0,-1 0,-1 -2,-1 -4,-1 -5,0 0,-1 0,-2 0,-2 1,0 2,0 3,0 1,0 1,-1 2,-1 0,0 0,0 0,0 0,-1 0,-1 0,-1 -1,0 -1,0 -2,1 -2,1 -1,-5 0,-4 1,1 1,1 2,1 0,0 0,-1 0,-1 -1,0 -1,0 -2,-1 -1,0 -2,0 -3,1 0,-1 0,-2 0,-2 1,0 2,0 3,0 1,0 2,-1 2,-1 0,0 0,-1 0,-1 0,0 -1,0 -1,1 -2,1 -2,-5 0,-4 0,1 1,1 2,1 0,0 0,0 0,-1 0,0 0,0 -1,0 -1,-1 -3,-1 -4,0 0,-1 0,-2 0,-2 1,0 4,0 5,-1 0,0 0,0 0,0 0,-1 0,-1 0,-1 -1,0 -2,0 -2,1 -2,1 -2,-5 0,-4 1,1 1,1 2,1 0,0 0,0 0,-1 0,0 0,0 0,0 -1,0 -1,-1 -2,-1 -1,0 -2,0 -3,1 0,-1 0,-2 0,-2 2,0 4,0 5,-1 0,0 0,0 0,0 0,-1 0,-1 0,-1 0,0 -1,0 -2,1 -2,1 -1,-5 1,-4 0,1 1,1 2,1 0,0 0,0 0,-1 -1,0 -1,0 -1,0 0,0 -1,0 -2,0 -1,-1 -2,-1 -2,0 -1,-1 -1,-2 0,-2 1,0 2,0 2,0 1,0 2,-1 3,-1 0,0 0,0 0,0 0,0 0,-1 0,-1 -1,0 -2,1 -2,1 -2,1 -2,-5 0,-4 0,1 1,1 2,1 0,0 0,0 0,-1 0,0 0,0 0,0 0,0 -1,0 -1,0 -1,0 -1,-1 -2,-1 0,0 0,0 0,0 0,0 0,0 0,0 0,0 0,0 0,0 0,0 -1,0 -1,0 0,0 0,0 0,0 0,1 0,0 -1,0 0,1 0,0 0,1 0,0 0,0 0,0 0,0 0,0 0,0 0,0 0,0 0,0 0,0 0,-1 0,-1 0,0 0,0 0,0 0,0 0,-1 0,-1 0,0 0,0 0,0 0,0 0,0 0,0 1,0 2,0 3,0 1,0 2,-1 2,-1 0,0 0,0 0,0 0,0 0,0 0,0 0,0 0,-1 0,-1 -1,0 -1,0 -2,1 0,0 0,0 0,0 -1,1 -1,-1 -1,-2 0,-1 0,-2 1,-2 0,0 0,0 0,0 0,1 0,1 0,1 1,0 2,0 2,0 0,0 0,0 0,-1 0,0 0,0 0,0 0,0 -1,0 -2,0 -1,-1 -2,-1 -3,0 0,-1 0,-2 0,-2 2,0 4,0 5,-1 0,0 0,0 1,0 0,0 0,-1 0,-1 -1,0 -2,1 -2,1 -2,1 -2,-5 0,-4 0,1 1,1 2,1 0,0 0,0 0,-1 -1,0 -2,0 -2,0 -1,-1 -2,-1 -3,0 -1,-1 0,-2 0,-2 1,0 4,0 5,-1 0,0 0,0 0,0 0,0 0,-1 0,-1 -1,0 -2,1 -2,1 -2,1 -2,-5 0,-3 1,0 1,0 2,0 0,0 0,0 0,-1 0,0 -1,0 -2,0 -1,0 -2,-1 -3,0 0,-1 0,-2 0,-2 2,0 4,0 5,-1 0,0 0,-1 0,-1 -1,0 -1,1 -2,1 -2,1 -1,-5 1,-4 0,1 1,1 1,1 0,0 0,0 0,-1 -1,-1 -3,-1 -5,0 0,-1 0,-2 1,-2 1,0 2,0 2,0 1,0 2,0 2,-1 0,0 0,0 0,-1 0,0 -1,1 -1,1 -2,2 -2,-5 0,-3 0,0 1,0 2,0 0,0 0,0 0,-1 -1,0 -2,0 -2,0 -1,0 -2,0 -3,0 0,-1 0,-2 0,-2 1,0 2,0 3,0 1,0 1,0 2,-1 0,0 0,0 0,-1 -1,0 -1,1 -2,1 -2,1 -2,-5 0,-3 1,0 1,0 2,0 0,0 0,0 0,-1 -1,0 -1,0 -2,0 -1,0 -2,0 -3,0 0,-1 0,-2 0,-2 1,0 2,0 3,0 1,0 1,0 2,0 0,-1 0,-1 0,-2 -1,1 -1,1 -1,1 -3,2 -2,-5 0,-3 0,0 1,0 1,0 0,0 0,0 0,-1 0,0 -1,0 -1,0 -1,0 -2,0 -3,0 -1,-1 -1,-2 0,-2 1,0 3,0 4,0 0,-1 0,-1 0,-2 0,1 -1,1 -1,1 -2,1 -2,-5 0,-3 0,0 1,0 1,0 0,0 0,0 0,-1 -1,0 -3,0 -4,0 0,0 0,-2 0,-2 1,0 3,0 4,0 0,-1 0,-1 0,-1 0,0 0,0 -1,0 -2,2 -2,-5 1,-3 0,0 0,0 0,0 0,0 0,0 0,-1 0,0 0,0 -1,0 -1,0 -2,0 -3,0 0,0 0,-1 0,-2 2,0 3,0 5,0 0,0 0,-1 0,-1 -1,0 -1,0 -1,0 -3,2 -2,-5 0,-3 0,0 0,0 1,0 0,0 0,0 0,-1 -2,0 -3,0 -5,0 0,0 0,-1 1,-2 1,0 3,0 4,0 0,0 0,-1 0,-1 -1,0 -1,0 -1,0 -2,2 -2,-5 0,-3 0,0 1,0 1,0 0,0 0,0 0,-1 -1,0 -3,0 -4,0 -1,0 0,-1 0,-2 1,0 3,0 4,0 0,0 0,-1 0,-1 0,0 0,0 -1,0 -2,2 -2,-5 1,-3 0,0 0,0 0,0 0,0 0,0 0,-1 -1,0 -3,0 -4,0 0,0 0,-1 0,-2 1,1 2,0 3,0 1,0 1,0 1,0 0,0 0,-1 0,-1 0,0 0,0 0,0 -3,2 -2,-5 0,-3 0,0 0,0 1,0 0,0 0,0 0,-1 -2,0 -3,0 -5,0 0,0 0,-1 0,-2 2,1 4,1 5,0 0,0 0,-1 0,-1 0,0 -1,0 -1,0 -2,2 -2,-5 0,-3 0,0 1,0 1,0 0,0 0,0 0,-1 0,0 -1,0 -1,0 -1,0 -2,0 -4,0 0,0 0,-1 1,-2 1,1 3,1 4,0 0,0 0,-1 0,-1zm-14 191c1,0 2,0 3,0 1,0 1,1 2,1 2,1 2,-5 0,-3 -1,0 -1,0 -2,1 -1,0 -2,0 -3,-1 0,1 0,2 0,2zm0 7c1,0 2,0 3,0 0,0 1,1 2,1 1,1 2,-5 0,-3 -2,1 -4,1 -5,0 0,1 0,2 0,2zm0 7c1,0 2,0 2,0 1,0 2,1 2,1 2,1 2,-5 0,-3 -1,1 -3,1 -4,0 0,1 0,2 0,2zm0 7c1,0 1,0 2,0 1,0 2,1 2,1 2,1 2,-5 0,-3 -1,1 -3,1 -4,0 -1,1 -1,2 0,2zm0 7c0,0 1,0 2,0 1,0 2,1 2,1 2,1 2,-5 0,-3 0,0 -1,0 -2,0 -1,1 -2,1 -2,0 -1,1 -1,2 0,2zm-1 7c1,0 2,0 3,0 1,0 2,1 2,1 2,1 2,-5 0,-3 0,0 -1,0 -2,0 -1,1 -2,1 -3,0 0,1 0,2 0,2zm4 122c-1,0 -1,0 -2,0 0,1 0,1 1,1 0,0 1,0 1,1 0,0 0,0 0,0 0,-1 0,-1 0,-2zm-3 7c0,1 0,1 0,1 -1,0 -2,-1 -2,-2 0,-1 0,-1 -1,-1 0,1 0,2 0,3 1,0 2,0 2,0 1,1 2,1 2,0 0,0 0,0 -1,-1zm-3 3c1,0 2,-1 2,0 1,0 2,1 2,1 1,1 2,0 2,-2 0,1 0,1 0,1 0,1 0,2 0,2 -1,0 -1,0 -2,0 0,0 -1,0 -1,0 0,0 0,-1 -1,-1 0,-1 -1,0 -1,1 0,0 0,1 0,1 0,0 0,2 1,2 0,0 0,0 0,0 0,0 0,0 1,0 0,0 1,-1 1,-1 1,0 1,0 2,0 0,1 0,3 0,5 -1,1 -3,0 -4,0 -1,-3 -2,3 0,3 1,0 1,-1 2,-1 1,0 2,0 2,0 0,2 0,3 0,4 0,0 0,0 0,1 -1,1 -3,0 -4,-1 -2,-2 -2,4 0,3 1,1 1,0 2,0 1,0 1,0 2,0 0,2 0,3 0,5 -1,0 -1,0 -2,0 -1,0 -2,0 -2,-1 -2,-2 -2,4 0,3 0,0 1,0 2,0 1,0 1,0 2,0 0,2 0,3 0,5 -1,0 -2,0 -2,0 -1,0 -2,0 -2,-1 -2,-2 -2,4 0,3 0,0 1,0 2,0 0,0 1,0 2,0 0,2 0,3 0,5 -1,0 -2,0 -2,0 -1,0 -2,0 -2,-1 -2,-2 -2,4 0,3 0,0 1,0 1,0 1,0 2,0 3,0 0,2 0,3 0,5 -1,0 -2,0 -3,0 0,0 -1,0 -2,-2 -1,-1 -2,5 0,4 1,0 1,0 2,0 1,0 2,0 3,0 0,2 0,3 0,5 -1,0 -2,0 -3,0 -1,0 -1,0 -2,-2 -2,-1 -2,5 0,4 1,0 1,0 2,0 1,0 2,0 3,0 0,2 0,3 0,5 -1,0 -2,0 -3,0 -1,0 -2,0 -2,-2 -2,-1 -2,5 0,4 0,0 1,0 2,0 1,0 2,0 3,0 0,2 0,3 -1,5 0,0 0,0 0,0 0,0 -1,0 -2,0 -1,0 -2,0 -2,-2 -2,-1 -2,5 0,4 0,0 1,0 2,0 1,0 2,0 2,0 0,0 0,0 0,0 0,2 0,3 0,5 0,0 0,0 0,0 -1,0 -2,0 -2,0 -1,0 -2,0 -2,-2 -1,0 -1,0 -2,1 0,-1 0,-1 0,-2 1,0 1,0 1,0 1,1 2,2 2,2 2,2 2,-5 0,-3 0,0 0,0 -2,0 0,0 0,0 -1,0 0,-2 0,-4 0,-6 1,0 1,0 2,0 1,1 1,2 1,2 2,2 2,-5 1,-3 -1,0 -1,0 -2,0 -1,0 -1,0 -2,0 0,-2 0,-4 0,-6 1,0 1,0 2,1 1,0 1,1 2,1 2,2 2,-5 0,-3 -1,0 -1,0 -2,0 -1,0 -1,0 -2,0 0,-2 0,-4 0,-6 1,0 2,0 2,0 1,1 1,2 2,2 2,2 2,-5 0,-3 0,0 -1,1 -2,0 -1,0 -1,0 -2,0 0,-2 0,-4 0,-5 1,-1 2,-1 2,0 1,0 2,1 2,1 2,2 2,-5 0,-3 0,0 -1,0 -2,0 0,0 -2,0 -2,0 -1,-5 0,-17 0,-25 0,-1 0,-1 0,-1 0,0 0,0 0,0 1,0 2,0 3,0 1,1 1,1 2,1 2,2 2,-4 0,-3 -1,0 -1,0 -2,0 -1,0 -2,0 -3,0 0,0 0,0 0,0 0,-1 1,-2 1,-3 0,0 0,-1 0,-2 0,0 0,0 0,0 0,0 0,0 0,0 0,0 0,0 1,0 0,0 0,0 0,0 1,0 1,1 2,1 0,0 1,0 1,0 1,1 1,0 1,-1 0,0 0,0 0,0 0,0 0,-1 0,-1 0,0 0,0 0,0 0,-1 0,-1 -1,-1 0,0 0,0 0,0 0,0 -1,1 -2,0 0,0 -1,0 -2,0 0,-1 0,-3 0,-5zm5 74c-1,0 -2,0 -3,0 0,0 -1,0 -1,0 -1,0 -2,0 -2,-1 0,1 0,1 0,2 1,0 1,0 1,0 1,0 2,0 2,0 2,-2 2,5 0,3 0,0 -1,-1 -2,-2 0,0 0,0 -1,0 0,1 0,1 0,1 1,0 1,0 1,0 1,2 1,2 2,2 1,0 2,0 3,0 0,0 0,0 0,0 0,-2 0,-3 0,-5 0,0 0,0 0,0zm0 7c-1,0 -2,0 -3,0 -1,0 -1,0 -2,0 0,0 0,0 -1,0 0,0 0,0 0,1 1,0 1,0 1,0 1,0 1,0 2,0 2,-2 2,5 0,3 -1,0 -1,-1 -2,-2 0,0 -1,0 -1,0 0,0 0,1 0,1 1,0 1,0 1,0 1,2 1,2 2,2 1,0 2,0 3,0 0,0 0,1 0,2 -1,0 -2,0 -3,0 -1,0 -2,0 -2,0 0,0 -1,0 -1,0 0,0 0,0 0,0 0,0 1,0 1,0 1,1 1,1 2,1 2,-2 2,4 0,3 -1,0 -1,-1 -2,-2 0,0 -1,0 -1,0 0,0 0,1 0,1 0,0 1,0 1,0 0,2 1,2 2,2 1,0 2,0 3,0 0,0 0,1 0,2 -1,-1 -2,0 -3,0 -1,0 -2,0 -2,-1 0,1 -1,1 -1,1 0,0 0,0 0,0 0,0 0,1 0,1 2,0 2,0 2,0 2,-2 2,5 0,3 0,0 0,-1 -2,-2 0,0 0,0 0,0 0,0 0,1 0,1 0,0 1,0 1,0 0,2 1,2 2,2 1,0 2,0 2,0 1,0 1,1 0,2 0,0 -2,0 -2,0 -1,0 -2,0 -2,-1 0,1 -1,1 -1,1 0,0 0,0 0,1 1,0 2,0 2,0 2,-2 2,5 0,3 0,0 -1,-1 -1,-1 0,0 0,0 0,1 0,1 1,1 1,1 1,0 2,0 3,0 1,0 0,1 0,2 -1,0 -2,0 -3,0 0,0 -1,0 -1,0 0,0 0,1 0,1 0,0 1,0 1,0 1,-1 2,2 1,3 0,0 -1,1 -1,0 0,0 -1,-1 -1,-1 0,1 0,1 0,2 0,0 1,0 1,0 1,0 2,0 3,0 0,0 0,1 0,1 1,-1 2,-1 2,-1 0,-10 -1,-27 -1,-30 0,-1 0,-2 0,-3 0,0 0,0 0,0zm-1 35c-1,0 -2,0 -3,0 0,0 -1,0 -1,0 0,0 0,1 0,1 0,0 1,0 1,0 2,-2 2,4 0,3 -1,0 -1,0 -1,-1 0,1 0,1 0,2 1,0 3,0 4,0 -1,-2 -1,-3 -1,-3 1,-1 1,-2 1,-2zm-1 7c-1,-1 -2,0 -3,0 0,0 0,0 0,1 0,0 0,0 0,0 3,-2 2,4 1,3 0,0 0,1 0,1 0,0 1,0 2,0 0,-1 0,-3 0,-3 0,-1 0,-2 0,-2zm1 -2c0,1 0,1 0,1m0 8c-1,-1 -2,0 -3,0 0,0 0,0 0,0 0,0 0,0 0,0 0,0 0,0 0,1 1,0 2,0 3,0 0,-1 0,-1 0,-1 0,0 0,0 0,0zm-5 -109c1,0 2,-1 3,0 1,0 1,1 2,1 1,2 2,-4 0,-3 -1,0 -1,0 -2,0 -1,0 -2,0 -3,0 0,0 0,1 0,2zm0 7c1,-1 2,-1 3,0 1,0 1,1 1,1 2,2 2,-5 1,-3 -1,0 -1,0 -2,0 -1,0 -2,0 -3,0 0,0 0,1 0,2zm0 7c1,-1 2,-1 2,0 1,0 2,1 2,1 2,2 2,-4 0,-3 0,0 -1,0 -2,0 0,0 -1,0 -2,0 0,0 0,1 0,2zm-1 12c0,0 0,1 0,1 0,2 0,4 0,6 0,0 0,0 0,0 0,-4 0,-7 0,-7 0,-4 0,-17 1,-26 -1,9 -1,17 -1,26zm0 9c0,0 0,0 0,0 0,1 0,3 0,5 0,0 0,0 0,0 0,-2 0,-4 0,-6 0,0 0,1 0,1zm0 7c0,1 0,3 0,5m0 2c0,1 0,3 0,5m0 1c0,2 0,4 0,6m0 1c0,0 0,0 0,0 0,2 -1,3 -1,4 0,0 0,-2 1,-4z"/>
   <g>
    <path class="filin" d="M306 96c2,0 5,-1 7,-1 0,0 -1,0 -1,0l0 0 0 0c0,0 0,0 0,0l0 0c-1,-1 -1,-1 -1,-1l0 0 -1 0 0 0 0 -1 0 0c0,0 0,0 0,0l0 0 0 0 0 -1 0 0 0 0 0 0 0 0 0 0c0,0 0,-1 0,-1l0 0 0 0 0 0 0 0c0,-1 0,-1 0,-1l1 0 0 0c0,-1 0,-1 0,-1l0 0c0,0 0,0 1,-1l0 0 0 0 0 0 0 0 0 0c0,0 1,0 2,0 15,-2 22,-8 32,-19 3,-4 9,-13 14,-23 -30,6 -71,6 -101,-1 5,11 11,20 14,24 10,12 17,17 32,19 1,0 2,0 2,1l0 0 0 0 0 0 0 0c1,0 1,0 1,0l0 0 0 0 0 1 0 0 0 0c0,0 1,0 1,0l0 0c0,0 0,1 0,1l0 0 0 0c0,1 0,1 0,1l0 0 0 1 0 0 0 0 0 0 0 0c0,0 0,0 0,1l0 0 0 0 0 0 -1 0c0,0 0,1 0,1l0 0 0 0 0 0 0 0 0 0c0,0 -1,0 -1,0l0 0c0,0 -1,1 -1,1z"/>
    <g>
     <path class="fil0" d="M326 93c12,7 29,22 36,29 12,-12 33,-88 28,-99 -2,-2 -6,-7 -11,-11 0,10 -5,26 -16,46 -10,17 -21,29 -37,35z"/>
     <path class="fil0" d="M293 93c-16,-6 -27,-18 -36,-35 -12,-20 -16,-34 -17,-43 -4,4 -8,7 -10,8 0,0 0,0 0,0 -1,2 -1,5 -1,10l0 0 0 0c2,24 19,79 28,89 8,-7 24,-22 36,-29z"/>
     <path class="fil0" d="M249 8c0,0 -1,1 -1,1 -2,6 2,17 7,28 30,8 78,10 109,0 5,-11 9,-22 8,-28 -55,11 -71,8 -123,-1z"/>
    </g>
   </g>
   <path class="fil2" d="M493 319c28,-5 29,-11 37,-12 0,8 -10,19 -26,17 -13,-1 -10,-3 -11,-5zm-188 -223c-12,2 -44,35 -47,35 -12,-1 -33,-61 -36,-94l-55 15c-16,6 -32,10 -49,15 -20,4 -28,7 -39,25 -11,20 -8,37 -18,54 -4,6 -16,20 -25,43 -13,37 -24,85 -24,86 8,3 28,9 31,16 -7,4 -21,-7 -32,-6 -3,7 2,8 7,10 12,6 31,11 43,13 12,3 23,3 35,2 19,-1 14,12 26,10 3,-9 -22,-149 -22,-178 0,-13 -4,-37 9,-31 0,2 0,3 -1,5 -5,71 0,130 22,201 22,69 33,151 71,213 7,11 22,25 23,33 -5,-2 -14,-12 -17,-16 -5,-7 -9,-13 -14,-19 -16,-24 -35,-61 -46,-88 -2,-7 -16,-100 -18,-102 -1,2 -2,4 -2,7 -6,23 -10,84 -4,111 4,19 -16,22 0,63 5,14 0,23 -2,31 -2,8 1,10 2,17 3,16 0,72 8,85 16,3 34,1 50,3 52,9 64,24 138,19 45,-4 81,-23 121,-37 13,-4 40,-9 42,-10 3,-15 -1,-49 -6,-64 -3,3 -20,24 -36,37 -2,3 -2,3 -7,4 4,-10 25,-26 35,-39 8,-11 28,-56 17,-69 -5,3 -12,20 -16,26 -10,19 -18,34 -30,53 -3,5 -11,22 -17,24 -2,-4 1,-7 4,-12 15,-26 28,-45 42,-74 17,-34 22,-130 19,-169 -5,3 -14,88 -17,95 -6,14 -11,28 -16,42 -5,15 -10,28 -16,42 -3,7 -6,14 -9,20 -2,4 -4,6 -6,10 -3,5 -1,5 -8,6 2,-6 8,-16 11,-22 14,-29 33,-84 43,-115 6,-16 12,-87 16,-103 9,-39 3,-159 22,-176 0,0 1,0 1,1 0,0 0,0 0,1 1,3 0,3 -2,13 -14,69 -1,85 -12,153 19,1 36,-7 38,-24 5,-47 6,-74 3,-123 0,-1 0,-1 0,-1 0,-1 0,-1 0,-2 0,0 0,0 1,-1 0,0 0,-1 0,-2l0 -4c1,-1 3,-3 5,-4 -9,48 -3,103 -5,160 20,-1 56,-12 71,-20 1,-7 0,-7 -3,-12 -17,0 -46,15 -63,13 3,-5 8,-5 14,-7l48 -13c-8,-47 -27,-44 -41,-88 -2,-5 -4,-20 -4,-27 -5,-28 -18,-67 -47,-81 -9,-4 -86,-30 -113,-39 -3,32 -24,93 -36,94 -4,1 -36,-32 -48,-35 0,0 0,0 -1,0l0 0 0 0 0 0 0 0c0,0 -1,0 -1,0l0 0 0 0c0,0 0,0 0,0l0 0c-1,-1 -1,-1 -1,-1l0 0 -1 0 0 0 0 -1 0 0c0,0 0,0 0,0l0 0 0 0 0 -1 0 0 0 0 0 0 0 0 0 0c0,0 0,-1 0,-1l0 0 0 0 0 0 0 0c0,-1 0,-1 0,-1l1 0 0 0c0,-1 0,-1 0,-1l0 0c0,0 0,0 1,-1l0 0 0 0 0 0 0 0 0 0c0,0 1,0 2,0 15,-2 22,-8 32,-19 3,-4 9,-13 14,-23 -30,6 -71,6 -101,-1 5,11 11,20 14,24 10,12 17,17 32,19 1,0 2,0 2,1l0 0 0 0 0 0 0 0c1,0 1,0 1,0l0 0 0 0 0 1 0 0 0 0c0,0 1,0 1,0l0 0c0,0 0,1 0,1l0 0 0 0c0,1 0,1 0,1l0 0 0 1 0 0 0 0 0 0 0 0c0,0 0,0 0,1l0 0 0 0 0 0 -1 0c0,0 0,1 0,1l0 0 0 0 0 0 0 0 0 0c0,0 -1,0 -1,0l0 0c0,0 -1,1 -1,1l0 0 0 0c-1,0 -1,0 -1,0zm-83 -73c1,-2 1,-3 2,-4 5,-3 16,-14 22,-19 1,0 2,0 3,0 46,9 64,15 112,5 15,-3 13,-5 25,5 3,2 6,4 8,6l0 1c1,0 1,1 2,1 1,2 2,4 3,5 36,15 123,39 140,56 16,15 17,24 24,46 2,9 4,19 6,29 9,52 51,103 51,140 0,10 -57,24 -70,26 -32,7 -12,16 -51,16l0 98c0,24 -5,37 -5,51 0,4 12,17 1,50 -1,4 -7,17 -7,20 0,9 2,9 3,15 1,5 1,9 2,14 2,17 2,28 1,45 -2,16 -11,9 -33,15 -54,13 -87,40 -150,40l-37 0c-20,0 -34,-2 -64,-10 -30,-8 -33,-8 -65,-8 -5,0 -14,1 -19,0 -5,-2 -6,-5 -8,-10 -5,-20 -6,-45 -6,-67 0,-11 -3,-30 -3,-33 0,-18 4,-15 4,-25 0,-7 -4,-13 -6,-19 -10,-29 3,-34 3,-52 0,-8 -2,-11 -2,-18l0 -15c0,-16 8,-81 8,-92 0,-4 -5,-4 -11,-9 -6,-4 -25,-4 -35,-4 -4,0 -12,-1 -16,-2 -10,-2 -21,-5 -29,-8 -20,-8 -24,-7 -25,-13l0 -11c0,-14 35,-126 49,-148 3,-5 3,-8 4,-14 1,-5 2,-9 4,-13 17,-53 32,-52 79,-64 18,-5 37,-12 53,-18 5,-2 27,-5 33,-8 0,0 0,0 0,0zm27 -15c0,0 -1,1 -1,1 -2,6 2,17 7,28 30,8 78,10 109,0 5,-11 9,-22 8,-28 -55,11 -71,8 -123,-1zm44 85c-16,-6 -27,-18 -36,-35 -12,-20 -16,-34 -17,-43 -4,4 -8,7 -10,8 0,0 0,0 0,0 -1,2 -1,5 -1,10l0 0 0 0c2,24 19,79 28,89 8,-7 24,-22 36,-29zm33 0c12,7 29,22 36,29 12,-12 33,-88 28,-99 -2,-2 -6,-7 -11,-11 0,10 -5,26 -16,46 -10,17 -21,29 -37,35zm-146 328c-3,-6 -13,-79 -17,-81 -5,7 26,108 29,113 10,15 28,37 39,51l16 18c3,2 4,4 6,6 4,4 7,7 11,11 4,3 8,8 12,11 8,7 40,37 53,36 -1,-4 -1,-3 -5,-6l-19 -14c-48,-34 -97,-96 -125,-145zm-53 151c1,1 -1,1 2,3 3,2 22,11 25,12 15,7 79,39 90,34 -1,-3 1,-1 -3,-3l-26 -10c-19,-7 -81,-36 -88,-36z"/>
  </g>
 </g>
</svg>
