<svg xmlns="http://www.w3.org/2000/svg" xml:space="preserve" width="8.16842in" height="8.92657in" version="1.1" style="shape-rendering:geometricPrecision; text-rendering:geometricPrecision; image-rendering:optimizeQuality; fill-rule:evenodd; clip-rule:evenodd"
viewBox="0 0 1005 1098"
 xmlns:xlink="http://www.w3.org/1999/xlink">
 <defs>
  <style type="text/css">
   <![CDATA[
    .filpulc1 {fill:black}
    .fil0 {fill:white}
    .filpulc2 {fill:white}
   ]]>
  </style>
 </defs>
 <g id="Layer_x0020_1">
  <metadata id="CorelCorpID_0Corel-Layer"/>
  <g id="_946218864">
   <path class="fil0" d="M976 424c23,50 -13,104 14,142 33,46 1,90 0,145 0,15 9,55 -6,60 -22,8 48,186 -15,188 -8,0 -7,0 -10,1 -3,20 -10,76 -14,80 -8,8 -24,-5 -30,-7 -23,-8 -63,-3 -72,-17 -9,-13 7,-23 5,-43 -2,-32 -1,-25 10,-36 -14,-15 -49,-17 -28,-51 7,-11 -2,-103 -5,-120 -10,-56 -13,-55 -4,-112 3,-20 -7,-52 -7,-78 1,-7 2,-28 1,-39 -5,-2 -9,-8 -13,-14 1,12 3,23 6,34 11,33 5,100 5,138 0,39 -9,60 -9,82 0,7 20,28 2,80 -2,7 -11,28 -11,33 0,15 3,14 5,24 2,8 2,14 3,23 4,26 4,45 1,71 -3,27 -17,16 -52,25 -88,22 -141,65 -242,65l-60 0c-5,0 -11,0 -16,-1 0,1 -1,1 -2,0 -23,-1 -46,-5 -84,-15 -49,-13 -53,-13 -104,-13 -9,0 -23,1 -31,-1 -8,-2 -10,-8 -13,-16 -8,-32 -9,-73 -9,-107 0,-19 -6,-49 -6,-53 0,-30 7,-24 7,-40 0,-12 -6,-21 -9,-31 -5,-14 -7,-25 -7,-34 0,-14 11,-32 11,-50 0,-3 -1,-53 -2,-70 0,-4 0,-6 0,-10 4,-46 18,-88 19,-132 0,-3 0,-5 0,-7 -4,8 -9,16 -15,19 -2,21 1,43 0,65 -2,22 -10,46 -11,65 -2,19 1,84 -2,99 0,3 0,14 -1,19 -4,26 1,64 -5,92 1,1 3,5 4,6 21,33 -14,36 -28,51 12,11 12,4 10,36 -2,20 14,30 5,43 -9,14 -49,9 -72,17 -6,2 -22,15 -30,7 -4,-4 -11,-60 -14,-80 -3,-1 -2,-1 -10,-1 -47,-1 -20,-121 -15,-146 13,-63 -46,-184 -6,-244 27,-41 -9,-91 14,-142 10,-24 18,-57 28,-78 10,-49 32,-98 39,-148 0,-3 1,-5 2,-7 1,-4 3,-8 4,-13 29,-84 52,-83 128,-103 41,-10 75,-23 111,-46 1,-4 3,-8 6,-9 18,-9 30,-20 35,-20 11,0 79,47 200,23 82,-17 31,-17 86,4 3,1 4,4 5,7 38,22 173,58 206,90 25,25 26,38 37,74 4,15 8,30 11,46 4,26 17,67 22,102 11,21 18,55 28,78z"/>
   <path class="filpulc1" d="M862 943l-1 17 -4 34 -10 11c0,0 -1,7 2,8 3,0 24,2 29,3 4,1 30,5 30,5l23 7c0,0 14,-23 14,-26 1,-4 0,-43 -6,-43 0,0 -9,-4 -16,-7 -7,-2 -34,-14 -45,-13 -10,1 -16,4 -16,4z"/>
   <path class="filpulc1" d="M983 751c-4,14 -17,43 -27,52 -11,10 -3,33 -1,44 -5,-12 -18,-40 -9,-55 5,-8 21,-10 37,-41zm-183 -249c18,22 23,12 36,29l8 12 12 15c22,26 -5,-8 11,16 8,10 39,23 54,41l5 6c-18,-17 -22,-17 -45,-28 -32,-16 -26,-7 -44,-46 -18,-38 -17,-15 -37,-45zm-738 447c6,-3 -11,5 26,-7 44,-14 6,-7 38,-11l0 -1c-36,1 -40,2 -64,17l0 2zm878 11c-29,-18 -32,-20 -62,-21l0 1c12,2 -10,-1 28,11 44,14 9,-1 33,10l1 -1zm-898 -453c7,46 22,76 37,119 8,23 7,37 7,60 -1,62 -8,40 12,96 -25,-58 -14,-32 -21,-95 -2,-19 -6,-29 -9,-44l-1 -14c-4,-42 -20,-72 -25,-122zm-18 442c1,-21 15,-51 36,-58 12,-4 45,-5 58,-5 -22,4 -33,4 -53,16 -23,15 -34,17 -41,47zm815 -56c7,-4 40,-26 51,-25 4,1 42,17 45,19 -45,-9 -52,-7 -96,6z"/>
   <path class="filpulc1" d="M139 935l1 17 3 34 11 11c0,0 0,7 -3,7 -3,0 -23,3 -28,4 -5,1 -31,4 -31,4l-23 7c0,0 -13,-22 -14,-25 0,-4 0,-43 6,-43 0,0 10,-4 16,-7 7,-3 35,-14 45,-13 10,1 17,4 17,4z"/>
   <path class="filpulc1" d="M628 1056l-28 8 -35 11m-97 7c2,-1 5,-3 8,-4 9,-4 45,-11 73,-15 19,-3 45,-10 68,-18m-280 1c-3,0 -6,-1 -9,-1 29,11 48,17 60,18m209 -28c-9,0 -18,2 -26,4 -43,10 -84,17 -102,17m142 -22c-4,0 -9,0 -12,1m274 -620c-1,-63 -3,-123 7,-177 -3,2 -6,4 -8,7l0 6c0,2 0,3 0,4 -1,0 -1,1 -1,1 0,1 0,2 0,3 0,1 0,1 0,1 3,64 3,104 -1,156 1,0 2,-1 3,-1zm-811 534c6,-3 -11,5 26,-7 44,-14 6,-7 38,-11 -2,8 6,14 12,19 1,12 1,4 0,18 -2,22 6,27 7,35 -1,0 -3,0 -4,0 -38,6 -36,0 -68,14 -3,-22 -6,-52 -11,-68zm64 -19c-36,1 -40,2 -64,17l-1 -1c-3,-11 -25,-7 -31,-9 -11,-17 9,-116 11,-137 5,-53 -42,-179 -13,-222 35,-53 -3,-102 15,-145 12,-27 20,-52 29,-80l-2 1c4,-3 4,-6 5,-11 17,-47 40,-160 62,-198 17,-29 31,-33 62,-41 27,-7 54,-14 80,-23 17,-6 59,-21 72,-34 8,-8 -2,-14 -7,-21 -37,25 -73,38 -115,49 -76,20 -99,19 -128,103 -1,5 -3,9 -4,13 -1,2 -2,4 -2,7 -7,50 -29,99 -39,148 -10,21 -18,54 -28,78 -23,51 13,101 -14,142 -40,60 19,181 6,244 -5,25 -32,145 15,146 8,0 7,0 10,1 3,20 10,76 14,80 8,8 24,-5 30,-7 23,-8 63,-3 72,-17 9,-13 -7,-23 -5,-43 2,-32 2,-25 -10,-36 14,-15 49,-18 28,-51 -1,-1 -3,-5 -4,-6 6,-28 1,-66 5,-92 1,-5 1,-16 1,-19 3,-15 0,-80 2,-99 1,-19 9,-43 11,-65 1,-22 -2,-44 0,-65 6,-3 11,-11 15,-19 0,2 0,4 0,7 -1,44 -15,86 -19,132 0,4 0,6 0,10 1,17 2,67 2,70 0,18 -11,36 -11,50 0,9 2,20 7,34 3,10 9,19 9,31 0,16 -7,10 -7,40 0,4 6,34 6,53 0,34 1,75 9,107 3,8 5,14 13,16 8,2 22,1 31,1 51,0 55,0 104,13 38,10 61,14 84,15 1,1 2,1 2,0 5,1 11,1 16,1l60 0c101,0 154,-43 242,-65 35,-9 49,2 52,-25 3,-26 3,-45 -1,-71 -1,-9 -1,-15 -3,-23 -2,-10 -5,-9 -5,-24 0,-5 9,-26 11,-33 18,-52 -2,-73 -2,-80 0,-22 9,-43 9,-82 0,-38 6,-105 -5,-138 -3,-11 -5,-22 -6,-34 4,6 8,12 13,14 1,11 0,32 -1,39 0,26 10,58 7,78 -9,57 -6,56 4,112 3,17 12,109 5,120 -21,34 14,36 28,51 -11,11 -12,4 -10,36 2,20 -14,30 -5,43 9,14 49,9 72,17 6,2 22,15 30,7 4,-4 11,-60 14,-80 3,-1 2,-1 10,-1 63,-2 -7,-180 15,-188 15,-5 6,-45 6,-60 1,-55 33,-99 0,-145 -27,-38 9,-92 -14,-142 -10,-23 -17,-57 -28,-78 -5,-35 -18,-76 -22,-102 -3,-16 -7,-31 -11,-46 -11,-36 -12,-49 -37,-74 -34,-32 -174,-69 -208,-91 -7,10 0,17 -10,22 28,28 124,41 171,63 48,21 69,85 76,131 2,13 24,103 27,105l-2 -1c9,28 17,53 29,80 18,42 -19,97 15,145 25,34 -4,86 -4,132 -1,12 1,32 1,47 -34,23 19,157 1,183 -6,2 -28,-2 -31,9 -2,3 -2,7 -3,11 -29,-18 -32,-20 -62,-21 2,-5 0,-10 -8,-16 -6,-5 -25,-15 -28,-20 3,-9 13,-13 10,-28l0 2c-4,-44 -13,-132 -19,-175 5,-43 9,-44 3,-87 -5,-39 -2,-32 -2,-69 0,-8 0,-22 -8,-25 -14,-14 -18,-33 -17,-53 1,-9 1,-17 2,-25 2,-17 6,-33 7,-47l1 -21c0,-4 -3,-8 -7,-9 0,-31 2,-64 12,-115 4,-16 4,-16 3,-22 0,0 0,-1 0,-1 0,0 -1,-1 -1,-1 -17,14 -22,79 -25,146 0,0 0,1 0,2 -2,33 -12,77 -10,106 0,3 1,8 2,13 -1,6 -2,12 -3,17 -7,26 -17,139 -25,164 -10,31 -52,152 -70,186 -5,9 -15,26 -18,35 11,-1 9,-2 14,-10 3,-5 5,-9 8,-15 6,-10 5,-22 9,-33 9,-21 27,-49 33,-66 8,-24 16,-46 25,-68 4,-12 19,-148 27,-153 5,62 -2,217 -30,271 -23,47 -44,77 -68,120 -5,8 -9,12 -6,18 10,-3 22,-30 28,-39 18,-29 31,-54 48,-83 5,-11 17,-39 25,-43 17,21 -15,93 -28,111 -15,20 -49,47 -55,63 7,-2 7,-2 11,-6 25,-21 53,-56 58,-60 9,24 15,79 9,103 -3,2 -46,9 -67,17 -31,10 -60,23 -90,33 -21,8 -41,14 -63,19 -14,3 -28,5 -42,6 -22,1 -40,2 -55,1 -3,0 -152,-28 -167,-30 -26,-5 -55,-2 -80,-6 -13,-21 -9,-111 -13,-137 -2,-12 -7,-14 -4,-27 3,-13 12,-27 3,-50 -25,-66 8,-71 1,-102 -7,-29 -6,-162 12,-185 5,5 18,138 28,163 0,0 1,-1 1,-1l0 -1 0 0c0,-89 -2,-113 -29,-199 -3,-7 -5,-15 -7,-22 0,-2 0,-3 0,-4 2,-29 -8,-73 -10,-106 0,-5 -4,-9 -9,-9 -2,0 -4,1 -5,2 -9,-60 -18,-121 -18,-143 0,-20 -7,-59 14,-50 0,3 0,6 -1,9 -5,65 -4,124 4,185 -2,1 -3,4 -3,6l1 21c4,38 23,95 -8,125 -8,3 -8,17 -8,25 0,37 1,30 -2,69 -7,76 -6,179 -16,259l0 -3c-3,16 7,20 10,29 -3,5 -22,15 -28,20 -5,4 -7,7 -8,10zm813 31c-24,-11 11,4 -33,-10 -38,-12 -16,-9 -28,-11 -2,5 -8,10 -12,13 -1,12 -1,4 0,18 2,22 -6,27 -7,35 1,0 3,0 4,0 38,6 36,0 68,14 3,-18 5,-42 8,-59zm-531 -124c-44,-47 -7,-3 -32,-44 -121,-198 -6,-21 37,34 0,1 1,2 2,4 4,9 36,48 -7,6zm-194 80c2,2 -1,1 4,6 4,3 35,17 39,19 25,11 123,61 144,54 -1,-1 -1,-3 -2,-5l-43 -16c-32,-12 -131,-58 -142,-58z"/>
   <path class="filpulc1" d="M658 75c-33,54 -88,93 -156,90 -39,-1 -81,-19 -101,-40 -21,-21 -43,-39 -58,-72 -4,-10 -6,-29 3,-33 18,-9 30,-20 35,-20 11,0 79,47 200,23 82,-17 31,-17 86,4 14,5 -5,40 -9,48zm-216 11c10,0 23,6 60,6 25,1 41,-1 64,-4 -9,12 -41,22 -62,23 -26,0 -50,-12 -62,-25zm-65 -64c10,9 17,35 49,63 13,12 10,15 32,26 12,5 31,12 46,12 41,1 85,-36 109,-63 7,-7 21,-26 27,-30 25,14 25,18 8,43 -31,50 -79,86 -146,83 -101,-4 -155,-103 -150,-118 2,-5 19,-15 25,-16zm240 17c-8,13 -24,30 -43,35 -39,10 -103,8 -140,-4 -19,-6 -30,-21 -38,-39 44,9 33,19 108,20 65,1 73,-9 113,-12z"/>
   <g>
    <path class="filpulc1" d="M377 22c10,9 17,35 49,63 13,12 10,15 32,26 12,5 31,12 46,12 41,1 85,-36 109,-63 7,-7 21,-26 27,-30 25,14 25,18 8,43 -31,50 -79,86 -146,83 -101,-4 -155,-103 -150,-118 2,-5 19,-15 25,-16zm240 17c-8,13 -24,30 -43,35 -39,10 -103,8 -140,-4 -19,-6 -30,-21 -38,-39 44,9 33,19 108,20 65,1 73,-9 113,-12z"/>
    <path class="filpulc2" d="M442 86c10,0 23,6 60,6 25,1 41,-1 64,-4 -9,12 -41,22 -62,23 -26,0 -50,-12 -62,-25z"/>
   </g>
  </g>
 </g>
</svg>
