<svg xmlns="http://www.w3.org/2000/svg" xml:space="preserve" width="8.16842in" height="9.39467in" version="1.1" style="shape-rendering:geometricPrecision; text-rendering:geometricPrecision; image-rendering:optimizeQuality; fill-rule:evenodd; clip-rule:evenodd"
viewBox="0 0 1348 1550"
 xmlns:xlink="http://www.w3.org/1999/xlink">
 <defs>
  <style type="text/css">
   <![CDATA[
    .filv0 {fill:black}
    .fil0 {fill:white}
    .filv2 {fill:white}
   ]]>
  </style>
 </defs>
 <g id="Layer_x0020_1">
  <metadata id="CorelCorpID_0Corel-Layer"/>
  <g id="_946220304">
   <path class="filv0" d="M702 1475l-114 -9 -74 -13 -118 -25 -93 5 -31 -5c17,88 -29,56 108,82 18,3 75,17 124,25 49,9 79,2 142,12 63,11 121,-14 159,-25 113,-35 196,-47 270,-108l-7 -47c-131,33 -230,82 -366,108z"/>
   <path class="fil0" d="M748 44c29,-4 81,-13 106,-26 12,-5 37,21 46,38 50,29 233,78 277,121 34,33 36,51 50,100 6,19 11,40 14,61 6,34 23,90 30,137 14,28 25,73 38,104 30,67 -17,140 19,190 44,62 1,122 0,195 -1,20 11,74 -9,81 -30,11 65,249 -19,252 -11,0 -9,0 -14,1 -4,27 -14,102 -19,107 -10,11 -32,-6 -40,-9 -31,-11 -84,-5 -96,-22 -13,-19 8,-32 6,-59 -3,-42 -2,-33 14,-48 -19,-19 -66,-23 -38,-68 10,-15 -3,-138 -7,-161 -14,-76 -17,-74 -5,-151 4,-27 -10,-69 -9,-104 0,-9 3,-38 1,-52 -7,-4 -12,-11 -17,-20 0,16 3,32 8,46 14,45 7,134 7,185 0,53 -12,81 -12,110 0,9 26,38 2,108 -3,9 -15,37 -15,44 0,20 4,18 7,32 2,11 2,19 4,31 5,35 5,61 1,96 -4,36 -23,20 -70,32 -117,30 -188,88 -324,88l-80 0c-7,0 -15,0 -22,-1 0,1 -1,1 -2,0 -32,-2 -62,-7 -114,-21 -65,-17 -71,-17 -139,-17 -12,0 -31,2 -41,-1 -12,-3 -14,-11 -17,-22 -12,-43 -13,-97 -13,-144 0,-24 -8,-65 -8,-71 0,-39 10,-32 10,-53 0,-15 -9,-28 -13,-41 -7,-19 -9,-34 -9,-46 1,-18 15,-43 15,-68 0,-4 -2,-70 -3,-93 0,-5 0,-8 0,-13 6,-62 25,-119 26,-177 0,-4 0,-7 0,-10 -6,11 -12,22 -21,26 -2,27 2,58 0,87 -2,29 -13,62 -15,87 -1,26 2,113 -1,133 -1,4 -1,19 -2,25 -5,36 1,86 -7,123 1,3 4,7 5,9 29,45 -18,48 -38,67 16,16 17,7 14,49 -2,27 19,40 6,59 -12,17 -65,11 -95,21 -9,3 -30,21 -41,10 -5,-5 -14,-80 -19,-108 -4,0 -2,0 -13,0 -63,-2 -27,-162 -20,-196 18,-85 -62,-247 -8,-328 36,-54 -12,-122 18,-190 14,-31 24,-77 38,-105 14,-65 43,-130 52,-198 0,-4 1,-7 3,-9 2,-6 4,-11 6,-18 38,-113 69,-111 171,-137 56,-15 105,-34 154,-67 4,-13 15,-25 36,-43 1,0 1,-1 2,-1l0 0 0 0 0 0 0 0 0 0 0 0 0 0c4,-2 17,0 17,0 72,50 147,53 232,43z"/>
   <g>
    <path class="filv2" d="M789 105c-67,22 -188,14 -247,-16 26,56 63,105 117,140 0,-1 1,-2 2,-2 42,-29 90,-74 128,-122z"/>
    <path class="filv0" d="M662 245c-3,1 -6,1 -8,0 -82,-51 -128,-132 -155,-222 -32,28 -26,34 -7,89 31,91 83,147 162,196 7,4 6,4 14,0 1,-1 3,-1 5,-2 65,-37 202,-178 214,-240 -4,-9 -20,-26 -29,-32l-1 1c-42,80 -113,154 -186,205 -2,1 -7,4 -9,5z"/>
    <path class="filv0" d="M540 70c57,37 216,43 272,6 8,-11 15,-22 21,-33 -35,12 -73,17 -110,20 -79,6 -142,0 -208,-43 4,14 9,27 14,40 2,6 6,7 11,10z"/>
   </g>
   <path class="filv0" d="M516 1c72,50 147,53 232,43 29,-4 81,-13 106,-26 15,-7 50,36 50,48 -1,66 -178,236 -242,263 -3,1 -10,-3 -13,-5 -85,-52 -140,-111 -173,-206 -22,-64 -28,-74 21,-116 1,0 1,-1 2,-1l0 0 0 0 0 0 0 0 0 0 0 0 0 0c4,-2 17,0 17,0zm24 69c57,37 216,43 272,6 8,-11 15,-22 21,-33 -35,12 -73,17 -110,20 -79,6 -142,0 -208,-43 4,14 9,27 14,40 2,6 6,7 11,10zm122 175c-3,1 -6,1 -8,0 -82,-51 -128,-132 -155,-222 -32,28 -26,34 -7,89 31,91 83,147 162,196 7,4 6,4 14,0 1,-1 3,-1 5,-2 65,-37 202,-178 214,-240 -4,-9 -20,-26 -29,-32l-1 1c-42,80 -113,154 -186,205 -2,1 -7,4 -9,5zm127 -140c-67,22 -188,14 -247,-16 26,56 63,105 117,140 0,-1 1,-2 2,-2 42,-29 90,-74 128,-122z"/>
   <path class="filv0" d="M1156 1275c0,0 -1,11 -2,23 0,3 3,10 8,14 9,5 23,6 24,7 2,3 -1,6 -3,9 -6,14 -16,-5 -33,15l-15 15c0,0 -1,10 3,10 5,1 32,4 39,5 6,1 41,6 41,6l31 10c0,0 18,-30 19,-35 1,-5 0,-57 -9,-57 0,0 -12,-6 -21,-9 -9,-4 -46,-20 -60,-18 -14,1 -22,5 -22,5z"/>
   <path class="filv0" d="M1318 1018c-5,18 -23,57 -36,70 -15,13 -4,44 -1,58 -7,-16 -25,-54 -12,-73 7,-11 28,-14 49,-55zm-245 -334c24,29 30,16 48,38l11 16 16 21c30,34 -6,-11 15,21 10,14 52,31 72,56l6 7c-23,-22 -29,-23 -59,-38 -44,-21 -35,-8 -60,-61 -23,-51 -23,-20 -49,-60zm-989 599c8,-4 -15,7 34,-9 59,-19 8,-9 51,-16l0 0c-48,1 -54,2 -86,22l1 3zm1176 15c-38,-24 -43,-27 -82,-28l-1 2c17,2 -13,-3 37,13 60,20 13,-1 46,14l0 -1zm-1203 -608c9,63 29,102 49,161 11,29 9,48 9,80 -1,82 -10,53 17,128 -34,-78 -19,-43 -28,-127 -3,-26 -9,-39 -12,-60l-1 -18c-7,-56 -29,-96 -34,-164zm-25 593c2,-28 20,-69 48,-78 17,-6 61,-6 78,-7 -29,6 -45,6 -70,22 -32,20 -47,23 -56,63zm1093 -75c10,-6 53,-35 68,-33 6,1 57,23 61,24 -60,-12 -70,-8 -129,9z"/>
   <path class="filv2" d="M192 1332l-5 -45c0,3 -2,10 -7,13 -9,6 -24,7 -25,8 -2,3 2,5 3,8 7,14 17,-4 34,16zm958 11l4 -45c0,3 3,10 8,14 9,5 23,6 24,7 2,3 -1,6 -3,9 -6,14 -16,-5 -33,15z"/>
   <path class="filv0" d="M186 1264c0,0 0,11 1,23 0,3 -2,10 -7,13 -9,6 -24,7 -25,8 -2,3 2,5 3,8 7,14 17,-4 34,16l14 15c0,0 1,10 -3,10 -4,1 -32,4 -38,5 -7,1 -41,6 -41,6l-31 9c0,0 -18,-30 -19,-34 -1,-5 0,-57 8,-57 0,0 13,-6 22,-9 9,-4 46,-20 60,-18 13,1 22,5 22,5z"/>
   <path class="filv0" d="M842 1427l-37 10 -47 15m-131 10c4,-2 8,-4 11,-6 12,-5 61,-15 98,-20 26,-4 61,-14 91,-24m-324 10c-22,-3 -36,-6 -51,-9 -4,0 -8,-1 -12,-1 39,14 64,23 80,24m281 -38c-12,1 -24,3 -36,6 -57,14 -112,22 -135,22m189 -29c-6,0 -11,1 -16,1m367 -831c0,-84 -3,-165 10,-237 -4,3 -7,6 -11,9l0 9c0,1 0,3 0,5 0,0 0,1 -1,1 0,2 0,3 0,4 0,1 0,1 0,2 5,85 4,139 -1,209 1,-1 2,-1 3,-2zm-1086 716c8,-4 -15,7 34,-9 59,-19 8,-9 51,-16 -3,12 8,20 16,27 1,15 1,5 0,24 -3,29 8,36 9,46 -1,1 -3,1 -5,1 -51,7 -49,0 -91,19 -4,-30 -8,-70 -14,-92zm85 -25c-48,1 -54,2 -86,22l-1 -1c-5,-15 -33,-9 -42,-12 -15,-23 12,-156 15,-183 6,-71 -56,-241 -18,-298 47,-71 -4,-138 21,-195 16,-36 26,-70 39,-107l-3 2c5,-5 5,-9 7,-16 23,-62 53,-214 83,-266 22,-38 42,-44 83,-54 36,-10 72,-19 107,-31 23,-8 79,-28 96,-45 12,-11 -2,-19 -9,-29 -49,33 -98,52 -154,67 -102,26 -133,24 -171,137 -2,7 -4,12 -6,18 -2,2 -3,5 -3,9 -9,68 -38,133 -52,198 -14,28 -24,74 -38,105 -30,68 18,136 -18,190 -54,81 26,243 8,328 -7,34 -43,194 20,196 11,0 9,0 13,0 5,28 14,103 19,108 11,11 32,-7 41,-10 30,-10 83,-4 95,-21 13,-19 -8,-32 -6,-59 3,-42 2,-33 -14,-49 20,-19 67,-22 38,-67 -1,-2 -4,-6 -5,-9 8,-37 2,-87 7,-123 1,-6 1,-21 2,-25 3,-20 0,-107 1,-133 2,-25 13,-58 15,-87 2,-29 -2,-60 0,-87 9,-4 15,-15 21,-26 0,3 0,6 0,10 -1,58 -20,115 -26,177 0,5 0,8 0,13 1,23 3,89 3,93 0,25 -14,50 -15,68 0,12 2,27 9,46 4,13 13,26 13,41 0,21 -10,14 -10,53 0,6 8,47 8,71 0,47 1,101 13,144 3,11 5,19 17,22 10,3 29,1 41,1 68,0 74,0 139,17 52,14 82,19 114,21 1,1 2,1 2,0 7,1 15,1 22,1l80 0c136,0 207,-58 324,-88 47,-12 66,4 70,-32 4,-35 4,-61 -1,-96 -2,-12 -2,-20 -4,-31 -3,-14 -7,-12 -7,-32 0,-7 12,-35 15,-44 24,-70 -2,-99 -2,-108 0,-29 12,-57 12,-110 0,-51 7,-140 -7,-185 -5,-14 -8,-30 -8,-46 5,9 10,16 17,20 2,14 -1,43 -1,52 -1,35 13,77 9,104 -12,77 -9,75 5,151 4,23 17,146 7,161 -28,45 19,49 38,68 -16,15 -17,6 -14,48 2,27 -19,40 -6,59 12,17 65,11 96,22 8,3 30,20 40,9 5,-5 15,-80 19,-107 5,-1 3,-1 14,-1 84,-3 -11,-241 19,-252 20,-7 8,-61 9,-81 1,-73 44,-133 0,-195 -36,-50 11,-123 -19,-190 -13,-31 -24,-76 -38,-104 -7,-47 -24,-103 -30,-137 -3,-21 -8,-42 -14,-61 -14,-49 -16,-67 -50,-100 -45,-43 -233,-93 -279,-123 -8,14 1,24 -13,30 37,37 166,56 230,84 64,29 92,115 101,176 3,18 32,138 37,142l-4 -2c13,37 23,72 39,107 25,57 -25,130 21,195 33,46 -5,115 -6,177 0,15 2,42 2,62 -46,31 25,211 2,246 -9,3 -38,-3 -43,12 -1,4 -3,9 -4,15 -38,-24 -43,-27 -82,-28 1,-6 -1,-13 -11,-22 -8,-7 -33,-20 -38,-27 4,-12 17,-17 13,-38l1 3c-6,-58 -18,-176 -25,-234 5,-58 11,-59 4,-117 -8,-52 -4,-43 -4,-92 0,-10 0,-29 -10,-33 -19,-19 -24,-45 -24,-72 2,-12 3,-23 3,-34 3,-22 8,-44 10,-62l1 -28c0,-6 -4,-11 -9,-12 0,-42 2,-87 16,-155 5,-21 6,-22 4,-29 0,0 0,-1 0,-2 0,0 -1,-1 -1,-1 -23,19 -30,106 -34,195 0,1 0,3 0,4 -3,44 -16,102 -13,142 0,4 1,10 2,17 -1,9 -3,16 -4,23 -9,34 -22,187 -33,220 -14,41 -70,203 -94,249 -6,13 -20,35 -24,48 15,-2 11,-3 18,-14 5,-7 8,-12 12,-21 7,-13 6,-29 12,-43 12,-29 35,-67 43,-90 11,-31 22,-61 34,-91 6,-16 26,-198 36,-205 8,83 -3,291 -39,364 -32,63 -60,104 -92,160 -6,12 -12,16 -8,25 14,-4 30,-40 37,-52 25,-39 42,-73 64,-112 8,-14 24,-51 34,-57 24,28 -19,125 -37,149 -20,27 -66,63 -74,84 9,-3 9,-3 15,-8 33,-29 72,-75 78,-80 11,32 20,105 12,138 -4,2 -62,12 -90,22 -41,14 -81,31 -121,45 -27,10 -55,19 -84,25 -19,4 -37,6 -57,8 -29,2 -53,2 -74,2 -3,0 -203,-38 -223,-41 -36,-6 -75,-2 -108,-8 -17,-27 -11,-149 -17,-183 -3,-16 -9,-20 -5,-37 4,-17 15,-36 4,-67 -33,-88 10,-95 1,-136 -10,-40 -9,-218 15,-249 7,7 26,185 39,219 0,-1 0,-1 0,-2l0 -1 0 0c0,-119 -2,-152 -38,-266 -4,-10 -7,-20 -10,-30 1,-2 1,-4 1,-5 2,-40 -11,-98 -13,-142 0,-7 -6,-13 -13,-13 -2,0 -5,1 -7,3 -12,-81 -23,-162 -24,-191 0,-28 -9,-80 19,-68 0,4 -1,8 -1,12 -7,87 -6,167 5,248 -3,2 -4,5 -4,9l2 28c4,50 30,127 -11,168 -11,4 -11,23 -11,33 0,49 2,40 -3,92 -9,102 -8,240 -21,347l1 -3c-5,21 8,26 13,38 -5,7 -31,20 -39,27 -6,5 -9,10 -10,14zm1091 41c-33,-15 14,6 -46,-14 -50,-16 -20,-11 -37,-13 -3,6 -10,12 -16,17 0,15 -1,5 1,24 2,29 -9,36 -10,46 2,1 3,1 5,1 52,7 49,0 92,19 3,-25 6,-57 11,-80zm-713 -166c-59,-64 -9,-3 -43,-59 -162,-266 -8,-28 50,46 0,1 1,3 2,4 5,12 49,65 -9,9zm-260 107c2,3 -2,2 6,8 5,4 46,23 52,26 33,15 165,81 193,73 -1,-2 -2,-5 -3,-7l-58 -22c-42,-16 -175,-77 -190,-78z"/>
  </g>
 </g>
</svg>
