<svg xmlns="http://www.w3.org/2000/svg" xml:space="preserve" width="4.52023in" height="14.7068in" version="1.1" style="shape-rendering:geometricPrecision; text-rendering:geometricPrecision; image-rendering:optimizeQuality; fill-rule:evenodd; clip-rule:evenodd"
viewBox="0 0 360 1173"
 xmlns:xlink="http://www.w3.org/1999/xlink">
 <defs>
  <style type="text/css">
   <![CDATA[
    .fil1 {fill:black}
    .fil0 {fill:white}
    .fil2 {fill:white}
   ]]>
  </style>
 </defs>
 <g id="Layer_x0020_1">
  <metadata id="CorelCorpID_0Corel-Layer"/>
  <g id="_946237136">
   <path class="fil2" d="M96 410c4,-3 4,-13 5,-17 2,-17 6,-37 11,-53 33,-100 83,-67 87,27 1,34 -4,49 -16,76 -9,20 -23,40 -49,43 -13,1 -18,-4 -27,-19 -6,-8 -10,-20 -13,-32 -3,17 6,32 9,46 -12,-4 -20,-10 -30,-14 3,6 30,45 35,53 9,12 9,14 11,32 9,69 -4,142 -8,207 -3,31 7,35 19,69 19,54 4,36 6,75 1,18 6,21 14,31 22,29 57,43 53,80 -5,-2 -10,-4 -15,-6 -9,-3 -9,-2 -13,-9 -3,-3 -18,-25 -18,-25 0,4 8,28 10,34 3,10 4,8 1,19 -11,33 -16,3 -46,-16 25,37 63,113 -19,67 -8,-4 -23,-33 -24,-44 -7,-101 -1,-95 -23,-201 -2,-9 -7,-24 -7,-33 7,7 34,61 40,73 12,26 24,52 32,81 10,-33 -41,-133 -54,-157l-29 -51c-3,-5 -4,-15 -6,-21 -5,-27 -17,-67 -5,-93l51 113c0,-7 -4,-20 -7,-28 -11,-41 -22,-85 -34,-125 -1,-5 -4,-8 -5,-13 -6,-35 14,-78 13,-129 0,-21 10,-37 15,-56 6,-21 -2,-26 13,-58 5,-12 18,-38 26,-46 8,7 13,-17 16,6 2,23 -18,70 -21,100 0,2 -1,6 -1,8 0,4 0,4 3,6zm47 695c12,1 10,-4 18,-21 1,36 4,35 27,55l15 14c-12,-5 -42,-20 -49,-31 -3,-4 -9,-13 -11,-17zm177 -1096c-100,24 -263,104 -230,232 11,44 101,37 115,27 -22,-74 46,-178 140,-261 2,-2 -21,1 -25,2zm-218 1093c26,3 19,3 34,21 4,6 20,27 23,32 -14,2 -59,-34 -57,-53zm118 -24c4,-3 12,-5 18,-5 1,6 4,18 -4,19 -7,0 -11,-8 -14,-14zm-23 -52l13 -2 4 -11c4,6 11,31 10,40 -8,-1 -12,-7 -15,-12 -3,-4 -10,-10 -12,-15zm-59 -464c5,5 11,15 16,21 8,10 15,16 15,25 -1,42 -6,102 -11,145 -2,18 -5,43 -8,61 -1,3 -1,5 -3,8 -5,-43 -2,-88 -4,-131 0,-17 -6,-124 -5,-129z"/>
   <path class="fil1" d="M143 1105c12,1 10,-4 18,-21 1,36 4,35 27,55l15 14c-12,-5 -42,-20 -49,-31 -3,-4 -9,-13 -11,-17zm177 -1096c-100,24 -263,104 -230,232 11,44 101,37 115,27 -22,-74 46,-178 140,-261 2,-2 -21,1 -25,2zm39 -3c-5,5 -10,10 -15,15 -266,278 -19,228 -148,516 -11,23 -13,24 -13,51 0,21 1,43 0,65 -2,67 -31,154 -30,229 0,52 35,55 62,100 3,5 5,17 8,24 3,9 6,16 9,24 3,9 4,17 7,26 3,13 20,39 -1,44 -30,6 -36,-39 -44,-53 -3,-6 -8,-16 -11,-20 -1,2 -9,39 -9,44 0,9 -1,41 5,46 10,10 53,36 48,55 -9,2 -17,-2 -25,-4 -5,-2 -18,1 -27,0 -8,0 -39,-9 -45,-13 -5,-3 -10,-10 -14,-15 -15,-17 -23,-30 -33,-53 -17,-46 -18,-48 -16,-99 0,-18 -5,-34 -8,-50 -4,-16 -5,-35 -7,-51 -5,-31 -15,-64 -22,-95 -7,-31 -14,-63 -20,-95 -6,-33 -1,-73 6,-105 5,-24 -9,-32 15,-99 7,-20 -2,-36 -2,-54 1,-10 10,-35 13,-45 5,-16 6,-32 11,-47 5,-14 11,-27 17,-40 3,-7 7,-14 10,-20 5,-8 9,-10 6,-20 -73,-224 300,-288 273,-261zm-257 1096c26,3 19,3 34,21 4,6 20,27 23,32 -14,2 -59,-34 -57,-53zm118 -24c4,-3 12,-5 18,-5 1,6 4,18 -4,19 -7,0 -11,-8 -14,-14zm-23 -52l13 -2 4 -11c4,6 11,31 10,40 -8,-1 -12,-7 -15,-12 -3,-4 -10,-10 -12,-15zm-59 -464c5,5 11,15 16,21 8,10 15,16 15,25 -1,42 -6,102 -11,145 -2,18 -5,43 -8,61 -1,3 -1,5 -3,8 -5,-43 -2,-88 -4,-131 0,-17 -6,-124 -5,-129zm-42 -152c4,-3 4,-13 5,-17 2,-17 6,-37 11,-53 33,-100 83,-67 87,27 1,34 -4,49 -16,76 -9,20 -23,40 -49,43 -13,1 -18,-4 -27,-19 -6,-8 -10,-20 -13,-32 -3,17 6,32 9,46 -12,-4 -20,-10 -30,-14 3,6 30,45 35,53 9,12 9,14 11,32 9,69 -4,142 -8,207 -3,31 7,35 19,69 19,54 4,36 6,75 1,18 6,21 14,31 22,29 57,43 53,80 -5,-2 -10,-4 -15,-6 -9,-3 -9,-2 -13,-9 -3,-3 -18,-25 -18,-25 0,4 8,28 10,34 3,10 4,8 1,19 -11,33 -16,3 -46,-16 25,37 63,113 -19,67 -8,-4 -23,-33 -24,-44 -7,-101 -1,-95 -23,-201 -2,-9 -7,-24 -7,-33 7,7 34,61 40,73 12,26 24,52 32,81 10,-33 -41,-133 -54,-157l-29 -51c-3,-5 -4,-15 -6,-21 -5,-27 -17,-67 -5,-93l51 113c0,-7 -4,-20 -7,-28 -11,-41 -22,-85 -34,-125 -1,-5 -4,-8 -5,-13 -6,-35 14,-78 13,-129 0,-21 10,-37 15,-56 6,-21 -2,-26 13,-58 5,-12 18,-38 26,-46 8,7 13,-17 16,6 2,23 -18,70 -21,100 0,2 -1,6 -1,8 0,4 0,4 3,6z"/>
   <g>
    <path class="fil0" d="M214 289c-44,-1 -80,3 -123,-13 0,4 -3,8 -7,14l0 0c-6,13 -3,6 -10,19l0 0c-6,14 -11,25 -16,40l0 0c-5,16 -7,31 -12,47l0 0c-4,15 -9,27 -12,43 2,22 8,34 2,56l0 0c-4,10 -7,20 -10,31 -8,31 -2,41 -6,68l0 0c-7,37 -11,64 -5,102l0 0c6,32 13,63 20,95l0 0c7,32 16,62 21,95l0 0c2,13 4,26 5,39 31,-31 47,-39 85,-44 2,-85 29,-162 30,-244 0,-29 -5,-62 7,-89 12,-29 23,-52 32,-83 21,-71 16,-107 -1,-176z"/>
    <path class="fil1" d="M225 283c18,74 23,112 2,186 -8,24 -17,46 -27,70l0 0c-11,25 -12,21 -12,49l0 0c0,22 0,43 0,65l0 0c-4,73 -28,143 -31,215 0,15 3,27 -3,30 -1,0 0,-7 -3,-7 -4,1 -13,2 -19,5 -30,10 -49,25 -72,44 -2,1 1,5 0,5 -5,3 -8,-4 -11,-19 -4,-28 -5,-45 -12,-73 -11,-51 -26,-104 -34,-155 -7,-40 -1,-68 6,-107 2,-15 -1,-28 1,-44 2,-22 8,-36 14,-56 8,-24 -6,-36 0,-63 3,-16 10,-31 14,-47 9,-39 12,-50 31,-87 6,-13 11,-14 10,-25 -1,-5 1,-12 3,-13 1,0 0,6 4,6 3,1 13,5 17,6 36,12 78,8 116,9 0,0 -1,-2 0,-2 3,1 6,5 6,8zm-11 6c-44,-1 -80,3 -123,-13 0,4 -3,8 -7,14l0 0c-6,13 -3,6 -10,19l0 0c-6,14 -11,25 -16,40l0 0c-5,16 -7,31 -12,47l0 0c-4,15 -9,27 -12,43 2,22 8,34 2,56l0 0c-4,10 -7,20 -10,31 -8,31 -2,41 -6,68l0 0c-7,37 -11,64 -5,102l0 0c6,32 13,63 20,95l0 0c7,32 16,62 21,95l0 0c2,13 4,26 5,39 31,-31 47,-39 85,-44 2,-85 29,-162 30,-244 0,-29 -5,-62 7,-89 12,-29 23,-52 32,-83 21,-71 16,-107 -1,-176z"/>
   </g>
  </g>
 </g>
</svg>
