<svg xmlns="http://www.w3.org/2000/svg" xml:space="preserve" width="4.53321in" height="5.18557in" version="1.1" style="shape-rendering:geometricPrecision; text-rendering:geometricPrecision; image-rendering:optimizeQuality; fill-rule:evenodd; clip-rule:evenodd"
viewBox="0 0 310 355"
 xmlns:xlink="http://www.w3.org/1999/xlink">
 <defs>
  <style type="text/css">
   <![CDATA[
    .fil1 {fill:black}
    .fil0 {fill:white}
   ]]>
  </style>
 </defs>
 <g id="Layer_x0020_1">
  <metadata id="CorelCorpID_0Corel-Layer"/>
  <g id="_946214736">
   <path class="fil0" d="M16 123c-2,11 0,63 0,74 0,41 1,82 -3,123 -3,28 0,26 28,26 45,-1 89,-4 135,-3 28,1 54,4 82,5 8,1 36,2 40,-5 13,-21 4,-70 2,-95 -3,-37 -6,-80 -7,-117 0,-5 1,-13 1,-18 -15,8 -37,7 -52,6 -64,0 -126,7 -190,7 -8,0 -25,1 -36,-3zm276 -16c0,-1 1,-1 1,-1 1,-1 1,-1 2,-1 4,-3 7,-7 8,-13 2,-5 -3,-20 -2,-26 2,-96 -19,-49 -203,-48 -76,1 -105,-24 -88,81 2,10 -2,15 4,17 1,0 2,1 2,1 0,0 0,0 0,0 4,1 9,2 16,3 28,2 73,-1 102,-3 37,-1 70,-4 108,-3 14,0 36,1 50,-7z"/>
   <path class="fil1" d="M15 123c-2,11 0,63 0,74 0,41 2,82 -3,123 -3,28 0,26 28,26 46,-1 89,-4 135,-3 29,1 55,4 83,5 7,1 35,2 40,-5 12,-21 4,-70 2,-95 -3,-37 -7,-80 -7,-117 0,-5 0,-13 0,-18 -15,8 -36,7 -52,6 -64,0 -126,7 -189,7 -9,0 -26,1 -37,-3zm277 -16c0,-1 0,-1 0,-1 1,-1 2,-1 2,-1 4,-3 7,-7 9,-13 1,-5 -3,-20 -3,-26 2,-96 -19,-49 -203,-48 -75,1 -105,-24 -87,81 1,10 -3,15 3,17 1,0 2,1 3,1 0,0 0,0 0,0 3,1 8,2 16,3 28,2 73,-1 101,-3 38,-1 70,-4 108,-3 14,0 37,1 51,-7zm6 2c2,7 0,20 0,22 1,37 4,79 7,117 3,26 11,76 -2,98 -8,13 -49,8 -62,7 -44,-3 -81,-5 -127,-4 -15,1 -95,6 -104,-1 -9,-8 -2,-40 -1,-52 2,-51 0,-105 0,-156 -1,-6 -2,-14 0,-20 -4,-2 -6,-6 -5,-12 1,-9 0,-3 -1,-14 -10,-108 5,-82 94,-82 201,0 201,-50 209,54 1,7 5,21 3,28 -2,7 -6,12 -11,15z"/>
   <path class="fil1" d="M77 328c0,1 0,1 0,1m158 -194c0,5 1,10 1,15 1,23 3,45 4,67 1,15 0,33 1,49 0,5 0,11 0,16 0,7 1,14 1,21 -1,-12 -2,-25 -2,-37 -1,-15 -3,-34 -4,-49 0,-27 0,-55 -1,-82zm-158 -4c0,18 0,37 0,55 0,12 1,24 1,36 1,20 -1,41 0,61 0,15 0,30 -1,45l0 1c0,-6 1,-12 0,-18 0,-4 0,-8 0,-12 -1,-26 -3,-53 -2,-77 1,-29 2,-61 2,-91zm80 -1c0,6 0,12 0,18 1,19 2,37 2,55 0,13 0,29 -1,44 0,4 0,7 0,11 0,8 0,15 1,23 -1,-8 -1,-15 -2,-23 0,-17 -2,-39 -2,-55 0,-24 1,-49 2,-73z"/>
   <path class="fil1" d="M273 61c0,1 3,27 3,27 -6,2 -180,9 -199,9 -4,0 -48,2 -49,0 -4,-6 -4,-37 1,-36 47,6 123,-1 171,-5 7,0 75,-5 75,-3 -1,3 -2,2 -2,8zm0 0c0,-6 1,-5 2,-8 0,-2 -76,4 -83,4 -45,4 -121,11 -163,6 -3,4 -2,27 0,33 4,1 28,0 31,0 71,-1 145,-4 216,-8 0,0 -3,-26 -3,-27z"/>
  </g>
 </g>
</svg>
