<svg xmlns="http://www.w3.org/2000/svg" xml:space="preserve" width="18.5559in" height="10.9056in" version="1.1" style="shape-rendering:geometricPrecision; text-rendering:geometricPrecision; image-rendering:optimizeQuality; fill-rule:evenodd; clip-rule:evenodd"
viewBox="0 0 4127 2426"
 xmlns:xlink="http://www.w3.org/1999/xlink">
 <defs>
  <style type="text/css">
   <![CDATA[
    .filout {fill:black}
    .fil0 {fill:white}
    .fil1 {fill:black;fill-rule:nonzero}
   ]]>
  </style>
 </defs>
 <g id="Layer_x0020_1">
  <metadata id="CorelCorpID_0Corel-Layer"/>
  <g id="_946220944">
   <g>
    <path class="fil0" d="M3740 29c-469,-4 -922,69 -1387,116 -290,30 -409,27 -693,-48 -171,-46 -233,-55 -408,-49 -295,10 -637,42 -926,-21 -31,86 -112,1008 -125,1149 -32,320 -64,651 -116,967 -14,85 -30,172 -56,255 521,-78 1047,-164 1570,-216 203,-20 407,-41 606,18 120,35 179,51 307,52 109,1 231,-10 341,-16 314,-17 645,-36 958,-31 83,1 204,3 287,25 2,-138 -121,-797 -145,-931 -64,-354 -133,-713 -187,-1068 -10,-63 -23,-138 -26,-202z"/>
    <path class="filout" d="M3743 28c-470,-4 -922,69 -1388,116 -290,30 -408,27 -693,-48 -170,-46 -232,-55 -408,-49 -295,11 -636,42 -925,-21 -32,86 -112,1008 -126,1149 -31,320 -63,651 -116,967 -14,85 -30,172 -55,255 520,-78 1046,-164 1569,-216 204,-20 407,-41 606,18 121,35 179,51 307,52 110,1 231,-10 342,-16 313,-17 644,-36 958,-31 82,1 203,3 286,25 2,-138 -121,-797 -145,-931 -63,-354 -132,-713 -187,-1068 -10,-63 -22,-138 -25,-202zm13 -26l0 0 0 0 0 0 0 0 1 0 0 0 0 0 0 0 0 0 0 0 1 0 0 0 0 0 0 0 0 0 0 0 1 0 0 1 0 0 0 0 0 0 0 0 0 0 1 0 0 0 0 0 0 0 0 0 0 0 0 0 1 0 0 0 0 0 0 0 0 0 0 1 0 0 1 0 0 0 0 0 0 0 0 0 0 0 0 0 1 0 0 0 0 0 0 0 0 1 0 0 0 0 0 0 1 0 0 0 0 0 0 0 0 0 0 0 0 1 0 0 1 0 0 0 0 0 0 0 0 0 0 0 0 0 0 1 0 0 0 0 1 0 0 0 0 0 0 0 0 0 0 1 0 0 0 0 0 0 0 0 1 0 0 0 0 1 0 0 0 0 0 0 0 0 0 0 0 0 0 0 0 1 0 0 0 0 0 0 1 0 0 0 0 0 0 1 0 0 0 0 0 0 0 0 0 0 0 1 0 0 0 0 0 0 0 0 0 0 0 0 0 1 0 0 0 0 0 0 0 0 0 0 0 1 0 0 0 0 0 0 0 0 0 0 0 1 0 0 0 0 0 0 0 0c2,76 21,182 33,259 78,484 173,968 256,1452 17,98 75,424 70,506 -2,35 -12,28 -35,21 -69,-19 -206,-22 -279,-23 -317,-5 -652,14 -969,32 -121,7 -259,20 -379,14 -120,-5 -173,-27 -283,-57 -197,-56 -437,-27 -639,-6 -498,54 -1002,132 -1497,208 -29,5 -19,8 -44,-1 -5,-11 2,-20 5,-31 36,-114 59,-272 76,-392 78,-545 117,-1106 174,-1655 10,-89 21,-216 40,-300 10,-43 12,-46 45,-39 272,58 617,29 897,19 171,-7 240,-2 409,43 297,79 401,84 705,53 470,-47 927,-122 1403,-116l0 0z"/>
    <path class="filout" d="M342 909c-2,-9 -6,-18 -10,-25 0,-2 -1,-3 -1,-4 -8,-95 -81,-387 -82,-461 0,-36 -12,-107 26,-90 -1,5 -1,10 -2,15 -15,205 16,344 82,552 64,200 95,438 206,619 20,32 63,74 67,97 -15,-6 -40,-35 -50,-48 -14,-18 -27,-36 -41,-56 -48,-69 -102,-175 -133,-256 -7,-18 -47,-291 -52,-296 0,1 -1,2 -1,2l0 -4c0,-16 -3,-31 -9,-45zm1901 1261c-295,-237 -454,-558 -574,-909 -23,-67 -51,-222 -65,-297 -48,-262 -85,-549 -61,-815 -21,293 38,660 115,943 14,53 35,108 48,158 89,352 255,684 537,920zm1561 -658c-98,157 -245,229 -413,295 -107,42 -413,72 -537,75l-27 1c129,-8 257,-25 382,-57 62,-16 114,-38 172,-52 169,-42 322,-115 423,-262zm84 -355c-18,94 -49,260 -79,347 -7,18 -20,50 -23,68 19,-5 14,-6 22,-22 4,-10 7,-17 11,-29 7,-19 13,-41 19,-61 11,-42 21,-82 30,-126 9,-43 18,-85 28,-127 6,-22 -2,-269 11,-280 25,110 50,390 15,493 -31,90 -61,149 -93,229 -6,17 -13,24 -6,34 17,-7 32,-57 40,-75 25,-56 42,-104 65,-160 7,-19 22,-72 34,-81 37,34 -2,170 -22,205 -22,39 -76,94 -83,123 12,-4 12,-4 19,-12 108,-123 104,-62 131,-208 19,-98 -22,-132 -23,-145 -6,-38 5,-77 -5,-149 -133,-719 -84,-156 -91,-24zm-3389 40c-9,-16 -36,-228 -50,-234 -15,19 76,312 85,327 28,46 81,109 114,151l48 51c6,6 9,11 16,17 11,12 21,21 33,33 11,9 22,23 34,32 23,19 117,107 153,105 -1,-14 -3,-10 -13,-17l-57 -43c-138,-98 -280,-278 -363,-422zm-76 485c46,20 230,113 262,97 -3,-9 4,-2 -7,-9l-77 -28c-46,-18 -176,-77 -232,-98 -2,23 35,29 54,38z"/>
   </g>
   <path class="fil1" d="M700 1632c-1,17 -3,31 -6,41 -2,10 -7,15 -13,16 0,1 0,2 0,3 -1,11 -10,21 -19,22 -10,1 -17,-6 -16,-17 1,-11 10,-21 20,-22 1,0 3,0 4,0 0,-5 -1,-12 0,-21 -1,1 -2,1 -2,1 -10,1 -17,-7 -16,-17 1,-11 10,-21 20,-22 0,0 1,0 1,0 1,-7 1,-14 2,-21 0,0 -1,0 -1,1 -10,1 -17,-7 -16,-18 2,-11 10,-21 20,-22 2,0 3,0 5,1 1,-8 2,-15 2,-23 -2,1 -4,2 -6,2 -9,1 -16,-7 -15,-17 1,-11 10,-21 19,-22 2,0 4,0 6,1 0,-7 1,-13 2,-20 0,-1 1,-2 1,-3 -2,1 -4,2 -7,2 -9,1 -16,-7 -15,-18 1,-11 9,-20 19,-21 3,-1 6,0 8,2 1,-9 2,-17 2,-26 -2,2 -5,3 -8,4 -10,1 -17,-7 -16,-18 1,-11 10,-21 19,-22l0 0 2 -20 0 0c-9,1 -16,-7 -15,-18 1,-10 10,-20 19,-21l0 0 2 -20 0 0c-10,1 -16,-7 -15,-18 0,-11 9,-21 18,-21l0 0 2 -21 0 1c-9,0 -16,-8 -15,-19 1,-10 9,-20 18,-21l1 0c0,-6 1,-13 1,-20 -9,1 -15,-7 -15,-18 1,-11 10,-20 19,-21l0 0c0,-7 1,-13 2,-20l-1 0c-9,0 -16,-8 -15,-18 1,-11 9,-21 19,-21l0 0 2 -20c-10,0 -17,-8 -15,-19 1,-11 9,-20 18,-21l0 0 2 -20 0 0c-10,1 -16,-7 -15,-18 1,-11 9,-20 18,-21l0 0 2 -20c-9,0 -16,-8 -15,-19 1,-11 9,-20 18,-20l2 -20c-9,0 -16,-8 -15,-19 2,-11 9,-20 18,-21l2 -20c-9,1 -15,-8 -14,-19 1,-10 8,-20 17,-20 0,0 0,0 1,0 1,-7 2,-13 3,-18 0,-1 1,-2 1,-2 -1,0 -2,0 -3,0 -9,0 -15,-8 -14,-19 1,-11 9,-20 18,-20 8,0 15,8 14,19 -1,3 -2,6 -3,9 5,1 8,5 8,12 2,9 1,21 0,38 -6,73 -12,147 -18,220l22 -2c3,-2 6,-3 9,-3 3,-1 6,0 9,2 13,-1 27,-2 40,-3 1,-1 2,-1 4,-2 0,-7 1,-15 1,-22 -6,-3 -9,-10 -9,-18 1,-8 6,-15 12,-19l2 -22c-6,-3 -10,-9 -9,-17 0,-9 5,-16 12,-19l1 -23c-6,-2 -9,-9 -9,-17 1,-8 6,-16 12,-19l1 -8c0,-5 0,-10 1,-14 -6,-3 -10,-10 -9,-18 0,-8 5,-15 11,-18 1,-8 1,-16 1,-23 -5,-3 -8,-10 -7,-17 0,-8 4,-14 9,-18 0,-8 0,-15 1,-22l0 -4c-4,-3 -7,-9 -6,-15 1,-5 2,-10 5,-13 -1,-18 -3,-32 -6,-43 -5,-18 -14,-29 -26,-35 -11,-5 -28,-8 -48,-7 -2,0 -4,0 -5,0 -2,1 -5,2 -7,2 -3,0 -5,0 -6,-1 -13,1 -23,4 -32,8 -7,3 -12,8 -18,14 7,2 12,10 11,19 -1,11 -9,20 -17,20 -5,0 -9,-2 -11,-7 -7,18 -13,41 -17,69 -5,33 -9,76 -15,131 -8,88 -16,176 -24,263 -8,88 -17,176 -25,264 2,2 4,4 7,5 -6,59 -12,118 -18,176 11,2 23,4 35,6 -2,1 -3,2 -4,3 -10,0 -20,-1 -30,-2 -1,8 -2,16 -2,24 3,-8 9,-14 17,-15 9,-2 16,6 15,17 -1,11 -10,21 -19,22 -8,1 -13,-4 -15,-11 -1,8 -1,17 -2,25 -4,5 -8,10 -11,15 -1,16 -2,32 -4,48 -2,16 -3,30 -4,42 4,8 7,16 11,24l0 1c3,-2 6,-4 10,-4 9,-1 16,6 15,17 -1,11 -10,21 -20,22 -2,1 -4,0 -6,0 -1,8 -1,15 0,22 1,-1 2,-1 4,-1 9,-2 16,6 15,17 -1,9 -7,17 -15,21 1,5 2,9 4,13 6,15 17,24 33,28 -1,-2 -1,-4 -1,-7 1,-5 4,-11 8,-15 0,-1 -1,-2 -1,-3 1,0 3,0 4,0 3,-2 6,-4 9,-4 4,-1 8,0 10,2 3,0 5,-1 8,-1 23,-3 42,-9 57,-17 14,-8 26,-22 35,-41 6,-11 10,-26 15,-43 -4,-3 -6,-8 -6,-14 1,-8 6,-15 12,-19l0 -1c1,-7 2,-14 4,-22 -7,-2 -10,-9 -10,-17 1,-8 7,-17 14,-20 1,-7 2,-14 3,-22 -7,-1 -12,-8 -12,-16 1,-10 8,-18 15,-21 1,-3 1,-6 1,-9 1,-4 1,-8 1,-11 -13,-3 -27,-5 -40,-7 -3,7 -10,13 -17,14 -10,1 -17,-7 -16,-17 0,-1 0,-2 1,-3 -5,0 -10,-1 -14,-2 -2,22 -5,44 -7,66zm-81 69c-2,10 -11,20 -20,22 -10,1 -16,-7 -15,-18 1,-11 9,-21 19,-22 10,-1 17,7 16,18zm6 -60c-1,11 -10,21 -20,22 -9,1 -16,-7 -15,-18 2,-11 10,-20 19,-22 10,-1 17,7 16,18zm12 -119c-2,10 -10,20 -19,21 -10,1 -16,-7 -15,-18 1,-11 9,-20 19,-21 9,-1 16,7 15,18zm6 -60c-1,11 -10,21 -19,22 -10,1 -16,-8 -15,-19 1,-10 9,-20 19,-21 9,-1 16,7 15,18zm5 -60c-1,11 -9,21 -18,22 -10,1 -16,-7 -15,-18 1,-11 9,-21 18,-22 10,0 16,8 15,18zm6 -59c-1,11 -9,20 -19,21 -9,1 -15,-7 -14,-18 1,-11 9,-20 18,-21 10,-1 16,7 15,18zm6 -60c-1,11 -10,21 -19,21 -9,1 -15,-7 -14,-18 1,-11 9,-20 18,-21 9,-1 16,7 15,18zm6 -59c-1,11 -10,20 -19,21 -9,1 -15,-8 -14,-19 1,-11 9,-20 18,-21 9,0 16,8 15,19zm5 -60c-1,11 -9,20 -18,21 -9,1 -16,-8 -15,-19 1,-11 9,-20 18,-20 9,-1 16,7 15,18zm5 -60c-1,11 -9,21 -18,21 -9,1 -15,-8 -14,-19 1,-10 9,-20 18,-20 9,-1 16,8 14,18zm6 -59c-1,11 -9,20 -18,21 -9,0 -16,-8 -14,-19 0,-11 8,-20 17,-21 9,0 16,8 15,19zm5 -60c-1,11 -9,20 -18,21 -9,0 -15,-8 -14,-19 1,-11 9,-20 18,-21 9,0 15,8 14,19zm6 -59c-2,10 -9,20 -18,20 -9,0 -15,-8 -14,-19 1,-11 8,-20 17,-20 9,-1 16,8 15,19zm5 -60c-1,11 -9,20 -18,20 -9,1 -15,-8 -14,-19 1,-11 9,-20 18,-20 8,0 15,8 14,19zm5 -60c-1,11 -8,20 -17,21 -9,0 -15,-9 -14,-20 1,-11 9,-20 17,-20 9,0 15,8 14,19zm6 -59c-1,11 -9,20 -18,20 -9,0 -15,-9 -13,-20 0,-10 8,-19 17,-20 8,0 15,9 14,20zm6 -60c-2,11 -9,20 -18,20 -9,0 -15,-9 -14,-19 1,-11 9,-20 18,-20 8,-1 15,8 14,19zm-46 1124c-1,10 -10,20 -20,22 -10,1 -17,-6 -16,-17 2,-11 10,-21 20,-22 10,-2 17,6 16,17zm6 -59c-1,10 -10,20 -20,21 -9,2 -16,-6 -15,-17 1,-10 10,-20 20,-22 9,-1 16,7 15,18zm96 -1066c-1,10 -9,19 -17,20 -9,0 -16,-9 -14,-20 0,-10 9,-19 17,-20 9,0 15,9 14,20zm6 -60c-1,11 -9,20 -18,20 -9,1 -15,-8 -14,-19 1,-11 9,-20 17,-20 9,0 16,9 15,19zm-45 1175c-1,11 -10,21 -20,23 -10,1 -16,-7 -15,-17 1,-11 10,-21 19,-22 10,-2 17,6 16,16zm6 -58c-1,10 -10,20 -20,22 -9,1 -17,-7 -15,-17 0,-11 10,-21 19,-22 10,-2 17,6 16,17zm6 -59c-1,10 -10,20 -20,22 -10,1 -16,-7 -15,-17 1,-11 10,-21 19,-22 10,-2 17,6 16,17zm5 -59c0,11 -9,20 -19,22 -10,1 -16,-7 -16,-17 1,-11 10,-21 20,-22 9,-1 16,6 15,17zm11 -118c-1,11 -10,21 -19,22 -10,1 -16,-7 -15,-17 1,-11 9,-21 19,-22 9,-1 16,7 15,17zm5 -58c-1,10 -9,20 -19,21 -9,1 -16,-7 -15,-18 1,-10 9,-20 19,-21 9,-1 16,7 15,18zm5 -59c-1,10 -9,20 -18,21 -10,1 -17,-7 -16,-18 1,-10 9,-20 19,-21 9,-1 16,7 15,18zm34 -412c-1,11 -9,20 -18,21 -9,0 -16,-8 -15,-19 1,-11 9,-20 18,-20 9,-1 16,7 15,18zm4 -59c-1,11 -8,20 -17,20 -9,1 -16,-7 -15,-18 1,-10 9,-20 18,-20 9,-1 15,8 14,18zm5 -59c-1,11 -9,20 -17,21 -9,0 -16,-8 -16,-19 2,-11 10,-20 19,-20 9,-1 15,8 14,18zm5 -58c-1,10 -9,19 -18,20 -9,0 -16,-8 -14,-19 0,-11 8,-20 17,-20 9,-1 15,8 15,19zm5 -59c-2,10 -9,20 -18,20 -9,0 -15,-8 -14,-19 0,-11 8,-20 17,-20 9,0 15,8 15,19zm4 -59c-1,11 -8,20 -17,20 -9,0 -15,-8 -14,-19 1,-11 9,-20 17,-20 9,0 15,8 14,19zm6 -59c-1,11 -9,20 -18,20 -8,0 -15,-8 -14,-19 1,-11 9,-20 17,-20 9,0 16,8 15,19zm36 1042c-1,10 -10,20 -20,22 -9,1 -16,-7 -15,-17 1,-11 9,-21 19,-22 9,-1 17,7 16,17zm4 -58c0,10 -9,20 -19,21 -9,2 -16,-6 -15,-17 1,-10 9,-20 19,-21 9,-1 16,6 15,17zm5 -58c-1,10 -9,20 -19,21 -9,1 -16,-6 -15,-17 1,-11 9,-20 19,-21 9,-1 16,6 15,17zm5 -58c-1,10 -10,20 -19,21 -10,1 -16,-7 -16,-17 1,-11 9,-20 19,-21 9,-2 17,6 16,17zm4 -58c-1,10 -9,20 -19,21 -9,1 -16,-7 -15,-17 1,-11 9,-21 18,-22 10,-1 17,7 16,18zm4 -59c-1,11 -9,20 -18,21 -9,1 -16,-6 -15,-17 0,-10 9,-20 18,-21 9,-1 16,7 15,17zm5 -58c-1,11 -9,20 -19,21 -9,1 -16,-7 -15,-17 1,-11 9,-20 18,-21 10,-1 17,7 16,17zm4 -58c-1,11 -9,20 -18,21 -10,1 -16,-7 -15,-17 0,-11 8,-20 18,-21 9,-1 16,6 15,17zm4 -58c0,11 -9,20 -18,21 -9,1 -16,-7 -15,-18 1,-10 9,-20 18,-21 9,0 16,7 15,18zm4 -58c-1,11 -8,20 -18,21 -9,0 -16,-7 -15,-18 1,-11 9,-20 18,-21 9,-1 16,7 15,18zm4 -58c-1,10 -9,20 -18,20 -9,1 -15,-7 -15,-17 1,-11 9,-20 18,-21 9,-1 16,7 15,18zm4 -58c-1,10 -9,19 -18,20 -9,1 -15,-7 -14,-18 0,-10 8,-19 17,-20 9,-1 16,7 15,18zm4 -59c-1,11 -8,20 -18,21 -9,1 -15,-7 -14,-18 1,-11 8,-20 17,-20 9,-1 16,7 15,17zm4 -58c-1,11 -8,20 -17,21 -9,0 -16,-8 -15,-18 0,-11 8,-20 17,-21 9,0 16,8 15,18zm4 -58c-1,11 -9,20 -18,21 -8,0 -15,-8 -14,-19 1,-10 8,-19 17,-20 9,0 16,8 15,18zm4 -58c-1,11 -8,20 -17,20 -9,1 -16,-7 -15,-18 1,-11 8,-20 17,-20 9,-1 16,8 15,18zm4 -58c-1,10 -9,20 -17,20 -9,1 -15,-8 -15,-18 1,-11 9,-20 18,-20 8,-1 15,7 14,18zm4 -58c-1,10 -8,19 -17,20 -9,0 -15,-8 -14,-19 1,-10 8,-19 17,-20 9,0 15,8 14,19zm-18 1095c-1,11 -10,20 -20,22 -10,1 -17,-6 -16,-17 1,-10 10,-20 20,-22 9,-1 16,7 16,17zm62 -9c0,11 -9,20 -19,22 -10,1 -17,-6 -16,-17 1,-10 10,-20 20,-21 9,-2 16,6 15,16zm9 -115c0,11 -9,20 -19,22 -10,1 -16,-7 -15,-17 0,-11 9,-20 18,-22 10,-1 17,7 16,17zm4 -57c0,10 -9,20 -18,21 -10,1 -17,-6 -16,-17 0,-10 9,-20 18,-21 10,-1 17,6 16,17zm5 -58c-1,11 -10,20 -19,21 -9,2 -17,-6 -16,-17 1,-10 9,-19 19,-21 9,-1 17,7 16,17zm3 -57c-1,10 -9,20 -18,21 -10,1 -17,-7 -16,-17 1,-11 9,-20 18,-21 10,-1 17,6 16,17zm4 -58c0,11 -9,20 -18,21 -10,1 -17,-6 -16,-17 0,-10 9,-20 18,-21 10,-1 17,7 16,17zm3 -57c0,10 -8,19 -18,21 -9,1 -16,-7 -16,-18 1,-10 9,-19 19,-20 9,-1 16,6 15,17zm4 -58c-1,11 -9,20 -18,21 -9,1 -16,-7 -15,-17 0,-11 9,-20 18,-21 9,-1 16,7 15,17zm4 -57c-1,10 -9,19 -18,20 -9,1 -16,-6 -16,-17 1,-10 9,-20 18,-21 9,-1 17,7 16,18zm3 -58c0,11 -8,20 -17,21 -10,1 -17,-7 -16,-17 1,-11 8,-20 18,-21 9,-1 16,7 15,17zm4 -57c-1,10 -9,19 -18,20 -9,1 -16,-7 -15,-17 0,-11 8,-20 17,-21 9,0 16,7 16,18zm3 -58c-1,11 -8,20 -18,21 -9,0 -16,-7 -15,-18 1,-10 8,-19 17,-20 9,-1 17,7 16,17zm3 -57c-1,10 -8,19 -17,20 -9,1 -16,-7 -16,-17 1,-11 9,-20 18,-21 9,-1 16,7 15,18zm4 -58c-1,11 -9,20 -18,21 -9,0 -16,-8 -15,-18 0,-11 8,-20 17,-20 9,-1 16,7 16,17zm3 -57c-1,10 -9,19 -18,20 -8,1 -16,-7 -15,-18 1,-10 9,-19 18,-20 9,-1 15,7 15,18zm3 -58c0,11 -8,20 -17,20 -9,1 -16,-7 -15,-18 1,-10 8,-19 17,-20 9,0 16,8 15,18zm3 -57c0,10 -8,19 -17,20 -9,0 -16,-8 -15,-18 1,-11 9,-20 17,-20 9,-1 16,7 15,18zm4 -58c-1,11 -9,20 -17,20 -9,1 -16,-7 -15,-18 0,-10 8,-19 17,-20 9,0 15,8 15,18zm7 -115c-1,11 -8,20 -17,20 -8,1 -15,-8 -15,-18 1,-11 9,-19 18,-20 8,0 15,8 14,18zm53 1133c0,10 -9,20 -19,21 -9,1 -17,-6 -16,-16 1,-11 9,-20 19,-22 10,-1 17,7 16,17zm4 -57c-1,10 -9,20 -19,21 -9,1 -17,-6 -16,-16 1,-11 9,-20 19,-22 9,-1 16,7 16,17zm3 -57c0,11 -9,20 -18,21 -10,1 -17,-6 -16,-17 1,-10 9,-19 18,-21 10,-1 17,7 16,17zm7 -114c0,11 -9,20 -18,21 -10,1 -16,-6 -16,-17 1,-10 9,-19 18,-20 10,-2 17,6 16,16zm3 -57c0,11 -8,20 -18,21 -9,1 -16,-6 -16,-17 1,-10 9,-19 18,-20 10,-2 17,6 16,16zm3 -56c0,10 -8,19 -17,20 -10,1 -17,-6 -16,-17 0,-10 8,-20 17,-21 10,-1 17,7 16,18zm3 -58c0,11 -8,20 -18,21 -9,1 -16,-6 -15,-17 0,-10 8,-20 17,-21 10,0 17,7 16,17zm14 -284c0,10 -8,19 -17,20 -9,1 -16,-7 -16,-17 1,-11 8,-20 18,-21 9,0 16,8 15,18zm3 -57c-1,10 -8,19 -17,20 -9,1 -16,-7 -16,-17 1,-11 8,-20 17,-20 9,-1 17,7 16,17zm2 -57c0,11 -8,20 -17,20 -9,1 -15,-7 -15,-17 1,-11 8,-20 17,-20 9,-1 16,7 15,17zm3 -57c0,11 -8,19 -17,20 -9,1 -16,-7 -15,-17 1,-11 8,-20 17,-20 9,-1 16,7 15,17zm3 -57c-1,11 -8,20 -17,20 -9,1 -16,-7 -15,-18 1,-10 8,-19 16,-19 9,-1 16,7 16,17zm3 -57c-1,11 -8,20 -17,20 -9,1 -16,-7 -15,-18 0,-10 8,-19 16,-19 9,-1 16,7 16,17zm3 -57c-1,11 -9,20 -18,20 -8,1 -15,-7 -14,-18 0,-10 7,-19 16,-19 9,-1 16,7 16,17zm2 -56c-1,10 -8,19 -17,19 -8,1 -15,-7 -14,-18 0,-10 8,-19 16,-19 9,-1 16,7 15,18zm7 1073c0,10 -9,19 -19,21 -9,1 -17,-6 -16,-17 1,-10 9,-19 19,-21 10,-1 17,6 16,17zm3 -57c0,10 -8,20 -18,21 -10,1 -17,-6 -17,-17 1,-10 10,-19 19,-20 10,-2 17,6 16,16zm25 -510c0,11 -8,20 -17,21 -9,0 -16,-7 -16,-18 1,-10 9,-19 18,-20 9,-1 16,7 15,17zm3 -56c-1,10 -8,19 -17,20 -9,1 -17,-7 -16,-17 0,-11 8,-20 17,-21 9,0 16,7 16,18zm2 -57c0,10 -8,19 -17,20 -9,1 -16,-7 -16,-17 1,-10 8,-20 17,-20 9,-1 17,7 16,17zm17 -396c-1,10 -8,19 -17,19 -9,1 -16,-7 -15,-18 1,-10 8,-19 17,-19 8,-1 15,7 15,18zm3 -57c-1,10 -8,19 -17,19 -9,1 -15,-7 -15,-18 1,-10 8,-18 16,-19 9,0 16,8 16,18zm6 1181c0,10 -8,20 -18,21 -10,1 -17,-6 -17,-16 1,-10 9,-20 19,-21 10,-1 17,6 16,16zm4 -56c-1,10 -10,20 -19,21 -10,1 -17,-6 -16,-17 0,-10 8,-19 18,-20 10,-2 17,6 17,16zm3 -56c-1,10 -9,19 -19,20 -9,2 -17,-6 -16,-16 0,-11 9,-20 19,-21 9,-1 16,6 16,17zm3 -57c-1,10 -9,20 -19,21 -9,1 -16,-7 -16,-17 1,-10 9,-19 18,-20 10,-2 17,6 17,16zm7 -169c0,10 -8,20 -17,21 -10,1 -17,-7 -17,-17 1,-11 9,-20 18,-21 10,-1 17,7 16,17zm5 -113c0,11 -8,20 -17,21 -10,1 -17,-7 -17,-17 1,-11 9,-20 18,-21 9,0 16,7 16,17zm2 -56c0,10 -8,19 -18,20 -9,1 -16,-6 -15,-17 0,-10 8,-19 17,-20 10,-1 17,7 16,17zm2 -56c0,10 -8,19 -17,20 -9,1 -16,-7 -16,-17 1,-11 8,-20 18,-20 9,-1 16,6 15,17zm3 -57c0,11 -8,20 -17,20 -10,1 -17,-7 -16,-17 0,-10 8,-19 16,-20 9,-1 17,7 17,17zm2 -56c-1,10 -8,19 -18,20 -9,1 -16,-7 -15,-17 0,-11 8,-20 17,-20 9,-1 16,7 16,17zm6 -169c-1,10 -8,19 -17,20 -9,0 -16,-8 -16,-18 1,-10 8,-19 17,-20 9,0 16,8 16,18zm2 -56c-1,10 -8,19 -17,19 -9,1 -16,-7 -16,-17 1,-11 8,-20 17,-20 9,-1 16,7 16,18zm1 -57c0,10 -8,19 -16,20 -9,0 -16,-8 -16,-18 1,-10 8,-19 17,-19 9,-1 16,7 15,17zm3 -56c-1,10 -8,19 -17,19 -9,1 -16,-7 -15,-18 0,-10 8,-18 17,-19 8,0 15,8 15,18zm2 -57c-1,11 -8,20 -17,20 -9,0 -16,-8 -15,-18 0,-10 8,-19 16,-19 9,-1 16,7 16,17zm2 -56c-1,10 -8,19 -17,19 -8,1 -15,-7 -15,-17 1,-11 8,-19 17,-20 9,0 15,8 15,18zm2 -56c0,10 -7,19 -16,19 -9,0 -15,-8 -15,-18 0,-10 8,-19 16,-19 9,-1 16,7 15,18zm109 113c0,11 -8,18 -17,18 -9,-1 -15,-9 -15,-19 1,-11 8,-19 16,-18 9,1 16,9 16,19zm1 -55c0,10 -7,17 -16,17 -8,-1 -15,-9 -15,-19 1,-11 8,-19 16,-18 9,1 16,10 15,20zm2 -56c0,11 -7,18 -16,17 -9,0 -15,-9 -15,-19 0,-10 7,-18 16,-17 9,0 15,9 15,19zm30 1105c0,10 -8,19 -18,19 -9,1 -17,-6 -17,-16 1,-10 9,-19 19,-20 9,-1 17,7 16,17zm2 -55c0,10 -8,19 -18,20 -9,0 -17,-7 -17,-17 1,-10 9,-19 18,-20 10,-1 18,7 17,17zm4 -109c0,9 -8,18 -18,19 -10,0 -17,-8 -17,-18 1,-10 9,-18 18,-19 9,0 17,7 17,18zm1 -55c0,10 -8,18 -17,19 -9,0 -17,-8 -17,-18 1,-10 8,-18 18,-19 9,0 17,8 16,18zm2 -55c-1,10 -8,18 -18,19 -9,0 -17,-8 -16,-18 0,-10 8,-18 17,-19 10,0 17,8 17,18zm1 -55c0,10 -8,18 -17,19 -9,0 -17,-8 -17,-18 1,-10 9,-19 18,-19 9,0 16,8 16,18zm1 -55c0,11 -7,19 -16,19 -10,0 -17,-8 -17,-19 0,-9 7,-18 17,-18 9,0 17,9 16,18zm2 -54c0,10 -8,18 -18,18 -9,0 -16,-8 -16,-19 0,-10 8,-18 18,-18 9,1 16,9 16,19zm1 -55c-1,10 -8,18 -17,18 -9,-1 -17,-9 -17,-19 1,-10 9,-18 18,-18 9,1 16,9 16,19zm1 -55c0,10 -8,18 -17,18 -9,-1 -16,-9 -16,-19 0,-10 8,-18 17,-18 9,1 16,9 16,19zm1 -55c0,10 -8,18 -17,18 -9,-1 -16,-9 -16,-19 0,-10 8,-18 17,-17 9,0 16,8 16,18zm1 -54c0,10 -8,17 -17,17 -9,-1 -16,-9 -16,-19 1,-10 8,-18 17,-18 9,1 16,10 16,20zm1 -55c0,10 -7,17 -16,17 -9,-1 -17,-10 -17,-20 1,-10 8,-17 17,-17 9,1 16,10 16,20zm1 -55c0,10 -8,18 -17,17 -9,-1 -16,-10 -16,-20 1,-10 8,-17 17,-16 9,0 16,9 16,19zm1 -54c-1,9 -7,17 -16,16 -9,-1 -16,-10 -16,-20 0,-10 8,-18 16,-16 9,1 16,10 16,20zm1 -55c0,10 -8,17 -17,16 -8,-1 -15,-10 -15,-20 0,-10 7,-18 16,-16 9,1 16,10 16,20zm1 -55c0,10 -7,17 -16,16 -9,-1 -16,-10 -16,-21 0,-10 8,-17 17,-15 8,1 15,10 15,20zm1 -55c0,10 -7,17 -16,16 -9,-1 -16,-11 -15,-21 0,-10 7,-17 16,-15 9,1 15,10 15,20zm2 -54c-1,10 -8,17 -17,15 -8,-1 -15,-11 -15,-21 1,-10 8,-17 16,-15 9,1 16,11 16,21zm1 -55c0,10 -7,17 -16,15 -9,-2 -15,-11 -15,-21 0,-10 7,-17 16,-15 8,1 15,11 15,21zm54 120c0,10 -8,17 -17,15 -8,-2 -15,-11 -15,-21 0,-10 7,-17 16,-15 9,2 16,11 16,21zm1 -54c0,10 -8,16 -16,15 -9,-2 -16,-12 -16,-22 1,-10 8,-16 17,-14 8,2 15,11 15,21zm1 -54c0,10 -7,16 -16,14 -9,-1 -16,-11 -16,-21 1,-10 8,-16 17,-14 8,2 15,12 15,21zm105 1068c0,10 -8,18 -18,19 -9,0 -17,-7 -17,-16 1,-10 8,-18 18,-19 10,-1 17,7 17,16zm1 -52c0,10 -8,18 -17,18 -10,1 -18,-6 -18,-16 0,-10 9,-18 18,-18 10,-1 17,7 17,16zm5 -885c0,9 -7,16 -16,14 -9,-2 -16,-11 -15,-20 0,-10 7,-16 15,-15 9,2 16,11 16,21zm0 -52c0,9 -7,16 -15,14 -9,-2 -16,-11 -16,-21 0,-9 7,-16 16,-14 9,2 16,11 15,21zm1 -52c0,9 -7,15 -16,13 -8,-2 -16,-11 -16,-20 1,-10 8,-16 16,-14 9,2 16,11 16,21zm55 1038c0,9 -7,17 -17,17 -10,1 -18,-6 -18,-15 1,-10 9,-18 18,-19 10,0 18,7 17,17zm1 -52c0,10 -8,18 -17,18 -10,0 -18,-7 -18,-16 0,-10 8,-18 18,-18 9,0 17,7 17,16zm1 -51c0,9 -8,17 -18,18 -9,0 -17,-8 -17,-17 0,-9 8,-17 17,-18 10,0 18,8 18,17zm0 -51c0,9 -8,17 -18,17 -9,0 -16,-7 -16,-17 0,-9 7,-17 17,-17 9,0 17,7 17,17zm0 -52c0,10 -7,17 -17,17 -9,1 -17,-7 -17,-16 0,-10 8,-18 17,-17 10,0 17,7 17,16zm0 -51c0,10 -8,17 -17,17 -9,0 -17,-8 -17,-17 0,-9 8,-17 17,-17 10,0 17,8 17,17zm1 -51c0,9 -8,17 -17,17 -10,-1 -18,-8 -17,-18 -1,-9 7,-17 17,-17 9,1 17,8 17,18zm-1 -154c0,9 -7,17 -16,16 -10,0 -17,-8 -17,-18 0,-9 8,-17 17,-16 9,1 16,9 16,18zm0 -51c1,9 -7,16 -16,16 -9,-1 -17,-9 -17,-19 0,-9 7,-16 17,-15 9,0 16,8 16,18zm0 -52c0,10 -7,17 -16,16 -9,-1 -17,-9 -17,-18 0,-10 7,-17 17,-16 9,1 16,9 16,18zm0 -51c0,9 -7,16 -16,16 -9,-1 -17,-10 -17,-19 0,-9 7,-16 16,-16 9,1 17,10 17,19zm0 -51c0,9 -7,16 -16,15 -9,-1 -17,-9 -17,-19 0,-9 7,-16 16,-15 9,1 17,9 17,19zm0 -52c0,10 -8,16 -17,15 -9,-1 -16,-9 -16,-19 0,-9 7,-16 16,-15 9,2 17,10 17,19zm-1 -51c0,9 -7,16 -16,15 -9,-1 -16,-10 -16,-19 0,-10 7,-16 16,-15 9,1 16,10 16,19zm0 -102c0,9 -7,15 -16,14 -9,-1 -16,-10 -16,-20 0,-9 7,-15 16,-14 9,1 16,10 16,20zm0 -52c0,10 -7,16 -16,15 -9,-2 -16,-11 -16,-20 0,-10 7,-16 16,-15 9,2 16,11 16,20zm0 -51c0,9 -7,16 -16,14 -9,-1 -16,-11 -16,-20 0,-10 8,-16 16,-14 9,2 16,11 16,20zm0 -51c0,9 -7,15 -16,14 -8,-2 -15,-12 -15,-21 0,-9 7,-15 15,-13 9,1 16,10 16,20zm113 120c0,9 -6,16 -15,15 -9,-1 -16,-10 -16,-19 0,-9 7,-16 15,-14 9,1 16,9 16,18zm64 305c0,9 -7,16 -16,15 -9,0 -17,-8 -17,-17 0,-9 7,-16 16,-16 9,1 17,9 17,18zm-1 -50c0,9 -7,16 -16,16 -9,-1 -17,-9 -17,-18 0,-9 7,-16 16,-15 10,1 16,8 17,17zm-1 -49c0,9 -7,16 -16,15 -9,-1 -17,-9 -17,-18 0,-9 7,-16 16,-15 9,1 17,9 17,18zm-2 -50c1,9 -6,16 -15,15 -9,-1 -17,-9 -17,-18 0,-9 7,-15 16,-14 9,0 17,8 16,17zm-1 -49c1,9 -6,16 -15,15 -9,-1 -16,-10 -17,-19 0,-9 8,-15 16,-14 9,1 16,9 16,18zm-1 -50c0,9 -6,16 -15,15 -9,-1 -16,-9 -16,-18 0,-9 7,-16 15,-15 9,1 16,9 16,18zm-1 -99c0,9 -6,15 -15,14 -9,-1 -17,-9 -17,-18 0,-9 7,-15 16,-14 9,1 16,9 16,18zm78 845c0,9 -8,16 -18,16 -9,-1 -17,-8 -17,-17 0,-9 8,-16 17,-16 10,0 17,8 18,17zm-1 -49c0,9 -8,15 -17,15 -10,0 -18,-8 -18,-17 0,-9 8,-16 17,-16 9,1 17,9 18,18zm-1 -50c0,9 -8,16 -17,16 -9,-1 -17,-8 -17,-17 0,-9 7,-16 16,-16 10,0 18,8 18,17zm-1 -49c0,9 -8,16 -17,15 -10,0 -17,-7 -17,-16 0,-9 7,-16 16,-16 10,0 17,8 18,17zm-1 -49c0,9 -7,15 -17,15 -9,-1 -17,-8 -17,-17 -1,-9 7,-16 16,-16 10,1 17,8 18,18zm-1 -50c0,9 -8,16 -17,16 -9,-1 -17,-8 -17,-17 0,-9 7,-17 16,-16 10,0 17,8 18,17zm-2 -49c1,9 -7,16 -16,15 -10,0 -17,-8 -17,-17 0,-9 7,-16 16,-15 9,0 17,8 17,17zm-1 -49c0,9 -7,15 -16,15 -9,-1 -17,-8 -17,-17 -1,-9 7,-16 16,-16 9,1 17,8 17,18zm55 -145c0,9 -7,16 -16,15 -10,0 -17,-8 -18,-17 0,-9 7,-16 17,-15 9,1 17,8 17,17zm-2 -49c0,9 -7,16 -16,15 -9,0 -16,-8 -17,-17 0,-9 7,-16 16,-15 9,0 16,8 17,17zm-2 -49c1,9 -6,16 -15,15 -10,-1 -17,-8 -18,-17 0,-9 8,-16 16,-15 9,0 17,8 17,17zm-1 -49c0,9 -7,15 -16,15 -9,-1 -17,-9 -17,-18 0,-8 7,-15 16,-15 9,1 16,9 17,18zm-2 -49c1,9 -7,15 -15,14 -9,0 -17,-8 -17,-17 -1,-9 7,-15 16,-15 9,1 16,9 16,18zm-3 -99c0,9 -7,16 -15,15 -9,0 -17,-8 -17,-17 0,-9 7,-16 16,-15 8,0 16,8 16,17zm-1 -49c0,9 -7,16 -16,15 -9,-1 -16,-9 -16,-18 0,-9 7,-15 16,-15 9,1 16,9 16,18zm91 989c0,9 -8,15 -18,15 -9,-1 -18,-9 -18,-18 0,-9 8,-16 18,-15 9,1 18,9 18,18zm-1 -49c0,8 -8,15 -17,14 -10,0 -18,-8 -18,-17 -1,-9 7,-16 17,-15 9,1 17,8 18,18zm-1 -50c0,9 -8,16 -18,15 -9,-1 -17,-9 -17,-17 -1,-10 7,-16 16,-15 10,0 18,8 19,17zm-2 -49c1,9 -7,16 -17,15 -9,-1 -17,-9 -17,-18 -1,-9 7,-15 16,-15 10,1 18,9 18,18zm-27 -740c1,9 -6,16 -15,16 -9,-1 -17,-8 -17,-17 0,-9 6,-16 15,-15 9,0 17,7 17,16zm-2 -49c1,9 -6,16 -15,16 -9,-1 -16,-9 -16,-18 -1,-8 6,-15 15,-15 9,1 16,8 16,17zm-1 -49c0,9 -7,16 -16,15 -9,0 -16,-8 -16,-17 0,-9 7,-15 15,-15 9,0 17,8 17,17zm158 952c0,9 -7,15 -17,13 -10,-1 -18,-9 -18,-18 0,-10 7,-16 17,-14 10,1 18,10 18,19zm-2 -50c1,9 -7,15 -17,14 -9,-2 -18,-10 -18,-19 0,-9 8,-15 17,-14 10,1 18,10 18,19zm-1 -50c0,9 -8,15 -18,14 -9,-1 -17,-10 -17,-19 -1,-9 7,-15 16,-14 10,1 18,10 19,19zm-3 -50c1,9 -7,15 -16,14 -10,-1 -18,-10 -18,-19 -1,-9 6,-15 16,-14 10,1 18,10 18,19zm-2 -50c1,9 -7,15 -16,14 -10,-1 -18,-9 -18,-18 -1,-9 7,-16 16,-15 10,1 18,10 18,19zm-2 -50c0,9 -7,15 -17,14 -9,-1 -17,-9 -18,-18 0,-9 8,-16 17,-15 10,1 18,10 18,19zm-5 -100c1,9 -6,15 -16,14 -9,0 -17,-8 -18,-18 0,-9 7,-15 16,-14 10,0 18,9 18,18zm-2 -50c0,9 -7,15 -17,15 -9,-1 -17,-9 -17,-19 0,-8 7,-15 16,-14 9,0 17,9 18,18zm-3 -50c1,9 -6,15 -16,14 -9,0 -17,-8 -17,-17 -1,-9 6,-16 16,-15 9,0 17,8 17,18zm-2 -50c1,9 -7,15 -16,15 -9,-1 -17,-9 -17,-18 -1,-9 6,-16 15,-15 10,0 18,8 18,18zm-5 -101c0,10 -7,16 -16,16 -9,-1 -17,-8 -18,-17 0,-9 7,-17 16,-16 9,0 17,9 18,17zm-5 -100c0,10 -7,17 -16,16 -9,0 -17,-8 -17,-17 0,-9 7,-16 16,-16 8,1 16,9 17,17zm-3 -49c1,9 -6,16 -15,15 -9,0 -17,-7 -17,-17 -1,-9 6,-16 15,-15 9,0 17,8 17,17zm-2 -50c0,9 -7,16 -15,15 -9,0 -17,-7 -18,-16 0,-9 7,-16 16,-16 9,0 17,7 17,17zm-3 -50c1,9 -6,16 -15,16 -9,0 -16,-8 -17,-17 0,-9 7,-16 16,-16 9,0 16,7 16,17zm-2 -51c1,10 -6,17 -15,17 -9,0 -17,-8 -17,-17 0,-9 6,-16 15,-16 9,0 16,8 17,16zm-2 -49c0,9 -7,16 -15,16 -9,0 -17,-7 -17,-16 -1,-10 7,-17 15,-17 9,0 16,7 17,17zm-2 -51c0,10 -7,17 -15,17 -9,0 -17,-7 -17,-16 0,-9 6,-17 15,-17 9,0 17,7 17,16zm109 1013c1,9 -7,14 -17,13 -10,-2 -18,-11 -18,-20 -1,-10 7,-16 17,-14 10,2 18,11 18,21zm-48 -913c1,10 -6,17 -15,17 -9,0 -16,-7 -17,-17 0,-9 6,-16 15,-16 9,0 17,7 17,16zm-2 -50c0,9 -7,17 -16,17 -8,0 -16,-8 -16,-17 -1,-9 6,-16 15,-17 9,0 16,8 17,17zm-3 -51c1,9 -6,17 -15,17 -9,0 -16,-7 -16,-16 -1,-9 6,-17 15,-17 8,0 16,7 16,16zm114 977c0,10 -7,15 -17,13 -9,-3 -17,-12 -18,-21 -1,-10 7,-15 17,-13 9,2 18,12 18,21zm-2 -51c0,9 -8,15 -17,12 -10,-2 -18,-11 -18,-20 -1,-10 6,-16 16,-14 10,3 18,12 19,22zm-3 -52c0,9 -7,15 -17,13 -9,-2 -18,-11 -18,-20 0,-10 6,-16 16,-14 10,2 18,12 19,21zm-3 -52c0,10 -7,16 -17,14 -9,-2 -17,-11 -18,-21 0,-9 7,-15 17,-13 9,2 17,11 18,20zm-4 -51c1,9 -6,15 -16,14 -9,-2 -17,-11 -17,-20 -1,-10 6,-16 15,-14 10,1 18,10 18,20zm-2 -52c0,10 -7,16 -17,14 -9,-2 -17,-10 -17,-20 -1,-9 6,-15 16,-14 9,2 17,11 18,20zm-4 -51c1,9 -6,15 -16,14 -9,-2 -17,-10 -17,-20 -1,-9 6,-15 15,-14 10,1 18,10 18,20zm-15 -258c0,9 -7,16 -16,15 -9,0 -16,-8 -17,-18 -1,-9 6,-16 15,-15 9,0 17,9 18,18zm-3 -52c0,10 -6,17 -16,16 -9,0 -16,-9 -17,-18 0,-9 6,-16 15,-15 9,0 17,8 18,17zm-3 -51c0,9 -6,17 -16,16 -9,0 -16,-8 -17,-18 -1,-9 6,-16 15,-16 9,1 17,9 18,18zm-4 -51c1,9 -6,16 -15,16 -9,-1 -16,-8 -17,-18 0,-9 6,-16 15,-16 9,0 17,8 17,18zm-3 -52c1,9 -6,17 -15,17 -9,-1 -16,-8 -17,-18 0,-9 7,-16 15,-16 9,0 17,8 17,17zm-3 -52c1,10 -6,17 -15,17 -9,0 -16,-7 -17,-17 0,-9 7,-16 15,-16 9,-1 17,7 17,16zm-3 -51c1,9 -6,17 -15,17 -9,0 -16,-7 -16,-17 -1,-9 5,-17 14,-17 9,0 17,8 17,17zm-2 -52c0,10 -7,17 -15,18 -9,0 -17,-7 -17,-17 0,-9 6,-17 15,-17 8,0 16,7 17,16zm184 1010c1,10 -7,16 -17,15 -9,-2 -18,-12 -18,-21 -1,-10 7,-16 17,-14 9,1 18,10 18,20zm-14 -214c1,10 -6,17 -16,16 -10,-1 -18,-11 -19,-20 0,-10 7,-16 17,-15 10,1 18,10 18,19zm-4 -53c1,10 -6,17 -16,16 -9,-2 -18,-11 -18,-20 -1,-10 7,-17 16,-15 10,1 18,9 18,19zm-3 -53c1,9 -7,16 -16,15 -10,-1 -18,-10 -19,-19 0,-10 7,-17 17,-16 9,1 17,10 18,20zm-4 -54c1,10 -6,17 -15,16 -10,-1 -19,-10 -19,-19 -1,-10 6,-17 16,-16 9,1 17,9 18,19zm-8 -107c1,10 -6,17 -15,17 -10,-1 -18,-10 -19,-19 0,-10 7,-17 16,-16 10,0 18,9 18,18zm-3 -53c0,10 -6,17 -16,17 -9,-1 -17,-10 -18,-19 -1,-10 6,-17 15,-17 10,1 18,9 19,19zm-4 -54c0,10 -7,18 -16,17 -9,0 -17,-9 -18,-18 0,-10 7,-17 16,-17 9,1 17,9 18,18zm-4 -53c0,10 -7,17 -16,17 -9,0 -17,-9 -17,-18 -1,-10 5,-17 15,-17 9,0 17,8 18,18zm-4 -53c1,9 -6,17 -15,17 -10,0 -17,-8 -18,-18 -1,-10 6,-17 15,-17 9,0 17,8 18,18zm-4 -54c1,10 -6,18 -15,18 -9,0 -17,-8 -18,-18 -1,-10 6,-17 15,-17 9,0 17,8 18,17zm-4 -53c0,10 -6,17 -15,18 -9,0 -17,-8 -17,-18 -1,-10 5,-17 14,-18 9,0 18,8 18,18zm-4 -53c1,9 -6,17 -15,17 -9,0 -17,-7 -17,-17 -1,-10 6,-18 15,-18 8,0 17,8 17,18zm-4 -54c1,10 -6,18 -14,18 -9,0 -17,-7 -18,-17 0,-10 6,-18 15,-18 9,0 17,7 17,17zm-3 -53c0,9 -6,18 -15,18 -9,0 -17,-7 -17,-17 -1,-10 6,-18 14,-18 9,-1 17,7 18,17zm-4 -54c1,10 -6,18 -15,19 -8,0 -16,-7 -16,-17 -1,-10 5,-18 14,-18 9,-1 17,6 17,16zm119 804c1,10 -6,18 -16,18 -9,-1 -18,-9 -19,-19 0,-9 7,-17 16,-17 10,0 18,8 19,18zm-4 -54c0,10 -7,18 -16,18 -9,0 -18,-9 -19,-18 0,-10 7,-18 16,-18 10,0 18,8 19,18zm83 269c0,10 -7,18 -17,18 -10,0 -18,-8 -19,-17 -1,-10 7,-18 17,-19 9,0 18,8 19,18zm-5 -54c1,10 -6,18 -16,18 -10,0 -18,-8 -19,-17 0,-10 7,-18 17,-19 9,0 18,8 18,18zm-4 -54c1,9 -6,18 -16,18 -9,0 -18,-8 -18,-17 -1,-10 6,-18 15,-19 10,0 19,8 19,18zm-4 -54c1,9 -7,18 -16,18 -10,0 -18,-8 -19,-17 0,-10 6,-19 16,-19 10,0 18,8 19,18zm-5 -55c1,10 -6,19 -15,19 -10,0 -18,-8 -19,-18 -1,-9 6,-18 16,-18 9,0 18,7 18,17zm-17 -216c0,10 -6,18 -16,19 -9,0 -17,-8 -18,-18 0,-9 6,-18 16,-18 9,-1 17,7 18,17zm160 426c1,10 -6,19 -16,19 -10,1 -18,-7 -19,-17 -1,-10 6,-18 16,-19 10,0 18,7 19,17zm-10 -109c1,10 -6,19 -15,20 -10,0 -19,-7 -20,-17 0,-10 7,-19 17,-19 9,-1 17,6 18,16zm-5 -54c1,10 -6,18 -15,19 -10,1 -18,-7 -19,-17 -1,-10 5,-18 15,-19 10,-1 18,7 19,17zm-5 -55c1,10 -6,19 -15,20 -10,0 -18,-7 -19,-17 -1,-10 6,-18 16,-19 9,-1 18,7 18,16zm-5 -54c1,10 -6,19 -15,19 -10,1 -18,-6 -19,-16 -1,-10 6,-19 15,-20 10,0 18,7 19,17zm-4 -54c0,10 -7,18 -16,19 -9,1 -18,-7 -19,-17 -1,-10 6,-18 16,-19 9,-1 17,7 19,17zm-6 -55c1,10 -6,19 -15,20 -9,0 -18,-7 -19,-17 -1,-10 6,-18 15,-19 10,-1 18,6 19,16zm-5 -54c1,10 -6,19 -15,19 -10,1 -18,-6 -19,-16 -1,-10 6,-19 16,-20 9,0 17,7 18,17zm-5 -55c0,10 -6,19 -15,20 -10,1 -18,-7 -19,-17 -1,-10 6,-18 15,-19 10,-1 18,7 19,16zm-6 -54c2,10 -5,19 -14,19 -9,1 -18,-6 -19,-16 -1,-10 6,-19 15,-19 9,-1 18,6 18,16zm-21 -217c1,10 -5,18 -14,19 -9,1 -17,-6 -18,-16 -1,-10 5,-19 14,-20 9,-1 17,7 18,17zm-5 -55c1,10 -6,19 -14,20 -9,1 -17,-7 -18,-17 -1,-10 5,-18 14,-19 9,-1 17,6 18,16zm-5 -54c1,10 -6,18 -15,19 -8,1 -16,-6 -17,-16 -1,-10 5,-19 14,-20 9,0 17,7 18,17zm-5 -55c1,10 -6,19 -14,20 -9,1 -17,-6 -18,-16 -1,-10 5,-19 14,-20 9,-1 17,6 18,16zm-5 -54c1,10 -6,19 -15,20 -8,1 -16,-7 -17,-17 -1,-10 6,-18 14,-19 9,-1 17,6 18,16zm-5 -54c1,9 -6,18 -14,19 -9,1 -17,-6 -18,-16 0,-10 6,-19 15,-20 8,-1 16,7 17,17zm-5 -55c1,10 -5,19 -14,20 -9,1 -16,-6 -18,-16 0,-10 7,-19 15,-20 9,-1 16,6 17,16zm105 484c1,10 -6,19 -15,20 -9,1 -17,-7 -18,-17 -1,-10 6,-18 15,-19 9,-1 17,6 18,16zm122 596c1,10 -6,18 -15,19 -10,0 -19,-7 -19,-17 -2,-10 5,-19 15,-19 10,-1 18,7 19,17zm-6 -55c2,10 -5,18 -15,19 -9,1 -18,-7 -19,-17 -1,-10 6,-18 16,-19 9,0 18,7 18,17zm-5 -55c1,10 -6,19 -15,20 -10,0 -18,-7 -20,-17 0,-10 7,-19 16,-19 10,-1 18,6 19,16zm-11 -109c1,10 -6,19 -15,19 -10,1 -18,-6 -19,-16 -2,-10 5,-19 15,-20 9,0 18,7 19,17zm-6 -55c1,10 -6,19 -15,20 -10,0 -18,-7 -19,-17 -1,-10 6,-18 15,-19 9,-1 18,7 19,16zm-6 -54c1,10 -5,18 -15,19 -9,1 -17,-6 -19,-16 0,-10 6,-19 15,-20 10,-1 18,7 19,17zm-6 -55c1,10 -5,19 -14,20 -10,0 -18,-7 -19,-17 -1,-10 5,-19 15,-19 9,-1 17,6 18,16zm-6 -54c1,10 -5,18 -14,19 -10,1 -18,-7 -19,-16 -1,-10 6,-19 15,-20 9,-1 18,7 18,17zm-6 -55c2,10 -5,19 -14,19 -9,1 -18,-6 -18,-16 -2,-10 5,-19 14,-20 9,0 17,7 18,17zm-6 -54c2,9 -4,18 -14,19 -9,1 -17,-7 -18,-17 -1,-10 5,-18 14,-19 9,-1 18,7 18,17zm-5 -55c1,10 -6,19 -15,19 -9,1 -17,-6 -18,-16 -1,-10 5,-19 14,-20 9,0 18,7 19,17zm-6 -55c1,10 -5,19 -14,20 -10,1 -18,-7 -19,-17 -1,-9 5,-18 14,-19 9,-1 18,7 19,16zm-6 -54c1,10 -5,19 -14,19 -9,1 -17,-6 -19,-16 -1,-10 5,-19 14,-20 9,0 18,7 19,17zm-6 -55c1,10 -5,19 -14,20 -9,1 -17,-7 -18,-17 -1,-10 5,-18 14,-19 9,-1 17,6 18,16zm-6 -54c1,9 -5,18 -14,19 -9,1 -17,-6 -18,-16 -1,-10 5,-19 14,-20 9,-1 17,7 18,17zm-6 -55c1,10 -5,19 -14,20 -9,1 -16,-7 -18,-17 -1,-10 5,-19 14,-19 9,-1 17,6 18,16zm-5 -55c0,10 -5,19 -14,20 -9,1 -17,-6 -18,-16 -1,-10 5,-19 14,-20 9,-1 17,6 18,16zm-6 -54c1,10 -5,19 -14,20 -9,0 -17,-7 -18,-17 -1,-10 5,-19 14,-20 9,-1 17,7 18,17zm-6 -55c1,10 -5,19 -13,20 -9,1 -17,-6 -18,-16 -1,-10 5,-19 14,-20 8,-1 16,6 17,16zm-5 -54c1,10 -5,18 -14,19 -9,1 -16,-6 -18,-16 0,-10 6,-19 14,-20 9,-1 17,7 18,17zm234 1029c1,10 -6,19 -15,20 -10,0 -18,-7 -20,-18 -1,-9 6,-18 16,-19 10,0 18,7 19,17zm-6 -54c1,9 -6,18 -15,19 -10,0 -19,-7 -20,-17 0,-10 6,-19 16,-19 10,-1 18,7 19,17zm-6 -55c1,10 -6,18 -16,19 -9,1 -18,-7 -19,-17 -1,-10 5,-19 15,-19 9,-1 19,7 20,17zm-7 -55c1,10 -5,18 -15,19 -10,1 -18,-7 -19,-17 -1,-10 5,-18 15,-19 9,-1 18,7 19,17zm-6 -55c1,10 -6,19 -15,19 -10,1 -18,-7 -20,-17 -1,-10 6,-18 16,-19 9,-1 18,7 19,17zm-7 -55c1,10 -5,19 -15,19 -9,1 -17,-7 -19,-16 -1,-11 6,-19 15,-20 10,-1 18,7 19,17zm-6 -55c1,10 -6,19 -15,20 -9,0 -18,-7 -19,-17 -1,-10 5,-19 15,-20 9,0 17,7 19,17zm-7 -55c1,10 -5,19 -15,20 -9,0 -17,-7 -18,-17 -1,-10 5,-19 15,-19 9,-1 17,6 18,16zm-6 -55c1,10 -6,19 -15,20 -9,1 -18,-7 -19,-17 -1,-10 5,-18 15,-19 9,-1 17,6 19,16zm-7 -54c1,10 -5,18 -14,19 -9,1 -18,-7 -19,-17 -1,-10 5,-18 14,-19 10,-1 18,7 19,17zm-7 -55c1,10 -5,19 -14,19 -9,1 -18,-6 -19,-16 -1,-10 5,-19 15,-20 9,-1 17,7 18,17zm-26 -220c1,10 -5,19 -14,20 -9,1 -17,-7 -18,-16 -1,-10 5,-19 14,-20 8,-1 17,6 18,16zm-6 -55c1,11 -5,19 -14,20 -9,1 -17,-6 -19,-16 -1,-10 5,-19 14,-20 9,-1 17,6 19,16zm-7 -54c1,10 -5,18 -14,19 -9,1 -17,-6 -18,-16 -1,-10 5,-19 14,-20 9,-1 17,7 18,17zm-6 -55c1,10 -5,19 -14,19 -9,1 -17,-6 -18,-16 -1,-10 5,-19 14,-20 9,-1 16,7 18,17zm-6 -55c1,10 -6,19 -14,20 -9,1 -17,-7 -18,-17 -1,-10 5,-19 14,-20 8,-1 16,7 18,17zm-7 -55c1,10 -5,19 -13,20 -9,1 -17,-7 -18,-17 -1,-10 5,-18 14,-19 8,-1 16,6 17,16zm117 489c1,10 -5,19 -14,19 -9,1 -18,-6 -19,-16 -1,-10 5,-19 14,-20 9,-1 18,7 19,17zm-7 -55c1,10 -5,18 -14,19 -9,1 -17,-6 -19,-16 -1,-10 5,-19 14,-20 9,-1 18,7 19,17zm-7 -55c1,10 -5,19 -14,19 -9,1 -17,-6 -19,-16 -1,-10 6,-19 15,-20 8,-1 17,7 18,17zm152 711c1,10 -6,19 -15,19 -10,1 -19,-7 -20,-17 -1,-10 6,-18 15,-19 10,0 19,7 20,17zm-7 -55c1,10 -5,19 -15,19 -10,1 -18,-7 -20,-17 -1,-10 6,-18 15,-19 10,-1 19,7 20,17zm-22 -165c1,10 -5,18 -14,19 -10,1 -18,-7 -19,-17 -2,-10 5,-19 14,-19 10,-1 18,7 19,17zm-7 -55c1,10 -5,18 -14,19 -10,0 -19,-7 -20,-17 -1,-10 6,-19 15,-19 10,-1 18,7 19,17zm-7 -56c1,10 -5,19 -14,20 -10,0 -18,-7 -20,-17 -1,-10 6,-19 15,-20 9,0 18,7 19,17zm-7 -55c1,10 -5,19 -14,20 -9,0 -18,-7 -20,-17 -1,-10 6,-19 15,-20 9,0 18,7 19,17zm-8 -55c2,10 -5,19 -14,20 -9,0 -18,-7 -19,-17 -1,-10 5,-19 15,-20 9,0 17,7 18,17zm-7 -55c2,10 -5,19 -14,20 -9,0 -17,-7 -19,-17 -1,-10 5,-19 15,-20 9,-1 17,7 18,17zm-7 -55c1,10 -4,19 -14,19 -9,1 -17,-6 -19,-16 -1,-10 5,-19 14,-20 9,-1 18,7 19,17zm-8 -55c2,10 -4,19 -13,19 -9,1 -18,-6 -19,-16 -1,-10 5,-19 14,-20 9,-1 18,7 18,17zm-7 -55c1,10 -4,18 -14,19 -9,1 -17,-6 -18,-16 -2,-10 5,-19 14,-20 9,-1 17,7 18,17zm-7 -55c1,10 -5,18 -14,19 -9,1 -17,-7 -18,-16 -1,-11 5,-19 14,-20 8,-1 16,6 18,17zm-7 -56c1,10 -5,19 -14,20 -9,1 -17,-7 -18,-17 -2,-10 5,-18 13,-19 9,-1 17,6 19,16zm-8 -55c2,10 -4,19 -13,20 -9,1 -17,-7 -18,-17 -2,-10 4,-19 13,-20 9,0 17,7 18,17zm-7 -55c2,10 -5,19 -13,20 -9,1 -17,-7 -18,-17 -1,-10 4,-19 13,-20 9,0 17,7 18,17zm-7 -55c2,10 -4,19 -13,20 -9,1 -17,-7 -18,-17 -1,-10 5,-19 13,-20 9,0 17,7 18,17zm-7 -55c1,10 -4,19 -13,20 -9,1 -17,-7 -18,-17 -1,-10 5,-19 13,-20 9,-1 17,7 18,17zm-7 -55c1,10 -5,19 -13,19 -9,1 -17,-6 -18,-16 -1,-10 5,-19 13,-20 9,-1 17,7 18,17zm-7 -56c2,11 -4,19 -13,20 -8,1 -16,-6 -18,-16 -1,-10 5,-19 14,-20 8,-1 16,6 17,16zm269 1097c2,10 -5,18 -15,19 -9,0 -18,-7 -20,-17 -1,-10 5,-19 15,-19 10,-1 19,7 20,17zm-8 -55c2,10 -5,18 -15,19 -9,0 -18,-8 -19,-18 -2,-10 5,-18 15,-19 9,0 18,7 19,18zm-7 -56c1,10 -6,19 -15,19 -10,1 -19,-7 -20,-17 -1,-10 5,-19 15,-19 9,-1 18,7 20,17zm-8 -55c1,10 -6,18 -15,19 -10,1 -18,-7 -20,-17 -1,-11 5,-19 15,-20 9,0 19,7 20,18zm-8 -56c1,10 -5,19 -15,19 -9,1 -18,-7 -20,-17 -1,-10 6,-19 15,-19 10,0 19,7 20,17zm-8 -55c1,10 -5,19 -15,19 -9,1 -18,-7 -19,-17 -2,-10 5,-19 14,-19 10,-1 18,7 20,17zm-8 -56c2,10 -5,19 -14,20 -10,0 -18,-7 -20,-17 -1,-11 6,-19 15,-20 9,-1 18,7 19,17zm-8 -55c2,10 -4,19 -14,19 -9,1 -18,-7 -20,-17 -1,-10 5,-18 15,-19 9,-1 18,7 19,17zm-8 -55c1,10 -5,18 -14,19 -9,1 -18,-7 -19,-17 -2,-10 5,-19 14,-19 9,-1 18,7 19,17zm-8 -56c2,10 -5,19 -14,20 -9,0 -18,-7 -19,-17 -2,-10 5,-19 14,-20 9,-1 18,7 19,17zm-8 -55c2,10 -5,19 -14,19 -9,1 -17,-7 -19,-17 -1,-10 5,-18 14,-19 9,-1 18,7 19,17zm-8 -56c1,11 -5,19 -14,20 -9,1 -18,-7 -19,-17 -1,-10 5,-19 14,-20 9,0 18,7 19,17zm-8 -55c1,10 -5,19 -14,19 -9,1 -17,-6 -19,-16 -1,-10 5,-19 14,-20 9,-1 18,7 19,17zm-8 -55c2,10 -5,18 -13,19 -9,1 -18,-7 -20,-17 -1,-10 5,-19 14,-19 9,-1 17,6 19,17zm166 717c1,10 -5,19 -15,19 -10,1 -19,-7 -20,-17 -1,-11 5,-19 15,-19 10,-1 19,7 20,17zm-8 -56c1,11 -6,19 -15,20 -10,0 -19,-8 -20,-18 -2,-10 5,-18 14,-19 10,0 19,7 21,17zm-75 -499c2,10 -4,19 -13,19 -9,1 -18,-7 -20,-17 -2,-10 5,-19 14,-20 9,0 17,7 19,18zm-8 -56c1,10 -5,19 -14,20 -9,0 -18,-8 -19,-18 -2,-10 4,-18 13,-19 9,-1 18,7 20,17zm-58 -389c1,10 -4,19 -13,20 -9,1 -17,-7 -19,-17 -1,-10 5,-19 13,-20 9,-1 17,7 19,17zm-8 -55c1,10 -5,19 -13,19 -9,1 -17,-6 -18,-16 -2,-11 4,-19 13,-20 8,-1 16,6 18,17zm-8 -56c1,10 -4,19 -13,20 -9,1 -17,-7 -18,-17 -1,-10 4,-19 13,-20 8,0 17,7 18,17zm291 1106c2,10 -5,19 -15,19 -10,0 -19,-7 -20,-18 -2,-10 4,-18 14,-19 10,0 19,8 21,18zm-9 -56c1,11 -5,19 -15,19 -10,1 -19,-7 -21,-17 -1,-10 5,-19 15,-19 10,-1 19,7 21,17zm-9 -56c1,11 -5,19 -15,20 -9,0 -18,-8 -20,-18 -2,-10 5,-19 14,-19 10,-1 19,7 21,17zm-9 -56c1,11 -5,19 -15,20 -9,0 -18,-8 -20,-18 -1,-10 5,-19 14,-19 10,-1 19,7 21,17zm-10 -55c2,10 -4,18 -14,19 -9,0 -19,-7 -20,-18 -2,-10 5,-18 14,-19 10,0 19,8 20,18zm-9 -56c2,10 -4,19 -14,19 -9,1 -18,-7 -20,-17 -1,-11 5,-19 14,-20 10,0 19,8 20,18zm-8 -56c1,10 -5,19 -15,19 -9,1 -18,-7 -19,-17 -2,-10 4,-19 14,-20 9,0 18,8 20,18zm-9 -56c1,10 -5,19 -14,20 -10,0 -19,-8 -20,-18 -2,-10 4,-19 13,-19 10,-1 19,7 21,17zm-28 -167c2,10 -4,19 -13,19 -10,1 -18,-7 -20,-17 -1,-10 5,-19 14,-20 9,0 17,8 19,18zm-9 -56c1,10 -4,19 -13,19 -9,1 -18,-7 -20,-17 -1,-10 5,-19 14,-19 9,-1 18,7 19,17zm-9 -56c2,10 -5,19 -14,20 -9,0 -18,-8 -19,-18 -1,-10 4,-19 14,-19 9,-1 17,7 19,17zm-18 -112c1,11 -4,19 -13,20 -9,1 -18,-7 -19,-17 -2,-10 4,-19 13,-20 9,0 17,7 19,17zm-9 -55c2,10 -5,19 -14,19 -9,1 -17,-7 -18,-17 -2,-10 4,-19 13,-20 8,0 17,8 19,18zm-9 -56c1,10 -4,19 -13,19 -9,1 -17,-6 -19,-17 -2,-10 4,-19 13,-19 9,-1 17,7 19,17zm-9 -56c1,10 -4,19 -13,20 -9,1 -17,-7 -19,-17 -1,-11 4,-19 13,-20 9,-1 17,7 19,17zm-9 -56c2,10 -4,19 -13,20 -9,1 -17,-7 -18,-17 -2,-10 4,-19 12,-20 9,-1 18,7 19,17zm-9 -56c2,10 -4,19 -12,20 -9,1 -17,-7 -19,-17 -1,-10 5,-19 13,-20 9,0 17,7 18,17zm159 611c2,11 -4,19 -14,20 -9,0 -18,-8 -20,-18 -1,-10 5,-19 14,-19 9,-1 19,7 20,17zm-10 -56c2,11 -4,19 -13,20 -9,0 -18,-8 -20,-18 -1,-10 5,-19 14,-19 9,-1 18,7 19,17zm-9 -56c2,11 -4,19 -13,20 -10,0 -18,-8 -20,-18 -1,-10 4,-19 13,-19 9,-1 18,7 20,17zm-75 -447c2,10 -4,19 -12,19 -9,1 -18,-7 -19,-17 -2,-10 4,-19 13,-20 8,0 17,8 18,18zm-9 -56c2,10 -4,19 -12,19 -9,1 -17,-7 -19,-17 -2,-10 4,-19 13,-19 9,-1 17,7 18,17zm241 1061c2,11 -4,19 -14,19 -10,1 -19,-8 -21,-18 -2,-10 5,-18 14,-19 10,0 19,8 21,18zm-10 -56c2,11 -4,19 -14,19 -10,1 -19,-8 -21,-18 -1,-10 5,-18 15,-19 9,0 19,8 20,18zm-9 -56c1,10 -5,19 -15,19 -9,1 -18,-8 -20,-18 -2,-10 5,-18 14,-19 10,0 19,8 21,18zm-10 -56c2,10 -5,19 -14,19 -10,0 -19,-8 -21,-18 -1,-10 5,-18 14,-19 10,0 19,8 21,18zm-20 -112c2,10 -4,19 -14,19 -9,0 -18,-8 -20,-18 -2,-10 5,-19 14,-19 9,0 18,8 20,18zm-9 -56c1,10 -5,18 -14,19 -10,0 -19,-8 -20,-18 -2,-10 4,-19 13,-19 10,0 19,7 21,18zm-10 -56c2,10 -5,18 -14,19 -9,0 -18,-8 -20,-18 -2,-10 4,-19 13,-19 10,0 19,7 21,18zm-10 -56c1,10 -5,18 -14,19 -9,0 -18,-8 -20,-18 -2,-10 5,-19 14,-19 9,-1 18,7 20,18zm-10 -57c2,11 -4,19 -14,20 -9,0 -18,-8 -20,-18 -1,-10 5,-19 14,-19 9,-1 18,7 20,17zm-10 -56c2,11 -4,19 -13,20 -9,0 -18,-8 -20,-18 -2,-10 4,-19 13,-19 9,-1 18,7 20,17zm-20 -112c2,10 -4,19 -13,19 -9,1 -18,-7 -20,-17 -1,-10 5,-19 14,-19 9,-1 17,7 19,17zm-9 -56c2,10 -4,19 -13,19 -9,1 -18,-7 -20,-17 -2,-10 4,-19 13,-19 9,-1 18,7 20,17zm-10 -56c2,10 -4,19 -13,19 -9,1 -18,-7 -20,-17 -2,-10 4,-19 13,-19 9,-1 18,7 20,17zm-20 -112c2,10 -4,19 -13,19 -8,1 -17,-7 -18,-17 -2,-10 3,-19 12,-20 9,0 18,8 19,18zm-9 -56c2,10 -4,19 -13,19 -8,1 -17,-7 -19,-17 -2,-10 5,-19 13,-20 9,0 17,8 19,18zm-10 -56c2,10 -3,19 -12,19 -9,1 -18,-7 -19,-17 -2,-10 4,-19 12,-20 9,0 18,8 19,18zm-9 -56c2,10 -4,19 -13,19 -8,1 -17,-7 -18,-17 -2,-10 3,-19 12,-20 9,0 17,7 19,18zm-2499 765c0,-7 1,-14 1,-21 -8,0 -14,-7 -14,-17 1,-10 9,-19 17,-21 1,-7 2,-13 2,-20 -8,0 -14,-8 -13,-18 0,-10 8,-19 16,-21 0,-4 1,-8 1,-12 -9,1 -17,2 -26,3 -4,6 -8,13 -11,20 -4,0 -7,0 -10,0 2,4 4,8 3,13 -1,11 -9,20 -19,21 -9,1 -16,-7 -15,-18 1,-5 3,-9 6,-13 -6,0 -13,1 -19,2 -4,36 -7,72 -10,109 1,-2 3,-5 5,-7 -4,44 -8,88 -12,131 4,1 9,2 13,3 4,-5 9,-9 15,-10 10,-1 17,6 16,17 9,2 19,3 28,5 -1,-2 -1,-5 -1,-8 1,-10 8,-19 17,-21 0,-7 1,-14 2,-20 -9,0 -15,-8 -14,-18 1,-10 8,-19 17,-21l2 -20c-9,0 -15,-8 -14,-17 1,-10 8,-19 17,-21zm246 -197c0,-8 1,-17 1,-25 -4,-3 -7,-9 -7,-15 1,-7 4,-13 9,-17l1 -26c-4,-2 -7,-8 -7,-15 1,-6 4,-12 9,-16l1 -26c-4,-3 -7,-8 -6,-15 0,-7 3,-13 8,-16l1 -26c-4,-3 -7,-9 -6,-15 0,-7 3,-13 8,-17 0,-8 1,-17 1,-26 -4,-3 -6,-8 -6,-15 0,-6 3,-12 8,-16l1 -26c-4,-3 -6,-9 -6,-15 0,-7 3,-13 8,-16l2 -26c-5,-3 -7,-9 -7,-16 1,-6 4,-12 8,-16 1,-8 1,-17 2,-26 -4,-3 -7,-8 -7,-15 1,-6 4,-12 8,-16l1 -6c-10,-15 -18,-30 -27,-45 -17,-11 -34,-22 -52,-34 -6,103 -12,206 -19,309 -6,103 -12,206 -19,309 0,2 0,5 -1,7 -6,96 -13,192 -20,288 -1,18 -3,32 -5,41 -2,6 -4,10 -6,13 0,2 0,4 0,7 0,10 -9,20 -19,21 -10,1 -17,-6 -16,-17 1,-10 9,-19 18,-21 0,-5 0,-12 0,-20 -8,0 -14,-7 -13,-17 1,-9 7,-18 15,-20l2 -21c-8,-1 -13,-8 -12,-17 0,-9 7,-17 14,-20l2 -21c-8,-1 -13,-8 -12,-17 0,-9 7,-17 15,-20l1 -21c-7,-1 -12,-8 -12,-17 1,-9 7,-17 15,-20l1 -21c-7,-1 -13,-7 -12,-17 1,-9 7,-17 15,-20l1 -20c-7,-1 -13,-8 -12,-18 1,-10 9,-20 19,-21 1,0 3,0 4,1l2 -22c-2,1 -4,2 -5,2 -10,1 -16,-7 -16,-18 1,-10 9,-20 18,-21 2,0 4,0 5,1l1 -21c-1,0 -2,1 -4,1 -9,1 -16,-7 -16,-17 1,-11 9,-21 18,-21 2,0 3,0 5,0l1 -21c-1,0 -3,1 -4,1 -9,1 -16,-7 -15,-18 0,-10 8,-19 17,-20 2,0 3,0 4,0l2 -21c-2,1 -3,1 -4,1 -10,1 -16,-7 -16,-18 1,-10 9,-19 18,-20 1,0 3,0 4,0l1 -21c-1,1 -2,1 -4,1 -9,1 -16,-7 -15,-17 1,-11 9,-20 18,-21 1,0 2,0 4,0l0 -7 1 -14c-1,1 -3,1 -4,1 -9,1 -16,-7 -15,-18 1,-10 8,-19 17,-20 2,0 3,0 4,0 1,-7 1,-14 2,-21 -2,1 -3,1 -4,1 -9,1 -16,-7 -15,-17 0,-11 8,-20 17,-21 1,0 3,0 4,0l1 -20c-1,0 -2,0 -4,0 -9,1 -15,-7 -15,-17 1,-11 9,-20 18,-21 1,0 2,0 4,1l1 -21c-1,0 -3,1 -4,1 -9,0 -15,-8 -15,-18 1,-11 9,-20 18,-21 1,0 2,0 3,1l2 -21c-1,0 -3,1 -4,1 -9,0 -16,-8 -15,-18 1,-11 8,-20 17,-21 2,0 3,1 4,1l2 -21c-2,0 -3,1 -4,1 -9,0 -16,-8 -15,-18 1,-7 4,-12 8,-16 -12,-8 -24,-17 -36,-25 -3,2 -6,4 -9,4 -9,0 -15,-8 -15,-19 0,0 0,-1 0,-1l-5 -4c-10,119 -18,238 -27,357 -8,119 -17,238 -26,356 -3,2 -6,3 -9,4 -7,83 -13,166 -20,249 -2,26 -4,50 -5,71 -2,21 -3,41 -3,58 7,0 13,1 20,1 3,-2 6,-4 10,-4 6,-1 11,1 13,5 11,1 21,2 31,2 3,-8 11,-15 19,-16 9,-2 16,6 15,16 0,1 0,1 0,2 7,0 13,0 19,1 3,-68 7,-136 10,-204 4,-68 6,-137 9,-205 3,-1 6,-1 9,-2 -3,71 -5,141 -9,212 -3,62 -6,124 -9,186 3,-7 10,-14 18,-15 10,-1 17,6 16,17 -1,10 -9,20 -19,21 -7,1 -14,-3 -16,-10l0 12c23,2 47,3 72,3 1,-4 2,-9 3,-13 -8,-1 -13,-8 -13,-17 1,-10 9,-19 19,-21 0,-5 1,-11 2,-17l0 -3 0 0c-10,2 -17,-6 -16,-16 1,-11 9,-20 19,-22 0,0 0,0 0,0 1,-6 1,-13 2,-19 0,0 -1,0 -1,0 -10,1 -17,-6 -16,-17 0,-10 8,-20 18,-21 0,0 1,0 2,0 0,-6 0,-13 1,-20 -1,0 -1,1 -2,1 -9,1 -16,-7 -16,-17 1,-11 10,-20 19,-21 0,0 1,0 1,0l1 -20c0,0 -1,0 -1,0 -9,1 -17,-6 -16,-16 1,-11 9,-20 18,-21 1,0 1,0 2,0l1 -20c-1,0 -1,0 -1,0 -10,1 -17,-6 -16,-17 0,-10 8,-20 18,-21 0,0 1,0 1,0l1 -19c0,0 0,0 -1,0 -9,1 -17,-7 -16,-17 1,-11 9,-20 18,-21 0,0 1,0 1,0l1 -20c0,0 0,0 -1,1 -9,0 -16,-7 -15,-18 0,-10 8,-19 18,-20 0,0 0,0 1,0l1 -20c-1,0 -1,0 -1,0 -10,1 -17,-6 -16,-17 0,-7 4,-13 9,-17zm-53 -554c17,12 34,23 51,35 -3,-6 -7,-12 -10,-18 -2,1 -4,1 -6,2 -9,0 -16,-8 -15,-19 0,-4 2,-9 4,-12 -7,-13 -14,-26 -21,-39 -1,17 -2,34 -3,51zm79 40c-8,-5 -16,-10 -23,-15 5,10 11,20 17,31 0,-1 0,-1 0,-1 0,-6 2,-11 6,-15zm1 -2c1,-9 1,-17 2,-26 -4,-3 -6,-8 -6,-15 1,-6 3,-11 7,-15 1,-9 2,-18 2,-27 -3,-4 -6,-9 -6,-15 1,-6 4,-12 8,-16 0,-5 0,-11 1,-17 -28,1 -56,3 -83,4 0,8 -1,15 -2,23 9,16 18,33 27,49 2,-2 4,-2 7,-2 9,-1 15,7 14,18 0,5 -2,9 -5,13l5 9c10,5 19,11 29,17zm-141 1032c-28,-2 -56,-3 -84,-5 -3,4 -8,7 -13,8 -7,1 -13,-3 -15,-10l-3 0c0,15 0,29 1,41 4,-6 9,-10 15,-11 10,-2 17,6 16,16 0,11 -10,21 -19,22 -4,1 -6,0 -9,-1 2,8 4,15 7,21 10,-2 17,6 16,16 0,1 0,2 0,2 6,4 13,7 21,8 4,0 8,1 13,1 -4,-3 -7,-8 -6,-15 1,-10 9,-20 19,-22 10,-1 18,6 16,17 0,8 -5,15 -11,19 4,-1 10,-1 15,-2 5,-1 9,-1 14,-2 4,-1 9,-1 14,-3 0,-1 0,-3 0,-4 -3,-3 -4,-7 -4,-12 1,-11 10,-20 19,-22 8,-1 15,4 17,12 3,-3 6,-7 9,-10 10,-13 18,-33 24,-60 -24,-1 -49,-3 -72,-4zm43 -1164c-16,0 -32,1 -48,2 -1,0 -3,0 -4,0 -2,1 -3,0 -4,0 -7,0 -13,0 -20,1 0,1 0,2 0,3 8,5 16,11 24,16 4,1 8,4 11,8 9,7 19,13 28,20 -1,-3 -2,-6 -2,-10 1,-11 9,-20 18,-20 0,0 1,0 2,0l1 -20c0,0 -1,0 -2,0 -1,0 -3,0 -4,0zm-1 58l3 2 0 -2c-1,0 -1,0 -2,0 0,0 -1,0 -1,0zm192 689l1 -20c-8,0 -14,-8 -13,-17 0,-4 2,-8 4,-12 -11,1 -22,2 -34,3 3,3 4,7 3,12 0,4 -1,8 -3,11 12,9 23,17 35,26 2,-1 5,-3 7,-3zm-68 -43l-1 0 1 0c0,0 0,0 0,0zm12 -486c-3,59 -6,117 -9,176 -2,44 -1,81 2,111 1,9 3,18 5,26 3,-4 7,-6 12,-6 9,-1 16,6 16,17 -1,10 -8,19 -17,20 4,8 8,15 12,22 12,17 24,34 35,52 3,-2 5,-3 8,-3 9,-1 16,7 16,17 0,5 -2,10 -5,13 8,11 12,21 14,30 2,9 2,23 1,42 0,15 -1,29 -2,43 9,6 18,13 27,19 1,0 1,0 2,0 8,-1 14,5 16,13 13,10 27,20 41,29l0 -11c-8,0 -15,-7 -15,-17 1,-9 8,-18 17,-20l0 -19c-8,0 -15,-7 -15,-17 1,-10 8,-18 17,-20l0 -19c-8,0 -15,-7 -15,-17 1,-10 8,-18 16,-20 0,-6 0,-13 0,-19 -8,-1 -14,-8 -13,-17 0,-9 5,-16 12,-19 -1,-8 -2,-15 -3,-22 -5,-3 -8,-9 -7,-16 0,-3 1,-6 2,-9 -2,-7 -4,-14 -6,-20 -5,-12 -12,-25 -20,-36 -6,-9 -12,-17 -18,-26 -8,0 -13,-8 -13,-17 0,0 0,-1 0,-1 -6,-9 -12,-18 -18,-27 -4,-5 -7,-10 -10,-14 -3,4 -7,7 -12,7 -10,1 -17,-7 -16,-17 0,-10 8,-19 17,-20 1,0 3,0 4,1 0,-6 0,-13 0,-21 -1,0 -2,1 -3,1 -9,0 -16,-7 -16,-18 1,-10 8,-19 17,-20 1,0 2,0 3,1l1 -21c-1,1 -2,1 -3,1 -9,1 -16,-7 -15,-18 0,-10 8,-19 17,-19 1,0 2,0 3,0 0,-7 0,-14 1,-20 -1,0 -2,0 -4,0 -8,1 -15,-7 -15,-17 1,-11 8,-20 17,-20 1,0 2,0 3,0 0,-7 1,-13 1,-20 -1,0 -2,1 -3,1 -9,0 -16,-8 -15,-18 0,-10 8,-19 17,-20 1,0 2,0 3,0 0,-7 1,-14 1,-20 -1,1 -2,1 -4,1 -8,0 -15,-8 -14,-18 0,-10 7,-19 16,-20 4,0 9,2 12,6 1,0 2,-1 3,-1 9,0 13,17 11,51 -3,72 -5,145 -8,217 28,-2 56,-3 85,-5l0 -11c-8,0 -14,-8 -14,-18 0,-9 7,-17 15,-19 0,-6 0,-13 1,-19 -8,-1 -15,-8 -14,-18 0,-9 7,-17 15,-19l0 -19c-8,-1 -14,-8 -14,-18 1,-9 7,-18 15,-19l1 -19c-8,-1 -14,-9 -13,-18 0,-10 6,-17 14,-19 0,-6 0,-13 0,-19 -7,-1 -13,-9 -13,-18 1,-9 6,-17 14,-19 0,-7 0,-14 0,-20 -7,-2 -12,-9 -12,-18 1,-7 5,-14 11,-17 -1,-8 -1,-17 -2,-24 -4,-3 -6,-9 -6,-15 0,-3 1,-5 2,-8 0,0 0,-1 -1,-2 -4,-18 -12,-31 -21,-38 -1,-1 -2,-2 -3,-3 -2,8 -9,14 -16,15 -8,0 -15,-8 -14,-18 0,-2 0,-4 0,-6 -2,0 -5,0 -8,0 -10,9 -19,18 -29,27 -14,0 -26,3 -36,6 -9,3 -17,8 -23,15 7,1 13,8 12,18 0,10 -8,19 -16,19 -6,1 -11,-3 -14,-9 -1,3 -2,5 -3,8 -5,14 -9,32 -12,54 1,-1 2,-1 4,-2 -2,15 -4,32 -5,51 -1,19 -2,41 -4,67zm79 793c0,3 0,6 0,9 -2,37 -8,56 -17,57 -5,0 -9,-4 -11,-13 -3,2 -6,3 -9,3 -10,1 -16,-6 -16,-16 1,-11 9,-20 19,-21 1,0 3,0 4,0 0,-2 1,-4 1,-7 0,-4 0,-9 1,-14 -2,1 -4,1 -6,1 -4,1 -8,0 -11,-3 -2,0 -5,0 -7,-1 1,0 3,-1 5,-2 -2,-2 -3,-6 -3,-10 1,-10 9,-20 18,-21 4,0 7,0 10,2l1 -25c-3,2 -6,3 -10,4 -9,1 -16,-6 -16,-17 1,-10 9,-19 19,-21 3,0 6,1 9,2l1 -25c-3,2 -6,4 -10,4 -9,1 -16,-6 -15,-17 0,-10 8,-19 18,-20 3,-1 6,0 8,2l2 -26c-3,2 -6,4 -10,4 -9,1 -16,-6 -16,-16 1,-11 9,-20 18,-21 4,0 7,0 9,2l1 -13c-4,-3 -8,-6 -12,-8 -5,-1 -9,-4 -12,-9 -15,-11 -31,-22 -46,-34 -6,1 -11,1 -17,2 -5,83 -10,166 -14,249 -2,0 -3,0 -5,-1 -1,2 0,3 -1,5 0,6 0,13 -1,20 3,-1 5,-2 8,-3l6 1c-3,-3 -5,-7 -4,-13 0,-10 8,-19 18,-21 9,-1 17,7 16,17 0,11 -9,20 -19,21 -1,0 -2,0 -3,0 -8,3 -15,6 -22,8 -1,29 -1,54 -2,76 -1,22 -1,40 0,55 -3,-1 -6,-3 -9,-5 2,28 7,47 16,59 3,-1 5,-2 8,-3 10,-1 17,7 16,17 0,1 0,1 0,2 8,2 18,3 30,3 -1,-2 -2,-5 -2,-9 1,-10 9,-20 19,-21 10,-1 17,6 17,16 -1,4 -2,8 -5,12l4 -1c3,0 7,-1 11,-4 7,5 15,9 22,14 16,-5 29,-12 39,-21 10,-8 18,-21 24,-37 2,-5 3,-10 5,-16 -5,-3 -7,-8 -7,-14 1,-9 7,-17 14,-20 1,-4 2,-9 2,-14 0,-2 1,-4 1,-6 -8,0 -14,-7 -14,-17 0,-10 8,-19 18,-20 0,-6 1,-13 1,-19l0 0c-10,1 -17,-7 -16,-17 0,-8 6,-17 14,-19 -29,-2 -57,-4 -85,-6zm90 -51c1,-7 1,-13 1,-19 -9,0 -16,-7 -15,-17 0,-3 0,-5 1,-7 -9,4 -19,9 -28,13 -2,9 -9,16 -18,17 -4,0 -8,-1 -11,-3 -6,2 -12,5 -19,8 0,14 -1,29 -2,43 5,0 10,1 15,1 -2,-3 -3,-6 -2,-9 0,-11 8,-20 18,-21 9,-1 17,6 16,17 0,6 -3,11 -7,15 17,1 33,3 49,4 0,-2 1,-3 1,-5 -9,0 -16,-7 -16,-17 1,-10 8,-19 17,-20zm2 -122c-13,-9 -25,-18 -38,-27 0,1 0,2 0,3 -1,10 -9,19 -18,20 -9,1 -17,-6 -16,-17 0,-9 7,-18 15,-20 -9,-7 -19,-14 -29,-20 -2,56 -5,112 -7,168 5,-3 11,-5 17,-8 -1,-2 -1,-4 -1,-7 0,-10 8,-19 18,-20 8,-1 14,4 16,11 13,-7 27,-13 41,-20 0,-5 0,-11 0,-17 -7,-1 -12,-8 -12,-16 0,-9 6,-17 14,-20l0 -10zm59 -838c-2,54 -4,109 -6,163 14,1 27,1 41,3l-1 14c4,4 5,9 5,14 0,5 -2,10 -5,13l-1 29c3,3 5,8 5,14 0,5 -2,9 -5,12l-1 30c3,3 4,8 4,13 0,5 -2,10 -5,13l0 29c3,4 4,8 4,13 0,6 -2,10 -5,13l-1 30c3,3 5,8 5,13 0,5 -2,10 -5,13l-1 30c3,3 5,8 4,13 0,5 -2,9 -5,12l0 13 0 17c3,3 4,8 4,13 0,5 -2,10 -5,13l-1 30c3,3 5,8 5,13 0,5 -2,10 -5,13l-1 29c3,3 4,8 4,13 0,5 -2,10 -5,13 0,10 0,20 -1,30 3,3 5,8 5,13 0,4 -2,9 -5,12 -1,11 -1,21 -1,31 3,3 4,7 4,12 0,5 -2,10 -5,13 0,10 0,20 -1,30 3,3 5,8 5,13 0,5 -2,9 -5,13l-1 9c-3,2 -6,4 -10,5l0 11c8,1 14,8 14,17 0,9 -7,17 -15,19l-1 19c8,1 15,9 14,18 0,9 -7,17 -15,19 0,6 0,13 -1,19 9,1 14,8 14,17 0,9 -7,17 -15,19l0 6c14,10 27,20 41,29 0,0 0,0 0,0 0,-10 8,-19 18,-20 9,0 17,7 16,17 0,7 -4,14 -10,17 8,1 16,2 24,3 2,-72 4,-144 5,-216 4,-2 7,-3 10,-5 2,-107 4,-214 6,-321 1,-107 3,-214 5,-321 13,2 27,5 41,8 1,-53 2,-105 3,-158 -54,-13 -108,-24 -162,-29zm95 1054c-8,-1 -16,-2 -24,-3 -2,-1 -4,-3 -5,-4 -7,-1 -14,-1 -21,-2 -9,-6 -19,-13 -29,-20 0,1 0,1 0,2 0,8 -5,15 -12,18 0,2 0,4 0,6 0,0 1,0 1,0 0,5 0,11 0,16 5,2 9,8 9,15 0,7 -5,14 -10,18 -1,7 -1,15 -1,22 5,3 9,8 9,16 -1,7 -5,14 -11,17 0,8 0,15 -1,23 6,2 10,8 9,15 0,5 -2,9 -5,13 12,-1 25,-3 37,-4 -3,-3 -5,-7 -4,-12 0,-10 8,-19 18,-20 10,-1 18,7 17,16 0,5 -2,10 -5,13 8,-1 16,-1 24,-2 1,-43 3,-85 4,-127 0,-1 0,-2 0,-3 0,-5 0,-9 0,-13zm257 -296c-9,-2 -18,-4 -27,-5 0,0 0,1 0,2 0,9 -7,16 -16,16 -9,0 -17,-8 -17,-18 0,-2 0,-5 1,-7 -4,-1 -9,-2 -14,-3 0,82 0,164 -1,246 2,-2 4,-4 5,-6 0,5 0,9 -1,11 0,3 0,6 -1,9 1,5 1,9 2,14 -3,4 -5,5 -8,5 -9,1 -14,-9 -15,-31l-6 7c-2,-1 -5,-2 -8,-2 -9,1 -17,9 -17,19 -1,3 1,7 2,9 -10,13 -21,26 -32,39 1,1 1,3 1,6 0,9 -8,18 -17,18 -2,0 -3,0 -4,0l-3 3c1,6 1,11 2,16 1,0 3,-1 4,-1 10,0 17,7 17,17 0,7 -5,14 -12,17 4,9 10,16 16,21 6,5 14,8 22,10 1,-9 9,-16 18,-17 9,0 17,7 17,16 0,1 0,2 0,3 4,0 8,0 12,-1 6,0 11,-1 16,-1 0,-1 0,-2 0,-3 0,-9 8,-18 18,-18 6,0 12,3 15,8 7,-3 13,-8 18,-13 6,-6 11,-13 15,-22 -2,-3 -3,-6 -3,-10 0,-7 5,-13 12,-16 1,-6 2,-12 3,-19 -8,-1 -15,-7 -15,-16 0,-9 8,-17 18,-17 0,0 1,0 1,0 0,-1 0,-2 0,-3 0,-5 1,-10 1,-14 -1,0 -1,0 -2,0 -10,0 -17,-8 -17,-17 0,-9 8,-17 17,-17 1,0 2,0 3,0 0,-6 0,-11 0,-17 -1,0 -2,0 -3,0 -9,0 -17,-8 -17,-17 0,-9 7,-17 17,-17 1,0 2,0 3,1 0,-6 0,-12 0,-18 -1,0 -2,0 -3,0 -9,0 -17,-7 -17,-17 0,-9 8,-17 17,-16 1,0 2,0 3,0 0,-6 0,-12 0,-18 -1,0 -2,0 -3,0 -9,0 -17,-7 -17,-17 0,-8 7,-15 15,-16 0,-6 0,-12 0,-18 -8,-1 -15,-8 -15,-17 0,-8 6,-15 15,-16 0,-6 0,-12 0,-18 -8,-1 -14,-7 -15,-14zm-67 -44c6,1 11,3 17,4 -6,-3 -10,-9 -10,-16 0,-10 8,-17 17,-16 9,0 17,8 16,17 0,9 -7,16 -15,17 20,4 41,8 62,12l0 -10c-1,0 -2,0 -3,0 -10,-1 -17,-8 -17,-18 0,-9 7,-16 17,-16 1,1 2,1 3,1 0,-6 0,-12 -1,-18 0,0 -1,0 -2,0 -10,0 -17,-8 -17,-18 0,-9 7,-16 16,-15 1,0 2,0 3,0l0 -18c-1,0 -2,0 -3,0 -9,0 -16,-8 -17,-17 0,-10 8,-17 17,-16 1,0 2,0 3,0l-1 -17c0,0 -1,0 -2,0 -9,-1 -17,-9 -17,-19 0,-9 8,-16 17,-15 0,0 1,0 2,0l0 -2 0 -15c-1,0 -2,0 -3,0 -9,-1 -16,-9 -17,-18 1,-10 8,-17 17,-16 1,0 2,0 3,1l-1 -18c0,0 -1,0 -2,0 -9,-1 -17,-9 -17,-19 0,-9 7,-16 16,-15 1,0 2,1 3,1l0 -18c-1,0 -2,0 -3,0 -9,-1 -16,-9 -16,-19 0,-9 7,-16 16,-15 1,1 2,1 3,1l0 -18c-1,0 -2,0 -3,0 -9,-1 -16,-9 -16,-19 0,-8 6,-15 14,-14 -14,-11 -28,-22 -42,-32 -3,5 -8,7 -14,6 -9,-1 -16,-10 -16,-19 0,-3 1,-6 2,-9 -3,-2 -6,-5 -9,-7 0,73 0,147 0,221 0,74 1,148 0,221zm-27 263l0 -3c-3,3 -7,4 -12,5 -9,0 -17,-7 -17,-17 0,-10 8,-18 18,-18 4,0 8,2 11,5 0,-9 0,-18 0,-27 -3,3 -6,4 -11,4 -9,0 -17,-7 -17,-17 0,-9 8,-17 18,-17 4,0 8,1 11,4l0 -27c-3,3 -7,5 -12,5 -9,0 -16,-8 -16,-17 0,-10 7,-18 17,-17 4,0 8,1 11,4 0,-9 0,-18 0,-27 -3,3 -6,5 -11,5 -9,0 -17,-8 -17,-18 0,-9 8,-17 17,-17 4,0 7,2 10,3 -1,-7 -2,-14 -3,-22 -2,1 -4,1 -6,1 -10,0 -17,-8 -17,-17 0,-10 7,-17 17,-17 2,0 4,1 6,2 0,-2 0,-3 0,-4 1,0 1,0 2,0l0 -18c-2,2 -5,2 -8,2 -8,0 -14,-5 -16,-12 -9,-2 -18,-4 -27,-5 -1,9 -8,15 -17,15 -7,0 -13,-5 -15,-11 0,13 -1,26 -1,39 3,-6 9,-10 16,-10 9,0 16,8 16,18 0,10 -7,17 -17,17 -7,0 -12,-4 -15,-11 0,14 -1,27 -1,40 3,-6 9,-11 16,-11 9,0 17,8 17,18 0,10 -8,17 -18,17 -7,0 -13,-4 -15,-11l-1 40c3,-6 9,-11 16,-10 9,0 17,7 17,17 0,10 -8,17 -17,18 -7,0 -13,-5 -16,-11 0,13 0,26 -1,40 3,-7 9,-11 16,-11 10,-1 17,7 17,17 0,10 -8,17 -17,18 -7,0 -13,-4 -16,-11 0,12 0,24 0,36l0 3c2,-6 8,-10 15,-10 10,-1 17,7 17,17 0,9 -8,18 -17,18 -7,0 -13,-4 -16,-9 0,13 0,25 0,36 3,-5 9,-9 15,-9 10,0 18,7 18,17 -1,9 -9,18 -19,18 -5,0 -10,-2 -13,-7l0 6c0,9 0,17 1,25 3,-3 8,-5 12,-6 8,0 14,4 16,10 11,-12 22,-25 33,-37 3,4 8,6 13,6 10,0 18,-9 18,-18 0,-6 -3,-12 -8,-15l3 -4c0,-3 0,-8 0,-17zm-1 -292l0 -22c-2,1 -5,2 -8,2 -9,-1 -16,-9 -16,-18 0,-10 7,-17 16,-17 3,0 6,2 9,3l0 -22c-3,1 -5,2 -8,1 -9,0 -17,-8 -17,-18 0,-9 7,-17 17,-16 3,0 5,1 8,3l0 -22c-3,1 -5,2 -8,1 -10,-1 -17,-9 -17,-18 0,-10 8,-17 17,-16 3,0 5,1 8,3l0 -23c-3,2 -5,2 -8,2 -9,-1 -17,-9 -17,-19 1,-9 8,-17 17,-16 3,1 6,2 8,3l0 -22c-2,2 -5,2 -8,2 -9,-1 -16,-10 -16,-19 0,-10 7,-17 16,-16 3,1 6,2 8,3l0 -22c-2,1 -5,2 -8,1 -9,-1 -16,-9 -16,-19 0,-9 7,-16 16,-15 3,0 6,1 8,3l0 -22c-2,1 -5,1 -7,1 -9,-1 -17,-10 -17,-20 0,-9 8,-16 17,-15 2,1 5,2 7,4l0 -22c-2,1 -5,1 -7,1 -9,-2 -16,-11 -16,-20 0,-7 4,-13 9,-14 -13,-11 -26,-21 -39,-32 -3,3 -7,4 -11,3 -6,-1 -11,-5 -14,-10 0,7 0,15 0,22l0 12c3,-4 8,-7 13,-6 9,2 16,11 16,21 0,9 -7,16 -16,15 -6,-1 -11,-6 -13,-11 -1,12 -1,23 -1,35 3,-5 8,-7 14,-6 9,1 16,10 16,20 0,9 -8,16 -17,15 -5,-1 -10,-5 -13,-11 0,12 0,23 -1,35 3,-4 8,-7 14,-6 9,1 16,10 16,19 0,10 -7,17 -16,16 -6,-1 -11,-5 -14,-10 0,12 0,23 0,35 3,-5 8,-8 14,-7 9,1 16,10 16,20 0,9 -8,16 -16,15 -6,-1 -12,-5 -14,-10 0,10 0,20 -1,30l0 5c3,-5 9,-8 15,-7 8,1 16,10 16,19 0,10 -8,17 -17,16 -6,0 -11,-4 -14,-9 0,11 0,23 0,34 3,-4 8,-7 14,-7 9,1 17,10 17,19 -1,10 -8,17 -17,16 -6,0 -11,-4 -14,-9 0,12 0,23 0,34 3,-4 8,-7 13,-6 10,0 17,9 17,18 0,10 -8,17 -17,17 -6,-1 -11,-4 -14,-9l0 33c3,-4 8,-7 14,-6 9,0 16,9 16,18 0,10 -7,17 -16,17 -6,-1 -11,-4 -14,-9 0,12 0,23 0,34 3,-5 8,-7 13,-7 9,0 16,7 17,16 8,2 17,3 26,5 0,-1 0,-1 0,-2 1,-9 8,-17 17,-16 3,0 6,1 8,2zm-62 -484c0,-3 0,-6 -1,-9 -4,-3 -8,-6 -13,-9 1,1 0,2 1,4 -1,-6 -1,-11 -2,-16 -1,-3 -1,-6 -1,-9 0,-1 0,-3 0,-4 -1,-13 -2,-26 -3,-39 -2,18 -4,41 -5,68 3,3 6,7 10,10 0,3 0,6 0,9 3,-4 8,-6 13,-5 0,0 1,0 1,0zm-22 884c0,2 0,4 0,7l5 -5c-2,-1 -4,-1 -5,-2zm106 -1039c-15,-3 -27,-5 -37,-5 -11,0 -19,2 -26,7 -2,1 -5,3 -6,5 1,3 2,6 2,10 0,9 -7,15 -15,14 -2,5 -3,11 -5,17 1,0 3,0 4,1 9,2 15,11 15,21 0,10 -7,16 -16,14 -2,-1 -4,-1 -5,-2 0,6 1,13 2,20 1,0 2,0 3,0 8,2 16,11 16,21 -1,9 -7,15 -16,14l1 9c13,12 26,23 39,34 0,-10 7,-16 16,-14 6,1 10,5 13,10 1,-8 1,-14 3,-18 2,-8 5,-11 10,-10 5,1 9,6 10,14 2,8 3,20 3,35 0,10 0,19 0,28 2,2 5,4 7,5 3,-2 7,-3 11,-3 9,2 16,10 16,20 0,2 0,3 -1,5 16,12 31,24 47,36 1,0 2,1 3,2 0,-7 0,-14 0,-21 -2,0 -5,1 -7,0 -9,-1 -17,-9 -17,-18 0,-10 7,-16 16,-15 3,0 5,1 8,3l-1 -4c0,-6 0,-12 0,-17 -2,1 -4,1 -7,1 -9,-2 -16,-10 -16,-19 0,-10 7,-16 16,-15 2,1 5,2 7,3 0,-7 -1,-14 -1,-20 -2,0 -4,0 -6,0 -9,-1 -16,-10 -16,-19 0,-10 7,-16 16,-15 1,1 3,1 5,2 0,-5 -1,-9 -1,-14 0,-1 0,-3 -1,-5 -1,0 -2,0 -3,0 -9,-1 -16,-10 -16,-19 0,-9 6,-16 15,-15 -1,-7 -3,-13 -5,-19 -6,-3 -10,-10 -10,-17 0,-2 0,-4 0,-5 -5,-10 -13,-18 -22,-23 -12,-8 -28,-14 -48,-19zm-20 199l5 5c0,-3 0,-6 0,-9 -2,2 -3,4 -5,4zm366 931c0,0 0,1 0,1 27,2 55,3 82,6 -1,-70 -3,-140 -5,-209 -3,-70 -5,-140 -8,-209 -2,16 -5,32 -7,48 1,2 2,5 2,8 0,4 -2,9 -5,11 -2,8 -3,15 -4,23 6,3 10,9 10,15 0,9 -6,15 -15,15l-3 17c1,0 2,0 3,0 9,1 17,8 17,17 1,9 -7,16 -17,15 -3,0 -5,-1 -8,-2 -1,8 -2,15 -4,23 3,-3 8,-4 13,-4 9,1 17,9 18,18 0,9 -8,15 -17,15 -7,-1 -14,-6 -16,-12 -10,59 -20,118 -31,177 3,3 6,8 6,12 0,7 -5,13 -11,15zm38 -1059c-2,0 -5,-1 -8,-1 5,3 8,9 8,14 1,9 -6,17 -15,16 -9,0 -16,-8 -16,-17 0,-6 2,-11 7,-13 -13,-1 -27,-2 -40,-3 5,4 8,9 8,15 0,9 -7,15 -16,15 -8,-1 -16,-9 -16,-18 0,-6 3,-10 7,-13 -5,0 -10,-1 -15,-1 -2,52 -3,104 -5,156 6,6 13,11 20,16 -2,-3 -3,-6 -3,-10 -1,-9 6,-16 15,-15 9,1 16,8 17,17 0,9 -7,16 -16,15 -2,0 -3,0 -5,-1 16,12 32,24 48,36 0,-9 7,-15 15,-14 9,0 17,8 17,17 0,6 -4,12 -9,14l10 8c-2,-78 -5,-155 -8,-233zm23 649c0,-13 -1,-26 -1,-39 -3,6 -9,11 -16,10 -10,0 -17,-8 -17,-17 -1,-9 7,-16 16,-15 7,0 14,5 16,11 0,-12 -1,-25 -1,-38 -2,6 -8,11 -16,10 -9,-1 -17,-8 -17,-17 0,-9 7,-16 16,-16 7,1 14,6 16,12l-1 -38c-3,6 -8,10 -15,10 -10,-1 -17,-9 -18,-18 0,-9 7,-15 16,-15 7,1 14,5 16,11l-1 -38c-3,7 -8,11 -16,10 -9,0 -16,-8 -16,-17 -1,-9 6,-16 16,-15 7,0 13,5 15,11l0 -5c-1,-11 -1,-22 -1,-33 -2,6 -8,10 -15,10 -10,-1 -17,-8 -17,-17 -1,-9 6,-16 15,-15 7,0 14,5 16,11 0,-13 -1,-25 -1,-37 -2,5 -8,9 -15,9 -9,-1 -17,-8 -17,-17 -1,-9 6,-16 15,-16 7,1 14,5 16,11l-1 -37c-2,6 -8,10 -15,10 -9,-1 -17,-9 -17,-18 0,-9 6,-15 15,-15 8,1 14,5 16,11l-1 -37c-2,6 -8,10 -15,9 -9,0 -17,-8 -16,-17 -1,-9 6,-16 15,-15 7,0 13,5 15,11l0 -16c-6,-4 -11,-8 -17,-12 -6,-1 -11,-5 -14,-10 -26,-20 -53,-40 -79,-61 -2,47 -3,93 -5,139 1,2 2,5 2,8 0,3 -1,6 -3,9 0,7 0,14 0,21l-1 7c3,3 5,8 5,12 1,5 -2,10 -5,12l-1 23c4,3 8,9 8,14 0,7 -4,12 -9,14 0,7 -1,13 -1,20 6,3 11,9 11,16 0,7 -5,13 -12,15 0,5 0,11 0,17 7,2 14,9 14,17 0,9 -7,16 -16,15 -10,0 -17,-8 -17,-17 -1,-7 4,-13 11,-15 -1,-6 -1,-12 -2,-19 -6,-2 -11,-8 -11,-15 0,-7 3,-12 9,-14 -1,-7 -2,-15 -2,-22 -5,-3 -8,-8 -8,-14 0,-5 2,-9 6,-12 -1,-9 -2,-17 -3,-26 -2,-3 -4,-7 -4,-11 -1,-4 1,-7 3,-10l-3 -27 0 -7c-1,-2 -2,-4 -2,-6 0,-1 1,-2 1,-4 -5,-60 -10,-121 -15,-181 -5,-4 -10,-9 -15,-13 -1,8 -8,13 -16,12 -9,-1 -16,-9 -16,-18 0,-7 3,-12 8,-14 -12,-10 -24,-21 -37,-31 -2,4 -7,6 -13,5 -8,-1 -15,-8 -16,-16 1,31 1,63 1,94 2,-7 9,-11 16,-10 9,1 16,9 16,18 0,9 -7,16 -16,15 -7,-1 -14,-7 -16,-15 0,14 1,29 1,43 1,-7 8,-12 16,-11 9,1 16,9 16,18 0,9 -7,16 -16,15 -8,-1 -15,-7 -16,-15 0,14 0,29 0,43 2,-7 8,-12 16,-11 9,1 17,9 17,18 0,9 -8,16 -16,15 -8,-1 -15,-7 -17,-15 1,15 1,30 1,45 1,-8 8,-14 16,-13 9,1 16,9 16,18 0,10 -6,16 -16,15 -8,0 -15,-8 -16,-16 0,15 0,30 1,46 1,-8 7,-13 15,-13 10,1 17,9 17,18 0,9 -7,16 -16,15 -8,0 -15,-7 -16,-15l0 7c0,13 0,25 0,38 2,-8 8,-13 16,-12 10,0 17,8 17,17 0,10 -7,16 -16,16 -8,-1 -15,-7 -16,-15 0,15 0,30 0,45 1,-8 8,-14 16,-13 9,1 17,9 17,18 0,9 -7,16 -16,15 -8,-1 -15,-7 -17,-15 0,15 1,30 1,45 1,-8 8,-13 16,-13 9,1 17,8 17,18 0,9 -7,16 -16,15 -8,0 -16,-7 -17,-15l1 45c1,-8 8,-13 16,-13 9,1 17,9 17,18 0,9 -8,16 -17,15 -8,0 -15,-6 -16,-14l0 44c2,-8 8,-13 16,-12 10,0 18,8 18,17 0,9 -8,16 -17,16 -8,-1 -15,-6 -17,-14l1 42c2,-7 9,-12 16,-11 9,0 17,8 17,17 0,9 -7,16 -17,16 -7,-1 -14,-6 -16,-13l0 27c1,3 3,5 4,8 3,-3 7,-5 12,-5 10,0 17,8 18,17 0,9 -8,16 -17,16 -4,0 -8,-2 -11,-4 0,8 0,16 0,24 3,-2 7,-3 11,-3 9,0 17,8 17,17 0,9 -8,16 -17,16 -4,0 -8,-1 -10,-3 0,8 0,16 0,24 3,-3 7,-4 11,-4 9,0 17,8 16,17 0,9 -7,16 -16,16 -4,0 -8,-1 -11,-3 0,8 0,16 0,24 3,-2 7,-4 11,-4 9,0 17,8 17,17 0,9 -8,16 -17,16 -4,0 -8,-1 -10,-3 0,5 0,9 0,13l0 11c2,-2 6,-3 10,-3 9,-1 17,7 17,16 0,9 -8,17 -17,17 -4,0 -8,-1 -10,-3 0,7 0,15 0,23 2,-2 6,-3 10,-3 9,0 17,7 17,16 0,9 -7,17 -17,17 -4,0 -8,-1 -11,-3 0,8 0,16 0,23 3,-2 7,-3 11,-3 10,0 17,7 17,16 0,9 -8,17 -17,17 -4,0 -8,-1 -11,-3l0 24c3,-2 7,-4 11,-4 9,0 17,7 17,16 0,4 -1,7 -3,10 11,0 22,-1 34,-1 -2,-3 -3,-6 -3,-9 0,-9 7,-17 17,-17 3,0 5,0 7,1l0 -19c-2,1 -4,1 -7,1 -10,0 -17,-7 -17,-16 0,-9 7,-17 17,-17 2,0 5,1 7,2l0 -20c-3,1 -5,1 -7,1 -10,0 -17,-7 -17,-16 -1,-9 8,-16 17,-16 2,0 4,0 6,1 0,-7 0,-13 0,-19 -2,0 -4,1 -6,1 -10,0 -18,-8 -18,-17 0,-9 8,-16 17,-16 3,0 5,0 6,1 0,-6 0,-13 0,-19 -2,1 -4,1 -6,1 -9,0 -17,-8 -17,-17 0,-9 7,-16 17,-16 0,0 1,0 2,0 0,-1 -1,-2 -1,-3l0 -14c-1,0 -1,0 -1,0 -9,0 -17,-7 -18,-17 0,-9 8,-16 18,-16l0 0 0 -16c-1,0 -1,0 -1,0 -9,-1 -17,-8 -17,-17 0,-9 7,-16 17,-16l0 0 0 -17 -1 0c-9,0 -16,-8 -16,-17 -1,-9 7,-16 16,-16l-1 -17c-9,-1 -16,-8 -16,-17 -1,-9 7,-16 16,-16l0 -1 -1 -16c-9,0 -16,-8 -16,-17 0,-9 7,-15 15,-15l0 -18c-9,-1 -16,-8 -16,-17 0,-8 7,-15 15,-15l0 -17c-9,-1 -15,-9 -16,-17 0,-9 7,-16 15,-16l0 -17c-9,-1 -16,-9 -16,-17 0,-10 7,-16 16,-16 9,1 17,9 17,18 0,7 -4,13 -11,15l2 19c6,3 10,9 10,15 1,7 -3,12 -8,15l2 21c4,3 7,8 7,14 0,5 -2,10 -5,12l1 26c3,3 5,7 5,12 0,3 -1,7 -3,9l2 33c1,3 2,5 2,7 0,2 0,4 -1,6l2 23c6,80 11,161 17,242 5,10 9,20 14,30 -1,-1 -1,-2 -1,-3 0,-9 8,-16 17,-16 10,1 18,8 18,17 1,9 -7,16 -17,16 -6,0 -11,-3 -14,-7l0 0c0,10 1,19 1,29 4,-3 8,-5 13,-5 10,0 18,8 18,17 0,9 -8,16 -18,15 -4,0 -8,-1 -11,-4 0,8 1,16 1,24 3,-2 7,-3 10,-3 10,0 18,8 18,17 0,9 -7,16 -17,16 -3,0 -6,-1 -9,-3 0,6 1,11 1,16 16,0 32,1 49,1 -1,-8 0,-16 0,-24 -5,-9 -10,-19 -14,-29 4,-97 7,-194 10,-291 1,-24 1,-48 2,-72 -1,-2 -2,-5 -2,-7 0,-4 1,-7 2,-9 1,-10 1,-20 1,-30 -3,-3 -4,-7 -5,-11 0,-4 2,-8 6,-11 0,-8 0,-17 0,-25 -4,-3 -7,-8 -7,-13 0,-6 3,-11 8,-13l0 -21c-5,-3 -9,-9 -9,-15 0,-7 4,-13 10,-15l0 -18c-7,-3 -12,-9 -12,-17 0,-9 7,-15 16,-15 9,1 17,9 17,18 1,8 -6,15 -15,15l1 16c8,1 16,9 16,18 0,9 -6,16 -16,15l1 17c9,1 16,8 17,17 0,9 -7,16 -16,15l0 17c9,1 17,8 17,17 0,9 -7,16 -16,16l0 16 1 0c9,1 17,9 17,18 0,9 -7,15 -17,15l0 0 1 17 0 0c9,0 17,8 17,17 0,9 -7,15 -16,15l-1 0 1 17 0 0c9,0 17,8 18,17 0,9 -8,16 -17,15l0 0 0 17 0 0c10,1 18,8 18,17 0,9 -7,16 -17,15l0 0 0 17 0 0c10,1 18,9 18,17 0,9 -7,16 -17,16 0,0 0,0 0,0l0 16c0,0 1,0 1,0 9,1 17,9 17,18 1,9 -7,16 -17,15 0,0 0,0 0,0l0 17c0,0 0,0 0,0 10,0 18,8 18,17 0,9 -7,16 -17,15 0,0 0,0 -1,0l1 17c0,0 0,0 0,0 6,0 12,3 15,8 7,-42 15,-85 22,-127 2,-16 5,-33 7,-49 -2,-3 -3,-7 -3,-10 0,-6 3,-11 7,-13l3 -20c-7,-3 -12,-9 -12,-16 0,-9 7,-16 17,-15l0 0 3 -17c-1,0 -2,0 -4,0 -9,-1 -17,-9 -17,-18 0,-9 7,-15 17,-15 3,0 6,2 9,3 1,-8 2,-17 4,-26 -3,4 -8,7 -14,7 -9,-1 -18,-9 -18,-18 0,-9 7,-15 17,-15 7,1 14,6 16,12zm-278 -622l-3 -3 0 10c1,-3 2,-5 3,-7zm209 983l0 17c1,0 1,0 1,0 2,0 4,1 6,1 2,-6 3,-13 4,-20 -3,2 -6,3 -10,2 0,0 -1,0 -1,0zm1 50l0 5 1 -5 0 0c-1,0 -1,0 -1,0zm-104 -1062c-7,-1 -14,-2 -21,-3 0,2 0,3 0,4 0,9 -7,16 -15,15 -9,-1 -16,-10 -16,-19 0,-1 0,-3 0,-4 -8,-1 -17,-2 -26,-4 0,2 1,3 1,4 0,9 -7,16 -16,14 -1,0 -2,0 -3,0 0,6 0,11 1,17 0,0 1,0 2,0 9,2 16,10 16,19 0,2 0,4 -1,5 14,12 27,23 40,34 1,0 2,0 3,0 8,1 14,8 15,16 10,7 19,15 29,23l-1 -10c-1,-2 -2,-5 -2,-8 0,-2 0,-4 1,-5 -3,-33 -5,-65 -7,-98zm320 484c0,6 1,12 1,18 1,0 3,1 4,2 1,-1 2,-1 4,-1 9,1 17,10 18,19 0,1 0,1 0,2 22,14 44,28 67,42 -3,-10 -7,-19 -10,-28 -3,4 -8,6 -13,5 -9,-1 -17,-9 -18,-19 0,-9 6,-16 16,-15l0 0c-3,-4 -7,-9 -10,-13 2,-1 3,-3 5,-5 -8,-2 -14,-10 -14,-18 -1,-9 7,-16 16,-15 4,0 9,3 12,7 3,-7 5,-15 6,-24 4,-25 5,-61 2,-107 -3,-48 -6,-95 -9,-142 -2,-38 -5,-70 -10,-95 -4,-25 -10,-45 -17,-60 -2,-3 -3,-5 -4,-7 -2,0 -3,0 -5,1 -9,0 -16,-8 -17,-17 0,-2 1,-4 1,-6 -1,-1 -3,-2 -4,-2 -13,-6 -27,-9 -44,-8 -10,0 -20,0 -29,1 -1,-5 -1,-9 -1,-14 -24,1 -48,1 -72,1l1 16c6,2 10,8 10,15 0,6 -3,12 -9,15l1 19c5,3 10,8 10,15 0,7 -4,13 -9,15l1 20c5,2 9,8 10,15 0,6 -4,12 -9,15 0,6 0,13 0,19 6,3 10,9 11,15 0,7 -4,13 -9,15 0,7 0,13 0,20 6,2 11,8 11,15 0,7 -4,12 -9,15l1 19c5,3 10,9 10,15 0,6 -2,10 -6,13 14,25 29,50 43,74 3,-1 6,-2 9,-2 9,1 16,8 17,18 1,6 -3,11 -8,14 14,25 29,50 44,76l0 0c3,-3 7,-4 11,-4 9,1 17,9 18,18 0,9 -7,16 -16,15 -3,0 -6,-1 -8,-2zm-14 -82c-2,0 -5,0 -7,0 -4,-73 -8,-146 -11,-219 0,5 0,10 0,15 -1,-20 -2,-39 -3,-58 3,0 6,0 10,0 5,0 10,3 12,9 1,0 1,1 1,1 1,0 1,0 2,0 9,0 16,8 17,17 0,9 -6,16 -14,17l1 17c8,1 15,8 15,17 1,9 -5,15 -13,16l0 17c9,1 16,9 16,17 1,9 -5,16 -14,16l1 18c9,1 15,8 16,17 1,9 -6,16 -14,16l1 17c9,1 16,9 16,18 0,9 -6,15 -15,15 0,7 0,13 -1,17 0,0 1,0 1,0 9,1 17,9 18,18 0,10 -7,16 -16,16 -9,-1 -17,-9 -17,-18 0,-3 0,-6 2,-9 0,-2 -1,-4 -1,-7 -1,0 -2,0 -3,0zm38 130c14,26 29,53 45,80 2,0 4,0 6,0 9,1 17,10 18,19 0,6 -2,10 -6,13 5,9 11,19 16,29 -1,-20 -3,-38 -5,-54 -2,-16 -4,-31 -8,-44l-2 -2c1,2 1,5 1,7 1,9 -6,16 -15,14 -10,-1 -18,-9 -18,-19 -1,-8 4,-14 12,-15 -15,-9 -30,-19 -44,-28zm0 224l0 0 1 1c0,-1 0,-1 -1,-1zm2 33c0,6 0,12 1,18 2,0 3,1 5,2 -1,-7 -1,-13 -2,-20 -1,0 -3,0 -4,0zm2 51c1,6 1,12 1,17 3,1 6,3 9,5l-3 -23c-2,1 -4,1 -7,1zm3 50l0 5c0,5 0,9 0,13 5,1 9,4 12,8 -1,-10 -2,-19 -3,-28 -2,2 -5,3 -9,2zm-4 49c-3,4 -7,5 -11,4 -4,0 -7,-1 -9,-3 -3,-64 -6,-129 -9,-193 -28,-10 -56,-19 -84,-29 -1,2 -3,4 -5,5 0,8 1,16 1,23 4,4 8,9 8,14 0,5 -3,10 -7,13 0,7 1,15 1,23 4,3 7,8 8,14 0,5 -3,10 -7,12l1 23c4,4 7,9 7,14 1,6 -2,10 -6,13 0,6 0,13 1,19l0 4c4,3 7,8 8,14 -1,5 -3,10 -7,12 0,8 0,16 0,23 5,4 8,9 8,14 0,6 -3,10 -7,13 1,8 1,15 1,23 4,3 7,8 7,14 0,5 -2,10 -6,12l1 24c4,3 7,8 7,14 0,3 -1,6 -3,8 11,2 23,3 34,5 -2,-3 -3,-6 -4,-10 0,-9 8,-15 18,-14 9,2 18,11 18,20 0,4 -1,7 -3,9 12,2 23,4 35,6 -3,-3 -4,-6 -4,-10 -1,-9 7,-15 17,-13 10,2 18,11 18,20 0,3 0,5 -1,7 2,0 5,0 7,-1 -3,-35 -7,-69 -10,-104 -1,7 -8,12 -17,10 -10,-2 -18,-10 -18,-20 -1,-9 7,-15 17,-13 8,1 15,8 17,15 -1,-12 -2,-25 -4,-37 -3,4 -8,6 -14,5 -1,-1 -3,-1 -4,-2zm75 -177c-2,-30 -3,-59 -5,-89 0,-2 0,-4 0,-7 -4,-7 -8,-14 -13,-21 -2,1 -5,1 -8,1 -9,-2 -17,-10 -17,-20 -1,-6 3,-11 8,-13 -15,-27 -30,-53 -45,-80 -3,3 -7,4 -11,4 -9,-1 -17,-9 -18,-18 0,-5 1,-8 4,-11 -15,-9 -30,-18 -44,-26 -2,0 -3,0 -4,0 -8,-1 -14,-6 -17,-13 -11,-6 -23,-13 -34,-20 4,4 7,8 7,14 0,7 -5,13 -11,15l1 18c7,2 12,9 12,16 1,8 -4,14 -11,15l1 18c7,3 12,9 12,17 0,7 -4,13 -11,14l1 19c7,3 12,9 13,16 0,8 -5,14 -11,15l0 19c7,2 12,9 13,16 0,7 -5,13 -11,15l0 18c7,3 12,9 13,17 0,1 0,2 0,3 10,3 20,6 31,10 -3,-3 -4,-7 -4,-11 -1,-9 7,-15 16,-15 9,1 17,10 18,19 0,6 -4,12 -10,14 9,3 18,6 27,9 -3,-56 -6,-111 -9,-166 1,0 3,0 4,0 1,-1 2,-1 4,-1 1,1 3,1 4,1 -1,-1 -1,-3 -1,-5 -1,-9 6,-16 16,-15 9,1 17,9 17,18 1,10 -7,16 -16,15 -5,0 -10,-4 -13,-8l0 2c3,4 5,12 6,24 3,-1 5,-1 8,-1 9,1 18,10 18,19 1,9 -7,16 -16,15 -3,-1 -5,-1 -7,-3 0,7 0,14 1,20 2,0 4,0 7,0 9,1 17,10 18,19 0,9 -7,15 -16,14 -3,0 -5,-1 -8,-2l2 20c2,-1 4,-1 7,-1 9,2 17,10 18,20 0,9 -7,15 -17,14 -2,-1 -4,-1 -6,-2 0,4 1,8 1,12 1,1 2,2 3,3 0,1 0,3 0,4 1,0 2,0 3,0 0,-1 0,-2 0,-3 2,1 5,1 8,2l1 4c5,4 9,10 9,16 1,6 -2,11 -7,13 1,8 2,16 3,23 4,4 7,9 7,15 0,5 -2,9 -5,11l3 28c3,4 4,8 4,12 1,3 0,6 -2,8 1,8 1,15 2,23l1 13c1,2 2,4 2,6 0,2 0,3 0,5 4,43 8,86 12,129 14,1 25,-1 34,-7 -8,-4 -13,-12 -14,-19 0,-10 7,-15 17,-13 6,1 11,5 15,10 2,-4 3,-9 5,-15 4,-15 6,-37 6,-63 0,-27 -1,-58 -3,-95 -2,-31 -4,-61 -6,-91 -4,-2 -8,-4 -12,-6zm-209 -315l-1 -1 0 0c1,0 1,1 1,1zm101 10c-15,-26 -30,-51 -44,-76 -2,1 -4,1 -7,1 -9,0 -16,-8 -17,-17 0,-6 3,-11 7,-13 -15,-25 -29,-50 -43,-75 -1,1 -2,2 -3,2l1 20c6,2 10,8 10,15 1,7 -3,12 -9,14l1 20c6,3 10,9 11,16 0,6 -4,12 -10,14 1,6 1,13 1,20 6,2 10,8 11,15 0,7 -4,12 -10,14l1 3c13,8 27,16 40,24 3,-3 8,-5 13,-5 9,0 17,8 18,18 0,1 -1,3 -1,4 11,7 23,14 34,21 0,-3 0,-7 -1,-10 -4,-4 -6,-8 -7,-14 0,-4 2,-7 4,-10l0 -1zm314 685c11,0 22,0 33,0 0,-1 0,-1 -1,-2 -14,-9 -28,-20 -42,-30 0,2 0,4 0,6 7,3 12,9 12,17 0,3 0,6 -2,9zm87 -21c-8,-68 -17,-137 -25,-205 -8,-36 -15,-72 -22,-107 0,9 -6,17 -15,17 -10,0 -18,-8 -19,-17 -1,-10 6,-18 16,-19 7,0 14,5 17,12l-7 -36c-3,3 -7,6 -12,6 -10,0 -17,-8 -18,-17 -1,-10 6,-19 15,-19 3,0 6,1 9,2l-4 -22c-2,1 -4,2 -6,2 -10,0 -18,-8 -19,-18 0,-2 0,-4 1,-5 -12,-3 -23,-5 -35,-7 4,3 7,8 8,13 0,6 -2,11 -5,14 0,6 1,13 2,19 -7,0 -14,0 -21,0l-1 8c3,-3 6,-4 11,-4 9,0 17,7 18,17 1,10 -6,18 -16,18 -7,0 -13,-4 -16,-11 -7,48 -14,95 -21,142 2,3 3,6 3,10 0,6 -2,11 -7,13 -1,7 -2,15 -3,22 7,3 13,10 14,18 0,10 -7,17 -17,15 -1,0 -1,0 -2,0 -1,6 -2,12 -3,18 2,0 4,0 6,0 10,2 18,11 19,21 0,9 -7,16 -17,14 -2,0 -4,-1 -7,-2 15,12 30,24 45,35 -2,-60 -5,-121 -8,-182 12,1 25,1 37,1 1,7 2,15 3,22 1,2 2,5 2,8 0,3 0,5 -1,7 2,14 3,28 4,42 1,2 1,3 1,5 0,1 0,2 0,3 4,43 8,87 13,130 9,7 18,14 28,20 2,-5 8,-9 14,-10 10,0 19,8 19,18 1,1 1,2 0,3l5 0c0,-4 -1,-9 -1,-13 6,0 12,0 18,-1zm-83 -436c-2,-1 -5,-1 -7,-2 0,3 1,6 2,9 1,-3 3,-5 5,-7zm-56 -371c-7,-48 -14,-96 -20,-144 -1,4 -4,7 -7,9 2,8 3,16 5,24 4,3 6,8 7,13 0,4 -1,8 -3,11 6,29 12,58 18,87 0,0 0,0 0,0zm-23 -161l-1 -10 -3 -22c-2,4 -6,6 -10,7 1,5 2,10 3,16l1 2c4,1 8,4 10,7zm-7 -58l-4 -24c-2,1 -5,3 -8,3 -1,0 -3,0 -5,-1l4 20c1,-1 1,-1 2,-1 4,0 8,1 11,3zm-8 -56l-3 -20c-1,0 -3,1 -5,1 -4,0 -8,-1 -11,-4 1,8 3,17 5,26 2,-2 5,-3 8,-4 2,0 4,1 6,1zm-7 -54l-2 -14c-6,1 -12,2 -18,2 1,7 3,15 4,22 2,-6 7,-10 13,-10 1,-1 2,0 3,0zm24 676c-3,-63 -7,-126 -10,-189 -3,-47 -5,-95 -8,-142 0,-1 0,-3 -1,-4 0,-2 0,-4 1,-6 -1,-12 -2,-24 -2,-36 -1,-1 -2,-2 -3,-3 -1,-19 -2,-39 -3,-58 0,-1 0,-3 0,-5 -1,-9 5,-18 14,-18 -1,-6 -2,-12 -4,-19 -7,-1 -14,-7 -14,-16 -1,-8 3,-14 8,-17l-2 -11 -2 -12c-5,-3 -8,-8 -8,-14 -1,-5 1,-9 3,-12 -7,-38 -14,-77 -21,-115 -15,1 -29,3 -44,4l0 11c2,-6 7,-9 13,-10 8,0 16,7 17,17 0,10 -6,18 -15,18 -6,1 -12,-3 -15,-8 2,85 4,169 7,254 1,0 2,0 3,0 1,61 3,123 5,184 1,61 3,122 5,183 7,2 14,5 21,7l0 0c0,-10 6,-17 16,-16 9,1 18,9 18,19 1,3 0,5 -1,7 8,2 15,5 22,7zm-21 -431c1,10 2,19 3,29 2,-3 6,-5 11,-5 2,-1 4,0 6,0 -2,-6 -3,-13 -4,-19 -2,0 -3,0 -4,0 -5,1 -9,-1 -12,-5zm6 56c0,8 1,16 2,25l0 0c3,-2 6,-3 10,-4 9,0 17,7 17,17 1,10 -6,18 -15,19 -2,0 -4,0 -5,-1l2 20c1,0 3,-1 5,-1 9,0 17,7 17,17 1,10 -6,18 -15,18 -1,1 -2,0 -4,0l2 19c1,0 3,0 4,0 9,0 17,7 18,17 1,10 -6,18 -15,18 -1,0 -2,0 -3,0l2 19c1,0 1,0 2,0 9,-1 17,7 18,17 1,10 -6,18 -15,18 -1,0 -1,0 -2,0l2 18c1,0 1,0 1,0 9,0 16,7 18,15 3,-22 5,-45 8,-68 -3,-19 -6,-37 -8,-55 3,18 7,36 11,55 0,-6 1,-12 1,-18 1,3 2,7 3,10 -1,7 -2,14 -2,20 0,5 1,9 2,13 -4,32 -8,64 -11,95 0,2 0,3 1,5 0,4 -1,7 -3,10l-3 24c0,2 0,3 0,5 5,3 9,8 10,14 0,7 -2,12 -7,15 1,4 1,8 2,13 14,3 28,5 42,8 0,0 0,0 0,0 1,0 1,0 2,1 2,-1 4,-2 7,-2 2,0 3,0 5,1 0,-2 0,-4 0,-5 1,0 2,1 4,1l1 6c4,3 8,8 8,14 1,4 0,9 -3,12 13,64 26,128 39,193 -10,-75 -19,-150 -29,-224 -2,-1 -3,-1 -5,-2 -4,-27 -7,-55 -11,-82 -2,7 -8,13 -15,13 -9,1 -17,-7 -18,-16 -1,-10 6,-19 15,-19 7,-1 13,4 16,10 -1,-13 -3,-25 -4,-37 -3,5 -8,8 -13,8 -10,1 -17,-7 -18,-17 -1,-9 5,-18 15,-18 5,-1 9,2 13,5 -1,-6 -2,-13 -3,-19l-1 -11c-3,4 -6,6 -11,6 -9,1 -17,-7 -18,-17 -1,-9 6,-18 15,-18 4,-1 8,1 11,3 -1,-8 -2,-17 -3,-26 -3,3 -6,4 -9,4 -9,1 -17,-7 -18,-17 -1,-9 5,-18 14,-18 3,-1 6,0 9,2l-3 -23c-2,1 -4,2 -7,2 -9,1 -17,-7 -18,-17 -1,-9 6,-18 15,-18 2,-1 4,0 6,0 -1,-6 -2,-13 -3,-20 -1,1 -3,1 -4,1 -1,0 -2,0 -2,0l0 1 -1 -1c-4,0 -7,-2 -10,-5 -9,-5 -19,-10 -28,-15 -1,-2 -1,-4 -1,-5 -1,-7 -3,-14 -4,-21 -2,-1 -4,-2 -7,-3l0 -5c-3,2 -6,4 -10,4 -4,0 -7,-1 -10,-3zm31 272l2 18c3,0 6,1 8,3 1,-10 3,-20 4,-30 -3,5 -8,9 -14,9zm6 54l0 4 1 -5c-1,0 -1,1 -1,1zm40 -307l-2 -22c-3,1 -5,2 -7,2 -9,1 -17,-7 -17,-17 -1,-9 5,-18 14,-19 2,0 4,1 5,1l-2 -20c-2,0 -3,1 -5,1 -8,1 -16,-7 -17,-16 0,-10 6,-19 14,-20 1,0 3,0 4,0 -1,-6 -2,-12 -3,-18 0,0 -1,0 -2,0 -8,1 -16,-7 -17,-17 -1,-9 5,-18 14,-19 0,0 1,0 1,0 -1,-6 -2,-12 -2,-18 -9,1 -16,-7 -17,-17 -1,-9 4,-17 12,-19 0,-6 -1,-12 -2,-18 -7,-1 -13,-8 -14,-17 -1,-8 4,-15 10,-18 0,-6 -1,-13 -2,-20 -6,-1 -12,-8 -13,-16 0,-7 4,-14 9,-17 0,-6 -1,-12 -2,-17 -16,1 -31,3 -47,5 1,5 2,10 2,16 7,1 13,7 14,16 1,8 -3,15 -9,18 0,7 1,13 2,20 6,3 10,9 11,16 0,6 -2,12 -7,16 1,8 3,16 4,25 3,2 6,7 7,13 0,4 -1,9 -4,12 1,7 2,13 3,19l2 14c1,2 2,5 3,8 0,3 0,5 -1,8 6,47 13,94 20,142 6,3 13,6 19,9 0,-9 6,-17 14,-17 3,-1 6,0 8,1zm-46 419c-3,0 -6,0 -9,0 -1,-18 -2,-36 -3,-53 -11,-3 -22,-6 -32,-9 -3,1 -5,1 -8,1 -6,0 -11,-4 -15,-9 -7,-2 -14,-4 -22,-7 1,56 2,112 3,168l1 30c0,1 1,3 1,5 0,3 0,5 -1,7 0,12 0,24 0,35 3,4 4,7 4,11 1,4 -1,8 -3,10 0,10 0,19 0,29 4,3 6,8 7,13 0,6 -2,11 -6,13l0 15c12,11 24,22 36,33 0,0 0,-1 0,-1 0,-6 2,-10 6,-13 1,-7 2,-14 4,-22 -7,-4 -13,-11 -13,-18 0,-10 7,-16 17,-15 0,0 0,0 1,0 1,-6 2,-12 2,-18 -1,0 -3,0 -5,0 -9,-1 -18,-11 -18,-20 -1,-10 6,-16 16,-15 5,1 9,3 12,6 9,-58 17,-117 25,-176zm-60 402c8,2 16,4 23,5 -2,-3 -3,-7 -3,-10 -1,-10 7,-16 17,-14 9,1 18,11 18,20 1,4 0,7 -2,9 5,1 10,2 14,2 -1,-21 -1,-43 -2,-64 -16,-14 -34,-28 -50,-42 -5,31 -10,63 -15,94zm-27 -144l1 7c6,4 11,12 12,19 0,8 -5,13 -12,14 0,6 1,12 1,19 8,4 13,12 14,20 0,8 -6,14 -14,13l1 18c7,3 13,11 15,18 2,1 5,1 7,2 5,-31 10,-62 15,-94 -13,-11 -27,-24 -40,-36zm325 -312l1 5c0,0 0,0 0,0l-1 -5zm6 32l4 24c2,-1 4,-2 6,-3l-6 -19c-1,0 -3,-1 -4,-2zm10 57l3 20c2,-1 3,-1 4,-1 4,-1 8,0 11,2l-7 -22c-2,0 -4,1 -6,1 -2,0 -3,0 -5,0zm10 55l3 18c9,0 18,7 19,17 0,8 -5,16 -13,18l4 20c7,2 13,8 14,16 1,7 -3,14 -8,17l4 23c4,2 6,5 8,9 7,-8 14,-17 21,-25 -12,-41 -25,-83 -37,-124 -3,6 -8,10 -15,11 0,0 0,0 0,0zm-118 -466c-3,-3 -6,-5 -9,-8 -10,-32 -20,-65 -29,-97l1 15c0,1 0,2 1,3 0,1 0,2 0,2 1,17 3,33 4,49 0,1 0,2 1,3 0,1 0,2 0,4 1,11 2,23 3,35 1,0 3,1 4,2 11,120 23,240 34,360 10,120 21,241 31,361 12,-14 25,-28 38,-41 -1,0 -1,0 -2,0 -10,1 -18,-7 -19,-17 -1,-10 7,-18 16,-19 10,-1 18,7 19,17 0,1 0,2 0,3 7,-8 14,-15 21,-23 -6,-67 -14,-135 -20,-202 -7,-68 -14,-135 -20,-203 -11,-37 -22,-73 -34,-110 -2,6 -7,10 -13,10 -9,1 -17,-6 -18,-16 -1,-10 6,-19 15,-20 3,0 7,1 9,2 -2,-7 -4,-14 -6,-21 -2,0 -3,0 -5,1 -9,0 -17,-7 -18,-17 -1,-9 4,-17 12,-19 -2,-6 -3,-13 -5,-19 -7,-3 -11,-9 -12,-16 -1,-5 1,-9 3,-13l-2 -6zm35 742c0,11 1,21 2,31 2,2 2,5 3,8 0,3 0,5 -1,8 10,-1 20,-1 31,-2 -2,-2 -2,-5 -3,-7 0,-10 7,-19 17,-19 9,-1 18,7 19,17 0,2 0,5 -1,7 6,-1 12,-1 18,-1 -4,-41 -8,-81 -12,-121 -24,26 -49,53 -73,79zm23 -1150c8,80 16,160 24,240 8,80 17,160 26,240 3,36 7,72 11,108 -1,0 -2,0 -3,0 -7,-37 -14,-73 -21,-110 -1,8 -7,14 -14,14 -9,1 -18,-6 -18,-16 -1,-10 5,-19 14,-20 4,0 8,2 12,4 -2,-8 -4,-17 -5,-26 -3,2 -6,4 -9,4 -9,1 -17,-6 -18,-16 -1,-10 6,-19 15,-20 2,0 4,0 6,1 -1,-7 -3,-14 -4,-21 -1,1 -3,1 -4,2 -9,0 -17,-7 -18,-17 -1,-10 5,-19 14,-19 1,-1 1,-1 2,-1 -1,-6 -2,-12 -4,-18l0 0c-9,1 -17,-6 -17,-16 -2,-9 4,-17 11,-19 -1,-7 -2,-13 -3,-20 -7,-1 -13,-7 -14,-16 -1,-7 3,-14 8,-17l-1 -3 -3 -20c-5,-2 -9,-8 -9,-14 -1,-6 1,-11 4,-14 -2,-10 -3,-20 -5,-30 -2,-3 -4,-7 -4,-11 -1,-3 0,-6 1,-8 -8,-45 -16,-89 -23,-134 -25,3 -49,6 -74,9l2 24c2,3 3,6 3,9 0,3 0,7 -1,9l3 37c1,2 2,5 3,9 0,3 -1,6 -2,9 1,12 2,24 3,36 2,3 3,6 3,9 1,3 0,6 -1,9 1,12 2,24 3,36 2,3 3,6 3,9 0,4 0,7 -1,10 1,12 2,24 3,36 1,2 2,5 3,9 0,3 0,6 -2,9l1 1c15,43 30,85 46,128l2 5c2,-1 5,-2 7,-2 9,-1 18,6 19,16 1,10 -6,18 -15,19 0,0 -1,0 -1,0l5 19c8,1 15,8 16,16 1,7 -2,12 -6,16 3,11 7,22 10,34 0,0 0,1 1,2 11,37 22,75 33,112 -3,-26 -6,-52 -8,-77 0,0 1,-1 2,-1 1,4 2,7 4,10l1 5c1,-7 7,-13 14,-14 9,0 18,7 19,17 1,10 -6,18 -15,19 -7,1 -13,-3 -16,-8 2,11 4,22 6,33 3,-3 7,-6 12,-6 9,-1 17,6 18,16 1,10 -6,19 -15,20 -4,0 -7,-1 -10,-3 1,8 3,16 4,24 2,-1 5,-2 8,-3 9,-1 18,7 19,17 1,10 -6,18 -15,19 -2,0 -4,0 -6,0l2 12 2 7c1,0 3,0 4,0 9,-1 17,6 18,16 1,9 -4,16 -11,19 2,7 4,14 6,20 6,3 10,9 11,16 0,4 -1,8 -3,11 15,50 31,100 46,150l0 0c-1,-10 5,-18 15,-19 6,-1 13,3 17,9 3,-3 5,-7 8,-10 1,3 2,5 3,7 -3,4 -6,7 -9,10l0 1c2,10 -5,18 -15,19 -1,0 -2,0 -3,0 -5,5 -10,10 -14,16 1,5 3,9 4,14 -7,8 -14,16 -22,24 9,52 18,103 28,155l12 -1c-1,-2 -2,-4 -2,-7 -1,-9 5,-18 15,-19 10,0 19,7 20,17 0,3 0,5 -1,8 4,-1 8,-1 12,-1 -2,-3 -3,-6 -4,-9 6,0 13,-1 20,-1 0,-1 0,-3 1,-4l-5 -44c0,-2 -1,-3 -1,-5 0,-2 0,-4 0,-6l-5 -44c0,-1 -1,-3 -1,-5 0,-2 0,-3 0,-5l-4 -45c-1,-1 -1,-3 -2,-4 0,-2 0,-4 1,-5 -2,-16 -4,-31 -6,-47 0,-1 0,-2 0,-3 0,-1 0,-2 0,-3 -1,-7 -2,-14 -3,-21 -1,-9 -2,-19 -3,-28 0,-1 0,-2 0,-3 0,-1 0,-2 0,-3 -2,-16 -4,-32 -6,-49 0,-1 0,-1 0,-2 0,-1 0,-2 0,-2 -2,-17 -4,-33 -5,-50 -1,-1 -1,-2 -1,-3 0,-1 0,-2 0,-3 -2,-16 -4,-32 -5,-48 -1,-2 -1,-3 -1,-4 0,-1 0,-2 0,-4l-1 -4c-1,-14 -3,-28 -4,-42 -1,-2 -1,-3 -1,-4 0,-2 0,-3 0,-4 -2,-16 -4,-32 -5,-48 -1,-1 -1,-2 -1,-3 0,-1 0,-2 0,-3 -2,-17 -4,-34 -6,-51 0,0 0,0 0,-1 0,0 0,-1 0,-1 -2,-15 -4,-30 -5,-46 -5,-38 -9,-76 -13,-115 -1,0 -1,-1 -1,-2 0,0 0,-1 0,-1 -4,-36 -8,-71 -12,-106 0,-1 0,-1 0,-2 0,0 0,-1 0,-1l-4 -40c-10,-90 -20,-179 -29,-268 -23,3 -46,5 -70,8zm116 968l4 11c1,-1 2,-3 3,-4 -3,-2 -5,-4 -7,-7zm168 -258l0 0 0 0 0 0zm8 36l4 19c2,0 5,1 7,2l-7 -22c-1,1 -3,1 -4,1zm11 54l4 21c6,2 11,8 13,16 0,6 -2,12 -6,15l5 27c4,3 7,7 7,13 1,4 0,8 -2,11 3,13 5,26 8,39 1,1 1,3 1,5 0,0 0,1 0,1 4,18 8,36 11,53 9,-10 17,-20 26,-31 -2,-5 -4,-10 -6,-15 -2,-3 -3,-6 -4,-10 0,-1 0,-2 0,-3 -16,-50 -33,-100 -49,-150 -2,4 -5,7 -8,8zm-119 -415c-3,-3 -7,-5 -10,-8 -10,-33 -21,-65 -31,-98 4,37 8,74 13,111 1,1 3,2 4,3 14,121 29,242 43,363 14,122 28,243 41,364 24,-27 47,-53 71,-80 -1,-8 -2,-16 -3,-24 -4,-3 -6,-7 -7,-12 0,-5 1,-9 4,-13 -2,-10 -3,-20 -4,-30 -3,-3 -6,-7 -6,-12 -1,-5 0,-9 3,-13 -2,-10 -3,-20 -4,-30 -3,-3 -5,-7 -6,-12 0,-5 1,-9 3,-12 -1,-10 -3,-21 -4,-31 -3,-3 -5,-7 -6,-12 0,-5 1,-9 3,-12 -1,-11 -2,-21 -4,-32 -3,-3 -5,-7 -5,-11 -1,-4 0,-9 2,-12 -1,-11 -2,-21 -4,-32 -2,-3 -4,-7 -5,-11 0,-4 0,-8 2,-12 -1,-10 -2,-21 -4,-32 -2,-3 -4,-7 -5,-11 0,-4 1,-8 3,-11 -2,-10 -3,-21 -4,-31l-1 -2c-2,-3 -4,-7 -5,-11 0,-1 0,-2 0,-3 -16,-50 -32,-99 -47,-148 -3,5 -7,8 -13,8 -9,1 -17,-6 -18,-16 -1,-10 5,-19 14,-20 3,0 6,1 8,2 -2,-7 -4,-14 -7,-21 -1,0 -2,0 -3,1 -9,0 -17,-7 -18,-17 -1,-9 3,-16 10,-19l0 -1zm54 748c2,16 3,32 5,47 7,0 14,0 21,-1 -1,-2 -2,-4 -3,-7 -1,-10 6,-18 16,-19 10,-1 19,7 20,17 0,3 0,5 -1,8 10,-1 19,-2 28,-2 -5,-41 -10,-81 -15,-122 -13,15 -26,30 -39,44 0,0 1,0 1,0 10,0 19,7 20,17 1,10 -6,19 -16,19 -10,1 -18,-7 -20,-17 0,-1 0,-2 0,-3 -5,7 -11,13 -17,19zm-6 -1160c9,81 19,162 29,243 10,81 21,161 32,242 5,36 9,73 14,109 -1,0 -2,0 -3,0 -8,-39 -16,-78 -25,-117 -1,-1 -2,-2 -4,-4 -6,-31 -13,-62 -19,-94 -3,5 -7,9 -13,9 -9,1 -17,-6 -18,-16 -1,-10 5,-19 14,-20 4,0 9,2 12,5 -2,-10 -4,-19 -6,-28 -2,2 -5,4 -8,4 -9,1 -18,-6 -19,-16 -1,-10 5,-19 14,-20 2,0 5,0 7,1l-4 -21c-2,1 -3,1 -5,1 -9,1 -17,-6 -18,-16 -2,-10 4,-19 13,-20 1,0 2,0 3,0l0 -2c-2,-5 -3,-11 -4,-17 0,0 -1,0 -1,0 -9,1 -17,-6 -18,-16 -1,-9 4,-18 12,-20 -1,-6 -3,-12 -4,-18 -7,-1 -14,-8 -15,-17 -1,-8 3,-15 8,-18 -1,-7 -2,-14 -4,-22 -5,-2 -9,-8 -10,-15 0,-6 1,-11 4,-15 -1,-9 -3,-19 -5,-28 -3,-3 -5,-7 -6,-12 0,-4 1,-7 2,-10 -2,-8 -3,-16 -5,-24 -24,2 -49,5 -73,8 9,88 19,176 29,264 11,28 22,56 33,84 2,-3 6,-6 10,-6 9,-1 17,6 19,16 1,10 -6,19 -15,20 -1,0 -2,0 -3,0 2,5 4,10 6,14l1 4c9,1 16,8 17,17 1,7 -2,13 -6,17 3,9 6,19 9,29 2,2 3,6 3,9 1,1 1,1 1,2 15,50 32,99 48,149 0,-1 1,-2 2,-3 -1,-9 -3,-18 -4,-28 -4,-3 -6,-7 -7,-12 -1,-6 1,-11 4,-14 -1,-3 -1,-5 -1,-8 0,0 1,0 2,0 0,2 1,3 1,5 2,-2 5,-3 8,-3 9,-1 18,7 19,17 1,10 -5,18 -14,19 -2,0 -3,0 -5,0 2,6 3,13 4,19 1,0 2,0 3,0 9,-1 18,7 19,17 1,10 -5,18 -14,19l3 19c9,0 17,7 18,17 1,8 -3,16 -10,18l2 12 3 9c6,2 11,8 12,16 0,4 -1,9 -3,12 21,64 42,127 63,191 2,-3 5,-4 9,-4 9,-1 18,6 20,16 5,-6 10,-12 15,-17 1,2 2,5 4,7 -14,15 -27,30 -41,45 1,2 1,4 2,6 2,-1 5,-2 7,-2 10,-1 19,7 20,17 1,10 -5,19 -15,19 -9,1 -17,-6 -19,-14 -4,4 -8,8 -12,12 11,53 22,105 33,157l1 0c-1,-2 -2,-4 -2,-7 -2,-10 5,-18 15,-19 10,0 19,8 20,17 0,3 0,6 -1,8 8,-1 15,-1 22,-1 -1,-3 -3,-6 -4,-9 4,0 7,0 11,-1 -1,-7 3,-13 9,-16l-3 -21c-7,-2 -13,-8 -13,-16 -1,-8 2,-14 8,-18l-3 -21c-6,-2 -12,-9 -13,-16 -1,-8 3,-15 9,-18l-3 -21c-6,-3 -12,-9 -13,-17 -1,-7 3,-14 9,-17 -1,-7 -2,-14 -3,-22 -7,-2 -12,-8 -13,-16 -1,-7 2,-14 8,-17 0,-3 -1,-5 -1,-8l-2 -14c-6,-2 -12,-8 -13,-16 -1,-8 3,-14 9,-17l-3 -22c-7,-2 -12,-9 -13,-16 -1,-8 2,-14 8,-18l-3 -21c-6,-3 -11,-9 -12,-16 -1,-8 2,-14 8,-17l-4 -23c-6,-2 -11,-8 -12,-16 -1,-7 3,-14 8,-17l-3 -22c-6,-2 -11,-8 -12,-16 -1,-7 2,-14 8,-17l-3 -22c-7,-2 -12,-8 -12,-16 -1,-7 2,-14 7,-17 -1,-8 -2,-15 -3,-22 -6,-3 -11,-9 -12,-16 -1,-8 2,-14 7,-18 -1,-7 -2,-14 -3,-21 -6,-3 -11,-9 -11,-16 -2,-8 2,-14 7,-18l-3 -22c-6,-2 -11,-8 -12,-16 -1,-7 2,-13 7,-17l-3 -22c-6,-3 -10,-8 -11,-16 -1,-7 2,-14 7,-17l-3 -22c-6,-3 -11,-9 -12,-16 -1,-7 2,-14 7,-17l-3 -22c-6,-3 -10,-9 -11,-16 -1,-7 2,-14 7,-18l-3 -22c-6,-2 -11,-8 -12,-15 0,-8 2,-14 7,-18l-2 -22c-6,-2 -11,-8 -12,-16 -1,-7 2,-14 7,-17l-3 -22c-5,-3 -10,-9 -11,-16 -1,-7 2,-14 7,-17l-3 -22c-6,-3 -10,-9 -11,-16 -1,-7 2,-14 7,-17l-3 -23c-6,-2 -10,-8 -11,-15 -1,-7 2,-14 7,-17l-3 -21c-23,3 -46,6 -69,8zm144 989l0 0 1 0 -1 0zm108 -546c-31,-29 -61,-57 -91,-85 17,123 35,246 52,368 18,123 35,246 52,368 -2,0 -3,0 -5,1 3,25 7,51 10,77 2,1 4,2 6,4 1,6 2,12 3,18l5 0c-1,-3 -2,-5 -2,-8 -2,-10 5,-18 15,-19 10,0 19,8 20,18 0,1 0,2 0,4l29 -1c-1,-2 -1,-3 -1,-5 -2,-10 5,-18 15,-19 10,0 19,8 20,18 0,1 0,3 0,4l29 -1c0,-1 -1,-3 -1,-4 -1,-9 4,-17 11,-19 -1,-7 -2,-13 -3,-20 -8,-2 -15,-8 -16,-17 -2,-10 5,-19 14,-19 -1,-6 -2,-13 -3,-19 -9,0 -18,-8 -20,-18 -1,-10 5,-18 15,-19l-2 -12c-19,1 -37,2 -56,3l-1 -9c-2,2 -4,2 -6,2 -10,1 -19,-7 -20,-17 -1,-10 5,-19 15,-20 2,0 4,1 6,2l-3 -22c-2,1 -4,1 -6,2 -10,0 -19,-8 -20,-18 -2,-10 5,-19 14,-19 2,0 5,0 7,1l-3 -22c-2,2 -4,2 -7,2 -9,1 -18,-7 -19,-17 -2,-10 5,-19 14,-20 3,0 5,1 7,1l-3 -21c-2,1 -4,2 -7,2 -9,0 -18,-8 -20,-18 -1,-10 5,-18 15,-19 2,0 4,0 7,1l-1 -4c-1,-6 -2,-12 -3,-18 -2,1 -4,2 -6,2 -9,1 -18,-7 -19,-17 -2,-10 5,-19 14,-20 2,0 4,1 6,1l-3 -21c-2,1 -4,1 -6,1 -9,1 -18,-7 -20,-17 -1,-10 5,-18 15,-19 2,0 4,0 6,1 -1,-7 -2,-14 -3,-21 -2,0 -4,1 -6,1 -9,1 -18,-7 -20,-17 -1,-10 5,-19 14,-19 3,-1 5,0 6,0 -1,-7 -2,-14 -3,-21 -1,1 -3,1 -6,2 -9,0 -18,-8 -19,-18 -1,-10 5,-18 14,-19 5,0 9,1 13,5 12,-1 23,-2 35,-3 3,-3 6,-6 11,-6 -1,-6 -2,-13 -3,-19 -9,0 -17,-7 -19,-17 -1,-10 4,-19 13,-20 -1,-6 -2,-12 -3,-19 -9,0 -17,-7 -19,-17 -1,-6 2,-13 6,-16 -13,-12 -27,-24 -40,-36 1,9 -5,17 -14,18 -8,1 -17,-7 -18,-17 -2,-10 3,-18 12,-19zm4 -338c-1,-7 -2,-13 -3,-20 -7,-2 -12,-9 -13,-17 -2,-8 2,-15 8,-18 -1,-7 -2,-14 -3,-21 -7,-2 -12,-8 -14,-16 -1,-9 3,-16 9,-19l-2 -13c-44,4 -87,8 -130,13 2,9 3,18 4,27 3,2 6,4 9,5 -1,0 -1,-1 -1,-2 -1,-10 5,-19 14,-20 8,-1 16,6 17,17 2,10 -4,19 -13,19 -5,1 -10,-1 -13,-6l4 34c3,-5 7,-8 12,-9 9,-1 17,7 18,17 2,10 -5,19 -13,20 -6,0 -10,-2 -14,-6 2,11 3,22 5,33 2,-5 6,-8 11,-8 9,-1 17,6 19,16 1,11 -5,19 -14,20 -5,1 -10,-2 -13,-6 1,11 3,23 4,34 2,-5 7,-8 12,-9 9,-1 17,7 19,17 1,10 -5,19 -14,20 -6,0 -13,-4 -16,-11l6 42c1,-7 6,-12 13,-13 8,0 17,7 18,17 2,10 -4,19 -13,20 -7,1 -13,-3 -16,-10l5 40c2,-6 7,-11 14,-11 9,-1 17,7 18,17 1,10 -5,18 -13,19 -7,1 -13,-3 -16,-8l4 28 5 5c2,-3 6,-5 10,-6 9,-1 16,7 18,17 1,5 0,9 -2,13 12,11 24,22 36,33 1,-7 7,-12 13,-12 5,-1 11,2 15,7 -2,-12 -4,-24 -6,-35 -2,5 -6,9 -12,9 -8,1 -17,-7 -19,-17 -2,-10 5,-19 14,-20 5,0 11,3 14,7 -1,-8 -2,-16 -3,-25 1,2 1,3 2,5 -1,-7 -2,-14 -3,-21 0,8 -6,15 -13,15 -9,1 -17,-6 -19,-17 -1,-10 5,-18 14,-19 7,-1 14,4 17,12 -3,-15 -5,-30 -7,-45 -1,8 -6,13 -13,14 -9,1 -17,-7 -19,-17 -1,-10 4,-19 13,-20 7,0 14,4 17,11 -2,-14 -4,-29 -6,-43 -1,7 -7,13 -13,13 -9,1 -17,-6 -19,-17 -1,-10 5,-18 13,-19 7,-1 14,4 17,11 -2,-12 -3,-24 -5,-35 11,-1 21,-2 32,-3 -4,-3 -7,-8 -8,-14 -2,-8 2,-16 8,-19zm-112 75c-1,-1 -1,-2 -2,-3l1 6c0,-1 0,-2 1,-3zm113 242c2,2 5,5 8,7l-2 -15c-2,3 -4,6 -6,8zm43 24c-11,1 -22,2 -33,3 3,2 4,6 5,10 14,12 28,25 41,37 1,-1 2,-1 3,-1 -1,-7 -2,-14 -3,-21 -7,-1 -14,-8 -15,-16 -1,-5 0,-9 2,-12zm291 722l6 0c2,-7 7,-12 15,-13 8,0 15,5 19,12 10,0 20,0 30,0 1,-8 7,-13 14,-13 2,0 4,0 6,1 -1,-7 -2,-14 -3,-21 -2,1 -4,1 -6,1 -10,0 -19,-8 -21,-18 -2,-11 5,-19 14,-19 2,0 4,0 6,1l-3 -21c-2,0 -4,1 -6,1 -10,0 -19,-8 -21,-18 -2,-11 4,-19 14,-19 2,0 4,0 6,1 -1,-7 -2,-14 -3,-21 -2,0 -4,1 -6,1 -4,0 -8,-1 -11,-4 -23,11 -46,22 -70,32 7,39 14,78 20,117zm-149 -868c8,47 16,93 24,140 2,14 4,23 4,28 7,5 15,10 23,15 1,0 2,0 3,0 8,-1 16,6 18,14 14,9 28,18 42,28 1,-3 1,-6 1,-8 -8,-2 -14,-9 -16,-18 -1,-10 5,-19 14,-19 0,0 0,0 1,0 -1,-7 -1,-13 -2,-20l0 0c-1,0 -2,1 -3,1 -9,0 -18,-8 -20,-18 -2,-10 4,-19 13,-20 2,0 3,1 4,1 -1,-7 -2,-13 -3,-20 -1,0 -3,0 -4,0 -9,1 -18,-7 -20,-17 -2,-10 4,-19 13,-20 2,0 3,0 5,1l-4 -21c-1,1 -3,1 -4,1 -9,1 -18,-7 -20,-17 -2,-11 4,-19 13,-20 2,0 3,0 5,1l-4 -21c-1,1 -3,1 -4,1 -9,1 -18,-7 -20,-17 -1,-11 4,-20 13,-20 2,0 3,0 5,0l-4 -20c-1,0 -3,1 -4,1 -4,0 -8,-1 -11,-4 -10,11 -19,22 -29,34 3,2 4,6 5,10 2,10 -4,19 -13,19 -5,1 -9,-1 -13,-5 -2,4 -5,7 -8,10zm94 627c7,43 15,86 22,129 28,-12 55,-25 82,-38 -5,-3 -8,-8 -9,-13 -1,-11 5,-19 14,-20 1,0 1,0 2,0 -2,-6 -3,-12 -4,-19 0,0 -1,0 -1,0 -10,1 -19,-8 -21,-18 -2,-10 4,-18 14,-19 0,0 1,0 2,0l-1 -3c-16,-3 -32,-6 -47,-9 -1,0 -1,0 -1,0 16,2 31,5 48,7l-3 -14c0,0 -1,0 -1,0 -10,0 -19,-8 -21,-18 -2,-10 5,-19 14,-19 0,0 1,0 1,0l-3 -19c-1,0 -1,0 -2,0 -9,0 -18,-8 -20,-18 -2,-10 5,-19 14,-19 0,0 1,0 1,0l-3 -19c-1,0 -1,0 -1,0 -10,0 -19,-8 -21,-18 -2,-11 5,-19 14,-19 0,0 1,0 1,0 -1,-7 -2,-13 -4,-19l0 0c-10,0 -19,-8 -21,-18 -1,-10 4,-18 13,-19 -2,-7 -4,-14 -5,-20 -9,-1 -16,-8 -18,-17 -1,-7 2,-14 6,-17 -10,-25 -23,-44 -40,-58 7,-9 12,-20 15,-35 0,-1 -1,-2 -1,-3 -1,-5 1,-10 3,-14 0,-2 1,-4 1,-6 -14,-8 -27,-17 -40,-26 -2,6 -7,10 -13,11 -9,0 -18,-8 -20,-18 0,-5 0,-9 2,-12l-16 -11c1,11 1,19 -1,25 -1,6 -5,9 -11,9l0 0c-2,6 -7,9 -13,10 -9,0 -18,-7 -19,-18 -2,-10 4,-18 13,-19 2,0 4,0 6,1 -1,-7 -2,-15 -3,-22 -2,1 -4,2 -6,2 -9,0 -18,-7 -20,-18 0,-2 0,-4 0,-7 -10,-7 -21,-14 -31,-21 -1,1 -1,2 -1,3 -4,-3 -9,-6 -13,-10 -1,1 -2,1 -2,1 -4,0 -7,-1 -10,-3 -4,4 -7,8 -10,11 3,23 7,46 11,69 0,0 0,0 0,0 7,40 13,79 19,119l6 8c-1,-10 5,-17 14,-18 9,0 18,7 19,18 2,10 -4,18 -13,19 -3,0 -6,-1 -9,-2l14 21c9,1 16,8 17,17 1,3 0,6 0,8 19,28 37,56 56,84 1,0 2,-1 3,-1 2,0 5,1 7,2 -1,-8 -3,-15 -4,-22 -2,1 -4,1 -6,1 -9,1 -18,-7 -20,-17 -2,-10 4,-19 14,-19 2,-1 4,0 6,1 -1,-6 -2,-12 -3,-18 2,0 3,-1 3,-2 2,-1 3,-1 4,-1 7,-1 13,4 18,12 4,9 8,24 12,44 6,32 11,65 17,97 8,12 16,23 24,35 2,-2 5,-3 8,-3 9,0 18,8 20,18 2,10 -5,19 -14,19 -10,0 -19,-8 -21,-18 0,-4 0,-7 1,-10 -10,-15 -20,-30 -30,-45 4,23 8,45 11,67 4,1 7,1 11,1 1,9 3,18 4,26 -3,-2 -7,-4 -10,-6zm-158 -537c6,-7 12,-14 19,-20 -6,14 -11,28 -17,42 12,8 24,16 37,24 2,-3 6,-6 11,-6 1,0 3,0 5,1 -1,-7 -3,-14 -4,-21 -1,0 -3,1 -4,1 -9,0 -18,-7 -20,-17 -1,-11 4,-19 13,-20 2,0 4,0 5,1 -1,-7 -2,-14 -3,-21 -2,1 -3,1 -5,1 -9,1 -17,-7 -19,-17 -2,-11 5,-19 13,-20 2,0 4,0 5,1l-3 -21c-2,0 -3,1 -5,1 -9,1 -18,-7 -19,-17 -2,-10 4,-19 13,-20 2,0 3,0 5,1l-3 -21c-2,1 -3,1 -5,1 -9,1 -18,-7 -19,-17 -2,-10 4,-19 13,-20 1,0 3,0 5,1 -1,-7 -2,-14 -4,-21 -1,1 -3,1 -4,1 -9,1 -18,-7 -19,-17 -2,-10 4,-19 13,-20 1,0 3,1 5,1l-1 -4c2,0 4,-1 6,-1 9,0 17,5 20,15 4,11 8,31 13,60 2,10 3,19 5,29 -2,4 -4,8 -5,12 2,10 4,20 5,30 2,-3 4,-6 5,-9 1,1 1,3 1,4 1,-2 1,-4 1,-6 2,-3 5,-5 7,-8 0,-8 5,-14 12,-14 12,-15 24,-29 35,-44 0,-6 3,-12 8,-14 -2,-8 -3,-15 -4,-22 -7,-3 -12,-9 -13,-17 -2,-7 1,-14 6,-17 1,-4 2,-8 3,-12 -1,-3 -2,-6 -2,-9 -8,-2 -15,-9 -17,-18 -1,-8 2,-15 8,-18 -2,-8 -4,-15 -6,-22 -6,-3 -10,-9 -11,-16 -1,-4 -1,-8 1,-11 -5,-10 -10,-19 -16,-26 -6,-8 -12,-14 -20,-19 0,1 0,1 0,1 2,11 -3,20 -12,20 -8,1 -17,-7 -18,-17 -1,-5 0,-9 2,-13 -7,-1 -14,-1 -22,0l-13 1c4,3 7,8 8,14 2,10 -3,19 -12,20 -9,0 -17,-7 -19,-18 -1,-5 1,-11 4,-14 -12,1 -24,2 -36,3 4,3 7,8 8,14 1,10 -4,19 -13,19 -9,1 -17,-6 -18,-17 -1,-5 0,-11 3,-15 -3,1 -7,1 -10,1 10,66 20,132 30,197 10,66 20,132 31,197 -4,-2 -8,-4 -11,-6 1,9 3,19 4,28 3,-4 6,-7 9,-11 2,1 3,2 5,3 0,-1 -1,-2 -1,-3 -1,-11 5,-19 13,-20 8,-1 15,4 18,12zm150 655c-1,-6 -2,-13 -3,-19 -9,-1 -17,-9 -18,-18 -2,-9 3,-17 12,-18l-4 -20c-8,-1 -16,-8 -17,-18 -2,-9 3,-17 11,-19 -1,-6 -2,-12 -3,-19 -9,-1 -16,-8 -18,-18 -1,-8 3,-15 9,-17l-3 -21c-8,-3 -14,-9 -15,-17 -1,-9 2,-16 9,-18l-3 -21c-8,-2 -14,-9 -15,-17 -1,-5 0,-9 2,-13 -18,-27 -36,-53 -54,-80 -2,1 -4,2 -6,2 -10,0 -19,-7 -20,-18 -1,-6 1,-12 5,-15 -10,-16 -21,-31 -31,-46 14,88 28,177 42,265 1,0 2,0 2,0 12,73 24,145 35,218 24,-10 48,-20 72,-29 0,-2 -1,-3 -1,-5 -2,-9 4,-17 12,-19zm-64 138l8 -1c0,-1 -1,-2 -1,-4 -1,-10 5,-19 15,-19 10,0 19,8 21,18 0,1 0,3 0,4 9,0 19,0 28,-1 0,-1 -1,-3 -1,-4 -1,-10 5,-19 15,-19 1,0 2,0 4,0 -2,-7 -3,-13 -4,-20 -1,1 -2,1 -3,1 -10,0 -19,-8 -21,-18 -1,-10 5,-19 15,-19 1,0 2,0 3,0 -1,-6 -2,-13 -3,-20 -1,1 -2,1 -3,1 -4,0 -7,-1 -10,-2 -25,10 -50,20 -75,30 4,24 8,49 12,73z"/>
  </g>
 </g>
</svg>
