<svg xmlns="http://www.w3.org/2000/svg" xml:space="preserve" width="3.50912in" height="3.94723in" version="1.1" style="shape-rendering:geometricPrecision; text-rendering:geometricPrecision; image-rendering:optimizeQuality; fill-rule:evenodd; clip-rule:evenodd"
viewBox="0 0 194 219"
 xmlns:xlink="http://www.w3.org/1999/xlink">
 <defs>
  <style type="text/css">
   <![CDATA[
    .filbar1 {fill:black}
    .fil0 {fill:white}
   ]]>
  </style>
 </defs>
 <g id="Layer_x0020_1">
  <metadata id="CorelCorpID_0Corel-Layer"/>
  <g id="_946218544">
   <path class="filbar1" d="M130 40c11,-6 8,2 21,8 7,3 21,11 23,19 1,3 0,7 1,10 0,2 -1,3 2,4 12,8 20,48 8,56 -8,7 -13,-9 -17,-13 -3,-4 -6,-8 -10,-12 -2,-4 -6,-8 -6,-12 0,-4 -7,-35 -15,-48 -2,-5 -5,-9 -7,-12zm-3 -1c-1,0 -3,0 -6,-1 -32,13 -79,20 -105,-6 -6,-6 -13,-16 -10,-25 3,-8 14,8 16,10 -2,-2 -12,-13 -13,-9 -3,11 10,22 18,27 30,18 62,10 93,2 0,-1 -5,-9 -12,-11 13,4 7,4 17,10l2 -1c7,5 4,-3 12,2 2,1 6,5 6,5 20,9 32,24 32,24 0,0 3,6 2,8 -2,1 0,3 0,3 13,13 24,51 7,63 -7,6 -13,1 -16,-6 -5,-9 -1,-5 -9,-13l-6 -6c-8,-11 -5,-12 -8,-27 -3,-22 -13,-40 -20,-49z"/>
   <path class="fil0" d="M31 108c0,2 0,3 0,5 -1,-2 -2,-5 -3,-7 -1,-2 -10,-35 -13,-48 -5,15 -7,41 -2,56 2,10 -10,11 -1,31 4,7 0,12 -1,16 -1,4 1,5 2,8 1,8 0,36 5,42 32,2 37,1 88,-12 2,-7 0,-24 -4,-32 -1,1 -3,3 -6,6 2,-9 20,-31 12,-39 -3,2 -8,10 -10,13l-1 2c3,-7 12,-48 12,-74l0 -1c1,-1 0,-3 -2,-3l0 0c-2,0 -9,34 -13,43 2,-6 10,-37 10,-50 0,-14 8,-38 1,-46 -2,-3 -17,-12 -22,-13 -10,-2 -26,1 -36,1 -12,1 -22,7 -29,17 -10,13 -3,24 1,33 4,14 7,43 12,52z"/>
   <path class="filbar1" d="M31 108c0,2 0,3 0,5 -1,-2 -2,-5 -3,-7 -1,-2 -10,-35 -13,-48 -5,15 -7,41 -2,56 2,10 -10,11 -1,31 4,7 0,12 -1,16 -1,4 1,5 2,8 1,8 0,36 5,42 32,2 37,1 88,-12 2,-7 0,-24 -4,-32 -1,1 -3,3 -6,6 2,-9 20,-31 12,-39 -3,2 -8,10 -10,13l-1 2c3,-7 12,-48 12,-74l0 -1c1,-1 0,-3 -2,-3l0 0c-2,0 -9,34 -13,43 2,-6 10,-37 10,-50 0,-14 8,-38 1,-46 -2,-3 -17,-12 -22,-13 -10,-2 -26,1 -36,1 -12,1 -22,7 -29,17 -10,13 -3,24 1,33 4,14 7,43 12,52zm-16 -67c11,-10 17,-14 31,-17 17,-4 40,-1 56,3l0 0c-9,0 -19,0 -29,0 -25,0 -36,1 -58,14zm69 -41c6,2 21,11 25,15 8,9 8,80 8,88 0,12 -4,19 -4,25 0,3 8,9 1,25 -1,2 -4,9 -4,10 0,5 1,5 2,8 0,2 0,4 1,7 1,8 1,14 0,22 -1,10 -81,22 -98,18 -4,-1 -4,-2 -5,-5 -4,-10 -4,-22 -4,-33 0,-6 -2,-15 -2,-16 0,-9 2,-8 2,-12 0,-4 -2,-7 -3,-10 -7,-15 1,-17 1,-26 0,-3 -1,-5 -1,-9l0 -7c0,-16 4,-32 6,-47l0 0c0,-10 -1,-23 3,-30 5,-10 18,-20 30,-22 6,-1 38,-1 42,-1z"/>
  </g>
 </g>
</svg>
