<svg xmlns="http://www.w3.org/2000/svg" xml:space="preserve" width="6.8991in" height="13.104in" version="1.1" style="shape-rendering:geometricPrecision; text-rendering:geometricPrecision; image-rendering:optimizeQuality; fill-rule:evenodd; clip-rule:evenodd"
viewBox="0 0 18610 35348"
 xmlns:xlink="http://www.w3.org/1999/xlink">
 <defs>
  <style type="text/css">
   <![CDATA[
    .fil1 {fill:black}
    .fil0 {fill:white}
    .fil2 {fill:white}
   ]]>
  </style>
 </defs>
 <g id="Layer_x0020_1">
  <metadata id="CorelCorpID_0Corel-Layer"/>
  <g id="_946235376">
   <path class="fil2" d="M8557 22c2539,-313 7178,2795 7884,5169 404,1358 244,2640 72,4032 697,-192 1287,-385 1563,297 215,531 231,1330 178,1932 -110,1229 -558,2313 -1083,3148 -455,724 -598,404 -618,1487 -12,704 -36,1415 0,2119 52,988 265,1328 480,1730 3998,7472 -14030,17035 -13611,5253 53,-1516 81,-2372 34,-4008 -82,-2820 -434,-1969 -937,-3920 -108,-422 -116,-436 -395,-665 -984,-807 -1613,-2129 -1789,-3634 -115,-982 -14,-2973 1344,-2926 -34,-593 -213,-1288 -266,-1957 -220,-2724 558,-4412 2633,-6008 1237,-952 2835,-1843 4511,-2049z"/>
   <path class="fil1" d="M12677 6086c571,9 2145,2067 1973,2546 229,-474 517,-789 708,-1474 184,-655 179,-1371 -20,-1992 -303,-948 -1309,-2149 -1967,-2447 457,549 2767,3357 -694,3367zm-6624 3627c755,7 1345,-716 893,-1062 78,2 158,6 240,11 -2221,-893 -4358,567 -3242,1146 176,91 287,111 497,63 -311,-56 -455,-128 -584,-376 -231,-445 2860,-1052 2999,-616 134,423 -390,679 -803,834zm4477 -23c-536,-73 -1049,-328 -1030,-798 5,-121 57,-218 145,-296 -37,11 -74,23 -113,36 717,-706 2515,-904 4276,441 86,-286 44,-558 -142,-812 31,25 62,52 93,78 316,282 300,414 494,830 369,797 1007,571 715,2953 -383,3118 580,2546 -216,4693 -347,938 -787,1824 -1435,2540 -265,293 -312,406 -816,317 -92,487 -177,942 -421,1294 -280,405 -614,450 -912,758 496,-40 1080,-400 1528,-605 951,-433 2365,-2361 2889,-3270 107,124 27,-7 91,159 376,982 177,4079 239,5404 59,-191 436,-852 559,-1101 416,-841 566,-1377 152,-2334 -401,-929 -577,-4370 -171,-4901 302,-395 593,-753 853,-1266 482,-954 827,-2343 657,-3596 -115,-850 -689,-831 -1084,-674 -994,480 -177,864 -1012,1148 379,-2140 903,-4453 -341,-6239 -966,-1386 -2266,-2438 -4076,-3278 -2189,-1016 -3859,-618 -5816,372 -1362,688 -3337,2303 -3604,3948 374,-479 1655,-1978 3338,-2121 -1582,747 -2057,1327 -3181,2935 -444,636 -349,789 -279,1702 733,-1020 2124,-3060 4770,-3444 -1046,411 -3806,1352 -4287,6454 -71,-108 -235,-182 -363,-290 -241,-201 -140,-153 -326,-384 -1262,-218 -1215,2207 -1044,3148 187,1035 748,2214 1649,2722l-128 -854c-113,-52 -16,-4 -119,-23 -356,-64 -498,-310 -691,-638 -162,-276 -382,-754 -456,-1082 1146,2012 1638,551 847,-35 -915,-677 -436,-2720 -880,-853 -76,-2544 1049,-1328 1321,477 61,403 25,955 175,1284 176,387 138,649 301,1047 363,-1217 814,-2718 2323,-2979 -792,297 -1808,1642 -880,2431 166,-462 402,-734 664,-1060 -113,583 -473,1543 -124,2116 634,1041 222,227 59,1795 -77,746 -158,1515 275,2110 562,772 816,826 834,1619 441,252 900,577 1503,665 -219,-346 -577,-681 -827,-1013 -837,-1115 -1556,-2351 -587,-3454 822,-936 1563,-1508 2872,-1486 1625,28 1201,-34 2384,602 226,122 471,164 616,320 -1152,100 -2422,-2 -3596,58 -917,47 -2300,222 -2121,1495 365,264 610,207 1151,176 -95,-320 -214,-286 -236,-658 301,-119 1361,54 1803,51 1013,-5 1068,-190 1721,-265 130,212 75,184 74,464 537,215 721,250 1141,365 314,-619 325,-1161 -171,-1610 376,37 688,196 944,463l198 226c386,-227 981,-1135 1221,-1587 563,-1063 444,-1001 99,-2142 -723,-2393 876,-1455 574,-3164 -98,-555 -965,-1999 -1854,-2286 478,231 691,522 282,790 -219,143 -424,124 -676,93 150,-29 358,-59 489,-128 1073,-562 -2625,-1305 -3064,-740 -285,367 457,750 760,887zm25 4097c-383,-78 -1341,428 -1968,439 -826,15 -1201,-445 -1783,-462 75,1003 1017,2089 1938,2043 746,-37 1939,-1056 1813,-2020zm-7133 11402c-419,11782 17609,2219 13611,-5253 -215,-402 -428,-742 -480,-1730 -36,-704 -12,-1415 0,-2119 20,-1083 163,-763 618,-1487 525,-835 973,-1919 1083,-3148 53,-602 37,-1401 -178,-1932 -276,-682 -866,-489 -1563,-297 172,-1392 332,-2674 -72,-4032 -706,-2374 -5345,-5482 -7884,-5169 -1676,206 -3274,1097 -4511,2049 -2075,1596 -2853,3284 -2633,6008 53,669 232,1364 266,1957 -1358,-47 -1459,1944 -1344,2926 176,1505 805,2827 1789,3634 279,229 287,243 395,665 503,1951 855,1100 937,3920 47,1636 19,2492 -34,4008zm600 -5014c629,473 460,781 489,1253 79,1255 1031,4403 486,4567 -270,82 -725,-598 -810,-866 -188,-594 -535,-4262 -165,-4954zm2642 19c220,-229 558,-502 965,-558 454,-114 926,1570 2394,-260 939,76 2260,979 -206,1511 -588,127 -1238,222 -1866,146 -586,-71 -1256,-332 -1287,-839zm9688 -8754c1787,411 -924,1450 -10,2798l207 -261 468 -923c311,-611 1038,-2227 585,-2863 -830,-1164 -1301,384 -1250,1249z"/>
   <path class="fil0" d="M275 12600c-6,109 3,242 10,332 1081,355 2616,452 3754,556 2363,216 3656,540 6085,150 1553,-249 3123,-536 4666,-840 1071,-212 2519,-455 3537,-753 7,-172 15,-513 -42,-642 -369,245 -1498,558 -2751,852 -1760,413 -3766,788 -4264,884l0 0 -2 0c-2981,577 -3781,404 -6500,124l-2 0c-44,-5 -89,-9 -134,-14l-1 0 -138 -14 -1 0c-46,-5 -94,-9 -142,-14l-364 -20 -27 -1 0 0 -29 -1 0 0c-10,0 -21,-1 -32,-1l0 0 -35 -1 0 0 -37 0 -1 0 -39 -1 -1 0 -42 -1 0 0 -45 -1 0 0 -47 -1 0 0 -49 0 -1 0 -51 -1 0 0 -53 -1 -1 0 -55 -2 0 0 -57 -1 0 0 -59 -1 0 0 -60 -2 -1 0 -61 -1 -1 0 -63 -2 -1 0c-21,-1 -42,-2 -64,-2l-1 0 -65 -3 -1 0c-22,0 -44,-1 -66,-2l-1 0c-22,-1 -45,-2 -67,-3l-1 0c-23,-1 -46,-2 -69,-3l-1 0c-23,-1 -46,-2 -69,-3 -17,-1 -34,-2 -52,-3l-19 -1 -1 0c-23,-1 -47,-3 -70,-4l-2 0c-23,-1 -47,-3 -71,-4l-1 0c-24,-2 -47,-3 -71,-5 -72,-5 -145,-10 -217,-16l-4 0 -1 0c-762,-63 -1545,-193 -1888,-475l-1 -1c-22,-18 -42,-37 -60,-57zm18035 -261c-322,107 -817,179 -943,206 -1898,410 -4193,904 -6100,1161 -3194,608 -3799,378 -6917,81 -424,-40 -3120,-237 -4028,-547 63,415 166,861 217,1030 528,1762 1302,3501 1785,5289 532,1970 580,3526 178,5526 -307,1530 -182,2173 727,3397 1539,2071 3230,4633 5106,6524 2166,-2158 5984,-4593 7830,-6972 1344,-1731 2373,-3184 1978,-5464 -179,-1030 -440,-2020 -600,-3079 -277,-1826 -479,-2234 123,-3855 141,-379 528,-2153 644,-3297z"/>
   <path class="fil1" d="M4377 12952c47,5 94,10 141,14l1 0c46,5 92,10 137,14l1 1c2830,288 3529,470 6560,-106l1 -1 0 0 2 0c525,-102 2238,-438 3834,-797l0 0 31 -8c1392,-314 2688,-644 3018,-847l0 0c12,-7 22,-14 31,-21l0 0c7,-5 12,-10 18,-15 2,-2 4,-3 6,-5l0 0 -1 1 0 0 0 0 0 0 0 1 0 0 -1 1 0 0 0 0 0 0 -1 1 0 0 0 0 0 0 0 1 0 0 -1 1 0 0 0 0 0 0 0 1 0 0 0 0 -1 0 0 1 0 0 0 0 0 0 0 1 0 0 -1 0 0 0 0 1 0 0 0 0 0 0 0 1 0 0 -1 1 0 0 0 0 0 1 0 0 0 0 0 0 0 1 0 0 -1 0 0 0 0 1 0 0 0 0 0 1 0 0 0 1 0 0 -1 0 0 1 0 0 0 1 0 0 0 0 0 1 0 0 -1 1 0 0 0 0 0 1 0 0 0 0 0 1 0 1 0 0 0 0 0 1 0 0 0 0 0 0 -1 1 0 0 0 0 0 0 0 1 0 1 0 0 0 0 0 1 0 0 0 0 0 0 0 1 0 1 0 0 0 0 -1 1 0 0 0 1 0 1 0 0 0 0 0 1 0 0 0 1 0 0 0 1c1,-5 3,-10 4,-14 2,-4 3,-7 4,-11l1 -1c46,-121 139,-141 229,-67 105,79 205,274 218,559 12,133 12,286 -8,459 -67,1145 -446,3045 -799,3898 -736,1779 -178,2400 150,4221 545,3028 1202,4014 -666,6854 -1756,2671 -6561,5912 -8903,8231l-1 0 0 1c-1906,-1921 -3582,-4309 -5363,-6705 -955,-1285 -1098,-1998 -774,-3612 393,-1958 347,-3472 -175,-5401 -481,-1782 -1253,-3520 -1781,-5278 -45,-150 -215,-797 -264,-1348 -22,-165 -22,-304 -8,-420 17,-211 75,-366 199,-404 39,-21 79,-23 113,-6 101,16 82,67 92,137 3,10 5,20 7,31 21,79 97,178 398,278 44,14 90,28 138,41 501,124 1274,192 1963,232 539,26 1060,38 1445,59l0 0 0 0 0 0 1 0 0 0 0 0 0 0 0 0 0 0 0 0 0 0 0 0 0 0 1 0 0 0 0 0 0 0 0 0 0 0 0 0 0 0 0 0 0 0 1 0 0 0 0 0 0 0 0 0 0 0 0 0 0 0 0 0 0 0 0 0 1 0 0 0 0 0 0 0 0 0 0 0 0 0 0 0 0 0 0 0 1 0 0 0 0 0 0 0 0 0 0 0 0 0 0 0 0 0 0 0 1 0 0 0 0 0 0 0 0 0 0 0 0 0 0 0 0 0 1 0 0 0 0 0 0 0 0 0 0 0 0 0 0 0 0 0 0 0 1 0 0 0 0 0 0 0 0 0 0 0 0 0 0 0 0 0 0 0 0 0 1 0 0 0 0 0 0 0 0 0 0 0 0 0 0 0 0 0 1 0 0 0 0 0 0 0 0 0 0 0 0 0 0 0 0 0 0 0 1 0 0 0 0 0 0 0 0 0 0 0 0 0 0 0 0 0 0 0 0 0 1 0zm13933 -613c-322,107 -817,179 -943,206 -1898,410 -4193,904 -6100,1161 -3194,608 -3799,378 -6917,81 -424,-40 -3120,-237 -4028,-547 63,415 166,861 217,1030 528,1762 1302,3501 1785,5289 532,1970 580,3526 178,5526 -307,1530 -182,2173 727,3397 1539,2071 3230,4633 5106,6524 2166,-2158 5984,-4593 7830,-6972 1344,-1731 2373,-3184 1978,-5464 -179,-1030 -440,-2020 -600,-3079 -277,-1826 -479,-2234 123,-3855 141,-379 528,-2153 644,-3297zm-18035 261c-6,109 3,242 10,332 1081,355 2616,452 3754,556 2363,216 3656,540 6085,150 1553,-249 3123,-536 4666,-840 1071,-212 2519,-455 3537,-753 7,-172 15,-513 -42,-642 -369,245 -1498,558 -2751,852 -1760,413 -3766,788 -4264,884l0 0 -2 0c-2981,577 -3781,404 -6500,124l-2 0c-44,-5 -89,-9 -134,-14l-1 0 -138 -14 -1 0c-46,-5 -94,-9 -142,-14l-364 -20 -27 -1 0 0 -29 -1 0 0c-10,0 -21,-1 -32,-1l0 0 -35 -1 0 0 -37 0 -1 0 -39 -1 -1 0 -42 -1 0 0 -45 -1 0 0 -47 -1 0 0 -49 0 -1 0 -51 -1 0 0 -53 -1 -1 0 -55 -2 0 0 -57 -1 0 0 -59 -1 0 0 -60 -2 -1 0 -61 -1 -1 0 -63 -2 -1 0c-21,-1 -42,-2 -64,-2l-1 0 -65 -3 -1 0c-22,0 -44,-1 -66,-2l-1 0c-22,-1 -45,-2 -67,-3l-1 0c-23,-1 -46,-2 -69,-3l-1 0c-23,-1 -46,-2 -69,-3 -17,-1 -34,-2 -52,-3l-19 -1 -1 0c-23,-1 -47,-3 -70,-4l-2 0c-23,-1 -47,-3 -71,-4l-1 0c-24,-2 -47,-3 -71,-5 -72,-5 -145,-10 -217,-16l-4 0 -1 0c-762,-63 -1545,-193 -1888,-475l-1 -1c-22,-18 -42,-37 -60,-57z"/>
   <path class="fil1" d="M16909 17304c68,2484 -1242,5713 -2318,7985 -567,1200 -1846,3209 -2645,4301 -743,1015 -1455,1889 -2455,2662 1428,-1141 2548,-2811 3476,-4380 553,-935 924,-1754 1415,-2687 1198,-2274 2556,-5310 2527,-7881zm-13937 3147c32,1522 225,3425 749,4856 343,935 445,1490 936,2431 488,933 1011,1626 1743,2379 -1356,-1324 -1943,-2401 -2670,-4121 -566,-1337 -765,-4061 -758,-5545zm-2248 -6069c111,1583 687,2493 1546,3773 631,941 1397,1597 2388,2127 -1106,-539 -1730,-1087 -2527,-2021 -873,-1022 -1364,-2546 -1407,-3879zm15567 2304c93,1566 -760,2819 -1721,3974 -748,901 -2584,2122 -3720,2481l-460 120c582,-170 904,-288 1423,-581 1210,-684 1654,-1234 2607,-2159 1042,-1012 1917,-2333 1871,-3835z"/>
  </g>
 </g>
</svg>
