<svg xmlns="http://www.w3.org/2000/svg" xml:space="preserve" width="6.66528in" height="11.6435in" version="1.1" style="shape-rendering:geometricPrecision; text-rendering:geometricPrecision; image-rendering:optimizeQuality; fill-rule:evenodd; clip-rule:evenodd"
viewBox="0 0 3354 5858"
 xmlns:xlink="http://www.w3.org/1999/xlink">
 <defs>
  <style type="text/css">
   <![CDATA[
    .fil11 {fill:black}
    .fil0 {fill:white}
    .fil22 {fill:white}
   ]]>
  </style>
 </defs>
 <g id="Layer_x0020_1">
  <metadata id="CorelCorpID_0Corel-Layer"/>
  <g id="_946224432">
   <path class="fil22" d="M1540 4c474,-58 1339,522 1471,964 75,253 45,493 13,752 130,-36 240,-71 292,56 40,99 43,248 33,360 -21,229 -104,431 -202,587 -85,135 -112,76 -115,278 -3,131 -7,263 0,395 9,184 49,247 89,322 746,1394 -2617,3178 -2539,980 10,-282 15,-442 7,-747 -16,-526 -81,-368 -175,-731 -20,-79 -22,-82 -74,-125 -183,-150 -301,-397 -333,-677 -22,-184 -3,-555 250,-546 -6,-111 -39,-240 -49,-365 -41,-508 104,-823 491,-1121 231,-177 529,-343 841,-382z"/>
   <path class="fil11" d="M2309 1135c106,2 400,386 368,475 42,-88 96,-147 132,-275 34,-122 33,-256 -4,-371 -57,-177 -244,-401 -367,-457 85,103 516,626 -129,628zm-1236 677c141,1 251,-134 167,-198 14,0 29,1 44,2 -414,-167 -813,105 -604,213 33,17 53,21 92,12 -58,-10 -85,-24 -109,-70 -43,-83 534,-196 560,-115 25,79 -73,127 -150,156zm835 -5c-100,-13 -196,-61 -192,-148 1,-23 11,-41 27,-56 -7,2 -14,5 -21,7 134,-132 469,-169 798,82 16,-53 8,-104 -27,-151 6,5 12,9 17,14 59,53 56,78 92,155 69,149 188,107 134,551 -72,582 108,475 -40,875 -65,175 -147,341 -268,474 -50,55 -58,76 -152,59 -17,91 -33,176 -79,242 -52,75 -114,84 -170,141 93,-8 201,-75 285,-113 177,-81 441,-440 539,-610 20,23 5,-1 17,30 70,183 33,761 45,1008 11,-36 81,-159 104,-205 77,-157 105,-257 28,-436 -75,-173 -108,-815 -32,-914 57,-74 111,-140 159,-236 90,-178 155,-437 123,-671 -22,-158 -129,-155 -202,-126 -186,90 -33,162 -189,214 71,-399 168,-830 -64,-1163 -180,-259 -422,-455 -760,-612 -408,-189 -720,-115 -1085,70 -254,128 -622,429 -672,736 70,-89 309,-369 623,-396 -295,140 -384,248 -594,548 -82,119 -65,147 -52,318 137,-191 396,-571 890,-643 -195,77 -710,252 -800,1204 -13,-20 -43,-34 -67,-54 -45,-38 -26,-29 -61,-72 -235,-40 -227,412 -195,587 35,193 140,413 308,508l-24 -159c-21,-10 -3,-1 -22,-5 -67,-12 -93,-57 -129,-118 -30,-52 -71,-141 -85,-202 213,375 305,102 158,-7 -171,-126 -82,-507 -164,-159 -15,-475 195,-248 246,89 11,75 5,178 33,240 32,72 25,120 56,195 68,-227 152,-507 433,-556 -148,56 -337,306 -164,454 31,-87 75,-137 124,-198 -21,109 -88,288 -23,395 118,194 41,42 11,334 -15,140 -30,283 51,394 105,144 152,154 155,302 83,47 168,108 281,124 -41,-65 -108,-127 -154,-189 -157,-208 -291,-439 -110,-644 153,-175 292,-282 536,-277 303,5 224,-7 444,112 43,23 88,30 115,60 -215,18 -451,-1 -670,10 -171,9 -429,42 -396,279 68,49 114,39 215,33 -18,-60 -40,-53 -44,-123 56,-22 254,10 336,10 189,-1 199,-36 321,-50 24,40 14,35 14,87 100,40 134,47 213,68 58,-115 60,-217 -32,-300 70,7 128,36 176,86l37 42c72,-42 183,-211 227,-296 105,-198 83,-187 19,-399 -135,-447 163,-272 107,-590 -18,-104 -180,-373 -346,-427 89,43 129,98 53,147 -41,27 -79,24 -126,18 28,-6 66,-11 91,-24 200,-105 -490,-243 -572,-138 -53,68 86,140 142,165zm5 765c-72,-15 -250,79 -367,82 -154,2 -224,-84 -333,-87 14,187 190,390 362,381 139,-7 361,-197 338,-376zm-1331 2126c-78,2198 3285,414 2539,-980 -40,-75 -80,-138 -89,-322 -7,-132 -3,-264 0,-395 3,-202 30,-143 115,-278 98,-156 181,-358 202,-587 10,-112 7,-261 -33,-360 -52,-127 -162,-92 -292,-56 32,-259 62,-499 -13,-752 -132,-442 -997,-1022 -1471,-964 -312,39 -610,205 -841,382 -387,298 -532,613 -491,1121 10,125 43,254 49,365 -253,-9 -272,362 -250,546 32,280 150,527 333,677 52,43 54,46 74,125 94,363 159,205 175,731 8,305 3,465 -7,747zm112 -935c117,88 86,146 92,234 14,234 192,821 90,852 -50,15 -135,-112 -151,-162 -35,-111 -100,-795 -31,-924zm493 4c41,-43 104,-94 180,-104 85,-22 173,292 447,-49 175,14 421,183 -39,282 -109,24 -231,41 -348,27 -109,-13 -234,-62 -240,-156zm1807 -1633c333,76 -172,270 -2,522l39 -49 87 -172c58,-114 194,-416 109,-534 -155,-217 -243,71 -233,233z"/>
   <path class="fil11" d="M711 5258c-149,-26 -206,-744 -133,-919 697,371 1854,114 2505,-318 86,-57 67,79 69,151 6,272 -85,609 -231,787 -170,211 -456,253 -668,359 201,-50 382,-110 519,-172 -132,148 -289,281 -477,406 -387,258 -683,236 -1029,113 -130,-46 -287,-129 -413,-243 100,24 218,35 348,36 -225,-84 -307,-34 -490,-200zm2326 -307c217,-322 315,-1157 115,-1051 -685,365 -1832,735 -2514,300 -95,-60 -118,63 -158,196 -52,169 -21,754 149,923 39,39 73,56 118,104 64,70 143,134 237,193 219,139 502,255 799,241 320,-15 830,-389 1141,-770 34,-42 85,-94 113,-136z"/>
   <path class="fil0" d="M711 5258c-149,-26 -206,-744 -133,-919 697,371 1854,114 2505,-318 86,-57 67,79 69,151 6,272 -85,609 -231,787 -170,211 -456,253 -668,359 201,-50 382,-110 519,-172 -132,148 -289,281 -477,406 -387,258 -683,236 -1029,113 -130,-46 -287,-129 -413,-243 100,24 218,35 348,36 -225,-84 -307,-34 -490,-200z"/>
  </g>
 </g>
</svg>
