<svg xmlns="http://www.w3.org/2000/svg" xml:space="preserve" width="6.66528in" height="22.2998in" version="1.1" style="shape-rendering:geometricPrecision; text-rendering:geometricPrecision; image-rendering:optimizeQuality; fill-rule:evenodd; clip-rule:evenodd"
viewBox="0 0 12773 42734"
 xmlns:xlink="http://www.w3.org/1999/xlink">
 <defs>
  <style type="text/css">
   <![CDATA[
    .fil1 {fill:black}
    .fil2 {fill:white}
    .fil0 {fill:white}
   ]]>
  </style>
 </defs>
 <g id="Layer_x0020_1">
  <metadata id="CorelCorpID_0Corel-Layer"/>
  <g id="_946223408">
   <path class="fil0" d="M5866 16c1804,-223 5099,1986 5601,3672 287,964 173,1875 51,2864 495,-137 914,-273 1110,211 153,378 165,945 127,1373 -78,873 -396,1643 -769,2236 -324,515 -425,287 -439,1057 -9,500 -26,1005 0,1505 36,702 188,943 341,1229 2840,5309 -9968,12102 -9670,3732 38,-1077 57,-1686 24,-2848 -58,-2003 -308,-1399 -665,-2785 -77,-299 -83,-309 -281,-472 -699,-573 -1146,-1512 -1271,-2581 -82,-698 -10,-2112 955,-2079 -24,-422 -151,-915 -190,-1390 -156,-1936 397,-3135 1871,-4269 879,-676 2015,-1309 3205,-1455z"/>
   <path class="fil1" d="M8793 4324c405,6 1523,1468 1402,1808 162,-336 367,-560 503,-1047 130,-465 126,-974 -15,-1415 -215,-673 -930,-1527 -1397,-1738 325,390 1966,2385 -493,2392zm-4706 2576c537,6 956,-508 634,-754 56,2 112,4 171,7 -1578,-634 -3096,404 -2303,815 125,65 204,79 353,44 -221,-39 -324,-90 -415,-266 -164,-317 2032,-748 2130,-438 96,300 -276,482 -570,592zm3181 -16c-381,-52 -746,-233 -732,-567 3,-86 40,-155 103,-210 -26,8 -53,16 -80,25 509,-501 1786,-642 3037,314 61,-204 31,-396 -100,-578 22,19 43,37 65,56 225,201 214,294 351,590 263,566 716,405 508,2098 -272,2215 413,1808 -153,3334 -247,666 -559,1295 -1019,1804 -189,209 -222,289 -580,225 -65,347 -126,670 -299,920 -199,287 -436,320 -648,539 352,-29 767,-285 1085,-430 676,-308 1680,-1678 2053,-2323 76,88 19,-6 64,112 267,698 126,2898 170,3839 42,-136 310,-605 398,-781 295,-598 402,-979 108,-1659 -286,-660 -411,-3105 -122,-3481 215,-281 421,-535 606,-900 343,-678 587,-1664 467,-2555 -82,-603 -490,-590 -771,-478 -705,340 -125,614 -718,815 269,-1520 641,-3163 -243,-4432 -686,-985 -1610,-1732 -2896,-2329 -1554,-722 -2741,-439 -4131,264 -968,489 -2371,1636 -2561,2805 266,-340 1176,-1405 2372,-1507 -1124,531 -1461,943 -2260,2085 -315,452 -248,561 -198,1210 521,-725 1509,-2174 3388,-2447 -743,292 -2704,960 -3045,4585 -51,-77 -167,-129 -258,-206 -171,-143 -99,-109 -232,-273 -896,-155 -863,1567 -741,2236 133,735 531,1573 1171,1934l-90 -607c-81,-36 -12,-3 -85,-16 -253,-46 -354,-220 -491,-453 -115,-196 -271,-536 -324,-769 814,1429 1164,392 602,-25 -651,-481 -310,-1932 -626,-606 -53,-1807 745,-943 939,339 44,287 18,678 124,913 125,274 98,460 214,743 258,-864 578,-1931 1650,-2116 -563,211 -1284,1166 -625,1727 118,-328 286,-522 472,-753 -80,414 -336,1096 -88,1503 450,740 158,161 42,1276 -55,529 -113,1076 195,1498 399,548 580,587 593,1151 313,178 639,409 1067,472 -155,-246 -410,-484 -587,-720 -595,-792 -1106,-1670 -417,-2454 584,-664 1110,-1071 2040,-1055 1155,19 853,-24 1694,427 161,87 335,117 438,228 -819,71 -1721,-2 -2555,41 -652,33 -1634,157 -1507,1062 259,187 434,147 818,125 -68,-227 -153,-203 -168,-467 214,-85 967,38 1281,36 719,-3 758,-135 1223,-189 92,151 53,131 52,330 382,153 512,178 811,260 223,-440 230,-825 -122,-1145 268,27 489,140 671,330l140 160c275,-161 698,-806 868,-1127 400,-755 316,-712 71,-1522 -514,-1700 622,-1034 407,-2248 -69,-394 -685,-1420 -1317,-1624 340,165 491,371 200,561 -155,102 -301,89 -480,67 107,-21 255,-43 348,-91 762,-400 -1865,-928 -2177,-526 -203,261 324,533 540,630zm18 2911c-273,-56 -953,304 -1399,312 -587,10 -853,-317 -1266,-329 53,713 722,1484 1376,1452 530,-27 1378,-750 1289,-1435zm-5068 8100c-298,8370 12510,1577 9670,-3732 -153,-286 -305,-527 -341,-1229 -26,-500 -9,-1005 0,-1505 14,-770 115,-542 439,-1057 373,-593 691,-1363 769,-2236 38,-428 26,-995 -127,-1373 -196,-484 -615,-348 -1110,-211 122,-989 236,-1900 -51,-2864 -502,-1686 -3797,-3895 -5601,-3672 -1190,146 -2326,779 -3205,1455 -1474,1134 -2027,2333 -1871,4269 39,475 166,968 190,1390 -965,-33 -1037,1381 -955,2079 125,1069 572,2008 1271,2581 198,163 204,173 281,472 357,1386 607,782 665,2785 33,1162 14,1771 -24,2848zm426 -3563c447,337 327,555 348,891 56,891 732,3128 345,3245 -192,58 -515,-425 -576,-616 -133,-422 -380,-3027 -117,-3520zm1877 14c156,-163 397,-356 685,-396 323,-81 659,1115 1702,-185 666,54 1605,695 -147,1074 -417,90 -880,157 -1326,103 -416,-50 -892,-236 -914,-596zm6883 -6219c1269,292 -657,1030 -8,1988l147 -185 333 -656c221,-434 738,-1583 416,-2034 -590,-827 -925,273 -888,887z"/>
   <g>
    <path class="fil2" d="M5130 21214c424,1784 379,3494 782,5259 363,1595 650,3176 943,4770 323,1763 617,3577 1017,5338 -347,293 -209,177 -512,431 -409,-266 -221,-149 -699,-435 -1196,-6583 -1231,-6749 -1779,-9935 -314,-1829 -175,-3609 -524,-5449l772 21z"/>
    <path class="fil1" d="M5169 21191c-66,0 -860,-34 -860,-30 9,163 111,514 135,702 203,1599 123,3171 381,4778l818 4984c0,0 665,4832 807,5018 28,38 831,580 953,580 133,0 369,-290 371,-292 412,-374 337,-203 215,-706 -459,-1893 -805,-3844 -1180,-5740 -265,-1344 -529,-2668 -849,-4012 -419,-1763 -352,-3500 -791,-5282zm-39 23c424,1784 379,3494 782,5259 363,1595 650,3176 943,4770 323,1763 617,3577 1017,5338 -347,293 -209,177 -512,431 -409,-266 -221,-149 -699,-435 -1196,-6583 -1231,-6749 -1779,-9935 -314,-1829 -175,-3609 -524,-5449l772 21z"/>
    <path class="fil2" d="M4105 21250c-59,2926 225,5771 257,8693 42,3926 -709,7735 -785,11634 827,591 476,341 1216,865 734,-555 385,-301 1207,-873l134 -4986 -22 -5035c61,-3454 -586,-6806 -688,-10264l-1319 -34z"/>
    <path class="fil1" d="M3955 21144c126,0 1619,40 1620,47 50,293 44,945 68,1283 211,3033 733,6029 720,9074 0,31 -58,10116 -58,10116 -29,50 -1326,1070 -1508,1070 -148,0 -1485,-1049 -1497,-1097 -78,-312 320,-4124 384,-4745 292,-2838 497,-5388 447,-8243 -43,-2492 -248,-5011 -176,-7505zm150 106c-59,2926 225,5771 257,8693 42,3926 -709,7735 -785,11634 827,591 476,341 1216,865 734,-555 385,-301 1207,-873l134 -4986 -22 -5035c61,-3454 -586,-6806 -688,-10264l-1319 -34z"/>
    <path class="fil2" d="M12330 15676c-94,654 -797,1332 -1119,1741 -1352,1719 -4394,3484 -6722,3155 -1118,-158 -1748,-706 -2207,-1580 -14,245 -2,484 81,733 276,825 1423,1440 2275,1545 1884,230 4023,-830 5419,-1965 1213,-986 2254,-2104 2328,-3620 23,-462 -7,-350 -55,-9z"/>
    <path class="fil1" d="M12586 15589c-129,1504 -984,2607 -2143,3633 -1445,1278 -3803,2476 -5829,2228 -929,-114 -2135,-776 -2434,-1671 -53,-160 -205,-1201 29,-1226 142,-15 235,364 243,379 1602,3152 6528,656 8247,-1200 444,-479 1412,-1504 1469,-2276 12,-167 4,-336 80,-340 124,-6 368,135 338,473zm-256 87c-94,654 -797,1332 -1119,1741 -1352,1719 -4394,3484 -6722,3155 -1118,-158 -1748,-706 -2207,-1580 -14,245 -2,484 81,733 276,825 1423,1440 2275,1545 1884,230 4023,-830 5419,-1965 1213,-986 2254,-2104 2328,-3620 23,-462 -7,-350 -55,-9z"/>
    <path class="fil2" d="M5456 20235c1,-15 9,-33 22,-53 -17,13 -25,34 -22,53z"/>
    <path class="fil2" d="M5502 20281c15,7 28,4 43,-4 -17,4 -31,5 -43,4z"/>
    <path class="fil2" d="M4793 21763l0 0 2 0 0 -1 1 0 0 0 1 0 1 0 1 0 1 0 1 -1 1 0 0 0 1 0 1 0 1 0 1 0 1 0 1 0 1 -1 1 0 1 0 1 0 1 0 0 0 1 0 2 0 0 0 0 0 1 0 1 0 0 0 2 0 0 0 1 0 0 0 2 0 1 0 0 0 1 1 1 0 1 0 1 0 0 0 2 0 0 0 2 0 0 0 2 0 0 1 1 0 0 0 2 0 0 0 2 0 0 0 1 1 1 0 0 0 1 0 1 0 1 0 1 1 0 0 2 0 0 0 1 1 1 0 0 0c1,0 2,1 3,1l0 0 2 1 0 0 0 0c1,0 2,1 3,1l0 0 2 1c-16,-11 -37,-15 -66,-6l0 0z"/>
    <path class="fil2" d="M5839 21419c-26,-178 -231,-1122 -404,-1160 -201,-44 -793,-85 -1060,-49 -153,21 -122,69 -214,203 -156,226 -434,611 -330,861 566,1365 2085,-10 2008,145z"/>
    <path class="fil1" d="M3716 21293c-134,-316 241,-765 379,-954 98,-136 13,-192 248,-241 341,-70 1011,23 1142,54 241,57 478,1248 445,1334 -28,71 -1593,1282 -2214,-193zm2123 126c-26,-178 -231,-1122 -404,-1160 -201,-44 -793,-85 -1060,-49 -153,21 -122,69 -214,203 -156,226 -434,611 -330,861 566,1365 2085,-10 2008,145z"/>
   </g>
  </g>
 </g>
</svg>
