<svg xmlns="http://www.w3.org/2000/svg" xml:space="preserve" width="5.72986in" height="13.3156in" version="1.1" style="shape-rendering:geometricPrecision; text-rendering:geometricPrecision; image-rendering:optimizeQuality; fill-rule:evenodd; clip-rule:evenodd"
viewBox="0 0 539 1253"
 xmlns:xlink="http://www.w3.org/1999/xlink">
 <defs>
  <style type="text/css">
   <![CDATA[
    .str0 {stroke:black;stroke-width:4.67781}
    .fil1 {fill:black}
    .fil0 {fill:white}
    .fil2 {fill:black;fill-rule:nonzero}
    .fil3 {fill:#BDBF9D;fill-rule:nonzero}
   ]]>
  </style>
 </defs>
 <g id="Layer_x0020_1">
  <metadata id="CorelCorpID_0Corel-Layer"/>
  <path class="fil0" d="M525 241c4,41 6,83 7,124 2,47 3,94 4,141 1,50 2,100 3,150 0,57 0,114 -3,171 -2,57 -6,114 -11,171 -3,43 -17,87 -21,131 -3,27 -6,55 -9,82 2,9 11,17 7,24 -2,3 -5,7 -9,8 -6,3 -12,4 -19,4 -5,0 -10,0 -15,1 -3,1 -5,2 -8,3 -3,1 -6,1 -10,0 -1,0 -3,-1 -4,-2 -2,0 -4,-1 -5,-1 -2,-1 -4,0 -6,1 -3,1 -7,1 -10,1 -9,-1 -17,-1 -26,-1 -4,0 -8,0 -13,-1 -4,-1 -8,-2 -12,-2 -13,0 -30,3 -41,-6 -5,-4 -8,-9 -8,-15 0,0 0,0 0,-1 -1,-2 -2,-4 -2,-6 0,-2 10,-5 10,-8 0,-1 0,-3 0,-5 0,0 -1,-1 -1,-1 -2,-4 -3,-8 -3,-11 -2,-6 -2,-11 -2,-18 0,-19 0,-38 0,-57 0,-33 -10,-66 -10,-99 0,-33 0,-66 0,-99 0,-12 -1,-24 -1,-36 0,-7 0,-14 -1,-21 -6,-71 -12,-141 -18,-211 -5,-71 -11,-141 -16,-212 -1,0 -1,0 -1,0 -3,59 -7,117 -10,176 -3,59 -7,117 -10,176 -5,78 -9,155 -14,232 -2,27 -14,54 -15,82 -1,8 -2,17 -2,25 -1,5 -1,10 -1,14 -3,22 -7,44 -12,65 0,0 -1,0 -1,1 0,0 0,0 0,0 0,2 1,5 1,6 1,4 11,8 9,11 0,2 -1,5 -2,7 -2,4 -5,7 -9,9 -5,2 -11,2 -17,3 -1,0 -3,0 -4,1 -2,1 -5,2 -7,3 -2,1 -5,2 -7,2 -6,1 -11,-1 -16,-2 -3,-1 -5,-2 -7,-2 -4,0 -8,0 -12,0 -4,0 -9,0 -14,0 -3,0 -7,0 -10,1 -3,0 -7,1 -10,0 -6,0 -11,-2 -17,-3 -4,-1 -8,-1 -12,-1 -5,1 -9,-1 -15,-2 -1,-1 -3,-1 -4,-1 -4,0 -7,1 -11,2 -4,0 -8,-2 -11,-4 -3,-2 -5,-5 -7,-7 -6,-11 7,-25 8,-37 0,-3 -10,-6 -10,-9 -1,-5 -1,-11 -1,-16 0,-11 9,-21 9,-32 -2,-60 -13,-119 -14,-179 0,-11 0,-21 0,-32l-1 -10c0,-2 0,-4 0,-5 -4,-44 -7,-88 -10,-132 -3,-55 -5,-110 -5,-164 0,-55 0,-110 1,-165 0,-49 0,-98 2,-146 2,-48 6,-94 14,-141 3,-17 6,-35 11,-52 3,-11 7,-21 11,-31 3,-5 7,-13 12,-17 1,-13 3,-26 5,-39 1,-5 2,-9 3,-14 0,-1 1,-3 1,-4 0,-2 1,-5 2,-7 0,0 0,-1 0,-2 19,2 38,4 57,6 13,1 27,2 41,3 8,1 15,1 23,1 10,0 20,0 29,0l39 -1c13,0 21,-1 33,0 7,0 14,1 21,1 11,0 23,0 34,0 11,0 22,0 33,-1 13,-1 27,-2 41,-3 19,-2 37,-4 56,-6 1,2 1,4 1,6 2,-7 5,8 5,19 1,1 1,1 1,2 2,13 3,26 5,39 4,4 9,11 11,16 10,19 17,42 21,64 6,31 9,64 12,95z"/>
  <path class="fil1" d="M206 1211c0,0 0,0 0,0 0,2 1,5 1,6 1,4 11,8 9,11 0,2 -1,5 -2,7 -2,4 -5,7 -9,9 -5,2 -11,2 -17,3 -1,0 -3,0 -4,1 -2,1 -5,2 -7,3 -2,1 -5,2 -7,2 -6,1 -11,-1 -16,-2 -3,-1 -5,-2 -7,-2 -4,0 -8,0 -12,0 -4,0 -9,0 -14,0 -3,0 -7,0 -10,1 -3,0 -7,1 -10,0 -6,0 -11,-2 -17,-3 -4,-1 -8,-1 -12,-1 -5,1 -9,-1 -15,-2 -1,-1 -3,-1 -4,-1 -4,0 -7,1 -11,2 -4,0 -8,-2 -11,-4 -3,-2 -5,-5 -7,-7 -6,-11 7,-25 8,-37 0,-3 -10,-6 -10,-9 -1,-5 -1,-11 -1,-16 0,-11 9,-21 9,-32 -2,-60 -13,-119 -14,-179 0,-11 0,-21 0,-32 0,-3 0,-7 -1,-10 0,-2 0,-4 0,-5 -4,-44 -7,-88 -10,-132 -3,-55 -5,-110 -5,-164 0,-55 0,-110 1,-165 0,-49 0,-98 2,-146 2,-48 6,-94 14,-141 3,-17 6,-35 11,-52 3,-11 7,-21 11,-31 3,-5 7,-13 12,-17 1,-13 3,-26 5,-39 2,-9 4,-18 6,-27 19,2 38,4 57,6 13,1 27,2 41,3 8,1 15,1 23,1 10,0 20,0 29,0 13,0 26,0 39,-1 13,0 21,-1 33,0 7,0 14,1 21,1 11,0 23,0 34,0 11,0 22,0 33,-1 13,-1 27,-2 41,-3 19,-2 37,-4 56,-6 2,9 5,18 7,27 2,13 3,26 5,39 4,4 9,11 11,16 10,19 17,42 21,64 6,31 9,64 12,95 4,41 6,83 7,124 2,47 3,94 4,141 1,50 2,100 3,150 0,57 0,114 -3,171 -2,57 -6,114 -11,171 -3,43 -17,87 -21,131 -3,27 -6,55 -9,82 2,9 11,17 7,24 -2,3 -5,7 -9,8 -6,3 -12,4 -19,4 -5,0 -10,0 -15,1 -3,1 -5,2 -8,3 -3,1 -6,1 -10,0 -1,0 -3,-1 -4,-2 -2,0 -4,-1 -5,-1 -2,-1 -4,0 -6,1 -3,1 -7,1 -10,1 -9,-1 -17,-1 -26,-1 -4,0 -8,0 -13,-1 -4,-1 -8,-2 -12,-2 -13,0 -30,3 -41,-6 -5,-4 -8,-9 -8,-15 0,0 0,0 0,-1 -1,-2 -2,-4 -2,-6 0,-2 10,-5 10,-8 0,-1 0,-3 0,-5 0,0 -1,-1 -1,-1 -2,-4 -3,-8 -3,-11 -2,-6 -2,-11 -2,-18 0,-19 0,-38 0,-57 0,-33 -10,-66 -10,-99 0,-33 0,-66 0,-99 0,-12 -1,-24 -1,-36 0,-7 0,-14 -1,-21 -6,-71 -12,-141 -18,-211 -5,-71 -11,-141 -16,-212 -1,0 -1,0 -1,0 -3,59 -7,117 -10,176 -3,59 -7,117 -10,176 -5,78 -9,155 -14,232 -2,27 -14,54 -15,82 -1,8 -2,17 -2,25 -1,5 -1,10 -1,14 -3,22 -7,44 -12,65 0,0 -1,0 -1,1zm125 -793c0,1 0,1 0,1 -1,0 -3,0 -5,-1 -5,0 -10,0 -15,1 -10,1 -21,4 -30,8 0,1 1,1 1,2 6,72 12,145 18,217 7,73 13,146 20,218 0,7 0,15 0,22 1,12 1,25 1,37 0,33 1,67 1,100 0,33 9,67 9,100 0,19 0,39 0,58 0,4 0,7 1,10 0,0 0,1 0,1 2,3 3,6 3,10 2,3 2,6 2,10 0,3 -10,7 -10,10 1,1 2,2 2,3 7,5 24,3 33,3 5,0 9,1 14,2 3,0 7,1 10,1 9,0 17,0 26,1 2,0 4,-1 6,-1 4,-1 8,-2 12,-1 2,0 4,1 6,2 1,1 3,1 4,1 2,0 4,-1 5,-1 2,-1 4,-1 6,-2 5,-1 11,-1 16,-1 5,-1 10,-1 14,-3 2,-1 3,-3 4,-4 3,-4 -8,-11 -9,-16 0,0 0,-1 0,-1 3,-28 5,-55 8,-83 4,-43 18,-86 22,-129 4,-56 8,-112 10,-168 2,-56 3,-112 3,-169 0,-49 -1,-98 -3,-148 0,-46 -1,-92 -3,-139 -1,-40 -3,-80 -7,-121 -1,-17 -3,-34 -5,-50 -1,-15 -3,-29 -6,-43 -4,-19 -9,-41 -19,-58 -2,-5 -6,-12 -10,-16 0,0 -1,-1 -1,-1 -2,-14 -4,-28 -6,-42 -1,-6 -3,-11 -4,-17 -15,2 -30,4 -46,5 -13,1 -27,3 -40,4 -11,1 -21,1 -32,1 -11,0 -22,-1 -34,-1 -15,0 -36,0 -51,0 -13,0 -25,0 -38,0 -9,1 -19,1 -28,1 -8,-1 -16,-1 -23,-1 -14,-1 -27,-3 -41,-4 -15,-1 -30,-3 -46,-5 -1,6 -2,11 -4,17 -1,14 -3,28 -5,42 -1,1 -1,1 -2,2 -1,0 -2,2 -3,3 -3,4 -5,9 -7,13 -4,9 -7,19 -10,29 -4,16 -8,32 -10,48 -8,46 -12,91 -13,137 -2,48 -2,96 -2,144 -1,54 -1,108 0,162 0,54 2,108 5,162 3,43 6,86 10,130 0,2 0,4 0,6 0,3 0,7 0,10 1,10 1,21 1,31 1,59 12,118 13,177 1,11 -9,21 -9,32 0,3 1,6 1,10 0,1 0,3 0,5 1,7 9,15 9,22 -1,7 -11,17 -5,22 1,1 2,2 3,2 1,-1 3,-1 4,-1 6,-2 10,-2 15,0 3,1 7,3 10,2 5,0 10,0 15,1 5,1 10,3 15,3 5,1 11,-1 16,-1 2,0 3,0 4,0 8,1 16,-1 25,0 3,0 6,1 8,2 4,1 7,2 11,2 2,0 3,-1 4,-1 3,-2 5,-3 8,-4 2,0 4,-1 6,-1 4,-1 10,-1 13,-2 0,-1 1,-1 2,-1 -1,-4 -12,-8 -11,-12 1,-2 1,-4 2,-5 1,-4 2,-9 3,-14 3,-15 5,-30 7,-45 1,-5 1,-9 2,-14 0,-8 1,-17 1,-26 2,-27 14,-55 16,-82 5,-79 10,-157 15,-235 3,-60 7,-119 11,-179 3,-59 7,-118 10,-178 -15,7 -22,0 -37,6 -1,0 -1,0 -1,0 -1,0 -1,1 -2,1 0,0 -1,0 -1,0 0,0 -1,0 -2,1 -1,0 -2,0 -3,1 -1,0 -1,0 -2,0 -1,0 -2,0 -3,0 0,0 0,0 -1,0 0,0 0,0 0,0 2,0 4,-1 5,-2 9,-4 17,-8 25,-13 10,-5 21,-10 32,-14 0,-2 0,-3 1,-5 0,-1 0,-1 0,-2 0,-4 0,-8 -1,-12 0,-4 0,-8 0,-13 0,-9 0,-18 0,-27 1,-7 1,-14 1,-22 1,-20 1,-40 2,-60 8,7 2,14 9,61 -1,14 -1,29 -1,44 0,4 0,8 1,12 0,5 1,10 1,15 0,1 0,3 -1,4 16,-6 24,-4 39,1 0,0 0,0 0,0 1,0 1,0 1,0 0,1 1,1 1,1 1,1 2,2 4,2 0,0 1,1 1,1 1,0 1,1 2,1 0,0 1,1 1,1z"/>
  <path class="fil1" d="M101 39c-1,3 -2,5 -3,21l2 1c0,2 0,4 0,6 1,-2 1,-4 1,-6 3,0 6,0 9,1 -2,-21 -3,-24 -3,-27 0,-4 0,-6 0,-9l-2 0c-1,-12 -3,-21 -5,-6 1,8 1,17 1,19zm-4 21c-2,-20 -3,-24 -3,-27 0,-3 0,-6 0,-8 0,0 -1,0 -1,0 -1,-12 -4,-22 -6,-7 1,8 2,17 1,20 -1,2 -2,4 -3,21 0,0 1,0 2,0 0,2 0,4 0,6 1,-2 1,-4 1,-6 3,1 6,1 9,1zm-2 -44c1,-14 2,-12 4,-5 1,-2 2,-4 3,-4 3,0 4,4 5,8 0,1 0,2 1,3 1,-15 2,-13 4,-6 1,-2 2,-3 3,-3 3,0 4,4 5,7 0,1 0,3 0,4 1,-15 3,-13 5,-7 0,-1 1,-3 3,-3 3,0 4,4 4,8 1,1 1,2 1,4 1,-16 3,-15 4,-8 1,-1 2,-2 4,-2 2,0 3,4 4,7 1,1 1,3 1,5 1,-17 3,-16 4,-9 1,-1 2,-2 3,-2 3,0 4,4 5,7 0,2 1,3 1,5 1,-16 3,-15 4,-9 1,-1 2,-2 3,-2 3,0 4,4 5,7 0,2 0,3 1,5l0 0c1,-17 3,-16 4,-9 1,-1 2,-2 3,-2 2,0 4,3 4,7 1,1 1,3 1,5l1 0c1,-17 2,-16 4,-10 1,-1 1,-2 3,-1 2,0 3,3 4,6 1,2 1,4 1,5l1 0c1,-16 2,-16 4,-9 0,-1 1,-2 2,-2 3,0 4,4 5,7 0,1 1,3 1,5 0,0 0,0 1,0 1,-16 2,-16 4,-10 0,-1 1,-1 2,-1 3,0 4,3 5,6 0,2 0,3 1,5l0 0c1,-16 3,-15 4,-10 1,0 2,-1 3,-1 2,0 4,4 4,7 1,1 1,3 1,4 1,0 1,0 1,0 1,-15 3,-15 4,-9 1,-1 2,-2 3,-2 2,1 3,4 4,7 1,1 1,3 1,4 1,0 1,0 1,0 1,-15 3,-15 4,-9 1,-1 2,-1 2,-1 3,0 4,3 5,6 0,1 1,3 1,4l1 0c1,-14 3,-15 4,-9 1,-1 1,-1 2,-1 3,0 5,5 6,10 0,0 1,0 1,0 1,-14 3,-14 4,-9 0,-1 1,-1 2,-1 3,0 5,5 6,10 0,0 1,0 1,0 1,-14 2,-14 4,-10 0,0 1,0 2,0 3,0 4,5 5,10 1,0 1,0 2,0 1,-14 2,-14 4,-10 0,0 1,-1 1,-1 4,1 5,6 6,11 1,-1 1,-1 2,-1 1,-13 2,-14 3,-9 1,-1 2,-1 2,-1 3,0 5,6 6,10l2 0c1,-12 2,-14 3,-10 1,0 1,-1 2,0 3,0 5,5 6,9l2 0c1,-12 2,-13 3,-10 1,0 1,0 2,0 3,0 4,5 5,10 1,0 2,0 3,0 1,-12 2,-13 3,-10 0,-1 1,-1 2,-1 3,0 4,5 5,10 1,0 2,0 3,0 1,-11 2,-13 3,-10 0,-1 1,-1 1,-1 3,1 5,5 6,10 1,0 2,0 3,-1 0,-1 0,-3 0,-5 1,-5 2,-6 3,-4 0,-1 1,-1 1,-1 3,1 5,5 6,9 0,0 1,0 2,0 0,-2 1,-5 1,-7 1,-3 2,-3 2,-2 1,-1 1,-1 2,-1 3,0 4,5 5,9 1,0 2,0 3,0 0,-3 1,-6 2,-8 0,-2 1,-2 1,-2 0,0 1,0 2,0 3,0 4,4 5,8 1,0 2,0 3,0 0,-5 1,-10 5,-10 2,1 4,5 5,9 1,-1 2,-1 3,-1 0,-4 1,-10 4,-9 3,0 4,4 5,8 1,-1 3,-1 4,-1 0,-4 1,-10 4,-9 3,0 4,4 5,7 1,0 2,0 3,0 1,-5 2,-10 5,-9 4,0 5,7 6,11 1,4 1,9 2,14 0,1 0,2 1,3 1,-61 8,-4 6,5 0,3 -2,5 -3,24 -1,-11 -2,-18 -3,-21 0,1 0,1 0,2 0,1 0,2 0,4 -1,2 -1,4 -1,7 0,4 0,7 1,11 0,4 0,8 1,12 -1,0 -1,0 -1,0 -1,-1 -2,0 -3,2 -1,-5 -3,-10 -4,-15 -1,-2 -1,-4 -2,-6 0,0 0,0 -1,0 0,2 0,4 0,6 0,-2 0,-4 -1,-5 -1,0 -2,0 -3,0 0,3 1,6 1,8 0,4 0,8 1,12 0,0 0,0 -1,0 -1,-1 -2,1 -3,2 -1,-5 -2,-10 -4,-15 0,-2 -1,-3 -1,-5 -1,0 -1,0 -2,0 0,1 0,3 0,4 0,-1 0,-3 -1,-4 0,0 -1,0 -2,1 0,2 0,5 0,7 0,4 1,8 1,11 0,0 0,0 0,0 -2,0 -3,1 -3,3 -2,-5 -3,-10 -4,-15 -1,-2 -1,-3 -2,-5 0,0 -1,0 -2,0 0,1 0,2 0,4 0,-2 0,-3 0,-4 -1,0 -2,1 -3,1 0,2 0,4 0,7 1,4 1,7 1,11 0,0 0,0 0,0 -2,0 -3,1 -3,3 -2,-5 -3,-10 -4,-15 -1,-2 -1,-3 -1,-5 -1,0 -2,0 -3,0 0,1 0,2 0,3 0,-1 0,-2 0,-3 -1,0 -2,0 -3,1 0,2 0,4 0,6 1,4 1,8 1,12 0,0 0,0 0,0 -2,-1 -3,1 -3,2 -1,-5 -3,-10 -4,-15 0,-1 -1,-3 -1,-4 -1,0 -2,0 -3,0 0,1 0,1 0,2 0,-1 0,-1 0,-2 -1,0 -2,0 -3,0 0,2 0,4 1,7 0,3 0,7 0,11 0,0 0,0 0,0 -2,0 -3,1 -3,3 -1,-5 -3,-10 -4,-15 0,-2 -1,-3 -1,-5 -1,0 -2,0 -3,1 0,0 0,1 0,1l0 -1c-1,0 -2,0 -3,0 1,2 1,4 1,6 0,4 0,7 0,11 0,0 0,0 0,0 -2,0 -3,1 -3,3 -1,-5 -3,-10 -4,-15 0,-1 0,-3 -1,-4 -1,0 -2,0 -3,0l0 1 0 -1c-1,0 -2,0 -2,0 0,2 0,4 0,6 0,4 0,7 0,11 0,0 0,0 0,0 -2,0 -3,1 -3,3 -1,-5 -3,-10 -4,-15 0,-1 0,-3 -1,-4 -1,0 -2,0 -3,0l0 1 0 -1c-1,0 -1,1 -2,1 0,1 0,3 0,5 0,3 0,7 0,11 0,0 0,0 0,0 -2,0 -3,1 -3,3 -2,-5 -3,-10 -4,-15 0,-1 0,-3 -1,-4 -2,0 -3,1 -5,1 0,1 0,3 0,4 0,4 0,8 0,12 0,0 0,0 0,0 -2,0 -3,1 -3,2 -2,-5 -3,-9 -4,-14 0,-1 0,-3 -1,-4 -2,0 -4,1 -5,1 0,1 0,2 0,4 0,4 0,7 0,11 0,0 0,0 -1,0 -1,0 -2,1 -3,3 -1,-5 -2,-10 -3,-15 0,-1 0,-2 -1,-3 -2,0 -4,0 -6,0 0,2 0,3 0,4 0,4 1,8 1,12 0,0 -1,0 -1,0 -1,0 -2,1 -3,2 -1,-5 -2,-9 -3,-14 0,-1 0,-2 -1,-3 -2,0 -4,0 -6,0 0,1 0,3 0,4 0,3 0,7 0,11 0,0 0,0 0,0 -2,0 -3,1 -3,3 -1,-5 -2,-10 -3,-15 0,-1 0,-2 -1,-3 -2,1 -4,1 -6,1 0,1 0,2 0,3 0,4 0,8 0,11 0,0 0,0 0,0 -2,0 -3,1 -4,3 -1,-5 -2,-10 -2,-14 0,-1 -1,-2 -1,-3 -2,0 -4,0 -6,0 0,1 0,2 0,3 0,4 0,8 0,11 0,0 -1,0 -1,0 -1,0 -2,2 -3,4 -1,-5 -2,-10 -3,-15 0,-1 0,-2 0,-3 -2,0 -4,0 -6,0 0,1 0,2 0,3 0,4 0,8 -1,11 0,0 0,0 0,0 -2,0 -3,1 -3,3 -1,-5 -2,-10 -3,-14 0,-1 0,-2 0,-3 -2,0 -4,0 -6,0 0,1 0,2 0,3 -1,4 -1,8 -1,11 0,0 0,0 0,0 -2,0 -3,2 -4,3 -1,-5 -1,-10 -2,-14 0,-1 0,-2 0,-3 -2,0 -4,0 -6,0 0,1 -1,2 -1,3 0,4 0,7 0,11 0,0 -1,0 -1,0 -1,0 -2,1 -3,3 -1,-5 -1,-10 -2,-15 0,0 0,-1 0,-2 -2,0 -5,0 -7,0 0,1 0,2 0,2 0,4 0,8 -1,12 0,0 0,0 0,0 -2,0 -3,1 -3,2 -1,-4 -2,-9 -2,-14 0,-1 0,-1 -1,-2 -2,0 -4,0 -6,0 0,0 0,1 0,2 0,4 -1,8 -1,11 0,0 0,0 0,0 -2,0 -3,1 -4,3 0,-5 -1,-9 -1,-14 -1,-1 -1,-2 -1,-3 -2,0 -4,0 -6,0 0,1 0,2 0,2 -1,4 -1,8 -1,12 0,0 -1,0 -1,0 -1,0 -3,1 -3,3 -1,-5 -1,-10 -2,-15 0,-1 0,-1 0,-2 -2,0 -4,0 -6,-1 0,1 0,2 0,3 -1,4 -1,7 -2,11 0,0 0,0 0,0 -2,0 -3,2 -4,3 0,-5 0,-10 -1,-14 0,-1 0,-2 0,-3 -2,0 -4,0 -6,0 0,1 0,1 -1,2 0,4 0,8 -1,11 0,0 0,0 0,0 -2,0 -3,2 -4,4 0,-5 -1,-10 -1,-15 0,-1 0,-2 0,-3 -2,0 -4,0 -6,0 0,1 -1,1 -1,2 0,4 -1,8 -1,12 0,0 0,0 -1,0 -1,0 -2,1 -3,3 -1,-5 -1,-10 -1,-15 0,-1 0,-2 0,-3 -2,0 -4,0 -6,0 0,1 -1,1 -1,2 0,4 -1,8 -1,12 0,0 0,0 -1,0 -1,0 -2,1 -3,2 0,-4 -1,-9 -1,-14 0,-1 0,-2 0,-2 -2,-1 -4,-1 -6,-1 -1,1 -1,1 -1,2 0,4 -1,8 -2,11 0,0 0,0 0,0 -2,0 -3,2 -4,4 0,-5 0,-10 0,-15 0,-1 0,-2 0,-3 -2,0 -4,0 -7,0 0,0 0,1 0,2 0,3 -1,7 -2,11 0,0 0,0 0,0 -2,0 -3,1 -4,3 0,-5 0,-10 0,-14 0,-1 0,-2 0,-3 -2,0 -4,0 -7,-1 0,1 0,2 0,2 0,4 -1,8 -2,12 0,0 0,0 0,0 -2,0 -3,1 -4,3 0,-5 0,-10 0,-15 0,-1 0,-2 0,-2 -2,-1 -4,-1 -6,-1 -1,0 -1,1 -1,1 0,4 -1,8 -2,12 0,0 0,0 0,0 -2,0 -3,1 -4,3 0,-5 0,-10 0,-14 0,-1 0,-2 0,-3 -2,0 -4,0 -6,0 0,0 -1,0 -1,1 0,4 -1,7 -2,11 0,0 0,0 0,0 -2,0 -3,2 -4,4 0,-5 0,-10 0,-15 0,-1 0,-2 0,-2 -2,0 -4,-1 -6,-1 0,0 0,1 0,1 -1,4 -2,8 -3,11 0,0 0,0 0,0 -2,1 -3,2 -4,4 0,-5 0,-10 0,-15 0,-1 0,-1 0,-1 -3,0 -6,-1 -9,-1 -1,0 -1,0 -2,0 0,-1 0,-2 -1,-3 0,0 0,-1 0,-2 0,0 -1,0 -1,-1 0,0 0,-1 0,-1 0,-5 0,-9 0,-14 0,-4 0,-9 0,-13 1,-6 1,-13 2,-19 0,-3 1,-8 4,-8 3,0 4,4 5,7 0,1 0,1 0,2 1,-11 3,-9 4,-2 1,-2 2,-4 4,-4 3,0 4,4 5,8 0,0 0,1 0,1 1,-12 3,-11 4,-4 1,-2 2,-3 4,-4 2,0 4,5 4,8 0,1 1,2 1,3zm224 7c1,-4 2,2 4,9 1,0 2,0 4,0 -1,3 -1,7 -1,11 0,4 1,7 3,26 -2,0 -4,0 -6,0 0,2 0,5 0,7 0,-2 -1,-5 -1,-7l-5 0c1,-16 3,-18 3,-20 1,-4 0,-17 -1,-26zm12 -1c2,-3 3,2 4,9 2,0 3,0 5,0 -1,4 -1,7 -1,12 0,3 1,6 3,25 -2,0 -4,0 -6,0 0,2 0,5 0,8 0,-3 -1,-6 -1,-8 -2,0 -4,0 -5,0 1,-15 3,-17 3,-20 1,-4 0,-17 -2,-26zm13 -1c1,-2 3,3 4,10 2,0 3,-1 4,-1 0,4 0,8 0,13 0,3 1,6 3,24 -2,0 -4,0 -6,0 0,2 0,5 0,8 0,-3 -1,-5 -1,-8 -2,0 -4,1 -5,1 1,-15 2,-18 3,-20 1,-4 0,-18 -2,-27zm13 0c1,-3 3,2 4,9 1,0 3,0 4,-1 0,4 0,8 0,13 0,3 1,6 3,24 -2,0 -4,0 -6,0 0,2 0,5 0,9 0,-4 -1,-6 -2,-9 -1,0 -3,1 -4,1 1,-15 2,-17 3,-19 1,-4 0,-19 -2,-27zm13 -1c1,-2 2,2 4,9 1,0 3,-1 4,-1 0,4 0,8 0,13 0,4 1,6 3,23 -2,0 -4,1 -6,1 0,2 0,5 0,9 0,-4 -1,-6 -2,-9 -1,0 -3,0 -4,0 1,-14 2,-16 3,-18 1,-4 0,-19 -2,-27zm13 -2c1,-1 2,3 3,9 2,0 4,0 5,0 0,4 0,8 0,14 0,3 1,5 3,22 -2,0 -4,0 -6,0 0,3 0,6 0,10 0,-4 -1,-7 -2,-9l-4 0c1,-13 2,-16 3,-18 1,-4 0,-19 -2,-28zm13 -1c1,-1 2,3 3,9 2,0 4,0 5,-1 0,4 0,9 0,15 0,3 1,5 2,21 -1,0 -3,1 -5,1 0,3 0,6 0,10 -1,-4 -1,-7 -2,-10 -1,0 -3,1 -4,1 1,-13 2,-16 3,-18 1,-4 -1,-20 -2,-28zm13 -1c1,-1 2,3 3,8 2,0 3,0 5,0 0,4 0,9 0,15 0,3 0,5 2,20 -2,1 -3,1 -5,1 0,3 0,6 0,10 -1,-4 -2,-7 -2,-10 -2,1 -3,1 -4,1 1,-12 2,-15 3,-17 1,-4 -1,-20 -2,-28zm12 -2c1,-1 3,3 4,9 2,-1 3,-1 5,-1 0,4 0,9 0,15 0,3 0,6 2,20 -2,1 -4,1 -5,1 0,3 0,6 0,11 -1,-4 -2,-8 -3,-10 -1,0 -2,0 -3,0 1,-12 2,-14 3,-16 1,-4 -1,-21 -3,-29zm13 -2c1,0 2,4 3,9 2,-1 4,-1 6,-1 0,4 0,9 0,16 -1,3 0,5 2,19 -2,1 -4,1 -6,1 0,3 0,7 1,11 -1,-4 -2,-8 -3,-10 -1,0 -2,0 -3,0 1,-11 2,-13 3,-15 1,-5 -1,-22 -3,-30zm13 -1c1,-1 2,3 3,8 2,-1 4,-1 6,-2 0,5 0,10 0,18 -1,2 0,5 2,18 -2,0 -4,1 -6,1 0,3 0,6 0,11 -1,-4 -2,-8 -2,-11l-3 1c1,-11 2,-13 2,-15 1,-4 0,-22 -2,-29zm13 -2c1,-1 2,2 3,7 2,8 3,20 3,24 0,2 -1,4 -1,11 0,3 0,7 0,12 -1,-4 -2,-8 -3,-11l-2 0c1,-9 2,-11 2,-13 1,-5 0,-23 -2,-30zm-144 60c-2,0 -4,0 -6,1 0,2 0,4 0,7 0,-3 -1,-5 -1,-7 -2,0 -3,0 -5,0 1,-16 3,-19 3,-21 1,-4 0,-17 -1,-25 1,-5 2,1 4,8 1,0 2,0 4,0 -1,3 -1,7 -1,12 0,3 1,6 3,25zm-13 1c-2,0 -4,0 -6,0 0,2 0,4 0,7 -1,-3 -1,-5 -1,-7 -2,0 -3,0 -5,0 1,-16 3,-19 3,-21 1,-3 0,-16 -1,-25 1,-5 3,1 4,9 1,0 2,0 4,0 0,3 -1,7 -1,11 0,3 1,6 3,26zm-12 0c-3,0 -5,0 -7,0 0,2 0,5 0,7 -1,-2 -1,-5 -1,-7 -2,0 -3,0 -5,0 2,-16 3,-19 3,-21 1,-3 0,-16 -1,-24 1,-6 3,0 4,8l4 0c0,3 0,7 -1,11 0,3 1,6 4,26zm-13 0c-3,0 -5,0 -7,1 0,1 0,4 0,6 -1,-2 -1,-4 -2,-6 -1,0 -2,0 -4,0 2,-17 3,-20 3,-22 1,-3 0,-16 -1,-24 1,-6 3,0 4,8l4 0c0,3 0,7 -1,11 0,3 1,6 4,26zm-13 1c-3,0 -5,0 -7,0 0,1 -1,4 -1,6 0,-2 0,-5 -1,-6 -1,0 -2,0 -4,0 2,-17 3,-20 4,-22 0,-3 0,-15 -2,-24 2,-6 3,0 5,8l3 0c0,3 0,7 0,11 -1,3 1,6 3,27zm-13 0c-3,-1 -5,-1 -7,-1 -1,2 -1,4 -1,7 0,-2 -1,-5 -1,-7 -1,0 -2,0 -4,0 2,-17 3,-19 4,-21 0,-4 0,-15 -2,-24 2,-7 4,-1 5,8l3 0c0,3 0,7 0,11 0,3 1,6 3,27zm-13 -1c-3,0 -5,0 -8,0 0,2 0,4 0,7 0,-3 -1,-5 -1,-7 -1,0 -2,0 -4,0 2,-17 3,-19 4,-22 0,-3 0,-14 -1,-23 1,-7 3,-1 4,8 1,0 2,0 3,0 0,3 0,6 0,10 0,4 1,7 3,27zm-13 0c-3,0 -5,0 -8,0 0,2 0,4 0,6 -1,-2 -1,-4 -1,-6l-3 0c1,-17 2,-20 3,-22 1,-3 0,-14 -1,-23 1,-8 3,-1 4,8 1,0 2,0 3,0 0,3 0,6 0,10 0,3 1,6 3,27zm-13 0c-2,-1 -5,-1 -8,-1 0,2 0,4 0,7 -1,-3 -1,-5 -1,-7 -1,0 -2,0 -3,0 1,-17 2,-19 3,-22 1,-3 0,-14 -1,-22 1,-9 3,-2 4,7 1,0 2,0 3,0 0,3 0,7 0,10 0,4 1,7 3,28zm-13 -1c-2,0 -5,0 -8,0 0,1 0,4 -1,6 0,-2 0,-5 0,-6 -1,-1 -2,-1 -3,-1 1,-17 3,-19 3,-21 1,-3 0,-14 -1,-22 1,-10 3,-3 5,7 1,0 1,0 2,0 0,3 0,6 0,10 0,3 1,6 3,27zm-13 -1c-2,0 -5,0 -8,0 0,2 0,4 -1,6 0,-2 0,-4 0,-6l-3 0c1,-17 3,-20 3,-22 1,-3 0,-13 -1,-22 2,-10 4,-2 5,7 1,0 2,1 2,1 0,2 0,6 0,9 0,4 1,7 3,27zm-13 0c-2,-1 -5,-1 -8,-1 0,2 -1,4 -1,6 0,-2 0,-4 0,-6l-3 0c1,-17 3,-19 3,-22 1,-3 1,-14 -1,-22 2,-10 4,-2 5,8l3 0c-1,3 -1,6 -1,9 0,4 1,7 3,28zm-12 -1c-3,0 -6,-1 -9,-1 0,2 -1,4 -1,6 0,-2 0,-4 0,-6 -1,0 -2,0 -3,0 1,-17 3,-19 3,-22 1,-3 1,-12 0,-21 1,-11 3,-3 4,7l3 0c0,3 -1,6 -1,10 0,3 1,6 4,27zm-13 -1c-3,0 -6,-1 -9,-1 0,2 -1,4 -1,6 0,-2 0,-4 0,-6 -1,0 -2,0 -3,0 2,-17 3,-19 4,-22 0,-3 0,-12 -1,-21 1,-12 3,-3 4,7 1,0 2,0 3,1 0,2 0,5 0,9 -1,3 1,6 3,27zm-13 -1c-3,-1 -6,-1 -9,-1 0,1 -1,4 -1,6 0,-2 0,-5 0,-6l-3 -1c2,-16 3,-19 4,-21 0,-3 0,-13 -1,-21 2,-12 4,-4 5,7l2 0c0,3 0,6 0,9 0,4 1,7 3,28zm-13 -2c-3,0 -6,0 -9,-1 0,2 -1,4 -1,6 0,-2 0,-4 0,-6l-3 0c2,-17 3,-19 4,-21 0,-3 0,-12 -1,-20 2,-14 4,-5 5,6 1,0 1,0 2,0 0,3 0,6 0,9 0,3 1,6 3,27zm-39 -4c-3,0 -6,0 -9,-1 0,2 0,3 -1,5 0,-2 0,-3 0,-5l-2 0c1,-18 3,-20 3,-22 1,-3 0,-12 0,-19 1,-16 4,-6 5,7 0,0 1,0 1,0 0,2 0,5 0,7 0,4 1,7 3,28zm-13 -1c-2,0 -5,0 -8,0 -1,-2 -1,-3 -2,-4 0,-10 0,-19 1,-27 0,-7 0,-13 1,-17 1,-8 3,-6 4,13l1 0c0,2 0,4 0,7 0,3 1,6 3,28z"/>
  <g id="_946215920">
   <g>
    <path class="fil2" d="M29 236c16,-25 25,-49 32,-71 7,-23 10,-45 12,-66l5 1c-2,21 -5,43 -12,66 -7,23 -17,47 -32,72l-5 -2z"/>
    <polygon class="fil1" points="35,235 27,231 29,228 37,232 "/>
    <path class="fil2" d="M34 235l-7 -4 0 0 0 0 2 -4 0 0 0 0 8 5 0 0 0 0 -2 3 0 0 -1 0zm-6 -4l7 4 1 -3 -7 -4 -1 3z"/>
    <polygon class="fil1" points="41,234 34,230 36,227 43,231 "/>
    <path class="fil2" d="M41 234l-8 -4 0 0 0 0 2 -4 1 0 0 0 7 5 1 0 -1 0 -2 3 0 0 0 0zm-7 -4l7 4 2 -3 -7 -4 -2 3z"/>
    <polygon class="fil1" points="39,228 31,224 33,221 41,225 "/>
    <path class="fil2" d="M39 228l-8 -4 0 0 0 0 2 -4 0 0 1 0 7 4 0 0 0 1 -2 3 0 0 0 0zm-7 -4l7 4 1 -3 -6 -4 -2 3z"/>
    <polygon class="fil1" points="45,227 38,222 40,219 47,223 "/>
    <path class="fil2" d="M45 227l-7 -4 -1 0 1 -1 2 -3 0 0 0 0 7 4 1 0 0 1 -2 3 -1 0 0 0zm-7 -5l7 4 2 -2 -7 -4 -2 2z"/>
    <polygon class="fil1" points="43,220 35,216 37,213 45,217 "/>
    <path class="fil2" d="M43 221l-8 -4 0 0 0 -1 2 -3 0 0 0 0 8 4 0 0 0 0 -2 4 0 0 0 0zm-7 -5l7 4 1 -3 -7 -3 -1 2z"/>
    <polygon class="fil1" points="49,219 42,215 43,212 51,216 "/>
    <path class="fil2" d="M49 219l-8 -4 0 0 0 0 2 -3 0 -1 1 1 7 3 1 1 -1 0 -2 3 0 0 0 0zm-7 -4l7 4 2 -3 -7 -4 -2 3z"/>
    <polygon class="fil1" points="47,213 39,209 41,206 48,210 "/>
    <path class="fil2" d="M46 213l-7 -4 -1 0 1 0 1 -3 1 -1 0 1 8 3 0 0 0 1 -2 3 0 0 -1 0zm-7 -4l7 4 2 -3 -7 -4 -2 3z"/>
    <polygon class="fil1" points="54,211 46,208 47,204 55,208 "/>
    <path class="fil2" d="M53 212l-7 -4 -1 0 0 0 2 -4 0 0 0 0 8 4 1 0 0 0 -2 3 0 1 -1 0zm-7 -4l7 3 2 -3 -7 -3 -2 3z"/>
    <polygon class="fil1" points="50,205 42,202 44,198 52,201 "/>
    <path class="fil2" d="M50 205l-8 -3 0 0 0 -1 1 -3 1 0 0 0 8 3 0 0 0 1 -2 3 0 0 0 0zm-7 -4l7 3 1 -2 -7 -3 -1 2z"/>
    <polygon class="fil1" points="57,203 49,200 51,196 58,200 "/>
    <path class="fil2" d="M56 203l-7 -3 -1 0 1 -1 1 -3 0 0 1 0 7 3 1 1 0 0 -2 3 0 1 -1 -1zm-7 -4l7 4 2 -3 -7 -3 -2 2z"/>
    <polygon class="fil1" points="54,197 46,194 48,191 56,194 "/>
    <path class="fil2" d="M54 198l-8 -4 0 0 0 0 1 -4 0 0 1 0 8 3 0 1 0 0 -2 3 0 1 0 0zm-8 -4l8 3 1 -3 -7 -3 -2 3z"/>
    <polygon class="fil1" points="59,195 52,192 53,188 61,192 "/>
    <path class="fil2" d="M59 195l-8 -3 0 0 0 0 2 -4 0 0 0 0 8 3 1 0 -1 1 -1 3 0 0 -1 0zm-7 -3l7 3 2 -3 -8 -3 -1 3z"/>
    <polygon class="fil1" points="57,189 49,186 51,183 59,186 "/>
    <path class="fil2" d="M57 190l-8 -4 0 0 0 0 1 -3 1 -1 0 0 8 4 0 0 0 0 -2 3 0 1 0 0zm-7 -4l7 3 1 -3 -7 -3 -1 3z"/>
    <polygon class="fil1" points="63,187 55,183 57,180 65,183 "/>
    <path class="fil2" d="M63 187l-8 -3 0 0 0 -1 1 -3 0 0 1 0 8 3 0 0 0 0 -2 4 0 0 0 0zm-8 -4l8 3 1 -2 -7 -3 -2 2z"/>
    <polygon class="fil1" points="61,181 52,178 54,174 62,177 "/>
    <path class="fil2" d="M60 181l-8 -3 0 0 0 0 1 -4 0 0 1 0 8 3 0 0 0 0 -1 4 0 0 -1 0zm-7 -3l7 2 1 -3 -7 -2 -1 3z"/>
    <polygon class="fil1" points="64,171 55,169 57,165 65,167 "/>
    <path class="fil2" d="M63 171l-8 -2 0 0 0 -1 1 -3 0 0 1 0 8 2 0 0 0 1 -1 3 0 0 -1 0zm-7 -3l7 3 1 -3 -7 -3 -1 3z"/>
    <polygon class="fil1" points="66,162 58,160 59,157 67,159 "/>
    <path class="fil2" d="M66 163l-8 -3 0 0 0 0 1 -3 0 -1 0 0 8 2 1 0 0 1 -1 3 0 1 -1 0zm-8 -3l8 2 1 -3 -8 -2 -1 3z"/>
    <polygon class="fil1" points="69,154 60,153 61,149 69,151 "/>
    <path class="fil2" d="M69 155l-9 -2 0 0 0 0 1 -4 0 0 0 0 9 1 0 0 0 1 -1 3 0 1 0 0zm-8 -3l7 2 1 -3 -8 -2 0 3z"/>
    <polygon class="fil1" points="70,146 62,144 63,141 71,142 "/>
    <path class="fil2" d="M70 146l-8 -1 0 0 0 -1 1 -3 0 0 0 0 8 1 1 0 0 0 -1 4 0 0 -1 0zm-8 -2l8 2 1 -3 -8 -2 -1 3z"/>
    <polygon class="fil1" points="72,137 64,136 65,132 73,134 "/>
    <path class="fil2" d="M72 138l-8 -2 -1 0 0 0 1 -4 0 0 1 0 8 1 0 0 0 1 -1 4 0 0 0 0zm-8 -2l8 1 1 -3 -8 -1 -1 3z"/>
    <polygon class="fil1" points="74,129 65,128 66,124 75,125 "/>
    <path class="fil2" d="M74 129l-9 -1 0 0 0 0 1 -4 0 0 0 0 9 1 0 0 0 0 -1 4 0 0 0 0zm-8 -2l8 2 0 -4 -8 -1 0 3z"/>
    <polygon class="fil1" points="75,121 67,120 67,116 76,117 "/>
    <path class="fil2" d="M75 121l-8 -1 -1 0 0 0 1 -4 0 0 0 0 9 1 0 0 0 0 0 4 0 0 -1 0zm-8 -2l8 1 1 -3 -8 -1 -1 3z"/>
    <polygon class="fil1" points="76,112 68,112 68,108 77,109 "/>
    <path class="fil2" d="M76 113l-8 -1 -1 0 0 0 1 -4 0 0 0 0 9 0 0 0 0 1 0 4 0 0 -1 0zm-8 -2l8 1 0 -3 -8 -1 0 3z"/>
    <polygon class="fil1" points="77,104 69,103 69,100 78,101 "/>
    <path class="fil2" d="M77 105l-8 -1 -1 0 0 -1 1 -3 0 -1 0 0 9 1 0 0 0 1 0 3 0 1 -1 0zm-8 -2l8 1 0 -3 -8 -1 0 3z"/>
    <polygon class="fil1" points="67,177 58,175 59,171 68,173 "/>
    <path class="fil2" d="M66 177l-8 -2 0 0 0 -1 1 -3 0 0 1 0 8 2 0 0 0 1 -1 3 0 0 -1 0zm-7 -3l7 3 1 -3 -7 -3 -1 3z"/>
    <polygon class="fil1" points="69,168 61,166 62,162 70,164 "/>
    <path class="fil2" d="M69 168l-8 -2 0 0 0 -1 1 -3 0 0 0 0 9 2 0 0 0 0 -1 4 0 0 -1 0zm-8 -3l8 2 1 -3 -8 -2 -1 3z"/>
    <polygon class="fil1" points="74,152 65,149 67,146 75,148 "/>
    <path class="fil2" d="M74 152l-9 -2 0 0 0 -1 1 -3 0 -1 1 1 8 2 0 0 0 0 -1 4 0 0 0 0zm-8 -3l8 2 0 -3 -7 -2 -1 3z"/>
    <polygon class="fil1" points="77,134 69,133 70,129 78,131 "/>
    <path class="fil2" d="M77 135l-8 -2 0 0 0 -1 1 -3 0 0 0 0 8 1 1 0 0 1 -1 3 0 1 -1 0zm-8 -3l8 2 1 -3 -8 -2 -1 3z"/>
    <polygon class="fil1" points="81,109 73,108 73,104 82,105 "/>
    <path class="fil2" d="M81 109l-8 -1 -1 0 0 0 1 -4 0 0 0 0 9 1 0 0 0 0 0 4 -1 0 0 0zm-8 -1l8 1 0 -3 -7 -1 -1 3z"/>
    <polygon class="fil1" points="80,117 72,116 72,112 81,114 "/>
    <path class="fil2" d="M80 118l-8 -2 -1 0 0 0 1 -4 0 0 0 0 9 1 0 0 0 1 0 3 0 1 -1 0zm-8 -2l8 1 0 -3 -7 -1 -1 3z"/>
    <polygon class="fil1" points="79,125 70,124 71,121 80,122 "/>
    <path class="fil2" d="M79 126l-9 -1 0 0 0 -1 1 -3 0 -1 0 0 9 1 0 0 0 1 -1 4 0 0 0 0zm-8 -2l8 1 0 -3 -8 -1 0 3z"/>
    <polygon class="fil1" points="76,143 67,141 68,138 77,140 "/>
    <path class="fil2" d="M76 144l-9 -2 0 -1 0 0 1 -3 0 -1 1 0 8 3 0 0 0 0 -1 4 0 0 0 0zm-8 -3l7 2 1 -3 -7 -2 -1 3z"/>
    <polygon class="fil1" points="72,160 64,158 65,154 73,156 "/>
    <path class="fil2" d="M72 160l-9 -2 0 0 0 -1 1 -3 0 0 1 0 8 2 0 0 0 0 -1 4 0 0 0 0zm-8 -3l8 2 1 -3 -8 -2 -1 3z"/>
   </g>
   <polygon class="fil3 str0" points="69,97 79,121 89,116 76,94 "/>
  </g>
  <g id="_946243504">
   <g>
    <path class="fil2" d="M508 238c-16,-25 -25,-49 -32,-71 -7,-23 -10,-45 -12,-66l-5 1c2,21 5,43 12,66 7,23 17,47 32,72l5 -2z"/>
    <polygon class="fil1" points="502,237 510,233 508,230 500,234 "/>
    <path class="fil2" d="M503 237l7 -4 0 0 0 0 -2 -4 0 0 0 0 -8 5 0 0 0 0 2 3 0 0 1 0zm6 -4l-7 4 -1 -3 7 -4 1 3z"/>
    <polygon class="fil1" points="496,236 503,232 501,229 494,233 "/>
    <path class="fil2" d="M496 236l8 -4 0 0 0 0 -2 -4 0 0 -1 0 -7 5 -1 0 1 0 2 3 0 0 0 0zm7 -4l-7 4 -2 -3 7 -4 2 3z"/>
    <polygon class="fil1" points="498,230 506,226 504,223 496,227 "/>
    <path class="fil2" d="M498 230l8 -4 0 0 0 0 -2 -4 0 0 -1 0 -7 4 0 0 0 1 2 3 0 0 0 0zm7 -4l-7 4 -1 -3 6 -4 2 3z"/>
    <polygon class="fil1" points="492,229 499,224 497,221 490,225 "/>
    <path class="fil2" d="M492 229l7 -4 1 0 -1 -1 -2 -3 0 0 0 0 -7 4 -1 0 0 1 2 3 1 0 0 0zm7 -5l-7 4 -2 -2 7 -4 2 2z"/>
    <polygon class="fil1" points="494,222 502,218 500,215 492,219 "/>
    <path class="fil2" d="M494 223l8 -4 0 0 0 -1 -2 -3 0 0 0 0 -8 4 0 0 0 0 2 4 0 0 0 0zm7 -5l-7 4 -1 -3 7 -3 1 2z"/>
    <polygon class="fil1" points="488,221 495,217 494,214 486,218 "/>
    <path class="fil2" d="M488 221l8 -4 0 0 0 0 -2 -3 0 -1 -1 1 -7 3 -1 1 1 0 2 3 0 1 0 -1zm7 -4l-7 4 -2 -3 7 -4 2 3z"/>
    <polygon class="fil1" points="490,215 498,211 496,208 489,212 "/>
    <path class="fil2" d="M491 215l7 -4 1 0 -1 0 -1 -3 -1 -1 0 1 -8 3 0 0 0 1 2 3 0 0 1 0zm7 -4l-7 4 -2 -3 7 -4 2 3z"/>
    <polygon class="fil1" points="484,213 491,210 490,206 482,210 "/>
    <path class="fil2" d="M484 214l7 -4 1 0 0 0 -2 -4 0 0 0 0 -8 4 -1 0 1 0 1 3 0 1 1 0zm7 -4l-7 3 -2 -3 8 -3 1 3z"/>
    <polygon class="fil1" points="487,207 495,204 493,200 485,203 "/>
    <path class="fil2" d="M487 207l8 -3 0 0 0 -1 -1 -3 -1 0 0 0 -8 3 0 0 0 1 2 3 0 0 0 0zm7 -4l-7 3 -1 -2 7 -3 1 2z"/>
    <polygon class="fil1" points="480,205 488,202 487,198 479,202 "/>
    <path class="fil2" d="M481 205l7 -3 1 0 -1 -1 -1 -3 0 0 -1 0 -7 3 -1 1 0 0 2 3 0 1 1 -1zm7 -4l-7 4 -2 -3 7 -3 2 2z"/>
    <polygon class="fil1" points="483,199 491,196 489,193 481,196 "/>
    <path class="fil2" d="M483 200l8 -4 0 0 0 0 -1 -3 0 -1 -1 0 -8 3 0 1 0 0 2 3 0 1 0 0zm8 -4l-8 3 -1 -3 7 -3 2 3z"/>
    <polygon class="fil1" points="478,197 486,194 484,190 476,194 "/>
    <path class="fil2" d="M478 197l8 -3 0 0 0 0 -2 -4 0 0 0 0 -8 3 0 0 0 1 1 3 0 0 1 0zm7 -3l-7 3 -2 -3 8 -3 1 3z"/>
    <polygon class="fil1" points="480,191 488,188 486,185 478,188 "/>
    <path class="fil2" d="M480 192l8 -4 0 0 0 0 -1 -3 -1 -1 0 0 -8 4 0 0 0 0 2 3 0 1 0 0zm7 -4l-7 3 -1 -3 7 -3 1 3z"/>
    <polygon class="fil1" points="474,189 482,185 480,182 472,185 "/>
    <path class="fil2" d="M474 189l8 -3 0 0 0 -1 -1 -3 0 0 -1 0 -8 3 0 0 0 1 2 3 0 0 0 0zm8 -4l-8 3 -1 -2 7 -3 2 2z"/>
    <polygon class="fil1" points="476,183 485,180 483,176 475,179 "/>
    <path class="fil2" d="M477 183l8 -3 0 0 0 0 -1 -4 0 0 -1 0 -8 3 0 0 0 0 1 4 0 0 1 0zm7 -3l-7 2 -1 -3 7 -2 1 3z"/>
    <polygon class="fil1" points="473,173 482,171 480,167 472,169 "/>
    <path class="fil2" d="M474 173l8 -2 0 0 0 -1 -1 -3 0 0 -1 0 -8 2 0 0 0 1 1 3 0 0 1 0zm7 -3l-7 3 -1 -3 7 -3 1 3z"/>
    <polygon class="fil1" points="471,164 479,162 478,159 470,161 "/>
    <path class="fil2" d="M471 165l8 -3 0 0 0 0 -1 -3 0 -1 0 0 -8 2 -1 0 0 1 1 3 0 1 1 0zm8 -3l-8 2 -1 -3 8 -2 1 3z"/>
    <polygon class="fil1" points="468,156 477,155 476,151 468,153 "/>
    <path class="fil2" d="M469 157l8 -2 0 0 0 0 -1 -4 0 0 0 0 -9 1 0 0 0 1 1 3 0 1 1 0zm8 -3l-8 2 -1 -3 8 -2 1 3z"/>
    <polygon class="fil1" points="467,148 475,147 474,143 466,144 "/>
    <path class="fil2" d="M467 148l8 -1 0 0 0 -1 0 -3 -1 0 0 0 -8 1 -1 0 0 0 1 4 0 0 1 0zm8 -2l-8 2 -1 -3 8 -2 1 3z"/>
    <polygon class="fil1" points="465,139 473,138 473,134 464,136 "/>
    <path class="fil2" d="M465 140l8 -2 1 0 0 0 -1 -4 0 0 -1 0 -8 1 0 0 0 1 1 4 0 0 0 0zm8 -2l-8 1 -1 -3 8 -1 1 3z"/>
    <polygon class="fil1" points="463,131 472,130 471,126 462,127 "/>
    <path class="fil2" d="M463 131l9 -1 0 0 0 0 -1 -4 0 0 0 0 -9 1 0 0 0 0 1 4 0 0 0 0zm8 -2l-8 2 0 -4 8 -1 0 3z"/>
    <polygon class="fil1" points="462,123 470,122 470,118 461,119 "/>
    <path class="fil2" d="M462 123l8 -1 1 0 0 0 -1 -4 0 0 0 0 -9 1 0 0 0 0 0 4 0 0 1 0zm8 -2l-8 1 -1 -3 8 -1 1 3z"/>
    <polygon class="fil1" points="461,114 469,114 469,110 460,111 "/>
    <path class="fil2" d="M461 115l8 -1 1 0 0 0 -1 -4 0 0 0 0 -9 0 0 0 0 1 0 4 0 0 1 0zm8 -2l-8 1 0 -3 8 -1 0 3z"/>
    <polygon class="fil1" points="460,106 468,105 468,102 459,103 "/>
    <path class="fil2" d="M460 107l8 -1 1 0 0 -1 -1 -3 0 -1 0 0 -9 1 0 0 0 1 0 3 1 1 0 0zm8 -2l-8 1 0 -3 8 -1 0 3z"/>
    <polygon class="fil1" points="470,179 479,177 478,173 469,175 "/>
    <path class="fil2" d="M471 179l8 -2 0 0 0 0 -1 -4 0 0 -1 0 -8 2 0 0 0 1 1 3 0 0 1 0zm7 -3l-7 3 -1 -3 7 -3 1 3z"/>
    <polygon class="fil1" points="468,170 476,168 475,164 467,166 "/>
    <path class="fil2" d="M468 170l8 -2 0 0 0 -1 -1 -3 0 0 0 0 -8 2 -1 0 0 0 1 4 1 0 0 0zm8 -3l-8 2 -1 -3 8 -2 1 3z"/>
    <polygon class="fil1" points="463,154 472,151 470,148 462,150 "/>
    <path class="fil2" d="M463 154l9 -2 0 0 0 -1 -1 -3 0 -1 -1 1 -8 2 0 0 0 0 1 4 0 0 0 0zm8 -3l-8 2 0 -3 7 -2 1 3z"/>
    <polygon class="fil1" points="460,136 468,135 467,131 459,133 "/>
    <path class="fil2" d="M460 137l8 -2 0 0 0 -1 -1 -3 0 0 0 0 -8 1 -1 0 0 1 1 3 0 1 1 0zm8 -3l-8 2 -1 -3 8 -2 1 3z"/>
    <polygon class="fil1" points="456,111 464,110 464,106 455,107 "/>
    <path class="fil2" d="M456 111l8 -1 1 0 0 0 -1 -4 0 0 0 0 -9 1 0 0 0 0 0 4 1 0 0 0zm8 -1l-8 1 0 -3 8 -1 0 3z"/>
    <polygon class="fil1" points="457,119 465,118 465,115 456,116 "/>
    <path class="fil2" d="M457 120l8 -2 1 0 0 0 -1 -4 0 0 0 0 -9 1 0 0 0 1 0 3 1 1 0 0zm8 -2l-8 1 0 -3 7 -1 1 3z"/>
    <polygon class="fil1" points="458,127 467,126 466,123 457,124 "/>
    <path class="fil2" d="M458 128l9 -1 0 0 0 -1 -1 -3 0 -1 0 0 -9 1 0 0 0 1 1 4 0 0 0 0zm8 -2l-8 1 0 -3 8 -1 0 3z"/>
    <polygon class="fil1" points="461,146 470,143 469,140 460,142 "/>
    <path class="fil2" d="M461 146l9 -2 0 -1 0 0 -1 -3 0 -1 -1 0 -8 3 0 0 0 0 1 4 0 0 0 0zm8 -3l-7 2 -1 -3 7 -2 1 3z"/>
    <polygon class="fil1" points="465,162 473,160 472,156 464,158 "/>
    <path class="fil2" d="M465 162l9 -2 0 0 0 -1 -1 -3 0 0 -1 0 -8 2 0 0 0 0 1 4 0 0 0 0zm8 -3l-8 2 -1 -3 8 -2 1 3z"/>
   </g>
   <polygon class="fil3 str0" points="468,99 458,123 448,118 461,96 "/>
  </g>
 </g>
</svg>
