<svg xmlns="http://www.w3.org/2000/svg" xml:space="preserve" width="10.3337in" height="8.43668in" version="1.1" style="shape-rendering:geometricPrecision; text-rendering:geometricPrecision; image-rendering:optimizeQuality; fill-rule:evenodd; clip-rule:evenodd"
viewBox="0 0 2303 1880"
 xmlns:xlink="http://www.w3.org/1999/xlink">
 <defs>
  <style type="text/css">
   <![CDATA[
    .fil1 {fill:black}
    .fil0 {fill:white}
   ]]>
  </style>
 </defs>
 <g id="Layer_x0020_1">
  <metadata id="CorelCorpID_0Corel-Layer"/>
  <g id="_946212304">
   <path class="fil1" d="M1862 1212c1,1 2,2 3,2m-294 -1041c14,157 73,374 181,491 55,59 190,148 213,214 45,130 -165,170 -158,246 2,30 39,74 58,90 47,41 147,102 203,140 51,34 242,152 235,216 -7,59 -164,78 -216,88 -147,29 -300,50 -440,106 -7,3 -16,0 -19,-7 -3,-8 0,-16 8,-20 1,0 3,-1 5,-2 86,-33 164,-49 255,-66 55,-11 344,-51 380,-87 43,-43 -137,-161 -168,-184 -65,-46 -175,-118 -229,-169l-14 -15 0 0 -3 -2c-27,-24 -67,-56 -64,-97 4,-77 215,-131 142,-250 -31,-51 -152,-131 -204,-186 -83,-87 -133,-229 -161,-362 -10,-49 -29,-97 -33,-141 -1,-8 5,-15 13,-16 8,-1 15,5 16,13z"/>
   <path class="fil1" d="M211 1085c1,1 1,2 1,4m4 10l0 1m219 -927c-15,159 -52,295 -125,438 -63,126 -167,312 -109,455 15,36 10,21 10,19 0,0 0,1 1,4 1,2 2,5 4,10 19,56 24,142 7,199 -75,257 -524,230 115,510 7,3 16,0 19,-8 3,-7 -1,-16 -8,-19l-5 -2c-79,-33 -175,-74 -247,-119 -100,-64 -93,-90 -9,-162 114,-97 185,-183 147,-342 -6,-26 -12,-36 -19,-56l0 -1 0 0c0,1 2,5 -10,-35 -46,-148 55,-317 123,-443 53,-99 88,-195 111,-298 11,-47 18,-96 24,-147 0,-8 -6,-15 -14,-16 -8,-1 -15,5 -15,13z"/>
   <path class="fil0" d="M946 137c-168,5 -323,31 -486,64 0,5 0,66 0,71 -4,248 -3,535 -39,780 -39,271 -76,470 -78,742 491,104 832,55 1322,-48 -2,-249 -66,-448 -100,-694 -37,-267 -19,-566 -26,-834 -1,-49 -295,-67 -346,-72 -83,-8 -164,-11 -247,-9zm260 -20c80,8 333,84 332,32 0,-30 0,-4 0,-34 -412,-103 -665,-104 -1077,0 0,31 0,6 -1,37 0,35 301,-16 478,-37 101,-11 163,-8 268,2z"/>
   <path class="fil1" d="M1206 117c80,8 333,84 332,32 0,-30 0,-4 0,-34 -412,-103 -665,-104 -1077,0 0,31 0,6 -1,37 0,35 301,-16 478,-37 101,-11 163,-8 268,2zm362 128c1,9 0,23 1,48 8,259 -11,499 25,755 34,243 98,440 100,685 1,46 2,37 -53,48 -473,97 -822,143 -1295,44 -43,-9 -32,-10 -32,-68 3,-276 43,-459 82,-734 34,-244 29,-532 35,-778l0 0 0 0 0 0 0 0 0 0 0 0 0 0 0 0 0 0 0 0 0 -1 0 0 0 0 0 0 0 0 0 0 0 0c0,-35 0,-70 0,-105 0,-53 -6,-45 46,-58 266,-66 492,-92 765,-55 42,6 297,52 319,66 13,8 6,64 6,82 1,37 3,59 1,71zm-622 -108c-168,5 -323,31 -486,64 0,5 0,66 0,71 -4,248 -3,535 -39,780 -39,271 -76,470 -78,742 491,104 832,55 1322,-48 -2,-249 -66,-448 -100,-694 -37,-267 -19,-566 -26,-834 -1,-49 -295,-67 -346,-72 -83,-8 -164,-11 -247,-9z"/>
   <path class="fil1" d="M539 128c-1,6 -5,12 -11,53 3,-1 5,-1 7,-2 0,4 0,9 0,14 1,-6 3,-11 3,-15 9,-2 17,-4 25,-6 -4,-46 -7,-53 -7,-60 1,-8 1,-15 2,-21 -2,1 -4,1 -5,2 -2,-26 -7,-46 -14,-9 2,17 2,37 0,44zm-12 53c-4,-46 -6,-52 -6,-60 1,-7 1,-14 1,-20 -1,1 -3,1 -4,2 -2,-27 -7,-48 -14,-10 2,17 2,37 0,45 -2,6 -6,12 -11,53 2,0 5,-1 7,-2 0,4 0,9 0,13 1,-5 2,-9 3,-14 8,-2 16,-5 24,-7zm-2 -101c4,-34 8,-31 11,-16 3,-5 6,-10 10,-11 8,-3 11,5 13,12 0,2 0,5 1,7 4,-35 9,-32 12,-17 2,-5 5,-9 9,-10 8,-2 11,6 13,13 0,2 1,4 1,7 4,-34 9,-33 12,-19 2,-4 5,-8 9,-9 8,-2 11,6 13,13 0,3 1,7 1,10 5,-38 9,-36 12,-21 3,-4 5,-7 9,-8 8,-2 11,6 13,13 0,4 1,8 2,11 4,-40 9,-38 12,-22 2,-4 5,-6 9,-7 7,-2 10,6 12,13 1,3 1,7 2,11 4,-38 9,-37 12,-24 2,-3 5,-5 8,-6 8,-1 11,7 13,14 1,4 1,8 2,12 0,0 0,0 0,0 5,-40 9,-39 13,-24 2,-3 4,-5 8,-6 7,-1 10,7 12,14 1,4 1,8 2,12 0,0 1,0 1,0 4,-39 9,-39 12,-24 2,-3 5,-5 8,-5 7,-1 10,7 12,14 1,3 2,7 2,11 1,0 1,0 2,0 4,-38 8,-38 12,-24 2,-2 4,-4 7,-4 7,0 10,7 12,14 1,3 2,7 2,11 1,0 2,0 2,0 4,-37 9,-37 12,-23 2,-2 4,-4 7,-4 7,0 10,7 12,14 1,3 2,7 3,11 0,0 1,0 2,-1 4,-36 8,-35 12,-22 1,-2 4,-4 6,-4 7,0 11,8 13,15 1,3 1,6 2,10 1,0 2,0 3,0 3,-35 8,-36 11,-23 2,-1 4,-3 7,-3 6,1 10,8 12,15 1,3 1,6 2,10 1,0 2,0 3,0 4,-35 8,-35 12,-22 1,-2 3,-3 6,-3 6,0 10,8 12,15 1,3 2,6 2,9 1,0 3,0 4,0 4,-33 8,-34 11,-22 2,-1 4,-2 6,-2 9,1 13,13 15,24 1,0 2,0 3,0 4,-32 8,-33 12,-22 1,-1 3,-2 5,-1 9,0 13,13 15,24 1,0 3,0 4,0 4,-32 8,-33 11,-22 2,-1 3,-2 6,-1 8,1 12,13 14,24 2,0 3,0 5,0 3,-30 7,-32 11,-22 1,-1 3,-1 5,-1 8,1 12,14 15,25 1,0 3,0 4,0 4,-30 8,-32 11,-22 2,0 3,-1 5,-1 8,2 13,14 15,25 2,0 3,0 5,0 4,-28 8,-30 11,-21 1,-1 2,-1 4,-1 9,2 13,14 15,25 2,0 4,0 6,0 3,-27 7,-29 10,-21 1,-1 3,-1 5,0 8,1 12,14 15,24 2,0 4,1 6,1 3,-26 7,-29 10,-21 1,-1 2,-1 4,0 8,2 12,14 15,24 2,0 4,1 7,1 3,-24 6,-27 9,-21 1,0 3,0 4,0 8,3 13,14 15,25 2,0 5,0 7,1 1,-4 1,-8 2,-11 3,-12 5,-14 7,-9 2,-1 3,-1 5,0 8,2 12,14 14,24 3,0 5,1 8,1 0,-5 1,-10 3,-14 2,-7 4,-8 6,-5 1,-1 2,-1 4,0 8,3 12,14 14,24 3,1 6,1 8,2 1,-6 2,-13 5,-17 1,-3 3,-4 4,-2 1,-1 3,-1 5,0 7,3 11,14 13,24 3,0 6,1 8,1 2,-9 5,-21 14,-17 8,3 11,14 14,23 3,1 5,2 8,2 2,-9 5,-21 14,-16 7,3 11,13 13,23 3,1 6,1 9,2 1,-10 5,-20 13,-15 7,3 11,13 13,22 4,1 6,2 9,3 2,-10 6,-20 14,-15 10,6 14,23 15,34 2,8 4,21 5,33 0,2 1,4 1,6 9,-133 25,5 18,22 -1,5 -6,9 -11,49 -3,-27 -5,-43 -6,-52 0,2 0,4 0,6 -1,2 -2,4 -2,7 -1,5 -2,10 -2,16 0,8 0,17 0,26 1,9 1,18 2,27 0,0 -1,-1 -1,-1 -5,-3 -7,-1 -8,2 -4,-13 -8,-26 -11,-38 -1,-6 -2,-11 -4,-16 -1,0 -2,-1 -3,-1 0,3 -1,7 -1,11 -1,-4 -1,-8 -1,-12 -3,-1 -6,-1 -9,-2 0,6 1,12 1,19 0,9 1,17 1,26 0,0 0,0 0,0 -5,-3 -8,-1 -9,2 -4,-12 -7,-25 -10,-38 -1,-5 -3,-10 -4,-15 -1,0 -2,0 -4,-1 0,3 -1,6 -1,10 -1,-4 -1,-7 -1,-10 -3,-1 -5,-1 -8,-2 0,6 0,11 0,17 1,9 2,18 3,27 -1,0 -1,0 -2,-1 -4,-2 -7,0 -8,3 -4,-13 -7,-25 -10,-37 -2,-5 -3,-10 -4,-14 -1,-1 -3,-1 -5,-1 0,2 -1,5 -1,7 0,-3 0,-5 -1,-8 -2,0 -5,-1 -7,-1 0,5 0,10 0,16 1,9 1,18 2,26 -1,0 -1,0 -1,0 -5,-2 -8,0 -9,3 -3,-12 -7,-25 -10,-37 -1,-4 -2,-9 -3,-13 -2,0 -4,-1 -6,-1 0,2 -1,4 -1,6 0,-2 0,-4 0,-6 -3,-1 -5,-1 -7,-2 -1,5 -1,10 0,15 0,9 0,18 1,27 -1,0 -1,-1 -1,-1 -5,-2 -7,0 -9,4 -3,-12 -6,-25 -9,-37 -1,-4 -2,-8 -3,-12 -3,0 -5,-1 -7,-1 0,1 0,3 -1,4 0,-1 0,-3 0,-4 -3,-1 -5,-1 -7,-2 0,5 0,10 0,15 0,8 1,17 1,26 0,0 -1,0 -1,0 -4,-2 -7,0 -8,3 -4,-12 -7,-24 -10,-36 -1,-4 -2,-7 -3,-11 -2,-1 -5,-1 -7,-1 0,1 0,2 0,3 -1,-1 -1,-2 -1,-3 -2,-1 -5,-1 -7,-2 0,5 0,9 0,14 0,8 1,17 1,26 0,0 -1,0 -1,0 -5,-2 -7,0 -9,4 -3,-12 -6,-24 -9,-36 0,-4 -1,-7 -2,-11 -3,0 -5,0 -8,-1 0,1 0,1 0,2 0,-1 0,-1 0,-2 -3,0 -5,0 -8,-1 0,4 0,8 0,12 1,9 1,18 1,27 0,0 -1,0 -1,-1 -4,-1 -7,1 -9,4 -2,-11 -5,-23 -8,-35 -1,-3 -2,-6 -3,-9 -2,-1 -5,-1 -8,-1 0,0 0,0 0,0 0,0 0,0 0,0 -2,-1 -5,-1 -7,-1 0,4 0,7 -1,11 0,9 0,17 1,26 -1,0 -1,0 -1,0 -5,-1 -8,1 -9,4 -3,-11 -6,-23 -9,-35 0,-3 -1,-6 -1,-9 -6,0 -11,-1 -17,-1 0,3 0,7 0,10 0,9 0,18 0,26 0,0 0,0 -1,0 -4,-1 -7,1 -9,5 -2,-12 -5,-23 -8,-35 0,-2 -1,-5 -1,-8 -6,0 -11,-1 -17,-1 0,3 0,6 0,9 0,9 0,18 0,27 0,-1 -1,-1 -1,-1 -4,-1 -7,2 -9,5 -3,-11 -5,-23 -8,-34 0,-2 -1,-5 -1,-8 -6,0 -11,0 -17,-1 0,3 0,6 0,9 0,9 0,18 -1,26 0,0 0,0 -1,0 -4,-1 -7,1 -8,5 -3,-11 -5,-23 -8,-34 0,-2 -1,-4 -1,-7 -6,0 -11,0 -17,-1 0,3 0,6 0,9 -1,8 -1,17 -1,26 -1,-1 -1,-1 -2,-1 -4,0 -7,2 -9,6 -2,-11 -4,-23 -6,-34 -1,-2 -1,-4 -1,-6 -6,0 -12,-1 -17,-1 0,3 0,5 -1,8 0,8 -1,17 -1,26 0,0 -1,-1 -1,-1 -4,0 -7,2 -9,6 -3,-11 -5,-22 -7,-33 0,-2 0,-4 -1,-6 -5,0 -11,0 -17,-1 0,3 0,5 0,7 -1,9 -2,18 -2,26 0,0 -1,0 -1,0 -5,0 -8,3 -10,7 -2,-11 -3,-23 -5,-34 0,-2 -1,-4 -1,-6 -6,0 -11,0 -17,0 0,2 0,4 -1,6 0,9 -1,18 -1,27 -1,-1 -1,-1 -2,-1 -4,0 -7,3 -9,6 -2,-11 -4,-22 -5,-32 -1,-2 -1,-4 -1,-6 -6,0 -12,0 -17,0 -1,2 -1,4 -1,6 -1,9 -2,18 -2,26 -1,0 -1,0 -1,0 -5,0 -8,3 -10,7 -2,-11 -3,-22 -5,-34 0,-1 0,-3 0,-5 -6,0 -12,0 -18,1 0,1 0,3 0,5 -1,9 -2,18 -3,27 -1,0 -1,0 -1,0 -5,-1 -8,3 -10,7 -2,-11 -3,-23 -4,-34 0,-2 -1,-3 -1,-5 -6,0 -11,0 -17,0 0,2 0,4 -1,6 -1,9 -2,18 -3,27 0,0 -1,-1 -1,0 -4,0 -7,2 -9,6 -2,-11 -3,-22 -5,-32 0,-2 0,-4 0,-6 -6,1 -12,1 -17,1 -1,2 -1,4 -1,6 -1,8 -2,17 -4,26 0,0 0,0 -1,0 -4,0 -7,3 -9,7 -2,-11 -3,-22 -4,-32 0,-2 0,-4 0,-6 -6,0 -12,1 -18,1 0,2 0,4 0,6 -2,9 -3,17 -4,26 -1,0 -1,0 -2,0 -4,1 -8,4 -10,8 -1,-11 -1,-22 -2,-33 -1,-2 -1,-4 -1,-5 -5,0 -11,1 -17,1 0,2 0,4 -1,5 -1,9 -3,18 -4,27 0,0 -1,0 -1,0 -5,1 -8,4 -10,9 -1,-11 -2,-22 -3,-34 0,-2 0,-3 0,-5 -6,0 -11,1 -17,2 -1,1 -1,3 -1,5 -2,9 -3,18 -5,27 0,0 -1,0 -1,0 -5,1 -8,4 -10,9 -1,-11 -1,-22 -2,-34 0,-2 0,-3 0,-5 -6,0 -12,1 -17,2 -1,2 -1,3 -1,5 -2,9 -4,18 -5,27 -1,0 -1,0 -1,1 -5,0 -9,4 -11,9 0,-11 -1,-23 -1,-34 0,-2 0,-4 0,-5 -6,0 -11,1 -17,2 0,2 -1,3 -1,5 -2,9 -3,19 -5,28 0,0 -1,0 -2,0 -4,1 -7,5 -9,9 -1,-11 -1,-22 -2,-33 0,-2 0,-4 0,-6 -6,1 -11,2 -17,3 -1,2 -1,3 -1,5 -2,9 -4,19 -6,28 0,0 -1,0 -1,0 -5,1 -8,5 -11,10 0,-11 0,-22 0,-34 0,-1 0,-3 0,-5 -6,1 -11,2 -17,3 0,2 -1,3 -1,5 -2,9 -4,18 -6,28 0,0 -1,0 -1,0 -5,1 -8,5 -11,10 0,-11 0,-22 0,-33 0,-2 0,-4 0,-6 -5,1 -11,2 -17,4 0,1 0,3 -1,4 -2,10 -4,19 -6,29 -1,0 -1,0 -1,0 -5,2 -8,6 -11,11 0,-11 0,-23 0,-34 1,-2 1,-4 0,-6 -5,1 -11,3 -16,4 -1,2 -1,3 -1,4 -2,10 -4,19 -6,29 -1,0 -1,0 -2,0 -4,2 -8,6 -10,11 0,-11 0,-22 0,-33 0,-2 0,-4 0,-6 -6,2 -11,4 -17,6 0,1 0,1 -1,2 -2,10 -4,20 -6,29 -1,0 -1,1 -2,1 -4,2 -8,7 -11,12 1,-11 1,-23 2,-35 0,-1 0,-2 0,-4 -6,2 -12,4 -18,6 0,1 0,1 0,1 -2,10 -5,21 -7,30 0,1 -1,1 -1,1 -5,2 -8,7 -11,12 1,-11 1,-23 2,-35 -1,0 0,-1 0,-2 -9,4 -17,7 -26,11 -2,1 -3,1 -5,2 -1,-2 -1,-4 -1,-6 0,-2 -1,-3 -2,-3 0,-1 -1,-2 -1,-2 0,-1 0,-3 0,-4 0,-10 0,-21 1,-31 0,-11 1,-22 1,-33 1,-14 3,-30 5,-45 2,-8 5,-19 13,-24 8,-4 11,4 13,11 0,1 0,2 1,4 4,-28 8,-25 11,-11 2,-6 5,-11 10,-13 8,-4 11,5 13,12 0,1 0,2 1,3 4,-30 8,-28 11,-14 2,-5 5,-10 10,-12 8,-3 11,6 12,13 1,2 1,4 2,6zm617 -56c3,-8 7,4 10,21 4,1 7,1 11,1 -1,8 -1,17 -2,27 -1,7 2,14 6,58 -5,0 -11,-1 -16,-1 -1,5 -1,10 -1,17 -1,-6 -3,-12 -4,-17 -4,-1 -8,-1 -13,-1 6,-36 9,-41 11,-46 3,-8 1,-39 -2,-59zm35 2c4,-7 8,5 11,22 3,0 7,1 11,1 -1,8 -2,17 -2,27 -1,8 2,14 6,57 -6,0 -11,0 -16,-1 -1,5 -1,11 -1,18 -1,-7 -3,-13 -4,-18 -4,-1 -9,-1 -13,-1 5,-35 9,-40 11,-45 2,-9 1,-40 -3,-60zm36 3c3,-6 7,6 10,22 4,1 8,1 12,2 -1,7 -2,17 -3,28 0,7 2,13 6,56 -5,-1 -10,-1 -15,-2 0,5 -1,11 -1,19 -2,-8 -3,-14 -4,-19 -4,-1 -9,-1 -13,-1 5,-34 9,-39 10,-44 3,-8 1,-41 -2,-61zm36 4c3,-6 6,6 9,22 4,1 8,1 13,2 -1,8 -2,17 -3,29 0,7 2,13 6,54 -5,0 -10,-1 -15,-1 0,5 -1,11 -1,19 -1,-8 -3,-14 -4,-20 -5,0 -9,-1 -13,-1 5,-33 8,-37 10,-42 3,-9 1,-42 -2,-62zm35 4c3,-4 7,7 10,23 4,0 8,1 12,2 -1,8 -1,18 -2,29 -1,7 2,14 6,54 -5,-1 -10,-1 -15,-2 -1,5 -1,12 -1,20 -2,-8 -3,-15 -5,-21 -4,0 -8,-1 -12,-1 5,-32 8,-36 10,-41 3,-8 1,-43 -3,-63zm36 5c3,-3 6,8 9,23 4,1 9,2 13,2 -1,9 -2,19 -2,31 -1,7 1,14 5,52 -5,-1 -10,-1 -15,-2 0,6 0,13 0,21 -2,-8 -4,-16 -5,-22 -4,-1 -8,-1 -12,-2 4,-30 8,-34 9,-39 2,-5 2,-16 2,-28 -1,-12 -2,-26 -4,-36zm35 6c3,-2 6,9 9,23 5,1 9,2 14,3 -1,8 -2,19 -3,31 0,7 2,14 6,51 -5,-1 -10,-1 -15,-2 0,6 0,13 0,22 -3,-9 -4,-17 -6,-23 -4,-1 -8,-2 -11,-2 4,-29 8,-33 9,-38 2,-4 2,-15 1,-28 0,-13 -2,-27 -4,-37zm36 7c3,-2 6,9 8,22 5,2 10,3 15,4 -1,8 -2,19 -3,33 0,6 2,13 6,49 -5,-1 -11,-2 -16,-3 0,6 0,14 1,23 -3,-9 -5,-17 -6,-24 -4,-1 -8,-1 -11,-2 4,-27 8,-31 9,-36 2,-4 2,-16 1,-29 -1,-13 -2,-27 -4,-37zm35 8c3,-1 6,9 9,22 5,1 10,2 15,4 -1,9 -2,20 -3,34 0,7 2,13 5,48 -5,-1 -10,-3 -15,-4 0,6 0,14 0,24 -2,-10 -4,-18 -6,-25 -4,-1 -7,-1 -10,-2 4,-26 8,-29 9,-34 1,-4 2,-16 1,-29 -1,-14 -2,-28 -5,-38zm36 9c3,-1 6,8 8,21 5,2 11,3 16,4 -1,9 -2,21 -3,36 -1,7 1,13 5,46 -5,-1 -11,-2 -16,-4 0,7 0,15 0,25 -2,-10 -5,-19 -6,-26 -3,-1 -6,-1 -9,-2 4,-24 7,-28 9,-32 1,-5 1,-17 1,-30 -1,-14 -3,-29 -5,-38zm36 9c2,0 5,9 7,21 6,2 11,4 17,5 -1,9 -2,22 -3,38 -1,6 1,12 4,44 -5,-2 -10,-3 -15,-5 -1,7 -1,15 0,26 -3,-11 -5,-20 -7,-27 -3,-1 -5,-2 -8,-2 4,-23 7,-26 9,-30 1,-5 1,-17 0,-31 0,-14 -2,-29 -4,-39zm35 11c3,-1 5,8 8,20 4,20 8,50 6,58 -1,4 -3,7 -4,24 0,7 -1,15 0,27 -3,-12 -5,-21 -7,-29 -2,0 -4,-1 -7,-2 4,-20 7,-23 8,-27 2,-5 2,-18 1,-32 -1,-14 -3,-30 -5,-39zm-401 37c-6,0 -12,-1 -17,-1 -1,5 -1,10 -1,17 -2,-6 -3,-12 -4,-17 -4,0 -8,0 -13,0 6,-37 10,-42 11,-47 3,-8 1,-39 -2,-59 4,-9 8,4 11,21 3,0 7,1 10,1 0,7 -1,16 -2,26 0,7 2,14 7,59zm-36 -1c-6,-1 -12,-1 -17,-1 -1,5 -1,10 -2,16 -1,-6 -2,-11 -3,-16 -4,0 -8,0 -12,0 5,-38 9,-43 11,-48 2,-8 1,-37 -2,-57 3,-12 7,2 10,20 4,0 7,0 11,0 -1,7 -2,16 -2,26 -1,7 2,14 6,60zm-36 -1c-6,0 -12,-1 -18,-1 0,5 -1,10 -1,16 -1,-6 -2,-11 -3,-16 -4,0 -8,0 -12,0 5,-38 9,-43 11,-48 2,-8 1,-37 -2,-57 4,-12 8,1 11,20 3,0 7,0 10,0 -1,7 -1,16 -2,25 -1,8 2,15 6,61zm-35 -1c-7,0 -13,0 -19,0 -1,4 -1,10 -2,15 0,-5 -1,-10 -2,-15 -4,0 -8,0 -12,0 6,-38 10,-44 11,-49 3,-8 2,-36 -1,-56 4,-13 8,1 11,19 3,0 6,0 9,0 0,7 -1,16 -2,25 0,8 3,15 7,61zm-36 0c-6,0 -13,0 -19,0 -1,5 -1,10 -2,15 -1,-5 -1,-10 -2,-15 -4,0 -8,0 -11,0 5,-39 9,-44 11,-49 2,-8 1,-35 -2,-55 4,-15 8,-1 11,18 3,0 7,0 10,0 -1,7 -2,15 -2,25 -1,8 2,14 6,61zm-35 0c-7,1 -14,1 -20,1 -1,4 -2,9 -2,15 -1,-6 -2,-11 -2,-15 -4,0 -7,0 -11,0 5,-39 9,-45 11,-50 2,-8 1,-34 -1,-53 4,-17 8,-3 11,17 3,0 6,0 9,0 -1,7 -1,15 -2,24 0,8 2,14 7,61zm-36 1c-7,0 -14,1 -21,1 0,4 -1,9 -2,15 0,-6 -1,-11 -1,-15 -4,0 -7,0 -11,0 6,-39 10,-44 11,-50 3,-7 2,-33 -1,-53 4,-17 9,-3 12,17 3,0 5,0 8,0 0,7 -1,15 -1,24 -1,7 2,14 6,61zm-36 2c-7,0 -14,0 -21,1 0,4 -1,9 -2,14 -1,-5 -1,-10 -2,-14 -3,0 -6,0 -9,0 5,-39 9,-45 11,-50 2,-8 1,-33 -1,-52 4,-20 9,-5 11,16 3,0 6,0 9,-1 -1,7 -1,15 -2,24 -1,8 2,14 6,62zm-35 1c-7,1 -15,1 -22,2 -1,4 -2,9 -2,15 -1,-6 -1,-11 -2,-15 -3,0 -6,1 -9,1 6,-40 10,-46 11,-51 3,-7 2,-32 -1,-52 5,-20 9,-5 12,16 3,0 5,0 8,0 0,6 -1,14 -2,23 0,8 3,14 7,61zm-36 3c-7,1 -15,1 -22,2 -1,4 -2,9 -3,15 0,-6 0,-10 -1,-15 -3,0 -5,1 -8,1 5,-40 9,-45 11,-51 2,-7 1,-31 -1,-51 5,-22 9,-6 12,15 2,0 5,0 8,0 -1,6 -2,14 -2,23 -1,7 2,14 6,61zm-35 3c-8,1 -16,2 -23,2 -1,5 -2,10 -3,16 0,-6 -1,-11 -1,-15 -3,0 -5,1 -8,1 6,-40 10,-46 11,-51 2,-8 2,-31 -1,-50 5,-24 10,-8 13,14 2,0 4,0 7,0 -1,6 -1,14 -2,22 0,8 3,14 7,61zm-36 4c-8,1 -15,2 -23,3 -1,4 -2,9 -3,15 0,-5 -1,-10 -1,-15 -2,1 -5,1 -7,2 5,-40 9,-46 11,-52 2,-8 2,-32 -1,-50 5,-24 10,-7 12,15 3,0 5,-1 7,-1 0,7 -1,14 -1,22 -1,8 2,14 6,61zm-35 5c-8,1 -16,2 -24,3 -1,5 -2,10 -3,15 0,-5 0,-10 0,-14 -3,0 -5,1 -8,1 6,-40 10,-46 11,-52 2,-7 2,-29 0,-48 5,-26 10,-9 13,13 2,0 4,0 6,-1 -1,7 -1,14 -2,22 0,8 3,14 7,61zm-36 5c-8,2 -16,3 -24,5 -1,4 -2,9 -3,15 0,-6 0,-11 0,-15 -3,0 -5,1 -7,1 5,-40 9,-46 11,-51 2,-8 1,-30 -1,-48 6,-29 11,-11 13,13 2,-1 4,-1 6,-2 0,7 -1,14 -1,22 -1,7 2,14 6,60zm-35 7c-8,1 -16,3 -24,4 -1,5 -2,10 -4,15 0,-5 0,-10 0,-14 -2,0 -5,1 -7,1 6,-40 10,-46 11,-52 3,-8 2,-29 0,-47 6,-30 11,-12 13,12 2,0 4,0 6,-1 -1,6 -1,13 -2,21 0,8 3,14 7,61zm-36 7c-8,1 -16,3 -24,5 -1,4 -2,9 -3,15 0,-5 0,-10 0,-14 -3,0 -5,1 -7,1 5,-40 9,-46 11,-52 2,-8 1,-28 0,-45 6,-33 11,-15 13,10 2,-1 4,-1 5,-1 0,6 -1,13 -1,20 -1,8 2,14 6,61zm-106 28c-8,3 -17,6 -25,9 -1,3 -1,7 -2,12 0,-4 0,-8 0,-11 -3,1 -5,1 -8,2 6,-43 10,-49 12,-56 2,-7 2,-27 0,-44 6,-39 12,-17 14,10 1,0 3,-1 4,-1 0,5 -1,11 -1,18 -1,8 2,14 6,61zm-35 12c-6,3 -16,7 -24,11 -1,-3 -2,-5 -4,-7 0,-22 2,-44 3,-62 1,-18 3,-33 5,-43 3,-18 9,-16 11,24 1,0 2,0 3,-1 0,5 0,11 -1,17 0,8 3,13 7,61z"/>
   <path class="fil1" d="M464 687c-1,-7 -3,-13 -6,-18 0,-1 0,-2 -1,-3 0,-67 -37,-274 -34,-326 1,-26 -4,-76 23,-64 -1,3 -2,7 -2,10 -22,146 -7,245 30,392 35,142 45,310 114,438 13,23 41,53 43,69 -10,-4 -27,-25 -33,-34 -9,-13 -17,-25 -26,-39 -31,-49 -64,-125 -82,-182 -4,-13 -18,-206 -21,-209 -1,0 -1,0 -2,1l1 -3c1,-11 -1,-22 -4,-32zm502 -468c17,196 -23,381 -13,578 6,136 -24,520 -73,646 32,-87 49,-288 55,-387 5,-90 0,-172 3,-259 5,-183 41,-394 28,-578zm34 -57c-6,189 -4,408 39,600 94,418 434,583 477,848 -2,-4 -3,-9 -5,-15 -185,-602 -561,-354 -511,-1433zm-97 50c3,130 -29,348 -57,476 -19,89 -62,258 -130,319 48,-46 82,-154 98,-217 15,-61 18,-112 29,-171 23,-125 60,-279 60,-407zm-448 1303c-10,-8 -83,-139 -93,-138 -5,16 131,182 140,189 30,22 81,47 113,64l44 19c5,2 8,4 14,7 11,4 20,7 30,11 9,3 20,8 30,11 20,5 103,34 126,22 -5,-9 -5,-6 -13,-8l-48 -10c-114,-22 -252,-97 -343,-167zm-6 -997c-5,-17 20,-221 8,-230 -18,14 -3,309 2,325 16,49 50,120 71,166l32 59c4,7 6,12 10,19 9,14 16,25 24,38 7,12 15,27 24,38 17,23 83,126 118,133 2,-13 -1,-10 -8,-20l-44 -52c-105,-123 -194,-323 -237,-476zm1023 -297c42,121 20,217 -13,317 -21,64 -128,200 -177,250l-11 11c48,-54 91,-114 125,-180 17,-32 26,-64 42,-94 47,-88 70,-187 34,-304zm49 261c-16,61 -43,168 -67,225 -22,53 -15,57 6,10 6,-12 11,-26 15,-39 9,-27 17,-53 25,-81 8,-28 15,-55 24,-82 4,-15 10,-174 19,-180 12,70 15,251 -12,317 -24,58 -46,96 -70,148 -5,10 -10,15 -6,22 12,-5 24,-37 30,-49 18,-36 31,-67 48,-103 6,-12 18,-46 26,-52 22,22 -9,109 -23,132 -16,25 -54,61 -59,80 8,-4 8,-4 13,-9 75,-78 69,-40 93,-134 17,-63 -8,-85 -8,-93 -2,-24 7,-50 4,-96 -54,-463 -48,-100 -58,-16z"/>
   <path class="fil1" d="M1664 1690c-8,17 -6,40 1,56 -2,-5 -31,-5 -59,12 5,-26 29,-54 58,-68z"/>
   <path class="fil1" d="M344 1739c12,17 12,40 -1,55 8,-3 39,-3 60,12 -6,-26 -30,-52 -59,-67z"/>
  </g>
 </g>
</svg>
