<svg xmlns="http://www.w3.org/2000/svg" xml:space="preserve" width="8.47433in" height="11.3905in" version="1.1" style="shape-rendering:geometricPrecision; text-rendering:geometricPrecision; image-rendering:optimizeQuality; fill-rule:evenodd; clip-rule:evenodd"
viewBox="0 0 13583 18257"
 xmlns:xlink="http://www.w3.org/1999/xlink">
 <defs>
  <style type="text/css">
   <![CDATA[
    .fil02 {fill:black}
    .fil0 {fill:white}
    .fil01 {fill:white}
   ]]>
  </style>
 </defs>
 <g id="Layer_x0020_1">
  <metadata id="CorelCorpID_0Corel-Layer"/>
  <g id="_946233360">
   <path class="fil02" d="M2094 8687c-124,219 -484,817 -484,1063 0,787 35,2314 -685,2784 -281,183 -608,1856 -784,2201 -89,175 711,1577 740,1909 122,-1116 1248,-6500 2252,-7556 -135,-62 -1022,-400 -1039,-401z"/>
   <path class="fil02" d="M9665 6622c189,220 725,817 798,1063 232,787 647,2314 1506,2784 335,183 1155,1856 1433,2201 141,175 -246,1577 -177,1909 -451,-1116 -3165,-6500 -4480,-7556 116,-62 903,-400 920,-401z"/>
   <path class="fil02" d="M9660 6793c223,256 590,682 666,886 96,259 182,621 282,908 206,596 559,1451 1144,1881 279,205 200,83 431,420 403,588 696,1225 1101,1819 37,157 -93,825 -164,1284 -886,-1915 -2960,-5789 -4113,-6912 199,-88 518,-224 653,-286zm3628 5919c4,6 8,12 12,18 -6,-8 -9,-12 -12,-18zm-203 1842l1 8 4 0c34,63 62,108 79,120 226,159 204,-130 207,-231 14,-391 342,-1560 142,-1852 -397,-579 -694,-1227 -1097,-1815 -249,-363 -213,-290 -533,-525 -450,-332 -754,-1029 -925,-1488 -140,-374 -224,-749 -349,-1092 -125,-341 -572,-828 -835,-1131 -5,-6 -10,-12 -16,-17l-1 -1 -1 -1 -3 -2 0 0c-15,-14 -31,-26 -49,-34l-3 -2 0 0c-1,0 -2,-1 -3,-2 -20,-9 -40,-14 -61,-16l-1 0 -2 0 -2 0 -1 0c-26,-1 -50,4 -70,18 -235,77 -494,205 -716,304 -293,132 -360,140 -59,422 1163,1090 3236,5095 3944,6580 41,85 230,530 350,757z"/>
   <path class="fil02" d="M2159 8863c-148,256 -389,682 -405,887 -20,258 1,621 -14,907 -31,596 -131,1451 -589,1881 -219,205 -176,83 -308,421 -229,587 -334,1224 -564,1818 9,157 336,825 543,1284 321,-1915 1252,-5789 2074,-6912 -225,-87 -584,-224 -737,-286zm-1882 5919c-3,6 -5,12 -7,18 3,-8 5,-12 7,-18zm745 1842l2 8 -4 0c-15,64 -30,108 -44,120 -179,159 -242,-130 -275,-231 -129,-391 -802,-1560 -688,-1852 226,-579 332,-1227 562,-1815 142,-363 127,-289 377,-525 353,-332 451,-1029 488,-1487 29,-374 2,-750 26,-1092 24,-342 328,-829 501,-1132 4,-6 7,-12 11,-17l1 -1 1 -1 1 -2 1 0c11,-14 24,-25 38,-34l3 -2 1 0c0,0 1,-1 2,-1 17,-9 36,-15 56,-17l1 0 2 0 2 0 1 0c25,-1 51,5 75,18 259,78 555,205 806,304 332,132 402,140 184,422 -842,1090 -1733,5095 -2004,6580 -15,85 -73,531 -127,757z"/>
   <path class="fil01" d="M5688 13c1509,-186 4265,1661 4685,3071 240,807 145,1569 43,2396 414,-114 764,-228 928,176 128,316 138,791 106,1149 -65,730 -331,1374 -643,1870 -271,431 -356,240 -367,884 -8,418 -22,840 0,1259 30,587 157,789 285,1028 2375,4440 -8337,10122 -8088,3121 32,-901 48,-1410 20,-2381 -48,-1676 -258,-1171 -556,-2330 -65,-250 -69,-259 -235,-395 -585,-480 -959,-1265 -1063,-2159 -68,-584 -9,-1766 799,-1739 -20,-352 -127,-765 -159,-1162 -130,-1619 332,-2622 1565,-3571 735,-565 1685,-1094 2680,-1217z"/>
   <path class="fil02" d="M8136 3616c339,6 1275,1228 1173,1513 136,-282 307,-469 421,-876 109,-389 106,-814 -12,-1183 -181,-564 -778,-1277 -1169,-1454 271,326 1644,1994 -413,2000zm-3935 2155c448,5 799,-425 530,-631 46,2 94,4 143,7 -1320,-531 -2590,337 -1927,681 105,54 171,66 296,37 -185,-33 -271,-76 -347,-223 -138,-265 1699,-625 1782,-366 79,251 -232,403 -477,495zm2660 -13c-319,-44 -624,-195 -613,-474 3,-72 34,-130 87,-176 -22,6 -44,13 -67,21 425,-420 1494,-537 2540,262 51,-170 26,-331 -84,-483 19,16 37,31 55,47 188,168 179,246 294,493 219,474 598,339 425,1755 -228,1853 344,1512 -129,2789 -206,557 -467,1083 -852,1509 -158,174 -186,241 -485,188 -55,289 -105,560 -250,769 -167,240 -365,267 -542,450 294,-24 641,-238 908,-359 565,-258 1405,-1403 1716,-1943 64,74 16,-5 54,94 224,584 106,2424 142,3211 35,-114 260,-506 333,-654 247,-500 336,-818 90,-1387 -239,-552 -343,-2597 -102,-2912 180,-235 353,-447 507,-752 287,-567 491,-1392 390,-2137 -68,-505 -409,-493 -644,-400 -590,285 -105,513 -601,681 225,-1271 537,-2645 -203,-3706 -573,-824 -1346,-1449 -2422,-1948 -1300,-604 -2292,-367 -3455,221 -810,409 -1983,1368 -2142,2345 222,-284 984,-1174 1984,-1260 -940,444 -1222,789 -1890,1745 -264,377 -208,468 -166,1011 435,-607 1262,-1818 2834,-2047 -622,244 -2262,804 -2547,3835 -43,-64 -140,-108 -216,-172 -143,-120 -83,-91 -194,-228 -749,-130 -721,1311 -620,1870 111,615 444,1316 980,1618l-76 -508c-67,-31 -10,-2 -71,-14 -211,-38 -296,-184 -410,-379 -97,-164 -227,-448 -272,-642 681,1195 974,327 504,-21 -544,-403 -259,-1617 -523,-507 -45,-1512 623,-789 785,283 36,240 15,568 104,763 104,230 82,386 179,622 216,-723 483,-1615 1380,-1770 -471,177 -1074,976 -523,1445 99,-275 239,-436 395,-630 -68,346 -281,917 -74,1257 377,619 132,135 35,1067 -46,443 -94,900 164,1254 333,458 484,490 495,962 262,149 535,342 893,394 -130,-205 -343,-404 -491,-602 -498,-662 -925,-1397 -349,-2052 488,-556 929,-896 1706,-883 966,17 714,-20 1417,358 134,73 280,98 366,190 -685,60 -1439,-1 -2137,35 -545,28 -1366,131 -1260,888 217,157 363,123 684,105 -56,-190 -127,-171 -140,-391 179,-71 809,31 1071,30 602,-3 634,-113 1023,-158 77,127 44,109 44,276 319,128 428,149 678,217 186,-368 192,-690 -102,-957 224,22 409,117 561,275l117 135c230,-135 584,-674 726,-943 334,-632 264,-595 59,-1273 -430,-1422 520,-865 341,-1880 -58,-330 -573,-1188 -1102,-1358 284,137 411,310 168,469 -130,85 -252,74 -402,55 89,-17 213,-35 291,-76 637,-334 -1560,-775 -1821,-439 -169,218 272,446 452,527zm15 2434c-228,-46 -797,254 -1170,261 -491,9 -713,-265 -1059,-275 44,596 604,1242 1151,1214 443,-22 1152,-627 1078,-1200zm-4239 6775c-249,7001 10463,1319 8088,-3121 -128,-239 -255,-441 -285,-1028 -22,-419 -8,-841 0,-1259 11,-644 96,-453 367,-884 312,-496 578,-1140 643,-1870 32,-358 22,-833 -106,-1149 -164,-404 -514,-290 -928,-176 102,-827 197,-1589 -43,-2396 -420,-1410 -3176,-3257 -4685,-3071 -995,123 -1945,652 -2680,1217 -1233,949 -1695,1952 -1565,3571 32,397 139,810 159,1162 -808,-27 -867,1155 -799,1739 104,894 478,1679 1063,2159 166,136 170,145 235,395 298,1159 508,654 556,2330 28,971 12,1480 -20,2381zm357 -2979c373,281 273,464 290,744 47,746 613,2617 289,2714 -161,49 -431,-355 -481,-515 -112,-353 -318,-2532 -98,-2943zm1570 11c130,-136 331,-298 573,-331 269,-68 550,932 1423,-155 557,45 1342,582 -123,898 -349,75 -736,132 -1109,86 -348,-42 -746,-197 -764,-498zm5756 -5202c1062,244 -549,862 -6,1663l123 -155 278 -549c185,-362 617,-1323 348,-1701 -493,-691 -773,228 -743,742z"/>
   <path class="fil02" d="M2091 2526c-502,167 -693,2485 -447,3001 2340,-1572 6224,-1406 8411,-398 288,133 225,-290 231,-519 21,-870 -286,-1892 -775,-2380 -573,-573 -1531,-547 -2243,-765 674,47 1283,135 1742,254 -444,-394 -971,-730 -1602,-1023 -1300,-604 -2292,-367 -3455,221 -435,219 -964,573 -1386,1005 334,-131 733,-234 1170,-311 -758,395 -1033,284 -1646,915zm7808 -335c729,905 1059,3510 387,3283 -2300,-776 -6150,-1308 -8442,463 -316,244 -394,-133 -531,-535 -173,-510 -70,-2389 501,-3024 131,-146 246,-220 396,-399 217,-260 482,-506 798,-749 735,-565 1685,-1094 2680,-1217 1077,-133 2788,770 3833,1810 114,114 284,251 378,368z"/>
   <path class="fil0" d="M2091 2526c-502,167 -693,2485 -447,3001 2340,-1572 6224,-1406 8411,-398 288,133 225,-290 231,-519 21,-870 -286,-1892 -775,-2380 -573,-573 -1531,-547 -2243,-765 674,47 1283,135 1742,254 -444,-394 -971,-730 -1602,-1023 -1300,-604 -2292,-367 -3455,221 -435,219 -964,573 -1386,1005 334,-131 733,-234 1170,-311 -758,395 -1033,284 -1646,915z"/>
  </g>
 </g>
</svg>
