<svg xmlns="http://www.w3.org/2000/svg" xml:space="preserve" width="8.16325in" height="19.391in" version="1.1" style="shape-rendering:geometricPrecision; text-rendering:geometricPrecision; image-rendering:optimizeQuality; fill-rule:evenodd; clip-rule:evenodd"
viewBox="0 0 2912 6916"
 xmlns:xlink="http://www.w3.org/1999/xlink">
 <defs>
  <style type="text/css">
   <![CDATA[
    .filscr1 {fill:black}
    .fil0 {fill:white}
    .filscr0 {fill:white}
   ]]>
  </style>
 </defs>
 <g id="Layer_x0020_1">
  <metadata id="CorelCorpID_0Corel-Layer"/>
  <g id="_946232464">
   <path class="filscr0" d="M1092 3c336,-41 949,370 1042,683 54,180 33,349 10,533 92,-25 170,-50 206,40 29,70 31,176 24,255 -15,163 -74,306 -143,417 -60,95 -79,53 -82,196 -2,93 -5,187 0,280 7,131 35,176 64,229 528,988 -1856,2252 -1800,695 7,-201 10,-314 4,-530 -10,-373 -57,-261 -124,-519 -14,-55 -15,-57 -52,-88 -130,-106 -213,-281 -236,-480 -16,-130 -2,-393 177,-387 -4,-78 -28,-170 -35,-259 -29,-360 74,-583 348,-794 164,-126 375,-244 597,-271z"/>
   <path class="filscr1" d="M1637 805c75,1 283,273 260,336 31,-62 69,-104 94,-194 24,-87 24,-182 -3,-264 -40,-125 -173,-284 -260,-324 61,73 366,444 -91,446zm-876 479c100,1 178,-94 118,-140 10,0 21,1 32,1 -294,-118 -577,75 -429,152 23,12 38,15 66,8 -42,-7 -61,-17 -78,-49 -30,-59 379,-140 397,-82 18,56 -52,90 -106,110zm592 -3c-71,-9 -139,-43 -137,-105 1,-16 8,-29 20,-39 -5,1 -10,3 -15,4 94,-93 332,-119 565,59 11,-38 6,-74 -19,-108 4,4 8,7 13,11 41,37 39,54 65,109 49,106 133,76 94,391 -50,412 77,336 -28,620 -46,124 -104,241 -190,336 -35,39 -41,54 -108,42 -12,65 -23,125 -55,171 -37,54 -82,60 -121,100 66,-5 143,-53 202,-80 126,-57 313,-312 382,-432 14,16 4,-1 12,21 50,130 23,539 32,715 7,-26 57,-113 74,-146 55,-111 74,-182 20,-309 -53,-122 -77,-577 -23,-648 40,-52 78,-99 113,-167 64,-126 109,-310 87,-475 -15,-113 -91,-110 -144,-90 -131,64 -23,115 -133,152 50,-283 119,-589 -46,-825 -127,-183 -299,-322 -538,-433 -290,-135 -511,-82 -769,49 -181,91 -442,305 -477,522 49,-63 219,-261 441,-280 -209,98 -272,175 -420,388 -59,84 -46,104 -37,225 97,-135 281,-405 631,-456 -139,55 -504,179 -567,854 -10,-15 -31,-24 -48,-39 -32,-26 -19,-20 -43,-50 -167,-29 -161,291 -138,416 24,137 98,293 218,360l-17 -113c-15,-7 -2,-1 -16,-3 -47,-9 -66,-41 -91,-85 -22,-36 -51,-99 -61,-143 152,266 217,73 112,-4 -121,-90 -57,-360 -116,-113 -10,-336 139,-176 175,63 8,53 3,126 23,170 23,51 18,86 40,138 48,-161 107,-359 307,-394 -105,40 -239,217 -117,322 22,-61 54,-97 88,-140 -15,77 -62,204 -16,279 84,138 29,30 8,238 -11,98 -21,200 36,279 74,102 108,109 110,214 59,33 119,76 199,88 -29,-46 -76,-90 -109,-134 -111,-148 -206,-311 -78,-457 109,-124 207,-199 380,-196 215,3 158,-5 315,79 30,16 62,22 81,43 -152,13 -320,-1 -475,7 -121,6 -304,30 -281,198 49,35 81,27 153,23 -13,-42 -29,-38 -31,-87 39,-16 179,7 238,7 134,-1 141,-25 227,-35 18,28 10,24 10,61 71,29 96,33 151,48 42,-81 43,-153 -23,-212 50,4 91,25 125,61l26 30c51,-30 130,-150 162,-210 74,-141 59,-133 13,-283 -96,-317 116,-193 76,-419 -13,-73 -128,-264 -245,-302 63,31 91,69 37,104 -29,19 -56,17 -89,13 20,-4 47,-8 64,-17 142,-74 -347,-173 -405,-98 -38,49 61,99 101,117zm3 542c-51,-10 -177,57 -260,58 -109,2 -159,-59 -236,-61 10,133 135,276 256,270 99,-5 257,-140 240,-267zm-943 1508c-56,1557 2328,293 1800,-695 -29,-53 -57,-98 -64,-229 -5,-93 -2,-187 0,-280 3,-143 22,-101 82,-196 69,-111 128,-254 143,-417 7,-79 5,-185 -24,-255 -36,-90 -114,-65 -206,-40 23,-184 44,-353 -10,-533 -93,-313 -706,-724 -1042,-683 -222,27 -433,145 -597,271 -274,211 -377,434 -348,794 7,89 31,181 35,259 -179,-6 -193,257 -177,387 23,199 106,374 236,480 37,31 38,33 52,88 67,258 114,146 124,519 6,216 3,329 -4,530zm79 -663c83,62 61,103 65,165 10,166 136,582 64,604 -36,11 -96,-79 -107,-114 -25,-79 -71,-564 -22,-655zm349 2c30,-30 74,-66 128,-74 60,-15 123,208 317,-34 124,10 298,129 -28,200 -77,17 -163,29 -246,19 -78,-9 -166,-44 -171,-111zm1282 -1157c236,54 -123,191 -2,370l27 -35 62 -122c42,-81 138,-294 78,-379 -110,-153 -172,51 -165,166z"/>
   <g>
    <path class="fil0" d="M655 3931c256,283 576,553 799,841 332,428 362,940 393,1421 214,-70 297,-182 460,-297 152,-108 346,-135 548,-130 -39,-398 -62,-822 -505,-1102 -359,-227 -881,-395 -1163,-675 -275,29 -316,-1 -532,-58z"/>
    <path class="filscr1" d="M655 3931c256,283 576,553 799,841 332,428 362,940 393,1421 214,-70 297,-182 460,-297 152,-108 346,-135 548,-130 -39,-398 -62,-822 -505,-1102 -359,-227 -881,-395 -1163,-675 -275,29 -316,-1 -532,-58zm-88 -26l0 0 0 -1 0 0 0 0 0 0 0 0 -1 -1 0 0 0 0 0 0c-1,-2 -2,-4 -2,-5l0 0 -1 -1 0 0 0 0 0 0 0 -1 0 0 0 0 0 0 0 0c0,-2 0,-4 1,-6l0 0 0 -1c0,0 0,0 0,0l0 0 0 -1 0 0 0 0 0 0 0 0 1 -1 0 0 0 0 0 0 0 -1 0 0 0 0 0 0 1 0 0 -1 0 0 0 0 0 0 0 0 0 -1 1 0 0 0 0 0 0 -1 0 0 0 0 1 0 0 0 0 -1 0 0 0 0 1 0 0 0 0 -1 0 0 0 0 1 0 0 0 0 0 0 -1 0 0 0 0 1 0 0 0 0 0 0 0 1 -1 0 0 0 0 0 0 1 0 0 0 0 -1 0 0 1 0 0 0 0 0 0 0 1 0 0 -1 0 0 0 0 1 0 0 0 0 0 0 0 1 0 0 0 0 -1 0 0c3,0 5,-1 8,-1l0 0 0 -1 0 0 1 0 0 0 0 0 1 0 0 0 0 0 0 0c3,0 5,0 8,1l0 0 1 0c0,0 0,0 1,0l0 0 0 0 1 0 0 0 0 0c0,0 1,0 1,0 217,53 293,103 532,81 95,-9 69,-19 117,28 250,243 807,442 1137,651 440,277 478,681 518,1077 10,92 30,94 -66,92 -179,-4 -361,26 -493,120 -149,105 -243,220 -441,294 -105,39 -106,34 -110,-37 -32,-487 -64,-993 -411,-1423 -236,-292 -560,-562 -815,-853z"/>
    <path class="filscr1" d="M2198 5875c141,-234 237,-537 121,-787 -23,-50 -29,-92 -55,-147 -107,-224 -323,-408 -579,-550 179,93 326,194 453,325 79,81 221,266 238,362 57,306 6,516 -178,797z"/>
    <path class="fil0" d="M1613 3877c-151,52 -268,86 -389,98 -122,12 -248,3 -419,-26 -17,193 -48,380 -93,562 -44,179 -102,351 -175,519 -78,183 -139,356 -184,531 -46,176 -77,355 -93,551 99,-10 195,-1 283,39 91,40 175,108 254,199 74,85 143,175 217,264 73,89 153,174 245,247 15,-222 45,-440 83,-656 38,-219 72,-442 102,-668 38,-275 72,-550 101,-825 30,-276 54,-553 68,-835z"/>
    <path class="filscr1" d="M1667 3849c-13,288 -37,570 -67,852 -30,282 -65,562 -104,846 -31,228 -66,452 -105,672 -39,219 -70,439 -84,664 -3,56 -27,38 -102,-26 -84,-71 -160,-159 -232,-247 -73,-89 -141,-178 -210,-257 -69,-77 -144,-137 -226,-175 -80,-37 -168,-51 -257,-40 -77,10 -72,11 -67,-44 15,-192 45,-372 91,-550 45,-176 105,-349 182,-530 69,-162 127,-331 172,-505 44,-177 76,-359 92,-544 7,-81 13,-48 189,-28 138,17 251,12 359,-7 108,-20 211,-55 330,-97 2,0 3,-1 5,-1 0,0 0,0 0,0 0,0 0,0 1,0 0,0 0,0 0,0 0,0 0,0 0,0 3,-1 7,-1 10,-1 0,0 0,0 0,0 0,1 0,1 1,1 0,0 0,0 0,0 0,0 0,0 0,0 3,0 6,0 9,1 0,0 0,0 0,0 0,0 0,0 0,0 0,0 0,0 0,0 0,0 0,0 0,0 3,2 6,3 9,5 0,0 0,0 0,0 0,1 0,1 0,1 0,0 0,0 0,0 0,0 0,0 0,0 2,1 3,3 3,5 0,0 0,0 0,0 0,0 0,0 0,0 0,0 0,0 1,0 0,0 0,0 0,0 0,2 1,3 0,5zm-54 28c-151,52 -268,86 -389,98 -122,12 -248,3 -419,-26 -17,193 -48,380 -93,562 -44,179 -102,351 -175,519 -78,183 -139,356 -184,531 -46,176 -77,355 -93,551 99,-10 195,-1 283,39 91,40 175,108 254,199 74,85 143,175 217,264 73,89 153,174 245,247 15,-222 45,-440 83,-656 38,-219 72,-442 102,-668 38,-275 72,-550 101,-825 30,-276 54,-553 68,-835z"/>
    <path class="filscr1" d="M865 6327c-165,-331 -226,-601 -233,-942 -2,-56 -4,-61 -4,-61 1,-16 16,-71 20,-91 62,-316 174,-598 331,-904 -50,107 -97,213 -138,321 -70,183 -152,460 -146,645l3 31c0,0 -13,60 -13,60 -39,312 40,638 180,941z"/>
    <path class="fil0" d="M403 3727c-119,-18 -164,-527 -106,-651 556,263 1477,80 1996,-226 69,-40 54,57 55,107 5,193 -90,428 -206,554 -136,150 -364,179 -533,255 160,-36 305,-78 413,-122 -533,302 -1066,553 -1506,200 80,17 174,25 278,25 -180,-59 -245,-24 -391,-142z"/>
    <path class="filscr1" d="M403 3727c-119,-18 -164,-527 -106,-651 556,263 1477,80 1996,-226 69,-40 54,57 55,107 5,193 -90,428 -206,554 -136,150 -364,179 -533,255 160,-36 305,-78 413,-122 -533,302 -1066,553 -1506,200 80,17 174,25 278,25 -180,-59 -245,-24 -391,-142zm1831 -221c122,-162 332,-887 29,-749 -9,4 16,41 7,45 -526,235 -1316,453 -1839,218 -26,-11 23,-83 -2,-97 -242,-137 -261,609 -91,848 401,567 1470,283 1896,-265z"/>
   </g>
  </g>
 </g>
</svg>
