<svg xmlns="http://www.w3.org/2000/svg" xml:space="preserve" width="9.51175in" height="12.2993in" version="1.1" style="shape-rendering:geometricPrecision; text-rendering:geometricPrecision; image-rendering:optimizeQuality; fill-rule:evenodd; clip-rule:evenodd"
viewBox="0 0 2865 3704"
 xmlns:xlink="http://www.w3.org/1999/xlink">
 <defs>
  <style type="text/css">
   <![CDATA[
    .fil1 {fill:black}
    .fil2 {fill:white}
    .fil0 {fill:white}
   ]]>
  </style>
 </defs>
 <g id="Layer_x0020_1">
  <metadata id="CorelCorpID_0Corel-Layer"/>
  <path class="fil0" d="M922 2c283,-34 801,313 880,578 45,151 27,294 8,450 78,-22 144,-43 175,33 24,59 25,148 20,216 -13,137 -63,258 -121,351 -51,81 -67,45 -69,166 -2,79 -4,158 0,237 5,110 29,148 53,193 447,834 -1566,1902 -1519,586 6,-169 9,-265 3,-447 -9,-315 -48,-220 -104,-438 -12,-47 -13,-49 -44,-74 -110,-90 -180,-238 -200,-406 -13,-109 -2,-332 150,-326 -4,-67 -24,-144 -30,-219 -24,-304 63,-493 294,-671 138,-106 317,-206 504,-229z"/>
  <path class="fil1" d="M1382 680c64,1 239,230 220,284 26,-53 58,-88 79,-165 21,-73 20,-153 -2,-222 -34,-106 -146,-240 -220,-273 51,61 309,374 -77,376zm-740 404c85,1 150,-79 100,-118 9,0 18,1 27,1 -248,-100 -487,63 -362,128 20,10 32,13 55,7 -34,-6 -50,-14 -65,-42 -26,-50 319,-117 335,-69 15,48 -44,76 -90,93zm500 -2c-60,-8 -117,-37 -115,-89 1,-14 7,-25 16,-33 -4,1 -8,2 -12,4 80,-79 281,-101 477,49 10,-32 5,-62 -16,-91 4,3 7,6 11,9 35,32 33,46 55,93 41,89 112,63 80,329 -43,349 64,285 -24,524 -39,105 -88,204 -161,284 -29,33 -35,45 -91,35 -10,55 -20,106 -47,145 -31,45 -68,50 -102,85 56,-5 121,-45 171,-68 106,-48 264,-264 323,-365 12,14 3,-1 10,18 42,109 19,455 26,603 7,-21 49,-95 63,-123 46,-94 63,-154 17,-261 -45,-103 -65,-488 -19,-547 33,-44 66,-84 95,-141 54,-107 92,-262 73,-402 -13,-94 -77,-92 -121,-75 -111,54 -19,97 -113,128 43,-239 101,-497 -38,-696 -108,-155 -253,-272 -455,-366 -244,-114 -431,-69 -649,41 -152,77 -373,257 -403,441 42,-53 185,-221 373,-237 -177,84 -230,148 -355,328 -50,71 -39,88 -31,190 82,-114 237,-342 532,-385 -116,46 -425,151 -478,721 -8,-12 -27,-20 -41,-32 -27,-23 -15,-17 -36,-43 -141,-25 -136,246 -117,351 21,116 84,247 184,304l-14 -95c-13,-6 -2,-1 -13,-3 -40,-7 -56,-34 -77,-71 -19,-31 -43,-84 -51,-121 128,225 183,62 94,-4 -102,-75 -48,-303 -98,-95 -8,-284 117,-148 148,53 6,45 2,107 19,144 20,43 15,72 34,117 40,-136 90,-304 259,-333 -88,33 -202,183 -98,271 18,-51 45,-82 74,-118 -13,65 -53,172 -14,236 71,117 25,26 7,201 -9,83 -18,169 30,235 63,86 91,92 93,181 50,28 101,65 168,74 -24,-38 -64,-76 -92,-113 -94,-124 -174,-262 -66,-385 92,-105 175,-169 321,-166 181,3 134,-4 266,67 25,14 53,18 69,36 -129,11 -270,-1 -402,6 -102,5 -256,25 -236,167 40,29 68,23 128,20 -10,-36 -24,-32 -26,-74 33,-13 152,6 201,6 113,-1 119,-21 192,-30 15,24 9,21 9,52 60,24 80,28 127,41 35,-69 36,-130 -19,-180 42,4 77,22 105,52l22 25c43,-25 110,-127 137,-177 63,-119 49,-112 11,-239 -81,-267 98,-163 64,-354 -11,-62 -108,-223 -207,-255 53,26 77,59 31,88 -24,16 -47,14 -75,11 17,-4 40,-7 54,-15 120,-62 -293,-145 -342,-82 -32,41 51,84 85,99zm3 457c-43,-8 -150,48 -220,49 -92,2 -134,-49 -199,-51 8,112 114,233 217,228 83,-4 216,-118 202,-226zm-796 1273c-47,1316 1966,248 1519,-586 -24,-45 -48,-83 -53,-193 -4,-79 -2,-158 0,-237 2,-121 18,-85 69,-166 58,-93 108,-214 121,-351 5,-68 4,-157 -20,-216 -31,-76 -97,-55 -175,-33 19,-156 37,-299 -8,-450 -79,-265 -597,-612 -880,-578 -187,23 -366,123 -504,229 -231,178 -318,367 -294,671 6,75 26,152 30,219 -152,-6 -163,217 -150,326 20,168 90,316 200,406 31,25 32,27 44,74 56,218 95,123 104,438 6,182 3,278 -3,447zm67 -560c70,53 51,88 54,140 9,141 115,492 54,510 -30,9 -81,-66 -90,-96 -21,-67 -60,-476 -18,-554zm295 3c24,-26 62,-56 107,-63 51,-12 104,176 268,-29 104,9 252,110 -23,169 -66,14 -139,25 -209,16 -65,-8 -140,-37 -143,-93zm1081 -978c200,46 -103,162 -1,313l23 -29 52 -104c35,-68 116,-248 66,-319 -93,-130 -146,43 -140,139z"/>
  <g id="_946215952">
   <path class="fil2" d="M1930 2347c29,145 19,253 -34,395 -92,244 -204,365 -252,642 402,17 792,271 1190,288 -23,-170 -61,-334 -102,-500 -45,-187 -116,-429 -139,-615 -9,-71 -2,-109 10,-127 -2,-1 -3,-2 -3,-2 -219,-109 -435,-84 -670,-81z"/>
   <path class="fil1" d="M1912 2317c297,-2 475,-37 748,110l0 0c4,4 7,7 7,9 5,19 -6,21 -21,16l-1 1c-30,-17 -27,8 -27,45 3,155 117,555 157,722 12,50 106,456 87,477 -25,29 -304,-39 -348,-51 -256,-71 -597,-219 -854,-231 -65,-3 -56,-1 -34,-98 61,-277 263,-521 287,-772 8,-77 1,-134 -16,-209 0,-1 0,-1 0,-2 0,-2 0,-3 0,-5l0 0 0 0 0 0 0 0 0 0c1,-2 2,-4 3,-6l0 0 0 0 0 0 0 0 0 0 1 -1 0 0 0 0 0 0c1,-1 2,-2 4,-3l0 0 0 0 0 0c1,-1 3,-1 5,-2 1,0 1,0 2,0zm18 30c29,145 19,253 -34,395 -92,244 -204,365 -252,642 402,17 792,271 1190,288 -23,-170 -61,-334 -102,-500 -45,-187 -116,-429 -139,-615 -9,-71 -2,-109 10,-127 -2,-1 -3,-2 -3,-2 -219,-109 -435,-84 -670,-81z"/>
   <path class="fil1" d="M2775 3606c-198,-174 -276,-392 -378,-630 -76,-178 -115,-305 -251,-455 -65,-71 -119,-110 -200,-160 51,30 85,51 131,88 151,125 273,337 344,518 96,250 147,450 354,639zm-1115 -245c200,-61 382,-113 582,-13 123,62 238,129 365,188 33,15 65,29 98,43 -48,-20 -96,-40 -143,-62 -131,-60 -265,-138 -397,-189 -165,-64 -342,-14 -505,33zm927 -928c-128,24 -103,206 -99,300 4,102 28,205 78,295 -51,-86 -99,-244 -96,-343 1,-88 7,-235 117,-252z"/>
  </g>
 </g>
</svg>
