<?xml version="1.0" encoding="UTF-8"?>
<!DOCTYPE svg PUBLIC "-//W3C//DTD SVG 1.1//EN" "http://www.w3.org/Graphics/SVG/1.1/DTD/svg11.dtd">
<!-- Creator: CorelDRAW X6 -->
<svg xmlns="http://www.w3.org/2000/svg" xml:space="preserve" width="100%" height="100%" version="1.1" style="shape-rendering:geometricPrecision; text-rendering:geometricPrecision; image-rendering:optimizeQuality; fill-rule:evenodd; clip-rule:evenodd"
viewBox="0 0 13250 14628"
 xmlns:xlink="http://www.w3.org/1999/xlink">
 <defs>
  <style type="text/css">
   <![CDATA[
    .fil1 {fill:black}
    .fil0 {fill:white}
   ]]>
  </style>
 </defs>
 <g id="Layer_x0020_1">
  <metadata id="CorelCorpID_0Corel-Layer"/>
  <path class="fil0" d="M2045 6547c-38,-27 -73,-58 -105,-93 -43,-49 -76,-104 -99,-163 3,111 6,221 11,332l2 52 -52 0c-118,0 -241,-18 -357,-40 -138,-26 -275,-60 -409,-98 -151,-43 -302,-92 -449,-147 -116,-42 -234,-89 -344,-144l-28 -14 0 -31c0,-35 0,-71 1,-106 1,-25 4,-49 10,-73 11,-37 30,-74 47,-108l14 -28 31 0c107,0 220,23 324,48 122,30 243,67 363,102 59,17 118,34 177,50l-867 -274 7 -43c33,-208 83,-415 169,-608 64,-143 142,-266 232,-392 82,-116 164,-228 235,-351 93,-162 160,-331 213,-510l1 -4 2 -4c18,-35 30,-82 40,-120 14,-59 26,-118 35,-177 8,-48 14,-96 19,-144 4,-40 7,-80 7,-120l0 -5 1 -4c118,-649 401,-1469 1034,-1785l3 -1 3 -1c155,-52 308,-106 462,-159 284,-97 568,-195 851,-293 212,-74 424,-148 636,-222 152,-54 304,-107 455,-162l0 -87 66 22c319,106 644,202 974,268 281,57 563,91 850,93 616,6 1215,-135 1803,-309l7 -2 7 0c39,0 73,18 91,54 1,2 3,5 4,8l388 97c52,1 94,13 142,29 40,13 74,24 117,24l7 0 538 161 1 1c349,116 704,216 1058,317 158,45 330,89 472,173 157,92 263,223 352,379 77,123 129,251 166,391 32,119 52,240 81,359 35,152 83,285 175,413l2 3 2 4c7,15 17,30 26,45 15,23 30,45 45,68 43,64 85,128 125,194 116,190 213,388 283,599 54,136 104,274 150,413 107,324 198,655 278,987 37,153 73,308 104,462l9 43 -42 14c-52,18 -105,33 -157,49 -66,21 -132,42 -196,66 -69,26 -185,73 -259,131 36,0 75,-9 105,-17 79,-22 156,-54 235,-78 102,-32 212,-56 319,-35l28 6 9 27c20,58 29,124 -11,176 -40,52 -116,68 -173,97l-1 1 -2 0c-149,60 -307,107 -460,149 -166,45 -335,85 -503,119 -129,26 -257,41 -388,48 -121,6 -243,6 -364,6l-4 0 -3 -1c-74,-10 -154,-10 -214,40 -46,39 -73,95 -121,134 -59,47 -126,52 -198,38l-31 -6 -8 -31c-5,-21 -5,-48 -5,-70 0,-35 2,-71 4,-106 8,-106 19,-212 31,-318 1,-6 1,-12 2,-18 -45,155 -95,310 -148,463 -101,315 -188,634 -270,954 -85,330 -165,660 -249,990 -117,459 -242,918 -398,1366 -150,432 -331,856 -566,1249 24,-32 47,-65 69,-98l1 0 0 -1c98,-140 188,-286 274,-435 93,-161 180,-325 265,-491 163,-320 315,-646 463,-974l1 -1 0 0c4,-9 7,-25 9,-34 6,-26 12,-52 17,-78 15,-83 29,-166 42,-249 39,-236 74,-473 110,-710 37,-244 74,-489 114,-733 14,-84 29,-167 46,-250 5,-26 10,-52 17,-77 5,-19 12,-41 26,-55l85 -86 0 121c0,16 14,43 21,57 16,31 30,61 32,96 17,76 29,153 41,229 15,100 27,200 38,300 25,237 42,475 50,713 7,212 8,427 -4,639 -6,95 -14,189 -27,283 -11,80 -25,160 -46,237 -8,59 -3,114 14,171 17,61 45,121 69,179 31,75 57,147 73,227 50,253 -16,519 -105,756l-1 2 -1 2c-60,120 -91,243 -75,376 6,50 18,98 33,146 14,43 30,86 44,129 59,176 2,241 -51,399 -8,47 -11,96 -14,144 -5,70 -7,141 -9,211 -6,175 -9,350 -15,525 -6,184 -14,371 -34,554 -13,110 -36,286 -93,382l-12 20 -23 3c-170,29 -346,28 -518,28 -181,0 -362,0 -542,25 -196,38 -390,84 -583,136 -163,44 -325,93 -488,137 -120,32 -241,62 -363,86 -136,27 -272,48 -411,62 -375,37 -758,29 -1134,4l-1 0 -2 0c-216,-24 -429,-63 -641,-114 -202,-49 -401,-109 -598,-176 -226,-77 -450,-162 -673,-247 -231,-89 -462,-178 -696,-261l-1 0 -1 -1c-50,-20 -103,-37 -155,-52 -61,-18 -124,-35 -186,-50 -112,-28 -226,-53 -340,-76 -52,-11 -104,-21 -157,-31l-29 -5 -9 -28c-110,-330 -5,-1079 106,-1410l25 -77 57 58c15,15 30,32 44,49 -39,-71 -74,-145 -107,-217 -60,-130 -114,-264 -161,-400 -54,-154 -103,-323 -123,-485 -15,-118 -18,-276 61,-374l25 -32 36 18c50,25 95,89 125,134 43,65 81,136 118,204 26,49 52,98 79,146 16,29 32,58 49,86 -22,-44 -45,-88 -67,-132 -54,-109 -96,-228 -130,-345 -43,-143 -76,-290 -104,-437 -66,-338 -108,-685 -136,-1029 -28,-340 -44,-684 -45,-1026 0,-147 2,-294 9,-441 6,-118 15,-237 30,-355l10 -69 62 31c26,13 43,47 55,81 -6,-43 -11,-86 -16,-129 -11,-86 -22,-172 -33,-258 -7,-56 -15,-113 -24,-169 -27,-110 -45,-225 -60,-337 -18,-143 -31,-286 -43,-429 -27,-336 -44,-673 -64,-1009 -13,-223 -27,-446 -46,-668 -16,-200 -36,-400 -66,-598 -17,-114 -56,-360 -127,-531 9,35 18,70 27,105l0 1 0 0c67,302 116,606 139,915 18,238 18,474 14,713 -3,236 -7,470 4,706 15,303 53,602 108,901l10 52 -53 7c-162,20 -343,12 -502,-45 17,8 34,17 52,25 142,66 299,105 453,133l41 7 0 42c0,4 1,9 2,14 2,12 4,24 1,37 -9,38 -45,53 -78,64 -23,7 -46,12 -69,17 -36,8 -72,16 -108,23l-5 1 -5 0c-161,0 -329,-39 -460,-136 -89,-65 -173,-169 -173,-285l0 -50 50 0c46,0 89,7 132,23 2,0 3,1 5,2zm1140 2478c-6,-19 -12,-38 -17,-58 2,17 4,33 7,50 9,77 19,155 31,232 4,26 8,51 12,76 3,12 5,26 8,37 81,161 155,325 222,492 -90,-275 -177,-552 -263,-829zm-1715 -2878c19,3 39,5 59,7 -20,-4 -40,-6 -59,-7zm7490 5272c-56,73 -117,142 -176,213 -36,43 -114,136 -174,225 6,-7 13,-13 20,-20 33,-33 65,-66 100,-97 24,-21 51,-44 80,-61 35,-96 91,-179 150,-260zm-5537 942c56,63 113,126 172,187 67,69 136,137 208,201 -5,-5 -9,-11 -13,-15 -83,-95 -175,-185 -265,-273 -34,-33 -68,-67 -102,-100zm204 -573c16,30 33,59 50,89 76,132 154,263 234,393l2 2 1 2c18,36 35,73 53,110 25,49 50,98 79,145 14,23 38,63 68,100 -9,-15 -17,-30 -24,-45 -130,-237 -268,-468 -407,-700 -18,-32 -37,-64 -56,-96zm235 -781c18,54 37,107 54,160 13,37 28,74 44,109 27,57 57,111 87,166 5,9 10,18 16,27 -73,-151 -139,-306 -201,-462zm272 594c13,28 25,57 36,86 8,21 16,44 27,64 7,12 15,23 25,33 22,21 41,43 60,66 4,4 14,17 19,20 2,1 5,2 10,3 -3,-6 -7,-12 -10,-17 -25,-39 -51,-77 -76,-115 -26,-39 -52,-78 -77,-117 -5,-8 -10,-15 -14,-23zm756 -11156c52,-77 139,-177 221,-221 53,-50 144,-106 211,-59 248,41 499,80 750,103 194,18 386,26 580,18 220,-9 437,-37 654,-70l4 -1 4 0c23,0 68,-17 90,-24 37,-12 84,-29 122,-29l102 0 372 -62 0 85 134 90c18,9 35,19 52,30 59,37 121,87 170,137 27,26 42,50 42,88 0,1 -1,2 0,4 2,4 9,11 11,14l59 58 -79 25c-320,98 -645,183 -975,237 -285,47 -571,69 -860,62 -576,-13 -1139,-144 -1691,-299l-37 -10 0 -38c0,-22 0,-43 7,-64 10,-29 36,-52 57,-74zm6190 2574c0,-87 4,-173 4,-260 1,-78 -1,-163 -15,-240 -6,-29 -21,-96 -51,-110 -13,-7 -33,-1 -50,6l0 74c26,365 43,729 44,1094 14,-102 27,-203 40,-305 10,-86 21,-173 28,-259zm-4320 9106l-420 315c-13,13 -27,26 -38,40 -2,3 -4,6 -6,9 166,-65 409,-252 505,-327 105,-82 209,-167 311,-253 43,-35 85,-71 128,-106 31,-25 62,-51 94,-75 68,-68 145,-148 191,-233 -238,227 -493,444 -765,630zm817 -680c25,-13 49,-28 72,-45 57,-42 110,-96 160,-146 14,-15 25,-31 36,-49 13,-21 25,-40 46,-55 11,-7 22,-12 34,-14l358 -409c68,-85 138,-169 208,-252 84,-100 168,-200 250,-300 72,-88 143,-175 212,-265 60,-77 118,-155 172,-236 3,-5 5,-12 7,-17 6,-15 11,-30 16,-45 16,-49 31,-99 46,-148 8,-24 15,-48 23,-73 -99,160 -202,317 -308,470 -200,289 -414,570 -640,839 -218,259 -448,510 -692,745zm602 1778c7,-1 13,-1 18,-1 76,-8 157,-29 231,-50 101,-30 201,-66 299,-103 111,-43 221,-88 330,-136 297,-128 589,-269 879,-414 9,-8 21,-16 35,-24 -141,57 -282,115 -422,173 -170,70 -340,140 -509,210 -127,53 -255,105 -383,154l-478 191z"/>
 </g>
 <g id="Layer_x0020_1_0">
  <metadata id="CorelCorpID_1Corel-Layer"/>
  <path class="fil1" d="M2703 6837c-583,-106 -583,-265 -795,-265 0,159 212,371 583,371 265,-53 212,-53 212,-106zm5671 -6254c-1378,424 -2173,371 -3498,0 0,-53 0,-53 53,-106 0,0 106,-159 212,-212 0,0 106,-106 159,-53 954,159 1325,159 2014,53 53,0 159,-53 212,-53 53,0 53,0 106,0l318 -53c0,0 0,0 0,53 0,0 0,0 0,0l159 106 0 0c106,53 212,159 212,159 53,53 0,53 53,106zm-3604 106c1431,477 2226,477 3657,53 53,0 53,53 53,53l424 106c106,0 159,53 265,53l530 159c318,106 689,212 1060,318 371,106 583,159 795,530 265,424 159,795 424,1166 53,106 318,424 477,901 318,795 530,1855 530,1855 -159,53 -583,159 -689,318 159,106 477,-159 742,-106 53,159 -53,159 -159,212 -265,106 -689,212 -954,265 -265,53 -477,53 -742,53 -371,-53 -265,265 -530,212 -53,-212 424,-3180 477,-3816 0,-265 53,-795 -212,-636 0,0 0,53 0,106 106,1484 53,2756 -477,4293 -477,1484 -689,3233 -1484,4558 -159,212 -477,530 -477,689 106,-53 265,-265 371,-318 53,-159 159,-265 265,-424 371,-530 742,-1325 1007,-1908 53,-106 318,-2120 371,-2173 0,53 53,106 53,159 106,477 212,1802 53,2385 -53,371 371,477 53,1325 -159,318 -53,530 0,689 53,159 0,212 -53,371 -53,318 0,1537 -159,1802 -318,53 -689,0 -1060,53 -1113,212 -1378,530 -2968,424 -954,-106 -1696,-477 -2597,-795 -265,-106 -848,-212 -848,-212 -106,-318 0,-1060 106,-1378 53,53 424,530 742,795 53,53 53,53 159,106 -53,-212 -530,-583 -742,-848 -159,-265 -583,-1219 -371,-1484 106,53 265,424 371,583 212,371 371,689 636,1113 53,106 212,477 371,477 0,-53 -53,-106 -106,-212 -318,-583 -583,-954 -901,-1590 -371,-742 -477,-2809 -371,-3604 106,53 265,1855 318,2014 159,318 265,583 371,901 106,318 212,583 318,901 53,159 159,318 212,424 53,106 53,159 106,212 106,106 53,106 212,106 -53,-106 -212,-318 -265,-424 -318,-636 -689,-1802 -901,-2491 -106,-318 -265,-1855 -318,-2173 -212,-848 -106,-3445 -530,-3763 0,0 0,0 0,0 0,106 0,106 53,318 318,1431 0,1802 265,3233 -424,53 -795,-106 -848,-477 -106,-1007 -106,-1590 -53,-2650l0 0c0,-53 0,-53 0,-53 0,0 0,-53 0,-53l0 -106c-53,0 -53,-53 -106,-106 159,1060 53,2226 106,3445 -424,0 -1219,-265 -1537,-424 0,-159 0,-159 53,-265 371,0 1007,318 1378,265 -53,-106 -212,-106 -318,-106l-1007 -318c159,-1007 583,-954 848,-1855 53,-106 106,-424 106,-583 106,-583 371,-1431 1007,-1749 159,-53 1855,-636 2438,-848l0 0c0,0 0,0 0,-53zm3710 -212c0,0 0,-53 0,-53 -106,-106 -371,-318 -477,-424 -53,0 -53,0 -53,0 -1007,212 -1378,318 -2438,106 -318,-53 -265,-106 -530,106 -53,53 -106,106 -159,159 0,0 0,0 -53,0 0,53 -53,106 -53,106 -795,318 -2650,848 -3021,1219 -318,318 -318,477 -477,954 -53,212 -106,424 -159,636 -159,1113 -1060,2226 -1060,3021 0,159 1219,477 1484,530 689,159 265,371 1113,371l0 2067c0,530 106,795 106,1060 0,106 -265,371 -53,1113 53,53 159,371 159,424 0,212 -53,159 -53,318 -53,106 -53,159 -53,318 -53,318 -53,583 0,954 53,318 212,159 689,318 1166,265 1855,848 3233,848l795 0c371,0 689,-53 1325,-212 636,-159 742,-159 1378,-159 159,0 318,0 424,0 106,-53 159,-106 159,-265 106,-424 159,-954 159,-1378 0,-265 53,-689 53,-742 0,-371 -106,-318 -106,-530 0,-159 106,-265 159,-371 212,-636 -53,-742 -53,-1166 0,-159 53,-212 53,-371l0 -318c0,-318 -212,-1749 -212,-1961 0,-53 106,-106 265,-212 106,-53 530,-53 742,-53 53,0 265,-53 318,-53 212,-53 477,-106 636,-159 424,-159 530,-159 530,-265l0 -265c0,-318 -742,-2703 -1060,-3180 -53,-106 -53,-159 -53,-265 -53,-106 -53,-212 -106,-318 -371,-1113 -689,-1060 -1696,-1325 -212,-53 -1696,-477 -1855,-583 0,0 0,0 0,0zm901 8533c106,-159 265,-1696 371,-1749 106,159 -530,2332 -583,2438 -212,318 -636,795 -848,1060l-371 424c-53,0 -53,53 -106,106 -106,106 -159,159 -265,212 -53,106 -159,212 -212,265 -212,159 -901,795 -1166,795 53,-106 53,-106 106,-159l424 -318c1007,-689 2067,-2014 2650,-3074zm1166 3233c-53,0 0,0 -53,53 -53,53 -477,212 -530,265 -318,159 -1696,848 -1908,689 0,-53 -53,0 53,-53l530 -212c424,-159 1749,-742 1908,-742z"/>
 </g>
</svg>
