<svg xmlns="http://www.w3.org/2000/svg" xml:space="preserve" width="4.91441in" height="7.40925in" version="1.1" style="shape-rendering:geometricPrecision; text-rendering:geometricPrecision; image-rendering:optimizeQuality; fill-rule:evenodd; clip-rule:evenodd"
viewBox="0 0 543 818"
 xmlns:xlink="http://www.w3.org/1999/xlink">
 <defs>
  <style type="text/css">
   <![CDATA[
    .filrcr2 {fill:black}
    .filrcr1 {fill:white}
    .fil0 {fill:white}
   ]]>
  </style>
 </defs>
 <g id="Layer_x0020_1">
  <metadata id="CorelCorpID_0Corel-Layer"/>
  <g id="_946239216">
   <path class="fil0" d="M216 237c13,-38 27,-88 20,-125 -8,-41 -31,-59 -64,-74 29,6 54,9 109,9 56,1 84,-15 118,-19 0,1 1,1 1,1 -38,17 -64,35 -73,79 -7,36 10,90 22,128 -26,35 -79,52 -115,21 -6,-5 -12,-12 -18,-20z"/>
   <path class="filrcr1" d="M138 23c-13,7 11,257 137,260 130,8 164,-242 145,-255 34,20 -16,3 22,17 -4,69 -7,212 69,239 1,0 2,1 3,1 0,26 -47,56 -41,84 3,17 4,39 5,59 -5,32 -31,69 -35,81 -16,38 -26,108 -47,143 -4,8 -13,20 -16,27 10,-1 8,-1 13,-7 3,-5 4,-7 7,-12 5,-8 -7,-19 -3,-27 8,-17 16,-33 24,-51 7,-18 14,-35 22,-52 4,-9 36,-66 36,-79 0,-3 2,-6 5,-6l0 0c4,0 7,4 6,7l0 3c0,44 -27,129 -49,165 -21,36 -23,62 -45,94 -4,6 13,10 16,15 9,-2 -1,-24 4,-31 16,-22 11,-44 26,-66 5,-8 16,-29 23,-32 16,16 4,73 -9,87 -13,15 -16,20 -21,32 6,-2 -1,15 3,12 22,-16 27,-43 31,-47 8,19 62,46 57,64 -3,2 -42,7 -61,13 -58,17 -110,40 -175,44 -107,6 -123,-12 -199,-22 -24,-3 -50,-1 -72,-4 -11,-16 46,-85 42,-104 -2,-9 -6,-11 -3,-21 2,-9 39,2 31,-16 -22,-50 7,-53 1,-76 -4,-14 -5,-34 -5,-56 0,0 0,-1 0,-2 0,0 0,-1 0,-2l0 -4c0,-1 0,-2 0,-3 1,-1 1,-1 1,-1l0 -8c0,-1 0,-2 0,-2 0,-1 0,-2 0,-4 0,0 0,-1 0,-2 0,0 0,-1 1,-1 0,-1 0,-3 0,-4 -1,-11 -15,-1 -6,-28 6,30 41,90 44,97 15,34 42,78 66,107 7,8 -16,-7 -9,1 5,6 17,18 25,20 -2,-10 6,-4 -4,-18 -53,-73 -84,-145 -113,-227 0,-1 0,-3 0,-4 6,-29 -63,-89 -64,-116 1,0 3,0 4,-1 81,-29 78,-191 77,-254 0,0 0,-1 -1,-2 39,-7 10,-17 32,-25z"/>
  </g>
  <path class="filrcr2" d="M535 271c-1,0 -1,0 -2,0 -79,-20 -74,-178 -72,-237 -5,8 -18,-13 -22,-16 -33,-23 -25,-18 -92,-1 -104,27 -196,-17 -205,-17 -22,0 -11,26 -53,27 -1,0 -2,1 -4,1l0 2 -1 -1 0 0c2,3 2,16 1,19 -5,52 5,205 -59,234 -1,1 -2,2 -3,2 0,0 -1,0 -1,1l-2 1c-1,0 -1,0 -1,0l-3 1 -2 2c0,0 0,0 -1,0l-3 2 -4 3c-1,0 -1,0 -1,0 -2,14 70,83 66,112 -2,12 -3,20 -4,28 -1,1 -2,2 -3,3 0,17 4,71 4,89l0 18c0,10 3,13 3,22 0,22 -19,28 -4,65 3,7 0,5 0,13 0,12 -27,-5 -27,18 0,3 5,26 5,40 0,26 -52,57 -44,81 2,6 4,11 11,12 7,2 20,1 28,1 45,0 49,0 93,10 43,9 64,12 92,12l54 0c90,0 138,-33 217,-50 31,-6 44,3 47,-18 2,-20 -37,-20 -41,-41 -1,-6 -10,-10 -11,-16 -2,-8 -5,-7 -5,-19 0,-3 8,-19 10,-24 16,-40 -18,-59 -18,-64 0,-17 8,-32 8,-63 8,-43 25,-82 12,-115 -35,-83 33,-74 37,-137zm-383 -219c106,43 72,106 59,179 -36,-51 -66,-138 -62,-180 1,1 2,1 3,1zm64 185c13,-38 27,-88 20,-125 -8,-41 -31,-59 -64,-74 29,6 54,9 109,9 56,1 84,-15 118,-19 0,1 1,1 1,1 -38,17 -64,35 -73,79 -7,36 10,90 22,128 -26,35 -79,52 -115,21 -6,-5 -12,-12 -18,-20zm190 -187c-95,37 -61,101 -54,175 34,-49 62,-127 54,-175zm-268 -27c-13,7 11,257 137,260 130,8 164,-242 145,-255 34,20 -16,3 22,17 -4,69 -7,212 69,239 1,0 2,1 3,1 0,26 -47,56 -41,84 3,17 4,39 5,59 -5,32 -31,69 -35,81 -16,38 -26,108 -47,143 -4,8 -13,20 -16,27 10,-1 8,-1 13,-7 3,-5 4,-7 7,-12 5,-8 -7,-19 -3,-27 8,-17 16,-33 24,-51 7,-18 14,-35 22,-52 4,-9 36,-66 36,-79 0,-3 2,-6 5,-6l0 0c4,0 7,4 6,7l0 3c0,44 -27,129 -49,165 -21,36 -23,62 -45,94 -4,6 13,10 16,15 9,-2 -1,-24 4,-31 16,-22 11,-44 26,-66 5,-8 16,-29 23,-32 16,16 4,73 -9,87 -13,15 -16,20 -21,32 6,-2 -1,15 3,12 22,-16 27,-43 31,-47 8,19 62,46 57,64 -3,2 -42,7 -61,13 -58,17 -110,40 -175,44 -107,6 -123,-12 -199,-22 -24,-3 -50,-1 -72,-4 -11,-16 46,-85 42,-104 -2,-9 -6,-11 -3,-21 2,-9 39,2 31,-16 -22,-50 7,-53 1,-76 -4,-14 -5,-34 -5,-56 0,0 0,-1 0,-2 0,0 0,-1 0,-2l0 -4c0,-1 0,-2 0,-3 1,-1 1,-1 1,-1l0 -8c0,-1 0,-2 0,-2 0,-1 0,-2 0,-4 0,0 0,-1 0,-2 0,0 0,-1 1,-1 0,-1 0,-3 0,-4 -1,-11 -15,-1 -6,-28 6,30 41,90 44,97 15,34 42,78 66,107 7,8 -16,-7 -9,1 5,6 17,18 25,20 -2,-10 6,-4 -4,-18 -53,-73 -84,-145 -113,-227 0,-1 0,-3 0,-4 6,-29 -63,-89 -64,-116 1,0 3,0 4,-1 81,-29 78,-191 77,-254 0,0 0,-1 -1,-2 39,-7 10,-17 32,-25zm34 495c-4,-6 -33,-74 -40,-76 -8,7 53,109 58,116 13,19 10,23 27,40l23 22c4,3 5,4 8,7 6,5 11,9 17,14 5,4 -5,31 1,35 12,8 58,45 76,44 0,-6 -1,-4 -6,-8l-28 -17c-69,-42 -95,-116 -136,-177zm-106 162c2,2 -1,2 4,5 4,3 31,13 35,15 23,8 114,47 130,41 -1,-4 -13,20 -19,17l-22 -33c-29,-9 -118,-44 -128,-45z"/>
 </g>
</svg>
