<svg xmlns="http://www.w3.org/2000/svg" xml:space="preserve" width="4.91757in" height="7.59804in" version="1.1" style="shape-rendering:geometricPrecision; text-rendering:geometricPrecision; image-rendering:optimizeQuality; fill-rule:evenodd; clip-rule:evenodd"
viewBox="0 0 746 1153"
 xmlns:xlink="http://www.w3.org/1999/xlink">
 <defs>
  <style type="text/css">
   <![CDATA[
    .filtnkw2 {fill:black}
    .fil0 {fill:white}
    .filtnkw1 {fill:white}
   ]]>
  </style>
 </defs>
 <g id="Layer_x0020_1">
  <metadata id="CorelCorpID_0Corel-Layer"/>
  <g id="_946241392">
   <path class="fil0" d="M706 541c1,3 1,6 2,10l-1 0c1,2 -1,4 3,6 3,8 6,16 11,24l-2 0 0 166c0,42 -11,64 -11,87 0,7 24,29 3,85 -3,7 -14,29 -14,35 0,16 3,14 6,26 2,8 2,14 4,23 5,29 42,27 39,55 -4,28 -21,16 -65,25 -107,24 -173,70 -297,70l-74 0c-39,-1 -68,-4 -127,-18 -60,-13 -65,-13 -128,-13 -11,0 -28,1 -38,-1 -10,-2 -12,-8 -15,-18 -11,-33 39,-46 39,-83 1,-20 -6,-51 -6,-56 0,-31 9,-26 9,-43 0,-12 -8,-22 -12,-32 -21,-51 5,-59 5,-90 0,-12 -5,-17 -5,-31l0 -25c0,-26 16,-130 16,-155 2,-1 3,-2 4,-3 1,-12 3,-23 6,-39 5,-40 -53,-106 -51,-125 1,0 1,-1 1,-1l5 -3 6 -3 0 0 4 -3 3 -1c1,0 1,0 1,-1l3 -1c1,-1 2,-1 2,-2 2,0 3,-1 4,-2 89,-40 74,-254 81,-326 1,-5 2,-23 -1,-28l0 0 2 1 0 -2c1,0 3,-1 5,-1 57,-2 86,-48 116,-48 14,0 95,71 239,34 91,-23 51,-35 96,-3 6,4 53,38 59,26 -1,69 -8,289 79,321 0,0 0,0 1,0 0,1 1,1 2,2 1,1 3,2 4,3 1,0 1,0 2,1 0,0 1,1 2,1 1,1 2,1 3,1 1,1 3,1 5,2l2 0c1,1 2,1 3,1 4,14 0,37 0,50 0,26 -35,73 -32,98l1 1c0,1 1,2 1,3z"/>
   <g>
    <path class="fil0" d="M222 39c-14,119 -4,397 169,382 148,-12 195,-239 173,-357l-3 -12c-4,-2 -8,-4 -13,-8 27,19 8,373 -170,362 -173,-5 -161,-365 -143,-374 -5,2 -9,4 -13,7z"/>
    <path class="fil0" d="M257 48l1 1c57,51 196,42 265,14 -1,-2 -2,-3 -2,-5 -47,5 -58,19 -135,18 -89,-1 -76,-15 -128,-29 0,0 -1,1 -1,1z"/>
    <path class="filtnkw1" d="M528 77c-73,30 -214,39 -278,-14 -21,66 7,248 72,306 34,30 83,33 119,4 67,-53 113,-214 87,-296z"/>
   </g>
   <path class="filtnkw2" d="M707 551l1 0c-1,-4 -1,-7 -2,-10 0,-1 -1,-2 -1,-3l-1 -1c-3,-25 32,-72 32,-98 0,-13 4,-36 0,-50 -1,0 -2,0 -3,-1l-2 0c-2,-1 -4,-1 -5,-2 -1,0 -2,0 -3,-1 -1,0 -2,-1 -2,-1 -1,-1 -1,-1 -2,-1 -1,-1 -3,-2 -4,-3 -1,-1 -2,-1 -2,-2 -1,0 -1,0 -1,0 -87,-32 -80,-252 -79,-321 -6,12 -53,-22 -59,-26 -45,-32 -5,-20 -96,3 -144,37 -225,-34 -239,-34 -30,0 -59,46 -116,48 -2,0 -4,1 -5,1l0 2 -2 -1 0 0c3,5 2,23 1,28 -7,72 8,286 -81,326 -1,1 -2,2 -4,2 0,1 -1,1 -2,2l-3 1c0,1 0,1 -1,1l-3 1 -4 3c0,0 0,0 0,0l-6 3 -5 3c0,0 0,1 -1,1 -2,19 56,85 51,125 -3,16 -5,27 -6,39 -1,1 -2,2 -4,3 0,25 -16,129 -16,155l0 25c0,14 5,19 5,31 0,31 -26,39 -5,90 4,10 12,20 12,32 0,17 -9,12 -9,43 0,5 7,36 6,56 0,37 -50,50 -39,83 3,10 5,16 15,18 10,2 27,1 38,1 63,0 68,0 128,13 59,14 88,17 127,18l74 0c124,0 190,-46 297,-70 44,-9 61,3 65,-25 3,-28 -34,-26 -39,-55 -2,-9 -2,-15 -4,-23 -3,-12 -6,-10 -6,-26 0,-6 11,-28 14,-35 21,-56 -3,-78 -3,-85 0,-23 11,-45 11,-87l0 -166 2 0c-5,-8 -8,-16 -11,-24 -4,-2 -2,-4 -3,-6zm-179 -474c-73,30 -214,39 -278,-14 -21,66 7,248 72,306 34,30 83,33 119,4 67,-53 113,-214 87,-296zm-271 -29l1 1c57,51 196,42 265,14 -1,-2 -2,-3 -2,-5 -47,5 -58,19 -135,18 -89,-1 -76,-15 -128,-29 0,0 -1,1 -1,1zm-35 -9c-14,119 -4,397 169,382 148,-12 195,-239 173,-357l-3 -12c-4,-2 -8,-4 -13,-8 27,19 8,373 -170,362 -173,-5 -161,-365 -143,-374 -5,2 -9,4 -13,7zm357 24c23,127 -29,360 -186,374 -180,15 -200,-251 -188,-386 -13,10 -27,21 -58,26 0,1 0,2 0,4 2,88 6,314 -106,354 -1,1 -3,1 -4,1 0,38 55,90 47,130 0,2 0,5 -1,7 40,113 63,245 135,346 13,19 43,43 46,57 -11,-4 -28,-21 -35,-28 -10,-11 -18,-21 -27,-33 -33,-40 -70,-103 -91,-150 -4,-9 -31,-123 -40,-165 -12,37 -15,53 -13,69 0,2 0,4 0,5 0,1 0,2 -1,2 0,1 0,2 0,3 0,2 0,3 0,5 0,1 0,2 0,3l0 11c-1,1 -1,1 -1,1 0,2 0,3 0,5l0 6c0,1 0,2 0,3 0,1 0,2 0,3 0,30 1,58 7,77 8,32 -32,37 -1,107 10,24 0,40 -4,53 -4,14 2,17 5,29 5,28 -52,94 -36,115 30,5 66,2 99,6 104,15 126,40 273,31 89,-5 161,-38 241,-61 26,-8 79,-16 83,-18 7,-26 -39,-62 -49,-87 -6,4 -42,41 -72,63 -5,4 33,-18 24,-16 7,-16 12,-23 30,-44 17,-19 56,-95 34,-117 -9,4 -24,33 -31,44 -20,31 -36,58 -59,89 -6,10 -21,38 -34,41 -4,-7 2,-10 8,-19 29,-45 55,-77 84,-127 29,-51 38,-171 38,-233l0 -3c1,-5 -2,-10 -7,-10l-1 0c-4,0 -7,3 -7,8 0,18 -15,99 -20,112 -11,24 -21,48 -31,72 -11,25 -21,47 -33,71 -5,11 -11,24 -18,35 -4,6 -7,10 -11,16 -6,8 -3,9 -16,11 3,-10 15,-28 21,-38 29,-49 66,-143 87,-197 6,-16 13,-70 20,-114 -1,-29 -3,-59 -7,-82 -8,-40 33,-85 34,-122 -2,0 -3,-1 -5,-2 -105,-37 -100,-237 -95,-333 -18,-8 -25,-9 -28,-10zm-404 669c-6,-9 -24,-133 -34,-137 -10,11 52,184 58,192 20,27 55,64 78,89l32 30c5,3 7,6 11,10 8,7 15,12 23,19 7,5 15,14 23,19 16,11 80,63 105,62 -1,-9 -2,-7 -9,-11l-39 -25c-94,-57 -191,-163 -248,-248zm-105 258c2,3 -1,2 5,7 5,3 43,18 49,20 31,12 156,67 178,57 -2,-5 3,-1 -5,-5l-52 -17c-39,-12 -161,-61 -175,-62z"/>
  </g>
 </g>
</svg>
