<svg xmlns="http://www.w3.org/2000/svg" xml:space="preserve" width="5.19139in" height="7.59804in" version="1.1" style="shape-rendering:geometricPrecision; text-rendering:geometricPrecision; image-rendering:optimizeQuality; fill-rule:evenodd; clip-rule:evenodd"
viewBox="0 0 1550 2268"
 xmlns:xlink="http://www.w3.org/1999/xlink">
 <defs>
  <style type="text/css">
   <![CDATA[
    .filtnk1 {fill:black}
    .fil0 {fill:white}
    .filtnk2 {fill:white}
   ]]>
  </style>
 </defs>
 <g id="Layer_x0020_1">
  <metadata id="CorelCorpID_0Corel-Layer"/>
  <g id="_946214416">
   <path class="fil0" d="M1520 1022c1,6 3,12 4,18l-2 1c2,5 -1,8 6,12 5,16 13,31 22,46l-4 0 0 327c0,83 -22,126 -22,171 0,15 48,59 5,169 -5,13 -27,57 -27,68 0,31 7,28 12,50 4,17 5,29 8,47 9,56 8,96 2,150 -7,56 -41,32 -127,51 -212,46 -341,136 -586,136l-145 0c-76,-1 -134,-8 -250,-34 -117,-27 -129,-27 -252,-27 -21,0 -55,3 -74,-1 -21,-5 -25,-17 -31,-35 -22,-66 -24,-151 -24,-223 1,-39 -13,-101 -13,-111 0,-61 18,-50 18,-83 0,-24 -16,-44 -24,-64 -41,-100 10,-116 10,-177 0,-24 -9,-34 -9,-61l0 -49c0,-50 30,-256 32,-304 2,-2 5,-4 7,-7 3,-23 7,-46 11,-77 11,-79 -2,-149 3,-187 1,0 2,-1 2,-1l11 -7 10 -6 1 0 7 -4 6 -3c1,0 2,-1 3,-1l5 -4c2,-1 3,-1 5,-2 2,-1 5,-2 6,-4 175,-80 86,-485 100,-627 2,-9 3,-45 -3,-54l1 0 3 2 0 -3c3,-2 7,-3 11,-3 49,-1 99,-19 141,-44 53,-32 134,-67 148,-67 26,0 186,140 469,67 202,-52 80,-75 227,19 20,13 43,26 68,27 3,-2 43,20 49,9 -3,136 -55,558 117,621 0,1 1,1 1,1 2,1 3,2 5,3 2,2 5,4 8,6 1,1 2,1 3,2 2,1 3,2 5,3 2,1 4,2 5,2 3,1 7,2 10,3l4 1c2,1 4,1 6,2 9,27 1,72 1,98 -2,52 5,100 11,149l3 2c0,2 1,5 1,7z"/>
   <g>
    <path class="fil0" d="M1080 115c-18,39 -55,87 -100,103 -90,30 -242,22 -329,-13 -43,-17 -70,-62 -87,-113 103,27 77,55 251,58 152,2 173,-25 265,-35z"/>
    <path class="fil0" d="M518 63c24,30 41,104 116,189 30,34 24,42 75,74 28,16 71,36 106,37 97,3 200,-106 257,-185 16,-22 49,-78 62,-91 58,42 58,53 20,128 -74,148 -186,254 -343,246 -235,-12 -363,-304 -350,-350 4,-13 44,-42 57,-48z"/>
    <path class="filtnk2" d="M671 252c23,1 55,18 140,20 59,1 97,-4 151,-14 -22,35 -97,66 -147,68 -60,2 -116,-35 -144,-74z"/>
   </g>
   <path class="filtnk1" d="M1522 1041l2 -1c-1,-6 -3,-12 -4,-18 0,-2 -1,-5 -1,-7l-3 -2c-6,-49 -13,-97 -11,-149 0,-26 8,-71 -1,-98 -2,-1 -4,-1 -6,-2l-4 -1c-3,-1 -7,-2 -10,-3 -1,0 -3,-1 -5,-2 -2,-1 -3,-2 -5,-3 -1,-1 -2,-1 -3,-2 -3,-2 -6,-4 -8,-6 -2,-1 -3,-2 -5,-3 0,0 -1,0 -1,-1 -172,-63 -120,-485 -117,-621 -6,11 -46,-11 -49,-9 -25,-1 -48,-14 -68,-27 -147,-94 -25,-71 -227,-19 -283,73 -443,-67 -469,-67 -14,0 -95,35 -148,67 -42,25 -92,43 -141,44 -4,0 -8,1 -11,3l0 3 -3 -2 -1 0c6,9 5,45 3,54 -14,142 75,547 -100,627 -1,2 -4,3 -6,4 -2,1 -3,1 -5,2l-5 4c-1,0 -2,1 -3,1l-6 3 -7 4c0,0 0,0 -1,0l-10 6 -11 7c0,0 -1,1 -2,1 -5,38 8,108 -3,187 -4,31 -8,54 -11,77 -2,3 -5,5 -7,7 -2,48 -32,254 -32,304l0 49c0,27 9,37 9,61 0,61 -51,77 -10,177 8,20 24,40 24,64 0,33 -18,22 -18,83 0,10 14,72 13,111 0,72 2,157 24,223 6,18 10,30 31,35 19,4 53,1 74,1 123,0 135,0 252,27 116,26 174,33 250,34l145 0c245,0 374,-90 586,-136 86,-19 120,5 127,-51 6,-54 7,-94 -2,-150 -3,-18 -4,-30 -8,-47 -5,-22 -12,-19 -12,-50 0,-11 22,-55 27,-68 43,-110 -5,-154 -5,-169 0,-45 22,-88 22,-171l0 -327 4 0c-9,-15 -17,-30 -22,-46 -7,-4 -4,-7 -6,-12zm-1099 -934c34,115 99,194 151,262 47,61 145,113 237,118 160,7 288,-107 365,-267 12,-25 18,-61 34,-80 9,-14 40,3 79,13 -10,189 -57,572 149,647 3,1 6,2 8,3 0,73 -6,118 9,196 9,45 12,106 13,162 -12,87 -26,192 -39,225 -41,106 -113,291 -170,387 -12,20 -36,55 -43,74 27,-3 20,-4 33,-21 8,-11 13,-19 21,-32 13,-21 25,-46 36,-68 22,-47 44,-90 64,-139 20,-49 40,-96 61,-142 11,-25 40,-186 40,-222 0,-8 6,-15 14,-15l1 0c10,0 17,10 14,19l0 7c0,122 -17,358 -75,457 -57,99 -108,162 -165,250 -12,18 -22,26 -15,39 24,-7 54,-62 67,-81 44,-61 76,-113 116,-175 14,-21 43,-79 61,-88 43,44 -34,194 -67,232 -36,41 -119,98 -133,130 16,-4 16,-4 27,-12 59,-45 129,-116 141,-125 20,50 35,164 21,216 -7,3 -112,18 -164,34 -157,46 -298,110 -473,121 -290,17 -333,-33 -538,-61 -64,-9 -134,-3 -194,-12 -31,-42 -21,-231 -32,-285 -5,-25 -16,-30 -9,-58 8,-25 28,-56 7,-104 -60,-137 19,-148 2,-211 -10,-37 -14,-93 -13,-152 0,-2 0,-4 0,-5 -1,-2 -1,-4 -1,-7l0 -11c0,-3 1,-6 2,-9 0,-1 0,-1 0,-2l0 -22c0,-3 0,-4 1,-6 0,-3 0,-6 0,-9 0,-2 0,-4 1,-6 0,-1 0,-3 0,-4 0,-4 1,-7 2,-10 -4,-32 1,-63 25,-136 17,82 70,307 77,324 42,93 115,216 179,296 19,22 35,43 54,64 14,15 48,48 68,56 -6,-27 -63,-75 -90,-113 -142,-199 -186,-457 -264,-681 0,-4 1,-9 2,-13 15,-78 9,-123 8,-196 3,-1 6,-2 9,-3 219,-79 152,-508 148,-681 0,-3 -1,-5 -1,-7 79,-14 77,-52 139,-61zm-124 1275c-13,-18 -49,-263 -68,-270 -19,22 103,361 115,378 38,53 108,126 153,174l64 59c8,7 12,12 21,20 16,13 29,24 45,37 14,12 29,27 45,38 32,21 157,123 206,121 -2,-16 -4,-12 -17,-20l-77 -49c-185,-113 -376,-321 -487,-488zm-208 507c5,5 -2,4 11,13 10,7 83,36 95,40 61,24 308,131 352,113 -4,-11 5,-3 -10,-11l-103 -33c-76,-24 -317,-120 -345,-122zm580 -1637c23,1 55,18 140,20 59,1 97,-4 151,-14 -22,35 -97,66 -147,68 -60,2 -116,-35 -144,-74zm-153 -189c24,30 41,104 116,189 30,34 24,42 75,74 28,16 71,36 106,37 97,3 200,-106 257,-185 16,-22 49,-78 62,-91 58,42 58,53 20,128 -74,148 -186,254 -343,246 -235,-12 -363,-304 -350,-350 4,-13 44,-42 57,-48zm562 52c-18,39 -55,87 -100,103 -90,30 -242,22 -329,-13 -43,-17 -70,-62 -87,-113 103,27 77,55 251,58 152,2 173,-25 265,-35z"/>
  </g>
 </g>
</svg>
