<svg xmlns="http://www.w3.org/2000/svg" xml:space="preserve" width="8.16842in" height="10.223in" version="1.1" style="shape-rendering:geometricPrecision; text-rendering:geometricPrecision; image-rendering:optimizeQuality; fill-rule:evenodd; clip-rule:evenodd"
viewBox="0 0 17056 21346"
 xmlns:xlink="http://www.w3.org/1999/xlink">
 <defs>
  <style type="text/css">
   <![CDATA[
    .fil1lclr {fill:black}
    .fil0 {fill:white}
    .filrglclr {fill:white}
   ]]>
  </style>
 </defs>
 <g id="Layer_x0020_1">
  <metadata id="CorelCorpID_0Corel-Layer"/>
  <g id="_946247600">
   <path class="fil0" d="M16572 9053c380,859 -224,1776 233,2415 560,783 11,1534 0,2457 -4,264 144,944 -106,1032 -378,133 823,3151 -247,3186 -137,5 -117,-1 -172,11 -59,345 -176,1293 -243,1362 -131,133 -404,-84 -511,-122 -388,-138 -1056,-55 -1210,-278 -162,-232 105,-404 79,-739 -41,-538 -26,-425 173,-617 -242,-240 -836,-289 -476,-854 118,-185 -37,-1753 -90,-2040 -175,-958 -219,-931 -72,-1910 50,-337 -115,-868 -106,-1309 3,-119 30,-484 13,-665 -85,-45 -157,-137 -216,-249 2,204 37,399 101,582 23,74 52,146 84,216l0 2121c0,676 -155,1030 -155,1395 0,117 334,476 36,1368 -38,112 -191,466 -191,553 0,258 48,235 85,411 29,138 32,235 53,382 66,454 59,777 13,1218 -15,147 -50,227 -111,272l59 370c-941,772 -1986,928 -3422,1372 -476,147 -1215,452 -2013,322 -798,-131 -1172,-44 -1796,-153 -623,-108 -1340,-283 -1571,-326 -1727,-316 -1157,87 -1362,-1030 -10,-28 -19,-58 -28,-91 -152,-539 -169,-1230 -167,-1817 2,-314 -93,-822 -93,-899 0,-499 124,-410 124,-682 0,-188 -111,-353 -167,-514 -91,-258 -95,-606 -87,-765 3,1 3,-4 3,-6 0,-2 1,-5 -2,-6 51,-226 160,-388 160,-661 0,-56 -31,-1142 -40,-1261 6,2 1,-13 1,-14 0,-1 0,-2 -1,-2 21,-260 55,-595 90,-925 154,-265 242,-574 242,-902l0 -488c0,-42 -1,-84 -4,-126 -65,150 -151,279 -257,335 -16,181 11,546 13,665 10,441 -155,972 -105,1309 7,46 13,90 19,132 -2,1 -1,5 0,7 0,1 0,2 0,4 -27,182 -40,1482 -92,1767 -9,49 -18,104 -26,160 -3,1 -2,4 -2,6 -1,2 -1,5 0,6 -35,288 -86,1517 -125,1704 10,32 47,86 63,111 361,566 -233,615 -476,855 199,192 215,79 173,616 -26,336 241,507 80,740 -155,223 -822,139 -1210,278 -107,38 -381,255 -512,122 -67,-69 -184,-1018 -242,-1362 -56,-12 -35,-7 -172,-11 -794,-26 -340,-2052 -250,-2479 226,-1074 -780,-3130 -103,-4144 461,-691 -152,-1545 232,-2415 175,-393 303,-963 482,-1318 174,-823 540,-1657 653,-2515 0,-44 18,-83 46,-111 21,-76 42,-145 70,-226 480,-1427 871,-1401 2166,-1740 474,-124 1435,-404 1892,-569 84,2 128,-46 177,-186 32,-62 50,-131 57,-202 32,-293 -98,-656 -54,-960 64,-453 557,-525 939,-784 770,-522 1842,-520 2817,-309 468,101 976,131 1303,403 421,350 276,813 298,1304 8,168 -27,271 -130,386 0,23 0,46 0,69l-29 19c213,346 3121,1053 3743,1658 427,415 453,646 631,1259 73,249 135,508 179,782 70,427 290,1132 382,1726 179,355 307,923 480,1314z"/>
   <path class="fil1lclr" d="M14626 17870c0,0 -8,136 -16,287 -2,38 27,132 96,174 114,70 293,84 306,99 26,30 -19,66 -36,103 -80,177 -212,-56 -428,200l-182 192c0,0 -10,121 41,125 52,4 404,50 486,63 81,13 519,75 519,75l392 118c0,0 225,-379 237,-437 12,-59 2,-725 -103,-725 0,0 -159,-68 -273,-114 -113,-46 -585,-248 -758,-228 -172,21 -281,68 -281,68z"/>
   <path class="fil1lclr" d="M16685 14615c-75,230 -292,721 -467,882 -180,167 -44,562 -3,736 -88,-196 -321,-678 -158,-925 88,-134 356,-177 628,-693zm-3109 -4229c302,366 387,203 605,487l139 204 207 263c378,431 -77,-138 195,258 126,185 653,392 909,710l79 97c-292,-289 -366,-298 -753,-483 -554,-264 -447,-110 -755,-778 -296,-643 -294,-254 -626,-758zm-12521 7578c102,-47 -186,91 435,-108 744,-238 103,-117 640,-198l2 -7c-607,13 -677,29 -1086,282l9 31zm14892 195c-482,-300 -544,-344 -1041,-360l-10 27c214,29 -163,-30 473,174 759,242 161,-17 575,172l3 -13zm-15231 -7696c120,794 372,1297 629,2033 131,375 112,618 107,1018 -11,1038 -125,665 216,1623 -432,-992 -240,-550 -355,-1616 -36,-324 -109,-486 -154,-751l-16 -227c-84,-718 -356,-1223 -427,-2080zm-318 7510c30,-352 256,-871 617,-993 205,-69 763,-80 983,-85 -367,71 -566,80 -893,282 -395,244 -583,283 -707,796zm13833 -957c130,-71 683,-436 866,-415 72,8 718,289 770,311 -762,-153 -877,-113 -1636,104z"/>
   <path class="filrglclr" d="M2428 18592l-62 -576c2,37 -27,131 -96,174 -114,70 -293,84 -306,98 -26,31 19,67 36,104 80,176 212,-56 428,200zm12120 141l62 -576c-2,38 27,132 96,174 114,70 293,84 306,99 26,30 -19,66 -36,103 -80,177 -212,-56 -428,200z"/>
   <path class="fil1lclr" d="M2350 17729c0,0 8,136 16,287 2,37 -27,131 -96,174 -114,70 -293,84 -306,98 -26,31 19,67 36,104 80,176 212,-56 428,200l182 191c0,0 10,121 -41,125 -51,4 -404,50 -486,63 -81,14 -519,76 -519,76l-392 118c0,0 -225,-380 -237,-438 -12,-58 -1,-725 103,-725 0,0 159,-68 273,-114 113,-46 586,-247 758,-227 172,20 281,68 281,68z"/>
   <g>
    <path class="fil0" d="M6191 1636c535,-681 1072,-877 2043,-961 950,-81 2105,1 2780,632 3,3 6,7 8,10 35,-201 -37,-406 -265,-601 -256,-219 -686,-234 -1083,-341 -866,-235 -1872,-324 -2674,199 -258,167 -594,225 -764,511 -113,191 -116,379 -45,551z"/>
    <path class="filrglclr" d="M8955 905c68,10 136,21 204,32 276,46 179,24 442,108l0 0c-47,-33 -98,-62 -154,-87 815,76 1456,505 976,652 -855,-435 -2411,-316 -2875,-24 448,-127 1124,-236 1795,-169 713,72 1361,70 1357,423l0 1c-222,210 -696,394 -1012,525 -281,110 -400,180 -634,189 -77,3 -134,23 -177,54 -125,70 -144,226 -182,370 -63,239 -139,543 -206,822 -7,19 -16,43 -32,71 -45,79 -84,249 -115,419 -8,-1 -15,-1 -22,-2 -13,-1 -27,-5 -38,-6 -10,1 -20,4 -30,6 -17,5 -31,5 -48,3 -7,4 -14,5 -21,5 -9,38 6,83 51,62 32,-16 65,-22 100,-24l-4 24c-8,-3 -18,-1 -31,5 -11,6 -27,13 -47,18 -27,-9 -57,-17 -86,-21l-4 -126 -6 -1 -1 -7 -1 0c3,-71 5,-144 5,-177 0,-13 0,-28 -2,-42 -2,-5 -3,-11 -3,-16 -3,-6 -4,-11 -4,-17l2 3c-2,-4 -6,-13 -7,-18 -30,-19 -109,-221 -128,-272l2 15c-40,-294 -102,-576 -159,-869 -36,-186 -82,-277 -345,-314 -318,-44 -662,-217 -959,-438 -31,-24 -60,-49 -88,-75 -3,-59 7,-118 29,-176 471,-607 1034,-780 1792,-831 191,-13 460,-108 666,-95z"/>
    <path class="fil0" d="M6120 2448c28,66 56,127 82,183 6,-3 11,-6 15,-10 -4,6 -9,10 -13,13 51,110 101,204 154,290 2,2 4,5 6,7 2,4 5,8 8,12 5,8 10,16 17,23 8,12 19,22 31,30 3,5 6,9 9,13l-20 -7c13,18 26,36 39,54 16,13 32,26 47,40l52 48 0 0c15,14 30,27 45,41 65,11 70,63 81,121 108,101 238,203 402,323 317,232 663,361 980,581 16,-58 22,-125 22,-203 0,-106 -55,-251 -55,-251l-1 -11 1 11c-149,-334 -233,-687 -316,-1042 -63,-47 -89,-14 -203,-51 -537,-171 -672,-276 -784,-365 -93,-67 -136,-131 -242,-225 7,32 18,65 33,98 42,86 -279,-168 -257,-268 -13,-9 -27,-18 -42,-27 -11,13 -21,26 -30,40 60,99 66,124 -74,-20 -7,30 -2,206 -6,338 -2,61 0,126 5,186 6,8 11,18 14,28z"/>
    <path class="fil0" d="M8516 4331c25,-35 50,-64 76,-80l0 -1c42,-57 76,-84 140,-122 24,-18 51,-36 80,-52 134,-140 504,-490 654,-650l-17 0c-231,228 -512,522 -628,645 14,-8 33,-17 54,-25 361,-193 800,-340 1199,-535 114,-64 269,-151 398,-226 -67,45 -137,88 -209,128 212,-151 471,-359 632,-515 23,-28 44,-58 64,-88 -166,134 -446,347 -357,265 427,-394 -99,-180 479,-494 -33,-68 -52,-126 -63,-178 -300,187 -149,44 -9,-88 -2,-178 113,-271 105,-444 -2,-30 -6,-49 -11,-64 -14,-13 -29,-24 -41,-33 -411,332 -609,480 -1241,692 -228,83 -330,132 -789,230 -38,8 -59,13 -74,19 -10,6 -21,16 -39,29 -73,240 -188,642 -307,975l12 0c-28,83 -38,169 -29,255 -62,137 -135,336 -180,439 -11,24 -19,48 -25,71 5,-1 10,-3 15,-4 32,-49 71,-103 111,-149z"/>
   </g>
   <path class="fil1lclr" d="M11172 13591c41,107 81,214 123,322l-38 17c-41,-107 -82,-214 -123,-322l38 -17zm141 368c41,107 84,213 129,319l-38 17c-45,-105 -87,-212 -129,-319l38 -17zm148 364c43,100 88,199 135,297l8 16 -38 17 -7 -15c-48,-98 -93,-197 -136,-297l38 -18zm165 357c52,102 107,203 165,302l-38 18c-58,-99 -113,-199 -165,-303l38 -17zm191 344c60,99 123,196 189,291l-38 18c-67,-95 -130,-192 -189,-291l38 -18zm218 332c14,20 28,40 42,59 55,76 113,148 167,222l-38 18c-53,-71 -108,-140 -163,-215 -16,-22 -31,-44 -47,-66l39 -18zm238 322c37,52 72,106 104,164 33,61 19,137 -35,182 -2,1 -3,2 -5,4l-57 27c-42,9 -88,-1 -123,-29 -41,-33 -82,-65 -123,-97 -27,-22 -54,-44 -78,-70 -7,-7 -14,-15 -21,-23l40 -18c4,4 7,8 11,12 23,24 49,45 75,66 40,32 81,64 122,97 39,32 94,31 132,-1 39,-32 49,-86 25,-130 -32,-60 -68,-114 -105,-166l38 -18zm-370 119c-36,-46 -68,-97 -102,-144 -33,-47 -66,-94 -98,-142l38 -17c31,45 62,90 94,135 33,46 69,102 107,150l-39 18zm-228 -327c-64,-96 -127,-193 -187,-292l38 -18c60,99 123,196 187,292l-38 18zm-213 -334c-59,-99 -116,-198 -172,-299l38 -18c55,101 113,201 172,299l-38 18zm-196 -342c-28,-51 -55,-103 -82,-155 -26,-50 -51,-100 -77,-150l38 -18c25,50 50,100 76,149 27,52 55,104 83,156l-38 18zm-180 -349c-51,-103 -100,-207 -148,-311l38 -18c48,105 97,208 147,311l-37 18zm-168 -356c-48,-104 -94,-209 -139,-314l38 -18c45,105 91,210 139,315l-38 17zm-159 -359c-10,-25 -20,-49 -30,-73 -55,-129 12,-279 142,-328 37,-15 77,-17 116,-6 110,32 132,128 168,222l-38 17 -1 0c-29,-77 -48,-172 -141,-199 -30,-8 -61,-6 -89,5 -108,41 -165,165 -119,273 10,23 20,47 30,71l-38 18z"/>
   <path class="fil1lclr" d="M3761 15920c30,-59 60,-117 90,-176l38 18c-30,59 -61,118 -91,177 -24,47 -9,105 36,134 44,30 103,21 137,-20 51,-60 99,-122 144,-185l38 18c-47,66 -97,131 -150,194 -35,42 -88,60 -138,50l-67 -31c-52,-43 -68,-117 -37,-179zm112 -220c52,-102 103,-205 151,-308l38 17c-48,104 -99,207 -151,309l-38 -18zm172 -353c47,-105 92,-210 132,-318l37 18c-39,107 -84,213 -132,317l-37 -17zm148 -364l2 -5c38,-108 70,-218 98,-328l38 18c-27,109 -59,217 -97,324l-3 8 -38 -17zm112 -382c18,-77 34,-154 49,-231 8,-39 15,-77 22,-115l39 18c-6,35 -13,70 -20,105 -15,81 -33,161 -52,241l-38 -18zm80 -396c21,-118 40,-235 57,-353l40 18c-18,118 -37,236 -58,353l-39 -18zm65 -404c17,-119 33,-237 50,-356l39 19c-16,118 -32,237 -50,355l-39 -18zm56 -407c1,-6 2,-11 2,-16 12,-80 40,-158 117,-197 35,-18 74,-23 113,-16 137,23 230,154 204,292 -8,43 -16,86 -24,129l-39 -18c7,-40 15,-80 22,-119 22,-114 -56,-224 -170,-243 -30,-5 -60,-1 -87,12 -64,33 -85,101 -94,166 -2,9 -3,19 -4,28l-40 -18zm403 243c-21,116 -42,233 -63,349l-39 -18c21,-117 42,-234 63,-350l39 19zm-73 399c-21,116 -44,232 -69,348l-39 -19c25,-115 48,-231 69,-347l39 18zm-80 397c-25,114 -53,227 -85,340l-38 -18c32,-113 59,-226 85,-340l38 18zm-98 387c-33,111 -69,221 -110,328l-38 -17c41,-108 77,-218 109,-328l39 17zm-128 374c-43,106 -90,211 -144,313l-38 -18c54,-102 101,-206 144,-312l38 17zm-168 356l-4 8c-55,99 -113,194 -176,287l-39 -18c64,-93 123,-189 178,-289l4 -6 37 18z"/>
   <path class="fil1lclr" d="M8872 20398l-1441 -108 -941 -174 -1495 -306 -1179 54 -385 -58c205,1117 -365,714 1362,1030 231,43 948,218 1571,326 624,109 998,22 1796,153 798,130 1537,-175 2013,-322 1436,-444 2481,-600 3422,-1372l-92 -585c-1659,409 -2911,1033 -4631,1362z"/>
   <path class="fil1lclr" d="M10656 19794l-469 125 -595 185m-1656 129c48,-28 96,-53 136,-70 161,-68 778,-190 1248,-258 321,-46 765,-174 1150,-298m-3105 94l38 0c-3,-25 -3,-65 0,-116m-96 115l16 1m-123 72c-341,-9 -688,-23 -833,-44 -279,-40 -455,-81 -646,-108 -50,-7 -99,-15 -149,-23 495,181 803,299 1007,312 165,11 364,31 492,45m3062 -529c-151,13 -299,37 -445,73 -720,176 -1426,284 -1719,284 -88,0 -240,-1 -418,-3m2637 -358l-27 2m202 -7c-68,-1 -136,2 -203,7m4652 -10516c-8,-1063 -38,-2085 123,-3003 -48,36 -92,74 -134,114l0 110c0,21 -2,42 -7,63 -2,7 -3,14 -5,22 -1,16 -5,32 -9,48 0,6 -1,12 -1,18 62,1078 55,1764 -14,2646 16,-6 31,-12 47,-18zm-3730 -5923c-312,402 -769,616 -1241,798 -240,136 -447,240 -539,261 -79,19 -164,29 -245,40 -92,40 -183,83 -269,128 -226,120 -352,422 -419,572 -1,28 -3,57 -7,87l1 0c9,13 5,44 -6,57l-4 -1c-6,40 -16,88 -26,141 5,-1 9,-2 14,-4 8,13 4,46 -7,59 -5,-2 -11,-3 -17,-4 -9,46 -19,96 -29,147 10,-1 20,-3 30,-7 8,15 5,44 -7,59 -10,-3 -21,-4 -32,-6 -9,50 -18,101 -27,152 14,-1 29,-4 43,-8 8,12 1,48 -7,57 -14,-4 -28,-6 -43,-7 -8,52 -15,102 -21,152 16,-1 32,-3 47,-8 7,14 4,43 -7,58 -14,-4 -30,-7 -45,-8 -6,54 -9,106 -10,153 13,-1 26,-4 38,-8 8,13 4,45 -7,58 -10,-3 -21,-5 -32,-6 0,46 -2,97 -6,150 7,-1 14,-3 21,-6 7,13 3,44 -7,57 -6,-2 -12,-3 -18,-4 -3,47 -8,96 -14,145 5,-1 10,-2 15,-4 7,14 3,44 -7,57 -5,-2 -9,-2 -13,-3 -6,49 -13,98 -19,145 5,-1 10,-2 15,-4 6,14 2,45 -8,58 -5,-1 -10,-3 -15,-4 -7,51 -15,101 -23,147 7,-1 14,-3 21,-6 6,13 2,44 -8,58 -7,-2 -14,-3 -21,-4 -9,56 -19,107 -27,149 10,-1 21,-3 31,-6 7,13 3,43 -7,56 -11,-3 -22,-5 -33,-6 -11,51 -20,102 -28,153 15,0 29,-3 43,-8 7,13 3,44 -7,57 -13,-4 -27,-7 -42,-7 -7,52 -14,105 -19,152 14,-1 29,-4 43,-11 7,13 3,46 -7,59 -13,-3 -27,-5 -41,-5 -7,69 -12,120 -12,134 0,1 0,8 -1,18 12,-1 25,-4 37,-9 6,13 3,44 -7,59 -11,-4 -23,-7 -35,-8l-19 152c12,-1 24,-3 36,-6 7,13 3,42 -7,55 -11,-3 -23,-5 -35,-6l-19 153c12,-1 24,-4 36,-9 7,13 3,44 -7,57 -11,-3 -22,-5 -34,-6l-19 152c12,-1 24,-3 37,-8 6,13 2,47 -7,60 -12,-4 -24,-6 -36,-7l-19 151c13,-1 25,-4 38,-9 6,15 2,44 -8,59 -11,-4 -23,-6 -35,-7l-18 153c12,-2 24,-4 36,-8 6,13 3,44 -6,57 -12,-5 -23,-7 -36,-7l-18 152c12,-1 25,-3 37,-7 6,15 2,44 -7,57 -11,-4 -23,-6 -35,-7l-18 153c12,-1 24,-4 36,-9 6,13 3,45 -6,58 -11,-4 -23,-6 -35,-7l-18 152c12,0 24,-2 36,-7 6,13 3,41 -6,57 -11,-4 -23,-6 -35,-7l-17 153c12,-1 24,-4 36,-9 2,5 3,12 2,18 1,0 0,1 0,1 0,1 0,3 0,3 0,0 0,5 0,5 0,0 -1,8 -1,8 -1,2 -1,5 -1,5 -2,7 -4,13 -7,17 -11,-4 -22,-5 -34,-5l-17 152c12,-1 24,-3 36,-9 5,13 2,45 -7,58 -11,-3 -22,-6 -34,-7l-17 154c12,0 24,-3 35,-9 6,13 3,43 -6,57 -11,-3 -22,-4 -33,-5l-17 152c12,-1 23,-4 34,-8 6,13 3,43 -6,56 -10,-4 -21,-6 -32,-6l-16 153c11,0 23,-3 34,-7 5,13 2,42 -6,57 -11,-4 -21,-6 -32,-7l-15 152c10,-1 21,-4 32,-8 6,13 2,45 -6,58 -10,-4 -20,-6 -31,-7 -5,52 -10,103 -14,153 10,-1 20,-3 30,-8 6,13 3,44 -5,56 -10,-4 -19,-6 -29,-7 -5,52 -10,103 -14,154 10,-2 20,-4 29,-8 6,13 3,43 -6,56 -8,-3 -18,-4 -27,-5 -5,51 -9,102 -13,152 9,-2 18,-5 26,-9 6,14 3,45 -6,58 -7,-2 -15,-4 -23,-5 -5,51 -9,102 -12,151 7,-1 15,-4 22,-7 6,13 3,45 -5,58 -6,-2 -13,-4 -21,-5 -3,50 -7,100 -10,148 7,-1 13,-3 19,-5 5,13 3,46 -5,59 -6,-3 -11,-5 -17,-6 -3,49 -5,98 -8,146 4,-1 8,-2 12,-4 6,13 3,44 -4,57 -4,-1 -7,-2 -10,-3l-6 142 5 -2c6,16 3,45 -4,58l-4 -1 -6 142c4,12 3,34 -2,49 -56,1355 -105,3354 -105,3639 0,151 -9,351 -19,536 -7,142 -15,287 -22,407l-1 32 55 55c-2,77 3,154 15,230l-60 -62c13,138 32,286 32,286 0,0 -5,66 -10,160l2 19c0,0 -4,52 -9,130 -4,148 -3,313 17,404 44,193 38,1791 74,1966 18,86 8,153 -7,198 15,73 16,146 -11,216l18 107c0,0 6,10 -29,49l-4 5 14 83c125,10 258,17 402,20 268,6 574,-2 935,-27 249,-18 489,-53 721,-102 368,-76 719,-187 1064,-310 512,-184 1013,-397 1528,-573 362,-124 1098,-249 1146,-277 95,-417 -13,-1348 -151,-1752 -84,70 -571,653 -985,1015 -76,66 -78,66 -192,98 98,-263 680,-720 934,-1059 227,-304 767,-1531 467,-1882 -123,69 -328,543 -424,715 -281,500 -504,925 -809,1423 -95,155 -302,601 -472,655 -52,-107 20,-167 101,-312 401,-715 758,-1230 1161,-2033 459,-917 594,-3552 497,-4597 -134,85 -380,2388 -459,2591 -148,377 -287,760 -426,1153 -93,262 -293,504 -392,746 49,64 42,57 94,153 -40,-32 -78,-65 -116,-99 -45,110 -91,221 -138,334 -75,181 -56,380 -149,553 -55,103 -87,167 -145,257 -88,138 -41,151 -228,175 45,-158 217,-443 298,-600 114,-224 132,-508 256,-818 -546,-725 -848,-1436 -1163,-2113 -21,-54 6,-115 60,-135 54,-21 75,80 96,134 314,830 500,1329 1038,2034 299,-759 703,-1660 902,-2253 143,-426 307,-2357 417,-2793 21,-82 39,-178 55,-284 -19,-88 -29,-166 -33,-221 -29,-498 133,-1241 166,-1796 0,-16 2,-32 7,-46 54,-1122 130,-2226 426,-2476 4,7 9,17 10,23 2,5 7,16 9,23 19,87 5,100 -50,361 -181,866 -206,1428 -207,1963 68,17 118,79 118,152l-20 351c-22,235 -80,513 -119,797 -9,133 -21,273 -37,423 -8,347 56,673 295,907 135,51 133,292 133,419 2,622 -49,511 41,1169 100,737 21,743 -50,1483 95,731 243,2221 316,2964l-8 -39c56,260 -113,325 -165,481 61,87 384,254 486,340 290,244 60,390 -76,517 -10,193 -10,68 8,303 29,371 -113,455 -126,586 21,7 44,10 66,13 650,88 617,-2 1158,234 55,-390 102,-943 194,-1209 64,-189 433,-117 538,-149 297,-452 -598,-2729 -21,-3116 -2,-254 -27,-594 -24,-789 9,-782 492,-1664 77,-2244 -587,-820 55,-1742 -265,-2458 -203,-455 -328,-893 -489,-1361l43 25c-59,-48 -430,-1575 -463,-1798 -116,-773 -474,-1854 -1284,-2220 -865,-390 -2591,-977 -3029,-877zm-2710 1664l7 -20 -7 0 0 20zm144 -318c25,-35 50,-64 76,-80l0 -1c42,-57 76,-84 140,-122 24,-18 51,-36 80,-52 134,-140 504,-490 654,-650l-17 0c-231,228 -512,522 -628,645 14,-8 33,-17 54,-25 361,-193 800,-340 1199,-535 114,-64 269,-151 398,-226 -67,45 -137,88 -209,128 212,-151 471,-359 632,-515 23,-28 44,-58 64,-88 -166,134 -446,347 -357,265 427,-394 -99,-180 479,-494 -33,-68 -52,-126 -63,-178 -300,187 -149,44 -9,-88 -2,-178 113,-271 105,-444 -2,-30 -6,-49 -11,-64 -14,-13 -29,-24 -41,-33 -411,332 -609,480 -1241,692 -228,83 -330,132 -789,230 -38,8 -59,13 -74,19 -10,6 -21,16 -39,29 -73,240 -188,642 -307,975l12 0c-28,83 -38,169 -29,255 -62,137 -135,336 -180,439 -11,24 -19,48 -25,71 5,-1 10,-3 15,-4 32,-49 71,-103 111,-149zm-2396 -1883c28,66 56,127 82,183 6,-3 11,-6 15,-10 -4,6 -9,10 -13,13 51,110 101,204 154,290 2,2 4,5 6,7 2,4 5,8 8,12 5,8 10,16 17,23 8,12 19,22 31,30 3,5 6,9 9,13l-20 -7c13,18 26,36 39,54 35,27 67,58 99,88l0 0c15,14 30,27 45,41 65,11 70,63 81,121 108,101 238,203 402,323 317,232 663,361 980,581 16,-58 22,-125 22,-203 0,-106 -55,-251 -55,-251l-1 -11 1 11c-149,-334 -233,-687 -316,-1042 -63,-47 -89,-14 -203,-51 -537,-171 -672,-276 -784,-365 -93,-67 -136,-131 -242,-225 7,32 18,65 33,98 42,86 -279,-168 -257,-268 -13,-9 -27,-18 -42,-27 -11,13 -21,26 -30,40 60,99 66,124 -74,-20 -7,30 -2,206 -6,338 -2,61 0,126 5,186 6,8 11,18 14,28zm1911 1768l-88 -33c-26,9 -83,10 -153,5 -197,-13 -525,-230 -566,-250 -80,-38 -145,-107 -208,-185l-18 -11c-519,-335 -713,-522 -952,-978 -11,9 -22,18 -33,27l-9 -23 -1276 473c-433,147 -887,266 -1351,385 -521,134 -764,204 -1045,691 -377,653 -764,2577 -1051,3367 -28,78 -28,140 -96,196l42 -25c-160,468 -286,906 -489,1361 -322,721 327,1566 -264,2458 -484,729 304,2875 218,3772 -33,349 -370,2028 -187,2325 109,32 474,-40 539,148 91,267 139,819 194,1210 540,-236 508,-146 1157,-235 22,-3 45,-5 67,-12 -13,-130 -155,-216 -127,-587 18,-234 18,-109 9,-302 -136,-128 -366,-274 -76,-517 102,-86 425,-254 486,-340 -52,-156 -221,-221 -165,-481l-9 39c74,-743 221,-2181 316,-2912 -70,-740 -150,-746 -49,-1483 90,-658 38,-547 41,-1169 0,-127 -3,-368 132,-419 529,-516 200,-1482 140,-2127l-21 -351c0,-44 19,-84 48,-113 -139,-1027 -144,-2033 -58,-3142 3,-46 8,-94 14,-143 -359,-158 -245,507 -241,853 4,368 151,1399 300,2419 26,-19 59,-31 94,-31 86,0 157,70 157,157 32,555 195,1298 165,1796 -1,18 -3,39 -6,62 38,126 77,254 118,383 464,1451 490,1857 490,3365l0 0 0 16c0,10 -5,18 -6,26 -169,-426 -427,-2753 -513,-2840 -303,388 -293,2719 -174,3220 121,514 -430,601 -14,1718 146,391 6,640 -45,848 -54,223 26,266 61,471 74,436 3,1971 220,2319 419,70 913,23 1360,94 848,135 1300,332 1945,442 3,-32 12,-66 37,-84l56 -40c-32,-55 -72,-11 -72,-11 0,0 -5,-29 -4,-63 2,-34 10,-72 37,-91l85 -61c1,-3 2,-6 3,-8 1,0 3,1 4,1l-1 -139 -3 1c-8,-13 -8,-44 0,-57l2 1 -1 -139 -2 0c-7,-14 -7,-44 0,-57l1 1 -1 -139c-7,-13 -7,-43 -1,-57l-1 -145c-4,-12 -4,-31 0,-45l-2 -159c-1,-7 -1,-16 0,-23 -7,-739 -15,-1725 -19,-2513 -32,-31 -64,-62 -98,-96 -61,-61 -87,-102 -149,-162 -748,-803 -115,-41 -544,-741 -2243,-3666 274,225 790,769 -2,-419 -2,-761 1,-946 11,-879 66,-2775 99,-3342 26,-426 193,-1604 275,-2407 29,-294 -2,-532 15,-691 122,-564 393,-2598 344,-3037 -2,-26 -4,-52 -5,-79 -9,-154 11,-341 35,-515 -118,-44 -199,-123 -93,-198 45,-32 101,-94 148,-171 2,-14 3,-27 5,-39l-63 -13 3 -12 -5 -1 101 -429zm-3445 9235c-145,1385 -264,1568 -754,2527 132,-157 238,-318 338,-499 348,-627 429,-1385 569,-2058 10,-57 -29,-111 -85,-120 -57,-10 -58,93 -68,150zm4369 -12546c68,10 136,21 204,32 276,46 179,24 442,108l0 0c-47,-33 -98,-62 -154,-87 815,76 1456,505 976,652 -855,-435 -2411,-316 -2875,-24 448,-127 1124,-236 1795,-169 713,72 1361,70 1357,423l0 1c-222,210 -696,394 -1012,525 -281,110 -400,180 -634,189 -77,3 -134,23 -177,54 -125,70 -144,226 -182,370 -63,239 -139,543 -206,822 -7,19 -16,43 -32,71 -45,79 -84,249 -115,419 -8,-1 -15,-1 -22,-2 -13,-1 -27,-5 -38,-6 -10,1 -20,4 -30,6 -17,5 -31,5 -48,3 -7,4 -14,5 -21,5 -9,38 6,83 51,62 32,-16 65,-22 100,-24l-4 24c-8,-3 -18,-1 -31,5 -11,6 -27,13 -47,18 -27,-9 -57,-17 -86,-21l-4 -126 -6 -1 -1 -7 -1 0c3,-71 5,-144 5,-177 0,-13 0,-28 -2,-42 -2,-5 -3,-11 -3,-16 -3,-6 -4,-11 -4,-17l2 3c-2,-4 -6,-13 -7,-18 -30,-19 -109,-221 -128,-272l2 15c-40,-294 -102,-576 -159,-869 -36,-186 -82,-277 -345,-314 -318,-44 -662,-217 -959,-438 -31,-24 -60,-49 -88,-75 -3,-59 7,-118 29,-176 471,-607 1034,-780 1792,-831 191,-13 460,-108 666,-95zm-646 3582c-7,-1 -14,-2 -21,-3 4,-7 8,-14 13,-21 4,1 8,2 12,2l-4 22zm-241 624c14,1 28,3 41,3 3,24 19,41 49,25 13,-5 37,-16 64,-21l-4 28c-16,8 -44,22 -76,24 -25,2 -54,2 -80,-3l6 -56zm177 -163c-2,1 -4,2 -6,3 -2,-8 -4,-16 -7,-25 6,-1 11,-2 17,-2l-4 24zm10 -71c-12,-2 -23,-4 -33,-8 -2,-11 -3,-22 -4,-34 13,5 25,10 32,13 3,2 6,3 8,4l-3 25zm17 -125c-4,1 -8,3 -12,5 -10,5 -26,11 -45,16 0,-10 1,-21 1,-31 16,-6 37,-12 59,-14l-3 24zm10 -71c-20,-2 -39,-7 -57,-15 1,-9 3,-19 5,-29 17,5 31,11 41,16 5,3 9,5 14,6l-3 22zm2812 -2899l-26 -14 21 -17c1,12 3,22 5,31zm92 513c0,-23 0,-46 0,-69 103,-115 138,-218 130,-386 -22,-491 123,-954 -298,-1304 -327,-272 -835,-302 -1303,-403 -975,-211 -2047,-213 -2817,309 -382,259 -875,331 -939,784 -44,304 86,667 54,960 -7,71 -25,140 -57,202 -49,140 -93,188 -177,186 -457,165 -1418,445 -1892,569 -1295,339 -1686,313 -2166,1740 -28,81 -49,150 -70,226 -28,28 -46,67 -46,111 -113,858 -479,1692 -653,2515 -179,355 -307,925 -482,1318 -384,870 229,1724 -232,2415 -677,1014 329,3070 103,4144 -90,427 -544,2453 250,2479 137,4 116,-1 172,11 58,344 175,1293 242,1362 131,133 405,-84 512,-122 388,-139 1055,-55 1210,-278 161,-233 -106,-404 -80,-740 42,-537 26,-424 -173,-616 243,-240 837,-289 476,-855 -16,-25 -53,-79 -63,-111 39,-187 90,-1416 125,-1704 -1,-1 -1,-4 0,-6 0,-2 -1,-5 2,-6 8,-56 17,-111 26,-160 52,-285 65,-1585 92,-1767 0,-2 0,-3 0,-4 -1,-2 -2,-6 0,-7 -6,-42 -12,-86 -19,-132 -50,-337 115,-868 105,-1309 -2,-119 -29,-484 -13,-665 106,-56 192,-185 257,-335 3,42 4,84 4,126 0,919 -264,1486 -332,2315 1,0 1,1 1,2 0,1 5,16 -1,14 9,119 40,1205 40,1261 0,273 -109,435 -160,661 3,1 2,4 2,6 0,2 0,7 -3,6 -8,159 -4,507 87,765 56,161 167,326 167,514 0,272 -124,183 -124,682 0,77 95,585 93,899 -2,587 15,1278 167,1817 41,145 69,241 216,280 130,33 371,11 516,11 865,0 943,0 1766,217 651,173 1038,241 1439,267 8,6 20,8 29,2 90,5 181,8 277,10l1014 0c1714,0 2616,-736 4098,-1110 601,-152 841,47 889,-413 46,-441 53,-764 -13,-1218 -21,-147 -24,-244 -53,-382 -37,-176 -85,-153 -85,-411 0,-87 153,-441 191,-553 298,-892 -36,-1251 -36,-1368 0,-365 155,-719 155,-1395l0 -2121c-32,-70 -61,-142 -84,-216 -64,-183 -99,-378 -101,-582 59,112 131,204 216,249 17,181 -10,546 -13,665 -9,441 156,972 106,1309 -147,979 -103,952 72,1910 53,287 208,1855 90,2040 -360,565 234,614 476,854 -199,192 -214,79 -173,617 26,335 -241,507 -79,739 154,223 822,140 1210,278 107,38 380,255 511,122 67,-69 184,-1017 243,-1362 55,-12 35,-6 172,-11 1070,-35 -131,-3053 247,-3186 250,-88 102,-768 106,-1032 11,-923 560,-1674 0,-2457 -457,-639 147,-1556 -233,-2415 -173,-391 -301,-959 -480,-1314 -92,-594 -312,-1299 -382,-1726 -44,-274 -106,-533 -179,-782 -178,-613 -204,-844 -631,-1259 -622,-605 -3530,-1312 -3743,-1658l29 -19zm-2991 3021c-24,5 -45,13 -58,20 -75,39 -57,-137 10,-93 11,8 31,16 55,21l4 -26c-15,-8 -39,-18 -68,-21 -26,-4 -54,-7 -82,-2l-18 146c43,11 114,4 153,-17l4 -28zm-163 96c29,-6 59,-5 85,-1 26,3 48,12 63,19l-4 29c-18,-4 -36,-11 -48,-19 -1,0 -1,0 -2,-3 -1,0 -2,0 -3,-2 -29,-16 -48,11 -53,42 0,0 -2,12 -2,12 -1,31 13,58 45,44 2,-4 4,-1 5,-4 11,-4 29,-11 50,-15l-3 28c-40,19 -108,25 -150,14l17 -144zm-23 194c3,0 7,0 9,-2 3,0 7,1 9,-2 5,0 16,4 19,0l21 0c1,0 1,2 3,2 17,0 41,6 58,10 9,2 18,5 26,8l-4 28c-19,-5 -35,-11 -44,-18 -65,-41 -83,133 -10,92 10,-5 27,-13 46,-18l-4 34c-46,19 -98,23 -146,9l17 -143zm107 299c-18,4 -32,11 -42,16 -72,39 -53,-135 10,-93 9,7 23,13 40,18l4 -29c-14,-6 -32,-12 -52,-15 -28,-3 -60,-7 -90,0l-17 143c29,7 62,6 90,4 19,-2 38,-7 52,-13l5 -31zm-27 197c-15,5 -28,10 -37,14 -71,41 -52,-135 10,-93 8,6 21,12 36,17l4 -31c-40,-18 -99,-21 -140,-11l-17 140 0 -1c38,15 101,10 140,-3l4 -32zm-26 194c-13,5 -25,11 -33,15 -70,39 -51,-138 11,-94 7,5 18,11 31,16l4 -31c-12,-5 -27,-9 -44,-11 -28,-5 -62,-7 -93,3l-1 -2 -18 149c2,-3 3,-6 5,-9 36,15 96,10 134,-3l4 -33zm-26 196c-12,5 -22,9 -29,13 -69,40 -50,-135 11,-91 6,4 15,8 27,12l4 -30c-11,-4 -25,-9 -39,-10 -28,-3 -61,-5 -92,5 -2,-4 -3,-8 -3,-13 -68,554 -106,1109 -140,1323 -65,416 -142,1090 -186,1543 -10,125 -14,221 -10,273 13,134 -58,374 -75,564 -14,174 -34,334 -45,398 -3,19 -7,56 -12,108 -31,346 -77,1011 -77,1132 0,63 -8,140 -16,222 -5,63 -13,132 -21,201 -4,51 -7,101 -7,145 0,79 -6,379 -15,693 1,-4 2,-6 4,2 0,0 1,-1 1,-1l2 0c41,18 89,9 122,-21l3 0c21,-17 32,8 33,37 1,0 1,5 1,5 0,0 -1,11 -1,11 0,2 2,-12 0,3 -2,16 -17,56 -39,38 -7,-5 -17,-12 -29,-15 -14,-3 -29,-10 -45,-10l-20 0c-1,3 -8,2 -11,2 -2,5 -3,3 -7,3 -2,3 -4,2 -7,2 -1,2 -2,2 -4,2 -1,-17 -1,-17 -1,-18 -1,0 -1,-1 -1,-2 0,0 0,-2 0,-3 -1,0 -2,-5 -2,-5l-4 157c1,-2 2,-4 3,-6 22,26 48,25 70,21 23,-4 43,-16 54,-26 52,-42 45,135 -4,93 -10,-8 -30,-18 -51,-20 -22,-2 -48,-5 -72,-11 0,-1 -1,-3 -1,-5l-4 143 0 -1c23,27 49,27 71,22 23,-5 42,-14 53,-24 52,-42 45,133 -4,93 -10,-9 -29,-18 -51,-22 -23,-3 -48,-4 -71,-11l0 0 -5 137c23,29 48,26 71,22 22,-3 42,-14 53,-24 52,-41 46,135 -4,93 -10,-7 -29,-18 -51,-22 -22,-3 -47,-3 -71,-11 -2,56 -4,103 -5,138l1 -1c22,9 48,27 70,24 22,-3 42,-16 53,-26 52,-42 45,133 -4,94 -10,-8 -29,-18 -51,-21 -22,-3 -47,-24 -70,-14 -1,-2 -2,-3 -2,-5 0,6 -1,10 -1,14 -3,25 -4,75 -5,138 1,-3 2,-6 3,-8 23,10 48,28 70,25 22,-4 42,-18 53,-26 52,-44 46,133 -3,91 -11,-7 -30,-17 -52,-21 -22,-4 -47,-22 -70,-12l-1 -3c-1,44 -1,93 -1,143 22,11 46,24 68,21 22,-3 42,-14 52,-24 52,-41 47,135 -2,92 -11,-8 -30,-18 -52,-21 -20,-2 -44,-19 -66,-13 0,48 0,96 0,141 20,11 42,25 62,22 22,-3 41,-13 52,-25 52,-42 46,134 -3,93 -10,-6 -29,-18 -51,-21 -18,-3 -40,-20 -61,-19 0,49 -1,98 -4,147 20,10 42,23 61,20 22,-4 42,-15 52,-26 52,-41 46,136 -3,94 -10,-5 -29,-17 -51,-21 -18,-3 -41,-20 -61,-17 -2,36 -3,85 -4,143 20,11 42,25 61,22 22,-3 42,-13 52,-23 52,-44 47,132 -2,93 -10,-8 -29,-20 -51,-23 -19,-3 -41,-18 -61,-16l-3 144c20,7 41,7 60,20 22,-3 42,-12 52,-21 51,-43 47,132 -2,91 -10,-7 -33,-11 -51,-23 -23,-14 -41,-21 -60,-16l-3 144c19,7 36,14 59,22 20,6 41,-13 52,-23 51,-42 46,132 -3,93 -10,-9 -29,-20 -50,-23 -18,-20 -39,-25 -58,-21l-3 148c18,8 35,15 57,22 21,7 42,-15 52,-24 51,-43 47,133 -2,94 -10,-9 -29,-19 -51,-22 -18,-20 -38,-26 -57,-22l-3 148c18,8 35,13 57,20 20,7 41,-13 52,-23 51,-42 46,133 -3,93 -10,-8 -33,-11 -50,-23 -22,-14 -39,-21 -56,-19l-3 148c17,7 34,14 55,21 21,6 42,-15 52,-23 51,-44 47,131 -2,92 -10,-8 -33,-11 -51,-22 -21,-14 -38,-21 -55,-20l-3 146c17,8 34,15 55,22 21,6 42,-15 52,-25 51,-42 48,135 -2,94 -10,-6 -33,-10 -51,-22 -21,-15 -38,-24 -55,-22l-3 149c17,7 34,14 56,22 20,8 41,-14 51,-24 51,-42 48,132 -1,93 -11,-9 -23,-27 -51,-46 -14,-9 -36,-6 -56,0l0 29 28 29c5,-22 17,-34 36,-9 10,10 29,22 51,24 11,1 23,2 36,1l3 -153c-28,0 -66,9 -88,27 -51,18 -48,-158 1,-93 22,21 60,28 88,24l4 -154c-31,0 -65,7 -90,26 -50,18 -47,-154 2,-92 22,21 59,26 89,23l4 -152c-26,0 -70,10 -90,26 -51,21 -47,-156 2,-94 24,24 56,31 89,26l4 -155c-13,0 -27,3 -39,5 -22,4 -42,15 -52,23 -51,20 -47,-156 2,-92 23,22 60,27 90,22l4 -153c-34,-2 -63,9 -92,27 -50,21 -46,-155 2,-93 23,22 61,26 91,23l4 -152c-30,-1 -68,8 -92,26 -51,20 -46,-154 3,-92 21,21 61,27 90,23l4 -153c-34,-1 -64,6 -92,27 -50,23 -46,-154 3,-94 23,22 60,27 91,24l4 -152c-35,-3 -63,8 -93,26 -50,22 -45,-153 3,-91 23,18 62,26 91,22l4 -153c-34,-2 -64,5 -92,27 -51,21 -45,-155 3,-93 10,10 30,19 51,21 12,1 26,3 39,1l5 -152c-35,-2 -62,8 -92,26 -51,24 -46,-151 3,-93 21,21 61,27 90,25l4 -154c-13,0 -26,3 -38,4 -22,3 -42,16 -53,25 -51,22 -46,-155 3,-95 23,20 58,28 90,24l4 -152c-35,-2 -61,4 -90,26 -52,24 -46,-133 3,-93 19,18 63,26 88,24l5 -154c-12,-1 -25,0 -37,2 -22,3 -42,18 -52,24 -52,42 -46,-133 3,-91 18,15 63,24 88,22l5 -152c-32,0 -65,6 -90,28 -52,40 -45,-137 4,-95 22,20 56,27 87,25 2,-52 4,-104 6,-155 -31,-1 -64,9 -89,28 -53,42 -46,-133 3,-93 24,19 59,25 88,23l6 -153c-12,0 -25,2 -37,4 -22,3 -42,14 -53,22 -52,43 -45,-133 4,-92 21,20 59,26 88,24l6 -153c-30,0 -65,7 -89,25l-1 0c-1,1 -2,1 -3,1 -28,23 -35,-25 -34,-44 -1,0 4,-72 38,-52 1,0 2,2 2,2 1,2 1,2 1,2 22,20 59,27 88,23l6 -153c-28,0 -67,10 -90,27 -53,42 -46,-135 4,-94 25,20 57,27 88,24l7 -152c-32,-1 -66,7 -91,26 -53,42 -45,-132 4,-93 22,21 58,26 88,24l7 -154c-32,-1 -65,8 -91,27 -53,43 -44,-133 5,-92 22,18 60,25 88,23l7 -154c-12,1 -24,4 -36,6 -22,3 -42,13 -53,21 -54,42 -44,-134 5,-93 21,20 55,27 86,24l7 -154c-33,0 -61,8 -88,28 -53,44 -43,-134 5,-95 11,10 29,22 52,23 10,2 22,3 33,3l8 -155c-31,0 -60,12 -86,27 -54,44 -42,-132 6,-91 23,18 53,24 82,22l3 -60c-6,27 -20,49 -40,32 -10,-5 -29,-18 -52,-22 -22,-3 -48,-3 -72,7 -6,-13 -4,-44 4,-57 38,16 96,4 127,-23 21,-16 32,1 35,25l3 -55c-31,1 -57,9 -82,27 -55,42 -42,-133 7,-93 10,10 29,18 51,21 8,1 17,1 26,1l2 -41c-7,17 -19,27 -34,14 -32,-25 -88,-29 -125,-14 -5,-15 -3,-46 5,-59 22,12 49,8 72,5 22,-3 43,-14 55,-24 15,-13 26,-8 31,6l2 -40c-30,2 -53,11 -77,29 -55,44 -41,-133 7,-94 10,9 29,19 51,21 7,1 14,2 21,2l2 -32c-7,10 -17,13 -29,4 -10,-8 -29,-20 -51,-21 -22,-4 -49,-2 -73,8 -6,-15 -3,-46 5,-59 23,12 49,6 72,3 23,-2 44,-13 55,-24 12,-9 20,-8 26,-2l2 -28c-28,4 -48,10 -72,27 -55,42 -40,-137 8,-93 17,17 44,20 66,20l2 -24c-6,5 -14,5 -23,-2 -32,-21 -89,-31 -124,-15 -6,-13 -3,-44 5,-57 23,8 49,9 72,5 23,-4 44,-18 55,-28 9,-6 16,-7 21,-5l1 -25c-3,0 -7,1 -10,1 -23,7 -44,18 -56,26 -55,42 -40,-133 9,-92 15,14 40,18 60,20l1 -20c-5,1 -10,0 -17,-5 -10,-10 -29,-19 -51,-21 -22,-3 -49,-5 -73,4 -6,-13 -3,-42 5,-55 23,7 49,7 72,3 23,-3 44,-18 56,-27 6,-5 11,-7 15,-7l1 -22c-25,4 -39,13 -60,25 -56,43 -39,-133 9,-91 10,9 29,15 51,22l3 0 2 -23c-3,0 -7,-2 -11,-5 -10,-7 -28,-18 -51,-21 -23,-3 -49,-3 -74,8 -5,-15 -2,-46 6,-60 23,11 49,11 73,5 23,-5 44,-15 56,-25 3,-2 5,-4 8,-5l2 -24c-23,5 -43,17 -55,26 -56,41 -39,-137 10,-96 12,12 30,20 48,23l2 -23c-2,-1 -3,-2 -5,-3 -10,-8 -29,-21 -52,-23 -22,-3 -49,-5 -74,5 -6,-13 -3,-41 5,-57 37,18 100,9 130,-19l3 -3 2 -25c-21,6 -39,17 -50,24 -56,44 -40,-131 9,-92 9,8 25,16 45,19l2 -24c-32,-26 -89,-29 -128,-16 -5,-15 -2,-44 6,-57 23,11 50,8 73,5 23,-3 45,-18 57,-28l1 -1 2 -25c-20,5 -37,17 -48,24 -57,43 -39,-135 10,-92 9,8 24,14 43,18l3 -25c-15,-11 -35,-16 -52,-19 -23,-4 -50,-5 -75,3 -6,-13 -3,-44 6,-57 23,10 50,10 73,6 21,-4 41,-14 59,-26l3 -27c-21,4 -39,15 -49,23 -58,42 -40,-135 9,-93 9,9 26,16 47,20l3 -24c-1,-1 -2,-2 -4,-3 -30,-24 -92,-26 -127,-14 -6,-15 -3,-46 5,-59 37,16 100,6 132,-19 2,-2 4,-3 6,-4l3 -22c-23,2 -43,15 -55,23 -57,40 -39,-137 10,-95 10,7 28,20 50,24l3 -26c-2,-1 -4,-2 -6,-4 -11,-7 -30,-18 -53,-21 -23,-3 -50,-4 -76,8 -6,-13 -3,-43 6,-56 41,15 101,9 133,-24 3,-2 5,-3 8,-4l2 -22c-23,5 -44,17 -56,24 -58,41 -40,-133 10,-92 10,9 29,19 52,21l2 -22c-2,-1 -5,-2 -7,-4 -11,-7 -30,-18 -53,-21 -24,-3 -51,-7 -77,5 -5,-13 -2,-43 6,-57 24,8 52,8 76,5 24,-4 46,-17 58,-25 3,-2 5,-3 8,-4l3 -26c-24,6 -45,17 -57,24 -58,42 -40,-133 10,-93 10,10 29,18 52,21l2 -20c-2,-1 -5,-2 -7,-4 -6,-3 -15,-11 -27,-13 -13,-3 -26,-10 -40,-11 -2,0 -4,0 -5,-2 0,0 -1,2 -2,2 -2,0 -4,0 -5,-2l-17 0c-1,3 -9,2 -12,2 -1,2 -7,1 -10,1 -2,5 -5,0 -7,5l-3 0c-1,2 -3,3 -3,0 0,0 0,-2 0,-3 -2,0 0,-3 -1,-3 -1,0 -1,-12 -1,-12 0,-10 2,-32 8,-39 1,0 0,-2 1,-2 0,2 1,2 2,2 24,11 51,8 75,3 24,-3 45,-13 57,-22 1,-2 2,-2 3,-2 1,-1 3,-2 4,-2l3 -23c-23,3 -43,12 -55,20 -1,2 -1,2 -4,2 -32,21 -36,-29 -32,-51 2,-19 16,-63 43,-45 1,1 1,1 2,1 1,2 1,2 1,2 13,12 33,19 49,22l3 -23c-2,-1 -3,-2 -5,-4 -11,-8 -30,-19 -54,-23 -24,-3 -52,-4 -78,5 -5,-11 -2,-44 7,-57 40,17 100,6 135,-17 2,-2 3,-2 5,-3l2 -26c-22,5 -42,16 -53,22 -60,42 -41,-132 10,-93 10,9 27,18 48,22l3 -25c-18,-12 -36,-20 -58,-23 -23,-1 -51,-4 -78,5 -6,-11 -2,-40 6,-53 43,11 102,6 138,-22l1 0 2 -26c-21,5 -40,14 -51,22 -60,40 -41,-134 11,-93 9,8 25,16 45,21l3 -26c-11,-7 -31,-16 -55,-23 -24,-1 -52,-5 -79,7 -5,-13 -2,-44 7,-57 40,13 101,5 136,-19l2 -29c-20,5 -37,15 -47,22 -61,42 -42,-132 10,-94 9,9 24,17 42,21l3 -27c-40,-27 -87,-26 -131,-12 -6,-15 -3,-46 6,-59 24,12 54,6 79,3 21,-1 41,-10 54,-18l3 -27c-19,5 -35,12 -45,16 -61,46 -41,-131 11,-94 8,9 22,17 39,23l3 -31c-12,-7 -29,-14 -49,-18 -24,0 -53,0 -80,8 -6,-11 -3,-42 6,-57 25,12 54,7 80,3 19,-2 37,-9 50,-16l3 -29c-17,4 -31,12 -40,18 -62,42 -42,-133 11,-93 7,7 19,14 35,18l2 -30c-11,-6 -27,-12 -44,-15 -25,0 -54,-4 -81,6 -7,-13 -3,-44 6,-57 25,10 54,8 80,5 17,-2 34,-8 46,-14l3 -32c-15,6 -27,13 -35,17 -63,42 -44,-134 10,-93 7,5 18,11 31,15l3 -29c-11,-6 -25,-10 -41,-12 -25,-2 -55,-5 -82,3 -7,-13 -3,-42 6,-55 36,12 88,9 124,-6l3 -33c-14,4 -25,10 -32,15 -64,40 -44,-135 10,-93 7,5 16,10 27,15l3 -31c-36,-15 -84,-18 -120,-3 -6,-15 -3,-48 6,-59 36,13 85,8 121,-4l3 -33c-11,4 -21,8 -28,13 -64,42 -43,-135 12,-95 5,5 13,11 22,16l3 -32c-10,-3 -21,-7 -32,-8 -26,-3 -57,-7 -85,3 -6,-11 -3,-40 6,-57 34,13 83,11 117,-1l3 -33c-9,4 -17,7 -23,10 -64,42 -45,-133 11,-91 4,3 11,7 19,11l3 -30c-34,-12 -82,-15 -115,-2 -6,-13 -3,-44 6,-57 33,10 81,9 115,-2l3 -32c-8,3 -14,6 -19,9 -66,39 -46,-136 10,-92 5,3 10,7 17,10l3 -29c-35,-12 -79,-16 -114,-2 -6,-15 -3,-46 7,-59 33,12 80,11 114,1l5 -34c-8,3 -14,6 -19,9 -67,42 -47,-133 11,-93 4,4 10,8 17,11l4 -30c-36,-12 -81,-12 -117,0 -7,-15 -3,-46 6,-59 28,12 60,8 87,5 11,-1 22,-3 32,-5l4 -33c-9,3 -16,7 -22,10 -67,41 -48,-136 11,-94 5,4 12,9 20,13l4 -31c-39,-15 -81,-16 -121,-3 -7,-13 -4,-44 6,-57 35,12 87,11 123,-2l5 -33c-10,4 -19,8 -26,11 -68,42 -48,-134 11,-93 6,5 14,10 24,14l4 -30c-11,-3 -23,-7 -36,-8 -27,-3 -60,-8 -90,1 -7,-13 -4,-42 6,-57 39,14 90,13 128,-1l5 -34zm-668 5372c24,-8 50,-9 72,-7 23,3 41,15 52,22 49,40 59,-137 6,-93 -12,9 -32,23 -55,26 -23,5 -49,5 -72,-3 -7,13 -9,42 -3,55zm-11 197c24,-10 50,-8 72,-5 22,3 42,13 52,19 49,41 59,-135 5,-91 -32,23 -90,36 -126,18 -7,13 -9,46 -3,59zm-10 193c24,-8 49,-6 72,-3 22,1 41,13 51,21 49,41 58,-135 5,-93 -32,26 -89,34 -125,20 -8,13 -9,42 -3,55zm-9 197c23,-10 50,-7 71,-5 22,2 42,13 52,21 49,41 57,-137 4,-93 -30,28 -88,36 -125,20 -7,13 -9,44 -2,57zm-9 196c24,-9 50,-11 72,-8 23,3 41,17 52,23 49,41 57,-135 4,-93 -11,10 -31,20 -54,23 -23,5 -49,8 -71,-3 -8,15 -9,45 -3,58zm-8 195c24,-8 50,-8 72,-6 22,3 41,15 51,23 50,39 57,-137 4,-93 -11,10 -31,20 -53,23 -23,5 -49,6 -71,-5 -8,15 -9,45 -3,58zm68 3413c-18,0 -38,4 -55,10l18 18c15,-7 24,8 27,28l8 8 2 -64zm-71 210c-8,4 -16,8 -21,12 -25,10 -37,-31 -36,-65l-27 -26 -3 98c19,5 40,2 58,0 20,18 39,10 50,1l-21 -20zm-88 68c20,-8 43,-12 58,-2 29,19 41,39 51,45 27,22 40,-18 39,-54l5 6c0,40 0,67 0,77 -12,1 -24,0 -35,-3 -16,-1 -37,-9 -51,-22 -2,0 -2,-2 -3,-2 -24,-41 -36,-4 -36,23 0,0 0,6 0,6 0,25 9,64 34,67 1,0 2,0 3,-2l1 0c10,-6 30,-19 52,-23 12,-2 26,-3 39,-2 3,37 6,95 9,152 -31,7 -80,-1 -103,-23 -49,-65 -52,109 -1,93 10,-8 30,-20 52,-23 16,-2 35,-4 53,-1 2,43 2,82 1,106 0,6 0,20 0,41 -39,12 -76,4 -108,-21 -49,-66 -52,111 0,70 10,16 30,6 52,2 17,-3 37,-7 56,-4l1 148c-20,6 -41,4 -59,2 -22,-3 -41,-13 -51,-47 -51,-41 -53,135 -1,93 10,16 30,4 52,1 18,-2 39,-4 59,1l1 145c-21,7 -43,6 -62,4 -22,-3 -42,-13 -52,-47 -50,-43 -52,131 0,91 10,18 30,5 52,3 19,-2 42,-4 62,1l2 143c-22,9 -46,7 -65,4 -22,-4 -42,-13 -53,-47 -50,-43 -52,133 0,91 10,19 30,7 52,3 20,-3 44,-6 66,1l1 144c-22,6 -47,7 -68,5 -22,-3 -42,-15 -52,-51 -51,-42 -53,137 -1,94 11,18 31,7 53,4 21,-3 46,-6 69,0l1 141c-23,10 -49,10 -70,7 -23,-4 -43,-15 -53,-49 -52,-42 -53,133 -1,91 11,21 31,8 53,5 22,-4 48,-7 71,2l2 141c-24,11 -51,9 -73,6 -23,-3 -43,-13 -53,-50 -52,-41 -53,133 -1,91 11,19 31,8 54,5 22,-3 49,-5 73,5l1 139 -1 -3c-24,10 -51,12 -74,8 -23,-3 -43,-13 -53,-50 -53,-44 -53,133 0,93 10,19 31,7 53,5 23,-3 50,-9 74,1l2 -3 1 148c0,-2 -1,-4 -2,-5 -24,10 -51,10 -75,6 -23,-3 -43,-14 -54,-52 -18,-14 -30,-1 -36,19l-1 -51c11,-1 21,1 29,6 31,23 43,43 54,51 53,40 51,-136 -1,-93 -11,10 -23,9 -53,-5 -9,-4 -20,-3 -31,-2l-5 -151c14,-2 27,0 36,7 31,24 43,41 53,47 53,41 53,-133 1,-91 -11,8 -24,9 -54,-3 -10,-5 -24,-4 -37,-3l-5 -150c16,-3 32,-3 43,5 31,23 42,42 53,50 52,39 53,-140 0,-94 -10,10 -22,11 -53,-3 -12,-6 -29,-4 -45,-3 -2,-53 -4,-103 -6,-148 19,-6 39,-8 52,1 31,23 42,42 53,49 52,41 52,-135 0,-93 -10,10 -30,20 -53,-3 -16,4 -35,6 -54,2 -3,-64 -6,-114 -8,-148 22,-8 48,-13 63,-2 31,22 42,41 53,49 51,39 52,-137 0,-93 -10,10 -23,10 -52,-3 -20,-8 -48,4 -71,-6 -14,-125 -10,-465 2,-694 1,-10 2,-23 2,-38 1,4 2,7 3,10 24,-10 49,-10 72,-7 21,30 40,41 51,47 50,41 52,-134 1,-92 -11,10 -23,9 -52,-2 -21,-8 -48,7 -71,-5l-1 3c2,-27 4,-51 7,-71 1,-15 3,-39 5,-72 1,0 2,1 3,-1 2,0 5,1 6,-2 3,0 8,1 9,-1l27 0c14,1 27,30 40,35 12,4 22,8 28,15 22,16 37,-21 38,-36 1,-6 1,-4 1,-18 0,0 0,-1 0,-1 0,-1 0,-7 -1,-7 -2,-27 -13,-47 -34,-34 0,0 -1,2 -2,2 -11,9 -23,11 -51,0 -18,-8 -41,1 -62,-4 2,-41 3,-89 5,-142zm178 2077c-24,-10 -52,-7 -75,-3 -23,3 -43,14 -54,-5 -16,13 -28,5 -34,-12l1 37c9,0 17,0 24,4 32,16 44,15 55,5 53,-44 53,133 0,94 -11,-8 -23,-27 -55,-52 -6,-4 -14,-7 -22,-7l1 37c6,-11 17,-14 30,-4 11,39 31,49 55,52 23,3 50,3 75,-8 1,3 2,6 3,9l-1 -153c-1,2 -2,4 -3,6zm1 197c-24,-9 -52,-7 -75,-4 -24,3 -44,15 -55,-6 -12,9 -21,7 -28,0l1 25c6,1 12,1 18,4 33,15 43,14 55,5 52,-41 54,136 0,94 -11,-6 -22,-26 -55,-52 -4,-3 -10,-6 -17,-7l1 31c7,-4 15,-4 25,4 11,37 32,48 55,52 24,4 51,3 76,-8 7,13 8,42 1,57 -25,-10 -53,-7 -77,-4 -23,4 -44,15 -54,-6 -9,6 -17,7 -23,4l1 20c4,1 9,2 12,3 32,16 44,17 55,7 54,-42 56,133 1,93 -11,-9 -23,-28 -55,-52 -3,-3 -8,-5 -12,-6l1 26c6,-1 12,0 20,6 11,39 32,50 55,53 24,4 52,3 77,-6 7,13 7,42 0,57 -25,-10 -53,-7 -76,-4 -24,4 -45,17 -56,-6 -6,5 -11,7 -16,6l1 21c2,1 4,1 6,2 32,14 44,15 55,7 55,-42 56,135 1,92 -11,-6 -24,-25 -56,-52 -1,-1 -3,-2 -4,-3l1 23c4,1 8,3 12,6 11,41 33,53 56,56 24,2 53,1 78,-9 7,15 7,44 0,57 -25,-9 -53,-6 -77,-3 -24,3 -45,15 -56,-8 -1,1 -3,2 -4,2l3 31c27,13 37,13 48,4 54,-40 56,135 0,93 -10,-7 -19,-22 -43,-42l4 34c12,24 30,31 49,34 26,4 53,5 78,-7 7,13 8,46 1,59 -25,-9 -53,-9 -79,-5 -15,3 -30,9 -41,6l2 28c15,4 23,1 30,-5 40,-29 52,53 35,87 -7,13 -18,19 -34,8 -9,-8 -17,-18 -26,-27l3 41c10,7 22,10 33,12 24,3 53,3 79,-7 4,8 6,22 5,35 15,-19 40,-23 60,-35 -26,-268 -71,-757 -71,-835l-1 -95c-1,3 -2,6 -3,9zm5 975c-24,-6 -51,-4 -74,-2 -10,1 -20,4 -29,5l2 29c7,1 13,-2 18,-6 56,-41 58,136 1,92 -5,-2 -10,-8 -17,-15 1,12 3,26 4,39 28,15 74,10 102,-1 -12,-37 -20,-72 -16,-88 4,-20 4,-37 9,-53zm-6 194c-25,-5 -55,0 -81,6l4 26 2 -2c54,-39 59,117 10,97 0,8 1,15 1,22 22,3 44,4 66,-1 -12,-36 -19,-69 -15,-85 5,-23 4,-45 13,-63zm19 -35c0,4 1,9 0,14m-1 222c-25,-10 -54,-9 -81,-5 0,8 -1,15 -1,23l4 0c5,-1 9,0 12,1 26,3 53,6 79,9 -4,-10 -8,-20 -12,-31l-1 3zm-217 -3056c23,-8 53,-18 71,-5 30,21 41,39 52,47 50,39 52,-135 1,-93 -11,10 -24,10 -52,-1 -21,-8 -48,5 -71,-5 -7,13 -8,44 -1,57zm-3 195c24,-10 54,-17 72,-3 29,21 41,39 52,47 51,39 52,-137 1,-93 -11,10 -24,9 -52,-1 -21,-8 -49,3 -72,-7 -7,13 -7,44 -1,57zm-2 195c24,-10 55,-18 72,-5 30,22 42,39 52,49 51,40 52,-135 1,-94 -11,9 -23,11 -52,-2 -21,-9 -49,5 -72,-5 -7,13 -8,42 -1,57zm-6 343c-3,12 -3,29 0,41l1 146c-1,3 -2,6 -3,9 -2,-113 -3,-191 -3,-194 -18,-108 -15,-472 -1,-717l6 715zm1 242l1 0 1 139 -3 -1 -2 -144c1,2 2,4 3,6zm0 195l3 141m-1 54l3 141m-1 53l3 144m-1 50l1 0 1 100c0,-3 -1,-40 -2,-100zm-1015 -17238c535,-681 1072,-877 2043,-961 950,-81 2105,1 2780,632 3,3 6,7 8,10 35,-201 -37,-406 -265,-601 -256,-219 -686,-234 -1083,-341 -866,-235 -1872,-324 -2674,199 -258,167 -594,225 -764,511 -113,191 -116,379 -45,551zm-2563 15784c33,39 -17,29 76,106 66,56 583,290 663,326 426,192 2156,1066 2460,914 -28,-87 37,-18 -67,-83l-721 -271c-532,-199 -2219,-979 -2411,-992zm-741 -675l-3 14"/>
  </g>
 </g>
</svg>
